<?xml version="1.0" encoding="utf-8" standalone="no"?>
<!DOCTYPE svg PUBLIC "-//W3C//DTD SVG 1.1//EN"
  "http://www.w3.org/Graphics/SVG/1.1/DTD/svg11.dtd">
<svg xmlns:xlink="http://www.w3.org/1999/xlink" width="431.0875pt" height="142.324782pt" viewBox="0 0 431.0875 142.324782" xmlns="http://www.w3.org/2000/svg" version="1.1">
 <metadata>
  <rdf:RDF xmlns:dc="http://purl.org/dc/elements/1.1/" xmlns:cc="http://creativecommons.org/ns#" xmlns:rdf="http://www.w3.org/1999/02/22-rdf-syntax-ns#">
   <cc:Work>
    <dc:type rdf:resource="http://purl.org/dc/dcmitype/StillImage"/>
    <dc:date>2023-01-12T15:36:09.463279</dc:date>
    <dc:format>image/svg+xml</dc:format>
    <dc:creator>
     <cc:Agent>
      <dc:title>Matplotlib v3.6.2, https://matplotlib.org/</dc:title>
     </cc:Agent>
    </dc:creator>
   </cc:Work>
  </rdf:RDF>
 </metadata>
 <defs>
  <style type="text/css">*{stroke-linejoin: round; stroke-linecap: butt}</style>
 </defs>
 <g id="figure_1">
  <g id="patch_1">
   <path d="M 0 142.324782 
L 431.0875 142.324782 
L 431.0875 0 
L 0 0 
z
" style="fill: #ffffff"/>
  </g>
  <g id="axes_1">
   <g id="patch_2">
    <path d="M 33.2875 118.446657 
L 423.8875 118.446657 
L 423.8875 7.566657 
L 33.2875 7.566657 
z
" style="fill: #ffffff"/>
   </g>
   <g id="matplotlib.axis_1">
    <g id="xtick_1">
     <g id="line2d_1">
      <defs>
       <path id="md845ae1424" d="M 0 0 
L 0 3.5 
" style="stroke: #000000; stroke-width: 0.8"/>
      </defs>
      <g>
       <use xlink:href="#md845ae1424" x="86.551136" y="118.446657" style="stroke: #000000; stroke-width: 0.8"/>
      </g>
     </g>
     <g id="text_1">
      <!-- −400000 -->
      <g transform="translate(63.273793 133.045094) scale(0.1 -0.1)">
       <defs>
        <path id="DejaVuSans-2212" d="M 678 2272 
L 4684 2272 
L 4684 1741 
L 678 1741 
L 678 2272 
z
" transform="scale(0.015625)"/>
        <path id="DejaVuSans-34" d="M 2419 4116 
L 825 1625 
L 2419 1625 
L 2419 4116 
z
M 2253 4666 
L 3047 4666 
L 3047 1625 
L 3713 1625 
L 3713 1100 
L 3047 1100 
L 3047 0 
L 2419 0 
L 2419 1100 
L 313 1100 
L 313 1709 
L 2253 4666 
z
" transform="scale(0.015625)"/>
        <path id="DejaVuSans-30" d="M 2034 4250 
Q 1547 4250 1301 3770 
Q 1056 3291 1056 2328 
Q 1056 1369 1301 889 
Q 1547 409 2034 409 
Q 2525 409 2770 889 
Q 3016 1369 3016 2328 
Q 3016 3291 2770 3770 
Q 2525 4250 2034 4250 
z
M 2034 4750 
Q 2819 4750 3233 4129 
Q 3647 3509 3647 2328 
Q 3647 1150 3233 529 
Q 2819 -91 2034 -91 
Q 1250 -91 836 529 
Q 422 1150 422 2328 
Q 422 3509 836 4129 
Q 1250 4750 2034 4750 
z
" transform="scale(0.015625)"/>
       </defs>
       <use xlink:href="#DejaVuSans-2212"/>
       <use xlink:href="#DejaVuSans-34" x="83.789062"/>
       <use xlink:href="#DejaVuSans-30" x="147.412109"/>
       <use xlink:href="#DejaVuSans-30" x="211.035156"/>
       <use xlink:href="#DejaVuSans-30" x="274.658203"/>
       <use xlink:href="#DejaVuSans-30" x="338.28125"/>
       <use xlink:href="#DejaVuSans-30" x="401.904297"/>
      </g>
     </g>
    </g>
    <g id="xtick_2">
     <g id="line2d_2">
      <g>
       <use xlink:href="#md845ae1424" x="157.569318" y="118.446657" style="stroke: #000000; stroke-width: 0.8"/>
      </g>
     </g>
     <g id="text_2">
      <!-- −200000 -->
      <g transform="translate(134.291974 133.045094) scale(0.1 -0.1)">
       <defs>
        <path id="DejaVuSans-32" d="M 1228 531 
L 3431 531 
L 3431 0 
L 469 0 
L 469 531 
Q 828 903 1448 1529 
Q 2069 2156 2228 2338 
Q 2531 2678 2651 2914 
Q 2772 3150 2772 3378 
Q 2772 3750 2511 3984 
Q 2250 4219 1831 4219 
Q 1534 4219 1204 4116 
Q 875 4013 500 3803 
L 500 4441 
Q 881 4594 1212 4672 
Q 1544 4750 1819 4750 
Q 2544 4750 2975 4387 
Q 3406 4025 3406 3419 
Q 3406 3131 3298 2873 
Q 3191 2616 2906 2266 
Q 2828 2175 2409 1742 
Q 1991 1309 1228 531 
z
" transform="scale(0.015625)"/>
       </defs>
       <use xlink:href="#DejaVuSans-2212"/>
       <use xlink:href="#DejaVuSans-32" x="83.789062"/>
       <use xlink:href="#DejaVuSans-30" x="147.412109"/>
       <use xlink:href="#DejaVuSans-30" x="211.035156"/>
       <use xlink:href="#DejaVuSans-30" x="274.658203"/>
       <use xlink:href="#DejaVuSans-30" x="338.28125"/>
       <use xlink:href="#DejaVuSans-30" x="401.904297"/>
      </g>
     </g>
    </g>
    <g id="xtick_3">
     <g id="line2d_3">
      <g>
       <use xlink:href="#md845ae1424" x="228.5875" y="118.446657" style="stroke: #000000; stroke-width: 0.8"/>
      </g>
     </g>
     <g id="text_3">
      <!-- 0 -->
      <g transform="translate(225.40625 133.045094) scale(0.1 -0.1)">
       <use xlink:href="#DejaVuSans-30"/>
      </g>
     </g>
    </g>
    <g id="xtick_4">
     <g id="line2d_4">
      <g>
       <use xlink:href="#md845ae1424" x="299.605682" y="118.446657" style="stroke: #000000; stroke-width: 0.8"/>
      </g>
     </g>
     <g id="text_4">
      <!-- 200000 -->
      <g transform="translate(280.518182 133.045094) scale(0.1 -0.1)">
       <use xlink:href="#DejaVuSans-32"/>
       <use xlink:href="#DejaVuSans-30" x="63.623047"/>
       <use xlink:href="#DejaVuSans-30" x="127.246094"/>
       <use xlink:href="#DejaVuSans-30" x="190.869141"/>
       <use xlink:href="#DejaVuSans-30" x="254.492188"/>
       <use xlink:href="#DejaVuSans-30" x="318.115234"/>
      </g>
     </g>
    </g>
    <g id="xtick_5">
     <g id="line2d_5">
      <g>
       <use xlink:href="#md845ae1424" x="370.623864" y="118.446657" style="stroke: #000000; stroke-width: 0.8"/>
      </g>
     </g>
     <g id="text_5">
      <!-- 400000 -->
      <g transform="translate(351.536364 133.045094) scale(0.1 -0.1)">
       <use xlink:href="#DejaVuSans-34"/>
       <use xlink:href="#DejaVuSans-30" x="63.623047"/>
       <use xlink:href="#DejaVuSans-30" x="127.246094"/>
       <use xlink:href="#DejaVuSans-30" x="190.869141"/>
       <use xlink:href="#DejaVuSans-30" x="254.492188"/>
       <use xlink:href="#DejaVuSans-30" x="318.115234"/>
      </g>
     </g>
    </g>
   </g>
   <g id="matplotlib.axis_2">
    <g id="ytick_1">
     <g id="line2d_6">
      <defs>
       <path id="mf0e813f860" d="M 0 0 
L -3.5 0 
" style="stroke: #000000; stroke-width: 0.8"/>
      </defs>
      <g>
       <use xlink:href="#mf0e813f860" x="33.2875" y="113.406666" style="stroke: #000000; stroke-width: 0.8"/>
      </g>
     </g>
     <g id="text_6">
      <!-- 0 -->
      <g transform="translate(19.925 117.205885) scale(0.1 -0.1)">
       <use xlink:href="#DejaVuSans-30"/>
      </g>
     </g>
    </g>
    <g id="ytick_2">
     <g id="line2d_7">
      <g>
       <use xlink:href="#mf0e813f860" x="33.2875" y="79.27085" style="stroke: #000000; stroke-width: 0.8"/>
      </g>
     </g>
     <g id="text_7">
      <!-- 50 -->
      <g transform="translate(13.5625 83.070069) scale(0.1 -0.1)">
       <defs>
        <path id="DejaVuSans-35" d="M 691 4666 
L 3169 4666 
L 3169 4134 
L 1269 4134 
L 1269 2991 
Q 1406 3038 1543 3061 
Q 1681 3084 1819 3084 
Q 2600 3084 3056 2656 
Q 3513 2228 3513 1497 
Q 3513 744 3044 326 
Q 2575 -91 1722 -91 
Q 1428 -91 1123 -41 
Q 819 9 494 109 
L 494 744 
Q 775 591 1075 516 
Q 1375 441 1709 441 
Q 2250 441 2565 725 
Q 2881 1009 2881 1497 
Q 2881 1984 2565 2268 
Q 2250 2553 1709 2553 
Q 1456 2553 1204 2497 
Q 953 2441 691 2322 
L 691 4666 
z
" transform="scale(0.015625)"/>
       </defs>
       <use xlink:href="#DejaVuSans-35"/>
       <use xlink:href="#DejaVuSans-30" x="63.623047"/>
      </g>
     </g>
    </g>
    <g id="ytick_3">
     <g id="line2d_8">
      <g>
       <use xlink:href="#mf0e813f860" x="33.2875" y="45.135034" style="stroke: #000000; stroke-width: 0.8"/>
      </g>
     </g>
     <g id="text_8">
      <!-- 100 -->
      <g transform="translate(7.2 48.934253) scale(0.1 -0.1)">
       <defs>
        <path id="DejaVuSans-31" d="M 794 531 
L 1825 531 
L 1825 4091 
L 703 3866 
L 703 4441 
L 1819 4666 
L 2450 4666 
L 2450 531 
L 3481 531 
L 3481 0 
L 794 0 
L 794 531 
z
" transform="scale(0.015625)"/>
       </defs>
       <use xlink:href="#DejaVuSans-31"/>
       <use xlink:href="#DejaVuSans-30" x="63.623047"/>
       <use xlink:href="#DejaVuSans-30" x="127.246094"/>
      </g>
     </g>
    </g>
    <g id="ytick_4">
     <g id="line2d_9">
      <g>
       <use xlink:href="#mf0e813f860" x="33.2875" y="10.999219" style="stroke: #000000; stroke-width: 0.8"/>
      </g>
     </g>
     <g id="text_9">
      <!-- 150 -->
      <g transform="translate(7.2 14.798437) scale(0.1 -0.1)">
       <use xlink:href="#DejaVuSans-31"/>
       <use xlink:href="#DejaVuSans-35" x="63.623047"/>
       <use xlink:href="#DejaVuSans-30" x="127.246094"/>
      </g>
     </g>
    </g>
   </g>
   <g id="line2d_10">
    <path d="M 51.042045 113.402965 
L 194.851936 113.332636 
L 195.237485 113.279823 
L 196.394133 113.397186 
L 197.165232 113.344086 
L 197.550781 113.241144 
L 199.092978 113.286357 
L 199.478528 113.086268 
L 199.864077 112.082188 
L 200.249626 112.652114 
L 200.635175 112.754332 
L 201.020725 112.019543 
L 201.406274 112.655046 
L 201.791823 109.284715 
L 202.177373 111.120987 
L 202.562922 107.331252 
L 202.948471 104.880642 
L 203.334021 107.234681 
L 203.71957 102.313944 
L 204.105119 107.042588 
L 204.490668 99.481 
L 204.876218 106.019669 
L 205.261767 78.180657 
L 205.647316 93.338677 
L 206.032866 73.072561 
L 206.418415 85.879781 
L 206.803964 83.22499 
L 207.189514 59.003139 
L 207.575063 87.956098 
L 207.960612 54.63523 
L 208.346162 97.281784 
L 208.731711 77.610092 
L 209.11726 99.672818 
L 209.502809 74.079213 
L 209.888359 88.992115 
L 210.273908 67.232419 
L 210.659457 77.661441 
L 211.045007 94.220247 
L 211.430556 70.190142 
L 211.816105 98.857709 
L 212.201655 87.331757 
L 212.587204 94.182626 
L 212.972753 79.047084 
L 213.358302 14.553401 
L 213.743852 67.975896 
L 214.129401 44.990745 
L 214.51495 39.615711 
L 214.9005 58.106837 
L 215.286049 63.467295 
L 215.671598 45.64246 
L 216.057148 80.407202 
L 216.442697 100.212968 
L 216.828246 81.360219 
L 217.213796 93.054718 
L 217.599345 82.154705 
L 217.984894 41.515102 
L 218.370443 73.030982 
L 218.755993 48.970469 
L 219.141542 66.058573 
L 219.912641 15.686703 
L 220.29819 45.911683 
L 220.683739 101.41506 
L 221.069289 98.955498 
L 221.454838 47.480931 
L 221.840387 89.078306 
L 222.225936 46.508773 
L 222.611486 83.945286 
L 222.997035 68.860615 
L 223.382584 12.606657 
L 223.768134 42.877659 
L 224.153683 24.72763 
L 224.539232 83.79469 
L 225.310331 55.080047 
L 225.69588 58.402872 
L 226.08143 78.452262 
L 226.852528 50.466053 
L 227.238077 45.765943 
L 227.623627 68.328526 
L 228.009176 81.565832 
L 228.394725 69.350152 
L 228.780275 69.562327 
L 229.165824 67.109056 
L 229.551373 81.333877 
L 229.936923 83.263488 
L 230.322472 33.603317 
L 230.708021 69.035511 
L 231.09357 53.309679 
L 231.47912 76.479385 
L 231.864669 70.446939 
L 232.250218 42.39832 
L 232.635768 73.742381 
L 233.021317 84.839824 
L 233.406866 47.15135 
L 233.792416 20.949113 
L 234.177965 18.53253 
L 234.563514 58.125551 
L 234.949064 78.923149 
L 235.334613 63.6824 
L 235.720162 65.734521 
L 236.105711 48.940465 
L 236.491261 100.187568 
L 236.87681 96.943671 
L 237.262359 42.055552 
L 237.647909 36.503737 
L 238.033458 22.963891 
L 238.419007 71.894886 
L 238.804557 43.693942 
L 239.190106 76.809923 
L 239.575655 39.3705 
L 239.961204 96.392688 
L 240.346754 79.703766 
L 240.732303 80.254004 
L 241.117852 97.499187 
L 241.503402 92.142559 
L 241.888951 43.865435 
L 242.2745 69.97396 
L 242.66005 49.595551 
L 243.045599 54.411754 
L 243.431148 34.74927 
L 243.816698 72.107197 
L 244.202247 16.066965 
L 244.587796 69.448875 
L 244.973345 89.870288 
L 245.358895 89.310786 
L 245.744444 89.565011 
L 246.129993 74.302172 
L 246.515543 90.990337 
L 246.901092 86.454918 
L 247.286641 61.97937 
L 247.672191 91.148791 
L 248.05774 72.909332 
L 248.443289 112.375037 
L 248.828838 72.811349 
L 249.214388 95.084391 
L 249.599937 63.947799 
L 249.985486 86.947482 
L 250.371036 51.270555 
L 250.756585 83.585217 
L 251.142134 88.292795 
L 251.527684 81.270211 
L 251.913233 82.244348 
L 252.298782 76.827069 
L 252.684332 106.228767 
L 253.069881 102.08947 
L 253.840979 103.546743 
L 254.226529 105.848444 
L 254.612078 106.036477 
L 254.997627 105.780025 
L 255.383177 111.136406 
L 255.768726 109.291356 
L 256.154275 113.020043 
L 256.539825 111.790581 
L 256.925374 112.70974 
L 257.310923 112.620404 
L 257.696472 112.051057 
L 258.082022 112.938523 
L 258.467571 113.263967 
L 258.85312 113.350855 
L 260.009768 113.252569 
L 261.166416 113.403051 
L 266.564106 113.339681 
L 267.335205 113.406105 
L 268.491853 113.300478 
L 269.262952 113.365367 
L 274.275093 113.402711 
L 275.81729 113.37859 
L 281.986079 113.379932 
L 283.142727 113.371162 
L 285.456022 113.396949 
L 292.010361 113.395684 
L 296.636952 113.372431 
L 298.950248 113.395745 
L 302.034642 113.390982 
L 305.504586 113.402246 
L 317.842164 113.396632 
L 325.938699 113.402011 
L 334.420784 113.397794 
L 340.204024 113.395625 
L 342.13177 113.398202 
L 347.143911 113.398384 
L 350.613855 113.399076 
L 361.409235 113.399048 
L 372.590165 113.397655 
L 392.638729 113.397057 
L 406.132955 113.403208 
L 406.132955 113.403208 
" clip-path="url(#p40f72e5e6c)" style="fill: none; stroke: #1f77b4; stroke-width: 1.5; stroke-linecap: square"/>
   </g>
   <g id="patch_3">
    <path d="M 33.2875 118.446657 
L 33.2875 7.566657 
" style="fill: none; stroke: #000000; stroke-width: 0.8; stroke-linejoin: miter; stroke-linecap: square"/>
   </g>
   <g id="patch_4">
    <path d="M 423.8875 118.446657 
L 423.8875 7.566657 
" style="fill: none; stroke: #000000; stroke-width: 0.8; stroke-linejoin: miter; stroke-linecap: square"/>
   </g>
   <g id="patch_5">
    <path d="M 33.2875 118.446657 
L 423.8875 118.446657 
" style="fill: none; stroke: #000000; stroke-width: 0.8; stroke-linejoin: miter; stroke-linecap: square"/>
   </g>
   <g id="patch_6">
    <path d="M 33.2875 7.566657 
L 423.8875 7.566657 
" style="fill: none; stroke: #000000; stroke-width: 0.8; stroke-linejoin: miter; stroke-linecap: square"/>
   </g>
  </g>
 </g>
 <defs>
  <clipPath id="p40f72e5e6c">
   <rect x="33.2875" y="7.566657" width="390.6" height="110.88"/>
  </clipPath>
 </defs>
</svg>
