<?xml version="1.0" encoding="utf-8" standalone="no"?>
<!DOCTYPE svg PUBLIC "-//W3C//DTD SVG 1.1//EN"
  "http://www.w3.org/Graphics/SVG/1.1/DTD/svg11.dtd">
<svg xmlns:xlink="http://www.w3.org/1999/xlink" width="451.993565pt" height="211.07625pt" viewBox="0 0 451.993565 211.07625" xmlns="http://www.w3.org/2000/svg" version="1.1">
 <metadata>
  <rdf:RDF xmlns:dc="http://purl.org/dc/elements/1.1/" xmlns:cc="http://creativecommons.org/ns#" xmlns:rdf="http://www.w3.org/1999/02/22-rdf-syntax-ns#">
   <cc:Work>
    <dc:type rdf:resource="http://purl.org/dc/dcmitype/StillImage"/>
    <dc:date>2023-01-12T15:01:07.943173</dc:date>
    <dc:format>image/svg+xml</dc:format>
    <dc:creator>
     <cc:Agent>
      <dc:title>Matplotlib v3.6.2, https://matplotlib.org/</dc:title>
     </cc:Agent>
    </dc:creator>
   </cc:Work>
  </rdf:RDF>
 </metadata>
 <defs>
  <style type="text/css">*{stroke-linejoin: round; stroke-linecap: butt}</style>
 </defs>
 <g id="figure_1">
  <g id="patch_1">
   <path d="M 0 211.07625 
L 451.993565 211.07625 
L 451.993565 0 
L 0 0 
z
" style="fill: #ffffff"/>
  </g>
  <g id="axes_1">
   <g id="patch_2">
    <path d="M 46.965625 173.52 
L 437.565625 173.52 
L 437.565625 7.2 
L 46.965625 7.2 
z
" style="fill: #ffffff"/>
   </g>
   <g id="matplotlib.axis_1">
    <g id="xtick_1">
     <g id="line2d_1">
      <defs>
       <path id="ma70f8771e5" d="M 0 0 
L 0 3.5 
" style="stroke: #000000; stroke-width: 0.8"/>
      </defs>
      <g>
       <use xlink:href="#ma70f8771e5" x="64.72017" y="173.52" style="stroke: #000000; stroke-width: 0.8"/>
      </g>
     </g>
     <g id="text_1">
      <!-- 0 -->
      <g transform="translate(61.53892 188.118438) scale(0.1 -0.1)">
       <defs>
        <path id="DejaVuSans-30" d="M 2034 4250 
Q 1547 4250 1301 3770 
Q 1056 3291 1056 2328 
Q 1056 1369 1301 889 
Q 1547 409 2034 409 
Q 2525 409 2770 889 
Q 3016 1369 3016 2328 
Q 3016 3291 2770 3770 
Q 2525 4250 2034 4250 
z
M 2034 4750 
Q 2819 4750 3233 4129 
Q 3647 3509 3647 2328 
Q 3647 1150 3233 529 
Q 2819 -91 2034 -91 
Q 1250 -91 836 529 
Q 422 1150 422 2328 
Q 422 3509 836 4129 
Q 1250 4750 2034 4750 
z
" transform="scale(0.015625)"/>
       </defs>
       <use xlink:href="#DejaVuSans-30"/>
      </g>
     </g>
    </g>
    <g id="xtick_2">
     <g id="line2d_2">
      <g>
       <use xlink:href="#ma70f8771e5" x="126.475111" y="173.52" style="stroke: #000000; stroke-width: 0.8"/>
      </g>
     </g>
     <g id="text_2">
      <!-- 20 -->
      <g transform="translate(120.112611 188.118438) scale(0.1 -0.1)">
       <defs>
        <path id="DejaVuSans-32" d="M 1228 531 
L 3431 531 
L 3431 0 
L 469 0 
L 469 531 
Q 828 903 1448 1529 
Q 2069 2156 2228 2338 
Q 2531 2678 2651 2914 
Q 2772 3150 2772 3378 
Q 2772 3750 2511 3984 
Q 2250 4219 1831 4219 
Q 1534 4219 1204 4116 
Q 875 4013 500 3803 
L 500 4441 
Q 881 4594 1212 4672 
Q 1544 4750 1819 4750 
Q 2544 4750 2975 4387 
Q 3406 4025 3406 3419 
Q 3406 3131 3298 2873 
Q 3191 2616 2906 2266 
Q 2828 2175 2409 1742 
Q 1991 1309 1228 531 
z
" transform="scale(0.015625)"/>
       </defs>
       <use xlink:href="#DejaVuSans-32"/>
       <use xlink:href="#DejaVuSans-30" x="63.623047"/>
      </g>
     </g>
    </g>
    <g id="xtick_3">
     <g id="line2d_3">
      <g>
       <use xlink:href="#ma70f8771e5" x="188.230052" y="173.52" style="stroke: #000000; stroke-width: 0.8"/>
      </g>
     </g>
     <g id="text_3">
      <!-- 40 -->
      <g transform="translate(181.867552 188.118438) scale(0.1 -0.1)">
       <defs>
        <path id="DejaVuSans-34" d="M 2419 4116 
L 825 1625 
L 2419 1625 
L 2419 4116 
z
M 2253 4666 
L 3047 4666 
L 3047 1625 
L 3713 1625 
L 3713 1100 
L 3047 1100 
L 3047 0 
L 2419 0 
L 2419 1100 
L 313 1100 
L 313 1709 
L 2253 4666 
z
" transform="scale(0.015625)"/>
       </defs>
       <use xlink:href="#DejaVuSans-34"/>
       <use xlink:href="#DejaVuSans-30" x="63.623047"/>
      </g>
     </g>
    </g>
    <g id="xtick_4">
     <g id="line2d_4">
      <g>
       <use xlink:href="#ma70f8771e5" x="249.984993" y="173.52" style="stroke: #000000; stroke-width: 0.8"/>
      </g>
     </g>
     <g id="text_4">
      <!-- 60 -->
      <g transform="translate(243.622493 188.118438) scale(0.1 -0.1)">
       <defs>
        <path id="DejaVuSans-36" d="M 2113 2584 
Q 1688 2584 1439 2293 
Q 1191 2003 1191 1497 
Q 1191 994 1439 701 
Q 1688 409 2113 409 
Q 2538 409 2786 701 
Q 3034 994 3034 1497 
Q 3034 2003 2786 2293 
Q 2538 2584 2113 2584 
z
M 3366 4563 
L 3366 3988 
Q 3128 4100 2886 4159 
Q 2644 4219 2406 4219 
Q 1781 4219 1451 3797 
Q 1122 3375 1075 2522 
Q 1259 2794 1537 2939 
Q 1816 3084 2150 3084 
Q 2853 3084 3261 2657 
Q 3669 2231 3669 1497 
Q 3669 778 3244 343 
Q 2819 -91 2113 -91 
Q 1303 -91 875 529 
Q 447 1150 447 2328 
Q 447 3434 972 4092 
Q 1497 4750 2381 4750 
Q 2619 4750 2861 4703 
Q 3103 4656 3366 4563 
z
" transform="scale(0.015625)"/>
       </defs>
       <use xlink:href="#DejaVuSans-36"/>
       <use xlink:href="#DejaVuSans-30" x="63.623047"/>
      </g>
     </g>
    </g>
    <g id="xtick_5">
     <g id="line2d_5">
      <g>
       <use xlink:href="#ma70f8771e5" x="311.739933" y="173.52" style="stroke: #000000; stroke-width: 0.8"/>
      </g>
     </g>
     <g id="text_5">
      <!-- 80 -->
      <g transform="translate(305.377433 188.118438) scale(0.1 -0.1)">
       <defs>
        <path id="DejaVuSans-38" d="M 2034 2216 
Q 1584 2216 1326 1975 
Q 1069 1734 1069 1313 
Q 1069 891 1326 650 
Q 1584 409 2034 409 
Q 2484 409 2743 651 
Q 3003 894 3003 1313 
Q 3003 1734 2745 1975 
Q 2488 2216 2034 2216 
z
M 1403 2484 
Q 997 2584 770 2862 
Q 544 3141 544 3541 
Q 544 4100 942 4425 
Q 1341 4750 2034 4750 
Q 2731 4750 3128 4425 
Q 3525 4100 3525 3541 
Q 3525 3141 3298 2862 
Q 3072 2584 2669 2484 
Q 3125 2378 3379 2068 
Q 3634 1759 3634 1313 
Q 3634 634 3220 271 
Q 2806 -91 2034 -91 
Q 1263 -91 848 271 
Q 434 634 434 1313 
Q 434 1759 690 2068 
Q 947 2378 1403 2484 
z
M 1172 3481 
Q 1172 3119 1398 2916 
Q 1625 2713 2034 2713 
Q 2441 2713 2670 2916 
Q 2900 3119 2900 3481 
Q 2900 3844 2670 4047 
Q 2441 4250 2034 4250 
Q 1625 4250 1398 4047 
Q 1172 3844 1172 3481 
z
" transform="scale(0.015625)"/>
       </defs>
       <use xlink:href="#DejaVuSans-38"/>
       <use xlink:href="#DejaVuSans-30" x="63.623047"/>
      </g>
     </g>
    </g>
    <g id="xtick_6">
     <g id="line2d_6">
      <g>
       <use xlink:href="#ma70f8771e5" x="373.494874" y="173.52" style="stroke: #000000; stroke-width: 0.8"/>
      </g>
     </g>
     <g id="text_6">
      <!-- 100 -->
      <g transform="translate(363.951124 188.118438) scale(0.1 -0.1)">
       <defs>
        <path id="DejaVuSans-31" d="M 794 531 
L 1825 531 
L 1825 4091 
L 703 3866 
L 703 4441 
L 1819 4666 
L 2450 4666 
L 2450 531 
L 3481 531 
L 3481 0 
L 794 0 
L 794 531 
z
" transform="scale(0.015625)"/>
       </defs>
       <use xlink:href="#DejaVuSans-31"/>
       <use xlink:href="#DejaVuSans-30" x="63.623047"/>
       <use xlink:href="#DejaVuSans-30" x="127.246094"/>
      </g>
     </g>
    </g>
    <g id="xtick_7">
     <g id="line2d_7">
      <g>
       <use xlink:href="#ma70f8771e5" x="435.249815" y="173.52" style="stroke: #000000; stroke-width: 0.8"/>
      </g>
     </g>
     <g id="text_7">
      <!-- 120 -->
      <g transform="translate(425.706065 188.118438) scale(0.1 -0.1)">
       <use xlink:href="#DejaVuSans-31"/>
       <use xlink:href="#DejaVuSans-32" x="63.623047"/>
       <use xlink:href="#DejaVuSans-30" x="127.246094"/>
      </g>
     </g>
    </g>
    <g id="text_8">
     <!-- Sample -->
     <g transform="translate(223.517188 201.796563) scale(0.1 -0.1)">
      <defs>
       <path id="DejaVuSans-53" d="M 3425 4513 
L 3425 3897 
Q 3066 4069 2747 4153 
Q 2428 4238 2131 4238 
Q 1616 4238 1336 4038 
Q 1056 3838 1056 3469 
Q 1056 3159 1242 3001 
Q 1428 2844 1947 2747 
L 2328 2669 
Q 3034 2534 3370 2195 
Q 3706 1856 3706 1288 
Q 3706 609 3251 259 
Q 2797 -91 1919 -91 
Q 1588 -91 1214 -16 
Q 841 59 441 206 
L 441 856 
Q 825 641 1194 531 
Q 1563 422 1919 422 
Q 2459 422 2753 634 
Q 3047 847 3047 1241 
Q 3047 1584 2836 1778 
Q 2625 1972 2144 2069 
L 1759 2144 
Q 1053 2284 737 2584 
Q 422 2884 422 3419 
Q 422 4038 858 4394 
Q 1294 4750 2059 4750 
Q 2388 4750 2728 4690 
Q 3069 4631 3425 4513 
z
" transform="scale(0.015625)"/>
       <path id="DejaVuSans-61" d="M 2194 1759 
Q 1497 1759 1228 1600 
Q 959 1441 959 1056 
Q 959 750 1161 570 
Q 1363 391 1709 391 
Q 2188 391 2477 730 
Q 2766 1069 2766 1631 
L 2766 1759 
L 2194 1759 
z
M 3341 1997 
L 3341 0 
L 2766 0 
L 2766 531 
Q 2569 213 2275 61 
Q 1981 -91 1556 -91 
Q 1019 -91 701 211 
Q 384 513 384 1019 
Q 384 1609 779 1909 
Q 1175 2209 1959 2209 
L 2766 2209 
L 2766 2266 
Q 2766 2663 2505 2880 
Q 2244 3097 1772 3097 
Q 1472 3097 1187 3025 
Q 903 2953 641 2809 
L 641 3341 
Q 956 3463 1253 3523 
Q 1550 3584 1831 3584 
Q 2591 3584 2966 3190 
Q 3341 2797 3341 1997 
z
" transform="scale(0.015625)"/>
       <path id="DejaVuSans-6d" d="M 3328 2828 
Q 3544 3216 3844 3400 
Q 4144 3584 4550 3584 
Q 5097 3584 5394 3201 
Q 5691 2819 5691 2113 
L 5691 0 
L 5113 0 
L 5113 2094 
Q 5113 2597 4934 2840 
Q 4756 3084 4391 3084 
Q 3944 3084 3684 2787 
Q 3425 2491 3425 1978 
L 3425 0 
L 2847 0 
L 2847 2094 
Q 2847 2600 2669 2842 
Q 2491 3084 2119 3084 
Q 1678 3084 1418 2786 
Q 1159 2488 1159 1978 
L 1159 0 
L 581 0 
L 581 3500 
L 1159 3500 
L 1159 2956 
Q 1356 3278 1631 3431 
Q 1906 3584 2284 3584 
Q 2666 3584 2933 3390 
Q 3200 3197 3328 2828 
z
" transform="scale(0.015625)"/>
       <path id="DejaVuSans-70" d="M 1159 525 
L 1159 -1331 
L 581 -1331 
L 581 3500 
L 1159 3500 
L 1159 2969 
Q 1341 3281 1617 3432 
Q 1894 3584 2278 3584 
Q 2916 3584 3314 3078 
Q 3713 2572 3713 1747 
Q 3713 922 3314 415 
Q 2916 -91 2278 -91 
Q 1894 -91 1617 61 
Q 1341 213 1159 525 
z
M 3116 1747 
Q 3116 2381 2855 2742 
Q 2594 3103 2138 3103 
Q 1681 3103 1420 2742 
Q 1159 2381 1159 1747 
Q 1159 1113 1420 752 
Q 1681 391 2138 391 
Q 2594 391 2855 752 
Q 3116 1113 3116 1747 
z
" transform="scale(0.015625)"/>
       <path id="DejaVuSans-6c" d="M 603 4863 
L 1178 4863 
L 1178 0 
L 603 0 
L 603 4863 
z
" transform="scale(0.015625)"/>
       <path id="DejaVuSans-65" d="M 3597 1894 
L 3597 1613 
L 953 1613 
Q 991 1019 1311 708 
Q 1631 397 2203 397 
Q 2534 397 2845 478 
Q 3156 559 3463 722 
L 3463 178 
Q 3153 47 2828 -22 
Q 2503 -91 2169 -91 
Q 1331 -91 842 396 
Q 353 884 353 1716 
Q 353 2575 817 3079 
Q 1281 3584 2069 3584 
Q 2775 3584 3186 3129 
Q 3597 2675 3597 1894 
z
M 3022 2063 
Q 3016 2534 2758 2815 
Q 2500 3097 2075 3097 
Q 1594 3097 1305 2825 
Q 1016 2553 972 2059 
L 3022 2063 
z
" transform="scale(0.015625)"/>
      </defs>
      <use xlink:href="#DejaVuSans-53"/>
      <use xlink:href="#DejaVuSans-61" x="63.476562"/>
      <use xlink:href="#DejaVuSans-6d" x="124.755859"/>
      <use xlink:href="#DejaVuSans-70" x="222.167969"/>
      <use xlink:href="#DejaVuSans-6c" x="285.644531"/>
      <use xlink:href="#DejaVuSans-65" x="313.427734"/>
     </g>
    </g>
   </g>
   <g id="matplotlib.axis_2">
    <g id="ytick_1">
     <g id="line2d_8">
      <defs>
       <path id="m6be52f9772" d="M 0 0 
L -3.5 0 
" style="stroke: #000000; stroke-width: 0.8"/>
      </defs>
      <g>
       <use xlink:href="#m6be52f9772" x="46.965625" y="165.96" style="stroke: #000000; stroke-width: 0.8"/>
      </g>
     </g>
     <g id="text_9">
      <!-- 0 -->
      <g transform="translate(33.603125 169.759219) scale(0.1 -0.1)">
       <use xlink:href="#DejaVuSans-30"/>
      </g>
     </g>
    </g>
    <g id="ytick_2">
     <g id="line2d_9">
      <g>
       <use xlink:href="#m6be52f9772" x="46.965625" y="137.971672" style="stroke: #000000; stroke-width: 0.8"/>
      </g>
     </g>
     <g id="text_10">
      <!-- 20 -->
      <g transform="translate(27.240625 141.77089) scale(0.1 -0.1)">
       <use xlink:href="#DejaVuSans-32"/>
       <use xlink:href="#DejaVuSans-30" x="63.623047"/>
      </g>
     </g>
    </g>
    <g id="ytick_3">
     <g id="line2d_10">
      <g>
       <use xlink:href="#m6be52f9772" x="46.965625" y="109.983343" style="stroke: #000000; stroke-width: 0.8"/>
      </g>
     </g>
     <g id="text_11">
      <!-- 40 -->
      <g transform="translate(27.240625 113.782562) scale(0.1 -0.1)">
       <use xlink:href="#DejaVuSans-34"/>
       <use xlink:href="#DejaVuSans-30" x="63.623047"/>
      </g>
     </g>
    </g>
    <g id="ytick_4">
     <g id="line2d_11">
      <g>
       <use xlink:href="#m6be52f9772" x="46.965625" y="81.995015" style="stroke: #000000; stroke-width: 0.8"/>
      </g>
     </g>
     <g id="text_12">
      <!-- 60 -->
      <g transform="translate(27.240625 85.794234) scale(0.1 -0.1)">
       <use xlink:href="#DejaVuSans-36"/>
       <use xlink:href="#DejaVuSans-30" x="63.623047"/>
      </g>
     </g>
    </g>
    <g id="ytick_5">
     <g id="line2d_12">
      <g>
       <use xlink:href="#m6be52f9772" x="46.965625" y="54.006687" style="stroke: #000000; stroke-width: 0.8"/>
      </g>
     </g>
     <g id="text_13">
      <!-- 80 -->
      <g transform="translate(27.240625 57.805905) scale(0.1 -0.1)">
       <use xlink:href="#DejaVuSans-38"/>
       <use xlink:href="#DejaVuSans-30" x="63.623047"/>
      </g>
     </g>
    </g>
    <g id="ytick_6">
     <g id="line2d_13">
      <g>
       <use xlink:href="#m6be52f9772" x="46.965625" y="26.018358" style="stroke: #000000; stroke-width: 0.8"/>
      </g>
     </g>
     <g id="text_14">
      <!-- 100 -->
      <g transform="translate(20.878125 29.817577) scale(0.1 -0.1)">
       <use xlink:href="#DejaVuSans-31"/>
       <use xlink:href="#DejaVuSans-30" x="63.623047"/>
       <use xlink:href="#DejaVuSans-30" x="127.246094"/>
      </g>
     </g>
    </g>
    <g id="text_15">
     <!-- Frequentieafwijking -->
     <g transform="translate(14.798438 139.138125) rotate(-90) scale(0.1 -0.1)">
      <defs>
       <path id="DejaVuSans-46" d="M 628 4666 
L 3309 4666 
L 3309 4134 
L 1259 4134 
L 1259 2759 
L 3109 2759 
L 3109 2228 
L 1259 2228 
L 1259 0 
L 628 0 
L 628 4666 
z
" transform="scale(0.015625)"/>
       <path id="DejaVuSans-72" d="M 2631 2963 
Q 2534 3019 2420 3045 
Q 2306 3072 2169 3072 
Q 1681 3072 1420 2755 
Q 1159 2438 1159 1844 
L 1159 0 
L 581 0 
L 581 3500 
L 1159 3500 
L 1159 2956 
Q 1341 3275 1631 3429 
Q 1922 3584 2338 3584 
Q 2397 3584 2469 3576 
Q 2541 3569 2628 3553 
L 2631 2963 
z
" transform="scale(0.015625)"/>
       <path id="DejaVuSans-71" d="M 947 1747 
Q 947 1113 1208 752 
Q 1469 391 1925 391 
Q 2381 391 2643 752 
Q 2906 1113 2906 1747 
Q 2906 2381 2643 2742 
Q 2381 3103 1925 3103 
Q 1469 3103 1208 2742 
Q 947 2381 947 1747 
z
M 2906 525 
Q 2725 213 2448 61 
Q 2172 -91 1784 -91 
Q 1150 -91 751 415 
Q 353 922 353 1747 
Q 353 2572 751 3078 
Q 1150 3584 1784 3584 
Q 2172 3584 2448 3432 
Q 2725 3281 2906 2969 
L 2906 3500 
L 3481 3500 
L 3481 -1331 
L 2906 -1331 
L 2906 525 
z
" transform="scale(0.015625)"/>
       <path id="DejaVuSans-75" d="M 544 1381 
L 544 3500 
L 1119 3500 
L 1119 1403 
Q 1119 906 1312 657 
Q 1506 409 1894 409 
Q 2359 409 2629 706 
Q 2900 1003 2900 1516 
L 2900 3500 
L 3475 3500 
L 3475 0 
L 2900 0 
L 2900 538 
Q 2691 219 2414 64 
Q 2138 -91 1772 -91 
Q 1169 -91 856 284 
Q 544 659 544 1381 
z
M 1991 3584 
L 1991 3584 
z
" transform="scale(0.015625)"/>
       <path id="DejaVuSans-6e" d="M 3513 2113 
L 3513 0 
L 2938 0 
L 2938 2094 
Q 2938 2591 2744 2837 
Q 2550 3084 2163 3084 
Q 1697 3084 1428 2787 
Q 1159 2491 1159 1978 
L 1159 0 
L 581 0 
L 581 3500 
L 1159 3500 
L 1159 2956 
Q 1366 3272 1645 3428 
Q 1925 3584 2291 3584 
Q 2894 3584 3203 3211 
Q 3513 2838 3513 2113 
z
" transform="scale(0.015625)"/>
       <path id="DejaVuSans-74" d="M 1172 4494 
L 1172 3500 
L 2356 3500 
L 2356 3053 
L 1172 3053 
L 1172 1153 
Q 1172 725 1289 603 
Q 1406 481 1766 481 
L 2356 481 
L 2356 0 
L 1766 0 
Q 1100 0 847 248 
Q 594 497 594 1153 
L 594 3053 
L 172 3053 
L 172 3500 
L 594 3500 
L 594 4494 
L 1172 4494 
z
" transform="scale(0.015625)"/>
       <path id="DejaVuSans-69" d="M 603 3500 
L 1178 3500 
L 1178 0 
L 603 0 
L 603 3500 
z
M 603 4863 
L 1178 4863 
L 1178 4134 
L 603 4134 
L 603 4863 
z
" transform="scale(0.015625)"/>
       <path id="DejaVuSans-66" d="M 2375 4863 
L 2375 4384 
L 1825 4384 
Q 1516 4384 1395 4259 
Q 1275 4134 1275 3809 
L 1275 3500 
L 2222 3500 
L 2222 3053 
L 1275 3053 
L 1275 0 
L 697 0 
L 697 3053 
L 147 3053 
L 147 3500 
L 697 3500 
L 697 3744 
Q 697 4328 969 4595 
Q 1241 4863 1831 4863 
L 2375 4863 
z
" transform="scale(0.015625)"/>
       <path id="DejaVuSans-77" d="M 269 3500 
L 844 3500 
L 1563 769 
L 2278 3500 
L 2956 3500 
L 3675 769 
L 4391 3500 
L 4966 3500 
L 4050 0 
L 3372 0 
L 2619 2869 
L 1863 0 
L 1184 0 
L 269 3500 
z
" transform="scale(0.015625)"/>
       <path id="DejaVuSans-6a" d="M 603 3500 
L 1178 3500 
L 1178 -63 
Q 1178 -731 923 -1031 
Q 669 -1331 103 -1331 
L -116 -1331 
L -116 -844 
L 38 -844 
Q 366 -844 484 -692 
Q 603 -541 603 -63 
L 603 3500 
z
M 603 4863 
L 1178 4863 
L 1178 4134 
L 603 4134 
L 603 4863 
z
" transform="scale(0.015625)"/>
       <path id="DejaVuSans-6b" d="M 581 4863 
L 1159 4863 
L 1159 1991 
L 2875 3500 
L 3609 3500 
L 1753 1863 
L 3688 0 
L 2938 0 
L 1159 1709 
L 1159 0 
L 581 0 
L 581 4863 
z
" transform="scale(0.015625)"/>
       <path id="DejaVuSans-67" d="M 2906 1791 
Q 2906 2416 2648 2759 
Q 2391 3103 1925 3103 
Q 1463 3103 1205 2759 
Q 947 2416 947 1791 
Q 947 1169 1205 825 
Q 1463 481 1925 481 
Q 2391 481 2648 825 
Q 2906 1169 2906 1791 
z
M 3481 434 
Q 3481 -459 3084 -895 
Q 2688 -1331 1869 -1331 
Q 1566 -1331 1297 -1286 
Q 1028 -1241 775 -1147 
L 775 -588 
Q 1028 -725 1275 -790 
Q 1522 -856 1778 -856 
Q 2344 -856 2625 -561 
Q 2906 -266 2906 331 
L 2906 616 
Q 2728 306 2450 153 
Q 2172 0 1784 0 
Q 1141 0 747 490 
Q 353 981 353 1791 
Q 353 2603 747 3093 
Q 1141 3584 1784 3584 
Q 2172 3584 2450 3431 
Q 2728 3278 2906 2969 
L 2906 3500 
L 3481 3500 
L 3481 434 
z
" transform="scale(0.015625)"/>
      </defs>
      <use xlink:href="#DejaVuSans-46"/>
      <use xlink:href="#DejaVuSans-72" x="50.269531"/>
      <use xlink:href="#DejaVuSans-65" x="89.132812"/>
      <use xlink:href="#DejaVuSans-71" x="150.65625"/>
      <use xlink:href="#DejaVuSans-75" x="214.132812"/>
      <use xlink:href="#DejaVuSans-65" x="277.511719"/>
      <use xlink:href="#DejaVuSans-6e" x="339.035156"/>
      <use xlink:href="#DejaVuSans-74" x="402.414062"/>
      <use xlink:href="#DejaVuSans-69" x="441.623047"/>
      <use xlink:href="#DejaVuSans-65" x="469.40625"/>
      <use xlink:href="#DejaVuSans-61" x="530.929688"/>
      <use xlink:href="#DejaVuSans-66" x="592.208984"/>
      <use xlink:href="#DejaVuSans-77" x="625.664062"/>
      <use xlink:href="#DejaVuSans-69" x="707.451172"/>
      <use xlink:href="#DejaVuSans-6a" x="735.234375"/>
      <use xlink:href="#DejaVuSans-6b" x="763.017578"/>
      <use xlink:href="#DejaVuSans-69" x="820.927734"/>
      <use xlink:href="#DejaVuSans-6e" x="848.710938"/>
      <use xlink:href="#DejaVuSans-67" x="912.089844"/>
     </g>
    </g>
   </g>
   <g id="line2d_14">
    <path d="M 64.72017 165.96 
L 67.807917 165.96 
L 70.895665 165.959974 
L 73.983412 165.959973 
L 77.071159 165.959693 
L 80.158906 165.953303 
L 83.246653 165.901686 
L 86.3344 165.12983 
L 89.422147 152.093475 
L 92.509894 143.231277 
L 95.597641 133.107065 
L 98.685388 123.559136 
L 101.773135 115.8136 
L 104.860882 102.371913 
L 107.948629 101.920361 
L 111.036376 99.483565 
L 114.124123 94.323184 
L 117.21187 78.080216 
L 120.299617 73.34311 
L 123.387364 62.309302 
L 126.475111 61.887911 
L 129.562858 59.422812 
L 132.650605 53.714034 
L 135.738352 42.984772 
L 138.826099 41.237886 
L 141.913846 36.159673 
L 145.001593 32.941493 
L 148.08934 29.518087 
L 151.177087 26.900726 
L 154.264834 23.808483 
L 157.352582 22.982868 
L 160.440329 21.662708 
L 163.528076 20.182719 
L 166.615823 18.890887 
L 169.70357 17.794186 
L 172.791317 16.864165 
L 175.879064 16.050259 
L 178.966811 15.245834 
L 182.054558 15.014375 
L 185.142305 14.862548 
L 188.230052 14.76 
L 191.317799 14.804869 
L 194.405546 15.001676 
L 197.493293 15.270809 
L 200.58104 15.522497 
L 203.668787 15.82797 
L 206.756534 16.035149 
L 209.844281 16.395457 
L 212.932028 16.927186 
L 216.019775 17.42138 
L 219.107522 17.760514 
L 222.195269 18.211086 
L 225.283016 18.771535 
L 228.370763 19.345798 
L 231.45851 19.837367 
L 234.546257 20.360882 
L 237.634004 20.850957 
L 240.721751 21.266757 
L 243.809499 21.645742 
L 246.897246 21.999583 
L 249.984993 22.374236 
L 253.07274 22.629511 
L 256.160487 22.95471 
L 259.248234 23.328364 
L 262.335981 23.676316 
L 265.423728 23.95178 
L 268.511475 24.241173 
L 271.599222 24.612092 
L 274.686969 24.881007 
L 277.774716 25.066991 
L 280.862463 25.217274 
L 283.95021 25.413042 
L 287.037957 25.524895 
L 290.125704 25.613217 
L 293.213451 25.771714 
L 296.301198 25.822941 
L 299.388945 25.871534 
L 302.476692 25.908824 
L 305.564439 25.935029 
L 308.652186 26.01356 
L 311.739933 26.004032 
L 314.82768 25.998558 
L 317.915427 26.044852 
L 321.003174 26.085018 
L 324.090921 26.103912 
L 327.178668 26.045983 
L 330.266416 25.927635 
L 333.354163 25.856045 
L 336.44191 25.784687 
L 339.529657 25.736835 
L 342.617404 25.760576 
L 345.705151 25.714898 
L 348.792898 25.670843 
L 351.880645 25.688754 
L 354.968392 25.64059 
L 358.056139 25.512635 
L 361.143886 25.482191 
L 364.231633 25.53243 
L 367.31938 25.565743 
L 370.407127 25.521257 
L 373.494874 25.472602 
L 376.582621 25.498584 
L 379.670368 25.457935 
L 382.758115 25.419957 
L 385.845862 25.450671 
L 388.933609 25.473265 
L 392.021356 25.417776 
L 395.109103 25.367564 
L 398.19685 25.367558 
L 401.284597 25.367503 
L 404.372344 25.367501 
L 407.460091 25.367501 
L 410.547838 25.367501 
L 413.635585 25.367501 
L 416.723333 25.367501 
L 419.81108 25.367501 
" clip-path="url(#p75cab89ba0)" style="fill: none; stroke: #1f77b4; stroke-width: 1.5; stroke-linecap: square"/>
    <defs>
     <path id="m384c63c340" d="M 0 1.5 
C 0.397805 1.5 0.77937 1.341951 1.06066 1.06066 
C 1.341951 0.77937 1.5 0.397805 1.5 0 
C 1.5 -0.397805 1.341951 -0.77937 1.06066 -1.06066 
C 0.77937 -1.341951 0.397805 -1.5 0 -1.5 
C -0.397805 -1.5 -0.77937 -1.341951 -1.06066 -1.06066 
C -1.341951 -0.77937 -1.5 -0.397805 -1.5 0 
C -1.5 0.397805 -1.341951 0.77937 -1.06066 1.06066 
C -0.77937 1.341951 -0.397805 1.5 0 1.5 
z
" style="stroke: #1f77b4"/>
    </defs>
    <g clip-path="url(#p75cab89ba0)">
     <use xlink:href="#m384c63c340" x="64.72017" y="165.96" style="fill: #1f77b4; stroke: #1f77b4"/>
     <use xlink:href="#m384c63c340" x="67.807917" y="165.96" style="fill: #1f77b4; stroke: #1f77b4"/>
     <use xlink:href="#m384c63c340" x="70.895665" y="165.959974" style="fill: #1f77b4; stroke: #1f77b4"/>
     <use xlink:href="#m384c63c340" x="73.983412" y="165.959973" style="fill: #1f77b4; stroke: #1f77b4"/>
     <use xlink:href="#m384c63c340" x="77.071159" y="165.959693" style="fill: #1f77b4; stroke: #1f77b4"/>
     <use xlink:href="#m384c63c340" x="80.158906" y="165.953303" style="fill: #1f77b4; stroke: #1f77b4"/>
     <use xlink:href="#m384c63c340" x="83.246653" y="165.901686" style="fill: #1f77b4; stroke: #1f77b4"/>
     <use xlink:href="#m384c63c340" x="86.3344" y="165.12983" style="fill: #1f77b4; stroke: #1f77b4"/>
     <use xlink:href="#m384c63c340" x="89.422147" y="152.093475" style="fill: #1f77b4; stroke: #1f77b4"/>
     <use xlink:href="#m384c63c340" x="92.509894" y="143.231277" style="fill: #1f77b4; stroke: #1f77b4"/>
     <use xlink:href="#m384c63c340" x="95.597641" y="133.107065" style="fill: #1f77b4; stroke: #1f77b4"/>
     <use xlink:href="#m384c63c340" x="98.685388" y="123.559136" style="fill: #1f77b4; stroke: #1f77b4"/>
     <use xlink:href="#m384c63c340" x="101.773135" y="115.8136" style="fill: #1f77b4; stroke: #1f77b4"/>
     <use xlink:href="#m384c63c340" x="104.860882" y="102.371913" style="fill: #1f77b4; stroke: #1f77b4"/>
     <use xlink:href="#m384c63c340" x="107.948629" y="101.920361" style="fill: #1f77b4; stroke: #1f77b4"/>
     <use xlink:href="#m384c63c340" x="111.036376" y="99.483565" style="fill: #1f77b4; stroke: #1f77b4"/>
     <use xlink:href="#m384c63c340" x="114.124123" y="94.323184" style="fill: #1f77b4; stroke: #1f77b4"/>
     <use xlink:href="#m384c63c340" x="117.21187" y="78.080216" style="fill: #1f77b4; stroke: #1f77b4"/>
     <use xlink:href="#m384c63c340" x="120.299617" y="73.34311" style="fill: #1f77b4; stroke: #1f77b4"/>
     <use xlink:href="#m384c63c340" x="123.387364" y="62.309302" style="fill: #1f77b4; stroke: #1f77b4"/>
     <use xlink:href="#m384c63c340" x="126.475111" y="61.887911" style="fill: #1f77b4; stroke: #1f77b4"/>
     <use xlink:href="#m384c63c340" x="129.562858" y="59.422812" style="fill: #1f77b4; stroke: #1f77b4"/>
     <use xlink:href="#m384c63c340" x="132.650605" y="53.714034" style="fill: #1f77b4; stroke: #1f77b4"/>
     <use xlink:href="#m384c63c340" x="135.738352" y="42.984772" style="fill: #1f77b4; stroke: #1f77b4"/>
     <use xlink:href="#m384c63c340" x="138.826099" y="41.237886" style="fill: #1f77b4; stroke: #1f77b4"/>
     <use xlink:href="#m384c63c340" x="141.913846" y="36.159673" style="fill: #1f77b4; stroke: #1f77b4"/>
     <use xlink:href="#m384c63c340" x="145.001593" y="32.941493" style="fill: #1f77b4; stroke: #1f77b4"/>
     <use xlink:href="#m384c63c340" x="148.08934" y="29.518087" style="fill: #1f77b4; stroke: #1f77b4"/>
     <use xlink:href="#m384c63c340" x="151.177087" y="26.900726" style="fill: #1f77b4; stroke: #1f77b4"/>
     <use xlink:href="#m384c63c340" x="154.264834" y="23.808483" style="fill: #1f77b4; stroke: #1f77b4"/>
     <use xlink:href="#m384c63c340" x="157.352582" y="22.982868" style="fill: #1f77b4; stroke: #1f77b4"/>
     <use xlink:href="#m384c63c340" x="160.440329" y="21.662708" style="fill: #1f77b4; stroke: #1f77b4"/>
     <use xlink:href="#m384c63c340" x="163.528076" y="20.182719" style="fill: #1f77b4; stroke: #1f77b4"/>
     <use xlink:href="#m384c63c340" x="166.615823" y="18.890887" style="fill: #1f77b4; stroke: #1f77b4"/>
     <use xlink:href="#m384c63c340" x="169.70357" y="17.794186" style="fill: #1f77b4; stroke: #1f77b4"/>
     <use xlink:href="#m384c63c340" x="172.791317" y="16.864165" style="fill: #1f77b4; stroke: #1f77b4"/>
     <use xlink:href="#m384c63c340" x="175.879064" y="16.050259" style="fill: #1f77b4; stroke: #1f77b4"/>
     <use xlink:href="#m384c63c340" x="178.966811" y="15.245834" style="fill: #1f77b4; stroke: #1f77b4"/>
     <use xlink:href="#m384c63c340" x="182.054558" y="15.014375" style="fill: #1f77b4; stroke: #1f77b4"/>
     <use xlink:href="#m384c63c340" x="185.142305" y="14.862548" style="fill: #1f77b4; stroke: #1f77b4"/>
     <use xlink:href="#m384c63c340" x="188.230052" y="14.76" style="fill: #1f77b4; stroke: #1f77b4"/>
     <use xlink:href="#m384c63c340" x="191.317799" y="14.804869" style="fill: #1f77b4; stroke: #1f77b4"/>
     <use xlink:href="#m384c63c340" x="194.405546" y="15.001676" style="fill: #1f77b4; stroke: #1f77b4"/>
     <use xlink:href="#m384c63c340" x="197.493293" y="15.270809" style="fill: #1f77b4; stroke: #1f77b4"/>
     <use xlink:href="#m384c63c340" x="200.58104" y="15.522497" style="fill: #1f77b4; stroke: #1f77b4"/>
     <use xlink:href="#m384c63c340" x="203.668787" y="15.82797" style="fill: #1f77b4; stroke: #1f77b4"/>
     <use xlink:href="#m384c63c340" x="206.756534" y="16.035149" style="fill: #1f77b4; stroke: #1f77b4"/>
     <use xlink:href="#m384c63c340" x="209.844281" y="16.395457" style="fill: #1f77b4; stroke: #1f77b4"/>
     <use xlink:href="#m384c63c340" x="212.932028" y="16.927186" style="fill: #1f77b4; stroke: #1f77b4"/>
     <use xlink:href="#m384c63c340" x="216.019775" y="17.42138" style="fill: #1f77b4; stroke: #1f77b4"/>
     <use xlink:href="#m384c63c340" x="219.107522" y="17.760514" style="fill: #1f77b4; stroke: #1f77b4"/>
     <use xlink:href="#m384c63c340" x="222.195269" y="18.211086" style="fill: #1f77b4; stroke: #1f77b4"/>
     <use xlink:href="#m384c63c340" x="225.283016" y="18.771535" style="fill: #1f77b4; stroke: #1f77b4"/>
     <use xlink:href="#m384c63c340" x="228.370763" y="19.345798" style="fill: #1f77b4; stroke: #1f77b4"/>
     <use xlink:href="#m384c63c340" x="231.45851" y="19.837367" style="fill: #1f77b4; stroke: #1f77b4"/>
     <use xlink:href="#m384c63c340" x="234.546257" y="20.360882" style="fill: #1f77b4; stroke: #1f77b4"/>
     <use xlink:href="#m384c63c340" x="237.634004" y="20.850957" style="fill: #1f77b4; stroke: #1f77b4"/>
     <use xlink:href="#m384c63c340" x="240.721751" y="21.266757" style="fill: #1f77b4; stroke: #1f77b4"/>
     <use xlink:href="#m384c63c340" x="243.809499" y="21.645742" style="fill: #1f77b4; stroke: #1f77b4"/>
     <use xlink:href="#m384c63c340" x="246.897246" y="21.999583" style="fill: #1f77b4; stroke: #1f77b4"/>
     <use xlink:href="#m384c63c340" x="249.984993" y="22.374236" style="fill: #1f77b4; stroke: #1f77b4"/>
     <use xlink:href="#m384c63c340" x="253.07274" y="22.629511" style="fill: #1f77b4; stroke: #1f77b4"/>
     <use xlink:href="#m384c63c340" x="256.160487" y="22.95471" style="fill: #1f77b4; stroke: #1f77b4"/>
     <use xlink:href="#m384c63c340" x="259.248234" y="23.328364" style="fill: #1f77b4; stroke: #1f77b4"/>
     <use xlink:href="#m384c63c340" x="262.335981" y="23.676316" style="fill: #1f77b4; stroke: #1f77b4"/>
     <use xlink:href="#m384c63c340" x="265.423728" y="23.95178" style="fill: #1f77b4; stroke: #1f77b4"/>
     <use xlink:href="#m384c63c340" x="268.511475" y="24.241173" style="fill: #1f77b4; stroke: #1f77b4"/>
     <use xlink:href="#m384c63c340" x="271.599222" y="24.612092" style="fill: #1f77b4; stroke: #1f77b4"/>
     <use xlink:href="#m384c63c340" x="274.686969" y="24.881007" style="fill: #1f77b4; stroke: #1f77b4"/>
     <use xlink:href="#m384c63c340" x="277.774716" y="25.066991" style="fill: #1f77b4; stroke: #1f77b4"/>
     <use xlink:href="#m384c63c340" x="280.862463" y="25.217274" style="fill: #1f77b4; stroke: #1f77b4"/>
     <use xlink:href="#m384c63c340" x="283.95021" y="25.413042" style="fill: #1f77b4; stroke: #1f77b4"/>
     <use xlink:href="#m384c63c340" x="287.037957" y="25.524895" style="fill: #1f77b4; stroke: #1f77b4"/>
     <use xlink:href="#m384c63c340" x="290.125704" y="25.613217" style="fill: #1f77b4; stroke: #1f77b4"/>
     <use xlink:href="#m384c63c340" x="293.213451" y="25.771714" style="fill: #1f77b4; stroke: #1f77b4"/>
     <use xlink:href="#m384c63c340" x="296.301198" y="25.822941" style="fill: #1f77b4; stroke: #1f77b4"/>
     <use xlink:href="#m384c63c340" x="299.388945" y="25.871534" style="fill: #1f77b4; stroke: #1f77b4"/>
     <use xlink:href="#m384c63c340" x="302.476692" y="25.908824" style="fill: #1f77b4; stroke: #1f77b4"/>
     <use xlink:href="#m384c63c340" x="305.564439" y="25.935029" style="fill: #1f77b4; stroke: #1f77b4"/>
     <use xlink:href="#m384c63c340" x="308.652186" y="26.01356" style="fill: #1f77b4; stroke: #1f77b4"/>
     <use xlink:href="#m384c63c340" x="311.739933" y="26.004032" style="fill: #1f77b4; stroke: #1f77b4"/>
     <use xlink:href="#m384c63c340" x="314.82768" y="25.998558" style="fill: #1f77b4; stroke: #1f77b4"/>
     <use xlink:href="#m384c63c340" x="317.915427" y="26.044852" style="fill: #1f77b4; stroke: #1f77b4"/>
     <use xlink:href="#m384c63c340" x="321.003174" y="26.085018" style="fill: #1f77b4; stroke: #1f77b4"/>
     <use xlink:href="#m384c63c340" x="324.090921" y="26.103912" style="fill: #1f77b4; stroke: #1f77b4"/>
     <use xlink:href="#m384c63c340" x="327.178668" y="26.045983" style="fill: #1f77b4; stroke: #1f77b4"/>
     <use xlink:href="#m384c63c340" x="330.266416" y="25.927635" style="fill: #1f77b4; stroke: #1f77b4"/>
     <use xlink:href="#m384c63c340" x="333.354163" y="25.856045" style="fill: #1f77b4; stroke: #1f77b4"/>
     <use xlink:href="#m384c63c340" x="336.44191" y="25.784687" style="fill: #1f77b4; stroke: #1f77b4"/>
     <use xlink:href="#m384c63c340" x="339.529657" y="25.736835" style="fill: #1f77b4; stroke: #1f77b4"/>
     <use xlink:href="#m384c63c340" x="342.617404" y="25.760576" style="fill: #1f77b4; stroke: #1f77b4"/>
     <use xlink:href="#m384c63c340" x="345.705151" y="25.714898" style="fill: #1f77b4; stroke: #1f77b4"/>
     <use xlink:href="#m384c63c340" x="348.792898" y="25.670843" style="fill: #1f77b4; stroke: #1f77b4"/>
     <use xlink:href="#m384c63c340" x="351.880645" y="25.688754" style="fill: #1f77b4; stroke: #1f77b4"/>
     <use xlink:href="#m384c63c340" x="354.968392" y="25.64059" style="fill: #1f77b4; stroke: #1f77b4"/>
     <use xlink:href="#m384c63c340" x="358.056139" y="25.512635" style="fill: #1f77b4; stroke: #1f77b4"/>
     <use xlink:href="#m384c63c340" x="361.143886" y="25.482191" style="fill: #1f77b4; stroke: #1f77b4"/>
     <use xlink:href="#m384c63c340" x="364.231633" y="25.53243" style="fill: #1f77b4; stroke: #1f77b4"/>
     <use xlink:href="#m384c63c340" x="367.31938" y="25.565743" style="fill: #1f77b4; stroke: #1f77b4"/>
     <use xlink:href="#m384c63c340" x="370.407127" y="25.521257" style="fill: #1f77b4; stroke: #1f77b4"/>
     <use xlink:href="#m384c63c340" x="373.494874" y="25.472602" style="fill: #1f77b4; stroke: #1f77b4"/>
     <use xlink:href="#m384c63c340" x="376.582621" y="25.498584" style="fill: #1f77b4; stroke: #1f77b4"/>
     <use xlink:href="#m384c63c340" x="379.670368" y="25.457935" style="fill: #1f77b4; stroke: #1f77b4"/>
     <use xlink:href="#m384c63c340" x="382.758115" y="25.419957" style="fill: #1f77b4; stroke: #1f77b4"/>
     <use xlink:href="#m384c63c340" x="385.845862" y="25.450671" style="fill: #1f77b4; stroke: #1f77b4"/>
     <use xlink:href="#m384c63c340" x="388.933609" y="25.473265" style="fill: #1f77b4; stroke: #1f77b4"/>
     <use xlink:href="#m384c63c340" x="392.021356" y="25.417776" style="fill: #1f77b4; stroke: #1f77b4"/>
     <use xlink:href="#m384c63c340" x="395.109103" y="25.367564" style="fill: #1f77b4; stroke: #1f77b4"/>
     <use xlink:href="#m384c63c340" x="398.19685" y="25.367558" style="fill: #1f77b4; stroke: #1f77b4"/>
     <use xlink:href="#m384c63c340" x="401.284597" y="25.367503" style="fill: #1f77b4; stroke: #1f77b4"/>
     <use xlink:href="#m384c63c340" x="404.372344" y="25.367501" style="fill: #1f77b4; stroke: #1f77b4"/>
     <use xlink:href="#m384c63c340" x="407.460091" y="25.367501" style="fill: #1f77b4; stroke: #1f77b4"/>
     <use xlink:href="#m384c63c340" x="410.547838" y="25.367501" style="fill: #1f77b4; stroke: #1f77b4"/>
     <use xlink:href="#m384c63c340" x="413.635585" y="25.367501" style="fill: #1f77b4; stroke: #1f77b4"/>
     <use xlink:href="#m384c63c340" x="416.723333" y="25.367501" style="fill: #1f77b4; stroke: #1f77b4"/>
     <use xlink:href="#m384c63c340" x="419.81108" y="25.367501" style="fill: #1f77b4; stroke: #1f77b4"/>
    </g>
   </g>
   <g id="patch_3">
    <path d="M 46.965625 173.52 
L 46.965625 7.2 
" style="fill: none; stroke: #000000; stroke-width: 0.8; stroke-linejoin: miter; stroke-linecap: square"/>
   </g>
   <g id="patch_4">
    <path d="M 437.565625 173.52 
L 437.565625 7.2 
" style="fill: none; stroke: #000000; stroke-width: 0.8; stroke-linejoin: miter; stroke-linecap: square"/>
   </g>
   <g id="patch_5">
    <path d="M 46.965625 173.52 
L 437.565625 173.52 
" style="fill: none; stroke: #000000; stroke-width: 0.8; stroke-linejoin: miter; stroke-linecap: square"/>
   </g>
   <g id="patch_6">
    <path d="M 46.965625 7.2 
L 437.565625 7.2 
" style="fill: none; stroke: #000000; stroke-width: 0.8; stroke-linejoin: miter; stroke-linecap: square"/>
   </g>
  </g>
 </g>
 <defs>
  <clipPath id="p75cab89ba0">
   <rect x="46.965625" y="7.2" width="390.6" height="166.32"/>
  </clipPath>
 </defs>
</svg>
