<?xml version="1.0" encoding="utf-8" standalone="no"?>
<!DOCTYPE svg PUBLIC "-//W3C//DTD SVG 1.1//EN"
  "http://www.w3.org/Graphics/SVG/1.1/DTD/svg11.dtd">
<svg xmlns:xlink="http://www.w3.org/1999/xlink" width="607.452415pt" height="209.389375pt" viewBox="0 0 607.452415 209.389375" xmlns="http://www.w3.org/2000/svg" version="1.1">
 <metadata>
  <rdf:RDF xmlns:dc="http://purl.org/dc/elements/1.1/" xmlns:cc="http://creativecommons.org/ns#" xmlns:rdf="http://www.w3.org/1999/02/22-rdf-syntax-ns#">
   <cc:Work>
    <dc:type rdf:resource="http://purl.org/dc/dcmitype/StillImage"/>
    <dc:date>2023-01-12T16:38:52.077027</dc:date>
    <dc:format>image/svg+xml</dc:format>
    <dc:creator>
     <cc:Agent>
      <dc:title>Matplotlib v3.6.2, https://matplotlib.org/</dc:title>
     </cc:Agent>
    </dc:creator>
   </cc:Work>
  </rdf:RDF>
 </metadata>
 <defs>
  <style type="text/css">*{stroke-linejoin: round; stroke-linecap: butt}</style>
 </defs>
 <g id="figure_1">
  <g id="patch_1">
   <path d="M 0 209.389375 
L 607.452415 209.389375 
L 607.452415 0 
L 0 0 
z
" style="fill: #ffffff"/>
  </g>
  <g id="axes_1">
   <g id="patch_2">
    <path d="M 7.2 191.717813 
L 565.2 191.717813 
L 565.2 25.397812 
L 7.2 25.397812 
z
" style="fill: #ffffff"/>
   </g>
   <g id="matplotlib.axis_1">
    <g id="xtick_1">
     <g id="line2d_1">
      <defs>
       <path id="m8fc9231f23" d="M 0 0 
L 0 3.5 
" style="stroke: #000000; stroke-width: 0.8"/>
      </defs>
      <g>
       <use xlink:href="#m8fc9231f23" x="32.563636" y="184.157813" style="stroke: #000000; stroke-width: 0.8"/>
      </g>
     </g>
    </g>
    <g id="xtick_2">
     <g id="line2d_2">
      <g>
       <use xlink:href="#m8fc9231f23" x="117.109091" y="184.157813" style="stroke: #000000; stroke-width: 0.8"/>
      </g>
     </g>
    </g>
    <g id="xtick_3">
     <g id="line2d_3">
      <g>
       <use xlink:href="#m8fc9231f23" x="201.654545" y="184.157813" style="stroke: #000000; stroke-width: 0.8"/>
      </g>
     </g>
    </g>
    <g id="xtick_4">
     <g id="line2d_4">
      <g>
       <use xlink:href="#m8fc9231f23" x="286.2" y="184.157813" style="stroke: #000000; stroke-width: 0.8"/>
      </g>
     </g>
    </g>
    <g id="xtick_5">
     <g id="line2d_5">
      <g>
       <use xlink:href="#m8fc9231f23" x="370.745455" y="184.157813" style="stroke: #000000; stroke-width: 0.8"/>
      </g>
     </g>
    </g>
    <g id="xtick_6">
     <g id="line2d_6">
      <g>
       <use xlink:href="#m8fc9231f23" x="455.290909" y="184.157813" style="stroke: #000000; stroke-width: 0.8"/>
      </g>
     </g>
    </g>
    <g id="xtick_7">
     <g id="line2d_7">
      <g>
       <use xlink:href="#m8fc9231f23" x="539.836364" y="184.157813" style="stroke: #000000; stroke-width: 0.8"/>
      </g>
     </g>
    </g>
   </g>
   <g id="matplotlib.axis_2">
    <g id="ytick_1">
     <g id="line2d_8">
      <defs>
       <path id="m9cc27b19cf" d="M 0 0 
L -3.5 0 
" style="stroke: #000000; stroke-width: 0.8"/>
      </defs>
      <g>
       <use xlink:href="#m9cc27b19cf" x="286.2" y="184.157813" style="stroke: #000000; stroke-width: 0.8"/>
      </g>
     </g>
    </g>
    <g id="ytick_2">
     <g id="line2d_9">
      <g>
       <use xlink:href="#m9cc27b19cf" x="286.2" y="153.917812" style="stroke: #000000; stroke-width: 0.8"/>
      </g>
     </g>
    </g>
    <g id="ytick_3">
     <g id="line2d_10">
      <g>
       <use xlink:href="#m9cc27b19cf" x="286.2" y="123.677812" style="stroke: #000000; stroke-width: 0.8"/>
      </g>
     </g>
    </g>
    <g id="ytick_4">
     <g id="line2d_11">
      <g>
       <use xlink:href="#m9cc27b19cf" x="286.2" y="93.437812" style="stroke: #000000; stroke-width: 0.8"/>
      </g>
     </g>
    </g>
    <g id="ytick_5">
     <g id="line2d_12">
      <g>
       <use xlink:href="#m9cc27b19cf" x="286.2" y="63.197812" style="stroke: #000000; stroke-width: 0.8"/>
      </g>
     </g>
    </g>
    <g id="ytick_6">
     <g id="line2d_13">
      <g>
       <use xlink:href="#m9cc27b19cf" x="286.2" y="32.957812" style="stroke: #000000; stroke-width: 0.8"/>
      </g>
     </g>
    </g>
   </g>
   <g id="line2d_14">
    <path d="M 32.563636 184.157813 
L 200.638984 184.157813 
L 201.146765 169.761392 
L 202.162326 47.354233 
L 202.670106 32.957812 
L 369.729894 32.957812 
L 370.237674 47.354233 
L 371.253235 169.761392 
L 371.761016 184.157813 
L 539.836364 184.157813 
L 539.836364 184.157813 
" clip-path="url(#p7ddafaf727)" style="fill: none; stroke: #1f77b4; stroke-width: 1.5; stroke-linecap: square"/>
   </g>
   <g id="line2d_15">
    <path d="M 32.563636 184.157813 
L 180.835545 184.136786 
L 181.851106 183.787194 
L 182.866667 183.009279 
L 183.882228 181.807468 
L 184.897789 180.188604 
L 185.91335 178.161906 
L 186.928911 175.738911 
L 188.452252 171.392139 
L 189.975594 166.240902 
L 191.498935 160.351153 
L 193.530057 151.480929 
L 195.561179 141.634552 
L 198.607862 125.529363 
L 208.255692 72.939877 
L 210.286814 63.31733 
L 212.317936 54.723636 
L 213.841278 49.072127 
L 215.364619 44.18221 
L 216.887961 40.11649 
L 217.903522 37.890058 
L 218.919083 36.065978 
L 219.934644 34.654636 
L 220.950205 33.664068 
L 221.965766 33.099912 
L 222.981327 32.957812 
L 349.926454 32.978839 
L 350.942015 33.328431 
L 351.957576 34.106346 
L 352.973137 35.308157 
L 353.988698 36.927021 
L 355.004259 38.953719 
L 356.01982 41.376714 
L 357.543161 45.723486 
L 359.066503 50.874723 
L 360.589844 56.764472 
L 362.620966 65.634696 
L 364.652088 75.481073 
L 367.698771 91.586262 
L 377.346601 144.175748 
L 379.377723 153.798295 
L 381.408845 162.391989 
L 382.932187 168.043498 
L 384.455528 172.933415 
L 385.97887 176.999135 
L 386.994431 179.225567 
L 388.009992 181.049647 
L 389.025553 182.460989 
L 390.041114 183.451557 
L 391.056675 184.015713 
L 392.072236 184.157813 
L 539.836364 184.157813 
L 539.836364 184.157813 
" clip-path="url(#p7ddafaf727)" style="fill: none; stroke: #ff7f0e; stroke-width: 1.5; stroke-linecap: square"/>
   </g>
   <g id="line2d_16">
    <path d="M 32.563636 184.157813 
L 160.524324 184.089694 
L 162.047666 183.787194 
L 163.571007 183.243712 
L 165.094349 182.460989 
L 166.61769 181.441531 
L 168.141032 180.188604 
L 169.664373 178.706223 
L 171.695495 176.381096 
L 173.726618 173.669811 
L 175.75774 170.587807 
L 177.788862 167.15263 
L 180.327764 162.391989 
L 182.866667 157.152556 
L 185.91335 150.299116 
L 188.960033 142.911265 
L 192.514496 133.743181 
L 197.084521 121.334275 
L 212.317936 79.380026 
L 215.8724 70.449398 
L 218.919083 63.31733 
L 221.965766 56.764472 
L 224.504668 51.806986 
L 227.043571 47.354233 
L 229.074693 44.18221 
L 231.105815 41.376714 
L 233.136937 38.953719 
L 235.168059 36.927021 
L 236.6914 35.674094 
L 238.214742 34.654636 
L 239.738084 33.871913 
L 241.261425 33.328431 
L 242.784767 33.025931 
L 244.308108 32.957812 
L 329.615233 33.025931 
L 331.138575 33.328431 
L 332.661916 33.871913 
L 334.185258 34.654636 
L 335.7086 35.674094 
L 337.231941 36.927021 
L 338.755283 38.409402 
L 340.786405 40.734529 
L 342.817527 43.445814 
L 344.848649 46.527818 
L 346.879771 49.962995 
L 349.418673 54.723636 
L 351.957576 59.963069 
L 355.004259 66.816509 
L 358.050942 74.20436 
L 361.605405 83.372444 
L 366.17543 95.78135 
L 381.408845 137.735599 
L 384.963309 146.666227 
L 388.009992 153.798295 
L 391.056675 160.351153 
L 393.595577 165.308639 
L 396.13448 169.761392 
L 398.165602 172.933415 
L 400.196724 175.738911 
L 402.227846 178.161906 
L 404.258968 180.188604 
L 405.78231 181.441531 
L 407.305651 182.460989 
L 408.828993 183.243712 
L 410.352334 183.787194 
L 411.875676 184.089694 
L 413.399017 184.157813 
L 539.836364 184.157813 
L 539.836364 184.157813 
" clip-path="url(#p7ddafaf727)" style="fill: none; stroke: #2ca02c; stroke-width: 1.5; stroke-linecap: square"/>
   </g>
   <g id="line2d_17">
    <path d="M 32.563636 184.157813 
L 119.901884 184.056063 
L 122.948567 183.713312 
L 125.99525 183.129814 
L 129.041933 182.30744 
L 132.088616 181.248824 
L 135.135299 179.957356 
L 138.181982 178.437174 
L 141.228665 176.693148 
L 144.783129 174.383027 
L 148.337592 171.785934 
L 151.892056 168.913189 
L 155.446519 165.777317 
L 159.508763 161.888855 
L 163.571007 157.696748 
L 168.141032 152.64746 
L 173.218837 146.666227 
L 178.804423 139.697547 
L 184.897789 131.715908 
L 192.514496 121.334275 
L 205.71679 102.857416 
L 215.8724 88.818916 
L 222.473546 80.03928 
L 228.059132 72.939877 
L 233.136937 66.816509 
L 237.706962 61.621402 
L 242.276986 56.764472 
L 246.33923 52.759454 
L 250.401474 49.072127 
L 253.955938 46.122874 
L 257.510401 43.445814 
L 261.064865 41.052618 
L 264.619328 38.953719 
L 267.666011 37.395872 
L 270.712695 36.065978 
L 273.759378 34.968298 
L 276.806061 34.106346 
L 279.852744 33.482886 
L 282.899427 33.099912 
L 285.94611 32.958654 
L 288.992793 33.059562 
L 292.039476 33.402313 
L 295.086159 33.985811 
L 298.132842 34.808185 
L 301.179525 35.866801 
L 304.226208 37.158269 
L 307.272891 38.678451 
L 310.319574 40.422477 
L 313.874038 42.732598 
L 317.428501 45.329691 
L 320.982965 48.202436 
L 324.537428 51.338308 
L 328.599672 55.22677 
L 332.661916 59.418877 
L 337.231941 64.468165 
L 342.309746 70.449398 
L 347.895332 77.418078 
L 353.988698 85.399717 
L 361.605405 95.78135 
L 374.807699 114.258209 
L 384.963309 128.296709 
L 391.564455 137.076345 
L 397.150041 144.175748 
L 402.227846 150.299116 
L 406.797871 155.494223 
L 411.367895 160.351153 
L 415.430139 164.356171 
L 419.492383 168.043498 
L 423.046847 170.992751 
L 426.60131 173.669811 
L 430.155774 176.063007 
L 433.710238 178.161906 
L 436.756921 179.719753 
L 439.803604 181.049647 
L 442.850287 182.147327 
L 445.89697 183.009279 
L 448.943653 183.632739 
L 451.990336 184.015713 
L 455.037019 184.156971 
L 522.571826 184.157813 
L 539.836364 184.157813 
L 539.836364 184.157813 
" clip-path="url(#p7ddafaf727)" style="fill: none; stroke: #d62728; stroke-width: 1.5; stroke-linecap: square"/>
   </g>
   <g id="patch_3">
    <path d="M 286.2 191.717813 
L 286.2 25.397812 
" style="fill: none; stroke: #000000; stroke-width: 0.8; stroke-linejoin: miter; stroke-linecap: square"/>
   </g>
   <g id="patch_4">
    <path d="M 565.2 191.717813 
L 565.2 25.397812 
" style="fill: none"/>
   </g>
   <g id="patch_5">
    <path d="M 7.2 184.157813 
L 565.2 184.157813 
" style="fill: none; stroke: #000000; stroke-width: 0.8; stroke-linejoin: miter; stroke-linecap: square"/>
   </g>
   <g id="patch_6">
    <path d="M 7.2 25.397812 
L 565.2 25.397812 
" style="fill: none"/>
   </g>
   <g id="text_1">
    <!-- Freq -->
    <g transform="translate(570.272727 191.717813) scale(0.14 -0.14)">
     <defs>
      <path id="DejaVuSans-46" d="M 628 4666 
L 3309 4666 
L 3309 4134 
L 1259 4134 
L 1259 2759 
L 3109 2759 
L 3109 2228 
L 1259 2228 
L 1259 0 
L 628 0 
L 628 4666 
z
" transform="scale(0.015625)"/>
      <path id="DejaVuSans-72" d="M 2631 2963 
Q 2534 3019 2420 3045 
Q 2306 3072 2169 3072 
Q 1681 3072 1420 2755 
Q 1159 2438 1159 1844 
L 1159 0 
L 581 0 
L 581 3500 
L 1159 3500 
L 1159 2956 
Q 1341 3275 1631 3429 
Q 1922 3584 2338 3584 
Q 2397 3584 2469 3576 
Q 2541 3569 2628 3553 
L 2631 2963 
z
" transform="scale(0.015625)"/>
      <path id="DejaVuSans-65" d="M 3597 1894 
L 3597 1613 
L 953 1613 
Q 991 1019 1311 708 
Q 1631 397 2203 397 
Q 2534 397 2845 478 
Q 3156 559 3463 722 
L 3463 178 
Q 3153 47 2828 -22 
Q 2503 -91 2169 -91 
Q 1331 -91 842 396 
Q 353 884 353 1716 
Q 353 2575 817 3079 
Q 1281 3584 2069 3584 
Q 2775 3584 3186 3129 
Q 3597 2675 3597 1894 
z
M 3022 2063 
Q 3016 2534 2758 2815 
Q 2500 3097 2075 3097 
Q 1594 3097 1305 2825 
Q 1016 2553 972 2059 
L 3022 2063 
z
" transform="scale(0.015625)"/>
      <path id="DejaVuSans-71" d="M 947 1747 
Q 947 1113 1208 752 
Q 1469 391 1925 391 
Q 2381 391 2643 752 
Q 2906 1113 2906 1747 
Q 2906 2381 2643 2742 
Q 2381 3103 1925 3103 
Q 1469 3103 1208 2742 
Q 947 2381 947 1747 
z
M 2906 525 
Q 2725 213 2448 61 
Q 2172 -91 1784 -91 
Q 1150 -91 751 415 
Q 353 922 353 1747 
Q 353 2572 751 3078 
Q 1150 3584 1784 3584 
Q 2172 3584 2448 3432 
Q 2725 3281 2906 2969 
L 2906 3500 
L 3481 3500 
L 3481 -1331 
L 2906 -1331 
L 2906 525 
z
" transform="scale(0.015625)"/>
     </defs>
     <use xlink:href="#DejaVuSans-46"/>
     <use xlink:href="#DejaVuSans-72" x="50.269531"/>
     <use xlink:href="#DejaVuSans-65" x="89.132812"/>
     <use xlink:href="#DejaVuSans-71" x="150.65625"/>
    </g>
   </g>
   <g id="text_2">
    <!-- -3/2T -->
    <g transform="translate(7.2 199.277813) scale(0.14 -0.14)">
     <defs>
      <path id="DejaVuSans-2d" d="M 313 2009 
L 1997 2009 
L 1997 1497 
L 313 1497 
L 313 2009 
z
" transform="scale(0.015625)"/>
      <path id="DejaVuSans-33" d="M 2597 2516 
Q 3050 2419 3304 2112 
Q 3559 1806 3559 1356 
Q 3559 666 3084 287 
Q 2609 -91 1734 -91 
Q 1441 -91 1130 -33 
Q 819 25 488 141 
L 488 750 
Q 750 597 1062 519 
Q 1375 441 1716 441 
Q 2309 441 2620 675 
Q 2931 909 2931 1356 
Q 2931 1769 2642 2001 
Q 2353 2234 1838 2234 
L 1294 2234 
L 1294 2753 
L 1863 2753 
Q 2328 2753 2575 2939 
Q 2822 3125 2822 3475 
Q 2822 3834 2567 4026 
Q 2313 4219 1838 4219 
Q 1578 4219 1281 4162 
Q 984 4106 628 3988 
L 628 4550 
Q 988 4650 1302 4700 
Q 1616 4750 1894 4750 
Q 2613 4750 3031 4423 
Q 3450 4097 3450 3541 
Q 3450 3153 3228 2886 
Q 3006 2619 2597 2516 
z
" transform="scale(0.015625)"/>
      <path id="DejaVuSans-2f" d="M 1625 4666 
L 2156 4666 
L 531 -594 
L 0 -594 
L 1625 4666 
z
" transform="scale(0.015625)"/>
      <path id="DejaVuSans-32" d="M 1228 531 
L 3431 531 
L 3431 0 
L 469 0 
L 469 531 
Q 828 903 1448 1529 
Q 2069 2156 2228 2338 
Q 2531 2678 2651 2914 
Q 2772 3150 2772 3378 
Q 2772 3750 2511 3984 
Q 2250 4219 1831 4219 
Q 1534 4219 1204 4116 
Q 875 4013 500 3803 
L 500 4441 
Q 881 4594 1212 4672 
Q 1544 4750 1819 4750 
Q 2544 4750 2975 4387 
Q 3406 4025 3406 3419 
Q 3406 3131 3298 2873 
Q 3191 2616 2906 2266 
Q 2828 2175 2409 1742 
Q 1991 1309 1228 531 
z
" transform="scale(0.015625)"/>
      <path id="DejaVuSans-54" d="M -19 4666 
L 3928 4666 
L 3928 4134 
L 2272 4134 
L 2272 0 
L 1638 0 
L 1638 4134 
L -19 4134 
L -19 4666 
z
" transform="scale(0.015625)"/>
     </defs>
     <use xlink:href="#DejaVuSans-2d"/>
     <use xlink:href="#DejaVuSans-33" x="36.083984"/>
     <use xlink:href="#DejaVuSans-2f" x="99.707031"/>
     <use xlink:href="#DejaVuSans-32" x="133.398438"/>
     <use xlink:href="#DejaVuSans-54" x="197.021484"/>
    </g>
   </g>
   <g id="text_3">
    <!-- -1/T -->
    <g transform="translate(91.745455 199.277813) scale(0.14 -0.14)">
     <defs>
      <path id="DejaVuSans-31" d="M 794 531 
L 1825 531 
L 1825 4091 
L 703 3866 
L 703 4441 
L 1819 4666 
L 2450 4666 
L 2450 531 
L 3481 531 
L 3481 0 
L 794 0 
L 794 531 
z
" transform="scale(0.015625)"/>
     </defs>
     <use xlink:href="#DejaVuSans-2d"/>
     <use xlink:href="#DejaVuSans-31" x="36.083984"/>
     <use xlink:href="#DejaVuSans-2f" x="99.707031"/>
     <use xlink:href="#DejaVuSans-54" x="133.398438"/>
    </g>
   </g>
   <g id="text_4">
    <!-- -1/2T -->
    <g transform="translate(176.290909 199.277813) scale(0.14 -0.14)">
     <use xlink:href="#DejaVuSans-2d"/>
     <use xlink:href="#DejaVuSans-31" x="36.083984"/>
     <use xlink:href="#DejaVuSans-2f" x="99.707031"/>
     <use xlink:href="#DejaVuSans-32" x="133.398438"/>
     <use xlink:href="#DejaVuSans-54" x="197.021484"/>
    </g>
   </g>
   <g id="text_5">
    <!-- 0 -->
    <g transform="translate(286.2 199.277813) scale(0.14 -0.14)">
     <defs>
      <path id="DejaVuSans-30" d="M 2034 4250 
Q 1547 4250 1301 3770 
Q 1056 3291 1056 2328 
Q 1056 1369 1301 889 
Q 1547 409 2034 409 
Q 2525 409 2770 889 
Q 3016 1369 3016 2328 
Q 3016 3291 2770 3770 
Q 2525 4250 2034 4250 
z
M 2034 4750 
Q 2819 4750 3233 4129 
Q 3647 3509 3647 2328 
Q 3647 1150 3233 529 
Q 2819 -91 2034 -91 
Q 1250 -91 836 529 
Q 422 1150 422 2328 
Q 422 3509 836 4129 
Q 1250 4750 2034 4750 
z
" transform="scale(0.015625)"/>
     </defs>
     <use xlink:href="#DejaVuSans-30"/>
    </g>
   </g>
   <g id="text_6">
    <!-- 3/2T -->
    <g transform="translate(514.472727 199.277813) scale(0.14 -0.14)">
     <use xlink:href="#DejaVuSans-33"/>
     <use xlink:href="#DejaVuSans-2f" x="63.623047"/>
     <use xlink:href="#DejaVuSans-32" x="97.314453"/>
     <use xlink:href="#DejaVuSans-54" x="160.9375"/>
    </g>
   </g>
   <g id="text_7">
    <!-- 1/T -->
    <g transform="translate(446.836364 199.277813) scale(0.14 -0.14)">
     <use xlink:href="#DejaVuSans-31"/>
     <use xlink:href="#DejaVuSans-2f" x="63.623047"/>
     <use xlink:href="#DejaVuSans-54" x="97.314453"/>
    </g>
   </g>
   <g id="text_8">
    <!-- 1/2T -->
    <g transform="translate(345.381818 199.277813) scale(0.14 -0.14)">
     <use xlink:href="#DejaVuSans-31"/>
     <use xlink:href="#DejaVuSans-2f" x="63.623047"/>
     <use xlink:href="#DejaVuSans-32" x="97.314453"/>
     <use xlink:href="#DejaVuSans-54" x="160.9375"/>
    </g>
   </g>
   <g id="text_9">
    <!-- H(f) -->
    <g transform="translate(286.2 17.837812) scale(0.14 -0.14)">
     <defs>
      <path id="DejaVuSans-48" d="M 628 4666 
L 1259 4666 
L 1259 2753 
L 3553 2753 
L 3553 4666 
L 4184 4666 
L 4184 0 
L 3553 0 
L 3553 2222 
L 1259 2222 
L 1259 0 
L 628 0 
L 628 4666 
z
" transform="scale(0.015625)"/>
      <path id="DejaVuSans-28" d="M 1984 4856 
Q 1566 4138 1362 3434 
Q 1159 2731 1159 2009 
Q 1159 1288 1364 580 
Q 1569 -128 1984 -844 
L 1484 -844 
Q 1016 -109 783 600 
Q 550 1309 550 2009 
Q 550 2706 781 3412 
Q 1013 4119 1484 4856 
L 1984 4856 
z
" transform="scale(0.015625)"/>
      <path id="DejaVuSans-66" d="M 2375 4863 
L 2375 4384 
L 1825 4384 
Q 1516 4384 1395 4259 
Q 1275 4134 1275 3809 
L 1275 3500 
L 2222 3500 
L 2222 3053 
L 1275 3053 
L 1275 0 
L 697 0 
L 697 3053 
L 147 3053 
L 147 3500 
L 697 3500 
L 697 3744 
Q 697 4328 969 4595 
Q 1241 4863 1831 4863 
L 2375 4863 
z
" transform="scale(0.015625)"/>
      <path id="DejaVuSans-29" d="M 513 4856 
L 1013 4856 
Q 1481 4119 1714 3412 
Q 1947 2706 1947 2009 
Q 1947 1309 1714 600 
Q 1481 -109 1013 -844 
L 513 -844 
Q 928 -128 1133 580 
Q 1338 1288 1338 2009 
Q 1338 2731 1133 3434 
Q 928 4138 513 4856 
z
" transform="scale(0.015625)"/>
     </defs>
     <use xlink:href="#DejaVuSans-48"/>
     <use xlink:href="#DejaVuSans-28" x="75.195312"/>
     <use xlink:href="#DejaVuSans-66" x="114.208984"/>
     <use xlink:href="#DejaVuSans-29" x="149.414062"/>
    </g>
   </g>
   <g id="legend_1">
    <g id="patch_7">
     <path d="M 449.864062 119.145312 
L 555.4 119.145312 
Q 558.2 119.145312 558.2 116.345312 
L 558.2 35.197812 
Q 558.2 32.397812 555.4 32.397812 
L 449.864062 32.397812 
Q 447.064062 32.397812 447.064062 35.197812 
L 447.064062 116.345312 
Q 447.064062 119.145312 449.864062 119.145312 
z
" style="fill: #ffffff; opacity: 0.8; stroke: #cccccc; stroke-linejoin: miter"/>
    </g>
    <g id="line2d_18">
     <path d="M 452.664062 43.823125 
L 466.664062 43.823125 
L 480.664062 43.823125 
" style="fill: none; stroke: #1f77b4; stroke-width: 1.5; stroke-linecap: square"/>
    </g>
    <g id="text_10">
     <!-- β = 0 -->
     <g transform="translate(491.864062 48.723125) scale(0.14 -0.14)">
      <defs>
       <path id="DejaVuSans-3b2" d="M 1178 216 
L 1178 -1331 
L 600 -1331 
L 600 3478 
Q 600 4903 1931 4903 
Q 3288 4903 3288 3700 
Q 3288 2844 2750 2531 
Q 3625 2250 3625 1416 
Q 3625 -66 2119 -66 
Q 1456 -66 1178 216 
z
M 1178 966 
Q 1525 425 2141 425 
Q 3041 425 3041 1406 
Q 3041 2288 1591 2219 
L 1591 2750 
Q 2725 2750 2725 3750 
Q 2725 4434 1994 4434 
Q 1178 4434 1178 3459 
L 1178 966 
z
" transform="scale(0.015625)"/>
       <path id="DejaVuSans-20" transform="scale(0.015625)"/>
       <path id="DejaVuSans-3d" d="M 678 2906 
L 4684 2906 
L 4684 2381 
L 678 2381 
L 678 2906 
z
M 678 1631 
L 4684 1631 
L 4684 1100 
L 678 1100 
L 678 1631 
z
" transform="scale(0.015625)"/>
      </defs>
      <use xlink:href="#DejaVuSans-3b2"/>
      <use xlink:href="#DejaVuSans-20" x="63.818359"/>
      <use xlink:href="#DejaVuSans-3d" x="95.605469"/>
      <use xlink:href="#DejaVuSans-20" x="179.394531"/>
      <use xlink:href="#DejaVuSans-30" x="211.181641"/>
     </g>
    </g>
    <g id="line2d_19">
     <path d="M 452.664062 64.46 
L 466.664062 64.46 
L 480.664062 64.46 
" style="fill: none; stroke: #ff7f0e; stroke-width: 1.5; stroke-linecap: square"/>
    </g>
    <g id="text_11">
     <!-- β = 0.25 -->
     <g transform="translate(491.864062 69.36) scale(0.14 -0.14)">
      <defs>
       <path id="DejaVuSans-2e" d="M 684 794 
L 1344 794 
L 1344 0 
L 684 0 
L 684 794 
z
" transform="scale(0.015625)"/>
       <path id="DejaVuSans-35" d="M 691 4666 
L 3169 4666 
L 3169 4134 
L 1269 4134 
L 1269 2991 
Q 1406 3038 1543 3061 
Q 1681 3084 1819 3084 
Q 2600 3084 3056 2656 
Q 3513 2228 3513 1497 
Q 3513 744 3044 326 
Q 2575 -91 1722 -91 
Q 1428 -91 1123 -41 
Q 819 9 494 109 
L 494 744 
Q 775 591 1075 516 
Q 1375 441 1709 441 
Q 2250 441 2565 725 
Q 2881 1009 2881 1497 
Q 2881 1984 2565 2268 
Q 2250 2553 1709 2553 
Q 1456 2553 1204 2497 
Q 953 2441 691 2322 
L 691 4666 
z
" transform="scale(0.015625)"/>
      </defs>
      <use xlink:href="#DejaVuSans-3b2"/>
      <use xlink:href="#DejaVuSans-20" x="63.818359"/>
      <use xlink:href="#DejaVuSans-3d" x="95.605469"/>
      <use xlink:href="#DejaVuSans-20" x="179.394531"/>
      <use xlink:href="#DejaVuSans-30" x="211.181641"/>
      <use xlink:href="#DejaVuSans-2e" x="274.804688"/>
      <use xlink:href="#DejaVuSans-32" x="306.591797"/>
      <use xlink:href="#DejaVuSans-35" x="370.214844"/>
     </g>
    </g>
    <g id="line2d_20">
     <path d="M 452.664062 85.096875 
L 466.664062 85.096875 
L 480.664062 85.096875 
" style="fill: none; stroke: #2ca02c; stroke-width: 1.5; stroke-linecap: square"/>
    </g>
    <g id="text_12">
     <!-- β = 0.5 -->
     <g transform="translate(491.864062 89.996875) scale(0.14 -0.14)">
      <use xlink:href="#DejaVuSans-3b2"/>
      <use xlink:href="#DejaVuSans-20" x="63.818359"/>
      <use xlink:href="#DejaVuSans-3d" x="95.605469"/>
      <use xlink:href="#DejaVuSans-20" x="179.394531"/>
      <use xlink:href="#DejaVuSans-30" x="211.181641"/>
      <use xlink:href="#DejaVuSans-2e" x="274.804688"/>
      <use xlink:href="#DejaVuSans-35" x="306.591797"/>
     </g>
    </g>
    <g id="line2d_21">
     <path d="M 452.664062 105.73375 
L 466.664062 105.73375 
L 480.664062 105.73375 
" style="fill: none; stroke: #d62728; stroke-width: 1.5; stroke-linecap: square"/>
    </g>
    <g id="text_13">
     <!-- β = 1 -->
     <g transform="translate(491.864062 110.63375) scale(0.14 -0.14)">
      <use xlink:href="#DejaVuSans-3b2"/>
      <use xlink:href="#DejaVuSans-20" x="63.818359"/>
      <use xlink:href="#DejaVuSans-3d" x="95.605469"/>
      <use xlink:href="#DejaVuSans-20" x="179.394531"/>
      <use xlink:href="#DejaVuSans-31" x="211.181641"/>
     </g>
    </g>
   </g>
  </g>
 </g>
 <defs>
  <clipPath id="p7ddafaf727">
   <rect x="7.2" y="25.397812" width="558" height="166.32"/>
  </clipPath>
 </defs>
</svg>
