<?xml version="1.0" encoding="utf-8" standalone="no"?>
<!DOCTYPE svg PUBLIC "-//W3C//DTD SVG 1.1//EN"
  "http://www.w3.org/Graphics/SVG/1.1/DTD/svg11.dtd">
<svg xmlns:xlink="http://www.w3.org/1999/xlink" width="602.252727pt" height="196.222975pt" viewBox="0 0 602.252727 196.222975" xmlns="http://www.w3.org/2000/svg" version="1.1">
 <metadata>
  <rdf:RDF xmlns:dc="http://purl.org/dc/elements/1.1/" xmlns:cc="http://creativecommons.org/ns#" xmlns:rdf="http://www.w3.org/1999/02/22-rdf-syntax-ns#">
   <cc:Work>
    <dc:type rdf:resource="http://purl.org/dc/dcmitype/StillImage"/>
    <dc:date>2023-01-12T16:38:49.334482</dc:date>
    <dc:format>image/svg+xml</dc:format>
    <dc:creator>
     <cc:Agent>
      <dc:title>Matplotlib v3.6.2, https://matplotlib.org/</dc:title>
     </cc:Agent>
    </dc:creator>
   </cc:Work>
  </rdf:RDF>
 </metadata>
 <defs>
  <style type="text/css">*{stroke-linejoin: round; stroke-linecap: butt}</style>
 </defs>
 <g id="figure_1">
  <g id="patch_1">
   <path d="M 0 196.222975 
L 602.252727 196.222975 
L 602.252727 0 
L 0 0 
z
" style="fill: #ffffff"/>
  </g>
  <g id="axes_1">
   <g id="patch_2">
    <path d="M 7.2 189.022975 
L 565.2 189.022975 
L 565.2 22.702975 
L 7.2 22.702975 
z
" style="fill: #ffffff"/>
   </g>
   <g id="matplotlib.axis_1">
    <g id="xtick_1">
     <g id="line2d_1">
      <defs>
       <path id="m4ea0695f22" d="M 0 0 
L 0 3.5 
" style="stroke: #000000; stroke-width: 0.8"/>
      </defs>
      <g>
       <use xlink:href="#m4ea0695f22" x="32.563636" y="154.478561" style="stroke: #000000; stroke-width: 0.8"/>
      </g>
     </g>
    </g>
    <g id="xtick_2">
     <g id="line2d_2">
      <g>
       <use xlink:href="#m4ea0695f22" x="95.972727" y="154.478561" style="stroke: #000000; stroke-width: 0.8"/>
      </g>
     </g>
    </g>
    <g id="xtick_3">
     <g id="line2d_3">
      <g>
       <use xlink:href="#m4ea0695f22" x="159.381818" y="154.478561" style="stroke: #000000; stroke-width: 0.8"/>
      </g>
     </g>
    </g>
    <g id="xtick_4">
     <g id="line2d_4">
      <g>
       <use xlink:href="#m4ea0695f22" x="222.790909" y="154.478561" style="stroke: #000000; stroke-width: 0.8"/>
      </g>
     </g>
    </g>
    <g id="xtick_5">
     <g id="line2d_5">
      <g>
       <use xlink:href="#m4ea0695f22" x="286.2" y="154.478561" style="stroke: #000000; stroke-width: 0.8"/>
      </g>
     </g>
    </g>
    <g id="xtick_6">
     <g id="line2d_6">
      <g>
       <use xlink:href="#m4ea0695f22" x="349.609091" y="154.478561" style="stroke: #000000; stroke-width: 0.8"/>
      </g>
     </g>
    </g>
    <g id="xtick_7">
     <g id="line2d_7">
      <g>
       <use xlink:href="#m4ea0695f22" x="413.018182" y="154.478561" style="stroke: #000000; stroke-width: 0.8"/>
      </g>
     </g>
    </g>
    <g id="xtick_8">
     <g id="line2d_8">
      <g>
       <use xlink:href="#m4ea0695f22" x="476.427273" y="154.478561" style="stroke: #000000; stroke-width: 0.8"/>
      </g>
     </g>
    </g>
    <g id="xtick_9">
     <g id="line2d_9">
      <g>
       <use xlink:href="#m4ea0695f22" x="539.836364" y="154.478561" style="stroke: #000000; stroke-width: 0.8"/>
      </g>
     </g>
    </g>
   </g>
   <g id="matplotlib.axis_2">
    <g id="ytick_1">
     <g id="line2d_10">
      <defs>
       <path id="m4db8e39eff" d="M 0 0 
L -3.5 0 
" style="stroke: #000000; stroke-width: 0.8"/>
      </defs>
      <g>
       <use xlink:href="#m4db8e39eff" x="286.2" y="179.322333" style="stroke: #000000; stroke-width: 0.8"/>
      </g>
     </g>
    </g>
    <g id="ytick_2">
     <g id="line2d_11">
      <g>
       <use xlink:href="#m4db8e39eff" x="286.2" y="154.478561" style="stroke: #000000; stroke-width: 0.8"/>
      </g>
     </g>
    </g>
    <g id="ytick_3">
     <g id="line2d_12">
      <g>
       <use xlink:href="#m4db8e39eff" x="286.2" y="129.634788" style="stroke: #000000; stroke-width: 0.8"/>
      </g>
     </g>
    </g>
    <g id="ytick_4">
     <g id="line2d_13">
      <g>
       <use xlink:href="#m4db8e39eff" x="286.2" y="104.791016" style="stroke: #000000; stroke-width: 0.8"/>
      </g>
     </g>
    </g>
    <g id="ytick_5">
     <g id="line2d_14">
      <g>
       <use xlink:href="#m4db8e39eff" x="286.2" y="79.947243" style="stroke: #000000; stroke-width: 0.8"/>
      </g>
     </g>
    </g>
    <g id="ytick_6">
     <g id="line2d_15">
      <g>
       <use xlink:href="#m4db8e39eff" x="286.2" y="55.103471" style="stroke: #000000; stroke-width: 0.8"/>
      </g>
     </g>
    </g>
    <g id="ytick_7">
     <g id="line2d_16">
      <g>
       <use xlink:href="#m4db8e39eff" x="286.2" y="30.259699" style="stroke: #000000; stroke-width: 0.8"/>
      </g>
     </g>
    </g>
   </g>
   <g id="line2d_17">
    <path d="M 32.563636 154.478561 
L 45.258149 160.600251 
L 49.320393 162.290541 
L 52.874857 163.557097 
L 56.42932 164.577669 
L 59.476003 165.226716 
L 62.522686 165.645682 
L 65.569369 165.81875 
L 68.616052 165.735156 
L 71.662735 165.389557 
L 74.709419 164.782289 
L 77.756102 163.919518 
L 80.802785 162.813261 
L 83.849468 161.481292 
L 87.403931 159.673429 
L 91.466175 157.329422 
L 96.54398 154.104457 
L 109.746274 145.517568 
L 113.808518 143.235261 
L 116.855201 141.750921 
L 119.901884 140.506946 
L 122.440786 139.68065 
L 124.979689 139.065851 
L 127.518591 138.678828 
L 130.057494 138.532949 
L 132.596396 138.638387 
L 135.135299 139.001885 
L 137.674201 139.626556 
L 140.213104 140.511729 
L 142.752007 141.652848 
L 145.290909 143.041414 
L 147.829812 144.664984 
L 150.876495 146.900205 
L 153.923178 149.414707 
L 157.477641 152.643728 
L 162.047666 157.138089 
L 175.75774 170.941937 
L 179.312203 174.055793 
L 182.358886 176.400934 
L 184.897789 178.073994 
L 187.436691 179.45063 
L 189.467813 180.314266 
L 191.498935 180.94793 
L 193.530057 181.335681 
L 195.561179 181.462975 
L 197.592301 181.316812 
L 199.623423 180.885868 
L 201.654545 180.160604 
L 203.685667 179.133383 
L 205.71679 177.798557 
L 207.747912 176.15255 
L 209.779034 174.193917 
L 211.810156 171.923398 
L 213.841278 169.343947 
L 216.38018 165.693308 
L 218.919083 161.583243 
L 221.457985 157.034149 
L 223.996888 152.071668 
L 227.043571 145.614589 
L 230.598034 137.468556 
L 234.660278 127.492053 
L 239.738084 114.308548 
L 254.463718 75.477555 
L 258.018182 66.864935 
L 261.064865 59.966783 
L 264.111548 53.611533 
L 266.65045 48.791288 
L 269.189353 44.451515 
L 271.220475 41.353002 
L 273.251597 38.60658 
L 275.282719 36.22877 
L 277.313841 34.233912 
L 278.837183 32.996423 
L 280.360524 31.985389 
L 281.883866 31.204259 
L 283.407207 30.655698 
L 284.930549 30.341579 
L 286.45389 30.262975 
L 287.977232 30.420154 
L 289.500573 30.812579 
L 291.023915 31.43891 
L 292.547256 32.29701 
L 294.070598 33.38395 
L 295.593939 34.696025 
L 297.625061 36.787842 
L 299.656183 39.259237 
L 301.687305 42.095313 
L 303.718428 45.279023 
L 306.25733 49.718273 
L 308.796233 54.629371 
L 311.842916 61.081153 
L 314.889599 68.061117 
L 318.444062 76.749346 
L 323.014087 88.544788 
L 339.770844 132.558537 
L 343.325307 141.034152 
L 346.879771 148.908323 
L 349.926454 155.097155 
L 352.465356 159.814969 
L 355.004259 164.10339 
L 357.543161 167.939905 
L 360.082064 171.307334 
L 362.113186 173.655449 
L 364.144308 175.692209 
L 366.17543 177.416322 
L 368.206552 178.82869 
L 370.237674 179.932362 
L 372.268796 180.732475 
L 374.299918 181.236179 
L 376.33104 181.452543 
L 378.362162 181.392457 
L 380.393284 181.068516 
L 382.424406 180.494887 
L 384.455528 179.687178 
L 386.48665 178.662287 
L 389.025553 177.103331 
L 391.564455 175.270601 
L 394.611138 172.765226 
L 398.165602 169.509175 
L 402.735627 164.971055 
L 414.922359 152.643728 
L 418.476822 149.414707 
L 421.523505 146.900205 
L 424.570188 144.664984 
L 427.109091 143.041414 
L 429.647993 141.652848 
L 432.186896 140.511729 
L 434.725799 139.626556 
L 437.264701 139.001885 
L 439.803604 138.638387 
L 442.342506 138.532949 
L 444.881409 138.678828 
L 447.420311 139.065851 
L 449.959214 139.68065 
L 452.498116 140.506946 
L 455.544799 141.750921 
L 458.591482 143.235261 
L 462.145946 145.216366 
L 466.715971 148.050772 
L 475.348239 153.770267 
L 480.933825 157.329422 
L 484.996069 159.673429 
L 488.550532 161.481292 
L 491.597215 162.813261 
L 494.643898 163.919518 
L 497.690581 164.782289 
L 500.737265 165.389557 
L 503.783948 165.735156 
L 506.830631 165.81875 
L 509.877314 165.645682 
L 512.923997 165.226716 
L 515.97068 164.577669 
L 519.017363 163.718942 
L 522.571826 162.484876 
L 526.63407 160.823358 
L 531.711876 158.479105 
L 539.836364 154.478561 
L 539.836364 154.478561 
" clip-path="url(#pbc2f56f0a7)" style="fill: none; stroke: #1f77b4; stroke-width: 1.5; stroke-linecap: square"/>
   </g>
   <g id="line2d_18">
    <path d="M 32.563636 154.478561 
L 40.688124 155.927078 
L 54.398198 158.409186 
L 59.983784 159.160548 
L 64.553808 159.556987 
L 68.616052 159.702047 
L 72.678296 159.623063 
L 76.740541 159.300348 
L 80.802785 158.723759 
L 84.865029 157.89407 
L 88.927273 156.82395 
L 93.497297 155.364374 
L 98.575102 153.490105 
L 106.69959 150.194926 
L 113.808518 147.384323 
L 118.378542 145.814919 
L 121.933006 144.809092 
L 125.487469 144.046687 
L 128.534152 143.622191 
L 131.580835 143.436371 
L 134.119738 143.479595 
L 136.65864 143.713654 
L 139.197543 144.145886 
L 141.736446 144.780728 
L 144.275348 145.619491 
L 146.814251 146.660172 
L 149.860934 148.167586 
L 152.907617 149.941514 
L 155.9543 151.958306 
L 159.508763 154.576366 
L 163.571007 157.841582 
L 170.172154 163.482843 
L 176.26552 168.619316 
L 180.327764 171.744342 
L 183.374447 173.816921 
L 185.91335 175.311618 
L 188.452252 176.553807 
L 190.483374 177.340658 
L 192.514496 177.923795 
L 194.545618 178.285944 
L 196.57674 178.410964 
L 198.607862 178.284023 
L 200.638984 177.89176 
L 202.670106 177.222445 
L 204.701229 176.266124 
L 206.732351 175.014749 
L 208.763473 173.462303 
L 210.794595 171.604898 
L 212.825717 169.440869 
L 214.856839 166.970838 
L 216.887961 164.197772 
L 219.426863 160.313658 
L 221.965766 155.980241 
L 224.504668 151.218985 
L 227.551351 144.979336 
L 230.598034 138.220267 
L 234.152498 129.769451 
L 238.214742 119.520116 
L 243.800328 104.775439 
L 253.448157 79.21498 
L 257.510401 69.090194 
L 261.064865 60.831527 
L 264.111548 54.324798 
L 266.65045 49.377036 
L 269.189353 44.913438 
L 271.220475 41.721416 
L 273.251597 38.888626 
L 275.282719 36.433438 
L 277.313841 34.371826 
L 278.837183 33.092092 
L 280.360524 32.046074 
L 281.883866 31.237626 
L 283.407207 30.669731 
L 284.930549 30.344486 
L 286.45389 30.263091 
L 287.977232 30.425847 
L 289.500573 30.832154 
L 291.023915 31.48051 
L 292.547256 32.368522 
L 294.070598 33.492916 
L 295.593939 34.849551 
L 297.625061 37.010919 
L 299.656183 39.562101 
L 301.687305 42.486511 
L 303.718428 45.765206 
L 306.25733 50.329371 
L 308.796233 55.368185 
L 311.842916 61.970455 
L 314.889599 69.090194 
L 318.951843 79.21498 
L 324.029648 92.536161 
L 335.7086 123.425603 
L 339.770844 133.458813 
L 343.325307 141.660721 
L 346.37199 148.167929 
L 349.418673 154.125685 
L 351.957576 158.633135 
L 354.496478 162.699176 
L 357.035381 166.305814 
L 359.066503 168.851974 
L 361.097625 171.092652 
L 363.128747 173.026645 
L 365.159869 174.655052 
L 367.190991 175.981212 
L 369.222113 177.01062 
L 371.253235 177.750825 
L 373.284357 178.211318 
L 375.315479 178.403398 
L 377.346601 178.340033 
L 379.377723 178.035701 
L 381.408845 177.506233 
L 383.439967 176.768635 
L 385.97887 175.581471 
L 388.517772 174.134224 
L 391.564455 172.108287 
L 395.118919 169.431725 
L 399.688943 165.661597 
L 412.383456 154.970457 
L 416.4457 151.958306 
L 420.000164 149.628263 
L 423.046847 147.897312 
L 426.09353 146.436094 
L 429.140213 145.259567 
L 431.679115 144.502321 
L 434.218018 143.948861 
L 436.756921 143.596598 
L 439.295823 143.439908 
L 442.342506 143.497989 
L 445.389189 143.806126 
L 448.435872 144.340538 
L 451.990336 145.213221 
L 456.05258 146.47967 
L 460.622604 148.154899 
L 468.239312 151.239967 
L 475.85602 154.266146 
L 480.933825 156.043651 
L 484.996069 157.252102 
L 489.058313 158.234327 
L 493.120557 158.969933 
L 497.182801 159.450798 
L 501.245045 159.680379 
L 505.307289 159.672577 
L 509.369533 159.450242 
L 513.939558 158.98128 
L 519.525143 158.165232 
L 527.141851 156.795439 
L 539.836364 154.478561 
L 539.836364 154.478561 
" clip-path="url(#pbc2f56f0a7)" style="fill: none; stroke: #ff7f0e; stroke-width: 1.5; stroke-linecap: square"/>
   </g>
   <g id="line2d_19">
    <path d="M 32.563636 154.478561 
L 56.937101 153.781531 
L 66.58493 153.792262 
L 77.248321 154.042826 
L 94.512858 154.474361 
L 101.621785 154.408527 
L 108.222932 154.129484 
L 115.331859 153.593321 
L 126.50303 152.465512 
L 134.119738 151.808933 
L 139.197543 151.599455 
L 143.259787 151.641869 
L 146.814251 151.872675 
L 150.368714 152.312509 
L 153.923178 152.981546 
L 157.477641 153.89132 
L 161.032105 155.042877 
L 164.586568 156.425199 
L 168.648812 158.255773 
L 173.218837 160.562962 
L 186.928911 167.701091 
L 189.975594 168.981656 
L 193.022277 170.012815 
L 195.561179 170.632528 
L 198.100082 170.992661 
L 200.131204 171.068184 
L 202.162326 170.934378 
L 204.193448 170.573462 
L 206.22457 169.968883 
L 208.255692 169.105555 
L 210.286814 167.970103 
L 212.317936 166.551091 
L 214.349058 164.839229 
L 216.38018 162.827578 
L 218.411302 160.511717 
L 220.442424 157.889901 
L 222.981327 154.184265 
L 225.520229 150.010887 
L 228.059132 145.385487 
L 230.598034 140.331124 
L 233.644717 133.742898 
L 236.6914 126.646943 
L 240.245864 117.833797 
L 244.815889 105.888665 
L 258.525962 69.570304 
L 262.080426 61.013205 
L 265.127109 54.258286 
L 267.666011 49.125774 
L 270.204914 44.510212 
L 272.236036 41.227542 
L 274.267158 38.33696 
L 276.29828 35.861084 
L 277.821622 34.288166 
L 279.344963 32.96653 
L 280.868305 31.902065 
L 282.391646 31.099521 
L 283.914988 30.562487 
L 285.438329 30.293367 
L 286.961671 30.293367 
L 288.485012 30.562487 
L 290.008354 31.099521 
L 291.531695 31.902065 
L 293.055037 32.96653 
L 294.578378 34.288166 
L 296.10172 35.861084 
L 298.132842 38.33696 
L 300.163964 41.227542 
L 302.195086 44.510212 
L 304.733989 49.125774 
L 307.272891 54.258286 
L 310.319574 61.013205 
L 313.366257 68.309939 
L 317.428501 78.671574 
L 323.521867 94.962836 
L 331.138575 115.229097 
L 335.200819 125.420331 
L 338.755283 133.742898 
L 341.801966 140.331124 
L 344.848649 146.345727 
L 347.387551 150.882333 
L 349.926454 154.963186 
L 352.465356 158.574029 
L 354.496478 161.119344 
L 356.5276 163.358882 
L 358.558722 165.295071 
L 360.589844 166.932974 
L 362.620966 168.280138 
L 364.652088 169.346407 
L 366.68321 170.143723 
L 368.714333 170.685911 
L 370.745455 170.988445 
L 372.776577 171.06821 
L 374.807699 170.943252 
L 377.346601 170.528109 
L 379.885504 169.861158 
L 382.932187 168.78372 
L 385.97887 167.468141 
L 390.041114 165.458064 
L 406.29009 157.082737 
L 410.352334 155.415084 
L 413.906798 154.195908 
L 417.461261 153.216659 
L 421.015725 152.479591 
L 424.570188 151.975988 
L 428.124652 151.687944 
L 432.186896 151.590234 
L 436.756921 151.720637 
L 442.342506 152.124541 
L 452.498116 153.15067 
L 461.130385 153.927245 
L 467.731532 154.307227 
L 474.332678 154.469384 
L 481.949386 154.423235 
L 494.136118 154.074735 
L 506.830631 153.780236 
L 516.47846 153.793753 
L 527.141851 154.045366 
L 539.836364 154.478561 
L 539.836364 154.478561 
" clip-path="url(#pbc2f56f0a7)" style="fill: none; stroke: #2ca02c; stroke-width: 1.5; stroke-linecap: square"/>
   </g>
   <g id="line2d_20">
    <path d="M 32.563636 154.478561 
L 55.92154 154.40115 
L 92.989517 154.530864 
L 116.855201 154.242383 
L 126.50303 154.441168 
L 145.79869 154.946238 
L 152.399836 154.834126 
L 159.508763 154.470245 
L 176.26552 153.449502 
L 180.835545 153.471876 
L 184.897789 153.70523 
L 188.960033 154.157845 
L 193.530057 154.908564 
L 200.638984 156.37073 
L 205.71679 157.318642 
L 208.763473 157.685636 
L 211.302375 157.796143 
L 213.841278 157.668968 
L 215.8724 157.357058 
L 217.903522 156.826075 
L 219.934644 156.046944 
L 221.965766 154.991936 
L 223.996888 153.635335 
L 226.02801 151.954113 
L 228.059132 149.928587 
L 230.090254 147.543045 
L 232.121376 144.786334 
L 234.152498 141.652379 
L 236.18362 138.140631 
L 238.722523 133.228402 
L 241.261425 127.758672 
L 243.800328 121.770863 
L 246.847011 113.979864 
L 250.401474 104.213757 
L 255.479279 89.472973 
L 262.588206 68.802067 
L 266.14267 59.187627 
L 268.681572 52.87013 
L 271.220475 47.143201 
L 273.251597 43.05945 
L 275.282719 39.472517 
L 277.313841 36.426696 
L 278.837183 34.520532 
L 280.360524 32.953706 
L 281.883866 31.737338 
L 283.407207 30.88009 
L 284.422768 30.511232 
L 285.438329 30.305929 
L 286.45389 30.264836 
L 287.469451 30.388083 
L 288.485012 30.675278 
L 289.500573 31.125506 
L 291.023915 32.103268 
L 292.547256 33.437541 
L 294.070598 35.118833 
L 295.593939 37.135231 
L 297.117281 39.472517 
L 299.148403 43.05945 
L 301.179525 47.143201 
L 303.718428 52.87013 
L 306.25733 59.187627 
L 309.304013 67.384262 
L 313.366257 79.010507 
L 323.521867 108.475169 
L 327.076331 117.951673 
L 330.123014 125.42299 
L 332.661916 131.10555 
L 335.200819 136.244518 
L 337.739722 140.809754 
L 339.770844 144.038331 
L 341.801966 146.888993 
L 343.833088 149.366471 
L 345.86421 151.480697 
L 347.895332 153.246294 
L 349.926454 154.682011 
L 351.957576 155.8101 
L 353.988698 156.655667 
L 356.01982 157.246003 
L 358.050942 157.609907 
L 360.082064 157.777031 
L 362.620966 157.754689 
L 365.667649 157.464166 
L 369.222113 156.879594 
L 376.838821 155.305774 
L 381.916626 154.38218 
L 385.97887 153.849299 
L 390.041114 153.534157 
L 394.103358 153.430957 
L 398.673382 153.527197 
L 405.274529 153.920902 
L 418.476822 154.775981 
L 425.077969 154.94023 
L 432.186896 154.880867 
L 443.865848 154.506975 
L 454.529238 154.252348 
L 463.669287 154.256548 
L 500.737265 154.565826 
L 526.63407 154.389459 
L 539.836364 154.478561 
L 539.836364 154.478561 
" clip-path="url(#pbc2f56f0a7)" style="fill: none; stroke: #d62728; stroke-width: 1.5; stroke-linecap: square"/>
   </g>
   <g id="patch_3">
    <path d="M 286.2 189.022975 
L 286.2 22.702975 
" style="fill: none; stroke: #000000; stroke-width: 0.8; stroke-linejoin: miter; stroke-linecap: square"/>
   </g>
   <g id="patch_4">
    <path d="M 565.2 189.022975 
L 565.2 22.702975 
" style="fill: none"/>
   </g>
   <g id="patch_5">
    <path d="M 7.2 154.478561 
L 565.2 154.478561 
" style="fill: none; stroke: #000000; stroke-width: 0.8; stroke-linejoin: miter; stroke-linecap: square"/>
   </g>
   <g id="patch_6">
    <path d="M 7.2 22.702975 
L 565.2 22.702975 
" style="fill: none"/>
   </g>
   <g id="text_1">
    <!-- Tijd -->
    <g transform="translate(570.272727 160.689504) scale(0.14 -0.14)">
     <defs>
      <path id="DejaVuSans-54" d="M -19 4666 
L 3928 4666 
L 3928 4134 
L 2272 4134 
L 2272 0 
L 1638 0 
L 1638 4134 
L -19 4134 
L -19 4666 
z
" transform="scale(0.015625)"/>
      <path id="DejaVuSans-69" d="M 603 3500 
L 1178 3500 
L 1178 0 
L 603 0 
L 603 3500 
z
M 603 4863 
L 1178 4863 
L 1178 4134 
L 603 4134 
L 603 4863 
z
" transform="scale(0.015625)"/>
      <path id="DejaVuSans-6a" d="M 603 3500 
L 1178 3500 
L 1178 -63 
Q 1178 -731 923 -1031 
Q 669 -1331 103 -1331 
L -116 -1331 
L -116 -844 
L 38 -844 
Q 366 -844 484 -692 
Q 603 -541 603 -63 
L 603 3500 
z
M 603 4863 
L 1178 4863 
L 1178 4134 
L 603 4134 
L 603 4863 
z
" transform="scale(0.015625)"/>
      <path id="DejaVuSans-64" d="M 2906 2969 
L 2906 4863 
L 3481 4863 
L 3481 0 
L 2906 0 
L 2906 525 
Q 2725 213 2448 61 
Q 2172 -91 1784 -91 
Q 1150 -91 751 415 
Q 353 922 353 1747 
Q 353 2572 751 3078 
Q 1150 3584 1784 3584 
Q 2172 3584 2448 3432 
Q 2725 3281 2906 2969 
z
M 947 1747 
Q 947 1113 1208 752 
Q 1469 391 1925 391 
Q 2381 391 2643 752 
Q 2906 1113 2906 1747 
Q 2906 2381 2643 2742 
Q 2381 3103 1925 3103 
Q 1469 3103 1208 2742 
Q 947 2381 947 1747 
z
" transform="scale(0.015625)"/>
     </defs>
     <use xlink:href="#DejaVuSans-54"/>
     <use xlink:href="#DejaVuSans-69" x="57.958984"/>
     <use xlink:href="#DejaVuSans-6a" x="85.742188"/>
     <use xlink:href="#DejaVuSans-64" x="113.525391"/>
    </g>
   </g>
   <g id="text_2">
    <!-- -4T -->
    <g transform="translate(23.052273 166.900447) scale(0.14 -0.14)">
     <defs>
      <path id="DejaVuSans-2d" d="M 313 2009 
L 1997 2009 
L 1997 1497 
L 313 1497 
L 313 2009 
z
" transform="scale(0.015625)"/>
      <path id="DejaVuSans-34" d="M 2419 4116 
L 825 1625 
L 2419 1625 
L 2419 4116 
z
M 2253 4666 
L 3047 4666 
L 3047 1625 
L 3713 1625 
L 3713 1100 
L 3047 1100 
L 3047 0 
L 2419 0 
L 2419 1100 
L 313 1100 
L 313 1709 
L 2253 4666 
z
" transform="scale(0.015625)"/>
     </defs>
     <use xlink:href="#DejaVuSans-2d"/>
     <use xlink:href="#DejaVuSans-34" x="36.083984"/>
     <use xlink:href="#DejaVuSans-54" x="99.707031"/>
    </g>
   </g>
   <g id="text_3">
    <!-- -3T -->
    <g transform="translate(86.461364 166.900447) scale(0.14 -0.14)">
     <defs>
      <path id="DejaVuSans-33" d="M 2597 2516 
Q 3050 2419 3304 2112 
Q 3559 1806 3559 1356 
Q 3559 666 3084 287 
Q 2609 -91 1734 -91 
Q 1441 -91 1130 -33 
Q 819 25 488 141 
L 488 750 
Q 750 597 1062 519 
Q 1375 441 1716 441 
Q 2309 441 2620 675 
Q 2931 909 2931 1356 
Q 2931 1769 2642 2001 
Q 2353 2234 1838 2234 
L 1294 2234 
L 1294 2753 
L 1863 2753 
Q 2328 2753 2575 2939 
Q 2822 3125 2822 3475 
Q 2822 3834 2567 4026 
Q 2313 4219 1838 4219 
Q 1578 4219 1281 4162 
Q 984 4106 628 3988 
L 628 4550 
Q 988 4650 1302 4700 
Q 1616 4750 1894 4750 
Q 2613 4750 3031 4423 
Q 3450 4097 3450 3541 
Q 3450 3153 3228 2886 
Q 3006 2619 2597 2516 
z
" transform="scale(0.015625)"/>
     </defs>
     <use xlink:href="#DejaVuSans-2d"/>
     <use xlink:href="#DejaVuSans-33" x="36.083984"/>
     <use xlink:href="#DejaVuSans-54" x="99.707031"/>
    </g>
   </g>
   <g id="text_4">
    <!-- -2T -->
    <g transform="translate(149.870455 166.900447) scale(0.14 -0.14)">
     <defs>
      <path id="DejaVuSans-32" d="M 1228 531 
L 3431 531 
L 3431 0 
L 469 0 
L 469 531 
Q 828 903 1448 1529 
Q 2069 2156 2228 2338 
Q 2531 2678 2651 2914 
Q 2772 3150 2772 3378 
Q 2772 3750 2511 3984 
Q 2250 4219 1831 4219 
Q 1534 4219 1204 4116 
Q 875 4013 500 3803 
L 500 4441 
Q 881 4594 1212 4672 
Q 1544 4750 1819 4750 
Q 2544 4750 2975 4387 
Q 3406 4025 3406 3419 
Q 3406 3131 3298 2873 
Q 3191 2616 2906 2266 
Q 2828 2175 2409 1742 
Q 1991 1309 1228 531 
z
" transform="scale(0.015625)"/>
     </defs>
     <use xlink:href="#DejaVuSans-2d"/>
     <use xlink:href="#DejaVuSans-32" x="36.083984"/>
     <use xlink:href="#DejaVuSans-54" x="99.707031"/>
    </g>
   </g>
   <g id="text_5">
    <!-- -T -->
    <g transform="translate(213.279545 166.900447) scale(0.14 -0.14)">
     <use xlink:href="#DejaVuSans-2d"/>
     <use xlink:href="#DejaVuSans-54" x="26.958984"/>
    </g>
   </g>
   <g id="text_6">
    <!-- 0 -->
    <g transform="translate(276.688636 166.900447) scale(0.14 -0.14)">
     <defs>
      <path id="DejaVuSans-30" d="M 2034 4250 
Q 1547 4250 1301 3770 
Q 1056 3291 1056 2328 
Q 1056 1369 1301 889 
Q 1547 409 2034 409 
Q 2525 409 2770 889 
Q 3016 1369 3016 2328 
Q 3016 3291 2770 3770 
Q 2525 4250 2034 4250 
z
M 2034 4750 
Q 2819 4750 3233 4129 
Q 3647 3509 3647 2328 
Q 3647 1150 3233 529 
Q 2819 -91 2034 -91 
Q 1250 -91 836 529 
Q 422 1150 422 2328 
Q 422 3509 836 4129 
Q 1250 4750 2034 4750 
z
" transform="scale(0.015625)"/>
     </defs>
     <use xlink:href="#DejaVuSans-30"/>
    </g>
   </g>
   <g id="text_7">
    <!-- 1T -->
    <g transform="translate(340.097727 166.900447) scale(0.14 -0.14)">
     <defs>
      <path id="DejaVuSans-31" d="M 794 531 
L 1825 531 
L 1825 4091 
L 703 3866 
L 703 4441 
L 1819 4666 
L 2450 4666 
L 2450 531 
L 3481 531 
L 3481 0 
L 794 0 
L 794 531 
z
" transform="scale(0.015625)"/>
     </defs>
     <use xlink:href="#DejaVuSans-31"/>
     <use xlink:href="#DejaVuSans-54" x="63.623047"/>
    </g>
   </g>
   <g id="text_8">
    <!-- 2T -->
    <g transform="translate(403.506818 166.900447) scale(0.14 -0.14)">
     <use xlink:href="#DejaVuSans-32"/>
     <use xlink:href="#DejaVuSans-54" x="63.623047"/>
    </g>
   </g>
   <g id="text_9">
    <!-- 3T -->
    <g transform="translate(466.915909 166.900447) scale(0.14 -0.14)">
     <use xlink:href="#DejaVuSans-33"/>
     <use xlink:href="#DejaVuSans-54" x="63.623047"/>
    </g>
   </g>
   <g id="text_10">
    <!-- 4T -->
    <g transform="translate(530.325 166.900447) scale(0.14 -0.14)">
     <use xlink:href="#DejaVuSans-34"/>
     <use xlink:href="#DejaVuSans-54" x="63.623047"/>
    </g>
   </g>
   <g id="text_11">
    <!-- h(t) -->
    <g transform="translate(276.688636 17.837812) scale(0.14 -0.14)">
     <defs>
      <path id="DejaVuSans-68" d="M 3513 2113 
L 3513 0 
L 2938 0 
L 2938 2094 
Q 2938 2591 2744 2837 
Q 2550 3084 2163 3084 
Q 1697 3084 1428 2787 
Q 1159 2491 1159 1978 
L 1159 0 
L 581 0 
L 581 4863 
L 1159 4863 
L 1159 2956 
Q 1366 3272 1645 3428 
Q 1925 3584 2291 3584 
Q 2894 3584 3203 3211 
Q 3513 2838 3513 2113 
z
" transform="scale(0.015625)"/>
      <path id="DejaVuSans-28" d="M 1984 4856 
Q 1566 4138 1362 3434 
Q 1159 2731 1159 2009 
Q 1159 1288 1364 580 
Q 1569 -128 1984 -844 
L 1484 -844 
Q 1016 -109 783 600 
Q 550 1309 550 2009 
Q 550 2706 781 3412 
Q 1013 4119 1484 4856 
L 1984 4856 
z
" transform="scale(0.015625)"/>
      <path id="DejaVuSans-74" d="M 1172 4494 
L 1172 3500 
L 2356 3500 
L 2356 3053 
L 1172 3053 
L 1172 1153 
Q 1172 725 1289 603 
Q 1406 481 1766 481 
L 2356 481 
L 2356 0 
L 1766 0 
Q 1100 0 847 248 
Q 594 497 594 1153 
L 594 3053 
L 172 3053 
L 172 3500 
L 594 3500 
L 594 4494 
L 1172 4494 
z
" transform="scale(0.015625)"/>
      <path id="DejaVuSans-29" d="M 513 4856 
L 1013 4856 
Q 1481 4119 1714 3412 
Q 1947 2706 1947 2009 
Q 1947 1309 1714 600 
Q 1481 -109 1013 -844 
L 513 -844 
Q 928 -128 1133 580 
Q 1338 1288 1338 2009 
Q 1338 2731 1133 3434 
Q 928 4138 513 4856 
z
" transform="scale(0.015625)"/>
     </defs>
     <use xlink:href="#DejaVuSans-68"/>
     <use xlink:href="#DejaVuSans-28" x="63.378906"/>
     <use xlink:href="#DejaVuSans-74" x="102.392578"/>
     <use xlink:href="#DejaVuSans-29" x="141.601562"/>
    </g>
   </g>
   <g id="legend_1">
    <g id="patch_7">
     <path d="M 449.864062 116.450475 
L 555.4 116.450475 
Q 558.2 116.450475 558.2 113.650475 
L 558.2 32.502975 
Q 558.2 29.702975 555.4 29.702975 
L 449.864062 29.702975 
Q 447.064062 29.702975 447.064062 32.502975 
L 447.064062 113.650475 
Q 447.064062 116.450475 449.864062 116.450475 
z
" style="fill: #ffffff; opacity: 0.8; stroke: #cccccc; stroke-linejoin: miter"/>
    </g>
    <g id="line2d_21">
     <path d="M 452.664062 41.128287 
L 466.664062 41.128287 
L 480.664062 41.128287 
" style="fill: none; stroke: #1f77b4; stroke-width: 1.5; stroke-linecap: square"/>
    </g>
    <g id="text_12">
     <!-- β = 0 -->
     <g transform="translate(491.864062 46.028287) scale(0.14 -0.14)">
      <defs>
       <path id="DejaVuSans-3b2" d="M 1178 216 
L 1178 -1331 
L 600 -1331 
L 600 3478 
Q 600 4903 1931 4903 
Q 3288 4903 3288 3700 
Q 3288 2844 2750 2531 
Q 3625 2250 3625 1416 
Q 3625 -66 2119 -66 
Q 1456 -66 1178 216 
z
M 1178 966 
Q 1525 425 2141 425 
Q 3041 425 3041 1406 
Q 3041 2288 1591 2219 
L 1591 2750 
Q 2725 2750 2725 3750 
Q 2725 4434 1994 4434 
Q 1178 4434 1178 3459 
L 1178 966 
z
" transform="scale(0.015625)"/>
       <path id="DejaVuSans-20" transform="scale(0.015625)"/>
       <path id="DejaVuSans-3d" d="M 678 2906 
L 4684 2906 
L 4684 2381 
L 678 2381 
L 678 2906 
z
M 678 1631 
L 4684 1631 
L 4684 1100 
L 678 1100 
L 678 1631 
z
" transform="scale(0.015625)"/>
      </defs>
      <use xlink:href="#DejaVuSans-3b2"/>
      <use xlink:href="#DejaVuSans-20" x="63.818359"/>
      <use xlink:href="#DejaVuSans-3d" x="95.605469"/>
      <use xlink:href="#DejaVuSans-20" x="179.394531"/>
      <use xlink:href="#DejaVuSans-30" x="211.181641"/>
     </g>
    </g>
    <g id="line2d_22">
     <path d="M 452.664062 61.765162 
L 466.664062 61.765162 
L 480.664062 61.765162 
" style="fill: none; stroke: #ff7f0e; stroke-width: 1.5; stroke-linecap: square"/>
    </g>
    <g id="text_13">
     <!-- β = 0.25 -->
     <g transform="translate(491.864062 66.665162) scale(0.14 -0.14)">
      <defs>
       <path id="DejaVuSans-2e" d="M 684 794 
L 1344 794 
L 1344 0 
L 684 0 
L 684 794 
z
" transform="scale(0.015625)"/>
       <path id="DejaVuSans-35" d="M 691 4666 
L 3169 4666 
L 3169 4134 
L 1269 4134 
L 1269 2991 
Q 1406 3038 1543 3061 
Q 1681 3084 1819 3084 
Q 2600 3084 3056 2656 
Q 3513 2228 3513 1497 
Q 3513 744 3044 326 
Q 2575 -91 1722 -91 
Q 1428 -91 1123 -41 
Q 819 9 494 109 
L 494 744 
Q 775 591 1075 516 
Q 1375 441 1709 441 
Q 2250 441 2565 725 
Q 2881 1009 2881 1497 
Q 2881 1984 2565 2268 
Q 2250 2553 1709 2553 
Q 1456 2553 1204 2497 
Q 953 2441 691 2322 
L 691 4666 
z
" transform="scale(0.015625)"/>
      </defs>
      <use xlink:href="#DejaVuSans-3b2"/>
      <use xlink:href="#DejaVuSans-20" x="63.818359"/>
      <use xlink:href="#DejaVuSans-3d" x="95.605469"/>
      <use xlink:href="#DejaVuSans-20" x="179.394531"/>
      <use xlink:href="#DejaVuSans-30" x="211.181641"/>
      <use xlink:href="#DejaVuSans-2e" x="274.804688"/>
      <use xlink:href="#DejaVuSans-32" x="306.591797"/>
      <use xlink:href="#DejaVuSans-35" x="370.214844"/>
     </g>
    </g>
    <g id="line2d_23">
     <path d="M 452.664062 82.402037 
L 466.664062 82.402037 
L 480.664062 82.402037 
" style="fill: none; stroke: #2ca02c; stroke-width: 1.5; stroke-linecap: square"/>
    </g>
    <g id="text_14">
     <!-- β = 0.5 -->
     <g transform="translate(491.864062 87.302037) scale(0.14 -0.14)">
      <use xlink:href="#DejaVuSans-3b2"/>
      <use xlink:href="#DejaVuSans-20" x="63.818359"/>
      <use xlink:href="#DejaVuSans-3d" x="95.605469"/>
      <use xlink:href="#DejaVuSans-20" x="179.394531"/>
      <use xlink:href="#DejaVuSans-30" x="211.181641"/>
      <use xlink:href="#DejaVuSans-2e" x="274.804688"/>
      <use xlink:href="#DejaVuSans-35" x="306.591797"/>
     </g>
    </g>
    <g id="line2d_24">
     <path d="M 452.664062 103.038912 
L 466.664062 103.038912 
L 480.664062 103.038912 
" style="fill: none; stroke: #d62728; stroke-width: 1.5; stroke-linecap: square"/>
    </g>
    <g id="text_15">
     <!-- β = 1 -->
     <g transform="translate(491.864062 107.938912) scale(0.14 -0.14)">
      <use xlink:href="#DejaVuSans-3b2"/>
      <use xlink:href="#DejaVuSans-20" x="63.818359"/>
      <use xlink:href="#DejaVuSans-3d" x="95.605469"/>
      <use xlink:href="#DejaVuSans-20" x="179.394531"/>
      <use xlink:href="#DejaVuSans-31" x="211.181641"/>
     </g>
    </g>
   </g>
  </g>
 </g>
 <defs>
  <clipPath id="pbc2f56f0a7">
   <rect x="7.2" y="22.702975" width="558" height="166.32"/>
  </clipPath>
 </defs>
</svg>
