<?xml version="1.0" encoding="utf-8" standalone="no"?>
<!DOCTYPE svg PUBLIC "-//W3C//DTD SVG 1.1//EN"
  "http://www.w3.org/Graphics/SVG/1.1/DTD/svg11.dtd">
<svg xmlns:xlink="http://www.w3.org/1999/xlink" width="602.252727pt" height="196.241593pt" viewBox="0 0 602.252727 196.241593" xmlns="http://www.w3.org/2000/svg" version="1.1">
 <metadata>
  <rdf:RDF xmlns:dc="http://purl.org/dc/elements/1.1/" xmlns:cc="http://creativecommons.org/ns#" xmlns:rdf="http://www.w3.org/1999/02/22-rdf-syntax-ns#">
   <cc:Work>
    <dc:type rdf:resource="http://purl.org/dc/dcmitype/StillImage"/>
    <dc:date>2023-01-12T16:38:53.888657</dc:date>
    <dc:format>image/svg+xml</dc:format>
    <dc:creator>
     <cc:Agent>
      <dc:title>Matplotlib v3.6.2, https://matplotlib.org/</dc:title>
     </cc:Agent>
    </dc:creator>
   </cc:Work>
  </rdf:RDF>
 </metadata>
 <defs>
  <style type="text/css">*{stroke-linejoin: round; stroke-linecap: butt}</style>
 </defs>
 <g id="figure_1">
  <g id="patch_1">
   <path d="M 0 196.241593 
L 602.252727 196.241593 
L 602.252727 0 
L 0 0 
z
" style="fill: #ffffff"/>
  </g>
  <g id="axes_1">
   <g id="patch_2">
    <path d="M 7.2 189.041593 
L 565.2 189.041593 
L 565.2 22.721593 
L 7.2 22.721593 
z
" style="fill: #ffffff"/>
   </g>
   <g id="matplotlib.axis_1">
    <g id="xtick_1">
     <g id="line2d_1">
      <defs>
       <path id="m9ce9d41f96" d="M 0 0 
L 0 3.5 
" style="stroke: #000000; stroke-width: 0.8"/>
      </defs>
      <g>
       <use xlink:href="#m9ce9d41f96" x="32.563636" y="154.494168" style="stroke: #000000; stroke-width: 0.8"/>
      </g>
     </g>
    </g>
    <g id="xtick_2">
     <g id="line2d_2">
      <g>
       <use xlink:href="#m9ce9d41f96" x="95.972727" y="154.494168" style="stroke: #000000; stroke-width: 0.8"/>
      </g>
     </g>
    </g>
    <g id="xtick_3">
     <g id="line2d_3">
      <g>
       <use xlink:href="#m9ce9d41f96" x="159.381818" y="154.494168" style="stroke: #000000; stroke-width: 0.8"/>
      </g>
     </g>
    </g>
    <g id="xtick_4">
     <g id="line2d_4">
      <g>
       <use xlink:href="#m9ce9d41f96" x="222.790909" y="154.494168" style="stroke: #000000; stroke-width: 0.8"/>
      </g>
     </g>
    </g>
    <g id="xtick_5">
     <g id="line2d_5">
      <g>
       <use xlink:href="#m9ce9d41f96" x="286.2" y="154.494168" style="stroke: #000000; stroke-width: 0.8"/>
      </g>
     </g>
    </g>
    <g id="xtick_6">
     <g id="line2d_6">
      <g>
       <use xlink:href="#m9ce9d41f96" x="349.609091" y="154.494168" style="stroke: #000000; stroke-width: 0.8"/>
      </g>
     </g>
    </g>
    <g id="xtick_7">
     <g id="line2d_7">
      <g>
       <use xlink:href="#m9ce9d41f96" x="413.018182" y="154.494168" style="stroke: #000000; stroke-width: 0.8"/>
      </g>
     </g>
    </g>
    <g id="xtick_8">
     <g id="line2d_8">
      <g>
       <use xlink:href="#m9ce9d41f96" x="476.427273" y="154.494168" style="stroke: #000000; stroke-width: 0.8"/>
      </g>
     </g>
    </g>
    <g id="xtick_9">
     <g id="line2d_9">
      <g>
       <use xlink:href="#m9ce9d41f96" x="539.836364" y="154.494168" style="stroke: #000000; stroke-width: 0.8"/>
      </g>
     </g>
    </g>
   </g>
   <g id="matplotlib.axis_2">
    <g id="ytick_1">
     <g id="line2d_10">
      <defs>
       <path id="maedf6b99e7" d="M 0 0 
L -3.5 0 
" style="stroke: #000000; stroke-width: 0.8"/>
      </defs>
      <g>
       <use xlink:href="#maedf6b99e7" x="286.2" y="179.340778" style="stroke: #000000; stroke-width: 0.8"/>
      </g>
     </g>
    </g>
    <g id="ytick_2">
     <g id="line2d_11">
      <g>
       <use xlink:href="#maedf6b99e7" x="286.2" y="154.494168" style="stroke: #000000; stroke-width: 0.8"/>
      </g>
     </g>
    </g>
    <g id="ytick_3">
     <g id="line2d_12">
      <g>
       <use xlink:href="#maedf6b99e7" x="286.2" y="129.647558" style="stroke: #000000; stroke-width: 0.8"/>
      </g>
     </g>
    </g>
    <g id="ytick_4">
     <g id="line2d_13">
      <g>
       <use xlink:href="#maedf6b99e7" x="286.2" y="104.800948" style="stroke: #000000; stroke-width: 0.8"/>
      </g>
     </g>
    </g>
    <g id="ytick_5">
     <g id="line2d_14">
      <g>
       <use xlink:href="#maedf6b99e7" x="286.2" y="79.954338" style="stroke: #000000; stroke-width: 0.8"/>
      </g>
     </g>
    </g>
    <g id="ytick_6">
     <g id="line2d_15">
      <g>
       <use xlink:href="#maedf6b99e7" x="286.2" y="55.107728" style="stroke: #000000; stroke-width: 0.8"/>
      </g>
     </g>
    </g>
    <g id="ytick_7">
     <g id="line2d_16">
      <g>
       <use xlink:href="#maedf6b99e7" x="286.2" y="30.261118" style="stroke: #000000; stroke-width: 0.8"/>
      </g>
     </g>
    </g>
   </g>
   <g id="line2d_17">
    <path d="M 32.563636 154.494168 
L 37.641441 156.868079 
L 40.180344 157.794701 
L 42.211466 158.318126 
L 44.242588 158.607565 
L 46.27371 158.640738 
L 48.304832 158.411186 
L 50.335954 157.928945 
L 52.367076 157.220198 
L 54.905979 156.079358 
L 58.968223 153.926631 
L 63.030467 151.838771 
L 65.569369 150.805454 
L 67.600491 150.220806 
L 69.631613 149.896762 
L 71.662735 149.85877 
L 73.693857 150.11468 
L 75.72498 150.653918 
L 77.756102 151.447799 
L 80.295004 152.727784 
L 83.849468 154.836821 
L 87.911712 157.233738 
L 90.450614 158.465496 
L 92.481736 159.19523 
L 94.512858 159.641317 
L 96.0362 159.768379 
L 97.559541 159.708767 
L 99.082883 159.461578 
L 100.606224 159.03256 
L 102.637346 158.199854 
L 104.668468 157.112598 
L 107.207371 155.493235 
L 114.316298 150.729263 
L 116.34742 149.681086 
L 118.378542 148.914232 
L 119.901884 148.557813 
L 121.425225 148.40747 
L 122.948567 148.472392 
L 124.471908 148.754302 
L 125.99525 149.247253 
L 127.518591 149.937703 
L 129.549713 151.128583 
L 132.088616 152.953463 
L 140.720885 159.582762 
L 142.752007 160.666746 
L 144.275348 161.244949 
L 145.79869 161.59347 
L 147.322031 161.694875 
L 148.845373 161.540097 
L 150.368714 161.128938 
L 151.892056 160.470271 
L 153.415397 159.581929 
L 155.446519 158.086908 
L 157.985422 155.840465 
L 165.602129 148.701762 
L 167.633251 147.276891 
L 169.156593 146.474286 
L 170.679934 145.938943 
L 172.203276 145.697029 
L 173.726618 145.765056 
L 175.249959 146.149057 
L 176.773301 146.844093 
L 178.296642 147.834136 
L 179.819984 149.092324 
L 181.851106 151.121627 
L 184.390008 154.060577 
L 190.483374 161.330247 
L 192.514496 163.278452 
L 194.037838 164.432046 
L 195.561179 165.26573 
L 196.57674 165.62336 
L 197.592301 165.811306 
L 198.607862 165.822702 
L 199.623423 165.65325 
L 200.638984 165.301345 
L 201.654545 164.768159 
L 203.177887 163.637981 
L 204.701229 162.134915 
L 206.22457 160.298206 
L 208.255692 157.422365 
L 210.794595 153.366133 
L 215.364619 145.914194 
L 217.395741 143.052233 
L 218.919083 141.268286 
L 220.442424 139.88203 
L 221.457985 139.212647 
L 222.473546 138.767257 
L 223.489107 138.559986 
L 224.504668 138.60183 
L 225.520229 138.90041 
L 226.53579 139.459764 
L 227.551351 140.28018 
L 228.566912 141.358078 
L 229.582473 142.685947 
L 231.105815 145.120303 
L 232.629156 148.035305 
L 234.660278 152.539118 
L 237.199181 158.838007 
L 241.769206 170.368537 
L 243.800328 174.792126 
L 245.323669 177.53847 
L 246.33923 179.023236 
L 247.354791 180.187891 
L 248.370352 180.998162 
L 249.385913 181.422764 
L 250.401474 181.433856 
L 251.417035 181.007462 
L 252.432596 180.123852 
L 253.448157 178.767883 
L 254.463718 176.92928 
L 255.479279 174.602874 
L 256.49484 171.788773 
L 258.018182 166.666715 
L 259.541523 160.502509 
L 261.064865 153.364927 
L 263.095987 142.501912 
L 265.127109 130.372613 
L 268.173792 110.605458 
L 273.759378 73.907565 
L 275.7905 61.931626 
L 277.821622 51.389564 
L 279.344963 44.659512 
L 280.868305 39.096353 
L 281.883866 36.09482 
L 282.899427 33.692835 
L 283.914988 31.91308 
L 284.930549 30.772396 
L 285.438329 30.445324 
L 285.94611 30.281593 
L 286.45389 30.281593 
L 286.961671 30.445324 
L 287.469451 30.772396 
L 287.977232 31.262035 
L 288.992793 32.723986 
L 290.008354 34.817332 
L 291.023915 37.522283 
L 292.039476 40.813325 
L 293.562817 46.779711 
L 295.086159 53.868487 
L 296.6095 61.931626 
L 298.640622 73.907565 
L 301.687305 93.602667 
L 307.272891 130.372613 
L 309.811794 145.349037 
L 311.842916 155.846931 
L 313.366257 162.669347 
L 314.889599 168.492479 
L 316.41294 173.256569 
L 317.428501 175.827171 
L 318.444062 177.909355 
L 319.459623 179.505672 
L 320.475184 180.623866 
L 321.490745 181.276682 
L 322.506306 181.481593 
L 323.521867 181.260498 
L 324.537428 180.639355 
L 325.552989 179.647784 
L 326.56855 178.318621 
L 327.584111 176.687454 
L 329.107453 173.757717 
L 331.138575 169.160733 
L 334.185258 161.457506 
L 337.739722 152.539118 
L 339.770844 148.035305 
L 341.294185 145.120303 
L 342.817527 142.685947 
L 344.340868 140.78732 
L 345.356429 139.837472 
L 346.37199 139.147383 
L 347.387551 138.71869 
L 348.403112 138.54921 
L 349.418673 138.633093 
L 350.434234 138.961 
L 351.449795 139.520337 
L 352.465356 140.295521 
L 353.988698 141.8224 
L 355.512039 143.722077 
L 357.543161 146.695041 
L 360.589844 151.674316 
L 364.144308 157.422365 
L 366.17543 160.298206 
L 367.698771 162.134915 
L 369.222113 163.637981 
L 370.745455 164.768159 
L 371.761016 165.301345 
L 372.776577 165.65325 
L 373.792138 165.822702 
L 374.807699 165.811306 
L 375.82326 165.62336 
L 376.838821 165.26573 
L 378.362162 164.432046 
L 379.885504 163.278452 
L 381.408845 161.854952 
L 383.439967 159.637435 
L 386.994431 155.306879 
L 390.041114 151.680336 
L 392.072236 149.56518 
L 393.595577 148.225366 
L 395.118919 147.142437 
L 396.64226 146.34674 
L 398.165602 145.857964 
L 399.688943 145.684747 
L 401.212285 145.824678 
L 402.735627 146.264663 
L 404.258968 146.981641 
L 405.78231 147.943621 
L 407.813432 149.538009 
L 410.352334 151.874798 
L 416.4457 157.666134 
L 418.476822 159.239099 
L 420.000164 160.198544 
L 421.523505 160.936184 
L 423.046847 161.431279 
L 424.570188 161.671943 
L 426.09353 161.655355 
L 427.616871 161.387668 
L 429.140213 160.883601 
L 430.663554 160.165755 
L 432.694676 158.927998 
L 435.233579 157.052507 
L 442.850287 151.128583 
L 444.881409 149.937703 
L 446.40475 149.247253 
L 447.928092 148.754302 
L 449.451433 148.472392 
L 450.974775 148.40747 
L 452.498116 148.557813 
L 454.021458 148.914232 
L 455.544799 149.460523 
L 457.575921 150.444525 
L 460.114824 151.987222 
L 469.254873 157.949703 
L 471.285995 158.85109 
L 473.317117 159.461578 
L 474.840459 159.708767 
L 476.3638 159.768379 
L 477.887142 159.641317 
L 479.410483 159.334995 
L 481.441605 158.671981 
L 483.472727 157.762297 
L 486.01163 156.373118 
L 494.136118 151.681078 
L 496.16724 150.830018 
L 498.198362 150.223746 
L 500.229484 149.89529 
L 502.260606 149.859829 
L 504.291728 150.114083 
L 506.32285 150.636866 
L 508.353972 151.39072 
L 510.892875 152.579086 
L 520.540704 157.416614 
L 522.571826 158.072029 
L 524.602948 158.492938 
L 526.63407 158.657104 
L 528.665192 158.558621 
L 530.696314 158.208007 
L 532.727437 157.631278 
L 535.266339 156.653877 
L 538.820803 154.992281 
L 539.836364 154.494168 
L 539.836364 154.494168 
" clip-path="url(#pbdef53c5fe)" style="fill: none; stroke: #1f77b4; stroke-width: 1.5; stroke-linecap: square"/>
   </g>
   <g id="line2d_18">
    <path d="M 32.563636 154.494168 
L 62.014906 154.586745 
L 73.186077 154.749901 
L 80.295004 154.607815 
L 97.051761 154.1233 
L 103.652907 154.278529 
L 118.378542 154.755398 
L 125.487469 154.651162 
L 135.135299 154.498193 
L 141.228665 154.660677 
L 151.384275 155.019813 
L 155.446519 154.886237 
L 159.000983 154.543301 
L 163.063227 153.920158 
L 171.187715 152.582167 
L 173.726618 152.393609 
L 176.26552 152.426269 
L 178.804423 152.724296 
L 180.835545 153.166704 
L 183.374447 153.964386 
L 186.42113 155.215204 
L 194.545618 158.815116 
L 196.57674 159.392021 
L 198.100082 159.646746 
L 199.623423 159.719693 
L 201.146765 159.589995 
L 202.670106 159.243255 
L 204.193448 158.672706 
L 205.71679 157.880163 
L 207.240131 156.876693 
L 209.271253 155.247714 
L 211.810156 152.85475 
L 218.411302 146.365355 
L 219.934644 145.192474 
L 221.457985 144.27671 
L 222.981327 143.677064 
L 223.996888 143.478904 
L 225.012449 143.457564 
L 226.02801 143.623874 
L 227.043571 143.986129 
L 228.059132 144.549808 
L 229.074693 145.31734 
L 230.090254 146.287903 
L 231.613595 148.114197 
L 233.136937 150.357709 
L 234.660278 152.971035 
L 236.6914 156.915356 
L 240.245864 164.483838 
L 242.784767 169.748943 
L 244.815889 173.426061 
L 246.33923 175.665346 
L 247.354791 176.838656 
L 248.370352 177.713129 
L 249.385913 178.253955 
L 250.401474 178.428899 
L 251.417035 178.208843 
L 252.432596 177.568284 
L 253.448157 176.485812 
L 254.463718 174.944536 
L 255.479279 172.93246 
L 256.49484 170.442804 
L 257.510401 167.474264 
L 259.033743 162.134663 
L 260.557084 155.76789 
L 262.080426 148.442452 
L 264.111548 137.355787 
L 266.65045 121.81828 
L 270.712695 94.918578 
L 274.267158 71.879469 
L 276.29828 59.991856 
L 277.821622 52.045351 
L 279.344963 45.127525 
L 280.868305 39.393996 
L 281.883866 36.295012 
L 282.899427 33.812308 
L 283.914988 31.971197 
L 284.930549 30.790503 
L 285.438329 30.451859 
L 285.94611 30.28232 
L 286.45389 30.28232 
L 286.961671 30.451859 
L 287.469451 30.790503 
L 287.977232 31.297382 
L 288.992793 32.810221 
L 290.008354 34.974894 
L 291.023915 37.769297 
L 292.039476 41.164983 
L 293.562817 47.309078 
L 295.086159 54.588226 
L 297.117281 65.774464 
L 299.656183 81.511699 
L 308.288452 137.355787 
L 310.319574 148.442452 
L 311.842916 155.76789 
L 313.366257 162.134663 
L 314.889599 167.474264 
L 315.90516 170.442804 
L 316.920721 172.93246 
L 317.936282 174.944536 
L 318.951843 176.485812 
L 319.967404 177.568284 
L 320.982965 178.208843 
L 321.998526 178.428899 
L 323.014087 178.253955 
L 324.029648 177.713129 
L 325.045209 176.838656 
L 326.06077 175.665346 
L 327.584111 173.426061 
L 329.107453 170.727526 
L 331.138575 166.644963 
L 337.231941 153.913537 
L 339.263063 150.357709 
L 340.786405 148.114197 
L 342.309746 146.287903 
L 343.833088 144.908065 
L 344.848649 144.242564 
L 345.86421 143.780097 
L 346.879771 143.516681 
L 347.895332 143.445398 
L 348.910893 143.55665 
L 349.926454 143.838445 
L 351.449795 144.549632 
L 352.973137 145.557934 
L 355.004259 147.258865 
L 357.543161 149.742048 
L 362.620966 154.795967 
L 364.652088 156.498623 
L 366.68321 157.880163 
L 368.206552 158.672706 
L 369.729894 159.243255 
L 371.253235 159.589995 
L 372.776577 159.719693 
L 374.299918 159.646746 
L 375.82326 159.392021 
L 377.854382 158.815116 
L 380.393284 157.814216 
L 390.041114 153.614607 
L 392.580016 152.922825 
L 394.611138 152.571426 
L 397.150041 152.38333 
L 399.688943 152.44565 
L 402.735627 152.776293 
L 407.305651 153.554324 
L 412.891237 154.477297 
L 416.4457 154.850489 
L 420.000164 155.010257 
L 424.062408 154.972916 
L 441.326945 154.519321 
L 458.083702 154.699969 
L 466.20819 154.384611 
L 474.332678 154.131721 
L 480.426044 154.173505 
L 489.566093 154.512679 
L 497.690581 154.738245 
L 504.799509 154.709238 
L 527.141851 154.42021 
L 539.836364 154.494168 
L 539.836364 154.494168 
" clip-path="url(#pbdef53c5fe)" style="fill: none; stroke: #ff7f0e; stroke-width: 1.5; stroke-linecap: square"/>
   </g>
   <g id="line2d_19">
    <path d="M 32.563636 154.494168 
L 55.413759 154.496691 
L 132.596396 154.462226 
L 146.814251 154.667165 
L 166.10991 154.610989 
L 177.281081 154.871446 
L 181.851106 154.702539 
L 187.944472 154.218396 
L 193.530057 153.829952 
L 197.592301 153.787289 
L 201.654545 153.986114 
L 209.779034 154.492811 
L 212.825717 154.391606 
L 215.364619 154.090684 
L 218.411302 153.479698 
L 226.02801 151.729464 
L 228.059132 151.606159 
L 229.582473 151.724494 
L 231.105815 152.064816 
L 232.629156 152.656857 
L 234.152498 153.520375 
L 235.675839 154.662407 
L 237.199181 156.074865 
L 239.230303 158.332786 
L 241.769206 161.591926 
L 245.83145 166.944079 
L 247.354791 168.648136 
L 248.878133 169.993093 
L 249.893694 170.624835 
L 250.909255 170.998907 
L 251.924816 171.077093 
L 252.940377 170.822902 
L 253.955938 170.202333 
L 254.971499 169.184641 
L 255.98706 167.743069 
L 257.002621 165.855556 
L 258.018182 163.505378 
L 259.033743 160.681732 
L 260.557084 155.550756 
L 262.080426 149.360434 
L 263.603767 142.161398 
L 265.634889 131.150362 
L 267.666011 118.813134 
L 270.712695 98.742158 
L 275.282719 68.629757 
L 277.313841 56.724893 
L 278.837183 48.885778 
L 280.360524 42.215186 
L 281.376085 38.508052 
L 282.391646 35.446671 
L 283.407207 33.068658 
L 284.422768 31.403376 
L 284.930549 30.84481 
L 285.438329 30.471465 
L 285.94611 30.284502 
L 286.45389 30.284502 
L 286.961671 30.471465 
L 287.469451 30.84481 
L 287.977232 31.403376 
L 288.992793 33.068658 
L 290.008354 35.446671 
L 291.023915 38.508052 
L 292.039476 42.215186 
L 293.562817 48.885778 
L 295.086159 56.724893 
L 297.117281 68.629757 
L 299.656183 85.063416 
L 305.241769 122.000949 
L 307.272891 134.041321 
L 309.304013 144.668504 
L 310.827355 151.539216 
L 312.350696 157.380225 
L 313.874038 162.153168 
L 314.889599 164.73912 
L 315.90516 166.856232 
L 316.920721 168.518336 
L 317.936282 169.744902 
L 318.951843 170.560421 
L 319.967404 170.993737 
L 320.982965 171.077316 
L 321.998526 170.846499 
L 323.014087 170.338738 
L 324.029648 169.592822 
L 325.552989 168.113545 
L 327.584111 165.672267 
L 334.185258 157.155083 
L 336.21638 155.104053 
L 337.739722 153.870173 
L 339.263063 152.913898 
L 340.786405 152.232985 
L 342.309746 151.811627 
L 343.833088 151.623097 
L 345.356429 151.632631 
L 347.387551 151.884185 
L 349.926454 152.442507 
L 356.5276 154.006352 
L 359.066503 154.347789 
L 361.605405 154.48806 
L 364.652088 154.431478 
L 370.237674 154.023421 
L 374.807699 153.787289 
L 378.362162 153.810979 
L 382.932187 154.089459 
L 393.087797 154.823588 
L 397.657821 154.872471 
L 404.258968 154.681838 
L 412.383456 154.495201 
L 420.000164 154.583268 
L 429.647993 154.664934 
L 439.803604 154.462226 
L 448.943653 154.376587 
L 505.81507 154.521871 
L 526.12629 154.52513 
L 539.836364 154.494168 
L 539.836364 154.494168 
" clip-path="url(#pbdef53c5fe)" style="fill: none; stroke: #2ca02c; stroke-width: 1.5; stroke-linecap: square"/>
   </g>
   <g id="line2d_20">
    <path d="M 32.563636 154.494168 
L 121.425225 154.494567 
L 139.705324 154.468658 
L 175.249959 154.536644 
L 183.374447 154.519265 
L 194.545618 154.424241 
L 207.747912 154.588871 
L 219.426863 154.286138 
L 223.489107 154.552852 
L 229.074693 154.949211 
L 231.613595 154.922361 
L 234.152498 154.689539 
L 237.706962 154.095094 
L 241.261425 153.537548 
L 243.292547 153.449663 
L 244.815889 153.569885 
L 246.33923 153.878247 
L 247.862572 154.378016 
L 249.893694 155.295813 
L 253.955938 157.314995 
L 255.479279 157.748391 
L 256.49484 157.804873 
L 257.510401 157.609201 
L 258.525962 157.103128 
L 259.541523 156.229039 
L 260.557084 154.931896 
L 261.572645 153.161278 
L 262.588206 150.87342 
L 263.603767 148.033207 
L 264.619328 144.616028 
L 265.634889 140.609431 
L 267.158231 133.500725 
L 268.681572 125.1376 
L 270.712695 112.294504 
L 273.251597 94.333048 
L 277.821622 61.521974 
L 279.344963 51.974603 
L 280.868305 43.791706 
L 281.883866 39.26832 
L 282.899427 35.594061 
L 283.914988 32.840534 
L 284.422768 31.826686 
L 284.930549 31.061866 
L 285.438329 30.549865 
L 285.94611 30.293227 
L 286.45389 30.293227 
L 286.961671 30.549865 
L 287.469451 31.061866 
L 287.977232 31.826686 
L 288.992793 34.098394 
L 290.008354 37.320186 
L 291.023915 41.42898 
L 292.039476 46.345135 
L 293.562817 55.024114 
L 295.593939 68.45222 
L 299.148403 94.333048 
L 301.687305 112.294504 
L 303.718428 125.1376 
L 305.241769 133.500725 
L 306.765111 140.609431 
L 308.288452 146.397819 
L 309.304013 149.524163 
L 310.319574 152.084424 
L 311.335135 154.108686 
L 312.350696 155.636632 
L 313.366257 156.715609 
L 314.381818 157.398603 
L 315.397379 157.742189 
L 316.41294 157.804537 
L 317.428501 157.643518 
L 318.951843 157.10445 
L 321.490745 155.823079 
L 324.029648 154.583856 
L 326.06077 153.878247 
L 327.584111 153.569885 
L 329.107453 153.449663 
L 331.138575 153.537548 
L 333.677477 153.909147 
L 338.755283 154.752298 
L 341.294185 154.943761 
L 343.833088 154.932602 
L 347.895332 154.641881 
L 352.973137 154.286138 
L 356.5276 154.256949 
L 362.113186 154.485821 
L 367.698771 154.642802 
L 373.284357 154.544846 
L 381.408845 154.399052 
L 424.062408 154.506419 
L 439.295823 154.499249 
L 456.05258 154.478536 
L 539.836364 154.494168 
L 539.836364 154.494168 
" clip-path="url(#pbdef53c5fe)" style="fill: none; stroke: #d62728; stroke-width: 1.5; stroke-linecap: square"/>
   </g>
   <g id="patch_3">
    <path d="M 286.2 189.041593 
L 286.2 22.721593 
" style="fill: none; stroke: #000000; stroke-width: 0.8; stroke-linejoin: miter; stroke-linecap: square"/>
   </g>
   <g id="patch_4">
    <path d="M 565.2 189.041593 
L 565.2 22.721593 
" style="fill: none"/>
   </g>
   <g id="patch_5">
    <path d="M 7.2 154.494168 
L 565.2 154.494168 
" style="fill: none; stroke: #000000; stroke-width: 0.8; stroke-linejoin: miter; stroke-linecap: square"/>
   </g>
   <g id="patch_6">
    <path d="M 7.2 22.721593 
L 565.2 22.721593 
" style="fill: none"/>
   </g>
   <g id="text_1">
    <!-- h(t) -->
    <g transform="translate(282.395455 17.837812) scale(0.14 -0.14)">
     <defs>
      <path id="DejaVuSans-68" d="M 3513 2113 
L 3513 0 
L 2938 0 
L 2938 2094 
Q 2938 2591 2744 2837 
Q 2550 3084 2163 3084 
Q 1697 3084 1428 2787 
Q 1159 2491 1159 1978 
L 1159 0 
L 581 0 
L 581 4863 
L 1159 4863 
L 1159 2956 
Q 1366 3272 1645 3428 
Q 1925 3584 2291 3584 
Q 2894 3584 3203 3211 
Q 3513 2838 3513 2113 
z
" transform="scale(0.015625)"/>
      <path id="DejaVuSans-28" d="M 1984 4856 
Q 1566 4138 1362 3434 
Q 1159 2731 1159 2009 
Q 1159 1288 1364 580 
Q 1569 -128 1984 -844 
L 1484 -844 
Q 1016 -109 783 600 
Q 550 1309 550 2009 
Q 550 2706 781 3412 
Q 1013 4119 1484 4856 
L 1984 4856 
z
" transform="scale(0.015625)"/>
      <path id="DejaVuSans-74" d="M 1172 4494 
L 1172 3500 
L 2356 3500 
L 2356 3053 
L 1172 3053 
L 1172 1153 
Q 1172 725 1289 603 
Q 1406 481 1766 481 
L 2356 481 
L 2356 0 
L 1766 0 
Q 1100 0 847 248 
Q 594 497 594 1153 
L 594 3053 
L 172 3053 
L 172 3500 
L 594 3500 
L 594 4494 
L 1172 4494 
z
" transform="scale(0.015625)"/>
      <path id="DejaVuSans-29" d="M 513 4856 
L 1013 4856 
Q 1481 4119 1714 3412 
Q 1947 2706 1947 2009 
Q 1947 1309 1714 600 
Q 1481 -109 1013 -844 
L 513 -844 
Q 928 -128 1133 580 
Q 1338 1288 1338 2009 
Q 1338 2731 1133 3434 
Q 928 4138 513 4856 
z
" transform="scale(0.015625)"/>
     </defs>
     <use xlink:href="#DejaVuSans-68"/>
     <use xlink:href="#DejaVuSans-28" x="63.378906"/>
     <use xlink:href="#DejaVuSans-74" x="102.392578"/>
     <use xlink:href="#DejaVuSans-29" x="141.601562"/>
    </g>
   </g>
   <g id="text_2">
    <!-- Tijd -->
    <g transform="translate(570.272727 160.705821) scale(0.14 -0.14)">
     <defs>
      <path id="DejaVuSans-54" d="M -19 4666 
L 3928 4666 
L 3928 4134 
L 2272 4134 
L 2272 0 
L 1638 0 
L 1638 4134 
L -19 4134 
L -19 4666 
z
" transform="scale(0.015625)"/>
      <path id="DejaVuSans-69" d="M 603 3500 
L 1178 3500 
L 1178 0 
L 603 0 
L 603 3500 
z
M 603 4863 
L 1178 4863 
L 1178 4134 
L 603 4134 
L 603 4863 
z
" transform="scale(0.015625)"/>
      <path id="DejaVuSans-6a" d="M 603 3500 
L 1178 3500 
L 1178 -63 
Q 1178 -731 923 -1031 
Q 669 -1331 103 -1331 
L -116 -1331 
L -116 -844 
L 38 -844 
Q 366 -844 484 -692 
Q 603 -541 603 -63 
L 603 3500 
z
M 603 4863 
L 1178 4863 
L 1178 4134 
L 603 4134 
L 603 4863 
z
" transform="scale(0.015625)"/>
      <path id="DejaVuSans-64" d="M 2906 2969 
L 2906 4863 
L 3481 4863 
L 3481 0 
L 2906 0 
L 2906 525 
Q 2725 213 2448 61 
Q 2172 -91 1784 -91 
Q 1150 -91 751 415 
Q 353 922 353 1747 
Q 353 2572 751 3078 
Q 1150 3584 1784 3584 
Q 2172 3584 2448 3432 
Q 2725 3281 2906 2969 
z
M 947 1747 
Q 947 1113 1208 752 
Q 1469 391 1925 391 
Q 2381 391 2643 752 
Q 2906 1113 2906 1747 
Q 2906 2381 2643 2742 
Q 2381 3103 1925 3103 
Q 1469 3103 1208 2742 
Q 947 2381 947 1747 
z
" transform="scale(0.015625)"/>
     </defs>
     <use xlink:href="#DejaVuSans-54"/>
     <use xlink:href="#DejaVuSans-69" x="57.958984"/>
     <use xlink:href="#DejaVuSans-6a" x="85.742188"/>
     <use xlink:href="#DejaVuSans-64" x="113.525391"/>
    </g>
   </g>
   <g id="legend_1">
    <g id="patch_7">
     <path d="M 449.864062 116.469093 
L 555.4 116.469093 
Q 558.2 116.469093 558.2 113.669093 
L 558.2 32.521593 
Q 558.2 29.721593 555.4 29.721593 
L 449.864062 29.721593 
Q 447.064062 29.721593 447.064062 32.521593 
L 447.064062 113.669093 
Q 447.064062 116.469093 449.864062 116.469093 
z
" style="fill: #ffffff; opacity: 0.8; stroke: #cccccc; stroke-linejoin: miter"/>
    </g>
    <g id="line2d_21">
     <path d="M 452.664062 41.146905 
L 466.664062 41.146905 
L 480.664062 41.146905 
" style="fill: none; stroke: #1f77b4; stroke-width: 1.5; stroke-linecap: square"/>
    </g>
    <g id="text_3">
     <!-- β = 0 -->
     <g transform="translate(491.864062 46.046905) scale(0.14 -0.14)">
      <defs>
       <path id="DejaVuSans-3b2" d="M 1178 216 
L 1178 -1331 
L 600 -1331 
L 600 3478 
Q 600 4903 1931 4903 
Q 3288 4903 3288 3700 
Q 3288 2844 2750 2531 
Q 3625 2250 3625 1416 
Q 3625 -66 2119 -66 
Q 1456 -66 1178 216 
z
M 1178 966 
Q 1525 425 2141 425 
Q 3041 425 3041 1406 
Q 3041 2288 1591 2219 
L 1591 2750 
Q 2725 2750 2725 3750 
Q 2725 4434 1994 4434 
Q 1178 4434 1178 3459 
L 1178 966 
z
" transform="scale(0.015625)"/>
       <path id="DejaVuSans-20" transform="scale(0.015625)"/>
       <path id="DejaVuSans-3d" d="M 678 2906 
L 4684 2906 
L 4684 2381 
L 678 2381 
L 678 2906 
z
M 678 1631 
L 4684 1631 
L 4684 1100 
L 678 1100 
L 678 1631 
z
" transform="scale(0.015625)"/>
       <path id="DejaVuSans-30" d="M 2034 4250 
Q 1547 4250 1301 3770 
Q 1056 3291 1056 2328 
Q 1056 1369 1301 889 
Q 1547 409 2034 409 
Q 2525 409 2770 889 
Q 3016 1369 3016 2328 
Q 3016 3291 2770 3770 
Q 2525 4250 2034 4250 
z
M 2034 4750 
Q 2819 4750 3233 4129 
Q 3647 3509 3647 2328 
Q 3647 1150 3233 529 
Q 2819 -91 2034 -91 
Q 1250 -91 836 529 
Q 422 1150 422 2328 
Q 422 3509 836 4129 
Q 1250 4750 2034 4750 
z
" transform="scale(0.015625)"/>
      </defs>
      <use xlink:href="#DejaVuSans-3b2"/>
      <use xlink:href="#DejaVuSans-20" x="63.818359"/>
      <use xlink:href="#DejaVuSans-3d" x="95.605469"/>
      <use xlink:href="#DejaVuSans-20" x="179.394531"/>
      <use xlink:href="#DejaVuSans-30" x="211.181641"/>
     </g>
    </g>
    <g id="line2d_22">
     <path d="M 452.664062 61.78378 
L 466.664062 61.78378 
L 480.664062 61.78378 
" style="fill: none; stroke: #ff7f0e; stroke-width: 1.5; stroke-linecap: square"/>
    </g>
    <g id="text_4">
     <!-- β = 0.25 -->
     <g transform="translate(491.864062 66.68378) scale(0.14 -0.14)">
      <defs>
       <path id="DejaVuSans-2e" d="M 684 794 
L 1344 794 
L 1344 0 
L 684 0 
L 684 794 
z
" transform="scale(0.015625)"/>
       <path id="DejaVuSans-32" d="M 1228 531 
L 3431 531 
L 3431 0 
L 469 0 
L 469 531 
Q 828 903 1448 1529 
Q 2069 2156 2228 2338 
Q 2531 2678 2651 2914 
Q 2772 3150 2772 3378 
Q 2772 3750 2511 3984 
Q 2250 4219 1831 4219 
Q 1534 4219 1204 4116 
Q 875 4013 500 3803 
L 500 4441 
Q 881 4594 1212 4672 
Q 1544 4750 1819 4750 
Q 2544 4750 2975 4387 
Q 3406 4025 3406 3419 
Q 3406 3131 3298 2873 
Q 3191 2616 2906 2266 
Q 2828 2175 2409 1742 
Q 1991 1309 1228 531 
z
" transform="scale(0.015625)"/>
       <path id="DejaVuSans-35" d="M 691 4666 
L 3169 4666 
L 3169 4134 
L 1269 4134 
L 1269 2991 
Q 1406 3038 1543 3061 
Q 1681 3084 1819 3084 
Q 2600 3084 3056 2656 
Q 3513 2228 3513 1497 
Q 3513 744 3044 326 
Q 2575 -91 1722 -91 
Q 1428 -91 1123 -41 
Q 819 9 494 109 
L 494 744 
Q 775 591 1075 516 
Q 1375 441 1709 441 
Q 2250 441 2565 725 
Q 2881 1009 2881 1497 
Q 2881 1984 2565 2268 
Q 2250 2553 1709 2553 
Q 1456 2553 1204 2497 
Q 953 2441 691 2322 
L 691 4666 
z
" transform="scale(0.015625)"/>
      </defs>
      <use xlink:href="#DejaVuSans-3b2"/>
      <use xlink:href="#DejaVuSans-20" x="63.818359"/>
      <use xlink:href="#DejaVuSans-3d" x="95.605469"/>
      <use xlink:href="#DejaVuSans-20" x="179.394531"/>
      <use xlink:href="#DejaVuSans-30" x="211.181641"/>
      <use xlink:href="#DejaVuSans-2e" x="274.804688"/>
      <use xlink:href="#DejaVuSans-32" x="306.591797"/>
      <use xlink:href="#DejaVuSans-35" x="370.214844"/>
     </g>
    </g>
    <g id="line2d_23">
     <path d="M 452.664062 82.420655 
L 466.664062 82.420655 
L 480.664062 82.420655 
" style="fill: none; stroke: #2ca02c; stroke-width: 1.5; stroke-linecap: square"/>
    </g>
    <g id="text_5">
     <!-- β = 0.5 -->
     <g transform="translate(491.864062 87.320655) scale(0.14 -0.14)">
      <use xlink:href="#DejaVuSans-3b2"/>
      <use xlink:href="#DejaVuSans-20" x="63.818359"/>
      <use xlink:href="#DejaVuSans-3d" x="95.605469"/>
      <use xlink:href="#DejaVuSans-20" x="179.394531"/>
      <use xlink:href="#DejaVuSans-30" x="211.181641"/>
      <use xlink:href="#DejaVuSans-2e" x="274.804688"/>
      <use xlink:href="#DejaVuSans-35" x="306.591797"/>
     </g>
    </g>
    <g id="line2d_24">
     <path d="M 452.664062 103.05753 
L 466.664062 103.05753 
L 480.664062 103.05753 
" style="fill: none; stroke: #d62728; stroke-width: 1.5; stroke-linecap: square"/>
    </g>
    <g id="text_6">
     <!-- β = 1 -->
     <g transform="translate(491.864062 107.95753) scale(0.14 -0.14)">
      <defs>
       <path id="DejaVuSans-31" d="M 794 531 
L 1825 531 
L 1825 4091 
L 703 3866 
L 703 4441 
L 1819 4666 
L 2450 4666 
L 2450 531 
L 3481 531 
L 3481 0 
L 794 0 
L 794 531 
z
" transform="scale(0.015625)"/>
      </defs>
      <use xlink:href="#DejaVuSans-3b2"/>
      <use xlink:href="#DejaVuSans-20" x="63.818359"/>
      <use xlink:href="#DejaVuSans-3d" x="95.605469"/>
      <use xlink:href="#DejaVuSans-20" x="179.394531"/>
      <use xlink:href="#DejaVuSans-31" x="211.181641"/>
     </g>
    </g>
   </g>
  </g>
 </g>
 <defs>
  <clipPath id="pbdef53c5fe">
   <rect x="7.2" y="22.721593" width="558" height="166.32"/>
  </clipPath>
 </defs>
</svg>
