<?xml version="1.0" encoding="utf-8" standalone="no"?>
<!DOCTYPE svg PUBLIC "-//W3C//DTD SVG 1.1//EN"
  "http://www.w3.org/Graphics/SVG/1.1/DTD/svg11.dtd">
<svg xmlns:xlink="http://www.w3.org/1999/xlink" width="436.282812pt" height="197.398125pt" viewBox="0 0 436.282812 197.398125" xmlns="http://www.w3.org/2000/svg" version="1.1">
 <metadata>
  <rdf:RDF xmlns:dc="http://purl.org/dc/elements/1.1/" xmlns:cc="http://creativecommons.org/ns#" xmlns:rdf="http://www.w3.org/1999/02/22-rdf-syntax-ns#">
   <cc:Work>
    <dc:type rdf:resource="http://purl.org/dc/dcmitype/StillImage"/>
    <dc:date>2023-01-12T15:36:07.973906</dc:date>
    <dc:format>image/svg+xml</dc:format>
    <dc:creator>
     <cc:Agent>
      <dc:title>Matplotlib v3.6.2, https://matplotlib.org/</dc:title>
     </cc:Agent>
    </dc:creator>
   </cc:Work>
  </rdf:RDF>
 </metadata>
 <defs>
  <style type="text/css">*{stroke-linejoin: round; stroke-linecap: butt}</style>
 </defs>
 <g id="figure_1">
  <g id="patch_1">
   <path d="M 0 197.398125 
L 436.282812 197.398125 
L 436.282812 0 
L 0 0 
z
" style="fill: #ffffff"/>
  </g>
  <g id="axes_1">
   <g id="patch_2">
    <path d="M 38.482813 173.52 
L 429.082813 173.52 
L 429.082813 7.2 
L 38.482813 7.2 
z
" style="fill: #ffffff"/>
   </g>
   <g id="matplotlib.axis_1">
    <g id="xtick_1">
     <g id="line2d_1">
      <path d="M 56.237358 173.52 
L 56.237358 7.2 
" clip-path="url(#p78f745d520)" style="fill: none; stroke: #b0b0b0; stroke-width: 0.8; stroke-linecap: square"/>
     </g>
     <g id="line2d_2">
      <defs>
       <path id="m14842dac2e" d="M 0 0 
L 0 3.5 
" style="stroke: #000000; stroke-width: 0.8"/>
      </defs>
      <g>
       <use xlink:href="#m14842dac2e" x="56.237358" y="173.52" style="stroke: #000000; stroke-width: 0.8"/>
      </g>
     </g>
     <g id="text_1">
      <!-- 0 -->
      <g transform="translate(53.056108 188.118438) scale(0.1 -0.1)">
       <defs>
        <path id="DejaVuSans-30" d="M 2034 4250 
Q 1547 4250 1301 3770 
Q 1056 3291 1056 2328 
Q 1056 1369 1301 889 
Q 1547 409 2034 409 
Q 2525 409 2770 889 
Q 3016 1369 3016 2328 
Q 3016 3291 2770 3770 
Q 2525 4250 2034 4250 
z
M 2034 4750 
Q 2819 4750 3233 4129 
Q 3647 3509 3647 2328 
Q 3647 1150 3233 529 
Q 2819 -91 2034 -91 
Q 1250 -91 836 529 
Q 422 1150 422 2328 
Q 422 3509 836 4129 
Q 1250 4750 2034 4750 
z
" transform="scale(0.015625)"/>
       </defs>
       <use xlink:href="#DejaVuSans-30"/>
      </g>
     </g>
    </g>
    <g id="xtick_2">
     <g id="line2d_3">
      <path d="M 111.290212 173.52 
L 111.290212 7.2 
" clip-path="url(#p78f745d520)" style="fill: none; stroke: #b0b0b0; stroke-width: 0.8; stroke-linecap: square"/>
     </g>
     <g id="line2d_4">
      <g>
       <use xlink:href="#m14842dac2e" x="111.290212" y="173.52" style="stroke: #000000; stroke-width: 0.8"/>
      </g>
     </g>
     <g id="text_2">
      <!-- 20 -->
      <g transform="translate(104.927712 188.118438) scale(0.1 -0.1)">
       <defs>
        <path id="DejaVuSans-32" d="M 1228 531 
L 3431 531 
L 3431 0 
L 469 0 
L 469 531 
Q 828 903 1448 1529 
Q 2069 2156 2228 2338 
Q 2531 2678 2651 2914 
Q 2772 3150 2772 3378 
Q 2772 3750 2511 3984 
Q 2250 4219 1831 4219 
Q 1534 4219 1204 4116 
Q 875 4013 500 3803 
L 500 4441 
Q 881 4594 1212 4672 
Q 1544 4750 1819 4750 
Q 2544 4750 2975 4387 
Q 3406 4025 3406 3419 
Q 3406 3131 3298 2873 
Q 3191 2616 2906 2266 
Q 2828 2175 2409 1742 
Q 1991 1309 1228 531 
z
" transform="scale(0.015625)"/>
       </defs>
       <use xlink:href="#DejaVuSans-32"/>
       <use xlink:href="#DejaVuSans-30" x="63.623047"/>
      </g>
     </g>
    </g>
    <g id="xtick_3">
     <g id="line2d_5">
      <path d="M 166.343066 173.52 
L 166.343066 7.2 
" clip-path="url(#p78f745d520)" style="fill: none; stroke: #b0b0b0; stroke-width: 0.8; stroke-linecap: square"/>
     </g>
     <g id="line2d_6">
      <g>
       <use xlink:href="#m14842dac2e" x="166.343066" y="173.52" style="stroke: #000000; stroke-width: 0.8"/>
      </g>
     </g>
     <g id="text_3">
      <!-- 40 -->
      <g transform="translate(159.980566 188.118438) scale(0.1 -0.1)">
       <defs>
        <path id="DejaVuSans-34" d="M 2419 4116 
L 825 1625 
L 2419 1625 
L 2419 4116 
z
M 2253 4666 
L 3047 4666 
L 3047 1625 
L 3713 1625 
L 3713 1100 
L 3047 1100 
L 3047 0 
L 2419 0 
L 2419 1100 
L 313 1100 
L 313 1709 
L 2253 4666 
z
" transform="scale(0.015625)"/>
       </defs>
       <use xlink:href="#DejaVuSans-34"/>
       <use xlink:href="#DejaVuSans-30" x="63.623047"/>
      </g>
     </g>
    </g>
    <g id="xtick_4">
     <g id="line2d_7">
      <path d="M 221.39592 173.52 
L 221.39592 7.2 
" clip-path="url(#p78f745d520)" style="fill: none; stroke: #b0b0b0; stroke-width: 0.8; stroke-linecap: square"/>
     </g>
     <g id="line2d_8">
      <g>
       <use xlink:href="#m14842dac2e" x="221.39592" y="173.52" style="stroke: #000000; stroke-width: 0.8"/>
      </g>
     </g>
     <g id="text_4">
      <!-- 60 -->
      <g transform="translate(215.03342 188.118438) scale(0.1 -0.1)">
       <defs>
        <path id="DejaVuSans-36" d="M 2113 2584 
Q 1688 2584 1439 2293 
Q 1191 2003 1191 1497 
Q 1191 994 1439 701 
Q 1688 409 2113 409 
Q 2538 409 2786 701 
Q 3034 994 3034 1497 
Q 3034 2003 2786 2293 
Q 2538 2584 2113 2584 
z
M 3366 4563 
L 3366 3988 
Q 3128 4100 2886 4159 
Q 2644 4219 2406 4219 
Q 1781 4219 1451 3797 
Q 1122 3375 1075 2522 
Q 1259 2794 1537 2939 
Q 1816 3084 2150 3084 
Q 2853 3084 3261 2657 
Q 3669 2231 3669 1497 
Q 3669 778 3244 343 
Q 2819 -91 2113 -91 
Q 1303 -91 875 529 
Q 447 1150 447 2328 
Q 447 3434 972 4092 
Q 1497 4750 2381 4750 
Q 2619 4750 2861 4703 
Q 3103 4656 3366 4563 
z
" transform="scale(0.015625)"/>
       </defs>
       <use xlink:href="#DejaVuSans-36"/>
       <use xlink:href="#DejaVuSans-30" x="63.623047"/>
      </g>
     </g>
    </g>
    <g id="xtick_5">
     <g id="line2d_9">
      <path d="M 276.448774 173.52 
L 276.448774 7.2 
" clip-path="url(#p78f745d520)" style="fill: none; stroke: #b0b0b0; stroke-width: 0.8; stroke-linecap: square"/>
     </g>
     <g id="line2d_10">
      <g>
       <use xlink:href="#m14842dac2e" x="276.448774" y="173.52" style="stroke: #000000; stroke-width: 0.8"/>
      </g>
     </g>
     <g id="text_5">
      <!-- 80 -->
      <g transform="translate(270.086274 188.118438) scale(0.1 -0.1)">
       <defs>
        <path id="DejaVuSans-38" d="M 2034 2216 
Q 1584 2216 1326 1975 
Q 1069 1734 1069 1313 
Q 1069 891 1326 650 
Q 1584 409 2034 409 
Q 2484 409 2743 651 
Q 3003 894 3003 1313 
Q 3003 1734 2745 1975 
Q 2488 2216 2034 2216 
z
M 1403 2484 
Q 997 2584 770 2862 
Q 544 3141 544 3541 
Q 544 4100 942 4425 
Q 1341 4750 2034 4750 
Q 2731 4750 3128 4425 
Q 3525 4100 3525 3541 
Q 3525 3141 3298 2862 
Q 3072 2584 2669 2484 
Q 3125 2378 3379 2068 
Q 3634 1759 3634 1313 
Q 3634 634 3220 271 
Q 2806 -91 2034 -91 
Q 1263 -91 848 271 
Q 434 634 434 1313 
Q 434 1759 690 2068 
Q 947 2378 1403 2484 
z
M 1172 3481 
Q 1172 3119 1398 2916 
Q 1625 2713 2034 2713 
Q 2441 2713 2670 2916 
Q 2900 3119 2900 3481 
Q 2900 3844 2670 4047 
Q 2441 4250 2034 4250 
Q 1625 4250 1398 4047 
Q 1172 3844 1172 3481 
z
" transform="scale(0.015625)"/>
       </defs>
       <use xlink:href="#DejaVuSans-38"/>
       <use xlink:href="#DejaVuSans-30" x="63.623047"/>
      </g>
     </g>
    </g>
    <g id="xtick_6">
     <g id="line2d_11">
      <path d="M 331.501629 173.52 
L 331.501629 7.2 
" clip-path="url(#p78f745d520)" style="fill: none; stroke: #b0b0b0; stroke-width: 0.8; stroke-linecap: square"/>
     </g>
     <g id="line2d_12">
      <g>
       <use xlink:href="#m14842dac2e" x="331.501629" y="173.52" style="stroke: #000000; stroke-width: 0.8"/>
      </g>
     </g>
     <g id="text_6">
      <!-- 100 -->
      <g transform="translate(321.957879 188.118438) scale(0.1 -0.1)">
       <defs>
        <path id="DejaVuSans-31" d="M 794 531 
L 1825 531 
L 1825 4091 
L 703 3866 
L 703 4441 
L 1819 4666 
L 2450 4666 
L 2450 531 
L 3481 531 
L 3481 0 
L 794 0 
L 794 531 
z
" transform="scale(0.015625)"/>
       </defs>
       <use xlink:href="#DejaVuSans-31"/>
       <use xlink:href="#DejaVuSans-30" x="63.623047"/>
       <use xlink:href="#DejaVuSans-30" x="127.246094"/>
      </g>
     </g>
    </g>
    <g id="xtick_7">
     <g id="line2d_13">
      <path d="M 386.554483 173.52 
L 386.554483 7.2 
" clip-path="url(#p78f745d520)" style="fill: none; stroke: #b0b0b0; stroke-width: 0.8; stroke-linecap: square"/>
     </g>
     <g id="line2d_14">
      <g>
       <use xlink:href="#m14842dac2e" x="386.554483" y="173.52" style="stroke: #000000; stroke-width: 0.8"/>
      </g>
     </g>
     <g id="text_7">
      <!-- 120 -->
      <g transform="translate(377.010733 188.118438) scale(0.1 -0.1)">
       <use xlink:href="#DejaVuSans-31"/>
       <use xlink:href="#DejaVuSans-32" x="63.623047"/>
       <use xlink:href="#DejaVuSans-30" x="127.246094"/>
      </g>
     </g>
    </g>
   </g>
   <g id="matplotlib.axis_2">
    <g id="ytick_1">
     <g id="line2d_15">
      <path d="M 38.482813 161.646128 
L 429.082813 161.646128 
" clip-path="url(#p78f745d520)" style="fill: none; stroke: #b0b0b0; stroke-width: 0.8; stroke-linecap: square"/>
     </g>
     <g id="line2d_16">
      <defs>
       <path id="m03a51de79d" d="M 0 0 
L -3.5 0 
" style="stroke: #000000; stroke-width: 0.8"/>
      </defs>
      <g>
       <use xlink:href="#m03a51de79d" x="38.482813" y="161.646128" style="stroke: #000000; stroke-width: 0.8"/>
      </g>
     </g>
     <g id="text_8">
      <!-- −1.5 -->
      <g transform="translate(7.2 165.445347) scale(0.1 -0.1)">
       <defs>
        <path id="DejaVuSans-2212" d="M 678 2272 
L 4684 2272 
L 4684 1741 
L 678 1741 
L 678 2272 
z
" transform="scale(0.015625)"/>
        <path id="DejaVuSans-2e" d="M 684 794 
L 1344 794 
L 1344 0 
L 684 0 
L 684 794 
z
" transform="scale(0.015625)"/>
        <path id="DejaVuSans-35" d="M 691 4666 
L 3169 4666 
L 3169 4134 
L 1269 4134 
L 1269 2991 
Q 1406 3038 1543 3061 
Q 1681 3084 1819 3084 
Q 2600 3084 3056 2656 
Q 3513 2228 3513 1497 
Q 3513 744 3044 326 
Q 2575 -91 1722 -91 
Q 1428 -91 1123 -41 
Q 819 9 494 109 
L 494 744 
Q 775 591 1075 516 
Q 1375 441 1709 441 
Q 2250 441 2565 725 
Q 2881 1009 2881 1497 
Q 2881 1984 2565 2268 
Q 2250 2553 1709 2553 
Q 1456 2553 1204 2497 
Q 953 2441 691 2322 
L 691 4666 
z
" transform="scale(0.015625)"/>
       </defs>
       <use xlink:href="#DejaVuSans-2212"/>
       <use xlink:href="#DejaVuSans-31" x="83.789062"/>
       <use xlink:href="#DejaVuSans-2e" x="147.412109"/>
       <use xlink:href="#DejaVuSans-35" x="179.199219"/>
      </g>
     </g>
    </g>
    <g id="ytick_2">
     <g id="line2d_17">
      <path d="M 38.482813 138.549417 
L 429.082813 138.549417 
" clip-path="url(#p78f745d520)" style="fill: none; stroke: #b0b0b0; stroke-width: 0.8; stroke-linecap: square"/>
     </g>
     <g id="line2d_18">
      <g>
       <use xlink:href="#m03a51de79d" x="38.482813" y="138.549417" style="stroke: #000000; stroke-width: 0.8"/>
      </g>
     </g>
     <g id="text_9">
      <!-- −1.0 -->
      <g transform="translate(7.2 142.348635) scale(0.1 -0.1)">
       <use xlink:href="#DejaVuSans-2212"/>
       <use xlink:href="#DejaVuSans-31" x="83.789062"/>
       <use xlink:href="#DejaVuSans-2e" x="147.412109"/>
       <use xlink:href="#DejaVuSans-30" x="179.199219"/>
      </g>
     </g>
    </g>
    <g id="ytick_3">
     <g id="line2d_19">
      <path d="M 38.482813 115.452705 
L 429.082813 115.452705 
" clip-path="url(#p78f745d520)" style="fill: none; stroke: #b0b0b0; stroke-width: 0.8; stroke-linecap: square"/>
     </g>
     <g id="line2d_20">
      <g>
       <use xlink:href="#m03a51de79d" x="38.482813" y="115.452705" style="stroke: #000000; stroke-width: 0.8"/>
      </g>
     </g>
     <g id="text_10">
      <!-- −0.5 -->
      <g transform="translate(7.2 119.251924) scale(0.1 -0.1)">
       <use xlink:href="#DejaVuSans-2212"/>
       <use xlink:href="#DejaVuSans-30" x="83.789062"/>
       <use xlink:href="#DejaVuSans-2e" x="147.412109"/>
       <use xlink:href="#DejaVuSans-35" x="179.199219"/>
      </g>
     </g>
    </g>
    <g id="ytick_4">
     <g id="line2d_21">
      <path d="M 38.482813 92.355994 
L 429.082813 92.355994 
" clip-path="url(#p78f745d520)" style="fill: none; stroke: #b0b0b0; stroke-width: 0.8; stroke-linecap: square"/>
     </g>
     <g id="line2d_22">
      <g>
       <use xlink:href="#m03a51de79d" x="38.482813" y="92.355994" style="stroke: #000000; stroke-width: 0.8"/>
      </g>
     </g>
     <g id="text_11">
      <!-- 0.0 -->
      <g transform="translate(15.579688 96.155212) scale(0.1 -0.1)">
       <use xlink:href="#DejaVuSans-30"/>
       <use xlink:href="#DejaVuSans-2e" x="63.623047"/>
       <use xlink:href="#DejaVuSans-30" x="95.410156"/>
      </g>
     </g>
    </g>
    <g id="ytick_5">
     <g id="line2d_23">
      <path d="M 38.482813 69.259282 
L 429.082813 69.259282 
" clip-path="url(#p78f745d520)" style="fill: none; stroke: #b0b0b0; stroke-width: 0.8; stroke-linecap: square"/>
     </g>
     <g id="line2d_24">
      <g>
       <use xlink:href="#m03a51de79d" x="38.482813" y="69.259282" style="stroke: #000000; stroke-width: 0.8"/>
      </g>
     </g>
     <g id="text_12">
      <!-- 0.5 -->
      <g transform="translate(15.579688 73.058501) scale(0.1 -0.1)">
       <use xlink:href="#DejaVuSans-30"/>
       <use xlink:href="#DejaVuSans-2e" x="63.623047"/>
       <use xlink:href="#DejaVuSans-35" x="95.410156"/>
      </g>
     </g>
    </g>
    <g id="ytick_6">
     <g id="line2d_25">
      <path d="M 38.482813 46.162571 
L 429.082813 46.162571 
" clip-path="url(#p78f745d520)" style="fill: none; stroke: #b0b0b0; stroke-width: 0.8; stroke-linecap: square"/>
     </g>
     <g id="line2d_26">
      <g>
       <use xlink:href="#m03a51de79d" x="38.482813" y="46.162571" style="stroke: #000000; stroke-width: 0.8"/>
      </g>
     </g>
     <g id="text_13">
      <!-- 1.0 -->
      <g transform="translate(15.579688 49.96179) scale(0.1 -0.1)">
       <use xlink:href="#DejaVuSans-31"/>
       <use xlink:href="#DejaVuSans-2e" x="63.623047"/>
       <use xlink:href="#DejaVuSans-30" x="95.410156"/>
      </g>
     </g>
    </g>
    <g id="ytick_7">
     <g id="line2d_27">
      <path d="M 38.482813 23.065859 
L 429.082813 23.065859 
" clip-path="url(#p78f745d520)" style="fill: none; stroke: #b0b0b0; stroke-width: 0.8; stroke-linecap: square"/>
     </g>
     <g id="line2d_28">
      <g>
       <use xlink:href="#m03a51de79d" x="38.482813" y="23.065859" style="stroke: #000000; stroke-width: 0.8"/>
      </g>
     </g>
     <g id="text_14">
      <!-- 1.5 -->
      <g transform="translate(15.579688 26.865078) scale(0.1 -0.1)">
       <use xlink:href="#DejaVuSans-31"/>
       <use xlink:href="#DejaVuSans-2e" x="63.623047"/>
       <use xlink:href="#DejaVuSans-35" x="95.410156"/>
      </g>
     </g>
    </g>
   </g>
   <g id="line2d_29">
    <path d="M 56.237358 92.271777 
L 64.495286 92.355994 
L 75.505857 92.544061 
L 81.011142 92.417916 
L 92.021713 92.368496 
L 103.032284 92.43015 
L 108.537569 92.355994 
L 116.795497 91.951116 
L 119.54814 91.819983 
L 125.053426 91.886878 
L 127.806068 92.054756 
L 130.558711 92.355994 
L 136.063996 93.256969 
L 138.816639 93.72683 
L 141.569282 94.07843 
L 144.321925 94.114212 
L 147.074567 93.908981 
L 149.82721 93.325581 
L 152.579853 92.355994 
L 155.332495 91.064957 
L 160.837781 88.188353 
L 163.590423 87.122139 
L 166.343066 86.809886 
L 169.095709 87.389785 
L 171.848352 89.188659 
L 174.600994 92.355994 
L 177.353637 96.899637 
L 180.10628 102.663071 
L 182.858922 109.325283 
L 188.364208 123.504913 
L 191.116851 129.821267 
L 193.869493 134.951748 
L 196.622136 138.549417 
L 199.374779 140.482866 
L 202.127421 140.869232 
L 204.880064 140.067052 
L 210.385349 137.281309 
L 213.137992 136.494092 
L 215.890635 136.833809 
L 218.643278 138.549417 
L 221.39592 141.566342 
L 226.901206 149.484899 
L 229.653848 152.675625 
L 232.406491 154.06702 
L 235.159134 152.52704 
L 237.911777 147.441825 
L 240.664419 138.549417 
L 243.417062 126.112055 
L 246.169705 110.938177 
L 251.67499 77.885193 
L 254.427633 63.48148 
L 257.180276 52.582095 
L 259.932918 46.558625 
L 262.685561 46.162571 
L 265.438204 51.471892 
L 268.190846 61.855386 
L 270.943489 76.037155 
L 276.448774 108.395252 
L 279.201417 122.617447 
L 281.95406 133.092304 
L 284.706703 138.549417 
L 287.459345 138.351537 
L 290.211988 132.55469 
L 292.964631 121.87213 
L 295.717273 107.550873 
L 303.975202 59.08452 
L 306.727844 46.162571 
L 309.480487 36.651153 
L 312.23313 30.909768 
L 314.985772 28.801118 
L 317.738415 29.766812 
L 320.491058 33.038449 
L 323.2437 37.44789 
L 325.996343 42.093924 
L 328.748986 46.162571 
L 331.501629 49.100746 
L 334.254271 50.6638 
L 337.006914 50.908781 
L 339.759557 50.213768 
L 345.264842 47.392959 
L 348.017485 46.420655 
L 350.770128 46.162571 
L 353.52277 46.699037 
L 356.275413 47.882022 
L 361.780698 50.760882 
L 364.533341 51.481276 
L 367.285984 51.029556 
L 370.038626 49.248991 
L 372.791269 46.162571 
L 375.543912 42.07967 
L 378.296555 37.580653 
L 381.049197 33.453955 
L 383.80184 30.667854 
L 386.554483 29.839008 
L 389.307125 31.948717 
L 392.059768 37.366544 
L 394.812411 46.162571 
L 397.565054 57.991569 
L 400.317696 72.109095 
L 405.822982 102.640757 
L 408.575624 116.444272 
L 411.328267 127.690264 
L 411.328267 127.690264 
" clip-path="url(#p78f745d520)" style="fill: none; stroke: #1f77b4; stroke-width: 1.5; stroke-linecap: square"/>
    <defs>
     <path id="m340017d204" d="M 0 1.5 
C 0.397805 1.5 0.77937 1.341951 1.06066 1.06066 
C 1.341951 0.77937 1.5 0.397805 1.5 0 
C 1.5 -0.397805 1.341951 -0.77937 1.06066 -1.06066 
C 0.77937 -1.341951 0.397805 -1.5 0 -1.5 
C -0.397805 -1.5 -0.77937 -1.341951 -1.06066 -1.06066 
C -1.341951 -0.77937 -1.5 -0.397805 -1.5 0 
C -1.5 0.397805 -1.341951 0.77937 -1.06066 1.06066 
C -0.77937 1.341951 -0.397805 1.5 0 1.5 
z
" style="stroke: #1f77b4"/>
    </defs>
    <g clip-path="url(#p78f745d520)">
     <use xlink:href="#m340017d204" x="56.237358" y="92.271777" style="fill: #1f77b4; stroke: #1f77b4"/>
     <use xlink:href="#m340017d204" x="58.990001" y="92.279746" style="fill: #1f77b4; stroke: #1f77b4"/>
     <use xlink:href="#m340017d204" x="61.742643" y="92.308442" style="fill: #1f77b4; stroke: #1f77b4"/>
     <use xlink:href="#m340017d204" x="64.495286" y="92.355994" style="fill: #1f77b4; stroke: #1f77b4"/>
     <use xlink:href="#m340017d204" x="67.247929" y="92.415246" style="fill: #1f77b4; stroke: #1f77b4"/>
     <use xlink:href="#m340017d204" x="70.000571" y="92.474858" style="fill: #1f77b4; stroke: #1f77b4"/>
     <use xlink:href="#m340017d204" x="72.753214" y="92.521701" style="fill: #1f77b4; stroke: #1f77b4"/>
     <use xlink:href="#m340017d204" x="75.505857" y="92.544061" style="fill: #1f77b4; stroke: #1f77b4"/>
     <use xlink:href="#m340017d204" x="78.2585" y="92.450664" style="fill: #1f77b4; stroke: #1f77b4"/>
     <use xlink:href="#m340017d204" x="81.011142" y="92.417916" style="fill: #1f77b4; stroke: #1f77b4"/>
     <use xlink:href="#m340017d204" x="83.763785" y="92.38219" style="fill: #1f77b4; stroke: #1f77b4"/>
     <use xlink:href="#m340017d204" x="86.516428" y="92.355994" style="fill: #1f77b4; stroke: #1f77b4"/>
     <use xlink:href="#m340017d204" x="89.26907" y="92.349803" style="fill: #1f77b4; stroke: #1f77b4"/>
     <use xlink:href="#m340017d204" x="92.021713" y="92.368496" style="fill: #1f77b4; stroke: #1f77b4"/>
     <use xlink:href="#m340017d204" x="94.774356" y="92.408793" style="fill: #1f77b4; stroke: #1f77b4"/>
     <use xlink:href="#m340017d204" x="97.526999" y="92.45857" style="fill: #1f77b4; stroke: #1f77b4"/>
     <use xlink:href="#m340017d204" x="100.279641" y="92.414341" style="fill: #1f77b4; stroke: #1f77b4"/>
     <use xlink:href="#m340017d204" x="103.032284" y="92.43015" style="fill: #1f77b4; stroke: #1f77b4"/>
     <use xlink:href="#m340017d204" x="105.784927" y="92.414871" style="fill: #1f77b4; stroke: #1f77b4"/>
     <use xlink:href="#m340017d204" x="108.537569" y="92.355994" style="fill: #1f77b4; stroke: #1f77b4"/>
     <use xlink:href="#m340017d204" x="111.290212" y="92.250126" style="fill: #1f77b4; stroke: #1f77b4"/>
     <use xlink:href="#m340017d204" x="114.042855" y="92.107002" style="fill: #1f77b4; stroke: #1f77b4"/>
     <use xlink:href="#m340017d204" x="116.795497" y="91.951116" style="fill: #1f77b4; stroke: #1f77b4"/>
     <use xlink:href="#m340017d204" x="119.54814" y="91.819983" style="fill: #1f77b4; stroke: #1f77b4"/>
     <use xlink:href="#m340017d204" x="122.300783" y="91.842834" style="fill: #1f77b4; stroke: #1f77b4"/>
     <use xlink:href="#m340017d204" x="125.053426" y="91.886878" style="fill: #1f77b4; stroke: #1f77b4"/>
     <use xlink:href="#m340017d204" x="127.806068" y="92.054756" style="fill: #1f77b4; stroke: #1f77b4"/>
     <use xlink:href="#m340017d204" x="130.558711" y="92.355994" style="fill: #1f77b4; stroke: #1f77b4"/>
     <use xlink:href="#m340017d204" x="133.311354" y="92.773166" style="fill: #1f77b4; stroke: #1f77b4"/>
     <use xlink:href="#m340017d204" x="136.063996" y="93.256969" style="fill: #1f77b4; stroke: #1f77b4"/>
     <use xlink:href="#m340017d204" x="138.816639" y="93.72683" style="fill: #1f77b4; stroke: #1f77b4"/>
     <use xlink:href="#m340017d204" x="141.569282" y="94.07843" style="fill: #1f77b4; stroke: #1f77b4"/>
     <use xlink:href="#m340017d204" x="144.321925" y="94.114212" style="fill: #1f77b4; stroke: #1f77b4"/>
     <use xlink:href="#m340017d204" x="147.074567" y="93.908981" style="fill: #1f77b4; stroke: #1f77b4"/>
     <use xlink:href="#m340017d204" x="149.82721" y="93.325581" style="fill: #1f77b4; stroke: #1f77b4"/>
     <use xlink:href="#m340017d204" x="152.579853" y="92.355994" style="fill: #1f77b4; stroke: #1f77b4"/>
     <use xlink:href="#m340017d204" x="155.332495" y="91.064957" style="fill: #1f77b4; stroke: #1f77b4"/>
     <use xlink:href="#m340017d204" x="158.085138" y="89.599825" style="fill: #1f77b4; stroke: #1f77b4"/>
     <use xlink:href="#m340017d204" x="160.837781" y="88.188353" style="fill: #1f77b4; stroke: #1f77b4"/>
     <use xlink:href="#m340017d204" x="163.590423" y="87.122139" style="fill: #1f77b4; stroke: #1f77b4"/>
     <use xlink:href="#m340017d204" x="166.343066" y="86.809886" style="fill: #1f77b4; stroke: #1f77b4"/>
     <use xlink:href="#m340017d204" x="169.095709" y="87.389785" style="fill: #1f77b4; stroke: #1f77b4"/>
     <use xlink:href="#m340017d204" x="171.848352" y="89.188659" style="fill: #1f77b4; stroke: #1f77b4"/>
     <use xlink:href="#m340017d204" x="174.600994" y="92.355994" style="fill: #1f77b4; stroke: #1f77b4"/>
     <use xlink:href="#m340017d204" x="177.353637" y="96.899637" style="fill: #1f77b4; stroke: #1f77b4"/>
     <use xlink:href="#m340017d204" x="180.10628" y="102.663071" style="fill: #1f77b4; stroke: #1f77b4"/>
     <use xlink:href="#m340017d204" x="182.858922" y="109.325283" style="fill: #1f77b4; stroke: #1f77b4"/>
     <use xlink:href="#m340017d204" x="185.611565" y="116.426719" style="fill: #1f77b4; stroke: #1f77b4"/>
     <use xlink:href="#m340017d204" x="188.364208" y="123.504913" style="fill: #1f77b4; stroke: #1f77b4"/>
     <use xlink:href="#m340017d204" x="191.116851" y="129.821267" style="fill: #1f77b4; stroke: #1f77b4"/>
     <use xlink:href="#m340017d204" x="193.869493" y="134.951748" style="fill: #1f77b4; stroke: #1f77b4"/>
     <use xlink:href="#m340017d204" x="196.622136" y="138.549417" style="fill: #1f77b4; stroke: #1f77b4"/>
     <use xlink:href="#m340017d204" x="199.374779" y="140.482866" style="fill: #1f77b4; stroke: #1f77b4"/>
     <use xlink:href="#m340017d204" x="202.127421" y="140.869232" style="fill: #1f77b4; stroke: #1f77b4"/>
     <use xlink:href="#m340017d204" x="204.880064" y="140.067052" style="fill: #1f77b4; stroke: #1f77b4"/>
     <use xlink:href="#m340017d204" x="207.632707" y="138.62588" style="fill: #1f77b4; stroke: #1f77b4"/>
     <use xlink:href="#m340017d204" x="210.385349" y="137.281309" style="fill: #1f77b4; stroke: #1f77b4"/>
     <use xlink:href="#m340017d204" x="213.137992" y="136.494092" style="fill: #1f77b4; stroke: #1f77b4"/>
     <use xlink:href="#m340017d204" x="215.890635" y="136.833809" style="fill: #1f77b4; stroke: #1f77b4"/>
     <use xlink:href="#m340017d204" x="218.643278" y="138.549417" style="fill: #1f77b4; stroke: #1f77b4"/>
     <use xlink:href="#m340017d204" x="221.39592" y="141.566342" style="fill: #1f77b4; stroke: #1f77b4"/>
     <use xlink:href="#m340017d204" x="224.148563" y="145.459239" style="fill: #1f77b4; stroke: #1f77b4"/>
     <use xlink:href="#m340017d204" x="226.901206" y="149.484899" style="fill: #1f77b4; stroke: #1f77b4"/>
     <use xlink:href="#m340017d204" x="229.653848" y="152.675625" style="fill: #1f77b4; stroke: #1f77b4"/>
     <use xlink:href="#m340017d204" x="232.406491" y="154.06702" style="fill: #1f77b4; stroke: #1f77b4"/>
     <use xlink:href="#m340017d204" x="235.159134" y="152.52704" style="fill: #1f77b4; stroke: #1f77b4"/>
     <use xlink:href="#m340017d204" x="237.911777" y="147.441825" style="fill: #1f77b4; stroke: #1f77b4"/>
     <use xlink:href="#m340017d204" x="240.664419" y="138.549417" style="fill: #1f77b4; stroke: #1f77b4"/>
     <use xlink:href="#m340017d204" x="243.417062" y="126.112055" style="fill: #1f77b4; stroke: #1f77b4"/>
     <use xlink:href="#m340017d204" x="246.169705" y="110.938177" style="fill: #1f77b4; stroke: #1f77b4"/>
     <use xlink:href="#m340017d204" x="248.922347" y="94.3192" style="fill: #1f77b4; stroke: #1f77b4"/>
     <use xlink:href="#m340017d204" x="251.67499" y="77.885193" style="fill: #1f77b4; stroke: #1f77b4"/>
     <use xlink:href="#m340017d204" x="254.427633" y="63.48148" style="fill: #1f77b4; stroke: #1f77b4"/>
     <use xlink:href="#m340017d204" x="257.180276" y="52.582095" style="fill: #1f77b4; stroke: #1f77b4"/>
     <use xlink:href="#m340017d204" x="259.932918" y="46.558625" style="fill: #1f77b4; stroke: #1f77b4"/>
     <use xlink:href="#m340017d204" x="262.685561" y="46.162571" style="fill: #1f77b4; stroke: #1f77b4"/>
     <use xlink:href="#m340017d204" x="265.438204" y="51.471892" style="fill: #1f77b4; stroke: #1f77b4"/>
     <use xlink:href="#m340017d204" x="268.190846" y="61.855386" style="fill: #1f77b4; stroke: #1f77b4"/>
     <use xlink:href="#m340017d204" x="270.943489" y="76.037155" style="fill: #1f77b4; stroke: #1f77b4"/>
     <use xlink:href="#m340017d204" x="273.696132" y="92.253417" style="fill: #1f77b4; stroke: #1f77b4"/>
     <use xlink:href="#m340017d204" x="276.448774" y="108.395252" style="fill: #1f77b4; stroke: #1f77b4"/>
     <use xlink:href="#m340017d204" x="279.201417" y="122.617447" style="fill: #1f77b4; stroke: #1f77b4"/>
     <use xlink:href="#m340017d204" x="281.95406" y="133.092304" style="fill: #1f77b4; stroke: #1f77b4"/>
     <use xlink:href="#m340017d204" x="284.706703" y="138.549417" style="fill: #1f77b4; stroke: #1f77b4"/>
     <use xlink:href="#m340017d204" x="287.459345" y="138.351537" style="fill: #1f77b4; stroke: #1f77b4"/>
     <use xlink:href="#m340017d204" x="290.211988" y="132.55469" style="fill: #1f77b4; stroke: #1f77b4"/>
     <use xlink:href="#m340017d204" x="292.964631" y="121.87213" style="fill: #1f77b4; stroke: #1f77b4"/>
     <use xlink:href="#m340017d204" x="295.717273" y="107.550873" style="fill: #1f77b4; stroke: #1f77b4"/>
     <use xlink:href="#m340017d204" x="298.469916" y="91.266448" style="fill: #1f77b4; stroke: #1f77b4"/>
     <use xlink:href="#m340017d204" x="301.222559" y="74.552899" style="fill: #1f77b4; stroke: #1f77b4"/>
     <use xlink:href="#m340017d204" x="303.975202" y="59.08452" style="fill: #1f77b4; stroke: #1f77b4"/>
     <use xlink:href="#m340017d204" x="306.727844" y="46.162571" style="fill: #1f77b4; stroke: #1f77b4"/>
     <use xlink:href="#m340017d204" x="309.480487" y="36.651153" style="fill: #1f77b4; stroke: #1f77b4"/>
     <use xlink:href="#m340017d204" x="312.23313" y="30.909768" style="fill: #1f77b4; stroke: #1f77b4"/>
     <use xlink:href="#m340017d204" x="314.985772" y="28.801118" style="fill: #1f77b4; stroke: #1f77b4"/>
     <use xlink:href="#m340017d204" x="317.738415" y="29.766812" style="fill: #1f77b4; stroke: #1f77b4"/>
     <use xlink:href="#m340017d204" x="320.491058" y="33.038449" style="fill: #1f77b4; stroke: #1f77b4"/>
     <use xlink:href="#m340017d204" x="323.2437" y="37.44789" style="fill: #1f77b4; stroke: #1f77b4"/>
     <use xlink:href="#m340017d204" x="325.996343" y="42.093924" style="fill: #1f77b4; stroke: #1f77b4"/>
     <use xlink:href="#m340017d204" x="328.748986" y="46.162571" style="fill: #1f77b4; stroke: #1f77b4"/>
     <use xlink:href="#m340017d204" x="331.501629" y="49.100746" style="fill: #1f77b4; stroke: #1f77b4"/>
     <use xlink:href="#m340017d204" x="334.254271" y="50.6638" style="fill: #1f77b4; stroke: #1f77b4"/>
     <use xlink:href="#m340017d204" x="337.006914" y="50.908781" style="fill: #1f77b4; stroke: #1f77b4"/>
     <use xlink:href="#m340017d204" x="339.759557" y="50.213768" style="fill: #1f77b4; stroke: #1f77b4"/>
     <use xlink:href="#m340017d204" x="342.512199" y="48.783807" style="fill: #1f77b4; stroke: #1f77b4"/>
     <use xlink:href="#m340017d204" x="345.264842" y="47.392959" style="fill: #1f77b4; stroke: #1f77b4"/>
     <use xlink:href="#m340017d204" x="348.017485" y="46.420655" style="fill: #1f77b4; stroke: #1f77b4"/>
     <use xlink:href="#m340017d204" x="350.770128" y="46.162571" style="fill: #1f77b4; stroke: #1f77b4"/>
     <use xlink:href="#m340017d204" x="353.52277" y="46.699037" style="fill: #1f77b4; stroke: #1f77b4"/>
     <use xlink:href="#m340017d204" x="356.275413" y="47.882022" style="fill: #1f77b4; stroke: #1f77b4"/>
     <use xlink:href="#m340017d204" x="359.028056" y="49.367397" style="fill: #1f77b4; stroke: #1f77b4"/>
     <use xlink:href="#m340017d204" x="361.780698" y="50.760882" style="fill: #1f77b4; stroke: #1f77b4"/>
     <use xlink:href="#m340017d204" x="364.533341" y="51.481276" style="fill: #1f77b4; stroke: #1f77b4"/>
     <use xlink:href="#m340017d204" x="367.285984" y="51.029556" style="fill: #1f77b4; stroke: #1f77b4"/>
     <use xlink:href="#m340017d204" x="370.038626" y="49.248991" style="fill: #1f77b4; stroke: #1f77b4"/>
     <use xlink:href="#m340017d204" x="372.791269" y="46.162571" style="fill: #1f77b4; stroke: #1f77b4"/>
     <use xlink:href="#m340017d204" x="375.543912" y="42.07967" style="fill: #1f77b4; stroke: #1f77b4"/>
     <use xlink:href="#m340017d204" x="378.296555" y="37.580653" style="fill: #1f77b4; stroke: #1f77b4"/>
     <use xlink:href="#m340017d204" x="381.049197" y="33.453955" style="fill: #1f77b4; stroke: #1f77b4"/>
     <use xlink:href="#m340017d204" x="383.80184" y="30.667854" style="fill: #1f77b4; stroke: #1f77b4"/>
     <use xlink:href="#m340017d204" x="386.554483" y="29.839008" style="fill: #1f77b4; stroke: #1f77b4"/>
     <use xlink:href="#m340017d204" x="389.307125" y="31.948717" style="fill: #1f77b4; stroke: #1f77b4"/>
     <use xlink:href="#m340017d204" x="392.059768" y="37.366544" style="fill: #1f77b4; stroke: #1f77b4"/>
     <use xlink:href="#m340017d204" x="394.812411" y="46.162571" style="fill: #1f77b4; stroke: #1f77b4"/>
     <use xlink:href="#m340017d204" x="397.565054" y="57.991569" style="fill: #1f77b4; stroke: #1f77b4"/>
     <use xlink:href="#m340017d204" x="400.317696" y="72.109095" style="fill: #1f77b4; stroke: #1f77b4"/>
     <use xlink:href="#m340017d204" x="403.070339" y="87.443714" style="fill: #1f77b4; stroke: #1f77b4"/>
     <use xlink:href="#m340017d204" x="405.822982" y="102.640757" style="fill: #1f77b4; stroke: #1f77b4"/>
     <use xlink:href="#m340017d204" x="408.575624" y="116.444272" style="fill: #1f77b4; stroke: #1f77b4"/>
     <use xlink:href="#m340017d204" x="411.328267" y="127.690264" style="fill: #1f77b4; stroke: #1f77b4"/>
    </g>
   </g>
   <g id="line2d_30">
    <path d="M 196.622136 165.96 
L 196.622136 14.76 
" clip-path="url(#p78f745d520)" style="fill: none; stroke: #008000; stroke-width: 1.5; stroke-linecap: square"/>
   </g>
   <g id="line2d_31">
    <path d="M 218.643278 165.96 
L 218.643278 14.76 
" clip-path="url(#p78f745d520)" style="fill: none; stroke: #008000; stroke-width: 1.5; stroke-linecap: square"/>
   </g>
   <g id="line2d_32">
    <path d="M 240.664419 165.96 
L 240.664419 14.76 
" clip-path="url(#p78f745d520)" style="fill: none; stroke: #008000; stroke-width: 1.5; stroke-linecap: square"/>
   </g>
   <g id="line2d_33">
    <path d="M 262.685561 165.96 
L 262.685561 14.76 
" clip-path="url(#p78f745d520)" style="fill: none; stroke: #008000; stroke-width: 1.5; stroke-linecap: square"/>
   </g>
   <g id="line2d_34">
    <path d="M 284.706703 165.96 
L 284.706703 14.76 
" clip-path="url(#p78f745d520)" style="fill: none; stroke: #008000; stroke-width: 1.5; stroke-linecap: square"/>
   </g>
   <g id="line2d_35">
    <path d="M 306.727844 165.96 
L 306.727844 14.76 
" clip-path="url(#p78f745d520)" style="fill: none; stroke: #008000; stroke-width: 1.5; stroke-linecap: square"/>
   </g>
   <g id="line2d_36">
    <path d="M 328.748986 165.96 
L 328.748986 14.76 
" clip-path="url(#p78f745d520)" style="fill: none; stroke: #008000; stroke-width: 1.5; stroke-linecap: square"/>
   </g>
   <g id="line2d_37">
    <path d="M 350.770128 165.96 
L 350.770128 14.76 
" clip-path="url(#p78f745d520)" style="fill: none; stroke: #008000; stroke-width: 1.5; stroke-linecap: square"/>
   </g>
   <g id="line2d_38">
    <path d="M 372.791269 165.96 
L 372.791269 14.76 
" clip-path="url(#p78f745d520)" style="fill: none; stroke: #008000; stroke-width: 1.5; stroke-linecap: square"/>
   </g>
   <g id="line2d_39">
    <path d="M 394.812411 165.96 
L 394.812411 14.76 
" clip-path="url(#p78f745d520)" style="fill: none; stroke: #008000; stroke-width: 1.5; stroke-linecap: square"/>
   </g>
   <g id="patch_3">
    <path d="M 38.482813 173.52 
L 38.482813 7.2 
" style="fill: none; stroke: #000000; stroke-width: 0.8; stroke-linejoin: miter; stroke-linecap: square"/>
   </g>
   <g id="patch_4">
    <path d="M 429.082813 173.52 
L 429.082813 7.2 
" style="fill: none; stroke: #000000; stroke-width: 0.8; stroke-linejoin: miter; stroke-linecap: square"/>
   </g>
   <g id="patch_5">
    <path d="M 38.482813 173.52 
L 429.082813 173.52 
" style="fill: none; stroke: #000000; stroke-width: 0.8; stroke-linejoin: miter; stroke-linecap: square"/>
   </g>
   <g id="patch_6">
    <path d="M 38.482813 7.2 
L 429.082813 7.2 
" style="fill: none; stroke: #000000; stroke-width: 0.8; stroke-linejoin: miter; stroke-linecap: square"/>
   </g>
  </g>
 </g>
 <defs>
  <clipPath id="p78f745d520">
   <rect x="38.482813" y="7.2" width="390.6" height="166.32"/>
  </clipPath>
 </defs>
</svg>
