<?xml version="1.0" encoding="utf-8" standalone="no"?>
<!DOCTYPE svg PUBLIC "-//W3C//DTD SVG 1.1//EN"
  "http://www.w3.org/Graphics/SVG/1.1/DTD/svg11.dtd">
<svg xmlns:xlink="http://www.w3.org/1999/xlink" width="611.766387pt" height="288.944625pt" viewBox="0 0 611.766387 288.944625" xmlns="http://www.w3.org/2000/svg" version="1.1">
 <metadata>
  <rdf:RDF xmlns:dc="http://purl.org/dc/elements/1.1/" xmlns:cc="http://creativecommons.org/ns#" xmlns:rdf="http://www.w3.org/1999/02/22-rdf-syntax-ns#">
   <cc:Work>
    <dc:type rdf:resource="http://purl.org/dc/dcmitype/StillImage"/>
    <dc:date>2023-01-13T09:18:54.835362</dc:date>
    <dc:format>image/svg+xml</dc:format>
    <dc:creator>
     <cc:Agent>
      <dc:title>Matplotlib v3.6.2, https://matplotlib.org/</dc:title>
     </cc:Agent>
    </dc:creator>
   </cc:Work>
  </rdf:RDF>
 </metadata>
 <defs>
  <style type="text/css">*{stroke-linejoin: round; stroke-linecap: butt}</style>
 </defs>
 <g id="figure_1">
  <g id="patch_1">
   <path d="M 0 288.944625 
L 611.766387 288.944625 
L 611.766387 0 
L 0 0 
z
" style="fill: #ffffff"/>
  </g>
  <g id="axes_1">
   <g id="patch_2">
    <path d="M 32.252324 244.078125 
L 285.888688 244.078125 
L 285.888688 22.318125 
L 32.252324 22.318125 
z
" style="fill: #ffffff"/>
   </g>
   <g id="matplotlib.axis_1">
    <g id="xtick_1">
     <g id="line2d_1">
      <defs>
       <path id="ma30b58117a" d="M 0 0 
L 0 3.5 
" style="stroke: #000000; stroke-width: 0.8"/>
      </defs>
      <g>
       <use xlink:href="#ma30b58117a" x="43.78125" y="233.998125" style="stroke: #000000; stroke-width: 0.8"/>
      </g>
     </g>
    </g>
    <g id="xtick_2">
     <g id="line2d_2">
      <g>
       <use xlink:href="#ma30b58117a" x="89.943114" y="233.998125" style="stroke: #000000; stroke-width: 0.8"/>
      </g>
     </g>
    </g>
    <g id="xtick_3">
     <g id="line2d_3">
      <g>
       <use xlink:href="#ma30b58117a" x="136.104979" y="233.998125" style="stroke: #000000; stroke-width: 0.8"/>
      </g>
     </g>
    </g>
    <g id="xtick_4">
     <g id="line2d_4">
      <g>
       <use xlink:href="#ma30b58117a" x="182.266843" y="233.998125" style="stroke: #000000; stroke-width: 0.8"/>
      </g>
     </g>
    </g>
    <g id="xtick_5">
     <g id="line2d_5">
      <g>
       <use xlink:href="#ma30b58117a" x="228.428707" y="233.998125" style="stroke: #000000; stroke-width: 0.8"/>
      </g>
     </g>
    </g>
    <g id="xtick_6">
     <g id="line2d_6">
      <g>
       <use xlink:href="#ma30b58117a" x="274.590572" y="233.998125" style="stroke: #000000; stroke-width: 0.8"/>
      </g>
     </g>
    </g>
   </g>
   <g id="matplotlib.axis_2">
    <g id="ytick_1">
     <g id="line2d_7">
      <defs>
       <path id="m4efd41cf82" d="M 0 0 
L -3.5 0 
" style="stroke: #000000; stroke-width: 0.8"/>
      </defs>
      <g>
       <use xlink:href="#m4efd41cf82" x="43.78125" y="233.998125" style="stroke: #000000; stroke-width: 0.8"/>
      </g>
     </g>
     <g id="text_1">
      <!-- 0.0 -->
      <g transform="translate(20.878125 237.797344) scale(0.1 -0.1)">
       <defs>
        <path id="DejaVuSans-30" d="M 2034 4250 
Q 1547 4250 1301 3770 
Q 1056 3291 1056 2328 
Q 1056 1369 1301 889 
Q 1547 409 2034 409 
Q 2525 409 2770 889 
Q 3016 1369 3016 2328 
Q 3016 3291 2770 3770 
Q 2525 4250 2034 4250 
z
M 2034 4750 
Q 2819 4750 3233 4129 
Q 3647 3509 3647 2328 
Q 3647 1150 3233 529 
Q 2819 -91 2034 -91 
Q 1250 -91 836 529 
Q 422 1150 422 2328 
Q 422 3509 836 4129 
Q 1250 4750 2034 4750 
z
" transform="scale(0.015625)"/>
        <path id="DejaVuSans-2e" d="M 684 794 
L 1344 794 
L 1344 0 
L 684 0 
L 684 794 
z
" transform="scale(0.015625)"/>
       </defs>
       <use xlink:href="#DejaVuSans-30"/>
       <use xlink:href="#DejaVuSans-2e" x="63.623047"/>
       <use xlink:href="#DejaVuSans-30" x="95.410156"/>
      </g>
     </g>
    </g>
    <g id="ytick_2">
     <g id="line2d_8">
      <g>
       <use xlink:href="#m4efd41cf82" x="43.78125" y="193.678125" style="stroke: #000000; stroke-width: 0.8"/>
      </g>
     </g>
     <g id="text_2">
      <!-- 0.2 -->
      <g transform="translate(20.878125 197.477344) scale(0.1 -0.1)">
       <defs>
        <path id="DejaVuSans-32" d="M 1228 531 
L 3431 531 
L 3431 0 
L 469 0 
L 469 531 
Q 828 903 1448 1529 
Q 2069 2156 2228 2338 
Q 2531 2678 2651 2914 
Q 2772 3150 2772 3378 
Q 2772 3750 2511 3984 
Q 2250 4219 1831 4219 
Q 1534 4219 1204 4116 
Q 875 4013 500 3803 
L 500 4441 
Q 881 4594 1212 4672 
Q 1544 4750 1819 4750 
Q 2544 4750 2975 4387 
Q 3406 4025 3406 3419 
Q 3406 3131 3298 2873 
Q 3191 2616 2906 2266 
Q 2828 2175 2409 1742 
Q 1991 1309 1228 531 
z
" transform="scale(0.015625)"/>
       </defs>
       <use xlink:href="#DejaVuSans-30"/>
       <use xlink:href="#DejaVuSans-2e" x="63.623047"/>
       <use xlink:href="#DejaVuSans-32" x="95.410156"/>
      </g>
     </g>
    </g>
    <g id="ytick_3">
     <g id="line2d_9">
      <g>
       <use xlink:href="#m4efd41cf82" x="43.78125" y="153.358125" style="stroke: #000000; stroke-width: 0.8"/>
      </g>
     </g>
     <g id="text_3">
      <!-- 0.4 -->
      <g transform="translate(20.878125 157.157344) scale(0.1 -0.1)">
       <defs>
        <path id="DejaVuSans-34" d="M 2419 4116 
L 825 1625 
L 2419 1625 
L 2419 4116 
z
M 2253 4666 
L 3047 4666 
L 3047 1625 
L 3713 1625 
L 3713 1100 
L 3047 1100 
L 3047 0 
L 2419 0 
L 2419 1100 
L 313 1100 
L 313 1709 
L 2253 4666 
z
" transform="scale(0.015625)"/>
       </defs>
       <use xlink:href="#DejaVuSans-30"/>
       <use xlink:href="#DejaVuSans-2e" x="63.623047"/>
       <use xlink:href="#DejaVuSans-34" x="95.410156"/>
      </g>
     </g>
    </g>
    <g id="ytick_4">
     <g id="line2d_10">
      <g>
       <use xlink:href="#m4efd41cf82" x="43.78125" y="113.038125" style="stroke: #000000; stroke-width: 0.8"/>
      </g>
     </g>
     <g id="text_4">
      <!-- 0.6 -->
      <g transform="translate(20.878125 116.837344) scale(0.1 -0.1)">
       <defs>
        <path id="DejaVuSans-36" d="M 2113 2584 
Q 1688 2584 1439 2293 
Q 1191 2003 1191 1497 
Q 1191 994 1439 701 
Q 1688 409 2113 409 
Q 2538 409 2786 701 
Q 3034 994 3034 1497 
Q 3034 2003 2786 2293 
Q 2538 2584 2113 2584 
z
M 3366 4563 
L 3366 3988 
Q 3128 4100 2886 4159 
Q 2644 4219 2406 4219 
Q 1781 4219 1451 3797 
Q 1122 3375 1075 2522 
Q 1259 2794 1537 2939 
Q 1816 3084 2150 3084 
Q 2853 3084 3261 2657 
Q 3669 2231 3669 1497 
Q 3669 778 3244 343 
Q 2819 -91 2113 -91 
Q 1303 -91 875 529 
Q 447 1150 447 2328 
Q 447 3434 972 4092 
Q 1497 4750 2381 4750 
Q 2619 4750 2861 4703 
Q 3103 4656 3366 4563 
z
" transform="scale(0.015625)"/>
       </defs>
       <use xlink:href="#DejaVuSans-30"/>
       <use xlink:href="#DejaVuSans-2e" x="63.623047"/>
       <use xlink:href="#DejaVuSans-36" x="95.410156"/>
      </g>
     </g>
    </g>
    <g id="ytick_5">
     <g id="line2d_11">
      <g>
       <use xlink:href="#m4efd41cf82" x="43.78125" y="72.718125" style="stroke: #000000; stroke-width: 0.8"/>
      </g>
     </g>
     <g id="text_5">
      <!-- 0.8 -->
      <g transform="translate(20.878125 76.517344) scale(0.1 -0.1)">
       <defs>
        <path id="DejaVuSans-38" d="M 2034 2216 
Q 1584 2216 1326 1975 
Q 1069 1734 1069 1313 
Q 1069 891 1326 650 
Q 1584 409 2034 409 
Q 2484 409 2743 651 
Q 3003 894 3003 1313 
Q 3003 1734 2745 1975 
Q 2488 2216 2034 2216 
z
M 1403 2484 
Q 997 2584 770 2862 
Q 544 3141 544 3541 
Q 544 4100 942 4425 
Q 1341 4750 2034 4750 
Q 2731 4750 3128 4425 
Q 3525 4100 3525 3541 
Q 3525 3141 3298 2862 
Q 3072 2584 2669 2484 
Q 3125 2378 3379 2068 
Q 3634 1759 3634 1313 
Q 3634 634 3220 271 
Q 2806 -91 2034 -91 
Q 1263 -91 848 271 
Q 434 634 434 1313 
Q 434 1759 690 2068 
Q 947 2378 1403 2484 
z
M 1172 3481 
Q 1172 3119 1398 2916 
Q 1625 2713 2034 2713 
Q 2441 2713 2670 2916 
Q 2900 3119 2900 3481 
Q 2900 3844 2670 4047 
Q 2441 4250 2034 4250 
Q 1625 4250 1398 4047 
Q 1172 3844 1172 3481 
z
" transform="scale(0.015625)"/>
       </defs>
       <use xlink:href="#DejaVuSans-30"/>
       <use xlink:href="#DejaVuSans-2e" x="63.623047"/>
       <use xlink:href="#DejaVuSans-38" x="95.410156"/>
      </g>
     </g>
    </g>
    <g id="ytick_6">
     <g id="line2d_12">
      <g>
       <use xlink:href="#m4efd41cf82" x="43.78125" y="32.398125" style="stroke: #000000; stroke-width: 0.8"/>
      </g>
     </g>
     <g id="text_6">
      <!-- 1.0 -->
      <g transform="translate(20.878125 36.197344) scale(0.1 -0.1)">
       <defs>
        <path id="DejaVuSans-31" d="M 794 531 
L 1825 531 
L 1825 4091 
L 703 3866 
L 703 4441 
L 1819 4666 
L 2450 4666 
L 2450 531 
L 3481 531 
L 3481 0 
L 794 0 
L 794 531 
z
" transform="scale(0.015625)"/>
       </defs>
       <use xlink:href="#DejaVuSans-31"/>
       <use xlink:href="#DejaVuSans-2e" x="63.623047"/>
       <use xlink:href="#DejaVuSans-30" x="95.410156"/>
      </g>
     </g>
    </g>
    <g id="text_7">
     <!-- Amplitude / Waarde -->
     <g transform="translate(14.798438 182.655156) rotate(-90) scale(0.1 -0.1)">
      <defs>
       <path id="DejaVuSans-41" d="M 2188 4044 
L 1331 1722 
L 3047 1722 
L 2188 4044 
z
M 1831 4666 
L 2547 4666 
L 4325 0 
L 3669 0 
L 3244 1197 
L 1141 1197 
L 716 0 
L 50 0 
L 1831 4666 
z
" transform="scale(0.015625)"/>
       <path id="DejaVuSans-6d" d="M 3328 2828 
Q 3544 3216 3844 3400 
Q 4144 3584 4550 3584 
Q 5097 3584 5394 3201 
Q 5691 2819 5691 2113 
L 5691 0 
L 5113 0 
L 5113 2094 
Q 5113 2597 4934 2840 
Q 4756 3084 4391 3084 
Q 3944 3084 3684 2787 
Q 3425 2491 3425 1978 
L 3425 0 
L 2847 0 
L 2847 2094 
Q 2847 2600 2669 2842 
Q 2491 3084 2119 3084 
Q 1678 3084 1418 2786 
Q 1159 2488 1159 1978 
L 1159 0 
L 581 0 
L 581 3500 
L 1159 3500 
L 1159 2956 
Q 1356 3278 1631 3431 
Q 1906 3584 2284 3584 
Q 2666 3584 2933 3390 
Q 3200 3197 3328 2828 
z
" transform="scale(0.015625)"/>
       <path id="DejaVuSans-70" d="M 1159 525 
L 1159 -1331 
L 581 -1331 
L 581 3500 
L 1159 3500 
L 1159 2969 
Q 1341 3281 1617 3432 
Q 1894 3584 2278 3584 
Q 2916 3584 3314 3078 
Q 3713 2572 3713 1747 
Q 3713 922 3314 415 
Q 2916 -91 2278 -91 
Q 1894 -91 1617 61 
Q 1341 213 1159 525 
z
M 3116 1747 
Q 3116 2381 2855 2742 
Q 2594 3103 2138 3103 
Q 1681 3103 1420 2742 
Q 1159 2381 1159 1747 
Q 1159 1113 1420 752 
Q 1681 391 2138 391 
Q 2594 391 2855 752 
Q 3116 1113 3116 1747 
z
" transform="scale(0.015625)"/>
       <path id="DejaVuSans-6c" d="M 603 4863 
L 1178 4863 
L 1178 0 
L 603 0 
L 603 4863 
z
" transform="scale(0.015625)"/>
       <path id="DejaVuSans-69" d="M 603 3500 
L 1178 3500 
L 1178 0 
L 603 0 
L 603 3500 
z
M 603 4863 
L 1178 4863 
L 1178 4134 
L 603 4134 
L 603 4863 
z
" transform="scale(0.015625)"/>
       <path id="DejaVuSans-74" d="M 1172 4494 
L 1172 3500 
L 2356 3500 
L 2356 3053 
L 1172 3053 
L 1172 1153 
Q 1172 725 1289 603 
Q 1406 481 1766 481 
L 2356 481 
L 2356 0 
L 1766 0 
Q 1100 0 847 248 
Q 594 497 594 1153 
L 594 3053 
L 172 3053 
L 172 3500 
L 594 3500 
L 594 4494 
L 1172 4494 
z
" transform="scale(0.015625)"/>
       <path id="DejaVuSans-75" d="M 544 1381 
L 544 3500 
L 1119 3500 
L 1119 1403 
Q 1119 906 1312 657 
Q 1506 409 1894 409 
Q 2359 409 2629 706 
Q 2900 1003 2900 1516 
L 2900 3500 
L 3475 3500 
L 3475 0 
L 2900 0 
L 2900 538 
Q 2691 219 2414 64 
Q 2138 -91 1772 -91 
Q 1169 -91 856 284 
Q 544 659 544 1381 
z
M 1991 3584 
L 1991 3584 
z
" transform="scale(0.015625)"/>
       <path id="DejaVuSans-64" d="M 2906 2969 
L 2906 4863 
L 3481 4863 
L 3481 0 
L 2906 0 
L 2906 525 
Q 2725 213 2448 61 
Q 2172 -91 1784 -91 
Q 1150 -91 751 415 
Q 353 922 353 1747 
Q 353 2572 751 3078 
Q 1150 3584 1784 3584 
Q 2172 3584 2448 3432 
Q 2725 3281 2906 2969 
z
M 947 1747 
Q 947 1113 1208 752 
Q 1469 391 1925 391 
Q 2381 391 2643 752 
Q 2906 1113 2906 1747 
Q 2906 2381 2643 2742 
Q 2381 3103 1925 3103 
Q 1469 3103 1208 2742 
Q 947 2381 947 1747 
z
" transform="scale(0.015625)"/>
       <path id="DejaVuSans-65" d="M 3597 1894 
L 3597 1613 
L 953 1613 
Q 991 1019 1311 708 
Q 1631 397 2203 397 
Q 2534 397 2845 478 
Q 3156 559 3463 722 
L 3463 178 
Q 3153 47 2828 -22 
Q 2503 -91 2169 -91 
Q 1331 -91 842 396 
Q 353 884 353 1716 
Q 353 2575 817 3079 
Q 1281 3584 2069 3584 
Q 2775 3584 3186 3129 
Q 3597 2675 3597 1894 
z
M 3022 2063 
Q 3016 2534 2758 2815 
Q 2500 3097 2075 3097 
Q 1594 3097 1305 2825 
Q 1016 2553 972 2059 
L 3022 2063 
z
" transform="scale(0.015625)"/>
       <path id="DejaVuSans-20" transform="scale(0.015625)"/>
       <path id="DejaVuSans-2f" d="M 1625 4666 
L 2156 4666 
L 531 -594 
L 0 -594 
L 1625 4666 
z
" transform="scale(0.015625)"/>
       <path id="DejaVuSans-57" d="M 213 4666 
L 850 4666 
L 1831 722 
L 2809 4666 
L 3519 4666 
L 4500 722 
L 5478 4666 
L 6119 4666 
L 4947 0 
L 4153 0 
L 3169 4050 
L 2175 0 
L 1381 0 
L 213 4666 
z
" transform="scale(0.015625)"/>
       <path id="DejaVuSans-61" d="M 2194 1759 
Q 1497 1759 1228 1600 
Q 959 1441 959 1056 
Q 959 750 1161 570 
Q 1363 391 1709 391 
Q 2188 391 2477 730 
Q 2766 1069 2766 1631 
L 2766 1759 
L 2194 1759 
z
M 3341 1997 
L 3341 0 
L 2766 0 
L 2766 531 
Q 2569 213 2275 61 
Q 1981 -91 1556 -91 
Q 1019 -91 701 211 
Q 384 513 384 1019 
Q 384 1609 779 1909 
Q 1175 2209 1959 2209 
L 2766 2209 
L 2766 2266 
Q 2766 2663 2505 2880 
Q 2244 3097 1772 3097 
Q 1472 3097 1187 3025 
Q 903 2953 641 2809 
L 641 3341 
Q 956 3463 1253 3523 
Q 1550 3584 1831 3584 
Q 2591 3584 2966 3190 
Q 3341 2797 3341 1997 
z
" transform="scale(0.015625)"/>
       <path id="DejaVuSans-72" d="M 2631 2963 
Q 2534 3019 2420 3045 
Q 2306 3072 2169 3072 
Q 1681 3072 1420 2755 
Q 1159 2438 1159 1844 
L 1159 0 
L 581 0 
L 581 3500 
L 1159 3500 
L 1159 2956 
Q 1341 3275 1631 3429 
Q 1922 3584 2338 3584 
Q 2397 3584 2469 3576 
Q 2541 3569 2628 3553 
L 2631 2963 
z
" transform="scale(0.015625)"/>
      </defs>
      <use xlink:href="#DejaVuSans-41"/>
      <use xlink:href="#DejaVuSans-6d" x="68.408203"/>
      <use xlink:href="#DejaVuSans-70" x="165.820312"/>
      <use xlink:href="#DejaVuSans-6c" x="229.296875"/>
      <use xlink:href="#DejaVuSans-69" x="257.080078"/>
      <use xlink:href="#DejaVuSans-74" x="284.863281"/>
      <use xlink:href="#DejaVuSans-75" x="324.072266"/>
      <use xlink:href="#DejaVuSans-64" x="387.451172"/>
      <use xlink:href="#DejaVuSans-65" x="450.927734"/>
      <use xlink:href="#DejaVuSans-20" x="512.451172"/>
      <use xlink:href="#DejaVuSans-2f" x="544.238281"/>
      <use xlink:href="#DejaVuSans-20" x="577.929688"/>
      <use xlink:href="#DejaVuSans-57" x="609.716797"/>
      <use xlink:href="#DejaVuSans-61" x="702.21875"/>
      <use xlink:href="#DejaVuSans-61" x="763.498047"/>
      <use xlink:href="#DejaVuSans-72" x="824.777344"/>
      <use xlink:href="#DejaVuSans-64" x="864.140625"/>
      <use xlink:href="#DejaVuSans-65" x="927.617188"/>
     </g>
    </g>
   </g>
   <g id="line2d_13">
    <path d="M 43.78125 233.998125 
L 44.012059 32.398125 
L 274.128953 32.398125 
L 274.359762 233.998125 
L 274.359762 233.998125 
" clip-path="url(#p1afbbf375f)" style="fill: none; stroke-dasharray: 5.55,2.4; stroke-dashoffset: 0; stroke: #1f77b4; stroke-width: 1.5"/>
   </g>
   <g id="line2d_14">
    <path d="M 43.78125 217.870125 
L 45.627725 217.752761 
L 47.474199 217.400965 
L 49.320674 216.815629 
L 51.167148 215.998234 
L 53.013623 214.950848 
L 55.090907 213.500952 
L 57.168191 211.767991 
L 59.245475 209.757515 
L 61.553568 207.206036 
L 63.861661 204.330008 
L 66.400564 200.805134 
L 69.170275 196.547528 
L 71.939987 191.883324 
L 74.940508 186.402456 
L 78.171839 180.043285 
L 81.864788 172.257728 
L 86.019356 162.933163 
L 90.635542 152.010356 
L 96.636585 137.202459 
L 113.947284 94.102625 
L 118.56347 83.384031 
L 122.718038 74.29675 
L 126.410987 66.762138 
L 129.642318 60.651381 
L 132.642839 55.423528 
L 135.412551 51.01048 
L 138.182263 47.01946 
L 140.721165 43.751217 
L 143.029258 41.117604 
L 145.337352 38.81623 
L 147.414635 37.036606 
L 149.491919 35.539185 
L 151.569203 34.328764 
L 153.415678 33.496928 
L 155.262152 32.897038 
L 157.108627 32.530615 
L 158.955102 32.398584 
L 160.801576 32.50128 
L 162.648051 32.838443 
L 164.494525 33.40922 
L 166.341 34.212167 
L 168.187474 35.24525 
L 170.264758 36.679275 
L 172.342042 38.396648 
L 174.419326 40.391867 
L 176.727419 42.926843 
L 179.035513 45.786903 
L 181.574415 49.294906 
L 184.344127 53.535028 
L 187.113839 58.182805 
L 190.11436 63.647178 
L 193.34569 69.990223 
L 197.03864 77.759583 
L 200.962398 86.537864 
L 205.578585 97.421759 
L 211.348818 111.62159 
L 229.813563 157.535825 
L 234.42975 168.181026 
L 238.353508 176.700943 
L 242.046457 184.183336 
L 245.277788 190.242761 
L 248.278309 195.418596 
L 251.048021 199.780217 
L 253.817733 203.716835 
L 256.356635 206.93286 
L 258.664729 209.51727 
L 260.972822 211.767991 
L 263.050106 213.500952 
L 265.12739 214.950848 
L 267.204673 216.113034 
L 269.051148 216.901523 
L 270.897623 217.457736 
L 272.744097 217.780264 
L 274.359762 217.870125 
L 274.359762 217.870125 
" clip-path="url(#p1afbbf375f)" style="fill: none; stroke: #ff7f0e; stroke-width: 1.5; stroke-linecap: square"/>
   </g>
   <g id="line2d_15">
    <path d="M 43.78125 233.998125 
L 45.396915 233.90045 
L 47.24339 233.549876 
L 49.089864 232.945297 
L 50.936339 232.088243 
L 52.782814 230.980885 
L 54.629288 229.626024 
L 56.706572 227.810256 
L 58.783856 225.691418 
L 61.091949 222.989986 
L 63.400042 219.933478 
L 65.938945 216.175671 
L 68.477847 212.020854 
L 71.247559 207.058945 
L 74.24808 201.20993 
L 77.479411 194.403981 
L 80.941551 186.587102 
L 84.865309 177.15787 
L 89.250686 166.030381 
L 94.79011 151.325858 
L 104.714911 124.176013 
L 112.100809 104.288359 
L 117.178614 91.245668 
L 121.333182 81.160068 
L 125.026131 72.750572 
L 128.488271 65.420618 
L 131.488792 59.553382 
L 134.489313 54.178202 
L 137.259025 49.684352 
L 139.797928 45.98212 
L 142.106021 42.978136 
L 144.414114 40.330922 
L 146.491398 38.26215 
L 148.568682 36.497487 
L 150.645966 35.042584 
L 152.492441 34.013175 
L 154.338915 33.234816 
L 156.18539 32.70948 
L 158.031864 32.438495 
L 159.64753 32.410585 
L 161.263195 32.578003 
L 163.109669 33.008079 
L 164.956144 33.69175 
L 166.802618 34.627287 
L 168.649093 35.812321 
L 170.495568 37.243853 
L 172.572852 39.144432 
L 174.650135 41.346293 
L 176.958229 44.137551 
L 179.266322 47.280994 
L 181.805224 51.130679 
L 184.344127 55.37302 
L 187.113839 60.424951 
L 190.11436 66.364487 
L 193.34569 73.259101 
L 196.80783 81.160068 
L 200.731589 90.67004 
L 205.347775 102.471577 
L 211.118008 117.883669 
L 230.275182 169.602591 
L 234.891368 181.107581 
L 238.815127 190.298404 
L 242.277267 197.869622 
L 245.508597 204.41843 
L 248.509118 210.006366 
L 251.27883 214.709758 
L 253.817733 218.614114 
L 256.356635 222.109793 
L 258.664729 224.918934 
L 260.972822 227.365371 
L 263.050106 229.249024 
L 265.12739 230.824998 
L 266.973864 231.963461 
L 268.820339 232.851934 
L 270.666813 233.488169 
L 272.513288 233.870555 
L 274.359762 233.998125 
L 274.359762 233.998125 
" clip-path="url(#p1afbbf375f)" style="fill: none; stroke: #2ca02c; stroke-width: 1.5; stroke-linecap: square"/>
   </g>
   <g id="line2d_16">
    <path d="M 43.78125 233.998125 
L 158.955102 32.599927 
L 159.185911 32.599927 
L 274.359762 233.998125 
L 274.359762 233.998125 
" clip-path="url(#p1afbbf375f)" style="fill: none; stroke: #d62728; stroke-width: 1.5; stroke-linecap: square"/>
   </g>
   <g id="line2d_17">
    <path d="M 43.78125 233.998125 
L 46.550962 233.894559 
L 49.320674 233.581326 
L 52.090386 233.050899 
L 54.860097 232.29102 
L 57.629809 231.285115 
L 60.168712 230.129609 
L 62.707614 228.73241 
L 65.246517 227.073984 
L 67.785419 225.133777 
L 70.324322 222.890861 
L 72.863225 220.324606 
L 75.402127 217.415385 
L 77.94103 214.145274 
L 80.479932 210.498744 
L 83.018835 206.463337 
L 85.557737 202.030293 
L 88.327449 196.735603 
L 91.097161 190.96316 
L 94.097682 184.180201 
L 97.329013 176.283551 
L 100.791152 167.187832 
L 104.484102 156.840128 
L 108.869479 143.839225 
L 114.408902 126.660484 
L 126.410987 89.226552 
L 130.334746 77.805774 
L 133.796885 68.401251 
L 136.797407 60.893887 
L 139.336309 55.087195 
L 141.875212 49.841246 
L 144.183305 45.602738 
L 146.260589 42.250344 
L 148.107063 39.657312 
L 149.953538 37.44303 
L 151.569203 35.825719 
L 153.184868 34.514358 
L 154.800534 33.514431 
L 156.18539 32.908439 
L 157.570246 32.536227 
L 158.955102 32.398942 
L 160.339957 32.497011 
L 161.724813 32.830129 
L 163.109669 33.397268 
L 164.494525 34.196678 
L 166.110191 35.419562 
L 167.725856 36.950092 
L 169.341521 38.781882 
L 171.187996 41.234418 
L 173.03447 44.057187 
L 175.111754 47.65638 
L 177.419847 52.152807 
L 179.72794 57.136737 
L 182.266843 63.133459 
L 185.267364 70.837316 
L 188.498695 79.768631 
L 192.422453 91.308487 
L 197.500258 106.990125 
L 210.887199 148.706664 
L 215.272576 161.442959 
L 218.965525 171.510403 
L 222.427665 180.306498 
L 225.658996 187.900024 
L 228.659517 194.388186 
L 231.429229 199.88244 
L 234.19894 204.897662 
L 236.968652 209.437185 
L 239.507555 213.188681 
L 242.046457 216.56003 
L 244.58536 219.565986 
L 247.124262 222.223889 
L 249.663165 224.552972 
L 252.202068 226.573661 
L 254.74097 228.30687 
L 257.279873 229.773321 
L 259.818775 230.992888 
L 262.588487 232.063344 
L 265.358199 232.883018 
L 268.127911 233.469481 
L 270.897623 233.836117 
L 273.667334 233.991665 
L 274.359762 233.998125 
L 274.359762 233.998125 
" clip-path="url(#p1afbbf375f)" style="fill: none; stroke: #9467bd; stroke-width: 1.5; stroke-linecap: square"/>
   </g>
   <g id="line2d_18">
    <path d="M 43.78125 216.160451 
L 47.012581 211.99347 
L 50.47472 207.162262 
L 54.167669 201.602473 
L 57.860619 195.639831 
L 61.784377 188.887457 
L 65.938945 181.304209 
L 70.555131 172.408633 
L 75.632936 162.134519 
L 81.633979 149.475312 
L 89.943114 131.379875 
L 103.099246 102.722109 
L 109.100288 90.22706 
L 113.947284 80.633463 
L 118.332661 72.449099 
L 122.256419 65.599748 
L 125.718559 59.977126 
L 128.94989 55.120899 
L 132.18122 50.672569 
L 135.181741 46.93072 
L 137.951453 43.826416 
L 140.490356 41.288001 
L 143.029258 39.053339 
L 145.568161 37.130901 
L 147.876254 35.660342 
L 150.184347 34.458504 
L 152.261631 33.609756 
L 154.338915 32.983925 
L 156.416199 32.582613 
L 158.493483 32.406847 
L 160.570767 32.457077 
L 162.648051 32.733176 
L 164.725335 33.234436 
L 166.802618 33.959573 
L 168.879902 34.906731 
L 171.187996 36.21656 
L 173.496089 37.793357 
L 175.804182 39.632163 
L 178.343085 41.950556 
L 180.881987 44.570193 
L 183.651699 47.759893 
L 186.421411 51.282027 
L 189.421932 55.454577 
L 192.653263 60.338852 
L 196.115402 65.989122 
L 199.808351 72.449099 
L 203.962919 80.190107 
L 208.579106 89.291785 
L 213.88772 100.2762 
L 220.58119 114.667602 
L 241.584839 160.219305 
L 247.124262 171.494398 
L 251.971258 180.870677 
L 256.356635 188.887457 
L 260.511203 196.023911 
L 264.434962 202.319872 
L 268.127911 207.82801 
L 271.590051 212.609149 
L 274.359762 216.160451 
L 274.359762 216.160451 
" clip-path="url(#p1afbbf375f)" style="fill: none; stroke: #8c564b; stroke-width: 1.5; stroke-linecap: square"/>
   </g>
   <g id="patch_3">
    <path d="M 43.78125 244.078125 
L 43.78125 22.318125 
" style="fill: none; stroke: #000000; stroke-width: 0.8; stroke-linejoin: miter; stroke-linecap: square"/>
   </g>
   <g id="patch_4">
    <path d="M 285.888688 244.078125 
L 285.888688 22.318125 
" style="fill: none"/>
   </g>
   <g id="patch_5">
    <path d="M 32.252324 233.998125 
L 285.888688 233.998125 
" style="fill: none; stroke: #000000; stroke-width: 0.8; stroke-linejoin: miter; stroke-linecap: square"/>
   </g>
   <g id="patch_6">
    <path d="M 32.252324 22.318125 
L 285.888688 22.318125 
" style="fill: none"/>
   </g>
   <g id="text_8">
    <!-- N -->
    <g transform="translate(272.282479 248.110125) scale(0.1 -0.1)">
     <defs>
      <path id="DejaVuSans-4e" d="M 628 4666 
L 1478 4666 
L 3547 763 
L 3547 4666 
L 4159 4666 
L 4159 0 
L 3309 0 
L 1241 3903 
L 1241 0 
L 628 0 
L 628 4666 
z
" transform="scale(0.015625)"/>
     </defs>
     <use xlink:href="#DejaVuSans-4e"/>
    </g>
   </g>
   <g id="text_9">
    <!-- 0 -->
    <g transform="translate(41.473157 248.110125) scale(0.1 -0.1)">
     <use xlink:href="#DejaVuSans-30"/>
    </g>
   </g>
   <g id="text_10">
    <!-- Tijddomein -->
    <g transform="translate(125.964569 16.318125) scale(0.12 -0.12)">
     <defs>
      <path id="DejaVuSans-54" d="M -19 4666 
L 3928 4666 
L 3928 4134 
L 2272 4134 
L 2272 0 
L 1638 0 
L 1638 4134 
L -19 4134 
L -19 4666 
z
" transform="scale(0.015625)"/>
      <path id="DejaVuSans-6a" d="M 603 3500 
L 1178 3500 
L 1178 -63 
Q 1178 -731 923 -1031 
Q 669 -1331 103 -1331 
L -116 -1331 
L -116 -844 
L 38 -844 
Q 366 -844 484 -692 
Q 603 -541 603 -63 
L 603 3500 
z
M 603 4863 
L 1178 4863 
L 1178 4134 
L 603 4134 
L 603 4863 
z
" transform="scale(0.015625)"/>
      <path id="DejaVuSans-6f" d="M 1959 3097 
Q 1497 3097 1228 2736 
Q 959 2375 959 1747 
Q 959 1119 1226 758 
Q 1494 397 1959 397 
Q 2419 397 2687 759 
Q 2956 1122 2956 1747 
Q 2956 2369 2687 2733 
Q 2419 3097 1959 3097 
z
M 1959 3584 
Q 2709 3584 3137 3096 
Q 3566 2609 3566 1747 
Q 3566 888 3137 398 
Q 2709 -91 1959 -91 
Q 1206 -91 779 398 
Q 353 888 353 1747 
Q 353 2609 779 3096 
Q 1206 3584 1959 3584 
z
" transform="scale(0.015625)"/>
      <path id="DejaVuSans-6e" d="M 3513 2113 
L 3513 0 
L 2938 0 
L 2938 2094 
Q 2938 2591 2744 2837 
Q 2550 3084 2163 3084 
Q 1697 3084 1428 2787 
Q 1159 2491 1159 1978 
L 1159 0 
L 581 0 
L 581 3500 
L 1159 3500 
L 1159 2956 
Q 1366 3272 1645 3428 
Q 1925 3584 2291 3584 
Q 2894 3584 3203 3211 
Q 3513 2838 3513 2113 
z
" transform="scale(0.015625)"/>
     </defs>
     <use xlink:href="#DejaVuSans-54"/>
     <use xlink:href="#DejaVuSans-69" x="57.958984"/>
     <use xlink:href="#DejaVuSans-6a" x="85.742188"/>
     <use xlink:href="#DejaVuSans-64" x="113.525391"/>
     <use xlink:href="#DejaVuSans-64" x="177.001953"/>
     <use xlink:href="#DejaVuSans-6f" x="240.478516"/>
     <use xlink:href="#DejaVuSans-6d" x="301.660156"/>
     <use xlink:href="#DejaVuSans-65" x="399.072266"/>
     <use xlink:href="#DejaVuSans-69" x="460.595703"/>
     <use xlink:href="#DejaVuSans-6e" x="488.378906"/>
    </g>
   </g>
   <g id="legend_1">
    <g id="patch_7">
     <path d="M 102.709881 281.744625 
L 215.431131 281.744625 
Q 217.831131 281.744625 217.831131 279.344625 
L 217.831131 174.862125 
Q 217.831131 172.462125 215.431131 172.462125 
L 102.709881 172.462125 
Q 100.309881 172.462125 100.309881 174.862125 
L 100.309881 279.344625 
Q 100.309881 281.744625 102.709881 281.744625 
z
" style="fill: #ffffff; stroke: #cccccc; stroke-linejoin: miter"/>
    </g>
    <g id="line2d_19">
     <path d="M 105.109881 182.18025 
L 117.109881 182.18025 
L 129.109881 182.18025 
" style="fill: none; stroke-dasharray: 5.55,2.4; stroke-dashoffset: 0; stroke: #1f77b4; stroke-width: 1.5"/>
    </g>
    <g id="text_11">
     <!-- Rechthoekig -->
     <g transform="translate(138.709881 186.38025) scale(0.12 -0.12)">
      <defs>
       <path id="DejaVuSans-52" d="M 2841 2188 
Q 3044 2119 3236 1894 
Q 3428 1669 3622 1275 
L 4263 0 
L 3584 0 
L 2988 1197 
Q 2756 1666 2539 1819 
Q 2322 1972 1947 1972 
L 1259 1972 
L 1259 0 
L 628 0 
L 628 4666 
L 2053 4666 
Q 2853 4666 3247 4331 
Q 3641 3997 3641 3322 
Q 3641 2881 3436 2590 
Q 3231 2300 2841 2188 
z
M 1259 4147 
L 1259 2491 
L 2053 2491 
Q 2509 2491 2742 2702 
Q 2975 2913 2975 3322 
Q 2975 3731 2742 3939 
Q 2509 4147 2053 4147 
L 1259 4147 
z
" transform="scale(0.015625)"/>
       <path id="DejaVuSans-63" d="M 3122 3366 
L 3122 2828 
Q 2878 2963 2633 3030 
Q 2388 3097 2138 3097 
Q 1578 3097 1268 2742 
Q 959 2388 959 1747 
Q 959 1106 1268 751 
Q 1578 397 2138 397 
Q 2388 397 2633 464 
Q 2878 531 3122 666 
L 3122 134 
Q 2881 22 2623 -34 
Q 2366 -91 2075 -91 
Q 1284 -91 818 406 
Q 353 903 353 1747 
Q 353 2603 823 3093 
Q 1294 3584 2113 3584 
Q 2378 3584 2631 3529 
Q 2884 3475 3122 3366 
z
" transform="scale(0.015625)"/>
       <path id="DejaVuSans-68" d="M 3513 2113 
L 3513 0 
L 2938 0 
L 2938 2094 
Q 2938 2591 2744 2837 
Q 2550 3084 2163 3084 
Q 1697 3084 1428 2787 
Q 1159 2491 1159 1978 
L 1159 0 
L 581 0 
L 581 4863 
L 1159 4863 
L 1159 2956 
Q 1366 3272 1645 3428 
Q 1925 3584 2291 3584 
Q 2894 3584 3203 3211 
Q 3513 2838 3513 2113 
z
" transform="scale(0.015625)"/>
       <path id="DejaVuSans-6b" d="M 581 4863 
L 1159 4863 
L 1159 1991 
L 2875 3500 
L 3609 3500 
L 1753 1863 
L 3688 0 
L 2938 0 
L 1159 1709 
L 1159 0 
L 581 0 
L 581 4863 
z
" transform="scale(0.015625)"/>
       <path id="DejaVuSans-67" d="M 2906 1791 
Q 2906 2416 2648 2759 
Q 2391 3103 1925 3103 
Q 1463 3103 1205 2759 
Q 947 2416 947 1791 
Q 947 1169 1205 825 
Q 1463 481 1925 481 
Q 2391 481 2648 825 
Q 2906 1169 2906 1791 
z
M 3481 434 
Q 3481 -459 3084 -895 
Q 2688 -1331 1869 -1331 
Q 1566 -1331 1297 -1286 
Q 1028 -1241 775 -1147 
L 775 -588 
Q 1028 -725 1275 -790 
Q 1522 -856 1778 -856 
Q 2344 -856 2625 -561 
Q 2906 -266 2906 331 
L 2906 616 
Q 2728 306 2450 153 
Q 2172 0 1784 0 
Q 1141 0 747 490 
Q 353 981 353 1791 
Q 353 2603 747 3093 
Q 1141 3584 1784 3584 
Q 2172 3584 2450 3431 
Q 2728 3278 2906 2969 
L 2906 3500 
L 3481 3500 
L 3481 434 
z
" transform="scale(0.015625)"/>
      </defs>
      <use xlink:href="#DejaVuSans-52"/>
      <use xlink:href="#DejaVuSans-65" x="64.982422"/>
      <use xlink:href="#DejaVuSans-63" x="126.505859"/>
      <use xlink:href="#DejaVuSans-68" x="181.486328"/>
      <use xlink:href="#DejaVuSans-74" x="244.865234"/>
      <use xlink:href="#DejaVuSans-68" x="284.074219"/>
      <use xlink:href="#DejaVuSans-6f" x="347.453125"/>
      <use xlink:href="#DejaVuSans-65" x="408.634766"/>
      <use xlink:href="#DejaVuSans-6b" x="470.158203"/>
      <use xlink:href="#DejaVuSans-69" x="528.068359"/>
      <use xlink:href="#DejaVuSans-67" x="555.851562"/>
     </g>
    </g>
    <g id="line2d_20">
     <path d="M 105.109881 199.794 
L 117.109881 199.794 
L 129.109881 199.794 
" style="fill: none; stroke: #ff7f0e; stroke-width: 1.5; stroke-linecap: square"/>
    </g>
    <g id="text_12">
     <!-- Hamming -->
     <g transform="translate(138.709881 203.994) scale(0.12 -0.12)">
      <defs>
       <path id="DejaVuSans-48" d="M 628 4666 
L 1259 4666 
L 1259 2753 
L 3553 2753 
L 3553 4666 
L 4184 4666 
L 4184 0 
L 3553 0 
L 3553 2222 
L 1259 2222 
L 1259 0 
L 628 0 
L 628 4666 
z
" transform="scale(0.015625)"/>
      </defs>
      <use xlink:href="#DejaVuSans-48"/>
      <use xlink:href="#DejaVuSans-61" x="75.195312"/>
      <use xlink:href="#DejaVuSans-6d" x="136.474609"/>
      <use xlink:href="#DejaVuSans-6d" x="233.886719"/>
      <use xlink:href="#DejaVuSans-69" x="331.298828"/>
      <use xlink:href="#DejaVuSans-6e" x="359.082031"/>
      <use xlink:href="#DejaVuSans-67" x="422.460938"/>
     </g>
    </g>
    <g id="line2d_21">
     <path d="M 105.109881 217.40775 
L 117.109881 217.40775 
L 129.109881 217.40775 
" style="fill: none; stroke: #2ca02c; stroke-width: 1.5; stroke-linecap: square"/>
    </g>
    <g id="text_13">
     <!-- Hanning -->
     <g transform="translate(138.709881 221.60775) scale(0.12 -0.12)">
      <use xlink:href="#DejaVuSans-48"/>
      <use xlink:href="#DejaVuSans-61" x="75.195312"/>
      <use xlink:href="#DejaVuSans-6e" x="136.474609"/>
      <use xlink:href="#DejaVuSans-6e" x="199.853516"/>
      <use xlink:href="#DejaVuSans-69" x="263.232422"/>
      <use xlink:href="#DejaVuSans-6e" x="291.015625"/>
      <use xlink:href="#DejaVuSans-67" x="354.394531"/>
     </g>
    </g>
    <g id="line2d_22">
     <path d="M 105.109881 235.0215 
L 117.109881 235.0215 
L 129.109881 235.0215 
" style="fill: none; stroke: #d62728; stroke-width: 1.5; stroke-linecap: square"/>
    </g>
    <g id="text_14">
     <!-- Bartlett -->
     <g transform="translate(138.709881 239.2215) scale(0.12 -0.12)">
      <defs>
       <path id="DejaVuSans-42" d="M 1259 2228 
L 1259 519 
L 2272 519 
Q 2781 519 3026 730 
Q 3272 941 3272 1375 
Q 3272 1813 3026 2020 
Q 2781 2228 2272 2228 
L 1259 2228 
z
M 1259 4147 
L 1259 2741 
L 2194 2741 
Q 2656 2741 2882 2914 
Q 3109 3088 3109 3444 
Q 3109 3797 2882 3972 
Q 2656 4147 2194 4147 
L 1259 4147 
z
M 628 4666 
L 2241 4666 
Q 2963 4666 3353 4366 
Q 3744 4066 3744 3513 
Q 3744 3084 3544 2831 
Q 3344 2578 2956 2516 
Q 3422 2416 3680 2098 
Q 3938 1781 3938 1306 
Q 3938 681 3513 340 
Q 3088 0 2303 0 
L 628 0 
L 628 4666 
z
" transform="scale(0.015625)"/>
      </defs>
      <use xlink:href="#DejaVuSans-42"/>
      <use xlink:href="#DejaVuSans-61" x="68.603516"/>
      <use xlink:href="#DejaVuSans-72" x="129.882812"/>
      <use xlink:href="#DejaVuSans-74" x="170.996094"/>
      <use xlink:href="#DejaVuSans-6c" x="210.205078"/>
      <use xlink:href="#DejaVuSans-65" x="237.988281"/>
      <use xlink:href="#DejaVuSans-74" x="299.511719"/>
      <use xlink:href="#DejaVuSans-74" x="338.720703"/>
     </g>
    </g>
    <g id="line2d_23">
     <path d="M 105.109881 252.63525 
L 117.109881 252.63525 
L 129.109881 252.63525 
" style="fill: none; stroke: #9467bd; stroke-width: 1.5; stroke-linecap: square"/>
    </g>
    <g id="text_15">
     <!-- Blackman -->
     <g transform="translate(138.709881 256.83525) scale(0.12 -0.12)">
      <use xlink:href="#DejaVuSans-42"/>
      <use xlink:href="#DejaVuSans-6c" x="68.603516"/>
      <use xlink:href="#DejaVuSans-61" x="96.386719"/>
      <use xlink:href="#DejaVuSans-63" x="157.666016"/>
      <use xlink:href="#DejaVuSans-6b" x="212.646484"/>
      <use xlink:href="#DejaVuSans-6d" x="270.556641"/>
      <use xlink:href="#DejaVuSans-61" x="367.96875"/>
      <use xlink:href="#DejaVuSans-6e" x="429.248047"/>
     </g>
    </g>
    <g id="line2d_24">
     <path d="M 105.109881 270.249 
L 117.109881 270.249 
L 129.109881 270.249 
" style="fill: none; stroke: #8c564b; stroke-width: 1.5; stroke-linecap: square"/>
    </g>
    <g id="text_16">
     <!-- Kaiser -->
     <g transform="translate(138.709881 274.449) scale(0.12 -0.12)">
      <defs>
       <path id="DejaVuSans-4b" d="M 628 4666 
L 1259 4666 
L 1259 2694 
L 3353 4666 
L 4166 4666 
L 1850 2491 
L 4331 0 
L 3500 0 
L 1259 2247 
L 1259 0 
L 628 0 
L 628 4666 
z
" transform="scale(0.015625)"/>
       <path id="DejaVuSans-73" d="M 2834 3397 
L 2834 2853 
Q 2591 2978 2328 3040 
Q 2066 3103 1784 3103 
Q 1356 3103 1142 2972 
Q 928 2841 928 2578 
Q 928 2378 1081 2264 
Q 1234 2150 1697 2047 
L 1894 2003 
Q 2506 1872 2764 1633 
Q 3022 1394 3022 966 
Q 3022 478 2636 193 
Q 2250 -91 1575 -91 
Q 1294 -91 989 -36 
Q 684 19 347 128 
L 347 722 
Q 666 556 975 473 
Q 1284 391 1588 391 
Q 1994 391 2212 530 
Q 2431 669 2431 922 
Q 2431 1156 2273 1281 
Q 2116 1406 1581 1522 
L 1381 1569 
Q 847 1681 609 1914 
Q 372 2147 372 2553 
Q 372 3047 722 3315 
Q 1072 3584 1716 3584 
Q 2034 3584 2315 3537 
Q 2597 3491 2834 3397 
z
" transform="scale(0.015625)"/>
      </defs>
      <use xlink:href="#DejaVuSans-4b"/>
      <use xlink:href="#DejaVuSans-61" x="63.826172"/>
      <use xlink:href="#DejaVuSans-69" x="125.105469"/>
      <use xlink:href="#DejaVuSans-73" x="152.888672"/>
      <use xlink:href="#DejaVuSans-65" x="204.988281"/>
      <use xlink:href="#DejaVuSans-72" x="266.511719"/>
     </g>
    </g>
   </g>
  </g>
  <g id="axes_2">
   <g id="patch_8">
    <path d="M 336.615961 244.078125 
L 590.252324 244.078125 
L 590.252324 22.318125 
L 336.615961 22.318125 
z
" style="fill: #ffffff"/>
   </g>
   <g id="matplotlib.axis_3">
    <g id="xtick_7">
     <g id="line2d_25">
      <g>
       <use xlink:href="#ma30b58117a" x="336.615961" y="244.078125" style="stroke: #000000; stroke-width: 0.8"/>
      </g>
     </g>
     <g id="text_17">
      <!-- 0.000 -->
      <g transform="translate(322.301898 258.676563) scale(0.1 -0.1)">
       <use xlink:href="#DejaVuSans-30"/>
       <use xlink:href="#DejaVuSans-2e" x="63.623047"/>
       <use xlink:href="#DejaVuSans-30" x="95.410156"/>
       <use xlink:href="#DejaVuSans-30" x="159.033203"/>
       <use xlink:href="#DejaVuSans-30" x="222.65625"/>
      </g>
     </g>
    </g>
    <g id="xtick_8">
     <g id="line2d_26">
      <g>
       <use xlink:href="#ma30b58117a" x="387.343233" y="244.078125" style="stroke: #000000; stroke-width: 0.8"/>
      </g>
     </g>
     <g id="text_18">
      <!-- 0.002 -->
      <g transform="translate(373.029171 258.676563) scale(0.1 -0.1)">
       <use xlink:href="#DejaVuSans-30"/>
       <use xlink:href="#DejaVuSans-2e" x="63.623047"/>
       <use xlink:href="#DejaVuSans-30" x="95.410156"/>
       <use xlink:href="#DejaVuSans-30" x="159.033203"/>
       <use xlink:href="#DejaVuSans-32" x="222.65625"/>
      </g>
     </g>
    </g>
    <g id="xtick_9">
     <g id="line2d_27">
      <g>
       <use xlink:href="#ma30b58117a" x="438.070506" y="244.078125" style="stroke: #000000; stroke-width: 0.8"/>
      </g>
     </g>
     <g id="text_19">
      <!-- 0.004 -->
      <g transform="translate(423.756444 258.676563) scale(0.1 -0.1)">
       <use xlink:href="#DejaVuSans-30"/>
       <use xlink:href="#DejaVuSans-2e" x="63.623047"/>
       <use xlink:href="#DejaVuSans-30" x="95.410156"/>
       <use xlink:href="#DejaVuSans-30" x="159.033203"/>
       <use xlink:href="#DejaVuSans-34" x="222.65625"/>
      </g>
     </g>
    </g>
    <g id="xtick_10">
     <g id="line2d_28">
      <g>
       <use xlink:href="#ma30b58117a" x="488.797779" y="244.078125" style="stroke: #000000; stroke-width: 0.8"/>
      </g>
     </g>
     <g id="text_20">
      <!-- 0.006 -->
      <g transform="translate(474.483716 258.676563) scale(0.1 -0.1)">
       <use xlink:href="#DejaVuSans-30"/>
       <use xlink:href="#DejaVuSans-2e" x="63.623047"/>
       <use xlink:href="#DejaVuSans-30" x="95.410156"/>
       <use xlink:href="#DejaVuSans-30" x="159.033203"/>
       <use xlink:href="#DejaVuSans-36" x="222.65625"/>
      </g>
     </g>
    </g>
    <g id="xtick_11">
     <g id="line2d_29">
      <g>
       <use xlink:href="#ma30b58117a" x="539.525052" y="244.078125" style="stroke: #000000; stroke-width: 0.8"/>
      </g>
     </g>
     <g id="text_21">
      <!-- 0.008 -->
      <g transform="translate(525.210989 258.676563) scale(0.1 -0.1)">
       <use xlink:href="#DejaVuSans-30"/>
       <use xlink:href="#DejaVuSans-2e" x="63.623047"/>
       <use xlink:href="#DejaVuSans-30" x="95.410156"/>
       <use xlink:href="#DejaVuSans-30" x="159.033203"/>
       <use xlink:href="#DejaVuSans-38" x="222.65625"/>
      </g>
     </g>
    </g>
    <g id="xtick_12">
     <g id="line2d_30">
      <g>
       <use xlink:href="#ma30b58117a" x="590.252324" y="244.078125" style="stroke: #000000; stroke-width: 0.8"/>
      </g>
     </g>
     <g id="text_22">
      <!-- 0.010 -->
      <g transform="translate(575.938262 258.676563) scale(0.1 -0.1)">
       <use xlink:href="#DejaVuSans-30"/>
       <use xlink:href="#DejaVuSans-2e" x="63.623047"/>
       <use xlink:href="#DejaVuSans-30" x="95.410156"/>
       <use xlink:href="#DejaVuSans-31" x="159.033203"/>
       <use xlink:href="#DejaVuSans-30" x="222.65625"/>
      </g>
     </g>
    </g>
    <g id="text_23">
     <!-- Genormaliseerde frequentie -->
     <g transform="translate(393.215393 272.354688) scale(0.1 -0.1)">
      <defs>
       <path id="DejaVuSans-47" d="M 3809 666 
L 3809 1919 
L 2778 1919 
L 2778 2438 
L 4434 2438 
L 4434 434 
Q 4069 175 3628 42 
Q 3188 -91 2688 -91 
Q 1594 -91 976 548 
Q 359 1188 359 2328 
Q 359 3472 976 4111 
Q 1594 4750 2688 4750 
Q 3144 4750 3555 4637 
Q 3966 4525 4313 4306 
L 4313 3634 
Q 3963 3931 3569 4081 
Q 3175 4231 2741 4231 
Q 1884 4231 1454 3753 
Q 1025 3275 1025 2328 
Q 1025 1384 1454 906 
Q 1884 428 2741 428 
Q 3075 428 3337 486 
Q 3600 544 3809 666 
z
" transform="scale(0.015625)"/>
       <path id="DejaVuSans-66" d="M 2375 4863 
L 2375 4384 
L 1825 4384 
Q 1516 4384 1395 4259 
Q 1275 4134 1275 3809 
L 1275 3500 
L 2222 3500 
L 2222 3053 
L 1275 3053 
L 1275 0 
L 697 0 
L 697 3053 
L 147 3053 
L 147 3500 
L 697 3500 
L 697 3744 
Q 697 4328 969 4595 
Q 1241 4863 1831 4863 
L 2375 4863 
z
" transform="scale(0.015625)"/>
       <path id="DejaVuSans-71" d="M 947 1747 
Q 947 1113 1208 752 
Q 1469 391 1925 391 
Q 2381 391 2643 752 
Q 2906 1113 2906 1747 
Q 2906 2381 2643 2742 
Q 2381 3103 1925 3103 
Q 1469 3103 1208 2742 
Q 947 2381 947 1747 
z
M 2906 525 
Q 2725 213 2448 61 
Q 2172 -91 1784 -91 
Q 1150 -91 751 415 
Q 353 922 353 1747 
Q 353 2572 751 3078 
Q 1150 3584 1784 3584 
Q 2172 3584 2448 3432 
Q 2725 3281 2906 2969 
L 2906 3500 
L 3481 3500 
L 3481 -1331 
L 2906 -1331 
L 2906 525 
z
" transform="scale(0.015625)"/>
      </defs>
      <use xlink:href="#DejaVuSans-47"/>
      <use xlink:href="#DejaVuSans-65" x="77.490234"/>
      <use xlink:href="#DejaVuSans-6e" x="139.013672"/>
      <use xlink:href="#DejaVuSans-6f" x="202.392578"/>
      <use xlink:href="#DejaVuSans-72" x="263.574219"/>
      <use xlink:href="#DejaVuSans-6d" x="302.9375"/>
      <use xlink:href="#DejaVuSans-61" x="400.349609"/>
      <use xlink:href="#DejaVuSans-6c" x="461.628906"/>
      <use xlink:href="#DejaVuSans-69" x="489.412109"/>
      <use xlink:href="#DejaVuSans-73" x="517.195312"/>
      <use xlink:href="#DejaVuSans-65" x="569.294922"/>
      <use xlink:href="#DejaVuSans-65" x="630.818359"/>
      <use xlink:href="#DejaVuSans-72" x="692.341797"/>
      <use xlink:href="#DejaVuSans-64" x="731.705078"/>
      <use xlink:href="#DejaVuSans-65" x="795.181641"/>
      <use xlink:href="#DejaVuSans-20" x="856.705078"/>
      <use xlink:href="#DejaVuSans-66" x="888.492188"/>
      <use xlink:href="#DejaVuSans-72" x="923.697266"/>
      <use xlink:href="#DejaVuSans-65" x="962.560547"/>
      <use xlink:href="#DejaVuSans-71" x="1024.083984"/>
      <use xlink:href="#DejaVuSans-75" x="1087.560547"/>
      <use xlink:href="#DejaVuSans-65" x="1150.939453"/>
      <use xlink:href="#DejaVuSans-6e" x="1212.462891"/>
      <use xlink:href="#DejaVuSans-74" x="1275.841797"/>
      <use xlink:href="#DejaVuSans-69" x="1315.050781"/>
      <use xlink:href="#DejaVuSans-65" x="1342.833984"/>
     </g>
    </g>
   </g>
   <g id="matplotlib.axis_4">
    <g id="ytick_7">
     <g id="line2d_31">
      <g>
       <use xlink:href="#m4efd41cf82" x="336.615961" y="244.078125" style="stroke: #000000; stroke-width: 0.8"/>
      </g>
     </g>
     <g id="text_24">
      <!-- −50 -->
      <g transform="translate(308.511273 247.877344) scale(0.1 -0.1)">
       <defs>
        <path id="DejaVuSans-2212" d="M 678 2272 
L 4684 2272 
L 4684 1741 
L 678 1741 
L 678 2272 
z
" transform="scale(0.015625)"/>
        <path id="DejaVuSans-35" d="M 691 4666 
L 3169 4666 
L 3169 4134 
L 1269 4134 
L 1269 2991 
Q 1406 3038 1543 3061 
Q 1681 3084 1819 3084 
Q 2600 3084 3056 2656 
Q 3513 2228 3513 1497 
Q 3513 744 3044 326 
Q 2575 -91 1722 -91 
Q 1428 -91 1123 -41 
Q 819 9 494 109 
L 494 744 
Q 775 591 1075 516 
Q 1375 441 1709 441 
Q 2250 441 2565 725 
Q 2881 1009 2881 1497 
Q 2881 1984 2565 2268 
Q 2250 2553 1709 2553 
Q 1456 2553 1204 2497 
Q 953 2441 691 2322 
L 691 4666 
z
" transform="scale(0.015625)"/>
       </defs>
       <use xlink:href="#DejaVuSans-2212"/>
       <use xlink:href="#DejaVuSans-35" x="83.789062"/>
       <use xlink:href="#DejaVuSans-30" x="147.412109"/>
      </g>
     </g>
    </g>
    <g id="ytick_8">
     <g id="line2d_32">
      <g>
       <use xlink:href="#m4efd41cf82" x="336.615961" y="202.236616" style="stroke: #000000; stroke-width: 0.8"/>
      </g>
     </g>
     <g id="text_25">
      <!-- −40 -->
      <g transform="translate(308.511273 206.035834) scale(0.1 -0.1)">
       <use xlink:href="#DejaVuSans-2212"/>
       <use xlink:href="#DejaVuSans-34" x="83.789062"/>
       <use xlink:href="#DejaVuSans-30" x="147.412109"/>
      </g>
     </g>
    </g>
    <g id="ytick_9">
     <g id="line2d_33">
      <g>
       <use xlink:href="#m4efd41cf82" x="336.615961" y="160.395106" style="stroke: #000000; stroke-width: 0.8"/>
      </g>
     </g>
     <g id="text_26">
      <!-- −30 -->
      <g transform="translate(308.511273 164.194325) scale(0.1 -0.1)">
       <defs>
        <path id="DejaVuSans-33" d="M 2597 2516 
Q 3050 2419 3304 2112 
Q 3559 1806 3559 1356 
Q 3559 666 3084 287 
Q 2609 -91 1734 -91 
Q 1441 -91 1130 -33 
Q 819 25 488 141 
L 488 750 
Q 750 597 1062 519 
Q 1375 441 1716 441 
Q 2309 441 2620 675 
Q 2931 909 2931 1356 
Q 2931 1769 2642 2001 
Q 2353 2234 1838 2234 
L 1294 2234 
L 1294 2753 
L 1863 2753 
Q 2328 2753 2575 2939 
Q 2822 3125 2822 3475 
Q 2822 3834 2567 4026 
Q 2313 4219 1838 4219 
Q 1578 4219 1281 4162 
Q 984 4106 628 3988 
L 628 4550 
Q 988 4650 1302 4700 
Q 1616 4750 1894 4750 
Q 2613 4750 3031 4423 
Q 3450 4097 3450 3541 
Q 3450 3153 3228 2886 
Q 3006 2619 2597 2516 
z
" transform="scale(0.015625)"/>
       </defs>
       <use xlink:href="#DejaVuSans-2212"/>
       <use xlink:href="#DejaVuSans-33" x="83.789062"/>
       <use xlink:href="#DejaVuSans-30" x="147.412109"/>
      </g>
     </g>
    </g>
    <g id="ytick_10">
     <g id="line2d_34">
      <g>
       <use xlink:href="#m4efd41cf82" x="336.615961" y="118.553597" style="stroke: #000000; stroke-width: 0.8"/>
      </g>
     </g>
     <g id="text_27">
      <!-- −20 -->
      <g transform="translate(308.511273 122.352815) scale(0.1 -0.1)">
       <use xlink:href="#DejaVuSans-2212"/>
       <use xlink:href="#DejaVuSans-32" x="83.789062"/>
       <use xlink:href="#DejaVuSans-30" x="147.412109"/>
      </g>
     </g>
    </g>
    <g id="ytick_11">
     <g id="line2d_35">
      <g>
       <use xlink:href="#m4efd41cf82" x="336.615961" y="76.712087" style="stroke: #000000; stroke-width: 0.8"/>
      </g>
     </g>
     <g id="text_28">
      <!-- −10 -->
      <g transform="translate(308.511273 80.511306) scale(0.1 -0.1)">
       <use xlink:href="#DejaVuSans-2212"/>
       <use xlink:href="#DejaVuSans-31" x="83.789062"/>
       <use xlink:href="#DejaVuSans-30" x="147.412109"/>
      </g>
     </g>
    </g>
    <g id="ytick_12">
     <g id="line2d_36">
      <g>
       <use xlink:href="#m4efd41cf82" x="336.615961" y="34.870578" style="stroke: #000000; stroke-width: 0.8"/>
      </g>
     </g>
     <g id="text_29">
      <!-- 0 -->
      <g transform="translate(323.253461 38.669797) scale(0.1 -0.1)">
       <use xlink:href="#DejaVuSans-30"/>
      </g>
     </g>
    </g>
    <g id="text_30">
     <!-- dB -->
     <g transform="translate(302.431586 139.802813) rotate(-90) scale(0.1 -0.1)">
      <use xlink:href="#DejaVuSans-64"/>
      <use xlink:href="#DejaVuSans-42" x="63.476562"/>
     </g>
    </g>
   </g>
   <g id="line2d_37">
    <path d="M 336.615961 34.906957 
L 339.177944 35.205654 
L 341.739928 36.113828 
L 344.301911 37.670167 
L 346.863895 39.948446 
L 349.425878 43.076612 
L 351.987862 47.279346 
L 354.549845 52.984124 
L 357.111829 61.14838 
L 359.673812 74.784152 
L 362.235795 147.799646 
L 364.797779 79.135028 
L 367.359762 68.831421 
L 369.921746 64.39955 
L 372.483729 62.750834 
L 375.045713 63.040743 
L 377.607696 65.066227 
L 380.16968 69.02607 
L 382.731663 75.729669 
L 385.293647 88.020937 
L 387.85563 147.799915 
L 390.417614 91.248954 
L 392.979597 80.006471 
L 395.541581 74.852062 
L 398.103564 72.583726 
L 400.665548 72.324545 
L 403.227531 73.853086 
L 405.789514 77.351953 
L 408.351498 83.605845 
L 410.913481 95.370579 
L 413.475465 147.800364 
L 416.037448 98.69795 
L 418.599432 86.977957 
L 421.161415 81.498125 
L 423.723399 78.952232 
L 426.285382 78.440735 
L 428.847366 79.731671 
L 431.409349 82.997772 
L 433.971333 89.004415 
L 436.533316 100.426546 
L 439.0953 147.800992 
L 441.657283 104.158705 
L 444.219267 92.084277 
L 446.78125 86.394961 
L 449.343233 83.677366 
L 451.905217 83.010136 
L 454.4672 84.151805 
L 457.029184 87.266256 
L 459.591167 93.100759 
L 462.153151 104.253159 
L 464.715134 147.801799 
L 467.277118 108.513787 
L 469.839101 96.132292 
L 472.401085 90.282527 
L 474.963068 87.439527 
L 477.525052 86.65992 
L 480.087035 87.692935 
L 482.649019 90.693917 
L 485.211002 96.392637 
L 487.772986 107.312943 
L 490.334969 147.802785 
L 492.896952 112.165647 
L 495.458936 99.49776 
L 498.020919 93.512487 
L 500.582903 90.568338 
L 503.144886 89.699497 
L 505.70687 90.645893 
L 508.268853 93.554477 
L 510.830837 99.137972 
L 513.39282 109.849063 
L 515.954804 147.803951 
L 518.516787 115.332089 
L 521.078771 102.386508 
L 523.640754 96.279847 
L 526.202738 93.248758 
L 528.764721 92.304466 
L 531.326705 93.17754 
L 533.888688 96.006632 
L 536.450671 101.487808 
L 539.012655 112.005242 
L 541.574638 147.805296 
L 544.136622 118.144491 
L 546.698605 104.923607 
L 549.260589 98.70409 
L 551.822572 95.59503 
L 554.384556 94.584138 
L 556.946539 95.392538 
L 559.508523 98.150653 
L 562.070506 103.538251 
L 564.63249 113.873507 
L 567.194473 147.806821 
L 569.756457 120.688335 
L 572.31844 107.19078 
L 574.880424 100.863751 
L 577.442407 97.682691 
L 580.00439 96.611204 
L 582.566374 97.360875 
L 585.128357 100.053952 
L 587.690341 105.354252 
L 590.252324 115.516326 
" clip-path="url(#pfd61441320)" style="fill: none; stroke-dasharray: 5.55,2.4; stroke-dashoffset: 0; stroke: #1f77b4; stroke-width: 1.5"/>
   </g>
   <g id="line2d_38">
    <path d="M 336.615961 34.785905 
L 339.177944 34.929938 
L 341.739928 35.363175 
L 344.301911 36.089076 
L 346.863895 37.113563 
L 349.425878 38.445272 
L 351.987862 40.095934 
L 354.549845 42.080942 
L 357.111829 44.42016 
L 359.673812 47.139088 
L 362.235795 50.270583 
L 364.797779 53.857431 
L 367.359762 57.956374 
L 369.921746 62.644675 
L 372.483729 68.031501 
L 375.045713 74.27925 
L 377.607696 81.647883 
L 380.16968 90.601689 
L 382.731663 102.131507 
L 385.293647 119.223948 
L 387.85563 183.123715 
L 390.417614 132.748297 
L 392.979597 127.334673 
L 395.541581 129.047123 
L 398.103564 135.633563 
L 400.665548 149.166177 
L 403.227531 212.807456 
L 405.789514 158.498449 
L 408.351498 153.444537 
L 410.913481 160.159541 
L 413.475465 200.954626 
L 416.037448 151.206502 
L 418.599432 138.408576 
L 421.161415 131.505663 
L 423.723399 127.680776 
L 426.285382 126.079371 
L 428.847366 126.46633 
L 431.409349 129.022485 
L 433.971333 134.58494 
L 436.533316 146.264155 
L 439.0953 212.379744 
L 441.657283 145.077896 
L 444.219267 133.554042 
L 446.78125 127.801196 
L 449.343233 124.9115 
L 451.905217 124.064967 
L 454.4672 125.063295 
L 457.029184 128.114726 
L 459.591167 134.070789 
L 462.153151 146.015838 
L 464.715134 220.921611 
L 467.277118 145.707538 
L 469.839101 134.313317 
L 472.401085 128.711763 
L 474.963068 125.960035 
L 477.525052 125.233927 
L 480.087035 126.335288 
L 482.649019 129.472758 
L 485.211002 135.495914 
L 487.772986 147.472103 
L 490.334969 227.778433 
L 492.896952 147.416228 
L 495.458936 136.028659 
L 498.020919 130.450574 
L 500.582903 127.722293 
L 503.144886 127.016603 
L 505.70687 128.134469 
L 508.268853 131.283845 
L 510.830837 137.312405 
L 513.39282 149.277173 
L 515.954804 233.518636 
L 518.516787 149.315971 
L 521.078771 137.910808 
L 523.640754 132.326776 
L 526.202738 129.594213 
L 528.764721 128.88394 
L 531.326705 129.996196 
L 533.888688 133.138321 
L 536.450671 139.156586 
L 539.012655 151.101114 
L 541.574638 238.460719 
L 544.136622 151.179369 
L 546.698605 139.752398 
L 549.260589 134.154914 
L 551.822572 131.410593 
L 554.384556 130.688892 
L 556.946539 131.789504 
L 559.508523 134.919289 
L 562.070506 140.92348 
L 564.63249 152.847243 
L 567.194473 242.802383 
L 569.756457 152.942042 
L 572.31844 141.494128 
L 574.880424 135.881949 
L 577.442407 133.124386 
L 580.00439 132.389896 
L 582.566374 133.477757 
L 585.128357 136.594458 
L 587.690341 142.584433 
L 590.252324 154.489108 
" clip-path="url(#pfd61441320)" style="fill: none; stroke: #ff7f0e; stroke-width: 1.5; stroke-linecap: square"/>
   </g>
   <g id="line2d_39">
    <path d="M 336.615961 34.931855 
L 339.177944 35.04889 
L 341.739928 35.400894 
L 344.301911 35.990608 
L 346.863895 36.822729 
L 349.425878 37.904127 
L 351.987862 39.244174 
L 354.549845 40.85523 
L 357.111829 42.753349 
L 359.673812 44.959314 
L 362.235795 47.500166 
L 364.797779 50.411544 
L 367.359762 53.741391 
L 369.921746 57.556094 
L 372.483729 61.951323 
L 375.045713 67.07266 
L 377.607696 73.159236 
L 380.16968 80.650532 
L 382.731663 90.514092 
L 385.293647 105.770634 
L 387.85563 180.353298 
L 390.417614 113.154597 
L 392.979597 104.276482 
L 395.541581 101.215849 
L 398.103564 100.888846 
L 400.665548 102.455403 
L 403.227531 105.717152 
L 405.789514 110.878885 
L 408.351498 118.761516 
L 410.913481 132.253977 
L 413.475465 198.184208 
L 416.037448 137.249623 
L 418.599432 127.126644 
L 421.161415 123.000618 
L 423.723399 121.720986 
L 426.285382 122.423114 
L 428.847366 124.892592 
L 431.409349 129.320457 
L 433.971333 136.510419 
L 436.533316 149.302186 
L 439.0953 209.609327 
L 441.657283 153.557916 
L 444.219267 142.840102 
L 446.78125 138.214301 
L 449.343233 136.477624 
L 451.905217 136.752658 
L 454.4672 138.818296 
L 457.029184 142.859296 
L 459.591167 149.668306 
L 462.153151 162.041575 
L 464.715134 218.151194 
L 467.277118 166.043575 
L 469.839101 154.940583 
L 472.401085 150.008055 
L 474.963068 147.991746 
L 477.525052 148.003095 
L 480.087035 149.815779 
L 482.649019 153.609597 
L 485.211002 160.167366 
L 487.772986 172.243698 
L 490.334969 225.008015 
L 492.896952 176.208978 
L 495.458936 164.817012 
L 498.020919 159.669 
L 500.582903 157.45879 
L 503.144886 157.287019 
L 505.70687 158.922558 
L 508.268853 162.540644 
L 510.830837 168.914709 
L 513.39282 180.758843 
L 515.954804 230.748219 
L 518.516787 184.804769 
L 521.078771 173.176115 
L 523.640754 167.863434 
L 526.202738 165.507731 
L 528.764721 165.198897 
L 531.326705 166.701131 
L 533.888688 170.185272 
L 536.450671 176.415607 
L 539.012655 188.066604 
L 541.574638 235.690302 
L 544.136622 192.264405 
L 546.698605 180.430465 
L 549.260589 174.98442 
L 551.822572 172.513365 
L 554.384556 172.09639 
L 556.946539 173.493074 
L 559.508523 176.869941 
L 562.070506 182.98229 
L 564.63249 194.465795 
L 567.194473 240.031966 
L 569.756457 198.862233 
L 572.31844 186.843116 
L 574.880424 181.284376 
L 577.442407 178.718045 
L 580.00439 178.212325 
L 582.566374 179.522188 
L 585.128357 182.809892 
L 587.690341 188.821877 
L 590.252324 200.155793 
" clip-path="url(#pfd61441320)" style="fill: none; stroke: #2ca02c; stroke-width: 1.5; stroke-linecap: square"/>
   </g>
   <g id="line2d_40">
    <path d="M 336.615961 34.931873 
L 339.177944 35.081152 
L 341.739928 35.530467 
L 344.301911 36.284333 
L 346.863895 37.350515 
L 349.425878 38.740421 
L 351.987862 40.46972 
L 354.549845 42.55924 
L 357.111829 45.036299 
L 359.673812 47.936657 
L 362.235795 51.307427 
L 364.797779 55.211576 
L 367.359762 59.735081 
L 369.921746 64.998916 
L 372.483729 71.180298 
L 375.045713 78.553431 
L 377.607696 87.57604 
L 380.16968 99.102027 
L 382.731663 115.035745 
L 385.293647 141.382893 
L 385.910692 289.944625 
M 389.816728 289.944625 
L 390.417614 146.465651 
L 392.979597 123.033032 
L 395.541581 110.536937 
L 398.103564 102.626838 
L 400.665548 97.34724 
L 403.227531 93.844367 
L 405.789514 91.678265 
L 408.351498 90.602938 
L 410.913481 90.47897 
L 413.475465 91.234613 
L 416.037448 92.848526 
L 418.599432 95.344677 
L 421.161415 98.796914 
L 423.723399 103.345404 
L 426.285382 109.233845 
L 428.847366 116.892634 
L 431.409349 127.146093 
L 433.971333 141.849978 
L 436.533316 166.836568 
L 437.07096 289.944625 
M 441.136035 289.944625 
L 441.657283 171.549636 
L 444.219267 146.896498 
L 446.78125 133.506171 
L 449.343233 124.815596 
L 451.905217 118.825092 
L 454.4672 114.663802 
L 457.029184 111.882593 
L 459.591167 110.22943 
L 462.153151 109.56039 
L 464.715134 109.800065 
L 467.277118 110.923945 
L 469.839101 112.95308 
L 472.401085 115.958419 
L 474.963068 120.076946 
L 477.525052 125.548305 
L 480.087035 132.796627 
L 482.649019 142.633889 
L 485.211002 156.882574 
L 487.772986 181.225066 
L 488.243272 289.944625 
M 492.446512 289.944625 
L 492.896952 186.791766 
L 495.458936 161.421579 
L 498.020919 147.619203 
L 500.582903 138.594707 
L 503.144886 132.306216 
L 505.70687 127.86886 
L 508.268853 124.82726 
L 510.830837 122.925991 
L 513.39282 122.018971 
L 515.954804 122.029217 
L 518.516787 122.930899 
L 521.078771 124.743793 
L 523.640754 127.537428 
L 526.202738 131.446933 
L 528.764721 136.709129 
L 531.326705 143.74307 
L 533.888688 153.349731 
L 536.450671 167.320723 
L 539.012655 191.200371 
L 539.477931 289.944625 
M 543.697655 289.944625 
L 544.136622 197.938242 
L 546.698605 171.961314 
L 549.260589 157.874847 
L 551.822572 148.640933 
L 554.384556 142.173648 
L 556.946539 137.573977 
L 559.508523 134.380491 
L 562.070506 132.334644 
L 564.63249 131.28848 
L 567.194473 131.163713 
L 569.756457 131.933456 
L 572.31844 133.616463 
L 574.880424 136.281083 
L 577.442407 140.060831 
L 580.00439 145.189955 
L 582.566374 152.082755 
L 585.128357 161.529757 
L 587.690341 175.293306 
L 590.252324 198.789825 
" clip-path="url(#pfd61441320)" style="fill: none; stroke: #d62728; stroke-width: 1.5; stroke-linecap: square"/>
   </g>
   <g id="line2d_41">
    <path d="M 336.615961 34.962011 
L 339.177944 35.053092 
L 341.739928 35.326676 
L 344.301911 35.783793 
L 346.863895 36.42618 
L 349.425878 37.256316 
L 351.987862 38.277473 
L 354.549845 39.493778 
L 357.111829 40.910309 
L 359.673812 42.533201 
L 362.235795 44.369798 
L 364.797779 46.428838 
L 367.359762 48.720691 
L 369.921746 51.257669 
L 372.483729 54.054424 
L 375.045713 57.128479 
L 377.607696 60.500932 
L 380.16968 64.19741 
L 382.731663 68.249396 
L 385.293647 72.696108 
L 387.85563 77.587242 
L 390.417614 82.987093 
L 392.979597 88.981015 
L 395.541581 95.686014 
L 398.103564 103.269163 
L 400.665548 111.98209 
L 403.227531 122.232177 
L 405.789514 134.751137 
L 408.351498 151.086668 
L 410.913481 175.697285 
L 413.475465 261.799779 
L 416.037448 208.608944 
L 418.599432 177.960934 
L 421.161415 165.656488 
L 423.723399 159.494046 
L 426.285382 156.843416 
L 428.847366 156.832469 
L 431.409349 159.336522 
L 433.971333 164.984398 
L 436.533316 176.509431 
L 439.0953 235.756065 
L 441.657283 178.803165 
L 444.219267 167.309369 
L 446.78125 162.008558 
L 449.343233 159.679412 
L 451.905217 159.430379 
L 454.4672 161.029303 
L 457.029184 164.65217 
L 459.591167 171.08457 
L 462.153151 183.117009 
L 464.715134 238.916843 
L 467.277118 186.526555 
L 469.839101 175.164714 
L 472.401085 169.994373 
L 474.963068 167.758922 
L 477.525052 167.56777 
L 480.087035 169.192849 
L 482.649019 172.812444 
L 485.211002 179.208058 
L 487.772986 191.13315 
L 490.334969 243.756132 
L 492.896952 194.824772 
L 495.458936 183.308706 
L 498.020919 178.044117 
L 500.582903 175.724227 
L 503.144886 175.449115 
L 505.70687 176.987148 
L 508.268853 180.513115 
L 510.830837 186.80004 
L 513.39282 198.561646 
L 515.954804 248.472772 
L 518.516787 202.455049 
L 521.078771 190.755823 
L 523.640754 185.376018 
L 526.202738 182.956413 
L 528.764721 182.586686 
L 531.326705 184.030844 
L 533.888688 187.45955 
L 536.450671 193.636926 
L 539.012655 205.237292 
L 541.574638 252.812546 
L 544.136622 209.340266 
L 546.698605 197.461884 
L 549.260589 191.973228 
L 551.822572 189.461291 
L 554.384556 189.005068 
L 556.946539 190.364049 
L 559.508523 193.704678 
L 562.070506 199.782175 
L 564.63249 211.232142 
L 567.194473 256.766023 
L 569.756457 215.565185 
L 572.31844 203.51609 
L 574.880424 197.928443 
L 577.442407 195.334225 
L 580.00439 194.80159 
L 582.566374 196.085461 
L 585.128357 199.348058 
L 587.690341 205.335778 
L 590.252324 216.646233 
" clip-path="url(#pfd61441320)" style="fill: none; stroke: #9467bd; stroke-width: 1.5; stroke-linecap: square"/>
   </g>
   <g id="line2d_42">
    <path d="M 336.615961 34.853048 
L 339.177944 35.02128 
L 341.739928 35.528089 
L 344.301911 36.379957 
L 346.863895 37.588175 
L 349.425878 39.169661 
L 351.987862 41.1483 
L 354.549845 43.557074 
L 357.111829 46.441472 
L 359.673812 49.865153 
L 362.235795 53.919791 
L 364.797779 58.743513 
L 367.359762 64.558852 
L 369.921746 71.762391 
L 372.483729 81.185027 
L 375.045713 95.179236 
L 377.607696 130.609892 
L 380.16968 110.382795 
L 382.731663 100.204218 
L 385.293647 97.619058 
L 387.85563 98.624742 
L 390.417614 102.581732 
L 392.979597 110.282008 
L 395.541581 126.303709 
L 398.103564 145.078852 
L 400.665548 118.957269 
L 403.227531 110.988537 
L 405.789514 107.747952 
L 408.351498 107.255362 
L 410.913481 109.034258 
L 413.475465 113.303867 
L 416.037448 121.318296 
L 418.599432 139.02062 
L 421.161415 147.309649 
L 423.723399 125.739469 
L 426.285382 117.940354 
L 428.847366 114.381321 
L 431.409349 113.355505 
L 433.971333 114.403997 
L 436.533316 117.63014 
L 439.0953 123.832919 
L 441.657283 136.051861 
L 444.219267 217.15984 
L 446.78125 136.645938 
L 449.343233 125.640899 
L 451.905217 120.496236 
L 454.4672 118.263961 
L 457.029184 118.143959 
L 459.591167 119.995754 
L 462.153151 124.171473 
L 464.715134 131.986685 
L 467.277118 149.405244 
L 469.839101 157.451575 
L 472.401085 135.485301 
L 474.963068 127.272773 
L 477.525052 123.252002 
L 480.087035 121.695973 
L 482.649019 122.105736 
L 485.211002 124.491955 
L 487.772986 129.38765 
L 490.334969 138.639061 
L 492.896952 163.204077 
L 495.458936 151.863884 
L 498.020919 136.081505 
L 500.582903 129.194764 
L 503.144886 125.807641 
L 505.70687 124.672689 
L 508.268853 125.441402 
L 510.830837 128.220989 
L 513.39282 133.695506 
L 515.954804 144.258054 
L 518.516787 180.607158 
L 521.078771 150.285502 
L 523.640754 137.198734 
L 526.202738 131.093666 
L 528.764721 128.117739 
L 531.326705 127.274267 
L 533.888688 128.306379 
L 536.450671 131.391986 
L 539.012655 137.347144 
L 541.574638 149.122274 
L 544.136622 228.712721 
L 546.698605 150.031329 
L 549.260589 138.475119 
L 551.822572 132.888168 
L 554.384556 130.202479 
L 556.946539 129.574456 
L 559.508523 130.809813 
L 562.070506 134.142108 
L 564.63249 140.504982 
L 567.194473 153.410917 
L 569.756457 193.555702 
L 572.31844 150.343294 
L 574.880424 139.778731 
L 577.442407 134.56154 
L 580.00439 132.092515 
L 582.566374 131.631029 
L 585.128357 133.028783 
L 587.690341 136.565022 
L 590.252324 143.279199 
" clip-path="url(#pfd61441320)" style="fill: none; stroke: #8c564b; stroke-width: 1.5; stroke-linecap: square"/>
   </g>
   <g id="patch_9">
    <path d="M 336.615961 244.078125 
L 336.615961 22.318125 
" style="fill: none; stroke: #000000; stroke-width: 0.8; stroke-linejoin: miter; stroke-linecap: square"/>
   </g>
   <g id="patch_10">
    <path d="M 590.252324 244.078125 
L 590.252324 22.318125 
" style="fill: none; stroke: #000000; stroke-width: 0.8; stroke-linejoin: miter; stroke-linecap: square"/>
   </g>
   <g id="patch_11">
    <path d="M 336.615961 244.078125 
L 590.252324 244.078125 
" style="fill: none; stroke: #000000; stroke-width: 0.8; stroke-linejoin: miter; stroke-linecap: square"/>
   </g>
   <g id="patch_12">
    <path d="M 336.615961 22.318125 
L 590.252324 22.318125 
" style="fill: none; stroke: #000000; stroke-width: 0.8; stroke-linejoin: miter; stroke-linecap: square"/>
   </g>
   <g id="text_31">
    <!-- Frequentiedomein -->
    <g transform="translate(409.091955 16.318125) scale(0.12 -0.12)">
     <defs>
      <path id="DejaVuSans-46" d="M 628 4666 
L 3309 4666 
L 3309 4134 
L 1259 4134 
L 1259 2759 
L 3109 2759 
L 3109 2228 
L 1259 2228 
L 1259 0 
L 628 0 
L 628 4666 
z
" transform="scale(0.015625)"/>
     </defs>
     <use xlink:href="#DejaVuSans-46"/>
     <use xlink:href="#DejaVuSans-72" x="50.269531"/>
     <use xlink:href="#DejaVuSans-65" x="89.132812"/>
     <use xlink:href="#DejaVuSans-71" x="150.65625"/>
     <use xlink:href="#DejaVuSans-75" x="214.132812"/>
     <use xlink:href="#DejaVuSans-65" x="277.511719"/>
     <use xlink:href="#DejaVuSans-6e" x="339.035156"/>
     <use xlink:href="#DejaVuSans-74" x="402.414062"/>
     <use xlink:href="#DejaVuSans-69" x="441.623047"/>
     <use xlink:href="#DejaVuSans-65" x="469.40625"/>
     <use xlink:href="#DejaVuSans-64" x="530.929688"/>
     <use xlink:href="#DejaVuSans-6f" x="594.40625"/>
     <use xlink:href="#DejaVuSans-6d" x="655.587891"/>
     <use xlink:href="#DejaVuSans-65" x="753"/>
     <use xlink:href="#DejaVuSans-69" x="814.523438"/>
     <use xlink:href="#DejaVuSans-6e" x="842.306641"/>
    </g>
   </g>
  </g>
 </g>
 <defs>
  <clipPath id="p1afbbf375f">
   <rect x="32.252324" y="22.318125" width="253.636364" height="221.76"/>
  </clipPath>
  <clipPath id="pfd61441320">
   <rect x="336.615961" y="22.318125" width="253.636364" height="221.76"/>
  </clipPath>
 </defs>
</svg>
