<?xml version="1.0" encoding="utf-8" standalone="no"?>
<!DOCTYPE svg PUBLIC "-//W3C//DTD SVG 1.1//EN"
  "http://www.w3.org/Graphics/SVG/1.1/DTD/svg11.dtd">
<!-- Created with matplotlib (https://matplotlib.org/) -->
<svg height="211.07625pt" version="1.1" viewBox="0 0 607.820312 211.07625" width="607.820312pt" xmlns="http://www.w3.org/2000/svg" xmlns:xlink="http://www.w3.org/1999/xlink">
 <defs>
  <style type="text/css">
*{stroke-linecap:butt;stroke-linejoin:round;}
  </style>
 </defs>
 <g id="figure_1">
  <g id="patch_1">
   <path d="M 0 211.07625 
L 607.820312 211.07625 
L 607.820312 0 
L 0 0 
z
" style="fill:#ffffff;"/>
  </g>
  <g id="axes_1">
   <g id="patch_2">
    <path d="M 42.620312 173.52 
L 600.620312 173.52 
L 600.620312 7.2 
L 42.620312 7.2 
z
" style="fill:#ffffff;"/>
   </g>
   <g id="matplotlib.axis_1">
    <g id="xtick_1">
     <g id="line2d_1">
      <path clip-path="url(#p46e6f5b705)" d="M 67.983949 173.52 
L 67.983949 7.2 
" style="fill:none;stroke:#b0b0b0;stroke-linecap:square;stroke-width:0.8;"/>
     </g>
     <g id="line2d_2">
      <defs>
       <path d="M 0 0 
L 0 3.5 
" id="m92ea8d4c60" style="stroke:#000000;stroke-width:0.8;"/>
      </defs>
      <g>
       <use style="stroke:#000000;stroke-width:0.8;" x="67.983949" xlink:href="#m92ea8d4c60" y="173.52"/>
      </g>
     </g>
     <g id="text_1">
      <!-- 0.00 -->
      <defs>
       <path d="M 31.78125 66.40625 
Q 24.171875 66.40625 20.328125 58.90625 
Q 16.5 51.421875 16.5 36.375 
Q 16.5 21.390625 20.328125 13.890625 
Q 24.171875 6.390625 31.78125 6.390625 
Q 39.453125 6.390625 43.28125 13.890625 
Q 47.125 21.390625 47.125 36.375 
Q 47.125 51.421875 43.28125 58.90625 
Q 39.453125 66.40625 31.78125 66.40625 
z
M 31.78125 74.21875 
Q 44.046875 74.21875 50.515625 64.515625 
Q 56.984375 54.828125 56.984375 36.375 
Q 56.984375 17.96875 50.515625 8.265625 
Q 44.046875 -1.421875 31.78125 -1.421875 
Q 19.53125 -1.421875 13.0625 8.265625 
Q 6.59375 17.96875 6.59375 36.375 
Q 6.59375 54.828125 13.0625 64.515625 
Q 19.53125 74.21875 31.78125 74.21875 
z
" id="DejaVuSans-48"/>
       <path d="M 10.6875 12.40625 
L 21 12.40625 
L 21 0 
L 10.6875 0 
z
" id="DejaVuSans-46"/>
      </defs>
      <g transform="translate(56.851136 188.118438)scale(0.1 -0.1)">
       <use xlink:href="#DejaVuSans-48"/>
       <use x="63.623047" xlink:href="#DejaVuSans-46"/>
       <use x="95.410156" xlink:href="#DejaVuSans-48"/>
       <use x="159.033203" xlink:href="#DejaVuSans-48"/>
      </g>
     </g>
    </g>
    <g id="xtick_2">
     <g id="line2d_3">
      <path clip-path="url(#p46e6f5b705)" d="M 131.42476 173.52 
L 131.42476 7.2 
" style="fill:none;stroke:#b0b0b0;stroke-linecap:square;stroke-width:0.8;"/>
     </g>
     <g id="line2d_4">
      <g>
       <use style="stroke:#000000;stroke-width:0.8;" x="131.42476" xlink:href="#m92ea8d4c60" y="173.52"/>
      </g>
     </g>
     <g id="text_2">
      <!-- 0.25 -->
      <defs>
       <path d="M 19.1875 8.296875 
L 53.609375 8.296875 
L 53.609375 0 
L 7.328125 0 
L 7.328125 8.296875 
Q 12.9375 14.109375 22.625 23.890625 
Q 32.328125 33.6875 34.8125 36.53125 
Q 39.546875 41.84375 41.421875 45.53125 
Q 43.3125 49.21875 43.3125 52.78125 
Q 43.3125 58.59375 39.234375 62.25 
Q 35.15625 65.921875 28.609375 65.921875 
Q 23.96875 65.921875 18.8125 64.3125 
Q 13.671875 62.703125 7.8125 59.421875 
L 7.8125 69.390625 
Q 13.765625 71.78125 18.9375 73 
Q 24.125 74.21875 28.421875 74.21875 
Q 39.75 74.21875 46.484375 68.546875 
Q 53.21875 62.890625 53.21875 53.421875 
Q 53.21875 48.921875 51.53125 44.890625 
Q 49.859375 40.875 45.40625 35.40625 
Q 44.1875 33.984375 37.640625 27.21875 
Q 31.109375 20.453125 19.1875 8.296875 
z
" id="DejaVuSans-50"/>
       <path d="M 10.796875 72.90625 
L 49.515625 72.90625 
L 49.515625 64.59375 
L 19.828125 64.59375 
L 19.828125 46.734375 
Q 21.96875 47.46875 24.109375 47.828125 
Q 26.265625 48.1875 28.421875 48.1875 
Q 40.625 48.1875 47.75 41.5 
Q 54.890625 34.8125 54.890625 23.390625 
Q 54.890625 11.625 47.5625 5.09375 
Q 40.234375 -1.421875 26.90625 -1.421875 
Q 22.3125 -1.421875 17.546875 -0.640625 
Q 12.796875 0.140625 7.71875 1.703125 
L 7.71875 11.625 
Q 12.109375 9.234375 16.796875 8.0625 
Q 21.484375 6.890625 26.703125 6.890625 
Q 35.15625 6.890625 40.078125 11.328125 
Q 45.015625 15.765625 45.015625 23.390625 
Q 45.015625 31 40.078125 35.4375 
Q 35.15625 39.890625 26.703125 39.890625 
Q 22.75 39.890625 18.8125 39.015625 
Q 14.890625 38.140625 10.796875 36.28125 
z
" id="DejaVuSans-53"/>
      </defs>
      <g transform="translate(120.291948 188.118438)scale(0.1 -0.1)">
       <use xlink:href="#DejaVuSans-48"/>
       <use x="63.623047" xlink:href="#DejaVuSans-46"/>
       <use x="95.410156" xlink:href="#DejaVuSans-50"/>
       <use x="159.033203" xlink:href="#DejaVuSans-53"/>
      </g>
     </g>
    </g>
    <g id="xtick_3">
     <g id="line2d_5">
      <path clip-path="url(#p46e6f5b705)" d="M 194.865571 173.52 
L 194.865571 7.2 
" style="fill:none;stroke:#b0b0b0;stroke-linecap:square;stroke-width:0.8;"/>
     </g>
     <g id="line2d_6">
      <g>
       <use style="stroke:#000000;stroke-width:0.8;" x="194.865571" xlink:href="#m92ea8d4c60" y="173.52"/>
      </g>
     </g>
     <g id="text_3">
      <!-- 0.50 -->
      <g transform="translate(183.732759 188.118438)scale(0.1 -0.1)">
       <use xlink:href="#DejaVuSans-48"/>
       <use x="63.623047" xlink:href="#DejaVuSans-46"/>
       <use x="95.410156" xlink:href="#DejaVuSans-53"/>
       <use x="159.033203" xlink:href="#DejaVuSans-48"/>
      </g>
     </g>
    </g>
    <g id="xtick_4">
     <g id="line2d_7">
      <path clip-path="url(#p46e6f5b705)" d="M 258.306383 173.52 
L 258.306383 7.2 
" style="fill:none;stroke:#b0b0b0;stroke-linecap:square;stroke-width:0.8;"/>
     </g>
     <g id="line2d_8">
      <g>
       <use style="stroke:#000000;stroke-width:0.8;" x="258.306383" xlink:href="#m92ea8d4c60" y="173.52"/>
      </g>
     </g>
     <g id="text_4">
      <!-- 0.75 -->
      <defs>
       <path d="M 8.203125 72.90625 
L 55.078125 72.90625 
L 55.078125 68.703125 
L 28.609375 0 
L 18.3125 0 
L 43.21875 64.59375 
L 8.203125 64.59375 
z
" id="DejaVuSans-55"/>
      </defs>
      <g transform="translate(247.17357 188.118438)scale(0.1 -0.1)">
       <use xlink:href="#DejaVuSans-48"/>
       <use x="63.623047" xlink:href="#DejaVuSans-46"/>
       <use x="95.410156" xlink:href="#DejaVuSans-55"/>
       <use x="159.033203" xlink:href="#DejaVuSans-53"/>
      </g>
     </g>
    </g>
    <g id="xtick_5">
     <g id="line2d_9">
      <path clip-path="url(#p46e6f5b705)" d="M 321.747194 173.52 
L 321.747194 7.2 
" style="fill:none;stroke:#b0b0b0;stroke-linecap:square;stroke-width:0.8;"/>
     </g>
     <g id="line2d_10">
      <g>
       <use style="stroke:#000000;stroke-width:0.8;" x="321.747194" xlink:href="#m92ea8d4c60" y="173.52"/>
      </g>
     </g>
     <g id="text_5">
      <!-- 1.00 -->
      <defs>
       <path d="M 12.40625 8.296875 
L 28.515625 8.296875 
L 28.515625 63.921875 
L 10.984375 60.40625 
L 10.984375 69.390625 
L 28.421875 72.90625 
L 38.28125 72.90625 
L 38.28125 8.296875 
L 54.390625 8.296875 
L 54.390625 0 
L 12.40625 0 
z
" id="DejaVuSans-49"/>
      </defs>
      <g transform="translate(310.614382 188.118438)scale(0.1 -0.1)">
       <use xlink:href="#DejaVuSans-49"/>
       <use x="63.623047" xlink:href="#DejaVuSans-46"/>
       <use x="95.410156" xlink:href="#DejaVuSans-48"/>
       <use x="159.033203" xlink:href="#DejaVuSans-48"/>
      </g>
     </g>
    </g>
    <g id="xtick_6">
     <g id="line2d_11">
      <path clip-path="url(#p46e6f5b705)" d="M 385.188005 173.52 
L 385.188005 7.2 
" style="fill:none;stroke:#b0b0b0;stroke-linecap:square;stroke-width:0.8;"/>
     </g>
     <g id="line2d_12">
      <g>
       <use style="stroke:#000000;stroke-width:0.8;" x="385.188005" xlink:href="#m92ea8d4c60" y="173.52"/>
      </g>
     </g>
     <g id="text_6">
      <!-- 1.25 -->
      <g transform="translate(374.055193 188.118438)scale(0.1 -0.1)">
       <use xlink:href="#DejaVuSans-49"/>
       <use x="63.623047" xlink:href="#DejaVuSans-46"/>
       <use x="95.410156" xlink:href="#DejaVuSans-50"/>
       <use x="159.033203" xlink:href="#DejaVuSans-53"/>
      </g>
     </g>
    </g>
    <g id="xtick_7">
     <g id="line2d_13">
      <path clip-path="url(#p46e6f5b705)" d="M 448.628817 173.52 
L 448.628817 7.2 
" style="fill:none;stroke:#b0b0b0;stroke-linecap:square;stroke-width:0.8;"/>
     </g>
     <g id="line2d_14">
      <g>
       <use style="stroke:#000000;stroke-width:0.8;" x="448.628817" xlink:href="#m92ea8d4c60" y="173.52"/>
      </g>
     </g>
     <g id="text_7">
      <!-- 1.50 -->
      <g transform="translate(437.496004 188.118438)scale(0.1 -0.1)">
       <use xlink:href="#DejaVuSans-49"/>
       <use x="63.623047" xlink:href="#DejaVuSans-46"/>
       <use x="95.410156" xlink:href="#DejaVuSans-53"/>
       <use x="159.033203" xlink:href="#DejaVuSans-48"/>
      </g>
     </g>
    </g>
    <g id="xtick_8">
     <g id="line2d_15">
      <path clip-path="url(#p46e6f5b705)" d="M 512.069628 173.52 
L 512.069628 7.2 
" style="fill:none;stroke:#b0b0b0;stroke-linecap:square;stroke-width:0.8;"/>
     </g>
     <g id="line2d_16">
      <g>
       <use style="stroke:#000000;stroke-width:0.8;" x="512.069628" xlink:href="#m92ea8d4c60" y="173.52"/>
      </g>
     </g>
     <g id="text_8">
      <!-- 1.75 -->
      <g transform="translate(500.936816 188.118438)scale(0.1 -0.1)">
       <use xlink:href="#DejaVuSans-49"/>
       <use x="63.623047" xlink:href="#DejaVuSans-46"/>
       <use x="95.410156" xlink:href="#DejaVuSans-55"/>
       <use x="159.033203" xlink:href="#DejaVuSans-53"/>
      </g>
     </g>
    </g>
    <g id="xtick_9">
     <g id="line2d_17">
      <path clip-path="url(#p46e6f5b705)" d="M 575.510439 173.52 
L 575.510439 7.2 
" style="fill:none;stroke:#b0b0b0;stroke-linecap:square;stroke-width:0.8;"/>
     </g>
     <g id="line2d_18">
      <g>
       <use style="stroke:#000000;stroke-width:0.8;" x="575.510439" xlink:href="#m92ea8d4c60" y="173.52"/>
      </g>
     </g>
     <g id="text_9">
      <!-- 2.00 -->
      <g transform="translate(564.377627 188.118438)scale(0.1 -0.1)">
       <use xlink:href="#DejaVuSans-50"/>
       <use x="63.623047" xlink:href="#DejaVuSans-46"/>
       <use x="95.410156" xlink:href="#DejaVuSans-48"/>
       <use x="159.033203" xlink:href="#DejaVuSans-48"/>
      </g>
     </g>
    </g>
    <g id="text_10">
     <!-- Time -->
     <defs>
      <path d="M -0.296875 72.90625 
L 61.375 72.90625 
L 61.375 64.59375 
L 35.5 64.59375 
L 35.5 0 
L 25.59375 0 
L 25.59375 64.59375 
L -0.296875 64.59375 
z
" id="DejaVuSans-84"/>
      <path d="M 9.421875 54.6875 
L 18.40625 54.6875 
L 18.40625 0 
L 9.421875 0 
z
M 9.421875 75.984375 
L 18.40625 75.984375 
L 18.40625 64.59375 
L 9.421875 64.59375 
z
" id="DejaVuSans-105"/>
      <path d="M 52 44.1875 
Q 55.375 50.25 60.0625 53.125 
Q 64.75 56 71.09375 56 
Q 79.640625 56 84.28125 50.015625 
Q 88.921875 44.046875 88.921875 33.015625 
L 88.921875 0 
L 79.890625 0 
L 79.890625 32.71875 
Q 79.890625 40.578125 77.09375 44.375 
Q 74.3125 48.1875 68.609375 48.1875 
Q 61.625 48.1875 57.5625 43.546875 
Q 53.515625 38.921875 53.515625 30.90625 
L 53.515625 0 
L 44.484375 0 
L 44.484375 32.71875 
Q 44.484375 40.625 41.703125 44.40625 
Q 38.921875 48.1875 33.109375 48.1875 
Q 26.21875 48.1875 22.15625 43.53125 
Q 18.109375 38.875 18.109375 30.90625 
L 18.109375 0 
L 9.078125 0 
L 9.078125 54.6875 
L 18.109375 54.6875 
L 18.109375 46.1875 
Q 21.1875 51.21875 25.484375 53.609375 
Q 29.78125 56 35.6875 56 
Q 41.65625 56 45.828125 52.96875 
Q 50 49.953125 52 44.1875 
z
" id="DejaVuSans-109"/>
      <path d="M 56.203125 29.59375 
L 56.203125 25.203125 
L 14.890625 25.203125 
Q 15.484375 15.921875 20.484375 11.0625 
Q 25.484375 6.203125 34.421875 6.203125 
Q 39.59375 6.203125 44.453125 7.46875 
Q 49.3125 8.734375 54.109375 11.28125 
L 54.109375 2.78125 
Q 49.265625 0.734375 44.1875 -0.34375 
Q 39.109375 -1.421875 33.890625 -1.421875 
Q 20.796875 -1.421875 13.15625 6.1875 
Q 5.515625 13.8125 5.515625 26.8125 
Q 5.515625 40.234375 12.765625 48.109375 
Q 20.015625 56 32.328125 56 
Q 43.359375 56 49.78125 48.890625 
Q 56.203125 41.796875 56.203125 29.59375 
z
M 47.21875 32.234375 
Q 47.125 39.59375 43.09375 43.984375 
Q 39.0625 48.390625 32.421875 48.390625 
Q 24.90625 48.390625 20.390625 44.140625 
Q 15.875 39.890625 15.1875 32.171875 
z
" id="DejaVuSans-101"/>
     </defs>
     <g transform="translate(309.232813 201.796563)scale(0.1 -0.1)">
      <use xlink:href="#DejaVuSans-84"/>
      <use x="61.037109" xlink:href="#DejaVuSans-105"/>
      <use x="88.820312" xlink:href="#DejaVuSans-109"/>
      <use x="186.232422" xlink:href="#DejaVuSans-101"/>
     </g>
    </g>
   </g>
   <g id="matplotlib.axis_2">
    <g id="ytick_1">
     <g id="line2d_19">
      <path clip-path="url(#p46e6f5b705)" d="M 42.620312 165.96 
L 600.620312 165.96 
" style="fill:none;stroke:#b0b0b0;stroke-linecap:square;stroke-width:0.8;"/>
     </g>
     <g id="line2d_20">
      <defs>
       <path d="M 0 0 
L -3.5 0 
" id="mb431e3c756" style="stroke:#000000;stroke-width:0.8;"/>
      </defs>
      <g>
       <use style="stroke:#000000;stroke-width:0.8;" x="42.620312" xlink:href="#mb431e3c756" y="165.96"/>
      </g>
     </g>
     <g id="text_11">
      <!-- −3 -->
      <defs>
       <path d="M 10.59375 35.5 
L 73.1875 35.5 
L 73.1875 27.203125 
L 10.59375 27.203125 
z
" id="DejaVuSans-8722"/>
       <path d="M 40.578125 39.3125 
Q 47.65625 37.796875 51.625 33 
Q 55.609375 28.21875 55.609375 21.1875 
Q 55.609375 10.40625 48.1875 4.484375 
Q 40.765625 -1.421875 27.09375 -1.421875 
Q 22.515625 -1.421875 17.65625 -0.515625 
Q 12.796875 0.390625 7.625 2.203125 
L 7.625 11.71875 
Q 11.71875 9.328125 16.59375 8.109375 
Q 21.484375 6.890625 26.8125 6.890625 
Q 36.078125 6.890625 40.9375 10.546875 
Q 45.796875 14.203125 45.796875 21.1875 
Q 45.796875 27.640625 41.28125 31.265625 
Q 36.765625 34.90625 28.71875 34.90625 
L 20.21875 34.90625 
L 20.21875 43.015625 
L 29.109375 43.015625 
Q 36.375 43.015625 40.234375 45.921875 
Q 44.09375 48.828125 44.09375 54.296875 
Q 44.09375 59.90625 40.109375 62.90625 
Q 36.140625 65.921875 28.71875 65.921875 
Q 24.65625 65.921875 20.015625 65.03125 
Q 15.375 64.15625 9.8125 62.3125 
L 9.8125 71.09375 
Q 15.4375 72.65625 20.34375 73.4375 
Q 25.25 74.21875 29.59375 74.21875 
Q 40.828125 74.21875 47.359375 69.109375 
Q 53.90625 64.015625 53.90625 55.328125 
Q 53.90625 49.265625 50.4375 45.09375 
Q 46.96875 40.921875 40.578125 39.3125 
z
" id="DejaVuSans-51"/>
      </defs>
      <g transform="translate(20.878125 169.759219)scale(0.1 -0.1)">
       <use xlink:href="#DejaVuSans-8722"/>
       <use x="83.789062" xlink:href="#DejaVuSans-51"/>
      </g>
     </g>
    </g>
    <g id="ytick_2">
     <g id="line2d_21">
      <path clip-path="url(#p46e6f5b705)" d="M 42.620312 140.76 
L 600.620312 140.76 
" style="fill:none;stroke:#b0b0b0;stroke-linecap:square;stroke-width:0.8;"/>
     </g>
     <g id="line2d_22">
      <g>
       <use style="stroke:#000000;stroke-width:0.8;" x="42.620312" xlink:href="#mb431e3c756" y="140.76"/>
      </g>
     </g>
     <g id="text_12">
      <!-- −2 -->
      <g transform="translate(20.878125 144.559219)scale(0.1 -0.1)">
       <use xlink:href="#DejaVuSans-8722"/>
       <use x="83.789062" xlink:href="#DejaVuSans-50"/>
      </g>
     </g>
    </g>
    <g id="ytick_3">
     <g id="line2d_23">
      <path clip-path="url(#p46e6f5b705)" d="M 42.620312 115.56 
L 600.620312 115.56 
" style="fill:none;stroke:#b0b0b0;stroke-linecap:square;stroke-width:0.8;"/>
     </g>
     <g id="line2d_24">
      <g>
       <use style="stroke:#000000;stroke-width:0.8;" x="42.620312" xlink:href="#mb431e3c756" y="115.56"/>
      </g>
     </g>
     <g id="text_13">
      <!-- −1 -->
      <g transform="translate(20.878125 119.359219)scale(0.1 -0.1)">
       <use xlink:href="#DejaVuSans-8722"/>
       <use x="83.789062" xlink:href="#DejaVuSans-49"/>
      </g>
     </g>
    </g>
    <g id="ytick_4">
     <g id="line2d_25">
      <path clip-path="url(#p46e6f5b705)" d="M 42.620312 90.36 
L 600.620312 90.36 
" style="fill:none;stroke:#b0b0b0;stroke-linecap:square;stroke-width:0.8;"/>
     </g>
     <g id="line2d_26">
      <g>
       <use style="stroke:#000000;stroke-width:0.8;" x="42.620312" xlink:href="#mb431e3c756" y="90.36"/>
      </g>
     </g>
     <g id="text_14">
      <!-- 0 -->
      <g transform="translate(29.257812 94.159219)scale(0.1 -0.1)">
       <use xlink:href="#DejaVuSans-48"/>
      </g>
     </g>
    </g>
    <g id="ytick_5">
     <g id="line2d_27">
      <path clip-path="url(#p46e6f5b705)" d="M 42.620312 65.16 
L 600.620312 65.16 
" style="fill:none;stroke:#b0b0b0;stroke-linecap:square;stroke-width:0.8;"/>
     </g>
     <g id="line2d_28">
      <g>
       <use style="stroke:#000000;stroke-width:0.8;" x="42.620312" xlink:href="#mb431e3c756" y="65.16"/>
      </g>
     </g>
     <g id="text_15">
      <!-- 1 -->
      <g transform="translate(29.257812 68.959219)scale(0.1 -0.1)">
       <use xlink:href="#DejaVuSans-49"/>
      </g>
     </g>
    </g>
    <g id="ytick_6">
     <g id="line2d_29">
      <path clip-path="url(#p46e6f5b705)" d="M 42.620312 39.96 
L 600.620312 39.96 
" style="fill:none;stroke:#b0b0b0;stroke-linecap:square;stroke-width:0.8;"/>
     </g>
     <g id="line2d_30">
      <g>
       <use style="stroke:#000000;stroke-width:0.8;" x="42.620312" xlink:href="#mb431e3c756" y="39.96"/>
      </g>
     </g>
     <g id="text_16">
      <!-- 2 -->
      <g transform="translate(29.257812 43.759219)scale(0.1 -0.1)">
       <use xlink:href="#DejaVuSans-50"/>
      </g>
     </g>
    </g>
    <g id="ytick_7">
     <g id="line2d_31">
      <path clip-path="url(#p46e6f5b705)" d="M 42.620312 14.76 
L 600.620312 14.76 
" style="fill:none;stroke:#b0b0b0;stroke-linecap:square;stroke-width:0.8;"/>
     </g>
     <g id="line2d_32">
      <g>
       <use style="stroke:#000000;stroke-width:0.8;" x="42.620312" xlink:href="#mb431e3c756" y="14.76"/>
      </g>
     </g>
     <g id="text_17">
      <!-- 3 -->
      <g transform="translate(29.257812 18.559219)scale(0.1 -0.1)">
       <use xlink:href="#DejaVuSans-51"/>
      </g>
     </g>
    </g>
    <g id="text_18">
     <!-- Amplitude -->
     <defs>
      <path d="M 34.1875 63.1875 
L 20.796875 26.90625 
L 47.609375 26.90625 
z
M 28.609375 72.90625 
L 39.796875 72.90625 
L 67.578125 0 
L 57.328125 0 
L 50.6875 18.703125 
L 17.828125 18.703125 
L 11.1875 0 
L 0.78125 0 
z
" id="DejaVuSans-65"/>
      <path d="M 18.109375 8.203125 
L 18.109375 -20.796875 
L 9.078125 -20.796875 
L 9.078125 54.6875 
L 18.109375 54.6875 
L 18.109375 46.390625 
Q 20.953125 51.265625 25.265625 53.625 
Q 29.59375 56 35.59375 56 
Q 45.5625 56 51.78125 48.09375 
Q 58.015625 40.1875 58.015625 27.296875 
Q 58.015625 14.40625 51.78125 6.484375 
Q 45.5625 -1.421875 35.59375 -1.421875 
Q 29.59375 -1.421875 25.265625 0.953125 
Q 20.953125 3.328125 18.109375 8.203125 
z
M 48.6875 27.296875 
Q 48.6875 37.203125 44.609375 42.84375 
Q 40.53125 48.484375 33.40625 48.484375 
Q 26.265625 48.484375 22.1875 42.84375 
Q 18.109375 37.203125 18.109375 27.296875 
Q 18.109375 17.390625 22.1875 11.75 
Q 26.265625 6.109375 33.40625 6.109375 
Q 40.53125 6.109375 44.609375 11.75 
Q 48.6875 17.390625 48.6875 27.296875 
z
" id="DejaVuSans-112"/>
      <path d="M 9.421875 75.984375 
L 18.40625 75.984375 
L 18.40625 0 
L 9.421875 0 
z
" id="DejaVuSans-108"/>
      <path d="M 18.3125 70.21875 
L 18.3125 54.6875 
L 36.8125 54.6875 
L 36.8125 47.703125 
L 18.3125 47.703125 
L 18.3125 18.015625 
Q 18.3125 11.328125 20.140625 9.421875 
Q 21.96875 7.515625 27.59375 7.515625 
L 36.8125 7.515625 
L 36.8125 0 
L 27.59375 0 
Q 17.1875 0 13.234375 3.875 
Q 9.28125 7.765625 9.28125 18.015625 
L 9.28125 47.703125 
L 2.6875 47.703125 
L 2.6875 54.6875 
L 9.28125 54.6875 
L 9.28125 70.21875 
z
" id="DejaVuSans-116"/>
      <path d="M 8.5 21.578125 
L 8.5 54.6875 
L 17.484375 54.6875 
L 17.484375 21.921875 
Q 17.484375 14.15625 20.5 10.265625 
Q 23.53125 6.390625 29.59375 6.390625 
Q 36.859375 6.390625 41.078125 11.03125 
Q 45.3125 15.671875 45.3125 23.6875 
L 45.3125 54.6875 
L 54.296875 54.6875 
L 54.296875 0 
L 45.3125 0 
L 45.3125 8.40625 
Q 42.046875 3.421875 37.71875 1 
Q 33.40625 -1.421875 27.6875 -1.421875 
Q 18.265625 -1.421875 13.375 4.4375 
Q 8.5 10.296875 8.5 21.578125 
z
M 31.109375 56 
z
" id="DejaVuSans-117"/>
      <path d="M 45.40625 46.390625 
L 45.40625 75.984375 
L 54.390625 75.984375 
L 54.390625 0 
L 45.40625 0 
L 45.40625 8.203125 
Q 42.578125 3.328125 38.25 0.953125 
Q 33.9375 -1.421875 27.875 -1.421875 
Q 17.96875 -1.421875 11.734375 6.484375 
Q 5.515625 14.40625 5.515625 27.296875 
Q 5.515625 40.1875 11.734375 48.09375 
Q 17.96875 56 27.875 56 
Q 33.9375 56 38.25 53.625 
Q 42.578125 51.265625 45.40625 46.390625 
z
M 14.796875 27.296875 
Q 14.796875 17.390625 18.875 11.75 
Q 22.953125 6.109375 30.078125 6.109375 
Q 37.203125 6.109375 41.296875 11.75 
Q 45.40625 17.390625 45.40625 27.296875 
Q 45.40625 37.203125 41.296875 42.84375 
Q 37.203125 48.484375 30.078125 48.484375 
Q 22.953125 48.484375 18.875 42.84375 
Q 14.796875 37.203125 14.796875 27.296875 
z
" id="DejaVuSans-100"/>
     </defs>
     <g transform="translate(14.798437 115.982656)rotate(-90)scale(0.1 -0.1)">
      <use xlink:href="#DejaVuSans-65"/>
      <use x="68.408203" xlink:href="#DejaVuSans-109"/>
      <use x="165.820312" xlink:href="#DejaVuSans-112"/>
      <use x="229.296875" xlink:href="#DejaVuSans-108"/>
      <use x="257.080078" xlink:href="#DejaVuSans-105"/>
      <use x="284.863281" xlink:href="#DejaVuSans-116"/>
      <use x="324.072266" xlink:href="#DejaVuSans-117"/>
      <use x="387.451172" xlink:href="#DejaVuSans-100"/>
      <use x="450.927734" xlink:href="#DejaVuSans-101"/>
     </g>
    </g>
   </g>
   <g id="line2d_33">
    <path clip-path="url(#p46e6f5b705)" d="M 67.983949 90.36 
L 68.999002 45.923435 
L 69.506528 29.198315 
L 70.014055 18.460127 
L 70.267818 15.690761 
L 70.521581 14.76 
L 70.775345 15.690761 
L 71.029108 18.460127 
L 71.536634 29.198315 
L 72.044161 45.923435 
L 73.059214 90.36 
L 74.074267 134.796565 
L 74.581793 151.521685 
L 75.08932 162.259873 
L 75.343083 165.029239 
L 75.596846 165.96 
L 75.850609 165.029239 
L 76.104373 162.259873 
L 76.611899 151.521685 
L 77.119426 134.796565 
L 78.134479 90.36 
L 79.149532 45.923435 
L 79.657058 29.198315 
L 80.164585 18.460127 
L 80.418348 15.690761 
L 80.672111 14.76 
L 80.925874 15.690761 
L 81.179638 18.460127 
L 81.687164 29.198315 
L 82.194691 45.923435 
L 83.209744 90.36 
L 84.224797 134.796565 
L 84.732323 151.521685 
L 85.23985 162.259873 
L 85.493613 165.029239 
L 85.747376 165.96 
L 86.001139 165.029239 
L 86.254903 162.259873 
L 86.762429 151.521685 
L 87.269956 134.796565 
L 88.285008 90.36 
L 89.300061 45.923435 
L 89.807588 29.198315 
L 90.315114 18.460127 
L 90.568878 15.690761 
L 90.822641 14.76 
L 91.076404 15.690761 
L 91.330167 18.460127 
L 91.837694 29.198315 
L 92.34522 45.923435 
L 93.614037 94.302149 
L 94.62909 108.179091 
L 95.136616 112.813364 
L 95.644143 115.249746 
L 95.897906 115.56 
L 96.151669 115.249746 
L 96.405432 114.326624 
L 96.912959 110.747228 
L 97.420485 105.172188 
L 98.435538 90.36 
L 99.450591 75.547812 
L 99.958118 69.972772 
L 100.465644 66.393376 
L 100.719408 65.470254 
L 100.973171 65.16 
L 101.226934 65.470254 
L 101.480697 66.393376 
L 101.988224 69.972772 
L 102.49575 75.547812 
L 103.510803 90.36 
L 104.525856 105.172188 
L 105.033383 110.747228 
L 105.540909 114.326624 
L 105.794672 115.249746 
L 106.048436 115.56 
L 106.302199 115.249746 
L 106.555962 114.326624 
L 107.063489 110.747228 
L 107.571015 105.172188 
L 108.586068 90.36 
L 109.601121 75.547812 
L 110.108648 69.972772 
L 110.616174 66.393376 
L 110.869937 65.470254 
L 111.123701 65.16 
L 111.377464 65.470254 
L 111.631227 66.393376 
L 112.138754 69.972772 
L 112.64628 75.547812 
L 113.661333 90.36 
L 114.676386 105.172188 
L 115.183912 110.747228 
L 115.691439 114.326624 
L 115.945202 115.249746 
L 116.198965 115.56 
L 116.452729 115.249746 
L 116.706492 114.326624 
L 117.214018 110.747228 
L 117.721545 105.172188 
L 118.736598 90.36 
L 119.751651 60.735623 
L 120.259177 49.585543 
L 120.766704 42.426752 
L 121.020467 40.580508 
L 121.27423 39.96 
L 121.527994 40.580508 
L 121.781757 42.426752 
L 122.289283 49.585543 
L 122.79681 60.735623 
L 123.811863 90.36 
L 124.826916 119.984377 
L 125.334442 131.134457 
L 125.841969 138.293248 
L 126.095732 140.139492 
L 126.349495 140.76 
L 126.603259 140.139492 
L 126.857022 138.293248 
L 127.364548 131.134457 
L 127.872075 119.984377 
L 128.887128 90.36 
L 129.902181 60.735623 
L 130.409707 49.585543 
L 130.917234 42.426752 
L 131.170997 40.580508 
L 131.42476 39.96 
L 131.678523 40.580508 
L 131.932287 42.426752 
L 132.439813 49.585543 
L 132.94734 60.735623 
L 133.962393 90.36 
L 134.977446 119.984377 
L 135.484972 131.134457 
L 135.992499 138.293248 
L 136.246262 140.139492 
L 136.500025 140.76 
L 136.753788 140.139492 
L 137.007552 138.293248 
L 137.515078 131.134457 
L 138.022605 119.984377 
L 139.037658 90.36 
L 140.052711 60.735623 
L 140.560237 49.585543 
L 141.067763 42.426752 
L 141.321527 40.580508 
L 141.57529 39.96 
L 141.829053 40.580508 
L 142.082816 42.426752 
L 142.590343 49.585543 
L 143.097869 60.735623 
L 144.112922 90.36 
L 145.127975 134.796565 
L 145.635502 151.521685 
L 146.143028 162.259873 
L 146.396792 165.029239 
L 146.650555 165.96 
L 146.904318 165.029239 
L 147.158081 162.259873 
L 147.665608 151.521685 
L 148.173134 134.796565 
L 149.188187 90.36 
L 150.20324 45.923435 
L 150.710767 29.198315 
L 151.218293 18.460127 
L 151.472057 15.690761 
L 151.72582 14.76 
L 151.979583 15.690761 
L 152.233346 18.460127 
L 152.740873 29.198315 
L 153.248399 45.923435 
L 154.263452 90.36 
L 155.278505 134.796565 
L 155.786032 151.521685 
L 156.293558 162.259873 
L 156.547321 165.029239 
L 156.801085 165.96 
L 157.054848 165.029239 
L 157.308611 162.259873 
L 157.816138 151.521685 
L 158.323664 134.796565 
L 159.338717 90.36 
L 160.35377 45.923435 
L 160.861297 29.198315 
L 161.368823 18.460127 
L 161.622586 15.690761 
L 161.87635 14.76 
L 162.130113 15.690761 
L 162.383876 18.460127 
L 162.891403 29.198315 
L 163.398929 45.923435 
L 164.413982 90.36 
L 165.429035 134.796565 
L 165.936562 151.521685 
L 166.444088 162.259873 
L 166.697851 165.029239 
L 166.951615 165.96 
L 167.205378 165.029239 
L 167.459141 162.259873 
L 167.966667 151.521685 
L 168.474194 134.796565 
L 170.250537 67.478879 
L 171.011826 49.585543 
L 171.519353 42.426752 
L 171.773116 40.580508 
L 172.026879 39.96 
L 172.280643 40.580508 
L 172.534406 42.426752 
L 173.041932 49.585543 
L 173.549459 60.735623 
L 174.564512 90.36 
L 175.579565 119.984377 
L 176.087091 131.134457 
L 176.594618 138.293248 
L 176.848381 140.139492 
L 177.102144 140.76 
L 177.355908 140.139492 
L 177.609671 138.293248 
L 178.117197 131.134457 
L 178.624724 119.984377 
L 179.639777 90.36 
L 180.65483 60.735623 
L 181.162356 49.585543 
L 181.669883 42.426752 
L 181.923646 40.580508 
L 182.177409 39.96 
L 182.431172 40.580508 
L 182.684936 42.426752 
L 183.192462 49.585543 
L 183.699989 60.735623 
L 184.715042 90.36 
L 185.730095 119.984377 
L 186.237621 131.134457 
L 186.745148 138.293248 
L 186.998911 140.139492 
L 187.252674 140.76 
L 187.506437 140.139492 
L 187.760201 138.293248 
L 188.267727 131.134457 
L 188.775254 119.984377 
L 189.790307 90.36 
L 190.80536 60.735623 
L 191.312886 49.585543 
L 191.820413 42.426752 
L 192.074176 40.580508 
L 192.327939 39.96 
L 192.581702 40.580508 
L 192.835466 42.426752 
L 193.342992 49.585543 
L 193.850519 60.735623 
L 194.865571 90.36 
L 195.880624 119.984377 
L 196.388151 131.134457 
L 196.895677 138.293248 
L 197.149441 140.139492 
L 197.403204 140.76 
L 197.656967 140.139492 
L 197.91073 138.293248 
L 198.418257 131.134457 
L 198.925783 119.984377 
L 199.940836 90.36 
L 200.955889 60.735623 
L 201.463416 49.585543 
L 201.970942 42.426752 
L 202.224706 40.580508 
L 202.478469 39.96 
L 202.732232 40.580508 
L 202.985995 42.426752 
L 203.493522 49.585543 
L 204.001048 60.735623 
L 205.016101 90.36 
L 206.031154 119.984377 
L 206.538681 131.134457 
L 207.046207 138.293248 
L 207.299971 140.139492 
L 207.553734 140.76 
L 207.807497 140.139492 
L 208.06126 138.293248 
L 208.568787 131.134457 
L 209.076313 119.984377 
L 210.091366 90.36 
L 211.106419 60.735623 
L 211.613946 49.585543 
L 212.121472 42.426752 
L 212.375235 40.580508 
L 212.628999 39.96 
L 212.882762 40.580508 
L 213.136525 42.426752 
L 213.644052 49.585543 
L 214.151578 60.735623 
L 215.166631 90.36 
L 216.181684 119.984377 
L 216.689211 131.134457 
L 217.196737 138.293248 
L 217.4505 140.139492 
L 217.704264 140.76 
L 217.958027 140.139492 
L 218.21179 138.293248 
L 218.719317 131.134457 
L 219.226843 119.984377 
L 220.495659 86.417851 
L 221.510712 72.540909 
L 222.018239 67.906636 
L 222.525765 65.470254 
L 222.779528 65.16 
L 223.033292 65.470254 
L 223.287055 66.393376 
L 223.794581 69.972772 
L 224.302108 75.547812 
L 225.317161 90.36 
L 226.332214 105.172188 
L 226.83974 110.747228 
L 227.347267 114.326624 
L 227.60103 115.249746 
L 227.854793 115.56 
L 228.108557 115.249746 
L 228.36232 114.326624 
L 228.869846 110.747228 
L 229.377373 105.172188 
L 230.392426 90.36 
L 231.407479 75.547812 
L 231.915005 69.972772 
L 232.422532 66.393376 
L 232.676295 65.470254 
L 232.930058 65.16 
L 233.183822 65.470254 
L 233.437585 66.393376 
L 233.945111 69.972772 
L 234.452638 75.547812 
L 235.467691 90.36 
L 236.482744 105.172188 
L 236.99027 110.747228 
L 237.497797 114.326624 
L 237.75156 115.249746 
L 238.005323 115.56 
L 238.259086 115.249746 
L 238.51285 114.326624 
L 239.020376 110.747228 
L 239.527903 105.172188 
L 240.542956 90.36 
L 241.558009 75.547812 
L 242.065535 69.972772 
L 242.573062 66.393376 
L 242.826825 65.470254 
L 243.080588 65.16 
L 243.334351 65.470254 
L 243.588115 66.393376 
L 244.095641 69.972772 
L 244.603168 75.547812 
L 245.618221 90.36 
L 246.633274 119.984377 
L 247.1408 131.134457 
L 247.648327 138.293248 
L 247.90209 140.139492 
L 248.155853 140.76 
L 248.409616 140.139492 
L 248.663379 138.293248 
L 249.170906 131.134457 
L 249.678432 119.984377 
L 250.693485 90.36 
L 251.708538 60.735623 
L 252.216065 49.585543 
L 252.723591 42.426752 
L 252.977355 40.580508 
L 253.231118 39.96 
L 253.484881 40.580508 
L 253.738644 42.426752 
L 254.246171 49.585543 
L 254.753697 60.735623 
L 255.76875 90.36 
L 256.783803 119.984377 
L 257.29133 131.134457 
L 257.798856 138.293248 
L 258.05262 140.139492 
L 258.306383 140.76 
L 258.560146 140.139492 
L 258.813909 138.293248 
L 259.321436 131.134457 
L 259.828962 119.984377 
L 260.844015 90.36 
L 261.859068 60.735623 
L 262.366595 49.585543 
L 262.874121 42.426752 
L 263.127884 40.580508 
L 263.381648 39.96 
L 263.635411 40.580508 
L 263.889174 42.426752 
L 264.396701 49.585543 
L 264.904227 60.735623 
L 265.91928 90.36 
L 266.934333 119.984377 
L 267.44186 131.134457 
L 267.949386 138.293248 
L 268.203149 140.139492 
L 268.456913 140.76 
L 268.710676 140.139492 
L 268.964439 138.293248 
L 269.471966 131.134457 
L 269.979492 119.984377 
L 270.994545 90.36 
L 296.37087 90.36 
L 297.385923 105.172188 
L 297.893449 110.747228 
L 298.400976 114.326624 
L 298.654739 115.249746 
L 298.908502 115.56 
L 299.162265 115.249746 
L 299.416029 114.326624 
L 299.923555 110.747228 
L 300.431082 105.172188 
L 301.446135 90.36 
L 302.461187 75.547812 
L 302.968714 69.972772 
L 303.47624 66.393376 
L 303.730004 65.470254 
L 303.983767 65.16 
L 304.23753 65.470254 
L 304.491293 66.393376 
L 304.99882 69.972772 
L 305.506346 75.547812 
L 306.521399 90.36 
L 307.536452 105.172188 
L 308.043979 110.747228 
L 308.551505 114.326624 
L 308.805269 115.249746 
L 309.059032 115.56 
L 309.312795 115.249746 
L 309.566558 114.326624 
L 310.074085 110.747228 
L 310.581611 105.172188 
L 311.596664 90.36 
L 312.611717 75.547812 
L 313.119244 69.972772 
L 313.62677 66.393376 
L 313.880534 65.470254 
L 314.134297 65.16 
L 314.38806 65.470254 
L 314.641823 66.393376 
L 315.14935 69.972772 
L 315.656876 75.547812 
L 316.671929 90.36 
L 317.686982 105.172188 
L 318.194509 110.747228 
L 318.702035 114.326624 
L 318.955798 115.249746 
L 319.209562 115.56 
L 319.463325 115.249746 
L 319.717088 114.326624 
L 320.224615 110.747228 
L 320.732141 105.172188 
L 321.747194 90.36 
L 322.762247 45.923435 
L 323.269774 29.198315 
L 323.7773 18.460127 
L 324.031063 15.690761 
L 324.284827 14.76 
L 324.53859 15.690761 
L 324.792353 18.460127 
L 325.29988 29.198315 
L 325.807406 45.923435 
L 326.822459 90.36 
L 327.837512 134.796565 
L 328.345038 151.521685 
L 328.852565 162.259873 
L 329.106328 165.029239 
L 329.360091 165.96 
L 329.613855 165.029239 
L 329.867618 162.259873 
L 330.375144 151.521685 
L 330.882671 134.796565 
L 331.897724 90.36 
L 332.912777 45.923435 
L 333.420303 29.198315 
L 333.92783 18.460127 
L 334.181593 15.690761 
L 334.435356 14.76 
L 334.68912 15.690761 
L 334.942883 18.460127 
L 335.450409 29.198315 
L 335.957936 45.923435 
L 336.972989 90.36 
L 337.988042 134.796565 
L 338.495568 151.521685 
L 339.003095 162.259873 
L 339.256858 165.029239 
L 339.510621 165.96 
L 339.764385 165.029239 
L 340.018148 162.259873 
L 340.525674 151.521685 
L 341.033201 134.796565 
L 342.048254 90.36 
L 343.063307 45.923435 
L 343.570833 29.198315 
L 344.07836 18.460127 
L 344.332123 15.690761 
L 344.585886 14.76 
L 344.839649 15.690761 
L 345.093413 18.460127 
L 345.600939 29.198315 
L 346.108466 45.923435 
L 347.123519 90.36 
L 423.252492 90.36 
L 424.267545 45.923435 
L 424.775072 29.198315 
L 425.282598 18.460127 
L 425.536361 15.690761 
L 425.790125 14.76 
L 426.043888 15.690761 
L 426.297651 18.460127 
L 426.805178 29.198315 
L 427.312704 45.923435 
L 428.327757 90.36 
L 429.34281 134.796565 
L 429.850337 151.521685 
L 430.357863 162.259873 
L 430.611626 165.029239 
L 430.86539 165.96 
L 431.119153 165.029239 
L 431.372916 162.259873 
L 431.880443 151.521685 
L 432.387969 134.796565 
L 433.403022 90.36 
L 434.418075 45.923435 
L 434.925602 29.198315 
L 435.433128 18.460127 
L 435.686891 15.690761 
L 435.940654 14.76 
L 436.194418 15.690761 
L 436.448181 18.460127 
L 436.955707 29.198315 
L 437.463234 45.923435 
L 438.478287 90.36 
L 439.49334 134.796565 
L 440.000866 151.521685 
L 440.508393 162.259873 
L 440.762156 165.029239 
L 441.015919 165.96 
L 441.269683 165.029239 
L 441.523446 162.259873 
L 442.030972 151.521685 
L 442.538499 134.796565 
L 443.553552 90.36 
L 444.568605 45.923435 
L 445.076131 29.198315 
L 445.583658 18.460127 
L 445.837421 15.690761 
L 446.091184 14.76 
L 446.344948 15.690761 
L 446.598711 18.460127 
L 447.106237 29.198315 
L 447.613764 45.923435 
L 448.88258 94.302149 
L 449.897633 108.179091 
L 450.405159 112.813364 
L 450.912686 115.249746 
L 451.166449 115.56 
L 451.420212 115.249746 
L 451.673976 114.326624 
L 452.181502 110.747228 
L 452.689029 105.172188 
L 453.704082 90.36 
L 454.719135 75.547812 
L 455.226661 69.972772 
L 455.734188 66.393376 
L 455.987951 65.470254 
L 456.241714 65.16 
L 456.495477 65.470254 
L 456.749241 66.393376 
L 457.256767 69.972772 
L 457.764294 75.547812 
L 458.779347 90.36 
L 459.7944 105.172188 
L 460.301926 110.747228 
L 460.809453 114.326624 
L 461.063216 115.249746 
L 461.316979 115.56 
L 461.570742 115.249746 
L 461.824506 114.326624 
L 462.332032 110.747228 
L 462.839558 105.172188 
L 463.854611 90.36 
L 464.869664 75.547812 
L 465.377191 69.972772 
L 465.884717 66.393376 
L 466.138481 65.470254 
L 466.392244 65.16 
L 466.646007 65.470254 
L 466.89977 66.393376 
L 467.407297 69.972772 
L 467.914823 75.547812 
L 468.929876 90.36 
L 469.944929 105.172188 
L 470.452456 110.747228 
L 470.959982 114.326624 
L 471.213746 115.249746 
L 471.467509 115.56 
L 471.721272 115.249746 
L 471.975035 114.326624 
L 472.482562 110.747228 
L 472.990088 105.172188 
L 474.005141 90.36 
L 475.020194 45.923435 
L 475.527721 29.198315 
L 476.035247 18.460127 
L 476.28901 15.690761 
L 476.542774 14.76 
L 476.796537 15.690761 
L 477.0503 18.460127 
L 477.557827 29.198315 
L 478.065353 45.923435 
L 479.080406 90.36 
L 480.095459 134.796565 
L 480.602986 151.521685 
L 481.110512 162.259873 
L 481.364275 165.029239 
L 481.618039 165.96 
L 481.871802 165.029239 
L 482.125565 162.259873 
L 482.633092 151.521685 
L 483.140618 134.796565 
L 484.155671 90.36 
L 485.170724 45.923435 
L 485.678251 29.198315 
L 486.185777 18.460127 
L 486.43954 15.690761 
L 486.693304 14.76 
L 486.947067 15.690761 
L 487.20083 18.460127 
L 487.708357 29.198315 
L 488.215883 45.923435 
L 489.230936 90.36 
L 490.245989 134.796565 
L 490.753515 151.521685 
L 491.261042 162.259873 
L 491.514805 165.029239 
L 491.768568 165.96 
L 492.022332 165.029239 
L 492.276095 162.259873 
L 492.783621 151.521685 
L 493.291148 134.796565 
L 494.306201 90.36 
L 495.321254 45.923435 
L 495.82878 29.198315 
L 496.336307 18.460127 
L 496.59007 15.690761 
L 496.843833 14.76 
L 497.097597 15.690761 
L 497.35136 18.460127 
L 497.858886 29.198315 
L 498.366413 45.923435 
L 499.635229 94.302149 
L 500.650282 108.179091 
L 501.157809 112.813364 
L 501.665335 115.249746 
L 501.919098 115.56 
L 502.172862 115.249746 
L 502.426625 114.326624 
L 502.934151 110.747228 
L 503.441678 105.172188 
L 504.456731 90.36 
L 505.471784 75.547812 
L 505.97931 69.972772 
L 506.486837 66.393376 
L 506.7406 65.470254 
L 506.994363 65.16 
L 507.248126 65.470254 
L 507.50189 66.393376 
L 508.009416 69.972772 
L 508.516943 75.547812 
L 509.531996 90.36 
L 510.547049 105.172188 
L 511.054575 110.747228 
L 511.562102 114.326624 
L 511.815865 115.249746 
L 512.069628 115.56 
L 512.323391 115.249746 
L 512.577155 114.326624 
L 513.084681 110.747228 
L 513.592208 105.172188 
L 514.607261 90.36 
L 515.622314 75.547812 
L 516.12984 69.972772 
L 516.637366 66.393376 
L 516.89113 65.470254 
L 517.144893 65.16 
L 517.398656 65.470254 
L 517.652419 66.393376 
L 518.159946 69.972772 
L 518.667472 75.547812 
L 519.682525 90.36 
L 520.697578 105.172188 
L 521.205105 110.747228 
L 521.712631 114.326624 
L 521.966395 115.249746 
L 522.220158 115.56 
L 522.473921 115.249746 
L 522.727684 114.326624 
L 523.235211 110.747228 
L 523.742737 105.172188 
L 524.75779 90.36 
L 550.134115 90.36 
L 551.149168 105.172188 
L 551.656694 110.747228 
L 552.164221 114.326624 
L 552.417984 115.249746 
L 552.671747 115.56 
L 552.925511 115.249746 
L 553.179274 114.326624 
L 553.6868 110.747228 
L 554.194327 105.172188 
L 555.20938 90.36 
L 556.224433 75.547812 
L 556.731959 69.972772 
L 557.239486 66.393376 
L 557.493249 65.470254 
L 557.747012 65.16 
L 558.000775 65.470254 
L 558.254539 66.393376 
L 558.762065 69.972772 
L 559.269592 75.547812 
L 560.284645 90.36 
L 561.299698 105.172188 
L 561.807224 110.747228 
L 562.314751 114.326624 
L 562.568514 115.249746 
L 562.822277 115.56 
L 563.07604 115.249746 
L 563.329804 114.326624 
L 563.83733 110.747228 
L 564.344857 105.172188 
L 565.35991 90.36 
L 566.374963 75.547812 
L 566.882489 69.972772 
L 567.390016 66.393376 
L 567.643779 65.470254 
L 567.897542 65.16 
L 568.151305 65.470254 
L 568.405069 66.393376 
L 568.912595 69.972772 
L 569.420121 75.547812 
L 570.435174 90.36 
L 571.450227 105.172188 
L 571.957754 110.747228 
L 572.46528 114.326624 
L 572.719044 115.249746 
L 572.972807 115.56 
L 573.22657 115.249746 
L 573.480333 114.326624 
L 573.98786 110.747228 
L 574.495386 105.172188 
L 575.256676 94.302149 
L 575.256676 94.302149 
" style="fill:none;stroke:#1f77b4;stroke-linecap:square;stroke-width:1.5;"/>
   </g>
   <g id="patch_3">
    <path d="M 42.620312 173.52 
L 42.620312 7.2 
" style="fill:none;stroke:#000000;stroke-linecap:square;stroke-linejoin:miter;stroke-width:0.8;"/>
   </g>
   <g id="patch_4">
    <path d="M 600.620312 173.52 
L 600.620312 7.2 
" style="fill:none;stroke:#000000;stroke-linecap:square;stroke-linejoin:miter;stroke-width:0.8;"/>
   </g>
   <g id="patch_5">
    <path d="M 42.620312 173.52 
L 600.620312 173.52 
" style="fill:none;stroke:#000000;stroke-linecap:square;stroke-linejoin:miter;stroke-width:0.8;"/>
   </g>
   <g id="patch_6">
    <path d="M 42.620312 7.2 
L 600.620312 7.2 
" style="fill:none;stroke:#000000;stroke-linecap:square;stroke-linejoin:miter;stroke-width:0.8;"/>
   </g>
  </g>
 </g>
 <defs>
  <clipPath id="p46e6f5b705">
   <rect height="166.32" width="558" x="42.620312" y="7.2"/>
  </clipPath>
 </defs>
</svg>
