<?xml version="1.0" encoding="utf-8" standalone="no"?>
<!DOCTYPE svg PUBLIC "-//W3C//DTD SVG 1.1//EN"
  "http://www.w3.org/Graphics/SVG/1.1/DTD/svg11.dtd">
<!-- Created with matplotlib (https://matplotlib.org/) -->
<svg height="337.074375pt" version="1.1" viewBox="0 0 616.932812 337.074375" width="616.932812pt" xmlns="http://www.w3.org/2000/svg" xmlns:xlink="http://www.w3.org/1999/xlink">
 <defs>
  <style type="text/css">
*{stroke-linecap:butt;stroke-linejoin:round;}
  </style>
 </defs>
 <g id="figure_1">
  <g id="patch_1">
   <path d="M 0 337.074375 
L 616.932812 337.074375 
L 616.932812 0 
L 0 0 
z
" style="fill:#ffffff;"/>
  </g>
  <g id="axes_1">
   <g id="patch_2">
    <path d="M 43.78125 137.818125 
L 601.78125 137.818125 
L 601.78125 22.318125 
L 43.78125 22.318125 
z
" style="fill:#ffffff;"/>
   </g>
   <g id="matplotlib.axis_1">
    <g id="xtick_1">
     <g id="line2d_1">
      <defs>
       <path d="M 0 0 
L 0 3.5 
" id="m434601219c" style="stroke:#000000;stroke-width:0.8;"/>
      </defs>
      <g>
       <use style="stroke:#000000;stroke-width:0.8;" x="43.78125" xlink:href="#m434601219c" y="137.818125"/>
      </g>
     </g>
     <g id="text_1">
      <!-- 0.0 -->
      <defs>
       <path d="M 31.78125 66.40625 
Q 24.171875 66.40625 20.328125 58.90625 
Q 16.5 51.421875 16.5 36.375 
Q 16.5 21.390625 20.328125 13.890625 
Q 24.171875 6.390625 31.78125 6.390625 
Q 39.453125 6.390625 43.28125 13.890625 
Q 47.125 21.390625 47.125 36.375 
Q 47.125 51.421875 43.28125 58.90625 
Q 39.453125 66.40625 31.78125 66.40625 
z
M 31.78125 74.21875 
Q 44.046875 74.21875 50.515625 64.515625 
Q 56.984375 54.828125 56.984375 36.375 
Q 56.984375 17.96875 50.515625 8.265625 
Q 44.046875 -1.421875 31.78125 -1.421875 
Q 19.53125 -1.421875 13.0625 8.265625 
Q 6.59375 17.96875 6.59375 36.375 
Q 6.59375 54.828125 13.0625 64.515625 
Q 19.53125 74.21875 31.78125 74.21875 
z
" id="DejaVuSans-48"/>
       <path d="M 10.6875 12.40625 
L 21 12.40625 
L 21 0 
L 10.6875 0 
z
" id="DejaVuSans-46"/>
      </defs>
      <g transform="translate(35.829688 152.416563)scale(0.1 -0.1)">
       <use xlink:href="#DejaVuSans-48"/>
       <use x="63.623047" xlink:href="#DejaVuSans-46"/>
       <use x="95.410156" xlink:href="#DejaVuSans-48"/>
      </g>
     </g>
    </g>
    <g id="xtick_2">
     <g id="line2d_2">
      <g>
       <use style="stroke:#000000;stroke-width:0.8;" x="155.38125" xlink:href="#m434601219c" y="137.818125"/>
      </g>
     </g>
     <g id="text_2">
      <!-- 0.2 -->
      <defs>
       <path d="M 19.1875 8.296875 
L 53.609375 8.296875 
L 53.609375 0 
L 7.328125 0 
L 7.328125 8.296875 
Q 12.9375 14.109375 22.625 23.890625 
Q 32.328125 33.6875 34.8125 36.53125 
Q 39.546875 41.84375 41.421875 45.53125 
Q 43.3125 49.21875 43.3125 52.78125 
Q 43.3125 58.59375 39.234375 62.25 
Q 35.15625 65.921875 28.609375 65.921875 
Q 23.96875 65.921875 18.8125 64.3125 
Q 13.671875 62.703125 7.8125 59.421875 
L 7.8125 69.390625 
Q 13.765625 71.78125 18.9375 73 
Q 24.125 74.21875 28.421875 74.21875 
Q 39.75 74.21875 46.484375 68.546875 
Q 53.21875 62.890625 53.21875 53.421875 
Q 53.21875 48.921875 51.53125 44.890625 
Q 49.859375 40.875 45.40625 35.40625 
Q 44.1875 33.984375 37.640625 27.21875 
Q 31.109375 20.453125 19.1875 8.296875 
z
" id="DejaVuSans-50"/>
      </defs>
      <g transform="translate(147.429688 152.416563)scale(0.1 -0.1)">
       <use xlink:href="#DejaVuSans-48"/>
       <use x="63.623047" xlink:href="#DejaVuSans-46"/>
       <use x="95.410156" xlink:href="#DejaVuSans-50"/>
      </g>
     </g>
    </g>
    <g id="xtick_3">
     <g id="line2d_3">
      <g>
       <use style="stroke:#000000;stroke-width:0.8;" x="266.98125" xlink:href="#m434601219c" y="137.818125"/>
      </g>
     </g>
     <g id="text_3">
      <!-- 0.4 -->
      <defs>
       <path d="M 37.796875 64.3125 
L 12.890625 25.390625 
L 37.796875 25.390625 
z
M 35.203125 72.90625 
L 47.609375 72.90625 
L 47.609375 25.390625 
L 58.015625 25.390625 
L 58.015625 17.1875 
L 47.609375 17.1875 
L 47.609375 0 
L 37.796875 0 
L 37.796875 17.1875 
L 4.890625 17.1875 
L 4.890625 26.703125 
z
" id="DejaVuSans-52"/>
      </defs>
      <g transform="translate(259.029688 152.416563)scale(0.1 -0.1)">
       <use xlink:href="#DejaVuSans-48"/>
       <use x="63.623047" xlink:href="#DejaVuSans-46"/>
       <use x="95.410156" xlink:href="#DejaVuSans-52"/>
      </g>
     </g>
    </g>
    <g id="xtick_4">
     <g id="line2d_4">
      <g>
       <use style="stroke:#000000;stroke-width:0.8;" x="378.58125" xlink:href="#m434601219c" y="137.818125"/>
      </g>
     </g>
     <g id="text_4">
      <!-- 0.6 -->
      <defs>
       <path d="M 33.015625 40.375 
Q 26.375 40.375 22.484375 35.828125 
Q 18.609375 31.296875 18.609375 23.390625 
Q 18.609375 15.53125 22.484375 10.953125 
Q 26.375 6.390625 33.015625 6.390625 
Q 39.65625 6.390625 43.53125 10.953125 
Q 47.40625 15.53125 47.40625 23.390625 
Q 47.40625 31.296875 43.53125 35.828125 
Q 39.65625 40.375 33.015625 40.375 
z
M 52.59375 71.296875 
L 52.59375 62.3125 
Q 48.875 64.0625 45.09375 64.984375 
Q 41.3125 65.921875 37.59375 65.921875 
Q 27.828125 65.921875 22.671875 59.328125 
Q 17.53125 52.734375 16.796875 39.40625 
Q 19.671875 43.65625 24.015625 45.921875 
Q 28.375 48.1875 33.59375 48.1875 
Q 44.578125 48.1875 50.953125 41.515625 
Q 57.328125 34.859375 57.328125 23.390625 
Q 57.328125 12.15625 50.6875 5.359375 
Q 44.046875 -1.421875 33.015625 -1.421875 
Q 20.359375 -1.421875 13.671875 8.265625 
Q 6.984375 17.96875 6.984375 36.375 
Q 6.984375 53.65625 15.1875 63.9375 
Q 23.390625 74.21875 37.203125 74.21875 
Q 40.921875 74.21875 44.703125 73.484375 
Q 48.484375 72.75 52.59375 71.296875 
z
" id="DejaVuSans-54"/>
      </defs>
      <g transform="translate(370.629688 152.416563)scale(0.1 -0.1)">
       <use xlink:href="#DejaVuSans-48"/>
       <use x="63.623047" xlink:href="#DejaVuSans-46"/>
       <use x="95.410156" xlink:href="#DejaVuSans-54"/>
      </g>
     </g>
    </g>
    <g id="xtick_5">
     <g id="line2d_5">
      <g>
       <use style="stroke:#000000;stroke-width:0.8;" x="490.18125" xlink:href="#m434601219c" y="137.818125"/>
      </g>
     </g>
     <g id="text_5">
      <!-- 0.8 -->
      <defs>
       <path d="M 31.78125 34.625 
Q 24.75 34.625 20.71875 30.859375 
Q 16.703125 27.09375 16.703125 20.515625 
Q 16.703125 13.921875 20.71875 10.15625 
Q 24.75 6.390625 31.78125 6.390625 
Q 38.8125 6.390625 42.859375 10.171875 
Q 46.921875 13.96875 46.921875 20.515625 
Q 46.921875 27.09375 42.890625 30.859375 
Q 38.875 34.625 31.78125 34.625 
z
M 21.921875 38.8125 
Q 15.578125 40.375 12.03125 44.71875 
Q 8.5 49.078125 8.5 55.328125 
Q 8.5 64.0625 14.71875 69.140625 
Q 20.953125 74.21875 31.78125 74.21875 
Q 42.671875 74.21875 48.875 69.140625 
Q 55.078125 64.0625 55.078125 55.328125 
Q 55.078125 49.078125 51.53125 44.71875 
Q 48 40.375 41.703125 38.8125 
Q 48.828125 37.15625 52.796875 32.3125 
Q 56.78125 27.484375 56.78125 20.515625 
Q 56.78125 9.90625 50.3125 4.234375 
Q 43.84375 -1.421875 31.78125 -1.421875 
Q 19.734375 -1.421875 13.25 4.234375 
Q 6.78125 9.90625 6.78125 20.515625 
Q 6.78125 27.484375 10.78125 32.3125 
Q 14.796875 37.15625 21.921875 38.8125 
z
M 18.3125 54.390625 
Q 18.3125 48.734375 21.84375 45.5625 
Q 25.390625 42.390625 31.78125 42.390625 
Q 38.140625 42.390625 41.71875 45.5625 
Q 45.3125 48.734375 45.3125 54.390625 
Q 45.3125 60.0625 41.71875 63.234375 
Q 38.140625 66.40625 31.78125 66.40625 
Q 25.390625 66.40625 21.84375 63.234375 
Q 18.3125 60.0625 18.3125 54.390625 
z
" id="DejaVuSans-56"/>
      </defs>
      <g transform="translate(482.229688 152.416563)scale(0.1 -0.1)">
       <use xlink:href="#DejaVuSans-48"/>
       <use x="63.623047" xlink:href="#DejaVuSans-46"/>
       <use x="95.410156" xlink:href="#DejaVuSans-56"/>
      </g>
     </g>
    </g>
    <g id="xtick_6">
     <g id="line2d_6">
      <g>
       <use style="stroke:#000000;stroke-width:0.8;" x="601.78125" xlink:href="#m434601219c" y="137.818125"/>
      </g>
     </g>
     <g id="text_6">
      <!-- 1.0 -->
      <defs>
       <path d="M 12.40625 8.296875 
L 28.515625 8.296875 
L 28.515625 63.921875 
L 10.984375 60.40625 
L 10.984375 69.390625 
L 28.421875 72.90625 
L 38.28125 72.90625 
L 38.28125 8.296875 
L 54.390625 8.296875 
L 54.390625 0 
L 12.40625 0 
z
" id="DejaVuSans-49"/>
      </defs>
      <g transform="translate(593.829687 152.416563)scale(0.1 -0.1)">
       <use xlink:href="#DejaVuSans-49"/>
       <use x="63.623047" xlink:href="#DejaVuSans-46"/>
       <use x="95.410156" xlink:href="#DejaVuSans-48"/>
      </g>
     </g>
    </g>
   </g>
   <g id="matplotlib.axis_2">
    <g id="ytick_1">
     <g id="line2d_7">
      <defs>
       <path d="M 0 0 
L -3.5 0 
" id="m6061eea412" style="stroke:#000000;stroke-width:0.8;"/>
      </defs>
      <g>
       <use style="stroke:#000000;stroke-width:0.8;" x="43.78125" xlink:href="#m6061eea412" y="137.818125"/>
      </g>
     </g>
     <g id="text_7">
      <!-- 0.5 -->
      <defs>
       <path d="M 10.796875 72.90625 
L 49.515625 72.90625 
L 49.515625 64.59375 
L 19.828125 64.59375 
L 19.828125 46.734375 
Q 21.96875 47.46875 24.109375 47.828125 
Q 26.265625 48.1875 28.421875 48.1875 
Q 40.625 48.1875 47.75 41.5 
Q 54.890625 34.8125 54.890625 23.390625 
Q 54.890625 11.625 47.5625 5.09375 
Q 40.234375 -1.421875 26.90625 -1.421875 
Q 22.3125 -1.421875 17.546875 -0.640625 
Q 12.796875 0.140625 7.71875 1.703125 
L 7.71875 11.625 
Q 12.109375 9.234375 16.796875 8.0625 
Q 21.484375 6.890625 26.703125 6.890625 
Q 35.15625 6.890625 40.078125 11.328125 
Q 45.015625 15.765625 45.015625 23.390625 
Q 45.015625 31 40.078125 35.4375 
Q 35.15625 39.890625 26.703125 39.890625 
Q 22.75 39.890625 18.8125 39.015625 
Q 14.890625 38.140625 10.796875 36.28125 
z
" id="DejaVuSans-53"/>
      </defs>
      <g transform="translate(20.878125 141.617344)scale(0.1 -0.1)">
       <use xlink:href="#DejaVuSans-48"/>
       <use x="63.623047" xlink:href="#DejaVuSans-46"/>
       <use x="95.410156" xlink:href="#DejaVuSans-53"/>
      </g>
     </g>
    </g>
    <g id="ytick_2">
     <g id="line2d_8">
      <g>
       <use style="stroke:#000000;stroke-width:0.8;" x="43.78125" xlink:href="#m6061eea412" y="108.943125"/>
      </g>
     </g>
     <g id="text_8">
      <!-- 1.0 -->
      <g transform="translate(20.878125 112.742344)scale(0.1 -0.1)">
       <use xlink:href="#DejaVuSans-49"/>
       <use x="63.623047" xlink:href="#DejaVuSans-46"/>
       <use x="95.410156" xlink:href="#DejaVuSans-48"/>
      </g>
     </g>
    </g>
    <g id="ytick_3">
     <g id="line2d_9">
      <g>
       <use style="stroke:#000000;stroke-width:0.8;" x="43.78125" xlink:href="#m6061eea412" y="80.068125"/>
      </g>
     </g>
     <g id="text_9">
      <!-- 1.5 -->
      <g transform="translate(20.878125 83.867344)scale(0.1 -0.1)">
       <use xlink:href="#DejaVuSans-49"/>
       <use x="63.623047" xlink:href="#DejaVuSans-46"/>
       <use x="95.410156" xlink:href="#DejaVuSans-53"/>
      </g>
     </g>
    </g>
    <g id="ytick_4">
     <g id="line2d_10">
      <g>
       <use style="stroke:#000000;stroke-width:0.8;" x="43.78125" xlink:href="#m6061eea412" y="51.193125"/>
      </g>
     </g>
     <g id="text_10">
      <!-- 2.0 -->
      <g transform="translate(20.878125 54.992344)scale(0.1 -0.1)">
       <use xlink:href="#DejaVuSans-50"/>
       <use x="63.623047" xlink:href="#DejaVuSans-46"/>
       <use x="95.410156" xlink:href="#DejaVuSans-48"/>
      </g>
     </g>
    </g>
    <g id="ytick_5">
     <g id="line2d_11">
      <g>
       <use style="stroke:#000000;stroke-width:0.8;" x="43.78125" xlink:href="#m6061eea412" y="22.318125"/>
      </g>
     </g>
     <g id="text_11">
      <!-- 2.5 -->
      <g transform="translate(20.878125 26.117344)scale(0.1 -0.1)">
       <use xlink:href="#DejaVuSans-50"/>
       <use x="63.623047" xlink:href="#DejaVuSans-46"/>
       <use x="95.410156" xlink:href="#DejaVuSans-53"/>
      </g>
     </g>
    </g>
    <g id="text_12">
     <!-- Amplitude -->
     <defs>
      <path d="M 34.1875 63.1875 
L 20.796875 26.90625 
L 47.609375 26.90625 
z
M 28.609375 72.90625 
L 39.796875 72.90625 
L 67.578125 0 
L 57.328125 0 
L 50.6875 18.703125 
L 17.828125 18.703125 
L 11.1875 0 
L 0.78125 0 
z
" id="DejaVuSans-65"/>
      <path d="M 52 44.1875 
Q 55.375 50.25 60.0625 53.125 
Q 64.75 56 71.09375 56 
Q 79.640625 56 84.28125 50.015625 
Q 88.921875 44.046875 88.921875 33.015625 
L 88.921875 0 
L 79.890625 0 
L 79.890625 32.71875 
Q 79.890625 40.578125 77.09375 44.375 
Q 74.3125 48.1875 68.609375 48.1875 
Q 61.625 48.1875 57.5625 43.546875 
Q 53.515625 38.921875 53.515625 30.90625 
L 53.515625 0 
L 44.484375 0 
L 44.484375 32.71875 
Q 44.484375 40.625 41.703125 44.40625 
Q 38.921875 48.1875 33.109375 48.1875 
Q 26.21875 48.1875 22.15625 43.53125 
Q 18.109375 38.875 18.109375 30.90625 
L 18.109375 0 
L 9.078125 0 
L 9.078125 54.6875 
L 18.109375 54.6875 
L 18.109375 46.1875 
Q 21.1875 51.21875 25.484375 53.609375 
Q 29.78125 56 35.6875 56 
Q 41.65625 56 45.828125 52.96875 
Q 50 49.953125 52 44.1875 
z
" id="DejaVuSans-109"/>
      <path d="M 18.109375 8.203125 
L 18.109375 -20.796875 
L 9.078125 -20.796875 
L 9.078125 54.6875 
L 18.109375 54.6875 
L 18.109375 46.390625 
Q 20.953125 51.265625 25.265625 53.625 
Q 29.59375 56 35.59375 56 
Q 45.5625 56 51.78125 48.09375 
Q 58.015625 40.1875 58.015625 27.296875 
Q 58.015625 14.40625 51.78125 6.484375 
Q 45.5625 -1.421875 35.59375 -1.421875 
Q 29.59375 -1.421875 25.265625 0.953125 
Q 20.953125 3.328125 18.109375 8.203125 
z
M 48.6875 27.296875 
Q 48.6875 37.203125 44.609375 42.84375 
Q 40.53125 48.484375 33.40625 48.484375 
Q 26.265625 48.484375 22.1875 42.84375 
Q 18.109375 37.203125 18.109375 27.296875 
Q 18.109375 17.390625 22.1875 11.75 
Q 26.265625 6.109375 33.40625 6.109375 
Q 40.53125 6.109375 44.609375 11.75 
Q 48.6875 17.390625 48.6875 27.296875 
z
" id="DejaVuSans-112"/>
      <path d="M 9.421875 75.984375 
L 18.40625 75.984375 
L 18.40625 0 
L 9.421875 0 
z
" id="DejaVuSans-108"/>
      <path d="M 9.421875 54.6875 
L 18.40625 54.6875 
L 18.40625 0 
L 9.421875 0 
z
M 9.421875 75.984375 
L 18.40625 75.984375 
L 18.40625 64.59375 
L 9.421875 64.59375 
z
" id="DejaVuSans-105"/>
      <path d="M 18.3125 70.21875 
L 18.3125 54.6875 
L 36.8125 54.6875 
L 36.8125 47.703125 
L 18.3125 47.703125 
L 18.3125 18.015625 
Q 18.3125 11.328125 20.140625 9.421875 
Q 21.96875 7.515625 27.59375 7.515625 
L 36.8125 7.515625 
L 36.8125 0 
L 27.59375 0 
Q 17.1875 0 13.234375 3.875 
Q 9.28125 7.765625 9.28125 18.015625 
L 9.28125 47.703125 
L 2.6875 47.703125 
L 2.6875 54.6875 
L 9.28125 54.6875 
L 9.28125 70.21875 
z
" id="DejaVuSans-116"/>
      <path d="M 8.5 21.578125 
L 8.5 54.6875 
L 17.484375 54.6875 
L 17.484375 21.921875 
Q 17.484375 14.15625 20.5 10.265625 
Q 23.53125 6.390625 29.59375 6.390625 
Q 36.859375 6.390625 41.078125 11.03125 
Q 45.3125 15.671875 45.3125 23.6875 
L 45.3125 54.6875 
L 54.296875 54.6875 
L 54.296875 0 
L 45.3125 0 
L 45.3125 8.40625 
Q 42.046875 3.421875 37.71875 1 
Q 33.40625 -1.421875 27.6875 -1.421875 
Q 18.265625 -1.421875 13.375 4.4375 
Q 8.5 10.296875 8.5 21.578125 
z
M 31.109375 56 
z
" id="DejaVuSans-117"/>
      <path d="M 45.40625 46.390625 
L 45.40625 75.984375 
L 54.390625 75.984375 
L 54.390625 0 
L 45.40625 0 
L 45.40625 8.203125 
Q 42.578125 3.328125 38.25 0.953125 
Q 33.9375 -1.421875 27.875 -1.421875 
Q 17.96875 -1.421875 11.734375 6.484375 
Q 5.515625 14.40625 5.515625 27.296875 
Q 5.515625 40.1875 11.734375 48.09375 
Q 17.96875 56 27.875 56 
Q 33.9375 56 38.25 53.625 
Q 42.578125 51.265625 45.40625 46.390625 
z
M 14.796875 27.296875 
Q 14.796875 17.390625 18.875 11.75 
Q 22.953125 6.109375 30.078125 6.109375 
Q 37.203125 6.109375 41.296875 11.75 
Q 45.40625 17.390625 45.40625 27.296875 
Q 45.40625 37.203125 41.296875 42.84375 
Q 37.203125 48.484375 30.078125 48.484375 
Q 22.953125 48.484375 18.875 42.84375 
Q 14.796875 37.203125 14.796875 27.296875 
z
" id="DejaVuSans-100"/>
      <path d="M 56.203125 29.59375 
L 56.203125 25.203125 
L 14.890625 25.203125 
Q 15.484375 15.921875 20.484375 11.0625 
Q 25.484375 6.203125 34.421875 6.203125 
Q 39.59375 6.203125 44.453125 7.46875 
Q 49.3125 8.734375 54.109375 11.28125 
L 54.109375 2.78125 
Q 49.265625 0.734375 44.1875 -0.34375 
Q 39.109375 -1.421875 33.890625 -1.421875 
Q 20.796875 -1.421875 13.15625 6.1875 
Q 5.515625 13.8125 5.515625 26.8125 
Q 5.515625 40.234375 12.765625 48.109375 
Q 20.015625 56 32.328125 56 
Q 43.359375 56 49.78125 48.890625 
Q 56.203125 41.796875 56.203125 29.59375 
z
M 47.21875 32.234375 
Q 47.125 39.59375 43.09375 43.984375 
Q 39.0625 48.390625 32.421875 48.390625 
Q 24.90625 48.390625 20.390625 44.140625 
Q 15.875 39.890625 15.1875 32.171875 
z
" id="DejaVuSans-101"/>
     </defs>
     <g transform="translate(14.798438 105.690781)rotate(-90)scale(0.1 -0.1)">
      <use xlink:href="#DejaVuSans-65"/>
      <use x="68.408203" xlink:href="#DejaVuSans-109"/>
      <use x="165.820312" xlink:href="#DejaVuSans-112"/>
      <use x="229.296875" xlink:href="#DejaVuSans-108"/>
      <use x="257.080078" xlink:href="#DejaVuSans-105"/>
      <use x="284.863281" xlink:href="#DejaVuSans-116"/>
      <use x="324.072266" xlink:href="#DejaVuSans-117"/>
      <use x="387.451172" xlink:href="#DejaVuSans-100"/>
      <use x="450.927734" xlink:href="#DejaVuSans-101"/>
     </g>
    </g>
   </g>
   <g id="line2d_12">
    <path clip-path="url(#pa3c9d37d2a)" d="M 43.78125 108.943125 
L 99.02325 108.943125 
L 99.58125 51.193125 
L 154.82325 51.193125 
L 155.38125 108.943125 
L 210.62325 108.943125 
L 211.18125 51.193125 
L 266.42325 51.193125 
L 266.98125 108.943125 
L 433.82325 108.943125 
L 434.38125 51.193125 
L 545.42325 51.193125 
L 545.98125 108.943125 
L 601.22325 108.943125 
L 601.22325 108.943125 
" style="fill:none;stroke:#1f77b4;stroke-linecap:square;stroke-width:1.5;"/>
   </g>
   <g id="line2d_13">
    <defs>
     <path d="M 0 1.5 
C 0.397805 1.5 0.77937 1.341951 1.06066 1.06066 
C 1.341951 0.77937 1.5 0.397805 1.5 0 
C 1.5 -0.397805 1.341951 -0.77937 1.06066 -1.06066 
C 0.77937 -1.341951 0.397805 -1.5 0 -1.5 
C -0.397805 -1.5 -0.77937 -1.341951 -1.06066 -1.06066 
C -1.341951 -0.77937 -1.5 -0.397805 -1.5 0 
C -1.5 0.397805 -1.341951 0.77937 -1.06066 1.06066 
C -0.77937 1.341951 -0.397805 1.5 0 1.5 
z
" id="m1b19b0f3f0" style="stroke:#ff0000;"/>
    </defs>
    <g clip-path="url(#pa3c9d37d2a)">
     <use style="fill:#ff0000;stroke:#ff0000;" x="43.78125" xlink:href="#m1b19b0f3f0" y="108.943125"/>
     <use style="fill:#ff0000;stroke:#ff0000;" x="49.36125" xlink:href="#m1b19b0f3f0" y="108.943125"/>
     <use style="fill:#ff0000;stroke:#ff0000;" x="54.94125" xlink:href="#m1b19b0f3f0" y="108.943125"/>
     <use style="fill:#ff0000;stroke:#ff0000;" x="60.52125" xlink:href="#m1b19b0f3f0" y="108.943125"/>
     <use style="fill:#ff0000;stroke:#ff0000;" x="66.10125" xlink:href="#m1b19b0f3f0" y="108.943125"/>
     <use style="fill:#ff0000;stroke:#ff0000;" x="71.68125" xlink:href="#m1b19b0f3f0" y="108.943125"/>
     <use style="fill:#ff0000;stroke:#ff0000;" x="77.26125" xlink:href="#m1b19b0f3f0" y="108.943125"/>
     <use style="fill:#ff0000;stroke:#ff0000;" x="82.84125" xlink:href="#m1b19b0f3f0" y="108.943125"/>
     <use style="fill:#ff0000;stroke:#ff0000;" x="88.42125" xlink:href="#m1b19b0f3f0" y="108.943125"/>
     <use style="fill:#ff0000;stroke:#ff0000;" x="94.00125" xlink:href="#m1b19b0f3f0" y="108.943125"/>
     <use style="fill:#ff0000;stroke:#ff0000;" x="99.58125" xlink:href="#m1b19b0f3f0" y="51.193125"/>
     <use style="fill:#ff0000;stroke:#ff0000;" x="105.16125" xlink:href="#m1b19b0f3f0" y="51.193125"/>
     <use style="fill:#ff0000;stroke:#ff0000;" x="110.74125" xlink:href="#m1b19b0f3f0" y="51.193125"/>
     <use style="fill:#ff0000;stroke:#ff0000;" x="116.32125" xlink:href="#m1b19b0f3f0" y="51.193125"/>
     <use style="fill:#ff0000;stroke:#ff0000;" x="121.90125" xlink:href="#m1b19b0f3f0" y="51.193125"/>
     <use style="fill:#ff0000;stroke:#ff0000;" x="127.48125" xlink:href="#m1b19b0f3f0" y="51.193125"/>
     <use style="fill:#ff0000;stroke:#ff0000;" x="133.06125" xlink:href="#m1b19b0f3f0" y="51.193125"/>
     <use style="fill:#ff0000;stroke:#ff0000;" x="138.64125" xlink:href="#m1b19b0f3f0" y="51.193125"/>
     <use style="fill:#ff0000;stroke:#ff0000;" x="144.22125" xlink:href="#m1b19b0f3f0" y="51.193125"/>
     <use style="fill:#ff0000;stroke:#ff0000;" x="149.80125" xlink:href="#m1b19b0f3f0" y="51.193125"/>
     <use style="fill:#ff0000;stroke:#ff0000;" x="155.38125" xlink:href="#m1b19b0f3f0" y="108.943125"/>
     <use style="fill:#ff0000;stroke:#ff0000;" x="160.96125" xlink:href="#m1b19b0f3f0" y="108.943125"/>
     <use style="fill:#ff0000;stroke:#ff0000;" x="166.54125" xlink:href="#m1b19b0f3f0" y="108.943125"/>
     <use style="fill:#ff0000;stroke:#ff0000;" x="172.12125" xlink:href="#m1b19b0f3f0" y="108.943125"/>
     <use style="fill:#ff0000;stroke:#ff0000;" x="177.70125" xlink:href="#m1b19b0f3f0" y="108.943125"/>
     <use style="fill:#ff0000;stroke:#ff0000;" x="183.28125" xlink:href="#m1b19b0f3f0" y="108.943125"/>
     <use style="fill:#ff0000;stroke:#ff0000;" x="188.86125" xlink:href="#m1b19b0f3f0" y="108.943125"/>
     <use style="fill:#ff0000;stroke:#ff0000;" x="194.44125" xlink:href="#m1b19b0f3f0" y="108.943125"/>
     <use style="fill:#ff0000;stroke:#ff0000;" x="200.02125" xlink:href="#m1b19b0f3f0" y="108.943125"/>
     <use style="fill:#ff0000;stroke:#ff0000;" x="205.60125" xlink:href="#m1b19b0f3f0" y="108.943125"/>
     <use style="fill:#ff0000;stroke:#ff0000;" x="211.18125" xlink:href="#m1b19b0f3f0" y="51.193125"/>
     <use style="fill:#ff0000;stroke:#ff0000;" x="216.76125" xlink:href="#m1b19b0f3f0" y="51.193125"/>
     <use style="fill:#ff0000;stroke:#ff0000;" x="222.34125" xlink:href="#m1b19b0f3f0" y="51.193125"/>
     <use style="fill:#ff0000;stroke:#ff0000;" x="227.92125" xlink:href="#m1b19b0f3f0" y="51.193125"/>
     <use style="fill:#ff0000;stroke:#ff0000;" x="233.50125" xlink:href="#m1b19b0f3f0" y="51.193125"/>
     <use style="fill:#ff0000;stroke:#ff0000;" x="239.08125" xlink:href="#m1b19b0f3f0" y="51.193125"/>
     <use style="fill:#ff0000;stroke:#ff0000;" x="244.66125" xlink:href="#m1b19b0f3f0" y="51.193125"/>
     <use style="fill:#ff0000;stroke:#ff0000;" x="250.24125" xlink:href="#m1b19b0f3f0" y="51.193125"/>
     <use style="fill:#ff0000;stroke:#ff0000;" x="255.82125" xlink:href="#m1b19b0f3f0" y="51.193125"/>
     <use style="fill:#ff0000;stroke:#ff0000;" x="261.40125" xlink:href="#m1b19b0f3f0" y="51.193125"/>
     <use style="fill:#ff0000;stroke:#ff0000;" x="266.98125" xlink:href="#m1b19b0f3f0" y="108.943125"/>
     <use style="fill:#ff0000;stroke:#ff0000;" x="272.56125" xlink:href="#m1b19b0f3f0" y="108.943125"/>
     <use style="fill:#ff0000;stroke:#ff0000;" x="278.14125" xlink:href="#m1b19b0f3f0" y="108.943125"/>
     <use style="fill:#ff0000;stroke:#ff0000;" x="283.72125" xlink:href="#m1b19b0f3f0" y="108.943125"/>
     <use style="fill:#ff0000;stroke:#ff0000;" x="289.30125" xlink:href="#m1b19b0f3f0" y="108.943125"/>
     <use style="fill:#ff0000;stroke:#ff0000;" x="294.88125" xlink:href="#m1b19b0f3f0" y="108.943125"/>
     <use style="fill:#ff0000;stroke:#ff0000;" x="300.46125" xlink:href="#m1b19b0f3f0" y="108.943125"/>
     <use style="fill:#ff0000;stroke:#ff0000;" x="306.04125" xlink:href="#m1b19b0f3f0" y="108.943125"/>
     <use style="fill:#ff0000;stroke:#ff0000;" x="311.62125" xlink:href="#m1b19b0f3f0" y="108.943125"/>
     <use style="fill:#ff0000;stroke:#ff0000;" x="317.20125" xlink:href="#m1b19b0f3f0" y="108.943125"/>
     <use style="fill:#ff0000;stroke:#ff0000;" x="322.78125" xlink:href="#m1b19b0f3f0" y="108.943125"/>
     <use style="fill:#ff0000;stroke:#ff0000;" x="328.36125" xlink:href="#m1b19b0f3f0" y="108.943125"/>
     <use style="fill:#ff0000;stroke:#ff0000;" x="333.94125" xlink:href="#m1b19b0f3f0" y="108.943125"/>
     <use style="fill:#ff0000;stroke:#ff0000;" x="339.52125" xlink:href="#m1b19b0f3f0" y="108.943125"/>
     <use style="fill:#ff0000;stroke:#ff0000;" x="345.10125" xlink:href="#m1b19b0f3f0" y="108.943125"/>
     <use style="fill:#ff0000;stroke:#ff0000;" x="350.68125" xlink:href="#m1b19b0f3f0" y="108.943125"/>
     <use style="fill:#ff0000;stroke:#ff0000;" x="356.26125" xlink:href="#m1b19b0f3f0" y="108.943125"/>
     <use style="fill:#ff0000;stroke:#ff0000;" x="361.84125" xlink:href="#m1b19b0f3f0" y="108.943125"/>
     <use style="fill:#ff0000;stroke:#ff0000;" x="367.42125" xlink:href="#m1b19b0f3f0" y="108.943125"/>
     <use style="fill:#ff0000;stroke:#ff0000;" x="373.00125" xlink:href="#m1b19b0f3f0" y="108.943125"/>
     <use style="fill:#ff0000;stroke:#ff0000;" x="378.58125" xlink:href="#m1b19b0f3f0" y="108.943125"/>
     <use style="fill:#ff0000;stroke:#ff0000;" x="384.16125" xlink:href="#m1b19b0f3f0" y="108.943125"/>
     <use style="fill:#ff0000;stroke:#ff0000;" x="389.74125" xlink:href="#m1b19b0f3f0" y="108.943125"/>
     <use style="fill:#ff0000;stroke:#ff0000;" x="395.32125" xlink:href="#m1b19b0f3f0" y="108.943125"/>
     <use style="fill:#ff0000;stroke:#ff0000;" x="400.90125" xlink:href="#m1b19b0f3f0" y="108.943125"/>
     <use style="fill:#ff0000;stroke:#ff0000;" x="406.48125" xlink:href="#m1b19b0f3f0" y="108.943125"/>
     <use style="fill:#ff0000;stroke:#ff0000;" x="412.06125" xlink:href="#m1b19b0f3f0" y="108.943125"/>
     <use style="fill:#ff0000;stroke:#ff0000;" x="417.64125" xlink:href="#m1b19b0f3f0" y="108.943125"/>
     <use style="fill:#ff0000;stroke:#ff0000;" x="423.22125" xlink:href="#m1b19b0f3f0" y="108.943125"/>
     <use style="fill:#ff0000;stroke:#ff0000;" x="428.80125" xlink:href="#m1b19b0f3f0" y="108.943125"/>
     <use style="fill:#ff0000;stroke:#ff0000;" x="434.38125" xlink:href="#m1b19b0f3f0" y="51.193125"/>
     <use style="fill:#ff0000;stroke:#ff0000;" x="439.96125" xlink:href="#m1b19b0f3f0" y="51.193125"/>
     <use style="fill:#ff0000;stroke:#ff0000;" x="445.54125" xlink:href="#m1b19b0f3f0" y="51.193125"/>
     <use style="fill:#ff0000;stroke:#ff0000;" x="451.12125" xlink:href="#m1b19b0f3f0" y="51.193125"/>
     <use style="fill:#ff0000;stroke:#ff0000;" x="456.70125" xlink:href="#m1b19b0f3f0" y="51.193125"/>
     <use style="fill:#ff0000;stroke:#ff0000;" x="462.28125" xlink:href="#m1b19b0f3f0" y="51.193125"/>
     <use style="fill:#ff0000;stroke:#ff0000;" x="467.86125" xlink:href="#m1b19b0f3f0" y="51.193125"/>
     <use style="fill:#ff0000;stroke:#ff0000;" x="473.44125" xlink:href="#m1b19b0f3f0" y="51.193125"/>
     <use style="fill:#ff0000;stroke:#ff0000;" x="479.02125" xlink:href="#m1b19b0f3f0" y="51.193125"/>
     <use style="fill:#ff0000;stroke:#ff0000;" x="484.60125" xlink:href="#m1b19b0f3f0" y="51.193125"/>
     <use style="fill:#ff0000;stroke:#ff0000;" x="490.18125" xlink:href="#m1b19b0f3f0" y="51.193125"/>
     <use style="fill:#ff0000;stroke:#ff0000;" x="495.76125" xlink:href="#m1b19b0f3f0" y="51.193125"/>
     <use style="fill:#ff0000;stroke:#ff0000;" x="501.34125" xlink:href="#m1b19b0f3f0" y="51.193125"/>
     <use style="fill:#ff0000;stroke:#ff0000;" x="506.92125" xlink:href="#m1b19b0f3f0" y="51.193125"/>
     <use style="fill:#ff0000;stroke:#ff0000;" x="512.50125" xlink:href="#m1b19b0f3f0" y="51.193125"/>
     <use style="fill:#ff0000;stroke:#ff0000;" x="518.08125" xlink:href="#m1b19b0f3f0" y="51.193125"/>
     <use style="fill:#ff0000;stroke:#ff0000;" x="523.66125" xlink:href="#m1b19b0f3f0" y="51.193125"/>
     <use style="fill:#ff0000;stroke:#ff0000;" x="529.24125" xlink:href="#m1b19b0f3f0" y="51.193125"/>
     <use style="fill:#ff0000;stroke:#ff0000;" x="534.82125" xlink:href="#m1b19b0f3f0" y="51.193125"/>
     <use style="fill:#ff0000;stroke:#ff0000;" x="540.40125" xlink:href="#m1b19b0f3f0" y="51.193125"/>
     <use style="fill:#ff0000;stroke:#ff0000;" x="545.98125" xlink:href="#m1b19b0f3f0" y="108.943125"/>
     <use style="fill:#ff0000;stroke:#ff0000;" x="551.56125" xlink:href="#m1b19b0f3f0" y="108.943125"/>
     <use style="fill:#ff0000;stroke:#ff0000;" x="557.14125" xlink:href="#m1b19b0f3f0" y="108.943125"/>
     <use style="fill:#ff0000;stroke:#ff0000;" x="562.72125" xlink:href="#m1b19b0f3f0" y="108.943125"/>
     <use style="fill:#ff0000;stroke:#ff0000;" x="568.30125" xlink:href="#m1b19b0f3f0" y="108.943125"/>
     <use style="fill:#ff0000;stroke:#ff0000;" x="573.88125" xlink:href="#m1b19b0f3f0" y="108.943125"/>
     <use style="fill:#ff0000;stroke:#ff0000;" x="579.46125" xlink:href="#m1b19b0f3f0" y="108.943125"/>
     <use style="fill:#ff0000;stroke:#ff0000;" x="585.04125" xlink:href="#m1b19b0f3f0" y="108.943125"/>
     <use style="fill:#ff0000;stroke:#ff0000;" x="590.62125" xlink:href="#m1b19b0f3f0" y="108.943125"/>
     <use style="fill:#ff0000;stroke:#ff0000;" x="596.20125" xlink:href="#m1b19b0f3f0" y="108.943125"/>
    </g>
   </g>
   <g id="patch_3">
    <path d="M 43.78125 137.818125 
L 43.78125 22.318125 
" style="fill:none;stroke:#000000;stroke-linecap:square;stroke-linejoin:miter;stroke-width:0.8;"/>
   </g>
   <g id="patch_4">
    <path d="M 601.78125 137.818125 
L 601.78125 22.318125 
" style="fill:none;stroke:#000000;stroke-linecap:square;stroke-linejoin:miter;stroke-width:0.8;"/>
   </g>
   <g id="patch_5">
    <path d="M 43.78125 137.818125 
L 601.78125 137.818125 
" style="fill:none;stroke:#000000;stroke-linecap:square;stroke-linejoin:miter;stroke-width:0.8;"/>
   </g>
   <g id="patch_6">
    <path d="M 43.78125 22.318125 
L 601.78125 22.318125 
" style="fill:none;stroke:#000000;stroke-linecap:square;stroke-linejoin:miter;stroke-width:0.8;"/>
   </g>
   <g id="text_13">
    <!-- Our Data -->
    <defs>
     <path d="M 39.40625 66.21875 
Q 28.65625 66.21875 22.328125 58.203125 
Q 16.015625 50.203125 16.015625 36.375 
Q 16.015625 22.609375 22.328125 14.59375 
Q 28.65625 6.59375 39.40625 6.59375 
Q 50.140625 6.59375 56.421875 14.59375 
Q 62.703125 22.609375 62.703125 36.375 
Q 62.703125 50.203125 56.421875 58.203125 
Q 50.140625 66.21875 39.40625 66.21875 
z
M 39.40625 74.21875 
Q 54.734375 74.21875 63.90625 63.9375 
Q 73.09375 53.65625 73.09375 36.375 
Q 73.09375 19.140625 63.90625 8.859375 
Q 54.734375 -1.421875 39.40625 -1.421875 
Q 24.03125 -1.421875 14.8125 8.828125 
Q 5.609375 19.09375 5.609375 36.375 
Q 5.609375 53.65625 14.8125 63.9375 
Q 24.03125 74.21875 39.40625 74.21875 
z
" id="DejaVuSans-79"/>
     <path d="M 41.109375 46.296875 
Q 39.59375 47.171875 37.8125 47.578125 
Q 36.03125 48 33.890625 48 
Q 26.265625 48 22.1875 43.046875 
Q 18.109375 38.09375 18.109375 28.8125 
L 18.109375 0 
L 9.078125 0 
L 9.078125 54.6875 
L 18.109375 54.6875 
L 18.109375 46.1875 
Q 20.953125 51.171875 25.484375 53.578125 
Q 30.03125 56 36.53125 56 
Q 37.453125 56 38.578125 55.875 
Q 39.703125 55.765625 41.0625 55.515625 
z
" id="DejaVuSans-114"/>
     <path id="DejaVuSans-32"/>
     <path d="M 19.671875 64.796875 
L 19.671875 8.109375 
L 31.59375 8.109375 
Q 46.6875 8.109375 53.6875 14.9375 
Q 60.6875 21.78125 60.6875 36.53125 
Q 60.6875 51.171875 53.6875 57.984375 
Q 46.6875 64.796875 31.59375 64.796875 
z
M 9.8125 72.90625 
L 30.078125 72.90625 
Q 51.265625 72.90625 61.171875 64.09375 
Q 71.09375 55.28125 71.09375 36.53125 
Q 71.09375 17.671875 61.125 8.828125 
Q 51.171875 0 30.078125 0 
L 9.8125 0 
z
" id="DejaVuSans-68"/>
     <path d="M 34.28125 27.484375 
Q 23.390625 27.484375 19.1875 25 
Q 14.984375 22.515625 14.984375 16.5 
Q 14.984375 11.71875 18.140625 8.90625 
Q 21.296875 6.109375 26.703125 6.109375 
Q 34.1875 6.109375 38.703125 11.40625 
Q 43.21875 16.703125 43.21875 25.484375 
L 43.21875 27.484375 
z
M 52.203125 31.203125 
L 52.203125 0 
L 43.21875 0 
L 43.21875 8.296875 
Q 40.140625 3.328125 35.546875 0.953125 
Q 30.953125 -1.421875 24.3125 -1.421875 
Q 15.921875 -1.421875 10.953125 3.296875 
Q 6 8.015625 6 15.921875 
Q 6 25.140625 12.171875 29.828125 
Q 18.359375 34.515625 30.609375 34.515625 
L 43.21875 34.515625 
L 43.21875 35.40625 
Q 43.21875 41.609375 39.140625 45 
Q 35.0625 48.390625 27.6875 48.390625 
Q 23 48.390625 18.546875 47.265625 
Q 14.109375 46.140625 10.015625 43.890625 
L 10.015625 52.203125 
Q 14.9375 54.109375 19.578125 55.046875 
Q 24.21875 56 28.609375 56 
Q 40.484375 56 46.34375 49.84375 
Q 52.203125 43.703125 52.203125 31.203125 
z
" id="DejaVuSans-97"/>
    </defs>
    <g transform="translate(295.55625 16.318125)scale(0.12 -0.12)">
     <use xlink:href="#DejaVuSans-79"/>
     <use x="78.710938" xlink:href="#DejaVuSans-117"/>
     <use x="142.089844" xlink:href="#DejaVuSans-114"/>
     <use x="183.203125" xlink:href="#DejaVuSans-32"/>
     <use x="214.990234" xlink:href="#DejaVuSans-68"/>
     <use x="291.992188" xlink:href="#DejaVuSans-97"/>
     <use x="353.271484" xlink:href="#DejaVuSans-116"/>
     <use x="392.480469" xlink:href="#DejaVuSans-97"/>
    </g>
   </g>
  </g>
  <g id="axes_2">
   <g id="patch_7">
    <path d="M 43.78125 299.518125 
L 601.78125 299.518125 
L 601.78125 184.018125 
L 43.78125 184.018125 
z
" style="fill:#ffffff;"/>
   </g>
   <g id="matplotlib.axis_3">
    <g id="xtick_7">
     <g id="line2d_14">
      <g>
       <use style="stroke:#000000;stroke-width:0.8;" x="43.78125" xlink:href="#m434601219c" y="299.518125"/>
      </g>
     </g>
     <g id="text_14">
      <!-- 0.0 -->
      <g transform="translate(35.829688 314.116563)scale(0.1 -0.1)">
       <use xlink:href="#DejaVuSans-48"/>
       <use x="63.623047" xlink:href="#DejaVuSans-46"/>
       <use x="95.410156" xlink:href="#DejaVuSans-48"/>
      </g>
     </g>
    </g>
    <g id="xtick_8">
     <g id="line2d_15">
      <g>
       <use style="stroke:#000000;stroke-width:0.8;" x="155.38125" xlink:href="#m434601219c" y="299.518125"/>
      </g>
     </g>
     <g id="text_15">
      <!-- 0.2 -->
      <g transform="translate(147.429688 314.116563)scale(0.1 -0.1)">
       <use xlink:href="#DejaVuSans-48"/>
       <use x="63.623047" xlink:href="#DejaVuSans-46"/>
       <use x="95.410156" xlink:href="#DejaVuSans-50"/>
      </g>
     </g>
    </g>
    <g id="xtick_9">
     <g id="line2d_16">
      <g>
       <use style="stroke:#000000;stroke-width:0.8;" x="266.98125" xlink:href="#m434601219c" y="299.518125"/>
      </g>
     </g>
     <g id="text_16">
      <!-- 0.4 -->
      <g transform="translate(259.029688 314.116563)scale(0.1 -0.1)">
       <use xlink:href="#DejaVuSans-48"/>
       <use x="63.623047" xlink:href="#DejaVuSans-46"/>
       <use x="95.410156" xlink:href="#DejaVuSans-52"/>
      </g>
     </g>
    </g>
    <g id="xtick_10">
     <g id="line2d_17">
      <g>
       <use style="stroke:#000000;stroke-width:0.8;" x="378.58125" xlink:href="#m434601219c" y="299.518125"/>
      </g>
     </g>
     <g id="text_17">
      <!-- 0.6 -->
      <g transform="translate(370.629688 314.116563)scale(0.1 -0.1)">
       <use xlink:href="#DejaVuSans-48"/>
       <use x="63.623047" xlink:href="#DejaVuSans-46"/>
       <use x="95.410156" xlink:href="#DejaVuSans-54"/>
      </g>
     </g>
    </g>
    <g id="xtick_11">
     <g id="line2d_18">
      <g>
       <use style="stroke:#000000;stroke-width:0.8;" x="490.18125" xlink:href="#m434601219c" y="299.518125"/>
      </g>
     </g>
     <g id="text_18">
      <!-- 0.8 -->
      <g transform="translate(482.229688 314.116563)scale(0.1 -0.1)">
       <use xlink:href="#DejaVuSans-48"/>
       <use x="63.623047" xlink:href="#DejaVuSans-46"/>
       <use x="95.410156" xlink:href="#DejaVuSans-56"/>
      </g>
     </g>
    </g>
    <g id="xtick_12">
     <g id="line2d_19">
      <g>
       <use style="stroke:#000000;stroke-width:0.8;" x="601.78125" xlink:href="#m434601219c" y="299.518125"/>
      </g>
     </g>
     <g id="text_19">
      <!-- 1.0 -->
      <g transform="translate(593.829687 314.116563)scale(0.1 -0.1)">
       <use xlink:href="#DejaVuSans-49"/>
       <use x="63.623047" xlink:href="#DejaVuSans-46"/>
       <use x="95.410156" xlink:href="#DejaVuSans-48"/>
      </g>
     </g>
    </g>
    <g id="text_20">
     <!-- Time -->
     <defs>
      <path d="M -0.296875 72.90625 
L 61.375 72.90625 
L 61.375 64.59375 
L 35.5 64.59375 
L 35.5 0 
L 25.59375 0 
L 25.59375 64.59375 
L -0.296875 64.59375 
z
" id="DejaVuSans-84"/>
     </defs>
     <g transform="translate(310.39375 327.794688)scale(0.1 -0.1)">
      <use xlink:href="#DejaVuSans-84"/>
      <use x="61.037109" xlink:href="#DejaVuSans-105"/>
      <use x="88.820312" xlink:href="#DejaVuSans-109"/>
      <use x="186.232422" xlink:href="#DejaVuSans-101"/>
     </g>
    </g>
   </g>
   <g id="matplotlib.axis_4">
    <g id="ytick_6">
     <g id="line2d_20">
      <g>
       <use style="stroke:#000000;stroke-width:0.8;" x="43.78125" xlink:href="#m6061eea412" y="294.268125"/>
      </g>
     </g>
     <g id="text_21">
      <!-- −2 -->
      <defs>
       <path d="M 10.59375 35.5 
L 73.1875 35.5 
L 73.1875 27.203125 
L 10.59375 27.203125 
z
" id="DejaVuSans-8722"/>
      </defs>
      <g transform="translate(22.039063 298.067344)scale(0.1 -0.1)">
       <use xlink:href="#DejaVuSans-8722"/>
       <use x="83.789062" xlink:href="#DejaVuSans-50"/>
      </g>
     </g>
    </g>
    <g id="ytick_7">
     <g id="line2d_21">
      <g>
       <use style="stroke:#000000;stroke-width:0.8;" x="43.78125" xlink:href="#m6061eea412" y="268.018125"/>
      </g>
     </g>
     <g id="text_22">
      <!-- −1 -->
      <g transform="translate(22.039063 271.817344)scale(0.1 -0.1)">
       <use xlink:href="#DejaVuSans-8722"/>
       <use x="83.789062" xlink:href="#DejaVuSans-49"/>
      </g>
     </g>
    </g>
    <g id="ytick_8">
     <g id="line2d_22">
      <g>
       <use style="stroke:#000000;stroke-width:0.8;" x="43.78125" xlink:href="#m6061eea412" y="241.768125"/>
      </g>
     </g>
     <g id="text_23">
      <!-- 0 -->
      <g transform="translate(30.41875 245.567344)scale(0.1 -0.1)">
       <use xlink:href="#DejaVuSans-48"/>
      </g>
     </g>
    </g>
    <g id="ytick_9">
     <g id="line2d_23">
      <g>
       <use style="stroke:#000000;stroke-width:0.8;" x="43.78125" xlink:href="#m6061eea412" y="215.518125"/>
      </g>
     </g>
     <g id="text_24">
      <!-- 1 -->
      <g transform="translate(30.41875 219.317344)scale(0.1 -0.1)">
       <use xlink:href="#DejaVuSans-49"/>
      </g>
     </g>
    </g>
    <g id="ytick_10">
     <g id="line2d_24">
      <g>
       <use style="stroke:#000000;stroke-width:0.8;" x="43.78125" xlink:href="#m6061eea412" y="189.268125"/>
      </g>
     </g>
     <g id="text_25">
      <!-- 2 -->
      <g transform="translate(30.41875 193.067344)scale(0.1 -0.1)">
       <use xlink:href="#DejaVuSans-50"/>
      </g>
     </g>
    </g>
    <g id="text_26">
     <!-- Amplitude -->
     <g transform="translate(15.959375 267.390781)rotate(-90)scale(0.1 -0.1)">
      <use xlink:href="#DejaVuSans-65"/>
      <use x="68.408203" xlink:href="#DejaVuSans-109"/>
      <use x="165.820312" xlink:href="#DejaVuSans-112"/>
      <use x="229.296875" xlink:href="#DejaVuSans-108"/>
      <use x="257.080078" xlink:href="#DejaVuSans-105"/>
      <use x="284.863281" xlink:href="#DejaVuSans-116"/>
      <use x="324.072266" xlink:href="#DejaVuSans-117"/>
      <use x="387.451172" xlink:href="#DejaVuSans-100"/>
      <use x="450.927734" xlink:href="#DejaVuSans-101"/>
     </g>
    </g>
   </g>
   <g id="line2d_25">
    <path clip-path="url(#p177a301cd4)" d="M 43.78125 241.768125 
L 45.45525 227.702672 
L 46.57125 220.531429 
L 47.12925 218.016415 
L 47.68725 216.342817 
L 48.24525 215.569923 
L 48.80325 215.725114 
L 49.36125 216.802891 
L 49.91925 218.765075 
L 50.47725 221.542152 
L 51.59325 229.122091 
L 53.26725 243.416376 
L 54.94125 257.197488 
L 56.05725 263.931733 
L 56.61525 266.174758 
L 57.17325 267.553165 
L 57.73125 268.018125 
L 58.28925 267.553165 
L 58.84725 266.174758 
L 59.40525 263.931733 
L 59.96325 260.903551 
L 61.07925 252.944831 
L 64.42725 225.035745 
L 64.98525 221.542152 
L 65.54325 218.765075 
L 66.10125 216.802891 
L 66.65925 215.725114 
L 67.21725 215.569923 
L 67.77525 216.342817 
L 68.33325 218.016415 
L 68.89125 220.531429 
L 70.00725 227.702672 
L 71.68125 241.768125 
L 73.35525 255.833578 
L 74.47125 263.004821 
L 75.02925 265.519835 
L 75.58725 267.193433 
L 76.14525 267.966327 
L 76.70325 267.811136 
L 77.26125 266.733359 
L 77.81925 264.771175 
L 78.37725 261.994098 
L 79.49325 254.414159 
L 81.16725 240.119874 
L 82.84125 226.338762 
L 83.95725 219.604517 
L 84.51525 217.361492 
L 85.07325 215.983085 
L 85.63125 215.518125 
L 86.18925 215.983085 
L 86.74725 217.361492 
L 87.30525 219.604517 
L 87.86325 222.632699 
L 88.97925 230.591419 
L 92.32725 258.500505 
L 92.88525 261.994098 
L 93.44325 264.771175 
L 94.00125 266.733359 
L 94.55925 267.811136 
L 95.11725 267.966327 
L 95.67525 267.193433 
L 96.23325 265.519835 
L 96.79125 263.004821 
L 97.90725 255.833578 
L 99.58125 241.768125 
L 101.25525 213.637218 
L 102.37125 199.294733 
L 102.92925 194.264705 
L 103.48725 190.917509 
L 104.04525 189.371722 
L 104.60325 189.682103 
L 105.16125 191.837658 
L 105.71925 195.762024 
L 106.27725 201.31618 
L 107.39325 216.476057 
L 109.06725 245.064627 
L 110.74125 272.626851 
L 111.85725 286.095341 
L 112.41525 290.581391 
L 112.97325 293.338206 
L 113.53125 294.268125 
L 114.08925 293.338206 
L 114.64725 290.581391 
L 115.20525 286.095341 
L 115.76325 280.038978 
L 116.87925 264.121538 
L 120.22725 208.303366 
L 120.78525 201.31618 
L 121.34325 195.762024 
L 121.90125 191.837658 
L 122.45925 189.682103 
L 123.01725 189.371722 
L 123.57525 190.917509 
L 124.13325 194.264705 
L 124.69125 199.294733 
L 125.80725 213.637218 
L 127.48125 241.768125 
L 129.15525 269.899032 
L 130.27125 284.241517 
L 130.82925 289.271545 
L 131.38725 292.618741 
L 131.94525 294.164528 
L 132.50325 293.854147 
L 133.06125 291.698592 
L 133.61925 287.774226 
L 134.17725 282.22007 
L 135.29325 267.060193 
L 136.96725 238.471623 
L 138.64125 210.909399 
L 139.75725 197.440909 
L 140.31525 192.954859 
L 140.87325 190.198044 
L 141.43125 189.268125 
L 141.98925 190.198044 
L 142.54725 192.954859 
L 143.10525 197.440909 
L 143.66325 203.497272 
L 144.77925 219.414712 
L 148.12725 275.232884 
L 148.68525 282.22007 
L 149.24325 287.774226 
L 149.80125 291.698592 
L 150.35925 293.854147 
L 150.91725 294.164528 
L 151.47525 292.618741 
L 152.03325 289.271545 
L 152.59125 284.241517 
L 153.70725 269.899032 
L 155.38125 241.768125 
L 157.05525 227.702672 
L 158.17125 220.531429 
L 158.72925 218.016415 
L 159.28725 216.342817 
L 159.84525 215.569923 
L 160.40325 215.725114 
L 160.96125 216.802891 
L 161.51925 218.765075 
L 162.07725 221.542152 
L 163.19325 229.122091 
L 164.86725 243.416376 
L 166.54125 257.197488 
L 167.65725 263.931733 
L 168.21525 266.174758 
L 168.77325 267.553165 
L 169.33125 268.018125 
L 169.88925 267.553165 
L 170.44725 266.174758 
L 171.00525 263.931733 
L 171.56325 260.903551 
L 172.67925 252.944831 
L 176.02725 225.035745 
L 176.58525 221.542152 
L 177.14325 218.765075 
L 177.70125 216.802891 
L 178.25925 215.725114 
L 178.81725 215.569923 
L 179.37525 216.342817 
L 179.93325 218.016415 
L 180.49125 220.531429 
L 181.60725 227.702672 
L 183.28125 241.768125 
L 184.95525 255.833578 
L 186.07125 263.004821 
L 186.62925 265.519835 
L 187.18725 267.193433 
L 187.74525 267.966327 
L 188.30325 267.811136 
L 188.86125 266.733359 
L 189.41925 264.771175 
L 189.97725 261.994098 
L 191.09325 254.414159 
L 192.76725 240.119874 
L 194.44125 226.338762 
L 195.55725 219.604517 
L 196.11525 217.361492 
L 196.67325 215.983085 
L 197.23125 215.518125 
L 197.78925 215.983085 
L 198.34725 217.361492 
L 198.90525 219.604517 
L 199.46325 222.632699 
L 200.57925 230.591419 
L 203.92725 258.500505 
L 204.48525 261.994098 
L 205.04325 264.771175 
L 205.60125 266.733359 
L 206.15925 267.811136 
L 206.71725 267.966327 
L 207.27525 267.193433 
L 207.83325 265.519835 
L 208.39125 263.004821 
L 209.50725 255.833578 
L 211.18125 241.768125 
L 212.85525 213.637218 
L 213.97125 199.294733 
L 214.52925 194.264705 
L 215.08725 190.917509 
L 215.64525 189.371722 
L 216.20325 189.682103 
L 216.76125 191.837658 
L 217.31925 195.762024 
L 217.87725 201.31618 
L 218.99325 216.476057 
L 220.66725 245.064627 
L 222.34125 272.626851 
L 223.45725 286.095341 
L 224.01525 290.581391 
L 224.57325 293.338206 
L 225.13125 294.268125 
L 225.68925 293.338206 
L 226.24725 290.581391 
L 226.80525 286.095341 
L 227.36325 280.038978 
L 228.47925 264.121538 
L 231.82725 208.303366 
L 232.38525 201.31618 
L 232.94325 195.762024 
L 233.50125 191.837658 
L 234.05925 189.682103 
L 234.61725 189.371722 
L 235.17525 190.917509 
L 235.73325 194.264705 
L 236.29125 199.294733 
L 237.40725 213.637218 
L 239.08125 241.768125 
L 240.75525 269.899032 
L 241.87125 284.241517 
L 242.42925 289.271545 
L 242.98725 292.618741 
L 243.54525 294.164528 
L 244.10325 293.854147 
L 244.66125 291.698592 
L 245.21925 287.774226 
L 245.77725 282.22007 
L 246.89325 267.060193 
L 248.56725 238.471623 
L 250.24125 210.909399 
L 251.35725 197.440909 
L 251.91525 192.954859 
L 252.47325 190.198044 
L 253.03125 189.268125 
L 253.58925 190.198044 
L 254.14725 192.954859 
L 254.70525 197.440909 
L 255.26325 203.497272 
L 256.37925 219.414712 
L 259.72725 275.232884 
L 260.28525 282.22007 
L 260.84325 287.774226 
L 261.40125 291.698592 
L 261.95925 293.854147 
L 262.51725 294.164528 
L 263.07525 292.618741 
L 263.63325 289.271545 
L 264.19125 284.241517 
L 265.30725 269.899032 
L 266.98125 241.768125 
L 268.65525 227.702672 
L 269.77125 220.531429 
L 270.32925 218.016415 
L 270.88725 216.342817 
L 271.44525 215.569923 
L 272.00325 215.725114 
L 272.56125 216.802891 
L 273.11925 218.765075 
L 273.67725 221.542152 
L 274.79325 229.122091 
L 276.46725 243.416376 
L 278.14125 257.197488 
L 279.25725 263.931733 
L 279.81525 266.174758 
L 280.37325 267.553165 
L 280.93125 268.018125 
L 281.48925 267.553165 
L 282.04725 266.174758 
L 282.60525 263.931733 
L 283.16325 260.903551 
L 284.27925 252.944831 
L 287.62725 225.035745 
L 288.18525 221.542152 
L 288.74325 218.765075 
L 289.30125 216.802891 
L 289.85925 215.725114 
L 290.41725 215.569923 
L 290.97525 216.342817 
L 291.53325 218.016415 
L 292.09125 220.531429 
L 293.20725 227.702672 
L 294.88125 241.768125 
L 296.55525 255.833578 
L 297.67125 263.004821 
L 298.22925 265.519835 
L 298.78725 267.193433 
L 299.34525 267.966327 
L 299.90325 267.811136 
L 300.46125 266.733359 
L 301.01925 264.771175 
L 301.57725 261.994098 
L 302.69325 254.414159 
L 304.36725 240.119874 
L 306.04125 226.338762 
L 307.15725 219.604517 
L 307.71525 217.361492 
L 308.27325 215.983085 
L 308.83125 215.518125 
L 309.38925 215.983085 
L 309.94725 217.361492 
L 310.50525 219.604517 
L 311.06325 222.632699 
L 312.17925 230.591419 
L 315.52725 258.500505 
L 316.08525 261.994098 
L 316.64325 264.771175 
L 317.20125 266.733359 
L 317.75925 267.811136 
L 318.31725 267.966327 
L 318.87525 267.193433 
L 319.43325 265.519835 
L 319.99125 263.004821 
L 321.10725 255.833578 
L 322.78125 241.768125 
L 324.45525 227.702672 
L 325.57125 220.531429 
L 326.12925 218.016415 
L 326.68725 216.342817 
L 327.24525 215.569923 
L 327.80325 215.725114 
L 328.36125 216.802891 
L 328.91925 218.765075 
L 329.47725 221.542152 
L 330.59325 229.122091 
L 332.26725 243.416376 
L 333.94125 257.197488 
L 335.05725 263.931733 
L 335.61525 266.174758 
L 336.17325 267.553165 
L 336.73125 268.018125 
L 337.28925 267.553165 
L 337.84725 266.174758 
L 338.40525 263.931733 
L 338.96325 260.903551 
L 340.07925 252.944831 
L 343.42725 225.035745 
L 343.98525 221.542152 
L 344.54325 218.765075 
L 345.10125 216.802891 
L 345.65925 215.725114 
L 346.21725 215.569923 
L 346.77525 216.342817 
L 347.33325 218.016415 
L 347.89125 220.531429 
L 349.00725 227.702672 
L 350.68125 241.768125 
L 352.35525 255.833578 
L 353.47125 263.004821 
L 354.02925 265.519835 
L 354.58725 267.193433 
L 355.14525 267.966327 
L 355.70325 267.811136 
L 356.26125 266.733359 
L 356.81925 264.771175 
L 357.37725 261.994098 
L 358.49325 254.414159 
L 360.16725 240.119874 
L 361.84125 226.338762 
L 362.95725 219.604517 
L 363.51525 217.361492 
L 364.07325 215.983085 
L 364.63125 215.518125 
L 365.18925 215.983085 
L 365.74725 217.361492 
L 366.30525 219.604517 
L 366.86325 222.632699 
L 367.97925 230.591419 
L 371.32725 258.500505 
L 371.88525 261.994098 
L 372.44325 264.771175 
L 373.00125 266.733359 
L 373.55925 267.811136 
L 374.11725 267.966327 
L 374.67525 267.193433 
L 375.23325 265.519835 
L 375.79125 263.004821 
L 376.90725 255.833578 
L 378.58125 241.768125 
L 380.25525 227.702672 
L 381.37125 220.531429 
L 381.92925 218.016415 
L 382.48725 216.342817 
L 383.04525 215.569923 
L 383.60325 215.725114 
L 384.16125 216.802891 
L 384.71925 218.765075 
L 385.27725 221.542152 
L 386.39325 229.122091 
L 388.06725 243.416376 
L 389.74125 257.197488 
L 390.85725 263.931733 
L 391.41525 266.174758 
L 391.97325 267.553165 
L 392.53125 268.018125 
L 393.08925 267.553165 
L 393.64725 266.174758 
L 394.20525 263.931733 
L 394.76325 260.903551 
L 395.87925 252.944831 
L 399.22725 225.035745 
L 399.78525 221.542152 
L 400.34325 218.765075 
L 400.90125 216.802891 
L 401.45925 215.725114 
L 402.01725 215.569923 
L 402.57525 216.342817 
L 403.13325 218.016415 
L 403.69125 220.531429 
L 404.80725 227.702672 
L 406.48125 241.768125 
L 408.15525 255.833578 
L 409.27125 263.004821 
L 409.82925 265.519835 
L 410.38725 267.193433 
L 410.94525 267.966327 
L 411.50325 267.811136 
L 412.06125 266.733359 
L 412.61925 264.771175 
L 413.17725 261.994098 
L 414.29325 254.414159 
L 415.96725 240.119874 
L 417.64125 226.338762 
L 418.75725 219.604517 
L 419.31525 217.361492 
L 419.87325 215.983085 
L 420.43125 215.518125 
L 420.98925 215.983085 
L 421.54725 217.361492 
L 422.10525 219.604517 
L 422.66325 222.632699 
L 423.77925 230.591419 
L 427.12725 258.500505 
L 427.68525 261.994098 
L 428.24325 264.771175 
L 428.80125 266.733359 
L 429.35925 267.811136 
L 429.91725 267.966327 
L 430.47525 267.193433 
L 431.03325 265.519835 
L 431.59125 263.004821 
L 432.70725 255.833578 
L 434.38125 241.768125 
L 436.05525 213.637218 
L 437.17125 199.294733 
L 437.72925 194.264705 
L 438.28725 190.917509 
L 438.84525 189.371722 
L 439.40325 189.682103 
L 439.96125 191.837658 
L 440.51925 195.762024 
L 441.07725 201.31618 
L 442.19325 216.476057 
L 443.86725 245.064627 
L 445.54125 272.626851 
L 446.65725 286.095341 
L 447.21525 290.581391 
L 447.77325 293.338206 
L 448.33125 294.268125 
L 448.88925 293.338206 
L 449.44725 290.581391 
L 450.00525 286.095341 
L 450.56325 280.038978 
L 451.67925 264.121538 
L 455.02725 208.303366 
L 455.58525 201.31618 
L 456.14325 195.762024 
L 456.70125 191.837658 
L 457.25925 189.682103 
L 457.81725 189.371722 
L 458.37525 190.917509 
L 458.93325 194.264705 
L 459.49125 199.294733 
L 460.60725 213.637218 
L 462.28125 241.768125 
L 463.95525 269.899032 
L 465.07125 284.241517 
L 465.62925 289.271545 
L 466.18725 292.618741 
L 466.74525 294.164528 
L 467.30325 293.854147 
L 467.86125 291.698592 
L 468.41925 287.774226 
L 468.97725 282.22007 
L 470.09325 267.060193 
L 471.76725 238.471623 
L 473.44125 210.909399 
L 474.55725 197.440909 
L 475.11525 192.954859 
L 475.67325 190.198044 
L 476.23125 189.268125 
L 476.78925 190.198044 
L 477.34725 192.954859 
L 477.90525 197.440909 
L 478.46325 203.497272 
L 479.57925 219.414712 
L 482.92725 275.232884 
L 483.48525 282.22007 
L 484.04325 287.774226 
L 484.60125 291.698592 
L 485.15925 293.854147 
L 485.71725 294.164528 
L 486.27525 292.618741 
L 486.83325 289.271545 
L 487.39125 284.241517 
L 488.50725 269.899032 
L 490.18125 241.768125 
L 491.85525 213.637218 
L 492.97125 199.294733 
L 493.52925 194.264705 
L 494.08725 190.917509 
L 494.64525 189.371722 
L 495.20325 189.682103 
L 495.76125 191.837658 
L 496.31925 195.762024 
L 496.87725 201.31618 
L 497.99325 216.476057 
L 499.66725 245.064627 
L 501.34125 272.626851 
L 502.45725 286.095341 
L 503.01525 290.581391 
L 503.57325 293.338206 
L 504.13125 294.268125 
L 504.68925 293.338206 
L 505.24725 290.581391 
L 505.80525 286.095341 
L 506.36325 280.038978 
L 507.47925 264.121538 
L 510.82725 208.303366 
L 511.38525 201.31618 
L 511.94325 195.762024 
L 512.50125 191.837658 
L 513.05925 189.682103 
L 513.61725 189.371722 
L 514.17525 190.917509 
L 514.73325 194.264705 
L 515.29125 199.294733 
L 516.40725 213.637218 
L 518.08125 241.768125 
L 519.75525 269.899032 
L 520.87125 284.241517 
L 521.42925 289.271545 
L 521.98725 292.618741 
L 522.54525 294.164528 
L 523.10325 293.854147 
L 523.66125 291.698592 
L 524.21925 287.774226 
L 524.77725 282.22007 
L 525.89325 267.060193 
L 527.56725 238.471623 
L 529.24125 210.909399 
L 530.35725 197.440909 
L 530.91525 192.954859 
L 531.47325 190.198044 
L 532.03125 189.268125 
L 532.58925 190.198044 
L 533.14725 192.954859 
L 533.70525 197.440909 
L 534.26325 203.497272 
L 535.37925 219.414712 
L 538.72725 275.232884 
L 539.28525 282.22007 
L 539.84325 287.774226 
L 540.40125 291.698592 
L 540.95925 293.854147 
L 541.51725 294.164528 
L 542.07525 292.618741 
L 542.63325 289.271545 
L 543.19125 284.241517 
L 544.30725 269.899032 
L 545.98125 241.768125 
L 547.65525 227.702672 
L 548.77125 220.531429 
L 549.32925 218.016415 
L 549.88725 216.342817 
L 550.44525 215.569923 
L 551.00325 215.725114 
L 551.56125 216.802891 
L 552.11925 218.765075 
L 552.67725 221.542152 
L 553.79325 229.122091 
L 555.46725 243.416376 
L 557.14125 257.197488 
L 558.25725 263.931733 
L 558.81525 266.174758 
L 559.37325 267.553165 
L 559.93125 268.018125 
L 560.48925 267.553165 
L 561.04725 266.174758 
L 561.60525 263.931733 
L 562.16325 260.903551 
L 563.27925 252.944831 
L 566.62725 225.035745 
L 567.18525 221.542152 
L 567.74325 218.765075 
L 568.30125 216.802891 
L 568.85925 215.725114 
L 569.41725 215.569923 
L 569.97525 216.342817 
L 570.53325 218.016415 
L 571.09125 220.531429 
L 572.20725 227.702672 
L 573.88125 241.768125 
L 575.55525 255.833578 
L 576.67125 263.004821 
L 577.22925 265.519835 
L 577.78725 267.193433 
L 578.34525 267.966327 
L 578.90325 267.811136 
L 579.46125 266.733359 
L 580.01925 264.771175 
L 580.57725 261.994098 
L 581.69325 254.414159 
L 583.36725 240.119874 
L 585.04125 226.338762 
L 586.15725 219.604517 
L 586.71525 217.361492 
L 587.27325 215.983085 
L 587.83125 215.518125 
L 588.38925 215.983085 
L 588.94725 217.361492 
L 589.50525 219.604517 
L 590.06325 222.632699 
L 591.17925 230.591419 
L 594.52725 258.500505 
L 595.08525 261.994098 
L 595.64325 264.771175 
L 596.20125 266.733359 
L 596.75925 267.811136 
L 597.31725 267.966327 
L 597.87525 267.193433 
L 598.43325 265.519835 
L 598.99125 263.004821 
L 600.10725 255.833578 
L 601.22325 246.686885 
L 601.22325 246.686885 
" style="fill:none;stroke:#1f77b4;stroke-linecap:square;stroke-width:1.5;"/>
   </g>
   <g id="patch_8">
    <path d="M 43.78125 299.518125 
L 43.78125 184.018125 
" style="fill:none;stroke:#000000;stroke-linecap:square;stroke-linejoin:miter;stroke-width:0.8;"/>
   </g>
   <g id="patch_9">
    <path d="M 601.78125 299.518125 
L 601.78125 184.018125 
" style="fill:none;stroke:#000000;stroke-linecap:square;stroke-linejoin:miter;stroke-width:0.8;"/>
   </g>
   <g id="patch_10">
    <path d="M 43.78125 299.518125 
L 601.78125 299.518125 
" style="fill:none;stroke:#000000;stroke-linecap:square;stroke-linejoin:miter;stroke-width:0.8;"/>
   </g>
   <g id="patch_11">
    <path d="M 43.78125 184.018125 
L 601.78125 184.018125 
" style="fill:none;stroke:#000000;stroke-linecap:square;stroke-linejoin:miter;stroke-width:0.8;"/>
   </g>
   <g id="text_27">
    <!-- Wireless Signal -->
    <defs>
     <path d="M 3.328125 72.90625 
L 13.28125 72.90625 
L 28.609375 11.28125 
L 43.890625 72.90625 
L 54.984375 72.90625 
L 70.3125 11.28125 
L 85.59375 72.90625 
L 95.609375 72.90625 
L 77.296875 0 
L 64.890625 0 
L 49.515625 63.28125 
L 33.984375 0 
L 21.578125 0 
z
" id="DejaVuSans-87"/>
     <path d="M 44.28125 53.078125 
L 44.28125 44.578125 
Q 40.484375 46.53125 36.375 47.5 
Q 32.28125 48.484375 27.875 48.484375 
Q 21.1875 48.484375 17.84375 46.4375 
Q 14.5 44.390625 14.5 40.28125 
Q 14.5 37.15625 16.890625 35.375 
Q 19.28125 33.59375 26.515625 31.984375 
L 29.59375 31.296875 
Q 39.15625 29.25 43.1875 25.515625 
Q 47.21875 21.78125 47.21875 15.09375 
Q 47.21875 7.46875 41.1875 3.015625 
Q 35.15625 -1.421875 24.609375 -1.421875 
Q 20.21875 -1.421875 15.453125 -0.5625 
Q 10.6875 0.296875 5.421875 2 
L 5.421875 11.28125 
Q 10.40625 8.6875 15.234375 7.390625 
Q 20.0625 6.109375 24.8125 6.109375 
Q 31.15625 6.109375 34.5625 8.28125 
Q 37.984375 10.453125 37.984375 14.40625 
Q 37.984375 18.0625 35.515625 20.015625 
Q 33.0625 21.96875 24.703125 23.78125 
L 21.578125 24.515625 
Q 13.234375 26.265625 9.515625 29.90625 
Q 5.8125 33.546875 5.8125 39.890625 
Q 5.8125 47.609375 11.28125 51.796875 
Q 16.75 56 26.8125 56 
Q 31.78125 56 36.171875 55.265625 
Q 40.578125 54.546875 44.28125 53.078125 
z
" id="DejaVuSans-115"/>
     <path d="M 53.515625 70.515625 
L 53.515625 60.890625 
Q 47.90625 63.578125 42.921875 64.890625 
Q 37.9375 66.21875 33.296875 66.21875 
Q 25.25 66.21875 20.875 63.09375 
Q 16.5 59.96875 16.5 54.203125 
Q 16.5 49.359375 19.40625 46.890625 
Q 22.3125 44.4375 30.421875 42.921875 
L 36.375 41.703125 
Q 47.40625 39.59375 52.65625 34.296875 
Q 57.90625 29 57.90625 20.125 
Q 57.90625 9.515625 50.796875 4.046875 
Q 43.703125 -1.421875 29.984375 -1.421875 
Q 24.8125 -1.421875 18.96875 -0.25 
Q 13.140625 0.921875 6.890625 3.21875 
L 6.890625 13.375 
Q 12.890625 10.015625 18.65625 8.296875 
Q 24.421875 6.59375 29.984375 6.59375 
Q 38.421875 6.59375 43.015625 9.90625 
Q 47.609375 13.234375 47.609375 19.390625 
Q 47.609375 24.75 44.3125 27.78125 
Q 41.015625 30.8125 33.5 32.328125 
L 27.484375 33.5 
Q 16.453125 35.6875 11.515625 40.375 
Q 6.59375 45.0625 6.59375 53.421875 
Q 6.59375 63.09375 13.40625 68.65625 
Q 20.21875 74.21875 32.171875 74.21875 
Q 37.3125 74.21875 42.625 73.28125 
Q 47.953125 72.359375 53.515625 70.515625 
z
" id="DejaVuSans-83"/>
     <path d="M 45.40625 27.984375 
Q 45.40625 37.75 41.375 43.109375 
Q 37.359375 48.484375 30.078125 48.484375 
Q 22.859375 48.484375 18.828125 43.109375 
Q 14.796875 37.75 14.796875 27.984375 
Q 14.796875 18.265625 18.828125 12.890625 
Q 22.859375 7.515625 30.078125 7.515625 
Q 37.359375 7.515625 41.375 12.890625 
Q 45.40625 18.265625 45.40625 27.984375 
z
M 54.390625 6.78125 
Q 54.390625 -7.171875 48.1875 -13.984375 
Q 42 -20.796875 29.203125 -20.796875 
Q 24.46875 -20.796875 20.265625 -20.09375 
Q 16.0625 -19.390625 12.109375 -17.921875 
L 12.109375 -9.1875 
Q 16.0625 -11.328125 19.921875 -12.34375 
Q 23.78125 -13.375 27.78125 -13.375 
Q 36.625 -13.375 41.015625 -8.765625 
Q 45.40625 -4.15625 45.40625 5.171875 
L 45.40625 9.625 
Q 42.625 4.78125 38.28125 2.390625 
Q 33.9375 0 27.875 0 
Q 17.828125 0 11.671875 7.65625 
Q 5.515625 15.328125 5.515625 27.984375 
Q 5.515625 40.671875 11.671875 48.328125 
Q 17.828125 56 27.875 56 
Q 33.9375 56 38.28125 53.609375 
Q 42.625 51.21875 45.40625 46.390625 
L 45.40625 54.6875 
L 54.390625 54.6875 
z
" id="DejaVuSans-103"/>
     <path d="M 54.890625 33.015625 
L 54.890625 0 
L 45.90625 0 
L 45.90625 32.71875 
Q 45.90625 40.484375 42.875 44.328125 
Q 39.84375 48.1875 33.796875 48.1875 
Q 26.515625 48.1875 22.3125 43.546875 
Q 18.109375 38.921875 18.109375 30.90625 
L 18.109375 0 
L 9.078125 0 
L 9.078125 54.6875 
L 18.109375 54.6875 
L 18.109375 46.1875 
Q 21.34375 51.125 25.703125 53.5625 
Q 30.078125 56 35.796875 56 
Q 45.21875 56 50.046875 50.171875 
Q 54.890625 44.34375 54.890625 33.015625 
z
" id="DejaVuSans-110"/>
    </defs>
    <g transform="translate(277.079063 178.018125)scale(0.12 -0.12)">
     <use xlink:href="#DejaVuSans-87"/>
     <use x="98.845703" xlink:href="#DejaVuSans-105"/>
     <use x="126.628906" xlink:href="#DejaVuSans-114"/>
     <use x="167.710938" xlink:href="#DejaVuSans-101"/>
     <use x="229.234375" xlink:href="#DejaVuSans-108"/>
     <use x="257.017578" xlink:href="#DejaVuSans-101"/>
     <use x="318.541016" xlink:href="#DejaVuSans-115"/>
     <use x="370.640625" xlink:href="#DejaVuSans-115"/>
     <use x="422.740234" xlink:href="#DejaVuSans-32"/>
     <use x="454.527344" xlink:href="#DejaVuSans-83"/>
     <use x="518.003906" xlink:href="#DejaVuSans-105"/>
     <use x="545.787109" xlink:href="#DejaVuSans-103"/>
     <use x="609.263672" xlink:href="#DejaVuSans-110"/>
     <use x="672.642578" xlink:href="#DejaVuSans-97"/>
     <use x="733.921875" xlink:href="#DejaVuSans-108"/>
    </g>
   </g>
  </g>
 </g>
 <defs>
  <clipPath id="pa3c9d37d2a">
   <rect height="115.5" width="558" x="43.78125" y="22.318125"/>
  </clipPath>
  <clipPath id="p177a301cd4">
   <rect height="115.5" width="558" x="43.78125" y="184.018125"/>
  </clipPath>
 </defs>
</svg>
