<svg width="336" height="115" xmlns="http://www.w3.org/2000/svg" xmlns:xlink="http://www.w3.org/1999/xlink" overflow="hidden"><defs><clipPath id="clip0"><rect x="0" y="0" width="336" height="115"/></clipPath></defs><g clip-path="url(#clip0)"><rect x="0" y="0" width="336" height="114.834" fill="#FFFFFF"/><text font-family="Cambria Math,Cambria Math_MSFontService,sans-serif" font-weight="400" font-size="24" transform="matrix(1 0 0 0.998553 12.9251 34)">𝑥</text><text font-family="Cambria Math,Cambria Math_MSFontService,sans-serif" font-weight="400" font-size="18" transform="matrix(1 0 0 0.998553 25.5251 38)">0</text><text font-family="Cambria Math,Cambria Math_MSFontService,sans-serif" font-weight="400" font-size="24" transform="matrix(1 0 0 0.998553 13.6717 94)">𝑥</text><text font-family="Cambria Math,Cambria Math_MSFontService,sans-serif" font-weight="400" font-size="18" transform="matrix(1 0 0 0.998553 25.7184 99)">1</text><text font-family="Cambria Math,Cambria Math_MSFontService,sans-serif" font-weight="400" font-size="24" transform="matrix(1 0 0 0.998553 295.006 32)">𝑦</text><text font-family="Cambria Math,Cambria Math_MSFontService,sans-serif" font-weight="400" font-size="18" transform="matrix(1 0 0 0.998553 307.78 37)">0</text><text font-family="Cambria Math,Cambria Math_MSFontService,sans-serif" font-weight="400" font-size="24" transform="matrix(1 0 0 0.998553 294.946 93)">𝑦</text><text font-family="Cambria Math,Cambria Math_MSFontService,sans-serif" font-weight="400" font-size="18" transform="matrix(1 0 0 0.998553 307.166 97)">1</text><path d="M42 24.9638 243.203 24.9639 243.203 28.9581 42 28.958ZM241.203 20.9697 253.203 26.961 241.203 32.9523Z"/><path d="M92 85.8755 158.482 85.8756 158.482 89.8699 92 89.8698ZM156.482 81.8814 168.482 87.8728 156.482 93.8641Z"/><text font-family="Cambria Math,Cambria Math_MSFontService,sans-serif" font-weight="400" font-size="24" transform="matrix(1 0 0 0.998553 65.0992 63)">𝑤</text><text font-family="Cambria Math,Cambria Math_MSFontService,sans-serif" font-weight="400" font-size="18" transform="matrix(1 0 0 0.998553 81.2392 67)">𝑛</text><text font-family="Cambria Math,Cambria Math_MSFontService,sans-serif" font-weight="400" font-size="18" transform="matrix(1 0 0 0.998553 84.2258 54)">𝑘</text><path d="M0.680361-1.87764 141.72 49.228 140.36 52.9833-0.680361 1.87764ZM141.204 44.7924 150.428 54.5075 137.121 56.0582Z" transform="matrix(1.00145 0 0 -1 102 88.4583)"/><path d="M114.766 25.1161 242.66 78.0639 241.128 81.7535 113.234 28.8058ZM242.345 73.6094 251.132 83.733 237.749 84.6784Z"/><path d="M169.5 88.372C169.5 78.9967 176.887 71.3966 186 71.3966 195.113 71.3966 202.5 78.9967 202.5 88.372 202.5 97.7472 195.113 105.347 186 105.347 176.887 105.347 169.5 97.7472 169.5 88.372Z" stroke="#000000" stroke-width="3" stroke-miterlimit="8" fill="#FFFFFF" fill-rule="evenodd"/><text font-family="Calibri,Calibri_MSFontService,sans-serif" font-weight="400" font-size="24" transform="matrix(1 0 0 0.998553 175.683 96)">-</text><text font-family="Calibri,Calibri_MSFontService,sans-serif" font-weight="400" font-size="24" transform="matrix(1 0 0 0.998553 183.017 96)">1</text><path d="M202 85.8755 241.941 85.8756 241.941 89.8698 202 89.8698ZM239.941 81.8814 251.941 87.8728 239.941 93.864Z"/><path d="M61.5001 88.372C61.5001 78.9967 69.1112 71.3966 78.5001 71.3966 87.8889 71.3966 95.5001 78.9967 95.5001 88.372 95.5001 97.7472 87.8889 105.347 78.5001 105.347 69.1112 105.347 61.5001 97.7472 61.5001 88.372Z" stroke="#000000" stroke-width="3" stroke-miterlimit="8" fill="#FFFFFF" fill-rule="evenodd"/><path d="M42.0389 85.8759 51.161 86.0532 51.0832 90.0467 41.9611 89.8694ZM49.2393 82.0209 61.1202 88.2443 49.0057 94.0013Z"/><path d="M69.5001 79.385 88.5998 98.4571" stroke="#000000" stroke-width="1.33333" stroke-miterlimit="8" fill="none" fill-rule="evenodd"/><path d="M88.5998 79.385 69.5001 98.4571" stroke="#000000" stroke-width="1.3314" stroke-miterlimit="8" fill="none" fill-rule="evenodd"/><path d="M252.5 88.8713C252.5 79.7717 260.111 72.3951 269.5 72.3951 278.889 72.3951 286.5 79.7717 286.5 88.8713 286.5 97.9708 278.889 105.347 269.5 105.347 260.111 105.347 252.5 97.9708 252.5 88.8713Z" stroke="#000000" stroke-width="3" stroke-miterlimit="8" fill="#FFFFFF" fill-rule="evenodd"/><path d="M269.018 74.9529 269.018 101.925" stroke="#000000" stroke-width="1.33237" stroke-miterlimit="8" fill="none" fill-rule="evenodd"/><path d="M282.523 88.4389 255.512 88.4389" stroke="#000000" stroke-width="1.33237" stroke-miterlimit="8" fill="none" fill-rule="evenodd"/><path d="M253.5 26.961C253.5 17.8615 261.111 10.4849 270.5 10.4849 279.889 10.4849 287.5 17.8615 287.5 26.961 287.5 36.0605 279.889 43.4371 270.5 43.4371 261.111 43.4371 253.5 36.0605 253.5 26.961Z" stroke="#000000" stroke-width="3" stroke-miterlimit="8" fill="#FFFFFF" fill-rule="evenodd"/><path d="M270.14 12.9922 270.14 39.9642" stroke="#000000" stroke-width="1.33237" stroke-miterlimit="8" fill="none" fill-rule="evenodd"/><path d="M283.645 26.4782 256.634 26.4782" stroke="#000000" stroke-width="1.33237" stroke-miterlimit="8" fill="none" fill-rule="evenodd"/></g></svg>