<?xml version="1.0" encoding="utf-8" standalone="no"?>
<!DOCTYPE svg PUBLIC "-//W3C//DTD SVG 1.1//EN"
  "http://www.w3.org/Graphics/SVG/1.1/DTD/svg11.dtd">
<svg xmlns:xlink="http://www.w3.org/1999/xlink" width="572.4pt" height="306.718125pt" viewBox="0 0 572.4 306.718125" xmlns="http://www.w3.org/2000/svg" version="1.1">
 <metadata>
  <rdf:RDF xmlns:dc="http://purl.org/dc/elements/1.1/" xmlns:cc="http://creativecommons.org/ns#" xmlns:rdf="http://www.w3.org/1999/02/22-rdf-syntax-ns#">
   <cc:Work>
    <dc:type rdf:resource="http://purl.org/dc/dcmitype/StillImage"/>
    <dc:date>2022-08-24T10:26:15.651172</dc:date>
    <dc:format>image/svg+xml</dc:format>
    <dc:creator>
     <cc:Agent>
      <dc:title>Matplotlib v3.5.3, https://matplotlib.org/</dc:title>
     </cc:Agent>
    </dc:creator>
   </cc:Work>
  </rdf:RDF>
 </metadata>
 <defs>
  <style type="text/css">*{stroke-linejoin: round; stroke-linecap: butt}</style>
 </defs>
 <g id="figure_1">
  <g id="patch_1">
   <path d="M 0 306.718125 
L 572.4 306.718125 
L 572.4 0 
L 0 0 
z
" style="fill: #ffffff"/>
  </g>
  <g id="axes_1">
   <g id="patch_2">
    <path d="M 7.2 137.818125 
L 565.2 137.818125 
L 565.2 22.318125 
L 7.2 22.318125 
z
" style="fill: #ffffff"/>
   </g>
   <g id="matplotlib.axis_1">
    <g id="xtick_1"/>
    <g id="xtick_2"/>
    <g id="xtick_3"/>
    <g id="xtick_4"/>
    <g id="xtick_5"/>
    <g id="xtick_6"/>
   </g>
   <g id="matplotlib.axis_2">
    <g id="ytick_1"/>
    <g id="ytick_2"/>
    <g id="ytick_3"/>
   </g>
   <g id="line2d_1">
    <path d="M 118.8 137.818125 
L 118.8 22.318125 
" clip-path="url(#p02821a29d1)" style="fill: none; stroke: #000000; stroke-width: 1.5; stroke-linecap: square"/>
   </g>
   <g id="patch_3">
    <path d="M 7.2 137.818125 
L 7.2 22.318125 
" style="fill: none; stroke: #000000; stroke-width: 0.8; stroke-linejoin: miter; stroke-linecap: square"/>
   </g>
   <g id="patch_4">
    <path d="M 565.2 137.818125 
L 565.2 22.318125 
" style="fill: none; stroke: #000000; stroke-width: 0.8; stroke-linejoin: miter; stroke-linecap: square"/>
   </g>
   <g id="patch_5">
    <path d="M 7.2 137.818125 
L 565.2 137.818125 
" style="fill: none; stroke: #000000; stroke-width: 0.8; stroke-linejoin: miter; stroke-linecap: square"/>
   </g>
   <g id="patch_6">
    <path d="M 7.2 22.318125 
L 565.2 22.318125 
" style="fill: none; stroke: #000000; stroke-width: 0.8; stroke-linejoin: miter; stroke-linecap: square"/>
   </g>
   <g id="text_1">
    <!-- Symbols -->
    <g transform="translate(40.68 41.218125)scale(0.1 -0.1)">
     <defs>
      <path id="DejaVuSans-53" d="M 3425 4513 
L 3425 3897 
Q 3066 4069 2747 4153 
Q 2428 4238 2131 4238 
Q 1616 4238 1336 4038 
Q 1056 3838 1056 3469 
Q 1056 3159 1242 3001 
Q 1428 2844 1947 2747 
L 2328 2669 
Q 3034 2534 3370 2195 
Q 3706 1856 3706 1288 
Q 3706 609 3251 259 
Q 2797 -91 1919 -91 
Q 1588 -91 1214 -16 
Q 841 59 441 206 
L 441 856 
Q 825 641 1194 531 
Q 1563 422 1919 422 
Q 2459 422 2753 634 
Q 3047 847 3047 1241 
Q 3047 1584 2836 1778 
Q 2625 1972 2144 2069 
L 1759 2144 
Q 1053 2284 737 2584 
Q 422 2884 422 3419 
Q 422 4038 858 4394 
Q 1294 4750 2059 4750 
Q 2388 4750 2728 4690 
Q 3069 4631 3425 4513 
z
" transform="scale(0.015625)"/>
      <path id="DejaVuSans-79" d="M 2059 -325 
Q 1816 -950 1584 -1140 
Q 1353 -1331 966 -1331 
L 506 -1331 
L 506 -850 
L 844 -850 
Q 1081 -850 1212 -737 
Q 1344 -625 1503 -206 
L 1606 56 
L 191 3500 
L 800 3500 
L 1894 763 
L 2988 3500 
L 3597 3500 
L 2059 -325 
z
" transform="scale(0.015625)"/>
      <path id="DejaVuSans-6d" d="M 3328 2828 
Q 3544 3216 3844 3400 
Q 4144 3584 4550 3584 
Q 5097 3584 5394 3201 
Q 5691 2819 5691 2113 
L 5691 0 
L 5113 0 
L 5113 2094 
Q 5113 2597 4934 2840 
Q 4756 3084 4391 3084 
Q 3944 3084 3684 2787 
Q 3425 2491 3425 1978 
L 3425 0 
L 2847 0 
L 2847 2094 
Q 2847 2600 2669 2842 
Q 2491 3084 2119 3084 
Q 1678 3084 1418 2786 
Q 1159 2488 1159 1978 
L 1159 0 
L 581 0 
L 581 3500 
L 1159 3500 
L 1159 2956 
Q 1356 3278 1631 3431 
Q 1906 3584 2284 3584 
Q 2666 3584 2933 3390 
Q 3200 3197 3328 2828 
z
" transform="scale(0.015625)"/>
      <path id="DejaVuSans-62" d="M 3116 1747 
Q 3116 2381 2855 2742 
Q 2594 3103 2138 3103 
Q 1681 3103 1420 2742 
Q 1159 2381 1159 1747 
Q 1159 1113 1420 752 
Q 1681 391 2138 391 
Q 2594 391 2855 752 
Q 3116 1113 3116 1747 
z
M 1159 2969 
Q 1341 3281 1617 3432 
Q 1894 3584 2278 3584 
Q 2916 3584 3314 3078 
Q 3713 2572 3713 1747 
Q 3713 922 3314 415 
Q 2916 -91 2278 -91 
Q 1894 -91 1617 61 
Q 1341 213 1159 525 
L 1159 0 
L 581 0 
L 581 4863 
L 1159 4863 
L 1159 2969 
z
" transform="scale(0.015625)"/>
      <path id="DejaVuSans-6f" d="M 1959 3097 
Q 1497 3097 1228 2736 
Q 959 2375 959 1747 
Q 959 1119 1226 758 
Q 1494 397 1959 397 
Q 2419 397 2687 759 
Q 2956 1122 2956 1747 
Q 2956 2369 2687 2733 
Q 2419 3097 1959 3097 
z
M 1959 3584 
Q 2709 3584 3137 3096 
Q 3566 2609 3566 1747 
Q 3566 888 3137 398 
Q 2709 -91 1959 -91 
Q 1206 -91 779 398 
Q 353 888 353 1747 
Q 353 2609 779 3096 
Q 1206 3584 1959 3584 
z
" transform="scale(0.015625)"/>
      <path id="DejaVuSans-6c" d="M 603 4863 
L 1178 4863 
L 1178 0 
L 603 0 
L 603 4863 
z
" transform="scale(0.015625)"/>
      <path id="DejaVuSans-73" d="M 2834 3397 
L 2834 2853 
Q 2591 2978 2328 3040 
Q 2066 3103 1784 3103 
Q 1356 3103 1142 2972 
Q 928 2841 928 2578 
Q 928 2378 1081 2264 
Q 1234 2150 1697 2047 
L 1894 2003 
Q 2506 1872 2764 1633 
Q 3022 1394 3022 966 
Q 3022 478 2636 193 
Q 2250 -91 1575 -91 
Q 1294 -91 989 -36 
Q 684 19 347 128 
L 347 722 
Q 666 556 975 473 
Q 1284 391 1588 391 
Q 1994 391 2212 530 
Q 2431 669 2431 922 
Q 2431 1156 2273 1281 
Q 2116 1406 1581 1522 
L 1381 1569 
Q 847 1681 609 1914 
Q 372 2147 372 2553 
Q 372 3047 722 3315 
Q 1072 3584 1716 3584 
Q 2034 3584 2315 3537 
Q 2597 3491 2834 3397 
z
" transform="scale(0.015625)"/>
     </defs>
     <use xlink:href="#DejaVuSans-53"/>
     <use xlink:href="#DejaVuSans-79" x="63.476562"/>
     <use xlink:href="#DejaVuSans-6d" x="122.65625"/>
     <use xlink:href="#DejaVuSans-62" x="220.068359"/>
     <use xlink:href="#DejaVuSans-6f" x="283.544922"/>
     <use xlink:href="#DejaVuSans-6c" x="344.726562"/>
     <use xlink:href="#DejaVuSans-73" x="372.509766"/>
    </g>
   </g>
   <g id="text_2">
    <!-- Encoded -->
    <g transform="translate(40.68 83.218125)scale(0.1 -0.1)">
     <defs>
      <path id="DejaVuSans-45" d="M 628 4666 
L 3578 4666 
L 3578 4134 
L 1259 4134 
L 1259 2753 
L 3481 2753 
L 3481 2222 
L 1259 2222 
L 1259 531 
L 3634 531 
L 3634 0 
L 628 0 
L 628 4666 
z
" transform="scale(0.015625)"/>
      <path id="DejaVuSans-6e" d="M 3513 2113 
L 3513 0 
L 2938 0 
L 2938 2094 
Q 2938 2591 2744 2837 
Q 2550 3084 2163 3084 
Q 1697 3084 1428 2787 
Q 1159 2491 1159 1978 
L 1159 0 
L 581 0 
L 581 3500 
L 1159 3500 
L 1159 2956 
Q 1366 3272 1645 3428 
Q 1925 3584 2291 3584 
Q 2894 3584 3203 3211 
Q 3513 2838 3513 2113 
z
" transform="scale(0.015625)"/>
      <path id="DejaVuSans-63" d="M 3122 3366 
L 3122 2828 
Q 2878 2963 2633 3030 
Q 2388 3097 2138 3097 
Q 1578 3097 1268 2742 
Q 959 2388 959 1747 
Q 959 1106 1268 751 
Q 1578 397 2138 397 
Q 2388 397 2633 464 
Q 2878 531 3122 666 
L 3122 134 
Q 2881 22 2623 -34 
Q 2366 -91 2075 -91 
Q 1284 -91 818 406 
Q 353 903 353 1747 
Q 353 2603 823 3093 
Q 1294 3584 2113 3584 
Q 2378 3584 2631 3529 
Q 2884 3475 3122 3366 
z
" transform="scale(0.015625)"/>
      <path id="DejaVuSans-64" d="M 2906 2969 
L 2906 4863 
L 3481 4863 
L 3481 0 
L 2906 0 
L 2906 525 
Q 2725 213 2448 61 
Q 2172 -91 1784 -91 
Q 1150 -91 751 415 
Q 353 922 353 1747 
Q 353 2572 751 3078 
Q 1150 3584 1784 3584 
Q 2172 3584 2448 3432 
Q 2725 3281 2906 2969 
z
M 947 1747 
Q 947 1113 1208 752 
Q 1469 391 1925 391 
Q 2381 391 2643 752 
Q 2906 1113 2906 1747 
Q 2906 2381 2643 2742 
Q 2381 3103 1925 3103 
Q 1469 3103 1208 2742 
Q 947 2381 947 1747 
z
" transform="scale(0.015625)"/>
      <path id="DejaVuSans-65" d="M 3597 1894 
L 3597 1613 
L 953 1613 
Q 991 1019 1311 708 
Q 1631 397 2203 397 
Q 2534 397 2845 478 
Q 3156 559 3463 722 
L 3463 178 
Q 3153 47 2828 -22 
Q 2503 -91 2169 -91 
Q 1331 -91 842 396 
Q 353 884 353 1716 
Q 353 2575 817 3079 
Q 1281 3584 2069 3584 
Q 2775 3584 3186 3129 
Q 3597 2675 3597 1894 
z
M 3022 2063 
Q 3016 2534 2758 2815 
Q 2500 3097 2075 3097 
Q 1594 3097 1305 2825 
Q 1016 2553 972 2059 
L 3022 2063 
z
" transform="scale(0.015625)"/>
     </defs>
     <use xlink:href="#DejaVuSans-45"/>
     <use xlink:href="#DejaVuSans-6e" x="63.183594"/>
     <use xlink:href="#DejaVuSans-63" x="126.5625"/>
     <use xlink:href="#DejaVuSans-6f" x="181.542969"/>
     <use xlink:href="#DejaVuSans-64" x="242.724609"/>
     <use xlink:href="#DejaVuSans-65" x="306.201172"/>
     <use xlink:href="#DejaVuSans-64" x="367.724609"/>
    </g>
   </g>
   <g id="text_3">
    <!-- Decoded -->
    <g transform="translate(40.68 125.218125)scale(0.1 -0.1)">
     <defs>
      <path id="DejaVuSans-44" d="M 1259 4147 
L 1259 519 
L 2022 519 
Q 2988 519 3436 956 
Q 3884 1394 3884 2338 
Q 3884 3275 3436 3711 
Q 2988 4147 2022 4147 
L 1259 4147 
z
M 628 4666 
L 1925 4666 
Q 3281 4666 3915 4102 
Q 4550 3538 4550 2338 
Q 4550 1131 3912 565 
Q 3275 0 1925 0 
L 628 0 
L 628 4666 
z
" transform="scale(0.015625)"/>
     </defs>
     <use xlink:href="#DejaVuSans-44"/>
     <use xlink:href="#DejaVuSans-65" x="77.001953"/>
     <use xlink:href="#DejaVuSans-63" x="138.525391"/>
     <use xlink:href="#DejaVuSans-6f" x="193.505859"/>
     <use xlink:href="#DejaVuSans-64" x="254.6875"/>
     <use xlink:href="#DejaVuSans-65" x="318.164062"/>
     <use xlink:href="#DejaVuSans-64" x="379.6875"/>
    </g>
   </g>
   <g id="text_4">
    <!-- 1 -->
    <g transform="translate(134.424 41.218125)scale(0.14 -0.14)">
     <defs>
      <path id="DejaVuSans-31" d="M 794 531 
L 1825 531 
L 1825 4091 
L 703 3866 
L 703 4441 
L 1819 4666 
L 2450 4666 
L 2450 531 
L 3481 531 
L 3481 0 
L 794 0 
L 794 531 
z
" transform="scale(0.015625)"/>
     </defs>
     <use xlink:href="#DejaVuSans-31"/>
    </g>
   </g>
   <g id="text_5">
    <!-- 1 -->
    <g transform="translate(134.424 125.218125)scale(0.14 -0.14)">
     <use xlink:href="#DejaVuSans-31"/>
    </g>
   </g>
   <g id="patch_7">
    <path d="M 109.145445 57.590742 
Q 117.887822 50.525021 126.630199 43.4593 
L 125.593036 42.176025 
Q 127.776518 41.697075 129.96 41.218125 
Q 129.033684 43.25256 128.107369 45.286995 
L 127.070207 44.00372 
Q 118.32783 51.069441 109.585453 58.135162 
L 109.145445 57.590742 
z
" style="fill: #ff0000; stroke: #ff0000; stroke-linecap: round"/>
   </g>
   <g id="text_6">
    <!-- + -->
    <g style="fill: #ff0000" transform="translate(98.986156 67.0775)scale(0.1 -0.1)">
     <defs>
      <path id="DejaVuSans-2b" d="M 2944 4013 
L 2944 2272 
L 4684 2272 
L 4684 1741 
L 2944 1741 
L 2944 0 
L 2419 0 
L 2419 1741 
L 678 1741 
L 678 2272 
L 2419 2272 
L 2419 4013 
L 2944 4013 
z
" transform="scale(0.015625)"/>
     </defs>
     <use xlink:href="#DejaVuSans-2b"/>
    </g>
   </g>
   <g id="patch_8">
    <path d="M 109.365449 91.268125 
Q 117.662851 91.268125 125.960253 91.268125 
L 125.960253 89.618125 
Q 127.960126 90.618125 129.96 91.618125 
Q 127.960126 92.618125 125.960253 93.618125 
L 125.960253 91.968125 
Q 117.662851 91.968125 109.365449 91.968125 
L 109.365449 91.268125 
z
" style="fill: #ff0000; stroke: #ff0000; stroke-linecap: round"/>
   </g>
   <g id="text_7">
    <!-- + -->
    <g style="fill: #ff0000" transform="translate(98.986156 94.3775)scale(0.1 -0.1)">
     <use xlink:href="#DejaVuSans-2b"/>
    </g>
   </g>
   <g id="text_8">
    <!-- 1 -->
    <g transform="translate(179.064 41.218125)scale(0.14 -0.14)">
     <use xlink:href="#DejaVuSans-31"/>
    </g>
   </g>
   <g id="text_9">
    <!-- 1 -->
    <g transform="translate(179.064 125.218125)scale(0.14 -0.14)">
     <use xlink:href="#DejaVuSans-31"/>
    </g>
   </g>
   <g id="patch_9">
    <path d="M 153.785445 57.590742 
Q 162.527822 50.525021 171.270199 43.4593 
L 170.233036 42.176025 
Q 172.416518 41.697075 174.6 41.218125 
Q 173.673684 43.25256 172.747369 45.286995 
L 171.710207 44.00372 
Q 162.96783 51.069441 154.225453 58.135162 
L 153.785445 57.590742 
z
" style="fill: #ff0000; stroke: #ff0000; stroke-linecap: round"/>
   </g>
   <g id="text_10">
    <!-- + -->
    <g style="fill: #ff0000" transform="translate(143.626156 67.0775)scale(0.1 -0.1)">
     <use xlink:href="#DejaVuSans-2b"/>
    </g>
   </g>
   <g id="patch_10">
    <path d="M 154.005449 91.268125 
Q 162.302851 91.268125 170.600253 91.268125 
L 170.600253 89.618125 
Q 172.600126 90.618125 174.6 91.618125 
Q 172.600126 92.618125 170.600253 93.618125 
L 170.600253 91.968125 
Q 162.302851 91.968125 154.005449 91.968125 
L 154.005449 91.268125 
z
" style="fill: #ff0000; stroke: #ff0000; stroke-linecap: round"/>
   </g>
   <g id="text_11">
    <!-- + -->
    <g style="fill: #ff0000" transform="translate(143.626156 94.3775)scale(0.1 -0.1)">
     <use xlink:href="#DejaVuSans-2b"/>
    </g>
   </g>
   <g id="text_12">
    <!-- 0 -->
    <g transform="translate(223.704 41.218125)scale(0.14 -0.14)">
     <defs>
      <path id="DejaVuSans-30" d="M 2034 4250 
Q 1547 4250 1301 3770 
Q 1056 3291 1056 2328 
Q 1056 1369 1301 889 
Q 1547 409 2034 409 
Q 2525 409 2770 889 
Q 3016 1369 3016 2328 
Q 3016 3291 2770 3770 
Q 2525 4250 2034 4250 
z
M 2034 4750 
Q 2819 4750 3233 4129 
Q 3647 3509 3647 2328 
Q 3647 1150 3233 529 
Q 2819 -91 2034 -91 
Q 1250 -91 836 529 
Q 422 1150 422 2328 
Q 422 3509 836 4129 
Q 1250 4750 2034 4750 
z
" transform="scale(0.015625)"/>
     </defs>
     <use xlink:href="#DejaVuSans-30"/>
    </g>
   </g>
   <g id="text_13">
    <!-- 0 -->
    <g transform="translate(223.704 125.218125)scale(0.14 -0.14)">
     <use xlink:href="#DejaVuSans-30"/>
    </g>
   </g>
   <g id="patch_11">
    <path d="M 198.425445 57.590742 
Q 207.167822 50.525021 215.910199 43.4593 
L 214.873036 42.176025 
Q 217.056518 41.697075 219.24 41.218125 
Q 218.313684 43.25256 217.387369 45.286995 
L 216.350207 44.00372 
Q 207.60783 51.069441 198.865453 58.135162 
L 198.425445 57.590742 
z
" style="fill: #ff0000; stroke: #ff0000; stroke-linecap: round"/>
   </g>
   <g id="text_14">
    <!-- + -->
    <g style="fill: #ff0000" transform="translate(188.266156 67.0775)scale(0.1 -0.1)">
     <use xlink:href="#DejaVuSans-2b"/>
    </g>
   </g>
   <g id="patch_12">
    <path d="M 198.645449 91.268125 
Q 206.942851 91.268125 215.240253 91.268125 
L 215.240253 89.618125 
Q 217.240126 90.618125 219.24 91.618125 
Q 217.240126 92.618125 215.240253 93.618125 
L 215.240253 91.968125 
Q 206.942851 91.968125 198.645449 91.968125 
L 198.645449 91.268125 
z
" style="fill: #ff0000; stroke: #ff0000; stroke-linecap: round"/>
   </g>
   <g id="text_15">
    <!-- + -->
    <g style="fill: #ff0000" transform="translate(188.266156 94.3775)scale(0.1 -0.1)">
     <use xlink:href="#DejaVuSans-2b"/>
    </g>
   </g>
   <g id="text_16">
    <!-- 0 -->
    <g transform="translate(268.344 41.218125)scale(0.14 -0.14)">
     <use xlink:href="#DejaVuSans-30"/>
    </g>
   </g>
   <g id="text_17">
    <!-- 0 -->
    <g transform="translate(268.344 125.218125)scale(0.14 -0.14)">
     <use xlink:href="#DejaVuSans-30"/>
    </g>
   </g>
   <g id="patch_13">
    <path d="M 243.065445 57.590742 
Q 251.807822 50.525021 260.550199 43.4593 
L 259.513036 42.176025 
Q 261.696518 41.697075 263.88 41.218125 
Q 262.953684 43.25256 262.027369 45.286995 
L 260.990207 44.00372 
Q 252.24783 51.069441 243.505453 58.135162 
L 243.065445 57.590742 
z
" style="fill: #ff0000; stroke: #ff0000; stroke-linecap: round"/>
   </g>
   <g id="text_18">
    <!-- + -->
    <g style="fill: #ff0000" transform="translate(232.906156 67.0775)scale(0.1 -0.1)">
     <use xlink:href="#DejaVuSans-2b"/>
    </g>
   </g>
   <g id="patch_14">
    <path d="M 243.285449 91.268125 
Q 251.582851 91.268125 259.880253 91.268125 
L 259.880253 89.618125 
Q 261.880126 90.618125 263.88 91.618125 
Q 261.880126 92.618125 259.880253 93.618125 
L 259.880253 91.968125 
Q 251.582851 91.968125 243.285449 91.968125 
L 243.285449 91.268125 
z
" style="fill: #ff0000; stroke: #ff0000; stroke-linecap: round"/>
   </g>
   <g id="text_19">
    <!-- + -->
    <g style="fill: #ff0000" transform="translate(232.906156 94.3775)scale(0.1 -0.1)">
     <use xlink:href="#DejaVuSans-2b"/>
    </g>
   </g>
   <g id="text_20">
    <!-- 1 -->
    <g transform="translate(312.984 41.218125)scale(0.14 -0.14)">
     <use xlink:href="#DejaVuSans-31"/>
    </g>
   </g>
   <g id="text_21">
    <!-- 1 -->
    <g transform="translate(312.984 125.218125)scale(0.14 -0.14)">
     <use xlink:href="#DejaVuSans-31"/>
    </g>
   </g>
   <g id="patch_15">
    <path d="M 287.705445 57.590742 
Q 296.447822 50.525021 305.190199 43.4593 
L 304.153036 42.176025 
Q 306.336518 41.697075 308.52 41.218125 
Q 307.593684 43.25256 306.667369 45.286995 
L 305.630207 44.00372 
Q 296.88783 51.069441 288.145453 58.135162 
L 287.705445 57.590742 
z
" style="fill: #ff0000; stroke: #ff0000; stroke-linecap: round"/>
   </g>
   <g id="text_22">
    <!-- + -->
    <g style="fill: #ff0000" transform="translate(277.546156 67.0775)scale(0.1 -0.1)">
     <use xlink:href="#DejaVuSans-2b"/>
    </g>
   </g>
   <g id="patch_16">
    <path d="M 287.925449 91.268125 
Q 296.222851 91.268125 304.520253 91.268125 
L 304.520253 89.618125 
Q 306.520126 90.618125 308.52 91.618125 
Q 306.520126 92.618125 304.520253 93.618125 
L 304.520253 91.968125 
Q 296.222851 91.968125 287.925449 91.968125 
L 287.925449 91.268125 
z
" style="fill: #ff0000; stroke: #ff0000; stroke-linecap: round"/>
   </g>
   <g id="text_23">
    <!-- + -->
    <g style="fill: #ff0000" transform="translate(277.546156 94.3775)scale(0.1 -0.1)">
     <use xlink:href="#DejaVuSans-2b"/>
    </g>
   </g>
   <g id="text_24">
    <!-- 1 -->
    <g transform="translate(357.624 41.218125)scale(0.14 -0.14)">
     <use xlink:href="#DejaVuSans-31"/>
    </g>
   </g>
   <g id="text_25">
    <!-- 1 -->
    <g transform="translate(357.624 125.218125)scale(0.14 -0.14)">
     <use xlink:href="#DejaVuSans-31"/>
    </g>
   </g>
   <g id="patch_17">
    <path d="M 332.345445 57.590742 
Q 341.087822 50.525021 349.830199 43.4593 
L 348.793036 42.176025 
Q 350.976518 41.697075 353.16 41.218125 
Q 352.233684 43.25256 351.307369 45.286995 
L 350.270207 44.00372 
Q 341.52783 51.069441 332.785453 58.135162 
L 332.345445 57.590742 
z
" style="fill: #ff0000; stroke: #ff0000; stroke-linecap: round"/>
   </g>
   <g id="text_26">
    <!-- + -->
    <g style="fill: #ff0000" transform="translate(322.186156 67.0775)scale(0.1 -0.1)">
     <use xlink:href="#DejaVuSans-2b"/>
    </g>
   </g>
   <g id="patch_18">
    <path d="M 332.565449 91.268125 
Q 340.862851 91.268125 349.160253 91.268125 
L 349.160253 89.618125 
Q 351.160126 90.618125 353.16 91.618125 
Q 351.160126 92.618125 349.160253 93.618125 
L 349.160253 91.968125 
Q 340.862851 91.968125 332.565449 91.968125 
L 332.565449 91.268125 
z
" style="fill: #ff0000; stroke: #ff0000; stroke-linecap: round"/>
   </g>
   <g id="text_27">
    <!-- + -->
    <g style="fill: #ff0000" transform="translate(322.186156 94.3775)scale(0.1 -0.1)">
     <use xlink:href="#DejaVuSans-2b"/>
    </g>
   </g>
   <g id="text_28">
    <!-- 1 -->
    <g transform="translate(402.264 41.218125)scale(0.14 -0.14)">
     <use xlink:href="#DejaVuSans-31"/>
    </g>
   </g>
   <g id="text_29">
    <!-- 1 -->
    <g transform="translate(402.264 125.218125)scale(0.14 -0.14)">
     <use xlink:href="#DejaVuSans-31"/>
    </g>
   </g>
   <g id="patch_19">
    <path d="M 376.985445 57.590742 
Q 385.727822 50.525021 394.470199 43.4593 
L 393.433036 42.176025 
Q 395.616518 41.697075 397.8 41.218125 
Q 396.873684 43.25256 395.947369 45.286995 
L 394.910207 44.00372 
Q 386.16783 51.069441 377.425453 58.135162 
L 376.985445 57.590742 
z
" style="fill: #ff0000; stroke: #ff0000; stroke-linecap: round"/>
   </g>
   <g id="text_30">
    <!-- + -->
    <g style="fill: #ff0000" transform="translate(366.826156 67.0775)scale(0.1 -0.1)">
     <use xlink:href="#DejaVuSans-2b"/>
    </g>
   </g>
   <g id="patch_20">
    <path d="M 377.205449 91.268125 
Q 385.502851 91.268125 393.800253 91.268125 
L 393.800253 89.618125 
Q 395.800126 90.618125 397.8 91.618125 
Q 395.800126 92.618125 393.800253 93.618125 
L 393.800253 91.968125 
Q 385.502851 91.968125 377.205449 91.968125 
L 377.205449 91.268125 
z
" style="fill: #ff0000; stroke: #ff0000; stroke-linecap: round"/>
   </g>
   <g id="text_31">
    <!-- + -->
    <g style="fill: #ff0000" transform="translate(366.826156 94.3775)scale(0.1 -0.1)">
     <use xlink:href="#DejaVuSans-2b"/>
    </g>
   </g>
   <g id="text_32">
    <!-- 1 -->
    <g transform="translate(446.904 41.218125)scale(0.14 -0.14)">
     <use xlink:href="#DejaVuSans-31"/>
    </g>
   </g>
   <g id="text_33">
    <!-- 1 -->
    <g transform="translate(446.904 125.218125)scale(0.14 -0.14)">
     <use xlink:href="#DejaVuSans-31"/>
    </g>
   </g>
   <g id="patch_21">
    <path d="M 421.625445 57.590742 
Q 430.367822 50.525021 439.110199 43.4593 
L 438.073036 42.176025 
Q 440.256518 41.697075 442.44 41.218125 
Q 441.513684 43.25256 440.587369 45.286995 
L 439.550207 44.00372 
Q 430.80783 51.069441 422.065453 58.135162 
L 421.625445 57.590742 
z
" style="fill: #ff0000; stroke: #ff0000; stroke-linecap: round"/>
   </g>
   <g id="text_34">
    <!-- + -->
    <g style="fill: #ff0000" transform="translate(411.466156 67.0775)scale(0.1 -0.1)">
     <use xlink:href="#DejaVuSans-2b"/>
    </g>
   </g>
   <g id="patch_22">
    <path d="M 421.845449 91.268125 
Q 430.142851 91.268125 438.440253 91.268125 
L 438.440253 89.618125 
Q 440.440126 90.618125 442.44 91.618125 
Q 440.440126 92.618125 438.440253 93.618125 
L 438.440253 91.968125 
Q 430.142851 91.968125 421.845449 91.968125 
L 421.845449 91.268125 
z
" style="fill: #ff0000; stroke: #ff0000; stroke-linecap: round"/>
   </g>
   <g id="text_35">
    <!-- + -->
    <g style="fill: #ff0000" transform="translate(411.466156 94.3775)scale(0.1 -0.1)">
     <use xlink:href="#DejaVuSans-2b"/>
    </g>
   </g>
   <g id="text_36">
    <!-- 1 -->
    <g transform="translate(491.544 41.218125)scale(0.14 -0.14)">
     <use xlink:href="#DejaVuSans-31"/>
    </g>
   </g>
   <g id="text_37">
    <!-- 1 -->
    <g transform="translate(491.544 125.218125)scale(0.14 -0.14)">
     <use xlink:href="#DejaVuSans-31"/>
    </g>
   </g>
   <g id="patch_23">
    <path d="M 466.265445 57.590742 
Q 475.007822 50.525021 483.750199 43.4593 
L 482.713036 42.176025 
Q 484.896518 41.697075 487.08 41.218125 
Q 486.153684 43.25256 485.227369 45.286995 
L 484.190207 44.00372 
Q 475.44783 51.069441 466.705453 58.135162 
L 466.265445 57.590742 
z
" style="fill: #ff0000; stroke: #ff0000; stroke-linecap: round"/>
   </g>
   <g id="text_38">
    <!-- + -->
    <g style="fill: #ff0000" transform="translate(456.106156 67.0775)scale(0.1 -0.1)">
     <use xlink:href="#DejaVuSans-2b"/>
    </g>
   </g>
   <g id="patch_24">
    <path d="M 466.485449 91.268125 
Q 474.782851 91.268125 483.080253 91.268125 
L 483.080253 89.618125 
Q 485.080126 90.618125 487.08 91.618125 
Q 485.080126 92.618125 483.080253 93.618125 
L 483.080253 91.968125 
Q 474.782851 91.968125 466.485449 91.968125 
L 466.485449 91.268125 
z
" style="fill: #ff0000; stroke: #ff0000; stroke-linecap: round"/>
   </g>
   <g id="text_39">
    <!-- + -->
    <g style="fill: #ff0000" transform="translate(456.106156 94.3775)scale(0.1 -0.1)">
     <use xlink:href="#DejaVuSans-2b"/>
    </g>
   </g>
   <g id="text_40">
    <!-- 0 -->
    <g transform="translate(536.184 41.218125)scale(0.14 -0.14)">
     <use xlink:href="#DejaVuSans-30"/>
    </g>
   </g>
   <g id="text_41">
    <!-- 0 -->
    <g transform="translate(536.184 125.218125)scale(0.14 -0.14)">
     <use xlink:href="#DejaVuSans-30"/>
    </g>
   </g>
   <g id="patch_25">
    <path d="M 510.905445 57.590742 
Q 519.647822 50.525021 528.390199 43.4593 
L 527.353036 42.176025 
Q 529.536518 41.697075 531.72 41.218125 
Q 530.793684 43.25256 529.867369 45.286995 
L 528.830207 44.00372 
Q 520.08783 51.069441 511.345453 58.135162 
L 510.905445 57.590742 
z
" style="fill: #ff0000; stroke: #ff0000; stroke-linecap: round"/>
   </g>
   <g id="text_42">
    <!-- + -->
    <g style="fill: #ff0000" transform="translate(500.746156 67.0775)scale(0.1 -0.1)">
     <use xlink:href="#DejaVuSans-2b"/>
    </g>
   </g>
   <g id="patch_26">
    <path d="M 511.125449 91.268125 
Q 519.422851 91.268125 527.720253 91.268125 
L 527.720253 89.618125 
Q 529.720126 90.618125 531.72 91.618125 
Q 529.720126 92.618125 527.720253 93.618125 
L 527.720253 91.968125 
Q 519.422851 91.968125 511.125449 91.968125 
L 511.125449 91.268125 
z
" style="fill: #ff0000; stroke: #ff0000; stroke-linecap: round"/>
   </g>
   <g id="text_43">
    <!-- + -->
    <g style="fill: #ff0000" transform="translate(500.746156 94.3775)scale(0.1 -0.1)">
     <use xlink:href="#DejaVuSans-2b"/>
    </g>
   </g>
   <g id="text_44">
    <!-- 1 -->
    <g transform="translate(89.784 83.218125)scale(0.14 -0.14)">
     <use xlink:href="#DejaVuSans-31"/>
    </g>
   </g>
   <g id="text_45">
    <!-- 0 -->
    <g transform="translate(134.424 83.218125)scale(0.14 -0.14)">
     <use xlink:href="#DejaVuSans-30"/>
    </g>
   </g>
   <g id="text_46">
    <!-- 1 -->
    <g transform="translate(179.064 83.218125)scale(0.14 -0.14)">
     <use xlink:href="#DejaVuSans-31"/>
    </g>
   </g>
   <g id="text_47">
    <!-- 1 -->
    <g transform="translate(223.704 83.218125)scale(0.14 -0.14)">
     <use xlink:href="#DejaVuSans-31"/>
    </g>
   </g>
   <g id="text_48">
    <!-- 1 -->
    <g transform="translate(268.344 83.218125)scale(0.14 -0.14)">
     <use xlink:href="#DejaVuSans-31"/>
    </g>
   </g>
   <g id="text_49">
    <!-- 0 -->
    <g transform="translate(312.984 83.218125)scale(0.14 -0.14)">
     <use xlink:href="#DejaVuSans-30"/>
    </g>
   </g>
   <g id="text_50">
    <!-- 1 -->
    <g transform="translate(357.624 83.218125)scale(0.14 -0.14)">
     <use xlink:href="#DejaVuSans-31"/>
    </g>
   </g>
   <g id="text_51">
    <!-- 0 -->
    <g transform="translate(402.264 83.218125)scale(0.14 -0.14)">
     <use xlink:href="#DejaVuSans-30"/>
    </g>
   </g>
   <g id="text_52">
    <!-- 1 -->
    <g transform="translate(446.904 83.218125)scale(0.14 -0.14)">
     <use xlink:href="#DejaVuSans-31"/>
    </g>
   </g>
   <g id="text_53">
    <!-- 0 -->
    <g transform="translate(491.544 83.218125)scale(0.14 -0.14)">
     <use xlink:href="#DejaVuSans-30"/>
    </g>
   </g>
   <g id="text_54">
    <!-- 0 -->
    <g transform="translate(536.184 83.218125)scale(0.14 -0.14)">
     <use xlink:href="#DejaVuSans-30"/>
    </g>
   </g>
   <g id="text_55">
    <!-- Starting With 1 -->
    <g transform="translate(241.014375 16.318125)scale(0.12 -0.12)">
     <defs>
      <path id="DejaVuSans-74" d="M 1172 4494 
L 1172 3500 
L 2356 3500 
L 2356 3053 
L 1172 3053 
L 1172 1153 
Q 1172 725 1289 603 
Q 1406 481 1766 481 
L 2356 481 
L 2356 0 
L 1766 0 
Q 1100 0 847 248 
Q 594 497 594 1153 
L 594 3053 
L 172 3053 
L 172 3500 
L 594 3500 
L 594 4494 
L 1172 4494 
z
" transform="scale(0.015625)"/>
      <path id="DejaVuSans-61" d="M 2194 1759 
Q 1497 1759 1228 1600 
Q 959 1441 959 1056 
Q 959 750 1161 570 
Q 1363 391 1709 391 
Q 2188 391 2477 730 
Q 2766 1069 2766 1631 
L 2766 1759 
L 2194 1759 
z
M 3341 1997 
L 3341 0 
L 2766 0 
L 2766 531 
Q 2569 213 2275 61 
Q 1981 -91 1556 -91 
Q 1019 -91 701 211 
Q 384 513 384 1019 
Q 384 1609 779 1909 
Q 1175 2209 1959 2209 
L 2766 2209 
L 2766 2266 
Q 2766 2663 2505 2880 
Q 2244 3097 1772 3097 
Q 1472 3097 1187 3025 
Q 903 2953 641 2809 
L 641 3341 
Q 956 3463 1253 3523 
Q 1550 3584 1831 3584 
Q 2591 3584 2966 3190 
Q 3341 2797 3341 1997 
z
" transform="scale(0.015625)"/>
      <path id="DejaVuSans-72" d="M 2631 2963 
Q 2534 3019 2420 3045 
Q 2306 3072 2169 3072 
Q 1681 3072 1420 2755 
Q 1159 2438 1159 1844 
L 1159 0 
L 581 0 
L 581 3500 
L 1159 3500 
L 1159 2956 
Q 1341 3275 1631 3429 
Q 1922 3584 2338 3584 
Q 2397 3584 2469 3576 
Q 2541 3569 2628 3553 
L 2631 2963 
z
" transform="scale(0.015625)"/>
      <path id="DejaVuSans-69" d="M 603 3500 
L 1178 3500 
L 1178 0 
L 603 0 
L 603 3500 
z
M 603 4863 
L 1178 4863 
L 1178 4134 
L 603 4134 
L 603 4863 
z
" transform="scale(0.015625)"/>
      <path id="DejaVuSans-67" d="M 2906 1791 
Q 2906 2416 2648 2759 
Q 2391 3103 1925 3103 
Q 1463 3103 1205 2759 
Q 947 2416 947 1791 
Q 947 1169 1205 825 
Q 1463 481 1925 481 
Q 2391 481 2648 825 
Q 2906 1169 2906 1791 
z
M 3481 434 
Q 3481 -459 3084 -895 
Q 2688 -1331 1869 -1331 
Q 1566 -1331 1297 -1286 
Q 1028 -1241 775 -1147 
L 775 -588 
Q 1028 -725 1275 -790 
Q 1522 -856 1778 -856 
Q 2344 -856 2625 -561 
Q 2906 -266 2906 331 
L 2906 616 
Q 2728 306 2450 153 
Q 2172 0 1784 0 
Q 1141 0 747 490 
Q 353 981 353 1791 
Q 353 2603 747 3093 
Q 1141 3584 1784 3584 
Q 2172 3584 2450 3431 
Q 2728 3278 2906 2969 
L 2906 3500 
L 3481 3500 
L 3481 434 
z
" transform="scale(0.015625)"/>
      <path id="DejaVuSans-20" transform="scale(0.015625)"/>
      <path id="DejaVuSans-57" d="M 213 4666 
L 850 4666 
L 1831 722 
L 2809 4666 
L 3519 4666 
L 4500 722 
L 5478 4666 
L 6119 4666 
L 4947 0 
L 4153 0 
L 3169 4050 
L 2175 0 
L 1381 0 
L 213 4666 
z
" transform="scale(0.015625)"/>
      <path id="DejaVuSans-68" d="M 3513 2113 
L 3513 0 
L 2938 0 
L 2938 2094 
Q 2938 2591 2744 2837 
Q 2550 3084 2163 3084 
Q 1697 3084 1428 2787 
Q 1159 2491 1159 1978 
L 1159 0 
L 581 0 
L 581 4863 
L 1159 4863 
L 1159 2956 
Q 1366 3272 1645 3428 
Q 1925 3584 2291 3584 
Q 2894 3584 3203 3211 
Q 3513 2838 3513 2113 
z
" transform="scale(0.015625)"/>
     </defs>
     <use xlink:href="#DejaVuSans-53"/>
     <use xlink:href="#DejaVuSans-74" x="63.476562"/>
     <use xlink:href="#DejaVuSans-61" x="102.685547"/>
     <use xlink:href="#DejaVuSans-72" x="163.964844"/>
     <use xlink:href="#DejaVuSans-74" x="205.078125"/>
     <use xlink:href="#DejaVuSans-69" x="244.287109"/>
     <use xlink:href="#DejaVuSans-6e" x="272.070312"/>
     <use xlink:href="#DejaVuSans-67" x="335.449219"/>
     <use xlink:href="#DejaVuSans-20" x="398.925781"/>
     <use xlink:href="#DejaVuSans-57" x="430.712891"/>
     <use xlink:href="#DejaVuSans-69" x="527.339844"/>
     <use xlink:href="#DejaVuSans-74" x="555.123047"/>
     <use xlink:href="#DejaVuSans-68" x="594.332031"/>
     <use xlink:href="#DejaVuSans-20" x="657.710938"/>
     <use xlink:href="#DejaVuSans-31" x="689.498047"/>
    </g>
   </g>
  </g>
  <g id="axes_2">
   <g id="patch_27">
    <path d="M 7.2 299.518125 
L 565.2 299.518125 
L 565.2 184.018125 
L 7.2 184.018125 
z
" style="fill: #ffffff"/>
   </g>
   <g id="matplotlib.axis_3">
    <g id="xtick_7"/>
    <g id="xtick_8"/>
    <g id="xtick_9"/>
    <g id="xtick_10"/>
    <g id="xtick_11"/>
    <g id="xtick_12"/>
   </g>
   <g id="matplotlib.axis_4">
    <g id="ytick_4"/>
    <g id="ytick_5"/>
    <g id="ytick_6"/>
   </g>
   <g id="line2d_2">
    <path d="M 118.8 299.518125 
L 118.8 184.018125 
" clip-path="url(#pb00c3d1356)" style="fill: none; stroke: #000000; stroke-width: 1.5; stroke-linecap: square"/>
   </g>
   <g id="patch_28">
    <path d="M 7.2 299.518125 
L 7.2 184.018125 
" style="fill: none; stroke: #000000; stroke-width: 0.8; stroke-linejoin: miter; stroke-linecap: square"/>
   </g>
   <g id="patch_29">
    <path d="M 565.2 299.518125 
L 565.2 184.018125 
" style="fill: none; stroke: #000000; stroke-width: 0.8; stroke-linejoin: miter; stroke-linecap: square"/>
   </g>
   <g id="patch_30">
    <path d="M 7.2 299.518125 
L 565.2 299.518125 
" style="fill: none; stroke: #000000; stroke-width: 0.8; stroke-linejoin: miter; stroke-linecap: square"/>
   </g>
   <g id="patch_31">
    <path d="M 7.2 184.018125 
L 565.2 184.018125 
" style="fill: none; stroke: #000000; stroke-width: 0.8; stroke-linejoin: miter; stroke-linecap: square"/>
   </g>
   <g id="text_56">
    <!-- Symbols -->
    <g transform="translate(40.68 202.918125)scale(0.1 -0.1)">
     <use xlink:href="#DejaVuSans-53"/>
     <use xlink:href="#DejaVuSans-79" x="63.476562"/>
     <use xlink:href="#DejaVuSans-6d" x="122.65625"/>
     <use xlink:href="#DejaVuSans-62" x="220.068359"/>
     <use xlink:href="#DejaVuSans-6f" x="283.544922"/>
     <use xlink:href="#DejaVuSans-6c" x="344.726562"/>
     <use xlink:href="#DejaVuSans-73" x="372.509766"/>
    </g>
   </g>
   <g id="text_57">
    <!-- Encoded -->
    <g transform="translate(40.68 244.918125)scale(0.1 -0.1)">
     <use xlink:href="#DejaVuSans-45"/>
     <use xlink:href="#DejaVuSans-6e" x="63.183594"/>
     <use xlink:href="#DejaVuSans-63" x="126.5625"/>
     <use xlink:href="#DejaVuSans-6f" x="181.542969"/>
     <use xlink:href="#DejaVuSans-64" x="242.724609"/>
     <use xlink:href="#DejaVuSans-65" x="306.201172"/>
     <use xlink:href="#DejaVuSans-64" x="367.724609"/>
    </g>
   </g>
   <g id="text_58">
    <!-- Decoded -->
    <g transform="translate(40.68 286.918125)scale(0.1 -0.1)">
     <use xlink:href="#DejaVuSans-44"/>
     <use xlink:href="#DejaVuSans-65" x="77.001953"/>
     <use xlink:href="#DejaVuSans-63" x="138.525391"/>
     <use xlink:href="#DejaVuSans-6f" x="193.505859"/>
     <use xlink:href="#DejaVuSans-64" x="254.6875"/>
     <use xlink:href="#DejaVuSans-65" x="318.164062"/>
     <use xlink:href="#DejaVuSans-64" x="379.6875"/>
    </g>
   </g>
   <g id="text_59">
    <!-- 1 -->
    <g transform="translate(134.424 202.918125)scale(0.14 -0.14)">
     <use xlink:href="#DejaVuSans-31"/>
    </g>
   </g>
   <g id="text_60">
    <!-- 1 -->
    <g transform="translate(134.424 286.918125)scale(0.14 -0.14)">
     <use xlink:href="#DejaVuSans-31"/>
    </g>
   </g>
   <g id="patch_32">
    <path d="M 109.145445 219.290742 
Q 117.887822 212.225021 126.630199 205.1593 
L 125.593036 203.876025 
Q 127.776518 203.397075 129.96 202.918125 
Q 129.033684 204.95256 128.107369 206.986995 
L 127.070207 205.70372 
Q 118.32783 212.769441 109.585453 219.835162 
L 109.145445 219.290742 
z
" style="fill: #ff0000; stroke: #ff0000; stroke-linecap: round"/>
   </g>
   <g id="text_61">
    <!-- + -->
    <g style="fill: #ff0000" transform="translate(98.986156 228.7775)scale(0.1 -0.1)">
     <use xlink:href="#DejaVuSans-2b"/>
    </g>
   </g>
   <g id="patch_33">
    <path d="M 109.365449 252.968125 
Q 117.662851 252.968125 125.960253 252.968125 
L 125.960253 251.318125 
Q 127.960126 252.318125 129.96 253.318125 
Q 127.960126 254.318125 125.960253 255.318125 
L 125.960253 253.668125 
Q 117.662851 253.668125 109.365449 253.668125 
L 109.365449 252.968125 
z
" style="fill: #ff0000; stroke: #ff0000; stroke-linecap: round"/>
   </g>
   <g id="text_62">
    <!-- + -->
    <g style="fill: #ff0000" transform="translate(98.986156 256.0775)scale(0.1 -0.1)">
     <use xlink:href="#DejaVuSans-2b"/>
    </g>
   </g>
   <g id="text_63">
    <!-- 1 -->
    <g transform="translate(179.064 202.918125)scale(0.14 -0.14)">
     <use xlink:href="#DejaVuSans-31"/>
    </g>
   </g>
   <g id="text_64">
    <!-- 1 -->
    <g transform="translate(179.064 286.918125)scale(0.14 -0.14)">
     <use xlink:href="#DejaVuSans-31"/>
    </g>
   </g>
   <g id="patch_34">
    <path d="M 153.785445 219.290742 
Q 162.527822 212.225021 171.270199 205.1593 
L 170.233036 203.876025 
Q 172.416518 203.397075 174.6 202.918125 
Q 173.673684 204.95256 172.747369 206.986995 
L 171.710207 205.70372 
Q 162.96783 212.769441 154.225453 219.835162 
L 153.785445 219.290742 
z
" style="fill: #ff0000; stroke: #ff0000; stroke-linecap: round"/>
   </g>
   <g id="text_65">
    <!-- + -->
    <g style="fill: #ff0000" transform="translate(143.626156 228.7775)scale(0.1 -0.1)">
     <use xlink:href="#DejaVuSans-2b"/>
    </g>
   </g>
   <g id="patch_35">
    <path d="M 154.005449 252.968125 
Q 162.302851 252.968125 170.600253 252.968125 
L 170.600253 251.318125 
Q 172.600126 252.318125 174.6 253.318125 
Q 172.600126 254.318125 170.600253 255.318125 
L 170.600253 253.668125 
Q 162.302851 253.668125 154.005449 253.668125 
L 154.005449 252.968125 
z
" style="fill: #ff0000; stroke: #ff0000; stroke-linecap: round"/>
   </g>
   <g id="text_66">
    <!-- + -->
    <g style="fill: #ff0000" transform="translate(143.626156 256.0775)scale(0.1 -0.1)">
     <use xlink:href="#DejaVuSans-2b"/>
    </g>
   </g>
   <g id="text_67">
    <!-- 0 -->
    <g transform="translate(223.704 202.918125)scale(0.14 -0.14)">
     <use xlink:href="#DejaVuSans-30"/>
    </g>
   </g>
   <g id="text_68">
    <!-- 0 -->
    <g transform="translate(223.704 286.918125)scale(0.14 -0.14)">
     <use xlink:href="#DejaVuSans-30"/>
    </g>
   </g>
   <g id="patch_36">
    <path d="M 198.425445 219.290742 
Q 207.167822 212.225021 215.910199 205.1593 
L 214.873036 203.876025 
Q 217.056518 203.397075 219.24 202.918125 
Q 218.313684 204.95256 217.387369 206.986995 
L 216.350207 205.70372 
Q 207.60783 212.769441 198.865453 219.835162 
L 198.425445 219.290742 
z
" style="fill: #ff0000; stroke: #ff0000; stroke-linecap: round"/>
   </g>
   <g id="text_69">
    <!-- + -->
    <g style="fill: #ff0000" transform="translate(188.266156 228.7775)scale(0.1 -0.1)">
     <use xlink:href="#DejaVuSans-2b"/>
    </g>
   </g>
   <g id="patch_37">
    <path d="M 198.645449 252.968125 
Q 206.942851 252.968125 215.240253 252.968125 
L 215.240253 251.318125 
Q 217.240126 252.318125 219.24 253.318125 
Q 217.240126 254.318125 215.240253 255.318125 
L 215.240253 253.668125 
Q 206.942851 253.668125 198.645449 253.668125 
L 198.645449 252.968125 
z
" style="fill: #ff0000; stroke: #ff0000; stroke-linecap: round"/>
   </g>
   <g id="text_70">
    <!-- + -->
    <g style="fill: #ff0000" transform="translate(188.266156 256.0775)scale(0.1 -0.1)">
     <use xlink:href="#DejaVuSans-2b"/>
    </g>
   </g>
   <g id="text_71">
    <!-- 0 -->
    <g transform="translate(268.344 202.918125)scale(0.14 -0.14)">
     <use xlink:href="#DejaVuSans-30"/>
    </g>
   </g>
   <g id="text_72">
    <!-- 0 -->
    <g transform="translate(268.344 286.918125)scale(0.14 -0.14)">
     <use xlink:href="#DejaVuSans-30"/>
    </g>
   </g>
   <g id="patch_38">
    <path d="M 243.065445 219.290742 
Q 251.807822 212.225021 260.550199 205.1593 
L 259.513036 203.876025 
Q 261.696518 203.397075 263.88 202.918125 
Q 262.953684 204.95256 262.027369 206.986995 
L 260.990207 205.70372 
Q 252.24783 212.769441 243.505453 219.835162 
L 243.065445 219.290742 
z
" style="fill: #ff0000; stroke: #ff0000; stroke-linecap: round"/>
   </g>
   <g id="text_73">
    <!-- + -->
    <g style="fill: #ff0000" transform="translate(232.906156 228.7775)scale(0.1 -0.1)">
     <use xlink:href="#DejaVuSans-2b"/>
    </g>
   </g>
   <g id="patch_39">
    <path d="M 243.285449 252.968125 
Q 251.582851 252.968125 259.880253 252.968125 
L 259.880253 251.318125 
Q 261.880126 252.318125 263.88 253.318125 
Q 261.880126 254.318125 259.880253 255.318125 
L 259.880253 253.668125 
Q 251.582851 253.668125 243.285449 253.668125 
L 243.285449 252.968125 
z
" style="fill: #ff0000; stroke: #ff0000; stroke-linecap: round"/>
   </g>
   <g id="text_74">
    <!-- + -->
    <g style="fill: #ff0000" transform="translate(232.906156 256.0775)scale(0.1 -0.1)">
     <use xlink:href="#DejaVuSans-2b"/>
    </g>
   </g>
   <g id="text_75">
    <!-- 1 -->
    <g transform="translate(312.984 202.918125)scale(0.14 -0.14)">
     <use xlink:href="#DejaVuSans-31"/>
    </g>
   </g>
   <g id="text_76">
    <!-- 1 -->
    <g transform="translate(312.984 286.918125)scale(0.14 -0.14)">
     <use xlink:href="#DejaVuSans-31"/>
    </g>
   </g>
   <g id="patch_40">
    <path d="M 287.705445 219.290742 
Q 296.447822 212.225021 305.190199 205.1593 
L 304.153036 203.876025 
Q 306.336518 203.397075 308.52 202.918125 
Q 307.593684 204.95256 306.667369 206.986995 
L 305.630207 205.70372 
Q 296.88783 212.769441 288.145453 219.835162 
L 287.705445 219.290742 
z
" style="fill: #ff0000; stroke: #ff0000; stroke-linecap: round"/>
   </g>
   <g id="text_77">
    <!-- + -->
    <g style="fill: #ff0000" transform="translate(277.546156 228.7775)scale(0.1 -0.1)">
     <use xlink:href="#DejaVuSans-2b"/>
    </g>
   </g>
   <g id="patch_41">
    <path d="M 287.925449 252.968125 
Q 296.222851 252.968125 304.520253 252.968125 
L 304.520253 251.318125 
Q 306.520126 252.318125 308.52 253.318125 
Q 306.520126 254.318125 304.520253 255.318125 
L 304.520253 253.668125 
Q 296.222851 253.668125 287.925449 253.668125 
L 287.925449 252.968125 
z
" style="fill: #ff0000; stroke: #ff0000; stroke-linecap: round"/>
   </g>
   <g id="text_78">
    <!-- + -->
    <g style="fill: #ff0000" transform="translate(277.546156 256.0775)scale(0.1 -0.1)">
     <use xlink:href="#DejaVuSans-2b"/>
    </g>
   </g>
   <g id="text_79">
    <!-- 1 -->
    <g transform="translate(357.624 202.918125)scale(0.14 -0.14)">
     <use xlink:href="#DejaVuSans-31"/>
    </g>
   </g>
   <g id="text_80">
    <!-- 1 -->
    <g transform="translate(357.624 286.918125)scale(0.14 -0.14)">
     <use xlink:href="#DejaVuSans-31"/>
    </g>
   </g>
   <g id="patch_42">
    <path d="M 332.345445 219.290742 
Q 341.087822 212.225021 349.830199 205.1593 
L 348.793036 203.876025 
Q 350.976518 203.397075 353.16 202.918125 
Q 352.233684 204.95256 351.307369 206.986995 
L 350.270207 205.70372 
Q 341.52783 212.769441 332.785453 219.835162 
L 332.345445 219.290742 
z
" style="fill: #ff0000; stroke: #ff0000; stroke-linecap: round"/>
   </g>
   <g id="text_81">
    <!-- + -->
    <g style="fill: #ff0000" transform="translate(322.186156 228.7775)scale(0.1 -0.1)">
     <use xlink:href="#DejaVuSans-2b"/>
    </g>
   </g>
   <g id="patch_43">
    <path d="M 332.565449 252.968125 
Q 340.862851 252.968125 349.160253 252.968125 
L 349.160253 251.318125 
Q 351.160126 252.318125 353.16 253.318125 
Q 351.160126 254.318125 349.160253 255.318125 
L 349.160253 253.668125 
Q 340.862851 253.668125 332.565449 253.668125 
L 332.565449 252.968125 
z
" style="fill: #ff0000; stroke: #ff0000; stroke-linecap: round"/>
   </g>
   <g id="text_82">
    <!-- + -->
    <g style="fill: #ff0000" transform="translate(322.186156 256.0775)scale(0.1 -0.1)">
     <use xlink:href="#DejaVuSans-2b"/>
    </g>
   </g>
   <g id="text_83">
    <!-- 1 -->
    <g transform="translate(402.264 202.918125)scale(0.14 -0.14)">
     <use xlink:href="#DejaVuSans-31"/>
    </g>
   </g>
   <g id="text_84">
    <!-- 1 -->
    <g transform="translate(402.264 286.918125)scale(0.14 -0.14)">
     <use xlink:href="#DejaVuSans-31"/>
    </g>
   </g>
   <g id="patch_44">
    <path d="M 376.985445 219.290742 
Q 385.727822 212.225021 394.470199 205.1593 
L 393.433036 203.876025 
Q 395.616518 203.397075 397.8 202.918125 
Q 396.873684 204.95256 395.947369 206.986995 
L 394.910207 205.70372 
Q 386.16783 212.769441 377.425453 219.835162 
L 376.985445 219.290742 
z
" style="fill: #ff0000; stroke: #ff0000; stroke-linecap: round"/>
   </g>
   <g id="text_85">
    <!-- + -->
    <g style="fill: #ff0000" transform="translate(366.826156 228.7775)scale(0.1 -0.1)">
     <use xlink:href="#DejaVuSans-2b"/>
    </g>
   </g>
   <g id="patch_45">
    <path d="M 377.205449 252.968125 
Q 385.502851 252.968125 393.800253 252.968125 
L 393.800253 251.318125 
Q 395.800126 252.318125 397.8 253.318125 
Q 395.800126 254.318125 393.800253 255.318125 
L 393.800253 253.668125 
Q 385.502851 253.668125 377.205449 253.668125 
L 377.205449 252.968125 
z
" style="fill: #ff0000; stroke: #ff0000; stroke-linecap: round"/>
   </g>
   <g id="text_86">
    <!-- + -->
    <g style="fill: #ff0000" transform="translate(366.826156 256.0775)scale(0.1 -0.1)">
     <use xlink:href="#DejaVuSans-2b"/>
    </g>
   </g>
   <g id="text_87">
    <!-- 1 -->
    <g transform="translate(446.904 202.918125)scale(0.14 -0.14)">
     <use xlink:href="#DejaVuSans-31"/>
    </g>
   </g>
   <g id="text_88">
    <!-- 1 -->
    <g transform="translate(446.904 286.918125)scale(0.14 -0.14)">
     <use xlink:href="#DejaVuSans-31"/>
    </g>
   </g>
   <g id="patch_46">
    <path d="M 421.625445 219.290742 
Q 430.367822 212.225021 439.110199 205.1593 
L 438.073036 203.876025 
Q 440.256518 203.397075 442.44 202.918125 
Q 441.513684 204.95256 440.587369 206.986995 
L 439.550207 205.70372 
Q 430.80783 212.769441 422.065453 219.835162 
L 421.625445 219.290742 
z
" style="fill: #ff0000; stroke: #ff0000; stroke-linecap: round"/>
   </g>
   <g id="text_89">
    <!-- + -->
    <g style="fill: #ff0000" transform="translate(411.466156 228.7775)scale(0.1 -0.1)">
     <use xlink:href="#DejaVuSans-2b"/>
    </g>
   </g>
   <g id="patch_47">
    <path d="M 421.845449 252.968125 
Q 430.142851 252.968125 438.440253 252.968125 
L 438.440253 251.318125 
Q 440.440126 252.318125 442.44 253.318125 
Q 440.440126 254.318125 438.440253 255.318125 
L 438.440253 253.668125 
Q 430.142851 253.668125 421.845449 253.668125 
L 421.845449 252.968125 
z
" style="fill: #ff0000; stroke: #ff0000; stroke-linecap: round"/>
   </g>
   <g id="text_90">
    <!-- + -->
    <g style="fill: #ff0000" transform="translate(411.466156 256.0775)scale(0.1 -0.1)">
     <use xlink:href="#DejaVuSans-2b"/>
    </g>
   </g>
   <g id="text_91">
    <!-- 1 -->
    <g transform="translate(491.544 202.918125)scale(0.14 -0.14)">
     <use xlink:href="#DejaVuSans-31"/>
    </g>
   </g>
   <g id="text_92">
    <!-- 1 -->
    <g transform="translate(491.544 286.918125)scale(0.14 -0.14)">
     <use xlink:href="#DejaVuSans-31"/>
    </g>
   </g>
   <g id="patch_48">
    <path d="M 466.265445 219.290742 
Q 475.007822 212.225021 483.750199 205.1593 
L 482.713036 203.876025 
Q 484.896518 203.397075 487.08 202.918125 
Q 486.153684 204.95256 485.227369 206.986995 
L 484.190207 205.70372 
Q 475.44783 212.769441 466.705453 219.835162 
L 466.265445 219.290742 
z
" style="fill: #ff0000; stroke: #ff0000; stroke-linecap: round"/>
   </g>
   <g id="text_93">
    <!-- + -->
    <g style="fill: #ff0000" transform="translate(456.106156 228.7775)scale(0.1 -0.1)">
     <use xlink:href="#DejaVuSans-2b"/>
    </g>
   </g>
   <g id="patch_49">
    <path d="M 466.485449 252.968125 
Q 474.782851 252.968125 483.080253 252.968125 
L 483.080253 251.318125 
Q 485.080126 252.318125 487.08 253.318125 
Q 485.080126 254.318125 483.080253 255.318125 
L 483.080253 253.668125 
Q 474.782851 253.668125 466.485449 253.668125 
L 466.485449 252.968125 
z
" style="fill: #ff0000; stroke: #ff0000; stroke-linecap: round"/>
   </g>
   <g id="text_94">
    <!-- + -->
    <g style="fill: #ff0000" transform="translate(456.106156 256.0775)scale(0.1 -0.1)">
     <use xlink:href="#DejaVuSans-2b"/>
    </g>
   </g>
   <g id="text_95">
    <!-- 0 -->
    <g transform="translate(536.184 202.918125)scale(0.14 -0.14)">
     <use xlink:href="#DejaVuSans-30"/>
    </g>
   </g>
   <g id="text_96">
    <!-- 0 -->
    <g transform="translate(536.184 286.918125)scale(0.14 -0.14)">
     <use xlink:href="#DejaVuSans-30"/>
    </g>
   </g>
   <g id="patch_50">
    <path d="M 510.905445 219.290742 
Q 519.647822 212.225021 528.390199 205.1593 
L 527.353036 203.876025 
Q 529.536518 203.397075 531.72 202.918125 
Q 530.793684 204.95256 529.867369 206.986995 
L 528.830207 205.70372 
Q 520.08783 212.769441 511.345453 219.835162 
L 510.905445 219.290742 
z
" style="fill: #ff0000; stroke: #ff0000; stroke-linecap: round"/>
   </g>
   <g id="text_97">
    <!-- + -->
    <g style="fill: #ff0000" transform="translate(500.746156 228.7775)scale(0.1 -0.1)">
     <use xlink:href="#DejaVuSans-2b"/>
    </g>
   </g>
   <g id="patch_51">
    <path d="M 511.125449 252.968125 
Q 519.422851 252.968125 527.720253 252.968125 
L 527.720253 251.318125 
Q 529.720126 252.318125 531.72 253.318125 
Q 529.720126 254.318125 527.720253 255.318125 
L 527.720253 253.668125 
Q 519.422851 253.668125 511.125449 253.668125 
L 511.125449 252.968125 
z
" style="fill: #ff0000; stroke: #ff0000; stroke-linecap: round"/>
   </g>
   <g id="text_98">
    <!-- + -->
    <g style="fill: #ff0000" transform="translate(500.746156 256.0775)scale(0.1 -0.1)">
     <use xlink:href="#DejaVuSans-2b"/>
    </g>
   </g>
   <g id="text_99">
    <!-- 0 -->
    <g transform="translate(89.784 244.918125)scale(0.14 -0.14)">
     <use xlink:href="#DejaVuSans-30"/>
    </g>
   </g>
   <g id="text_100">
    <!-- 1 -->
    <g transform="translate(134.424 244.918125)scale(0.14 -0.14)">
     <use xlink:href="#DejaVuSans-31"/>
    </g>
   </g>
   <g id="text_101">
    <!-- 0 -->
    <g transform="translate(179.064 244.918125)scale(0.14 -0.14)">
     <use xlink:href="#DejaVuSans-30"/>
    </g>
   </g>
   <g id="text_102">
    <!-- 0 -->
    <g transform="translate(223.704 244.918125)scale(0.14 -0.14)">
     <use xlink:href="#DejaVuSans-30"/>
    </g>
   </g>
   <g id="text_103">
    <!-- 0 -->
    <g transform="translate(268.344 244.918125)scale(0.14 -0.14)">
     <use xlink:href="#DejaVuSans-30"/>
    </g>
   </g>
   <g id="text_104">
    <!-- 1 -->
    <g transform="translate(312.984 244.918125)scale(0.14 -0.14)">
     <use xlink:href="#DejaVuSans-31"/>
    </g>
   </g>
   <g id="text_105">
    <!-- 0 -->
    <g transform="translate(357.624 244.918125)scale(0.14 -0.14)">
     <use xlink:href="#DejaVuSans-30"/>
    </g>
   </g>
   <g id="text_106">
    <!-- 1 -->
    <g transform="translate(402.264 244.918125)scale(0.14 -0.14)">
     <use xlink:href="#DejaVuSans-31"/>
    </g>
   </g>
   <g id="text_107">
    <!-- 0 -->
    <g transform="translate(446.904 244.918125)scale(0.14 -0.14)">
     <use xlink:href="#DejaVuSans-30"/>
    </g>
   </g>
   <g id="text_108">
    <!-- 1 -->
    <g transform="translate(491.544 244.918125)scale(0.14 -0.14)">
     <use xlink:href="#DejaVuSans-31"/>
    </g>
   </g>
   <g id="text_109">
    <!-- 1 -->
    <g transform="translate(536.184 244.918125)scale(0.14 -0.14)">
     <use xlink:href="#DejaVuSans-31"/>
    </g>
   </g>
   <g id="text_110">
    <!-- Starting With 0 -->
    <g transform="translate(241.014375 178.018125)scale(0.12 -0.12)">
     <use xlink:href="#DejaVuSans-53"/>
     <use xlink:href="#DejaVuSans-74" x="63.476562"/>
     <use xlink:href="#DejaVuSans-61" x="102.685547"/>
     <use xlink:href="#DejaVuSans-72" x="163.964844"/>
     <use xlink:href="#DejaVuSans-74" x="205.078125"/>
     <use xlink:href="#DejaVuSans-69" x="244.287109"/>
     <use xlink:href="#DejaVuSans-6e" x="272.070312"/>
     <use xlink:href="#DejaVuSans-67" x="335.449219"/>
     <use xlink:href="#DejaVuSans-20" x="398.925781"/>
     <use xlink:href="#DejaVuSans-57" x="430.712891"/>
     <use xlink:href="#DejaVuSans-69" x="527.339844"/>
     <use xlink:href="#DejaVuSans-74" x="555.123047"/>
     <use xlink:href="#DejaVuSans-68" x="594.332031"/>
     <use xlink:href="#DejaVuSans-20" x="657.710938"/>
     <use xlink:href="#DejaVuSans-30" x="689.498047"/>
    </g>
   </g>
  </g>
 </g>
 <defs>
  <clipPath id="p02821a29d1">
   <rect x="7.2" y="22.318125" width="558" height="115.5"/>
  </clipPath>
  <clipPath id="pb00c3d1356">
   <rect x="7.2" y="184.018125" width="558" height="115.5"/>
  </clipPath>
 </defs>
</svg>
