<svg width="384" height="384" xmlns="http://www.w3.org/2000/svg" xmlns:xlink="http://www.w3.org/1999/xlink" overflow="hidden"><defs><clipPath id="clip0"><rect x="0" y="0" width="384" height="384"/></clipPath></defs><g clip-path="url(#clip0)"><rect x="0" y="0" width="384" height="384" fill="#FFFFFF"/><path d="M51.5001 240.5 35.5001 281.5 19.5001 240.5Z" stroke="#000000" stroke-width="1.33333" stroke-miterlimit="8" fill="#E7E6E6" fill-rule="evenodd"/><path d="M0 0 1.98142 94.6848" stroke="#000000" stroke-width="1.33333" stroke-miterlimit="8" fill="none" fill-rule="evenodd" transform="matrix(-1 0 0 1 35.4815 280.5)"/><path d="M155.5 240.5 140 281.5 124.5 240.5Z" stroke="#000000" stroke-width="1.33333" stroke-miterlimit="8" fill="#E7E6E6" fill-rule="evenodd"/><path d="M0 0 1.98142 94.6848" stroke="#000000" stroke-width="1.33333" stroke-miterlimit="8" fill="none" fill-rule="evenodd" transform="matrix(-1 0 0 1 140.481 280.5)"/><path d="M259.5 240.5 244 281.5 228.5 240.5Z" stroke="#000000" stroke-width="1.33333" stroke-miterlimit="8" fill="#E7E6E6" fill-rule="evenodd"/><path d="M0 0 1.98142 94.6848" stroke="#000000" stroke-width="1.33333" stroke-miterlimit="8" fill="none" fill-rule="evenodd" transform="matrix(-1 0 0 1 244.481 280.5)"/><path d="M145.167 359.167 234.214 359.167 234.214 359.833 145.167 359.833ZM146.5 363.5 138.5 359.5 146.5 355.5ZM232.881 355.5 240.881 359.5 232.881 363.5Z" fill="#0070C0"/><text fill="#0070C0" font-family="Times New Roman,Times New Roman_MSFontService,sans-serif" font-style="italic" font-weight="400" font-size="21" transform="translate(185.222 379)">d</text><path d="M0.285961-0.171281 116.924 194.561 116.352 194.903-0.285961 0.171281ZM119.385 191.534 120.064 200.452 112.521 195.644Z" fill="#4472C4" transform="matrix(-1 0 0 1 162.564 33.5001)"/><text fill="#0070C0" font-family="Times New Roman,Times New Roman_MSFontService,sans-serif" font-weight="400" font-size="21" transform="translate(173.177 26)">Direction of Arrival</text><path d="M0.285961-0.171281 116.924 194.561 116.352 194.903-0.285961 0.171281ZM119.385 191.534 120.064 200.452 112.521 195.644Z" fill="#4472C4" transform="matrix(-1 0 0 1 264.564 33.5001)"/><path d="M0.285961-0.171281 116.924 194.561 116.352 194.903-0.285961 0.171281ZM119.385 191.534 120.064 200.452 112.521 195.644Z" fill="#4472C4" transform="matrix(-1 0 0 1 366.564 33.5001)"/><path d="M139 143 139 238.709" stroke="#BFBFBF" stroke-width="2" stroke-miterlimit="8" stroke-dasharray="8 6" fill="none" fill-rule="evenodd"/><text fill="#BFBFBF" font-family="Times New Roman,Times New Roman_MSFontService,sans-serif" font-style="italic" font-weight="400" font-size="21" transform="translate(148.407 202)">θ</text><path d="M140.112 175.708C151.909 167.001 168.191 169.047 176.479 180.277" stroke="#BFBFBF" stroke-width="2" stroke-miterlimit="8" fill="none" fill-rule="evenodd"/><text fill="#BFBFBF" font-family="Times New Roman,Times New Roman_MSFontService,sans-serif" font-weight="400" font-size="21" transform="translate(109.167 140)">boresight</text></g></svg>