<?xml version="1.0" encoding="utf-8" standalone="no"?>
<!DOCTYPE svg PUBLIC "-//W3C//DTD SVG 1.1//EN"
  "http://www.w3.org/Graphics/SVG/1.1/DTD/svg11.dtd">
<svg xmlns:xlink="http://www.w3.org/1999/xlink" width="329.41825pt" height="318.190125pt" viewBox="0 0 329.41825 318.190125" xmlns="http://www.w3.org/2000/svg" version="1.1">
 <metadata>
  <rdf:RDF xmlns:dc="http://purl.org/dc/elements/1.1/" xmlns:cc="http://creativecommons.org/ns#" xmlns:rdf="http://www.w3.org/1999/02/22-rdf-syntax-ns#">
   <cc:Work>
    <dc:type rdf:resource="http://purl.org/dc/dcmitype/StillImage"/>
    <dc:date>2023-04-05T01:14:13.271884</dc:date>
    <dc:format>image/svg+xml</dc:format>
    <dc:creator>
     <cc:Agent>
      <dc:title>Matplotlib v3.5.1, https://matplotlib.org/</dc:title>
     </cc:Agent>
    </dc:creator>
   </cc:Work>
  </rdf:RDF>
 </metadata>
 <defs>
  <style type="text/css">*{stroke-linejoin: round; stroke-linecap: butt}</style>
 </defs>
 <g id="figure_1">
  <g id="patch_1">
   <path d="M 0 318.190125 
L 329.41825 318.190125 
L 329.41825 0 
L 0 0 
z
" style="fill: #ffffff"/>
  </g>
  <g id="axes_1">
   <g id="patch_2">
    <path d="M 299.35575 159.095062 
C 299.35575 141.622309 295.913998 124.319455 289.227465 108.176736 
C 282.540932 92.034016 272.739653 77.365365 260.38455 65.010263 
C 248.029447 52.65516 233.360796 42.853881 217.218077 36.167347 
C 201.075357 29.480814 183.772504 26.039062 166.29975 26.039062 
C 148.826996 26.039062 131.524143 29.480814 115.381423 36.167347 
C 99.238704 42.853881 84.570053 52.65516 72.21495 65.010263 
C 59.859847 77.365365 50.058568 92.034016 43.372035 108.176736 
C 36.685502 124.319455 33.24375 141.622309 33.24375 159.095062 
C 33.24375 176.567816 36.685502 193.87067 43.372035 210.013389 
C 50.058568 226.156109 59.859847 240.82476 72.21495 253.179862 
C 84.570053 265.534965 99.238704 275.336244 115.381423 282.022778 
C 131.524143 288.709311 148.826996 292.151062 166.29975 292.151062 
C 183.772504 292.151062 201.075357 288.709311 217.218077 282.022778 
C 233.360796 275.336244 248.029447 265.534965 260.38455 253.179862 
C 272.739653 240.82476 282.540932 226.156109 289.227465 210.013389 
C 295.913998 193.87067 299.35575 176.567816 299.35575 159.095062 
M 166.29975 159.095062 
C 166.29975 159.095062 166.29975 159.095062 166.29975 159.095062 
C 166.29975 159.095062 166.29975 159.095062 166.29975 159.095062 
C 166.29975 159.095062 166.29975 159.095062 166.29975 159.095062 
C 166.29975 159.095062 166.29975 159.095062 166.29975 159.095062 
C 166.29975 159.095062 166.29975 159.095062 166.29975 159.095062 
C 166.29975 159.095062 166.29975 159.095062 166.29975 159.095062 
C 166.29975 159.095062 166.29975 159.095062 166.29975 159.095062 
C 166.29975 159.095062 166.29975 159.095062 166.29975 159.095062 
C 166.29975 159.095062 166.29975 159.095062 166.29975 159.095062 
C 166.29975 159.095062 166.29975 159.095062 166.29975 159.095062 
C 166.29975 159.095062 166.29975 159.095062 166.29975 159.095062 
C 166.29975 159.095062 166.29975 159.095062 166.29975 159.095062 
C 166.29975 159.095062 166.29975 159.095062 166.29975 159.095062 
C 166.29975 159.095062 166.29975 159.095062 166.29975 159.095062 
C 166.29975 159.095062 166.29975 159.095062 166.29975 159.095062 
C 166.29975 159.095062 166.29975 159.095062 166.29975 159.095062 
M 299.35575 159.095062 
z
" style="fill: #ffffff"/>
   </g>
   <g id="matplotlib.axis_1">
    <g id="xtick_1">
     <g id="line2d_1">
      <path d="M 166.29975 159.095062 
L 166.29975 26.039062 
" clip-path="url(#pd3a0878248)" style="fill: none; stroke: #b0b0b0; stroke-width: 0.8; stroke-linecap: square"/>
     </g>
     <g id="text_1">
      <!-- 0° -->
      <g transform="translate(160.6185 14.798437)scale(0.1 -0.1)">
       <defs>
        <path id="DejaVuSans-30" d="M 2034 4250 
Q 1547 4250 1301 3770 
Q 1056 3291 1056 2328 
Q 1056 1369 1301 889 
Q 1547 409 2034 409 
Q 2525 409 2770 889 
Q 3016 1369 3016 2328 
Q 3016 3291 2770 3770 
Q 2525 4250 2034 4250 
z
M 2034 4750 
Q 2819 4750 3233 4129 
Q 3647 3509 3647 2328 
Q 3647 1150 3233 529 
Q 2819 -91 2034 -91 
Q 1250 -91 836 529 
Q 422 1150 422 2328 
Q 422 3509 836 4129 
Q 1250 4750 2034 4750 
z
" transform="scale(0.015625)"/>
        <path id="DejaVuSans-b0" d="M 1600 4347 
Q 1350 4347 1178 4173 
Q 1006 4000 1006 3750 
Q 1006 3503 1178 3333 
Q 1350 3163 1600 3163 
Q 1850 3163 2022 3333 
Q 2194 3503 2194 3750 
Q 2194 3997 2020 4172 
Q 1847 4347 1600 4347 
z
M 1600 4750 
Q 1800 4750 1984 4673 
Q 2169 4597 2303 4453 
Q 2447 4313 2519 4134 
Q 2591 3956 2591 3750 
Q 2591 3338 2302 3052 
Q 2013 2766 1594 2766 
Q 1172 2766 890 3047 
Q 609 3328 609 3750 
Q 609 4169 896 4459 
Q 1184 4750 1600 4750 
z
" transform="scale(0.015625)"/>
       </defs>
       <use xlink:href="#DejaVuSans-30"/>
       <use xlink:href="#DejaVuSans-b0" x="63.623047"/>
      </g>
     </g>
    </g>
    <g id="xtick_2">
     <g id="line2d_2">
      <path d="M 166.29975 159.095062 
L 260.38455 65.010263 
" clip-path="url(#pd3a0878248)" style="fill: none; stroke: #b0b0b0; stroke-width: 0.8; stroke-linecap: square"/>
     </g>
     <g id="text_2">
      <!-- 45° -->
      <g transform="translate(261.421545 57.870143)scale(0.1 -0.1)">
       <defs>
        <path id="DejaVuSans-34" d="M 2419 4116 
L 825 1625 
L 2419 1625 
L 2419 4116 
z
M 2253 4666 
L 3047 4666 
L 3047 1625 
L 3713 1625 
L 3713 1100 
L 3047 1100 
L 3047 0 
L 2419 0 
L 2419 1100 
L 313 1100 
L 313 1709 
L 2253 4666 
z
" transform="scale(0.015625)"/>
        <path id="DejaVuSans-35" d="M 691 4666 
L 3169 4666 
L 3169 4134 
L 1269 4134 
L 1269 2991 
Q 1406 3038 1543 3061 
Q 1681 3084 1819 3084 
Q 2600 3084 3056 2656 
Q 3513 2228 3513 1497 
Q 3513 744 3044 326 
Q 2575 -91 1722 -91 
Q 1428 -91 1123 -41 
Q 819 9 494 109 
L 494 744 
Q 775 591 1075 516 
Q 1375 441 1709 441 
Q 2250 441 2565 725 
Q 2881 1009 2881 1497 
Q 2881 1984 2565 2268 
Q 2250 2553 1709 2553 
Q 1456 2553 1204 2497 
Q 953 2441 691 2322 
L 691 4666 
z
" transform="scale(0.015625)"/>
       </defs>
       <use xlink:href="#DejaVuSans-34"/>
       <use xlink:href="#DejaVuSans-35" x="63.623047"/>
       <use xlink:href="#DejaVuSans-b0" x="127.246094"/>
      </g>
     </g>
    </g>
    <g id="xtick_3">
     <g id="line2d_3">
      <path d="M 166.29975 159.095062 
L 299.35575 159.095062 
" clip-path="url(#pd3a0878248)" style="fill: none; stroke: #b0b0b0; stroke-width: 0.8; stroke-linecap: square"/>
     </g>
     <g id="text_3">
      <!-- 90° -->
      <g transform="translate(304.49325 161.854437)scale(0.1 -0.1)">
       <defs>
        <path id="DejaVuSans-39" d="M 703 97 
L 703 672 
Q 941 559 1184 500 
Q 1428 441 1663 441 
Q 2288 441 2617 861 
Q 2947 1281 2994 2138 
Q 2813 1869 2534 1725 
Q 2256 1581 1919 1581 
Q 1219 1581 811 2004 
Q 403 2428 403 3163 
Q 403 3881 828 4315 
Q 1253 4750 1959 4750 
Q 2769 4750 3195 4129 
Q 3622 3509 3622 2328 
Q 3622 1225 3098 567 
Q 2575 -91 1691 -91 
Q 1453 -91 1209 -44 
Q 966 3 703 97 
z
M 1959 2075 
Q 2384 2075 2632 2365 
Q 2881 2656 2881 3163 
Q 2881 3666 2632 3958 
Q 2384 4250 1959 4250 
Q 1534 4250 1286 3958 
Q 1038 3666 1038 3163 
Q 1038 2656 1286 2365 
Q 1534 2075 1959 2075 
z
" transform="scale(0.015625)"/>
       </defs>
       <use xlink:href="#DejaVuSans-39"/>
       <use xlink:href="#DejaVuSans-30" x="63.623047"/>
       <use xlink:href="#DejaVuSans-b0" x="127.246094"/>
      </g>
     </g>
    </g>
    <g id="xtick_4">
     <g id="line2d_4">
      <path d="M 166.29975 159.095062 
L 260.38455 253.179862 
" clip-path="url(#pd3a0878248)" style="fill: none; stroke: #b0b0b0; stroke-width: 0.8; stroke-linecap: square"/>
     </g>
     <g id="text_4">
      <!-- 135° -->
      <g transform="translate(258.240295 265.838732)scale(0.1 -0.1)">
       <defs>
        <path id="DejaVuSans-31" d="M 794 531 
L 1825 531 
L 1825 4091 
L 703 3866 
L 703 4441 
L 1819 4666 
L 2450 4666 
L 2450 531 
L 3481 531 
L 3481 0 
L 794 0 
L 794 531 
z
" transform="scale(0.015625)"/>
        <path id="DejaVuSans-33" d="M 2597 2516 
Q 3050 2419 3304 2112 
Q 3559 1806 3559 1356 
Q 3559 666 3084 287 
Q 2609 -91 1734 -91 
Q 1441 -91 1130 -33 
Q 819 25 488 141 
L 488 750 
Q 750 597 1062 519 
Q 1375 441 1716 441 
Q 2309 441 2620 675 
Q 2931 909 2931 1356 
Q 2931 1769 2642 2001 
Q 2353 2234 1838 2234 
L 1294 2234 
L 1294 2753 
L 1863 2753 
Q 2328 2753 2575 2939 
Q 2822 3125 2822 3475 
Q 2822 3834 2567 4026 
Q 2313 4219 1838 4219 
Q 1578 4219 1281 4162 
Q 984 4106 628 3988 
L 628 4550 
Q 988 4650 1302 4700 
Q 1616 4750 1894 4750 
Q 2613 4750 3031 4423 
Q 3450 4097 3450 3541 
Q 3450 3153 3228 2886 
Q 3006 2619 2597 2516 
z
" transform="scale(0.015625)"/>
       </defs>
       <use xlink:href="#DejaVuSans-31"/>
       <use xlink:href="#DejaVuSans-33" x="63.623047"/>
       <use xlink:href="#DejaVuSans-35" x="127.246094"/>
       <use xlink:href="#DejaVuSans-b0" x="190.869141"/>
      </g>
     </g>
    </g>
    <g id="xtick_5">
     <g id="line2d_5">
      <path d="M 166.29975 159.095062 
L 166.29975 292.151062 
" clip-path="url(#pd3a0878248)" style="fill: none; stroke: #b0b0b0; stroke-width: 0.8; stroke-linecap: square"/>
     </g>
     <g id="text_5">
      <!-- 180° -->
      <g transform="translate(154.256 308.910437)scale(0.1 -0.1)">
       <defs>
        <path id="DejaVuSans-38" d="M 2034 2216 
Q 1584 2216 1326 1975 
Q 1069 1734 1069 1313 
Q 1069 891 1326 650 
Q 1584 409 2034 409 
Q 2484 409 2743 651 
Q 3003 894 3003 1313 
Q 3003 1734 2745 1975 
Q 2488 2216 2034 2216 
z
M 1403 2484 
Q 997 2584 770 2862 
Q 544 3141 544 3541 
Q 544 4100 942 4425 
Q 1341 4750 2034 4750 
Q 2731 4750 3128 4425 
Q 3525 4100 3525 3541 
Q 3525 3141 3298 2862 
Q 3072 2584 2669 2484 
Q 3125 2378 3379 2068 
Q 3634 1759 3634 1313 
Q 3634 634 3220 271 
Q 2806 -91 2034 -91 
Q 1263 -91 848 271 
Q 434 634 434 1313 
Q 434 1759 690 2068 
Q 947 2378 1403 2484 
z
M 1172 3481 
Q 1172 3119 1398 2916 
Q 1625 2713 2034 2713 
Q 2441 2713 2670 2916 
Q 2900 3119 2900 3481 
Q 2900 3844 2670 4047 
Q 2441 4250 2034 4250 
Q 1625 4250 1398 4047 
Q 1172 3844 1172 3481 
z
" transform="scale(0.015625)"/>
       </defs>
       <use xlink:href="#DejaVuSans-31"/>
       <use xlink:href="#DejaVuSans-38" x="63.623047"/>
       <use xlink:href="#DejaVuSans-30" x="127.246094"/>
       <use xlink:href="#DejaVuSans-b0" x="190.869141"/>
      </g>
     </g>
    </g>
    <g id="xtick_6">
     <g id="line2d_6">
      <path d="M 166.29975 159.095062 
L 72.21495 253.179862 
" clip-path="url(#pd3a0878248)" style="fill: none; stroke: #b0b0b0; stroke-width: 0.8; stroke-linecap: square"/>
     </g>
     <g id="text_6">
      <!-- 225° -->
      <g transform="translate(50.271705 265.838732)scale(0.1 -0.1)">
       <defs>
        <path id="DejaVuSans-32" d="M 1228 531 
L 3431 531 
L 3431 0 
L 469 0 
L 469 531 
Q 828 903 1448 1529 
Q 2069 2156 2228 2338 
Q 2531 2678 2651 2914 
Q 2772 3150 2772 3378 
Q 2772 3750 2511 3984 
Q 2250 4219 1831 4219 
Q 1534 4219 1204 4116 
Q 875 4013 500 3803 
L 500 4441 
Q 881 4594 1212 4672 
Q 1544 4750 1819 4750 
Q 2544 4750 2975 4387 
Q 3406 4025 3406 3419 
Q 3406 3131 3298 2873 
Q 3191 2616 2906 2266 
Q 2828 2175 2409 1742 
Q 1991 1309 1228 531 
z
" transform="scale(0.015625)"/>
       </defs>
       <use xlink:href="#DejaVuSans-32"/>
       <use xlink:href="#DejaVuSans-32" x="63.623047"/>
       <use xlink:href="#DejaVuSans-35" x="127.246094"/>
       <use xlink:href="#DejaVuSans-b0" x="190.869141"/>
      </g>
     </g>
    </g>
    <g id="xtick_7">
     <g id="line2d_7">
      <path d="M 166.29975 159.095062 
L 33.24375 159.095062 
" clip-path="url(#pd3a0878248)" style="fill: none; stroke: #b0b0b0; stroke-width: 0.8; stroke-linecap: square"/>
     </g>
     <g id="text_7">
      <!-- 270° -->
      <g transform="translate(7.2 161.854437)scale(0.1 -0.1)">
       <defs>
        <path id="DejaVuSans-37" d="M 525 4666 
L 3525 4666 
L 3525 4397 
L 1831 0 
L 1172 0 
L 2766 4134 
L 525 4134 
L 525 4666 
z
" transform="scale(0.015625)"/>
       </defs>
       <use xlink:href="#DejaVuSans-32"/>
       <use xlink:href="#DejaVuSans-37" x="63.623047"/>
       <use xlink:href="#DejaVuSans-30" x="127.246094"/>
       <use xlink:href="#DejaVuSans-b0" x="190.869141"/>
      </g>
     </g>
    </g>
    <g id="xtick_8">
     <g id="line2d_8">
      <path d="M 166.29975 159.095062 
L 72.21495 65.010263 
" clip-path="url(#pd3a0878248)" style="fill: none; stroke: #b0b0b0; stroke-width: 0.8; stroke-linecap: square"/>
     </g>
     <g id="text_8">
      <!-- 315° -->
      <g transform="translate(50.271705 57.870143)scale(0.1 -0.1)">
       <use xlink:href="#DejaVuSans-33"/>
       <use xlink:href="#DejaVuSans-31" x="63.623047"/>
       <use xlink:href="#DejaVuSans-35" x="127.246094"/>
       <use xlink:href="#DejaVuSans-b0" x="190.869141"/>
      </g>
     </g>
    </g>
   </g>
   <g id="matplotlib.axis_2">
    <g id="ytick_1">
     <g id="line2d_9">
      <path d="M 166.29975 157.138847 
C 166.556638 157.138847 166.811028 157.189448 167.048361 157.287755 
C 167.285695 157.386062 167.501356 157.530162 167.683003 157.711809 
C 167.864651 157.893456 168.008751 158.109118 168.107058 158.346451 
C 168.205364 158.583785 168.255966 158.838175 168.255966 159.095062 
C 168.255966 159.35195 168.205364 159.60634 168.107058 159.843674 
C 168.008751 160.081007 167.864651 160.296669 167.683003 160.478316 
C 167.501356 160.659963 167.285695 160.804063 167.048361 160.90237 
C 166.811028 161.000677 166.556638 161.051278 166.29975 161.051278 
C 166.042862 161.051278 165.788472 161.000677 165.551139 160.90237 
C 165.313805 160.804063 165.098144 160.659963 164.916497 160.478316 
C 164.734849 160.296669 164.590749 160.081007 164.492442 159.843674 
C 164.394136 159.60634 164.343534 159.35195 164.343534 159.095062 
C 164.343534 158.838175 164.394136 158.583785 164.492442 158.346451 
C 164.590749 158.109118 164.734849 157.893456 164.916497 157.711809 
C 165.098144 157.530162 165.313805 157.386062 165.551139 157.287755 
C 165.788472 157.189448 166.042862 157.138847 166.29975 157.138847 
" clip-path="url(#pd3a0878248)" style="fill: none; stroke: #b0b0b0; stroke-width: 0.8; stroke-linecap: square"/>
     </g>
     <g id="text_9">
      <!-- −0.2 -->
      <g transform="translate(167.277858 155.321243)scale(0.1 -0.1)">
       <defs>
        <path id="DejaVuSans-2212" d="M 678 2272 
L 4684 2272 
L 4684 1741 
L 678 1741 
L 678 2272 
z
" transform="scale(0.015625)"/>
        <path id="DejaVuSans-2e" d="M 684 794 
L 1344 794 
L 1344 0 
L 684 0 
L 684 794 
z
" transform="scale(0.015625)"/>
       </defs>
       <use xlink:href="#DejaVuSans-2212"/>
       <use xlink:href="#DejaVuSans-30" x="83.789062"/>
       <use xlink:href="#DejaVuSans-2e" x="147.412109"/>
       <use xlink:href="#DejaVuSans-32" x="179.199219"/>
      </g>
     </g>
    </g>
    <g id="ytick_2">
     <g id="line2d_10">
      <path d="M 166.29975 136.296883 
C 169.29358 136.296883 172.258298 136.886602 175.024236 138.032291 
C 177.790173 139.17798 180.30354 140.857358 182.420497 142.974315 
C 184.537455 145.091272 186.216833 147.604639 187.362522 150.370577 
C 188.508211 153.136515 189.09793 156.101233 189.09793 159.095062 
C 189.09793 162.088892 188.508211 165.05361 187.362522 167.819548 
C 186.216833 170.585486 184.537455 173.098853 182.420497 175.21581 
C 180.30354 177.332767 177.790173 179.012145 175.024236 180.157834 
C 172.258298 181.303523 169.29358 181.893242 166.29975 181.893242 
C 163.30592 181.893242 160.341202 181.303523 157.575264 180.157834 
C 154.809327 179.012145 152.29596 177.332767 150.179003 175.21581 
C 148.062045 173.098853 146.382667 170.585486 145.236978 167.819548 
C 144.091289 165.05361 143.50157 162.088892 143.50157 159.095062 
C 143.50157 156.101233 144.091289 153.136515 145.236978 150.370577 
C 146.382667 147.604639 148.062045 145.091272 150.179003 142.974315 
C 152.29596 140.857358 154.809327 139.17798 157.575264 138.032291 
C 160.341202 136.886602 163.30592 136.296883 166.29975 136.296883 
" clip-path="url(#pd3a0878248)" style="fill: none; stroke: #b0b0b0; stroke-width: 0.8; stroke-linecap: square"/>
     </g>
     <g id="text_10">
      <!-- 0.0 -->
      <g transform="translate(177.69884 137.271572)scale(0.1 -0.1)">
       <use xlink:href="#DejaVuSans-30"/>
       <use xlink:href="#DejaVuSans-2e" x="63.623047"/>
       <use xlink:href="#DejaVuSans-30" x="95.410156"/>
      </g>
     </g>
    </g>
    <g id="ytick_3">
     <g id="line2d_11">
      <path d="M 166.29975 115.454919 
C 172.030521 115.454919 177.705568 116.583756 183.00011 118.776827 
C 188.294652 120.969898 193.105724 124.184554 197.157992 128.236821 
C 201.210259 132.289088 204.424914 137.10016 206.617986 142.394702 
C 208.811057 147.689245 209.939894 153.364291 209.939894 159.095062 
C 209.939894 164.825834 208.811057 170.50088 206.617986 175.795423 
C 204.424914 181.089965 201.210259 185.901037 197.157992 189.953304 
C 193.105724 194.005571 188.294652 197.220227 183.00011 199.413298 
C 177.705568 201.606369 172.030521 202.735206 166.29975 202.735206 
C 160.568979 202.735206 154.893932 201.606369 149.59939 199.413298 
C 144.304848 197.220227 139.493776 194.005571 135.441508 189.953304 
C 131.389241 185.901037 128.174586 181.089965 125.981514 175.795423 
C 123.788443 170.50088 122.659606 164.825834 122.659606 159.095062 
C 122.659606 153.364291 123.788443 147.689245 125.981514 142.394702 
C 128.174586 137.10016 131.389241 132.289088 135.441508 128.236821 
C 139.493776 124.184554 144.304848 120.969898 149.59939 118.776827 
C 154.893932 116.583756 160.568979 115.454919 166.29975 115.454919 
" clip-path="url(#pd3a0878248)" style="fill: none; stroke: #b0b0b0; stroke-width: 0.8; stroke-linecap: square"/>
     </g>
     <g id="text_11">
      <!-- 0.2 -->
      <g transform="translate(188.119822 119.221902)scale(0.1 -0.1)">
       <use xlink:href="#DejaVuSans-30"/>
       <use xlink:href="#DejaVuSans-2e" x="63.623047"/>
       <use xlink:href="#DejaVuSans-32" x="95.410156"/>
      </g>
     </g>
    </g>
    <g id="ytick_4">
     <g id="line2d_12">
      <path d="M 166.29975 94.612955 
C 174.767463 94.612955 183.152838 96.280909 190.975984 99.521363 
C 198.799131 102.761816 205.907909 107.51175 211.895486 113.499327 
C 217.883063 119.486904 222.632996 126.595682 225.87345 134.418828 
C 229.113903 142.241975 230.781858 150.62735 230.781858 159.095062 
C 230.781858 167.562775 229.113903 175.94815 225.87345 183.771297 
C 222.632996 191.594443 217.883063 198.703221 211.895486 204.690798 
C 205.907909 210.678375 198.799131 215.428309 190.975984 218.668762 
C 183.152838 221.909216 174.767463 223.57717 166.29975 223.57717 
C 157.832037 223.57717 149.446662 221.909216 141.623516 218.668762 
C 133.800369 215.428309 126.691591 210.678375 120.704014 204.690798 
C 114.716437 198.703221 109.966504 191.594443 106.72605 183.771297 
C 103.485597 175.94815 101.817642 167.562775 101.817642 159.095062 
C 101.817642 150.62735 103.485597 142.241975 106.72605 134.418828 
C 109.966504 126.595682 114.716437 119.486904 120.704014 113.499327 
C 126.691591 107.51175 133.800369 102.761816 141.623516 99.521363 
C 149.446662 96.280909 157.832037 94.612955 166.29975 94.612955 
" clip-path="url(#pd3a0878248)" style="fill: none; stroke: #b0b0b0; stroke-width: 0.8; stroke-linecap: square"/>
     </g>
     <g id="text_12">
      <!-- 0.4 -->
      <g transform="translate(198.540804 101.172232)scale(0.1 -0.1)">
       <use xlink:href="#DejaVuSans-30"/>
       <use xlink:href="#DejaVuSans-2e" x="63.623047"/>
       <use xlink:href="#DejaVuSans-34" x="95.410156"/>
      </g>
     </g>
    </g>
    <g id="ytick_5">
     <g id="line2d_13">
      <path d="M 166.29975 73.770991 
C 177.504404 73.770991 188.600108 75.978063 198.951859 80.265899 
C 209.30361 84.553734 218.710093 90.838946 226.63298 98.761833 
C 234.555867 106.68472 240.841078 116.091203 245.128914 126.442954 
C 249.416749 136.794705 251.623822 147.890408 251.623822 159.095062 
C 251.623822 170.299717 249.416749 181.39542 245.128914 191.747171 
C 240.841078 202.098922 234.555867 211.505405 226.63298 219.428292 
C 218.710093 227.351179 209.30361 233.636391 198.951859 237.924226 
C 188.600108 242.212062 177.504404 244.419134 166.29975 244.419134 
C 155.095096 244.419134 143.999392 242.212062 133.647641 237.924226 
C 123.29589 233.636391 113.889407 227.351179 105.96652 219.428292 
C 98.043633 211.505405 91.758422 202.098922 87.470586 191.747171 
C 83.182751 181.39542 80.975678 170.299717 80.975678 159.095062 
C 80.975678 147.890408 83.182751 136.794705 87.470586 126.442954 
C 91.758422 116.091203 98.043633 106.68472 105.96652 98.761833 
C 113.889407 90.838946 123.29589 84.553734 133.647641 80.265899 
C 143.999392 75.978063 155.095096 73.770991 166.29975 73.770991 
" clip-path="url(#pd3a0878248)" style="fill: none; stroke: #b0b0b0; stroke-width: 0.8; stroke-linecap: square"/>
     </g>
     <g id="text_13">
      <!-- 0.6 -->
      <g transform="translate(208.961786 83.122561)scale(0.1 -0.1)">
       <defs>
        <path id="DejaVuSans-36" d="M 2113 2584 
Q 1688 2584 1439 2293 
Q 1191 2003 1191 1497 
Q 1191 994 1439 701 
Q 1688 409 2113 409 
Q 2538 409 2786 701 
Q 3034 994 3034 1497 
Q 3034 2003 2786 2293 
Q 2538 2584 2113 2584 
z
M 3366 4563 
L 3366 3988 
Q 3128 4100 2886 4159 
Q 2644 4219 2406 4219 
Q 1781 4219 1451 3797 
Q 1122 3375 1075 2522 
Q 1259 2794 1537 2939 
Q 1816 3084 2150 3084 
Q 2853 3084 3261 2657 
Q 3669 2231 3669 1497 
Q 3669 778 3244 343 
Q 2819 -91 2113 -91 
Q 1303 -91 875 529 
Q 447 1150 447 2328 
Q 447 3434 972 4092 
Q 1497 4750 2381 4750 
Q 2619 4750 2861 4703 
Q 3103 4656 3366 4563 
z
" transform="scale(0.015625)"/>
       </defs>
       <use xlink:href="#DejaVuSans-30"/>
       <use xlink:href="#DejaVuSans-2e" x="63.623047"/>
       <use xlink:href="#DejaVuSans-36" x="95.410156"/>
      </g>
     </g>
    </g>
    <g id="ytick_6">
     <g id="line2d_14">
      <path d="M 166.29975 52.929027 
C 180.241346 52.929027 194.047378 55.675217 206.927733 61.010435 
C 219.808088 66.345653 231.512277 74.166141 241.370474 84.024339 
C 251.228671 93.882536 259.04916 105.586724 264.384378 118.467079 
C 269.719596 131.347435 272.465786 145.153466 272.465786 159.095062 
C 272.465786 173.036659 269.719596 186.84269 264.384378 199.723046 
C 259.04916 212.603401 251.228671 224.307589 241.370474 234.165786 
C 231.512277 244.023984 219.808088 251.844472 206.927733 257.17969 
C 194.047378 262.514908 180.241346 265.261098 166.29975 265.261098 
C 152.358154 265.261098 138.552122 262.514908 125.671767 257.17969 
C 112.791412 251.844472 101.087223 244.023984 91.229026 234.165786 
C 81.370829 224.307589 73.55034 212.603401 68.215122 199.723046 
C 62.879904 186.84269 60.133714 173.036659 60.133714 159.095062 
C 60.133714 145.153466 62.879904 131.347435 68.215122 118.467079 
C 73.55034 105.586724 81.370829 93.882536 91.229026 84.024339 
C 101.087223 74.166141 112.791412 66.345653 125.671767 61.010435 
C 138.552122 55.675217 152.358154 52.929027 166.29975 52.929027 
" clip-path="url(#pd3a0878248)" style="fill: none; stroke: #b0b0b0; stroke-width: 0.8; stroke-linecap: square"/>
     </g>
     <g id="text_14">
      <!-- 0.8 -->
      <g transform="translate(219.382768 65.072891)scale(0.1 -0.1)">
       <use xlink:href="#DejaVuSans-30"/>
       <use xlink:href="#DejaVuSans-2e" x="63.623047"/>
       <use xlink:href="#DejaVuSans-38" x="95.410156"/>
      </g>
     </g>
    </g>
    <g id="ytick_7">
     <g id="line2d_15">
      <path d="M 166.29975 32.087062 
C 182.978288 32.087062 199.494648 35.372371 214.903607 41.754971 
C 230.312567 48.137571 244.314461 57.493337 256.107968 69.286844 
C 267.901475 81.080352 277.257242 95.082245 283.639842 110.491205 
C 290.022442 125.900165 293.30775 142.416525 293.30775 159.095062 
C 293.30775 175.7736 290.022442 192.28996 283.639842 207.69892 
C 277.257242 223.10788 267.901475 237.109773 256.107968 248.903281 
C 244.314461 260.696788 230.312567 270.052554 214.903607 276.435154 
C 199.494648 282.817754 182.978288 286.103062 166.29975 286.103062 
C 149.621212 286.103062 133.104852 282.817754 117.695893 276.435154 
C 102.286933 270.052554 88.285039 260.696788 76.491532 248.903281 
C 64.698025 237.109773 55.342258 223.10788 48.959658 207.69892 
C 42.577058 192.28996 39.29175 175.7736 39.29175 159.095062 
C 39.29175 142.416525 42.577058 125.900165 48.959658 110.491205 
C 55.342258 95.082245 64.698025 81.080352 76.491532 69.286844 
C 88.285039 57.493337 102.286933 48.137571 117.695893 41.754971 
C 133.104852 35.372371 149.621212 32.087062 166.29975 32.087062 
" clip-path="url(#pd3a0878248)" style="fill: none; stroke: #b0b0b0; stroke-width: 0.8; stroke-linecap: square"/>
     </g>
     <g id="text_15">
      <!-- 1.0 -->
      <g transform="translate(229.80375 47.023221)scale(0.1 -0.1)">
       <use xlink:href="#DejaVuSans-31"/>
       <use xlink:href="#DejaVuSans-2e" x="63.623047"/>
       <use xlink:href="#DejaVuSans-30" x="95.410156"/>
      </g>
     </g>
    </g>
   </g>
   <g id="line2d_16">
    <path d="M 166.29975 165.314759 
L 165.765026 165.620394 
L 165.497747 165.437153 
L 165.007197 165.047073 
L 164.159051 164.919528 
L 163.855462 164.641255 
L 163.581711 164.771712 
L 162.98342 165.398971 
L 151.268399 179.219532 
L 134.713029 197.714981 
L 127.233423 206.251675 
L 99.468921 238.740943 
L 126.287156 206.175657 
L 140.496512 188.32045 
L 157.27984 166.933461 
L 160.576551 162.769672 
L 160.847005 162.085147 
L 160.787086 161.59739 
L 160.060762 159.320791 
L 160.12318 158.343575 
L 160.408985 157.411926 
L 160.849811 156.128771 
L 160.680603 155.610799 
L 160.140476 154.775072 
L 158.403148 152.615787 
L 152.826802 145.727623 
L 143.65773 133.932644 
L 135.749777 123.82833 
L 130.503149 117.242629 
L 119.016409 103.103508 
L 119.962665 103.51867 
L 137.153082 123.228944 
L 159.104427 148.003787 
L 163.788436 153.539409 
L 164.008409 153.469687 
L 164.485647 153.070032 
L 165.308969 152.970474 
L 165.78544 152.566702 
L 166.036195 152.651872 
L 166.513531 152.917466 
L 166.681662 152.710847 
L 167.011302 151.819247 
L 170.471608 140.721865 
L 172.624475 134.804676 
L 175.927539 126.375044 
L 183.294559 108.474925 
L 188.309388 96.172462 
L 192.874932 84.626354 
L 209.739044 39.746582 
L 194.702069 82.561503 
L 191.590227 92.238889 
L 190.120549 97.301275 
L 189.35725 100.384291 
L 189.020569 102.294143 
L 188.999641 103.365502 
L 189.252047 103.744866 
L 189.775324 103.474244 
L 190.602582 102.510291 
L 191.815647 100.701494 
L 193.590698 97.694689 
L 196.353672 92.608277 
L 201.588991 82.316697 
L 213.597248 57.873093 
L 199.594415 88.993731 
L 192.339144 106.003338 
L 178.804596 138.423642 
L 175.861579 144.754285 
L 173.118674 150.143069 
L 170.881287 154.549404 
L 170.901219 154.967576 
L 171.135571 155.177833 
L 171.939062 155.743925 
L 172.2066 156.300975 
L 172.427133 157.385928 
L 172.54478 159.045964 
L 172.440605 160.704331 
L 172.15975 162.026536 
L 171.84544 162.557969 
L 171.388043 162.883156 
L 170.892147 163.240548 
L 170.861801 163.53677 
L 171.069481 164.166635 
L 172.001083 165.97709 
L 175.039583 171.766729 
L 177.628089 177.173552 
L 180.764804 184.240497 
L 185.548716 195.684819 
L 193.607149 215.217849 
L 197.026794 223.268777 
L 203.612902 238.299015 
L 207.613258 248.240499 
L 198.451564 229.631083 
L 194.801763 222.680631 
L 192.615549 218.806732 
L 191.153011 216.463202 
L 190.147284 215.104852 
L 189.47865 214.498665 
L 189.092636 214.553086 
L 188.974395 215.26763 
L 189.144715 216.731302 
L 189.674224 219.167467 
L 190.736299 223.085041 
L 192.813232 229.855917 
L 198.205142 245.904032 
L 197.111417 244.584959 
L 186.750067 218.155058 
L 172.367388 182.702293 
L 169.977315 176.029687 
L 168.144962 170.278183 
L 166.574009 165.320458 
L 166.377412 165.268729 
L 166.29975 165.314759 
L 166.29975 165.314759 
" clip-path="url(#pd3a0878248)" style="fill: none; stroke: #1f77b4; stroke-width: 1.5; stroke-linecap: square"/>
   </g>
   <g id="patch_3">
    <path d="M 166.29975 26.039062 
C 148.826996 26.039062 131.524143 29.480814 115.381423 36.167347 
C 99.238704 42.853881 84.570053 52.65516 72.21495 65.010263 
C 59.859847 77.365365 50.058568 92.034016 43.372035 108.176736 
C 36.685502 124.319455 33.24375 141.622309 33.24375 159.095062 
C 33.24375 176.567816 36.685502 193.87067 43.372035 210.013389 
C 50.058568 226.156109 59.859847 240.82476 72.21495 253.179862 
C 84.570053 265.534965 99.238704 275.336244 115.381423 282.022778 
C 131.524143 288.709311 148.826996 292.151062 166.29975 292.151062 
C 183.772504 292.151062 201.075357 288.709311 217.218077 282.022778 
C 233.360796 275.336244 248.029447 265.534965 260.38455 253.179862 
C 272.739653 240.82476 282.540932 226.156109 289.227465 210.013389 
C 295.913998 193.87067 299.35575 176.567816 299.35575 159.095062 
C 299.35575 141.622309 295.913998 124.319455 289.227465 108.176736 
C 282.540932 92.034016 272.739653 77.365365 260.38455 65.010263 
C 248.029447 52.65516 233.360796 42.853881 217.218077 36.167347 
C 201.075357 29.480814 183.772504 26.039062 166.29975 26.039062 
" style="fill: none; stroke: #000000; stroke-width: 0.8; stroke-linejoin: miter; stroke-linecap: square"/>
   </g>
  </g>
 </g>
 <defs>
  <clipPath id="pd3a0878248">
   <path d="M 299.35575 159.095062 
C 299.35575 141.622309 295.913998 124.319455 289.227465 108.176736 
C 282.540932 92.034016 272.739653 77.365365 260.38455 65.010263 
C 248.029447 52.65516 233.360796 42.853881 217.218077 36.167347 
C 201.075357 29.480814 183.772504 26.039062 166.29975 26.039062 
C 148.826996 26.039062 131.524143 29.480814 115.381423 36.167347 
C 99.238704 42.853881 84.570053 52.65516 72.21495 65.010263 
C 59.859847 77.365365 50.058568 92.034016 43.372035 108.176736 
C 36.685502 124.319455 33.24375 141.622309 33.24375 159.095062 
C 33.24375 176.567816 36.685502 193.87067 43.372035 210.013389 
C 50.058568 226.156109 59.859847 240.82476 72.21495 253.179862 
C 84.570053 265.534965 99.238704 275.336244 115.381423 282.022778 
C 131.524143 288.709311 148.826996 292.151062 166.29975 292.151062 
C 183.772504 292.151062 201.075357 288.709311 217.218077 282.022778 
C 233.360796 275.336244 248.029447 265.534965 260.38455 253.179862 
C 272.739653 240.82476 282.540932 226.156109 289.227465 210.013389 
C 295.913998 193.87067 299.35575 176.567816 299.35575 159.095062 
M 166.29975 159.095062 
C 166.29975 159.095062 166.29975 159.095062 166.29975 159.095062 
C 166.29975 159.095062 166.29975 159.095062 166.29975 159.095062 
C 166.29975 159.095062 166.29975 159.095062 166.29975 159.095062 
C 166.29975 159.095062 166.29975 159.095062 166.29975 159.095062 
C 166.29975 159.095062 166.29975 159.095062 166.29975 159.095062 
C 166.29975 159.095062 166.29975 159.095062 166.29975 159.095062 
C 166.29975 159.095062 166.29975 159.095062 166.29975 159.095062 
C 166.29975 159.095062 166.29975 159.095062 166.29975 159.095062 
C 166.29975 159.095062 166.29975 159.095062 166.29975 159.095062 
C 166.29975 159.095062 166.29975 159.095062 166.29975 159.095062 
C 166.29975 159.095062 166.29975 159.095062 166.29975 159.095062 
C 166.29975 159.095062 166.29975 159.095062 166.29975 159.095062 
C 166.29975 159.095062 166.29975 159.095062 166.29975 159.095062 
C 166.29975 159.095062 166.29975 159.095062 166.29975 159.095062 
C 166.29975 159.095062 166.29975 159.095062 166.29975 159.095062 
C 166.29975 159.095062 166.29975 159.095062 166.29975 159.095062 
M 299.35575 159.095062 
z
"/>
  </clipPath>
 </defs>
</svg>
