<?xml version="1.0" encoding="utf-8" standalone="no"?>
<!DOCTYPE svg PUBLIC "-//W3C//DTD SVG 1.1//EN"
  "http://www.w3.org/Graphics/SVG/1.1/DTD/svg11.dtd">
<svg xmlns:xlink="http://www.w3.org/1999/xlink" width="329.41825pt" height="318.190125pt" viewBox="0 0 329.41825 318.190125" xmlns="http://www.w3.org/2000/svg" version="1.1">
 <metadata>
  <rdf:RDF xmlns:dc="http://purl.org/dc/elements/1.1/" xmlns:cc="http://creativecommons.org/ns#" xmlns:rdf="http://www.w3.org/1999/02/22-rdf-syntax-ns#">
   <cc:Work>
    <dc:type rdf:resource="http://purl.org/dc/dcmitype/StillImage"/>
    <dc:date>2023-04-05T01:10:31.799690</dc:date>
    <dc:format>image/svg+xml</dc:format>
    <dc:creator>
     <cc:Agent>
      <dc:title>Matplotlib v3.5.1, https://matplotlib.org/</dc:title>
     </cc:Agent>
    </dc:creator>
   </cc:Work>
  </rdf:RDF>
 </metadata>
 <defs>
  <style type="text/css">*{stroke-linejoin: round; stroke-linecap: butt}</style>
 </defs>
 <g id="figure_1">
  <g id="patch_1">
   <path d="M 0 318.190125 
L 329.41825 318.190125 
L 329.41825 0 
L 0 0 
z
" style="fill: #ffffff"/>
  </g>
  <g id="axes_1">
   <g id="patch_2">
    <path d="M 299.35575 159.095062 
C 299.35575 141.622309 295.913998 124.319455 289.227465 108.176736 
C 282.540932 92.034016 272.739653 77.365365 260.38455 65.010263 
C 248.029447 52.65516 233.360796 42.853881 217.218077 36.167347 
C 201.075357 29.480814 183.772504 26.039062 166.29975 26.039062 
C 148.826996 26.039062 131.524143 29.480814 115.381423 36.167347 
C 99.238704 42.853881 84.570053 52.65516 72.21495 65.010263 
C 59.859847 77.365365 50.058568 92.034016 43.372035 108.176736 
C 36.685502 124.319455 33.24375 141.622309 33.24375 159.095062 
C 33.24375 176.567816 36.685502 193.87067 43.372035 210.013389 
C 50.058568 226.156109 59.859847 240.82476 72.21495 253.179862 
C 84.570053 265.534965 99.238704 275.336244 115.381423 282.022778 
C 131.524143 288.709311 148.826996 292.151062 166.29975 292.151062 
C 183.772504 292.151062 201.075357 288.709311 217.218077 282.022778 
C 233.360796 275.336244 248.029447 265.534965 260.38455 253.179862 
C 272.739653 240.82476 282.540932 226.156109 289.227465 210.013389 
C 295.913998 193.87067 299.35575 176.567816 299.35575 159.095062 
M 166.29975 159.095062 
C 166.29975 159.095062 166.29975 159.095062 166.29975 159.095062 
C 166.29975 159.095062 166.29975 159.095062 166.29975 159.095062 
C 166.29975 159.095062 166.29975 159.095062 166.29975 159.095062 
C 166.29975 159.095062 166.29975 159.095062 166.29975 159.095062 
C 166.29975 159.095062 166.29975 159.095062 166.29975 159.095062 
C 166.29975 159.095062 166.29975 159.095062 166.29975 159.095062 
C 166.29975 159.095062 166.29975 159.095062 166.29975 159.095062 
C 166.29975 159.095062 166.29975 159.095062 166.29975 159.095062 
C 166.29975 159.095062 166.29975 159.095062 166.29975 159.095062 
C 166.29975 159.095062 166.29975 159.095062 166.29975 159.095062 
C 166.29975 159.095062 166.29975 159.095062 166.29975 159.095062 
C 166.29975 159.095062 166.29975 159.095062 166.29975 159.095062 
C 166.29975 159.095062 166.29975 159.095062 166.29975 159.095062 
C 166.29975 159.095062 166.29975 159.095062 166.29975 159.095062 
C 166.29975 159.095062 166.29975 159.095062 166.29975 159.095062 
C 166.29975 159.095062 166.29975 159.095062 166.29975 159.095062 
M 299.35575 159.095062 
z
" style="fill: #ffffff"/>
   </g>
   <g id="matplotlib.axis_1">
    <g id="xtick_1">
     <g id="line2d_1">
      <path d="M 166.29975 159.095062 
L 166.29975 26.039062 
" clip-path="url(#pb2faf24fde)" style="fill: none; stroke: #b0b0b0; stroke-width: 0.8; stroke-linecap: square"/>
     </g>
     <g id="text_1">
      <!-- 0° -->
      <g transform="translate(160.6185 14.798437)scale(0.1 -0.1)">
       <defs>
        <path id="DejaVuSans-30" d="M 2034 4250 
Q 1547 4250 1301 3770 
Q 1056 3291 1056 2328 
Q 1056 1369 1301 889 
Q 1547 409 2034 409 
Q 2525 409 2770 889 
Q 3016 1369 3016 2328 
Q 3016 3291 2770 3770 
Q 2525 4250 2034 4250 
z
M 2034 4750 
Q 2819 4750 3233 4129 
Q 3647 3509 3647 2328 
Q 3647 1150 3233 529 
Q 2819 -91 2034 -91 
Q 1250 -91 836 529 
Q 422 1150 422 2328 
Q 422 3509 836 4129 
Q 1250 4750 2034 4750 
z
" transform="scale(0.015625)"/>
        <path id="DejaVuSans-b0" d="M 1600 4347 
Q 1350 4347 1178 4173 
Q 1006 4000 1006 3750 
Q 1006 3503 1178 3333 
Q 1350 3163 1600 3163 
Q 1850 3163 2022 3333 
Q 2194 3503 2194 3750 
Q 2194 3997 2020 4172 
Q 1847 4347 1600 4347 
z
M 1600 4750 
Q 1800 4750 1984 4673 
Q 2169 4597 2303 4453 
Q 2447 4313 2519 4134 
Q 2591 3956 2591 3750 
Q 2591 3338 2302 3052 
Q 2013 2766 1594 2766 
Q 1172 2766 890 3047 
Q 609 3328 609 3750 
Q 609 4169 896 4459 
Q 1184 4750 1600 4750 
z
" transform="scale(0.015625)"/>
       </defs>
       <use xlink:href="#DejaVuSans-30"/>
       <use xlink:href="#DejaVuSans-b0" x="63.623047"/>
      </g>
     </g>
    </g>
    <g id="xtick_2">
     <g id="line2d_2">
      <path d="M 166.29975 159.095062 
L 260.38455 65.010263 
" clip-path="url(#pb2faf24fde)" style="fill: none; stroke: #b0b0b0; stroke-width: 0.8; stroke-linecap: square"/>
     </g>
     <g id="text_2">
      <!-- 45° -->
      <g transform="translate(261.421545 57.870143)scale(0.1 -0.1)">
       <defs>
        <path id="DejaVuSans-34" d="M 2419 4116 
L 825 1625 
L 2419 1625 
L 2419 4116 
z
M 2253 4666 
L 3047 4666 
L 3047 1625 
L 3713 1625 
L 3713 1100 
L 3047 1100 
L 3047 0 
L 2419 0 
L 2419 1100 
L 313 1100 
L 313 1709 
L 2253 4666 
z
" transform="scale(0.015625)"/>
        <path id="DejaVuSans-35" d="M 691 4666 
L 3169 4666 
L 3169 4134 
L 1269 4134 
L 1269 2991 
Q 1406 3038 1543 3061 
Q 1681 3084 1819 3084 
Q 2600 3084 3056 2656 
Q 3513 2228 3513 1497 
Q 3513 744 3044 326 
Q 2575 -91 1722 -91 
Q 1428 -91 1123 -41 
Q 819 9 494 109 
L 494 744 
Q 775 591 1075 516 
Q 1375 441 1709 441 
Q 2250 441 2565 725 
Q 2881 1009 2881 1497 
Q 2881 1984 2565 2268 
Q 2250 2553 1709 2553 
Q 1456 2553 1204 2497 
Q 953 2441 691 2322 
L 691 4666 
z
" transform="scale(0.015625)"/>
       </defs>
       <use xlink:href="#DejaVuSans-34"/>
       <use xlink:href="#DejaVuSans-35" x="63.623047"/>
       <use xlink:href="#DejaVuSans-b0" x="127.246094"/>
      </g>
     </g>
    </g>
    <g id="xtick_3">
     <g id="line2d_3">
      <path d="M 166.29975 159.095062 
L 299.35575 159.095062 
" clip-path="url(#pb2faf24fde)" style="fill: none; stroke: #b0b0b0; stroke-width: 0.8; stroke-linecap: square"/>
     </g>
     <g id="text_3">
      <!-- 90° -->
      <g transform="translate(304.49325 161.854437)scale(0.1 -0.1)">
       <defs>
        <path id="DejaVuSans-39" d="M 703 97 
L 703 672 
Q 941 559 1184 500 
Q 1428 441 1663 441 
Q 2288 441 2617 861 
Q 2947 1281 2994 2138 
Q 2813 1869 2534 1725 
Q 2256 1581 1919 1581 
Q 1219 1581 811 2004 
Q 403 2428 403 3163 
Q 403 3881 828 4315 
Q 1253 4750 1959 4750 
Q 2769 4750 3195 4129 
Q 3622 3509 3622 2328 
Q 3622 1225 3098 567 
Q 2575 -91 1691 -91 
Q 1453 -91 1209 -44 
Q 966 3 703 97 
z
M 1959 2075 
Q 2384 2075 2632 2365 
Q 2881 2656 2881 3163 
Q 2881 3666 2632 3958 
Q 2384 4250 1959 4250 
Q 1534 4250 1286 3958 
Q 1038 3666 1038 3163 
Q 1038 2656 1286 2365 
Q 1534 2075 1959 2075 
z
" transform="scale(0.015625)"/>
       </defs>
       <use xlink:href="#DejaVuSans-39"/>
       <use xlink:href="#DejaVuSans-30" x="63.623047"/>
       <use xlink:href="#DejaVuSans-b0" x="127.246094"/>
      </g>
     </g>
    </g>
    <g id="xtick_4">
     <g id="line2d_4">
      <path d="M 166.29975 159.095062 
L 260.38455 253.179862 
" clip-path="url(#pb2faf24fde)" style="fill: none; stroke: #b0b0b0; stroke-width: 0.8; stroke-linecap: square"/>
     </g>
     <g id="text_4">
      <!-- 135° -->
      <g transform="translate(258.240295 265.838732)scale(0.1 -0.1)">
       <defs>
        <path id="DejaVuSans-31" d="M 794 531 
L 1825 531 
L 1825 4091 
L 703 3866 
L 703 4441 
L 1819 4666 
L 2450 4666 
L 2450 531 
L 3481 531 
L 3481 0 
L 794 0 
L 794 531 
z
" transform="scale(0.015625)"/>
        <path id="DejaVuSans-33" d="M 2597 2516 
Q 3050 2419 3304 2112 
Q 3559 1806 3559 1356 
Q 3559 666 3084 287 
Q 2609 -91 1734 -91 
Q 1441 -91 1130 -33 
Q 819 25 488 141 
L 488 750 
Q 750 597 1062 519 
Q 1375 441 1716 441 
Q 2309 441 2620 675 
Q 2931 909 2931 1356 
Q 2931 1769 2642 2001 
Q 2353 2234 1838 2234 
L 1294 2234 
L 1294 2753 
L 1863 2753 
Q 2328 2753 2575 2939 
Q 2822 3125 2822 3475 
Q 2822 3834 2567 4026 
Q 2313 4219 1838 4219 
Q 1578 4219 1281 4162 
Q 984 4106 628 3988 
L 628 4550 
Q 988 4650 1302 4700 
Q 1616 4750 1894 4750 
Q 2613 4750 3031 4423 
Q 3450 4097 3450 3541 
Q 3450 3153 3228 2886 
Q 3006 2619 2597 2516 
z
" transform="scale(0.015625)"/>
       </defs>
       <use xlink:href="#DejaVuSans-31"/>
       <use xlink:href="#DejaVuSans-33" x="63.623047"/>
       <use xlink:href="#DejaVuSans-35" x="127.246094"/>
       <use xlink:href="#DejaVuSans-b0" x="190.869141"/>
      </g>
     </g>
    </g>
    <g id="xtick_5">
     <g id="line2d_5">
      <path d="M 166.29975 159.095062 
L 166.29975 292.151062 
" clip-path="url(#pb2faf24fde)" style="fill: none; stroke: #b0b0b0; stroke-width: 0.8; stroke-linecap: square"/>
     </g>
     <g id="text_5">
      <!-- 180° -->
      <g transform="translate(154.256 308.910437)scale(0.1 -0.1)">
       <defs>
        <path id="DejaVuSans-38" d="M 2034 2216 
Q 1584 2216 1326 1975 
Q 1069 1734 1069 1313 
Q 1069 891 1326 650 
Q 1584 409 2034 409 
Q 2484 409 2743 651 
Q 3003 894 3003 1313 
Q 3003 1734 2745 1975 
Q 2488 2216 2034 2216 
z
M 1403 2484 
Q 997 2584 770 2862 
Q 544 3141 544 3541 
Q 544 4100 942 4425 
Q 1341 4750 2034 4750 
Q 2731 4750 3128 4425 
Q 3525 4100 3525 3541 
Q 3525 3141 3298 2862 
Q 3072 2584 2669 2484 
Q 3125 2378 3379 2068 
Q 3634 1759 3634 1313 
Q 3634 634 3220 271 
Q 2806 -91 2034 -91 
Q 1263 -91 848 271 
Q 434 634 434 1313 
Q 434 1759 690 2068 
Q 947 2378 1403 2484 
z
M 1172 3481 
Q 1172 3119 1398 2916 
Q 1625 2713 2034 2713 
Q 2441 2713 2670 2916 
Q 2900 3119 2900 3481 
Q 2900 3844 2670 4047 
Q 2441 4250 2034 4250 
Q 1625 4250 1398 4047 
Q 1172 3844 1172 3481 
z
" transform="scale(0.015625)"/>
       </defs>
       <use xlink:href="#DejaVuSans-31"/>
       <use xlink:href="#DejaVuSans-38" x="63.623047"/>
       <use xlink:href="#DejaVuSans-30" x="127.246094"/>
       <use xlink:href="#DejaVuSans-b0" x="190.869141"/>
      </g>
     </g>
    </g>
    <g id="xtick_6">
     <g id="line2d_6">
      <path d="M 166.29975 159.095062 
L 72.21495 253.179862 
" clip-path="url(#pb2faf24fde)" style="fill: none; stroke: #b0b0b0; stroke-width: 0.8; stroke-linecap: square"/>
     </g>
     <g id="text_6">
      <!-- 225° -->
      <g transform="translate(50.271705 265.838732)scale(0.1 -0.1)">
       <defs>
        <path id="DejaVuSans-32" d="M 1228 531 
L 3431 531 
L 3431 0 
L 469 0 
L 469 531 
Q 828 903 1448 1529 
Q 2069 2156 2228 2338 
Q 2531 2678 2651 2914 
Q 2772 3150 2772 3378 
Q 2772 3750 2511 3984 
Q 2250 4219 1831 4219 
Q 1534 4219 1204 4116 
Q 875 4013 500 3803 
L 500 4441 
Q 881 4594 1212 4672 
Q 1544 4750 1819 4750 
Q 2544 4750 2975 4387 
Q 3406 4025 3406 3419 
Q 3406 3131 3298 2873 
Q 3191 2616 2906 2266 
Q 2828 2175 2409 1742 
Q 1991 1309 1228 531 
z
" transform="scale(0.015625)"/>
       </defs>
       <use xlink:href="#DejaVuSans-32"/>
       <use xlink:href="#DejaVuSans-32" x="63.623047"/>
       <use xlink:href="#DejaVuSans-35" x="127.246094"/>
       <use xlink:href="#DejaVuSans-b0" x="190.869141"/>
      </g>
     </g>
    </g>
    <g id="xtick_7">
     <g id="line2d_7">
      <path d="M 166.29975 159.095062 
L 33.24375 159.095062 
" clip-path="url(#pb2faf24fde)" style="fill: none; stroke: #b0b0b0; stroke-width: 0.8; stroke-linecap: square"/>
     </g>
     <g id="text_7">
      <!-- 270° -->
      <g transform="translate(7.2 161.854437)scale(0.1 -0.1)">
       <defs>
        <path id="DejaVuSans-37" d="M 525 4666 
L 3525 4666 
L 3525 4397 
L 1831 0 
L 1172 0 
L 2766 4134 
L 525 4134 
L 525 4666 
z
" transform="scale(0.015625)"/>
       </defs>
       <use xlink:href="#DejaVuSans-32"/>
       <use xlink:href="#DejaVuSans-37" x="63.623047"/>
       <use xlink:href="#DejaVuSans-30" x="127.246094"/>
       <use xlink:href="#DejaVuSans-b0" x="190.869141"/>
      </g>
     </g>
    </g>
    <g id="xtick_8">
     <g id="line2d_8">
      <path d="M 166.29975 159.095062 
L 72.21495 65.010263 
" clip-path="url(#pb2faf24fde)" style="fill: none; stroke: #b0b0b0; stroke-width: 0.8; stroke-linecap: square"/>
     </g>
     <g id="text_8">
      <!-- 315° -->
      <g transform="translate(50.271705 57.870143)scale(0.1 -0.1)">
       <use xlink:href="#DejaVuSans-33"/>
       <use xlink:href="#DejaVuSans-31" x="63.623047"/>
       <use xlink:href="#DejaVuSans-35" x="127.246094"/>
       <use xlink:href="#DejaVuSans-b0" x="190.869141"/>
      </g>
     </g>
    </g>
   </g>
   <g id="matplotlib.axis_2">
    <g id="ytick_1">
     <g id="line2d_9">
      <path d="M 166.29975 140.578314 
C 168.731347 140.578314 171.1393 141.057285 173.385803 141.987817 
C 175.632306 142.918349 177.67367 144.282345 179.393069 146.001744 
C 181.112468 147.721143 182.476463 149.762507 183.406995 152.009009 
C 184.337527 154.255512 184.816499 156.663465 184.816499 159.095062 
C 184.816499 161.52666 184.337527 163.934613 183.406995 166.181116 
C 182.476463 168.427618 181.112468 170.468982 179.393069 172.188381 
C 177.67367 173.90778 175.632306 175.271776 173.385803 176.202308 
C 171.1393 177.13284 168.731347 177.611811 166.29975 177.611811 
C 163.868153 177.611811 161.4602 177.13284 159.213697 176.202308 
C 156.967194 175.271776 154.92583 173.90778 153.206431 172.188381 
C 151.487032 170.468982 150.123037 168.427618 149.192505 166.181116 
C 148.261973 163.934613 147.783001 161.52666 147.783001 159.095062 
C 147.783001 156.663465 148.261973 154.255512 149.192505 152.009009 
C 150.123037 149.762507 151.487032 147.721143 153.206431 146.001744 
C 154.92583 144.282345 156.967194 142.918349 159.213697 141.987817 
C 161.4602 141.057285 163.868153 140.578314 166.29975 140.578314 
" clip-path="url(#pb2faf24fde)" style="fill: none; stroke: #b0b0b0; stroke-width: 0.8; stroke-linecap: square"/>
     </g>
     <g id="text_9">
      <!-- 0.0 -->
      <g transform="translate(175.558124 140.9794)scale(0.1 -0.1)">
       <defs>
        <path id="DejaVuSans-2e" d="M 684 794 
L 1344 794 
L 1344 0 
L 684 0 
L 684 794 
z
" transform="scale(0.015625)"/>
       </defs>
       <use xlink:href="#DejaVuSans-30"/>
       <use xlink:href="#DejaVuSans-2e" x="63.623047"/>
       <use xlink:href="#DejaVuSans-30" x="95.410156"/>
      </g>
     </g>
    </g>
    <g id="ytick_2">
     <g id="line2d_10">
      <path d="M 166.29975 118.880063 
C 171.580735 118.880063 176.81037 119.920302 181.689364 121.941248 
C 186.568358 123.962193 191.001828 126.924543 194.736049 130.658764 
C 198.470269 134.392984 201.432619 138.826454 203.453565 143.705449 
C 205.47451 148.584443 206.514749 153.814077 206.514749 159.095062 
C 206.514749 164.376048 205.47451 169.605682 203.453565 174.484676 
C 201.432619 179.363671 198.470269 183.797141 194.736049 187.531361 
C 191.001828 191.265582 186.568358 194.227932 181.689364 196.248877 
C 176.81037 198.269823 171.580735 199.310062 166.29975 199.310062 
C 161.018765 199.310062 155.78913 198.269823 150.910136 196.248877 
C 146.031142 194.227932 141.597672 191.265582 137.863451 187.531361 
C 134.129231 183.797141 131.166881 179.363671 129.145935 174.484676 
C 127.12499 169.605682 126.084751 164.376048 126.084751 159.095062 
C 126.084751 153.814077 127.12499 148.584443 129.145935 143.705449 
C 131.166881 138.826454 134.129231 134.392984 137.863451 130.658764 
C 141.597672 126.924543 146.031142 123.962193 150.910136 121.941248 
C 155.78913 119.920302 161.018765 118.880063 166.29975 118.880063 
" clip-path="url(#pb2faf24fde)" style="fill: none; stroke: #b0b0b0; stroke-width: 0.8; stroke-linecap: square"/>
     </g>
     <g id="text_10">
      <!-- 0.2 -->
      <g transform="translate(186.40725 122.188164)scale(0.1 -0.1)">
       <use xlink:href="#DejaVuSans-30"/>
       <use xlink:href="#DejaVuSans-2e" x="63.623047"/>
       <use xlink:href="#DejaVuSans-32" x="95.410156"/>
      </g>
     </g>
    </g>
    <g id="ytick_3">
     <g id="line2d_11">
      <path d="M 166.29975 97.181813 
C 174.430123 97.181813 182.481439 98.783319 189.992925 101.894679 
C 197.50441 105.006038 204.329986 109.566742 210.079028 115.315784 
C 215.828071 121.064826 220.388775 127.890402 223.500134 135.401888 
C 226.611493 142.913373 228.212999 150.964689 228.212999 159.095062 
C 228.212999 167.225436 226.611493 175.276752 223.500134 182.788237 
C 220.388775 190.299723 215.828071 197.125299 210.079028 202.874341 
C 204.329986 208.623383 197.50441 213.184087 189.992925 216.295446 
C 182.481439 219.406806 174.430123 221.008312 166.29975 221.008312 
C 158.169377 221.008312 150.118061 219.406806 142.606575 216.295446 
C 135.09509 213.184087 128.269514 208.623383 122.520472 202.874341 
C 116.771429 197.125299 112.210725 190.299723 109.099366 182.788237 
C 105.988007 175.276752 104.386501 167.225436 104.386501 159.095062 
C 104.386501 150.964689 105.988007 142.913373 109.099366 135.401888 
C 112.210725 127.890402 116.771429 121.064826 122.520472 115.315784 
C 128.269514 109.566742 135.09509 105.006038 142.606575 101.894679 
C 150.118061 98.783319 158.169377 97.181813 166.29975 97.181813 
" clip-path="url(#pb2faf24fde)" style="fill: none; stroke: #b0b0b0; stroke-width: 0.8; stroke-linecap: square"/>
     </g>
     <g id="text_11">
      <!-- 0.4 -->
      <g transform="translate(197.256375 103.396928)scale(0.1 -0.1)">
       <use xlink:href="#DejaVuSans-30"/>
       <use xlink:href="#DejaVuSans-2e" x="63.623047"/>
       <use xlink:href="#DejaVuSans-34" x="95.410156"/>
      </g>
     </g>
    </g>
    <g id="ytick_4">
     <g id="line2d_12">
      <path d="M 166.29975 75.483563 
C 177.279512 75.483563 188.152509 77.646337 198.296486 81.848109 
C 208.440463 86.049882 217.658145 92.20894 225.422008 99.972804 
C 233.185872 107.736668 239.34493 116.95435 243.546703 127.098327 
C 247.748476 137.242304 249.91125 148.115301 249.91125 159.095062 
C 249.91125 170.074824 247.748476 180.947821 243.546703 191.091798 
C 239.34493 201.235775 233.185872 210.453457 225.422008 218.217321 
C 217.658145 225.981185 208.440463 232.140243 198.296486 236.342016 
C 188.152509 240.543788 177.279512 242.706562 166.29975 242.706562 
C 155.319988 242.706562 144.446991 240.543788 134.303014 236.342016 
C 124.159037 232.140243 114.941355 225.981185 107.177492 218.217321 
C 99.413628 210.453457 93.25457 201.235775 89.052797 191.091798 
C 84.851024 180.947821 82.68825 170.074824 82.68825 159.095062 
C 82.68825 148.115301 84.851024 137.242304 89.052797 127.098327 
C 93.25457 116.95435 99.413628 107.736668 107.177492 99.972804 
C 114.941355 92.20894 124.159037 86.049882 134.303014 81.848109 
C 144.446991 77.646337 155.319988 75.483563 166.29975 75.483563 
" clip-path="url(#pb2faf24fde)" style="fill: none; stroke: #b0b0b0; stroke-width: 0.8; stroke-linecap: square"/>
     </g>
     <g id="text_12">
      <!-- 0.6 -->
      <g transform="translate(208.1055 84.605692)scale(0.1 -0.1)">
       <defs>
        <path id="DejaVuSans-36" d="M 2113 2584 
Q 1688 2584 1439 2293 
Q 1191 2003 1191 1497 
Q 1191 994 1439 701 
Q 1688 409 2113 409 
Q 2538 409 2786 701 
Q 3034 994 3034 1497 
Q 3034 2003 2786 2293 
Q 2538 2584 2113 2584 
z
M 3366 4563 
L 3366 3988 
Q 3128 4100 2886 4159 
Q 2644 4219 2406 4219 
Q 1781 4219 1451 3797 
Q 1122 3375 1075 2522 
Q 1259 2794 1537 2939 
Q 1816 3084 2150 3084 
Q 2853 3084 3261 2657 
Q 3669 2231 3669 1497 
Q 3669 778 3244 343 
Q 2819 -91 2113 -91 
Q 1303 -91 875 529 
Q 447 1150 447 2328 
Q 447 3434 972 4092 
Q 1497 4750 2381 4750 
Q 2619 4750 2861 4703 
Q 3103 4656 3366 4563 
z
" transform="scale(0.015625)"/>
       </defs>
       <use xlink:href="#DejaVuSans-30"/>
       <use xlink:href="#DejaVuSans-2e" x="63.623047"/>
       <use xlink:href="#DejaVuSans-36" x="95.410156"/>
      </g>
     </g>
    </g>
    <g id="ytick_5">
     <g id="line2d_13">
      <path d="M 166.29975 53.785313 
C 180.1289 53.785313 193.823578 56.509354 206.600047 61.80154 
C 219.376515 67.093727 230.986303 74.851139 240.764988 84.629824 
C 250.543674 94.40851 258.301086 106.018298 263.593272 118.794766 
C 268.885459 131.571234 271.6095 145.265913 271.6095 159.095062 
C 271.6095 172.924212 268.885459 186.618891 263.593272 199.395359 
C 258.301086 212.171827 250.543674 223.781615 240.764988 233.560301 
C 230.986303 243.338986 219.376515 251.096398 206.600047 256.388585 
C 193.823578 261.680771 180.1289 264.404812 166.29975 264.404812 
C 152.4706 264.404812 138.775922 261.680771 125.999453 256.388585 
C 113.222985 251.096398 101.613197 243.338986 91.834512 233.560301 
C 82.055826 223.781615 74.298414 212.171827 69.006228 199.395359 
C 63.714041 186.618891 60.99 172.924212 60.99 159.095062 
C 60.99 145.265913 63.714041 131.571234 69.006228 118.794766 
C 74.298414 106.018298 82.055826 94.40851 91.834512 84.629824 
C 101.613197 74.851139 113.222985 67.093727 125.999453 61.80154 
C 138.775922 56.509354 152.4706 53.785313 166.29975 53.785313 
" clip-path="url(#pb2faf24fde)" style="fill: none; stroke: #b0b0b0; stroke-width: 0.8; stroke-linecap: square"/>
     </g>
     <g id="text_13">
      <!-- 0.8 -->
      <g transform="translate(218.954625 65.814456)scale(0.1 -0.1)">
       <use xlink:href="#DejaVuSans-30"/>
       <use xlink:href="#DejaVuSans-2e" x="63.623047"/>
       <use xlink:href="#DejaVuSans-38" x="95.410156"/>
      </g>
     </g>
    </g>
    <g id="ytick_6">
     <g id="line2d_14">
      <path d="M 166.29975 32.087062 
C 182.978288 32.087062 199.494648 35.372371 214.903607 41.754971 
C 230.312567 48.137571 244.314461 57.493337 256.107968 69.286844 
C 267.901475 81.080352 277.257242 95.082245 283.639842 110.491205 
C 290.022442 125.900165 293.30775 142.416525 293.30775 159.095062 
C 293.30775 175.7736 290.022442 192.28996 283.639842 207.69892 
C 277.257242 223.10788 267.901475 237.109773 256.107968 248.903281 
C 244.314461 260.696788 230.312567 270.052554 214.903607 276.435154 
C 199.494648 282.817754 182.978288 286.103062 166.29975 286.103062 
C 149.621212 286.103062 133.104852 282.817754 117.695893 276.435154 
C 102.286933 270.052554 88.285039 260.696788 76.491532 248.903281 
C 64.698025 237.109773 55.342258 223.10788 48.959658 207.69892 
C 42.577058 192.28996 39.29175 175.7736 39.29175 159.095062 
C 39.29175 142.416525 42.577058 125.900165 48.959658 110.491205 
C 55.342258 95.082245 64.698025 81.080352 76.491532 69.286844 
C 88.285039 57.493337 102.286933 48.137571 117.695893 41.754971 
C 133.104852 35.372371 149.621212 32.087062 166.29975 32.087062 
" clip-path="url(#pb2faf24fde)" style="fill: none; stroke: #b0b0b0; stroke-width: 0.8; stroke-linecap: square"/>
     </g>
     <g id="text_14">
      <!-- 1.0 -->
      <g transform="translate(229.80375 47.023221)scale(0.1 -0.1)">
       <use xlink:href="#DejaVuSans-31"/>
       <use xlink:href="#DejaVuSans-2e" x="63.623047"/>
       <use xlink:href="#DejaVuSans-30" x="95.410156"/>
      </g>
     </g>
    </g>
   </g>
   <g id="line2d_15">
    <path d="M 166.29975 214.422527 
L 165.622724 212.914384 
L 165.003673 210.601889 
L 164.472633 207.489402 
L 164.059135 203.588529 
L 163.790422 198.939701 
L 163.68628 193.656846 
L 163.828496 185.211905 
L 164.159517 176.019631 
L 164.065585 175.91196 
L 163.62122 177.482029 
L 161.497172 186.083619 
L 160.051208 190.736053 
L 159.160657 192.996261 
L 158.375146 194.511078 
L 157.724521 195.276798 
L 157.458026 195.382629 
L 157.234907 195.306589 
L 157.058235 195.050831 
L 156.856466 194.008291 
L 156.877098 192.270529 
L 157.143649 189.854519 
L 157.676175 186.786774 
L 158.485148 183.120225 
L 160.179403 176.77047 
L 162.186531 170.286409 
L 164.035893 164.703383 
L 163.870075 165.006774 
L 159.771503 173.41701 
L 157.104481 178.299467 
L 154.707341 182.177447 
L 152.753576 184.844561 
L 151.732127 185.960534 
L 150.945502 186.580431 
L 150.396409 186.740754 
L 150.210684 186.661025 
L 150.013998 186.208762 
L 150.042421 185.40589 
L 150.468883 183.666547 
L 151.259768 181.498977 
L 153.548306 175.726601 
L 153.463916 175.620374 
L 153.031891 175.7401 
L 151.777123 176.625195 
L 146.621721 180.552923 
L 144.736725 181.735618 
L 143.144621 182.506463 
L 141.936466 182.815661 
L 141.373616 182.760256 
L 141.018884 182.499495 
L 140.881023 182.040149 
L 140.966688 181.390962 
L 141.280801 180.562107 
L 142.186872 179.007234 
L 143.615673 177.118419 
L 145.5526 174.950221 
L 147.95419 172.574325 
L 150.72709 170.090636 
L 154.685737 166.865207 
L 159.578239 163.233661 
L 160.707158 162.347439 
L 160.628447 162.345654 
L 159.56286 162.789324 
L 154.804859 164.845399 
L 150.859984 166.339126 
L 146.992448 167.567841 
L 143.477144 168.433084 
L 140.417408 168.932431 
L 137.829144 169.104041 
L 135.687622 168.998991 
L 133.95074 168.668977 
L 132.570127 168.161315 
L 131.496376 167.517202 
L 130.681559 166.77137 
L 130.080515 165.952325 
L 129.56677 164.859721 
L 129.204684 163.489989 
L 128.989137 161.621553 
L 128.923731 158.801212 
L 129.033742 155.98227 
L 129.274637 154.353811 
L 129.697129 152.996505 
L 130.283582 151.923642 
L 130.959709 151.129089 
L 131.866165 150.417735 
L 133.049257 149.820375 
L 134.557662 149.374157 
L 136.440797 149.122665 
L 138.745516 149.115178 
L 141.509179 149.404018 
L 144.744962 150.037454 
L 148.411396 151.042867 
L 152.352929 152.390202 
L 157.076339 154.298266 
L 160.686084 155.854011 
L 160.691354 155.80985 
L 159.838524 155.144696 
L 154.193559 150.940407 
L 150.245288 147.683471 
L 146.699662 144.407314 
L 144.522463 142.124852 
L 142.836349 140.088665 
L 141.668323 138.360755 
L 141.023643 136.989958 
L 140.881263 136.294851 
L 140.963795 135.787163 
L 141.265039 135.47603 
L 141.776818 135.368791 
L 142.488358 135.47014 
L 143.897387 136.013228 
L 145.650095 136.999826 
L 148.315166 138.853928 
L 153.388794 142.5805 
L 153.517007 142.530841 
L 153.516796 142.092606 
L 152.979732 140.6643 
L 150.828082 135.571534 
L 150.202074 133.584012 
L 150.000485 132.151191 
L 150.139825 131.606622 
L 150.296185 131.476456 
L 150.511417 131.44851 
L 151.119925 131.720086 
L 151.965674 132.460754 
L 153.044875 133.705831 
L 154.348309 135.483221 
L 156.679447 139.164128 
L 159.321689 143.912981 
L 161.909455 149.047798 
L 164.040951 153.448178 
L 163.898726 152.981391 
L 161.177506 144.741562 
L 159.267598 138.149341 
L 157.852447 132.266872 
L 157.052759 127.669187 
L 156.849774 125.420829 
L 156.887006 123.855427 
L 157.140574 122.989082 
L 157.340852 122.822918 
L 157.586044 122.837541 
L 157.873067 123.035122 
L 158.559956 123.987229 
L 159.374746 125.689873 
L 160.286084 128.13144 
L 161.253061 131.242781 
L 162.672406 136.672359 
L 163.986263 142.090878 
L 164.123147 142.307217 
L 164.175905 141.864929 
L 163.984324 136.86352 
L 163.717645 128.75753 
L 163.696367 123.164199 
L 163.842736 118.022451 
L 164.149929 113.553875 
L 164.595509 109.847969 
L 165.151355 106.934923 
L 165.787722 104.823117 
L 166.474529 103.516907 
L 166.827392 103.168131 
L 167.181465 103.024078 
L 167.532876 103.086439 
L 167.877708 103.356924 
L 168.21201 103.83689 
L 168.833304 105.424978 
L 169.366985 107.821691 
L 169.791685 110.900763 
L 170.564292 118.149098 
L 170.796385 118.406111 
L 171.118639 117.866836 
L 171.55519 116.459215 
L 172.803923 111.289241 
L 175.451154 100.176692 
L 177.528784 92.347653 
L 179.734307 84.950802 
L 182.00867 78.211776 
L 184.31735 72.180836 
L 186.638881 66.836429 
L 188.958519 62.13237 
L 191.264994 58.017566 
L 193.548868 54.443614 
L 195.801689 51.367283 
L 198.015546 48.750912 
L 200.182826 46.562017 
L 202.296065 44.772656 
L 204.347869 43.358783 
L 206.330848 42.299653 
L 208.23757 41.577324 
L 210.060527 41.176239 
L 211.792092 41.082895 
L 213.424485 41.285563 
L 214.949729 41.774086 
L 216.359603 42.539702 
L 217.645593 43.57493 
L 218.798826 44.87347 
L 219.810009 46.430152 
L 220.669339 48.240897 
L 221.366414 50.302715 
L 221.890127 52.613718 
L 222.228535 55.173153 
L 222.368725 57.981453 
L 222.296656 61.040291 
L 221.997004 64.352626 
L 221.453007 67.922713 
L 220.646374 71.756013 
L 219.557317 75.8589 
L 218.164871 80.237977 
L 216.447811 84.898593 
L 214.386766 89.841874 
L 211.968677 95.05894 
L 209.195707 100.519962 
L 206.102164 106.15434 
L 202.784042 111.817737 
L 197.864606 119.750228 
L 194.182012 125.653262 
L 193.126496 127.729945 
L 193.09048 128.16798 
L 193.358201 128.253043 
L 193.886399 128.047079 
L 195.508277 127.042927 
L 200.691886 123.659802 
L 202.616946 122.606149 
L 204.304348 121.859476 
L 205.720565 121.432014 
L 206.853424 121.313898 
L 207.701377 121.485502 
L 208.267763 121.923707 
L 208.557859 122.604925 
L 208.577443 123.506435 
L 208.332193 124.60684 
L 207.827569 125.886071 
L 207.068994 127.325145 
L 205.467984 129.743501 
L 203.334153 132.418632 
L 200.706623 135.284218 
L 197.651366 138.262256 
L 194.280276 141.254035 
L 189.621457 145.03701 
L 181.61097 151.254142 
L 181.64355 151.479537 
L 182.130176 151.484669 
L 184.115389 151.075599 
L 188.998623 150.056709 
L 191.77293 149.68727 
L 194.257454 149.561784 
L 196.385373 149.674073 
L 198.152117 149.994056 
L 199.582933 150.484654 
L 200.715883 151.109563 
L 201.593179 151.836481 
L 202.256789 152.63821 
L 202.845518 153.712544 
L 203.287804 155.066282 
L 203.558686 156.689753 
L 203.674893 158.801219 
L 203.59275 161.149479 
L 203.314573 163.009016 
L 202.892129 164.36693 
L 202.326717 165.447589 
L 201.686977 166.257019 
L 200.838651 166.994668 
L 199.739992 167.633994 
L 198.348635 168.143304 
L 196.625644 168.486675 
L 194.543465 168.626828 
L 192.10157 168.532128 
L 189.356467 168.192006 
L 185.769801 167.493623 
L 181.725554 166.690923 
L 181.572928 166.855972 
L 181.91822 167.280225 
L 183.397942 168.47108 
L 191.358364 174.524263 
L 195.995867 178.426449 
L 199.226811 181.425376 
L 202.078798 184.358003 
L 204.465676 187.13719 
L 206.336878 189.691795 
L 207.661516 191.958548 
L 208.230144 193.279485 
L 208.540742 194.42643 
L 208.58789 195.379615 
L 208.365965 196.117988 
L 207.869182 196.619138 
L 207.092045 196.859612 
L 206.030529 196.815978 
L 204.68456 196.467309 
L 203.062894 195.800446 
L 201.192322 194.820455 
L 198.07016 192.875984 
L 194.231613 190.333174 
L 193.59295 190.008019 
L 193.18873 189.939032 
L 193.068467 190.19381 
L 193.266936 190.825851 
L 194.643212 193.308201 
L 205.288005 210.614778 
L 208.44997 216.273759 
L 211.308088 221.78694 
L 213.815987 227.068958 
L 215.965464 232.082097 
L 217.76685 236.813536 
L 219.238483 241.262594 
L 220.40139 245.433926 
L 221.276719 249.334 
L 221.8846 252.969335 
L 222.243708 256.34566 
L 222.371182 259.467544 
L 222.282693 262.338271 
L 221.992588 264.959835 
L 221.514047 267.332971 
L 220.85924 269.457219 
L 220.039473 271.33097 
L 219.065313 272.951507 
L 217.946702 274.315025 
L 216.693055 275.416626 
L 215.313341 276.250299 
L 213.816158 276.808865 
L 212.209796 277.083892 
L 210.502287 277.065586 
L 208.701458 276.742629 
L 206.814969 276.101984 
L 204.850356 275.128636 
L 202.815064 273.805276 
L 200.716491 272.111904 
L 198.562026 270.025348 
L 196.359107 267.518703 
L 194.1153 264.560681 
L 191.838424 261.114968 
L 189.536763 257.139732 
L 187.219451 252.587746 
L 184.897186 247.408156 
L 182.583621 241.55235 
L 180.298102 234.989645 
L 178.071045 227.74547 
L 175.953968 219.987424 
L 173.189558 208.570081 
L 171.321559 200.918336 
L 170.944497 199.947145 
L 170.670916 199.821328 
L 170.472554 200.421137 
L 170.180928 203.059018 
L 169.696189 208.109394 
L 169.243201 211.039096 
L 168.685099 213.240112 
L 168.046422 214.61946 
L 167.706361 214.994557 
L 167.357747 215.160778 
L 167.004518 215.119713 
L 166.650569 214.873098 
L 166.29975 214.422527 
L 166.29975 214.422527 
" clip-path="url(#pb2faf24fde)" style="fill: none; stroke: #1f77b4; stroke-width: 1.5; stroke-linecap: square"/>
   </g>
   <g id="patch_3">
    <path d="M 166.29975 26.039062 
C 148.826996 26.039062 131.524143 29.480814 115.381423 36.167347 
C 99.238704 42.853881 84.570053 52.65516 72.21495 65.010263 
C 59.859847 77.365365 50.058568 92.034016 43.372035 108.176736 
C 36.685502 124.319455 33.24375 141.622309 33.24375 159.095062 
C 33.24375 176.567816 36.685502 193.87067 43.372035 210.013389 
C 50.058568 226.156109 59.859847 240.82476 72.21495 253.179862 
C 84.570053 265.534965 99.238704 275.336244 115.381423 282.022778 
C 131.524143 288.709311 148.826996 292.151062 166.29975 292.151062 
C 183.772504 292.151062 201.075357 288.709311 217.218077 282.022778 
C 233.360796 275.336244 248.029447 265.534965 260.38455 253.179862 
C 272.739653 240.82476 282.540932 226.156109 289.227465 210.013389 
C 295.913998 193.87067 299.35575 176.567816 299.35575 159.095062 
C 299.35575 141.622309 295.913998 124.319455 289.227465 108.176736 
C 282.540932 92.034016 272.739653 77.365365 260.38455 65.010263 
C 248.029447 52.65516 233.360796 42.853881 217.218077 36.167347 
C 201.075357 29.480814 183.772504 26.039062 166.29975 26.039062 
" style="fill: none; stroke: #000000; stroke-width: 0.8; stroke-linejoin: miter; stroke-linecap: square"/>
   </g>
  </g>
 </g>
 <defs>
  <clipPath id="pb2faf24fde">
   <path d="M 299.35575 159.095062 
C 299.35575 141.622309 295.913998 124.319455 289.227465 108.176736 
C 282.540932 92.034016 272.739653 77.365365 260.38455 65.010263 
C 248.029447 52.65516 233.360796 42.853881 217.218077 36.167347 
C 201.075357 29.480814 183.772504 26.039062 166.29975 26.039062 
C 148.826996 26.039062 131.524143 29.480814 115.381423 36.167347 
C 99.238704 42.853881 84.570053 52.65516 72.21495 65.010263 
C 59.859847 77.365365 50.058568 92.034016 43.372035 108.176736 
C 36.685502 124.319455 33.24375 141.622309 33.24375 159.095062 
C 33.24375 176.567816 36.685502 193.87067 43.372035 210.013389 
C 50.058568 226.156109 59.859847 240.82476 72.21495 253.179862 
C 84.570053 265.534965 99.238704 275.336244 115.381423 282.022778 
C 131.524143 288.709311 148.826996 292.151062 166.29975 292.151062 
C 183.772504 292.151062 201.075357 288.709311 217.218077 282.022778 
C 233.360796 275.336244 248.029447 265.534965 260.38455 253.179862 
C 272.739653 240.82476 282.540932 226.156109 289.227465 210.013389 
C 295.913998 193.87067 299.35575 176.567816 299.35575 159.095062 
M 166.29975 159.095062 
C 166.29975 159.095062 166.29975 159.095062 166.29975 159.095062 
C 166.29975 159.095062 166.29975 159.095062 166.29975 159.095062 
C 166.29975 159.095062 166.29975 159.095062 166.29975 159.095062 
C 166.29975 159.095062 166.29975 159.095062 166.29975 159.095062 
C 166.29975 159.095062 166.29975 159.095062 166.29975 159.095062 
C 166.29975 159.095062 166.29975 159.095062 166.29975 159.095062 
C 166.29975 159.095062 166.29975 159.095062 166.29975 159.095062 
C 166.29975 159.095062 166.29975 159.095062 166.29975 159.095062 
C 166.29975 159.095062 166.29975 159.095062 166.29975 159.095062 
C 166.29975 159.095062 166.29975 159.095062 166.29975 159.095062 
C 166.29975 159.095062 166.29975 159.095062 166.29975 159.095062 
C 166.29975 159.095062 166.29975 159.095062 166.29975 159.095062 
C 166.29975 159.095062 166.29975 159.095062 166.29975 159.095062 
C 166.29975 159.095062 166.29975 159.095062 166.29975 159.095062 
C 166.29975 159.095062 166.29975 159.095062 166.29975 159.095062 
C 166.29975 159.095062 166.29975 159.095062 166.29975 159.095062 
M 299.35575 159.095062 
z
"/>
  </clipPath>
 </defs>
</svg>
