<?xml version="1.0" encoding="utf-8" standalone="no"?>
<!DOCTYPE svg PUBLIC "-//W3C//DTD SVG 1.1//EN"
  "http://www.w3.org/Graphics/SVG/1.1/DTD/svg11.dtd">
<svg xmlns:xlink="http://www.w3.org/1999/xlink" width="449.960938pt" height="211.07625pt" viewBox="0 0 449.960938 211.07625" xmlns="http://www.w3.org/2000/svg" version="1.1">
 <metadata>
  <rdf:RDF xmlns:dc="http://purl.org/dc/elements/1.1/" xmlns:cc="http://creativecommons.org/ns#" xmlns:rdf="http://www.w3.org/1999/02/22-rdf-syntax-ns#">
   <cc:Work>
    <dc:type rdf:resource="http://purl.org/dc/dcmitype/StillImage"/>
    <dc:date>2023-04-03T01:02:16.758827</dc:date>
    <dc:format>image/svg+xml</dc:format>
    <dc:creator>
     <cc:Agent>
      <dc:title>Matplotlib v3.5.1, https://matplotlib.org/</dc:title>
     </cc:Agent>
    </dc:creator>
   </cc:Work>
  </rdf:RDF>
 </metadata>
 <defs>
  <style type="text/css">*{stroke-linejoin: round; stroke-linecap: butt}</style>
 </defs>
 <g id="figure_1">
  <g id="patch_1">
   <path d="M 0 211.07625 
L 449.960938 211.07625 
L 449.960938 0 
L 0 0 
z
" style="fill: #ffffff"/>
  </g>
  <g id="axes_1">
   <g id="patch_2">
    <path d="M 52.160938 173.52 
L 442.760938 173.52 
L 442.760938 7.2 
L 52.160938 7.2 
z
" style="fill: #ffffff"/>
   </g>
   <g id="matplotlib.axis_1">
    <g id="xtick_1">
     <g id="line2d_1">
      <path d="M 69.915483 173.52 
L 69.915483 7.2 
" clip-path="url(#pd6fa1f1bb3)" style="fill: none; stroke: #b0b0b0; stroke-width: 0.8; stroke-linecap: square"/>
     </g>
     <g id="line2d_2">
      <defs>
       <path id="mf194209978" d="M 0 0 
L 0 3.5 
" style="stroke: #000000; stroke-width: 0.8"/>
      </defs>
      <g>
       <use xlink:href="#mf194209978" x="69.915483" y="173.52" style="stroke: #000000; stroke-width: 0.8"/>
      </g>
     </g>
     <g id="text_1">
      <!-- 0 -->
      <g transform="translate(66.734233 188.118438)scale(0.1 -0.1)">
       <defs>
        <path id="DejaVuSans-30" d="M 2034 4250 
Q 1547 4250 1301 3770 
Q 1056 3291 1056 2328 
Q 1056 1369 1301 889 
Q 1547 409 2034 409 
Q 2525 409 2770 889 
Q 3016 1369 3016 2328 
Q 3016 3291 2770 3770 
Q 2525 4250 2034 4250 
z
M 2034 4750 
Q 2819 4750 3233 4129 
Q 3647 3509 3647 2328 
Q 3647 1150 3233 529 
Q 2819 -91 2034 -91 
Q 1250 -91 836 529 
Q 422 1150 422 2328 
Q 422 3509 836 4129 
Q 1250 4750 2034 4750 
z
" transform="scale(0.015625)"/>
       </defs>
       <use xlink:href="#DejaVuSans-30"/>
      </g>
     </g>
    </g>
    <g id="xtick_2">
     <g id="line2d_3">
      <path d="M 114.524894 173.52 
L 114.524894 7.2 
" clip-path="url(#pd6fa1f1bb3)" style="fill: none; stroke: #b0b0b0; stroke-width: 0.8; stroke-linecap: square"/>
     </g>
     <g id="line2d_4">
      <g>
       <use xlink:href="#mf194209978" x="114.524894" y="173.52" style="stroke: #000000; stroke-width: 0.8"/>
      </g>
     </g>
     <g id="text_2">
      <!-- 25 -->
      <g transform="translate(108.162394 188.118438)scale(0.1 -0.1)">
       <defs>
        <path id="DejaVuSans-32" d="M 1228 531 
L 3431 531 
L 3431 0 
L 469 0 
L 469 531 
Q 828 903 1448 1529 
Q 2069 2156 2228 2338 
Q 2531 2678 2651 2914 
Q 2772 3150 2772 3378 
Q 2772 3750 2511 3984 
Q 2250 4219 1831 4219 
Q 1534 4219 1204 4116 
Q 875 4013 500 3803 
L 500 4441 
Q 881 4594 1212 4672 
Q 1544 4750 1819 4750 
Q 2544 4750 2975 4387 
Q 3406 4025 3406 3419 
Q 3406 3131 3298 2873 
Q 3191 2616 2906 2266 
Q 2828 2175 2409 1742 
Q 1991 1309 1228 531 
z
" transform="scale(0.015625)"/>
        <path id="DejaVuSans-35" d="M 691 4666 
L 3169 4666 
L 3169 4134 
L 1269 4134 
L 1269 2991 
Q 1406 3038 1543 3061 
Q 1681 3084 1819 3084 
Q 2600 3084 3056 2656 
Q 3513 2228 3513 1497 
Q 3513 744 3044 326 
Q 2575 -91 1722 -91 
Q 1428 -91 1123 -41 
Q 819 9 494 109 
L 494 744 
Q 775 591 1075 516 
Q 1375 441 1709 441 
Q 2250 441 2565 725 
Q 2881 1009 2881 1497 
Q 2881 1984 2565 2268 
Q 2250 2553 1709 2553 
Q 1456 2553 1204 2497 
Q 953 2441 691 2322 
L 691 4666 
z
" transform="scale(0.015625)"/>
       </defs>
       <use xlink:href="#DejaVuSans-32"/>
       <use xlink:href="#DejaVuSans-35" x="63.623047"/>
      </g>
     </g>
    </g>
    <g id="xtick_3">
     <g id="line2d_5">
      <path d="M 159.134304 173.52 
L 159.134304 7.2 
" clip-path="url(#pd6fa1f1bb3)" style="fill: none; stroke: #b0b0b0; stroke-width: 0.8; stroke-linecap: square"/>
     </g>
     <g id="line2d_6">
      <g>
       <use xlink:href="#mf194209978" x="159.134304" y="173.52" style="stroke: #000000; stroke-width: 0.8"/>
      </g>
     </g>
     <g id="text_3">
      <!-- 50 -->
      <g transform="translate(152.771804 188.118438)scale(0.1 -0.1)">
       <use xlink:href="#DejaVuSans-35"/>
       <use xlink:href="#DejaVuSans-30" x="63.623047"/>
      </g>
     </g>
    </g>
    <g id="xtick_4">
     <g id="line2d_7">
      <path d="M 203.743715 173.52 
L 203.743715 7.2 
" clip-path="url(#pd6fa1f1bb3)" style="fill: none; stroke: #b0b0b0; stroke-width: 0.8; stroke-linecap: square"/>
     </g>
     <g id="line2d_8">
      <g>
       <use xlink:href="#mf194209978" x="203.743715" y="173.52" style="stroke: #000000; stroke-width: 0.8"/>
      </g>
     </g>
     <g id="text_4">
      <!-- 75 -->
      <g transform="translate(197.381215 188.118438)scale(0.1 -0.1)">
       <defs>
        <path id="DejaVuSans-37" d="M 525 4666 
L 3525 4666 
L 3525 4397 
L 1831 0 
L 1172 0 
L 2766 4134 
L 525 4134 
L 525 4666 
z
" transform="scale(0.015625)"/>
       </defs>
       <use xlink:href="#DejaVuSans-37"/>
       <use xlink:href="#DejaVuSans-35" x="63.623047"/>
      </g>
     </g>
    </g>
    <g id="xtick_5">
     <g id="line2d_9">
      <path d="M 248.353126 173.52 
L 248.353126 7.2 
" clip-path="url(#pd6fa1f1bb3)" style="fill: none; stroke: #b0b0b0; stroke-width: 0.8; stroke-linecap: square"/>
     </g>
     <g id="line2d_10">
      <g>
       <use xlink:href="#mf194209978" x="248.353126" y="173.52" style="stroke: #000000; stroke-width: 0.8"/>
      </g>
     </g>
     <g id="text_5">
      <!-- 100 -->
      <g transform="translate(238.809376 188.118438)scale(0.1 -0.1)">
       <defs>
        <path id="DejaVuSans-31" d="M 794 531 
L 1825 531 
L 1825 4091 
L 703 3866 
L 703 4441 
L 1819 4666 
L 2450 4666 
L 2450 531 
L 3481 531 
L 3481 0 
L 794 0 
L 794 531 
z
" transform="scale(0.015625)"/>
       </defs>
       <use xlink:href="#DejaVuSans-31"/>
       <use xlink:href="#DejaVuSans-30" x="63.623047"/>
       <use xlink:href="#DejaVuSans-30" x="127.246094"/>
      </g>
     </g>
    </g>
    <g id="xtick_6">
     <g id="line2d_11">
      <path d="M 292.962536 173.52 
L 292.962536 7.2 
" clip-path="url(#pd6fa1f1bb3)" style="fill: none; stroke: #b0b0b0; stroke-width: 0.8; stroke-linecap: square"/>
     </g>
     <g id="line2d_12">
      <g>
       <use xlink:href="#mf194209978" x="292.962536" y="173.52" style="stroke: #000000; stroke-width: 0.8"/>
      </g>
     </g>
     <g id="text_6">
      <!-- 125 -->
      <g transform="translate(283.418786 188.118438)scale(0.1 -0.1)">
       <use xlink:href="#DejaVuSans-31"/>
       <use xlink:href="#DejaVuSans-32" x="63.623047"/>
       <use xlink:href="#DejaVuSans-35" x="127.246094"/>
      </g>
     </g>
    </g>
    <g id="xtick_7">
     <g id="line2d_13">
      <path d="M 337.571947 173.52 
L 337.571947 7.2 
" clip-path="url(#pd6fa1f1bb3)" style="fill: none; stroke: #b0b0b0; stroke-width: 0.8; stroke-linecap: square"/>
     </g>
     <g id="line2d_14">
      <g>
       <use xlink:href="#mf194209978" x="337.571947" y="173.52" style="stroke: #000000; stroke-width: 0.8"/>
      </g>
     </g>
     <g id="text_7">
      <!-- 150 -->
      <g transform="translate(328.028197 188.118438)scale(0.1 -0.1)">
       <use xlink:href="#DejaVuSans-31"/>
       <use xlink:href="#DejaVuSans-35" x="63.623047"/>
       <use xlink:href="#DejaVuSans-30" x="127.246094"/>
      </g>
     </g>
    </g>
    <g id="xtick_8">
     <g id="line2d_15">
      <path d="M 382.181358 173.52 
L 382.181358 7.2 
" clip-path="url(#pd6fa1f1bb3)" style="fill: none; stroke: #b0b0b0; stroke-width: 0.8; stroke-linecap: square"/>
     </g>
     <g id="line2d_16">
      <g>
       <use xlink:href="#mf194209978" x="382.181358" y="173.52" style="stroke: #000000; stroke-width: 0.8"/>
      </g>
     </g>
     <g id="text_8">
      <!-- 175 -->
      <g transform="translate(372.637608 188.118438)scale(0.1 -0.1)">
       <use xlink:href="#DejaVuSans-31"/>
       <use xlink:href="#DejaVuSans-37" x="63.623047"/>
       <use xlink:href="#DejaVuSans-35" x="127.246094"/>
      </g>
     </g>
    </g>
    <g id="xtick_9">
     <g id="line2d_17">
      <path d="M 426.790768 173.52 
L 426.790768 7.2 
" clip-path="url(#pd6fa1f1bb3)" style="fill: none; stroke: #b0b0b0; stroke-width: 0.8; stroke-linecap: square"/>
     </g>
     <g id="line2d_18">
      <g>
       <use xlink:href="#mf194209978" x="426.790768" y="173.52" style="stroke: #000000; stroke-width: 0.8"/>
      </g>
     </g>
     <g id="text_9">
      <!-- 200 -->
      <g transform="translate(417.247018 188.118438)scale(0.1 -0.1)">
       <use xlink:href="#DejaVuSans-32"/>
       <use xlink:href="#DejaVuSans-30" x="63.623047"/>
       <use xlink:href="#DejaVuSans-30" x="127.246094"/>
      </g>
     </g>
    </g>
    <g id="text_10">
     <!-- Time -->
     <g transform="translate(235.227344 201.796563)scale(0.1 -0.1)">
      <defs>
       <path id="DejaVuSans-54" d="M -19 4666 
L 3928 4666 
L 3928 4134 
L 2272 4134 
L 2272 0 
L 1638 0 
L 1638 4134 
L -19 4134 
L -19 4666 
z
" transform="scale(0.015625)"/>
       <path id="DejaVuSans-69" d="M 603 3500 
L 1178 3500 
L 1178 0 
L 603 0 
L 603 3500 
z
M 603 4863 
L 1178 4863 
L 1178 4134 
L 603 4134 
L 603 4863 
z
" transform="scale(0.015625)"/>
       <path id="DejaVuSans-6d" d="M 3328 2828 
Q 3544 3216 3844 3400 
Q 4144 3584 4550 3584 
Q 5097 3584 5394 3201 
Q 5691 2819 5691 2113 
L 5691 0 
L 5113 0 
L 5113 2094 
Q 5113 2597 4934 2840 
Q 4756 3084 4391 3084 
Q 3944 3084 3684 2787 
Q 3425 2491 3425 1978 
L 3425 0 
L 2847 0 
L 2847 2094 
Q 2847 2600 2669 2842 
Q 2491 3084 2119 3084 
Q 1678 3084 1418 2786 
Q 1159 2488 1159 1978 
L 1159 0 
L 581 0 
L 581 3500 
L 1159 3500 
L 1159 2956 
Q 1356 3278 1631 3431 
Q 1906 3584 2284 3584 
Q 2666 3584 2933 3390 
Q 3200 3197 3328 2828 
z
" transform="scale(0.015625)"/>
       <path id="DejaVuSans-65" d="M 3597 1894 
L 3597 1613 
L 953 1613 
Q 991 1019 1311 708 
Q 1631 397 2203 397 
Q 2534 397 2845 478 
Q 3156 559 3463 722 
L 3463 178 
Q 3153 47 2828 -22 
Q 2503 -91 2169 -91 
Q 1331 -91 842 396 
Q 353 884 353 1716 
Q 353 2575 817 3079 
Q 1281 3584 2069 3584 
Q 2775 3584 3186 3129 
Q 3597 2675 3597 1894 
z
M 3022 2063 
Q 3016 2534 2758 2815 
Q 2500 3097 2075 3097 
Q 1594 3097 1305 2825 
Q 1016 2553 972 2059 
L 3022 2063 
z
" transform="scale(0.015625)"/>
      </defs>
      <use xlink:href="#DejaVuSans-54"/>
      <use xlink:href="#DejaVuSans-69" x="57.958984"/>
      <use xlink:href="#DejaVuSans-6d" x="85.742188"/>
      <use xlink:href="#DejaVuSans-65" x="183.154297"/>
     </g>
    </g>
   </g>
   <g id="matplotlib.axis_2">
    <g id="ytick_1">
     <g id="line2d_19">
      <path d="M 52.160938 153.160939 
L 442.760938 153.160939 
" clip-path="url(#pd6fa1f1bb3)" style="fill: none; stroke: #b0b0b0; stroke-width: 0.8; stroke-linecap: square"/>
     </g>
     <g id="line2d_20">
      <defs>
       <path id="m66e99c48bb" d="M 0 0 
L -3.5 0 
" style="stroke: #000000; stroke-width: 0.8"/>
      </defs>
      <g>
       <use xlink:href="#m66e99c48bb" x="52.160938" y="153.160939" style="stroke: #000000; stroke-width: 0.8"/>
      </g>
     </g>
     <g id="text_11">
      <!-- −1.0 -->
      <g transform="translate(20.878125 156.960157)scale(0.1 -0.1)">
       <defs>
        <path id="DejaVuSans-2212" d="M 678 2272 
L 4684 2272 
L 4684 1741 
L 678 1741 
L 678 2272 
z
" transform="scale(0.015625)"/>
        <path id="DejaVuSans-2e" d="M 684 794 
L 1344 794 
L 1344 0 
L 684 0 
L 684 794 
z
" transform="scale(0.015625)"/>
       </defs>
       <use xlink:href="#DejaVuSans-2212"/>
       <use xlink:href="#DejaVuSans-31" x="83.789062"/>
       <use xlink:href="#DejaVuSans-2e" x="147.412109"/>
       <use xlink:href="#DejaVuSans-30" x="179.199219"/>
      </g>
     </g>
    </g>
    <g id="ytick_2">
     <g id="line2d_21">
      <path d="M 52.160938 121.884681 
L 442.760938 121.884681 
" clip-path="url(#pd6fa1f1bb3)" style="fill: none; stroke: #b0b0b0; stroke-width: 0.8; stroke-linecap: square"/>
     </g>
     <g id="line2d_22">
      <g>
       <use xlink:href="#m66e99c48bb" x="52.160938" y="121.884681" style="stroke: #000000; stroke-width: 0.8"/>
      </g>
     </g>
     <g id="text_12">
      <!-- −0.5 -->
      <g transform="translate(20.878125 125.6839)scale(0.1 -0.1)">
       <use xlink:href="#DejaVuSans-2212"/>
       <use xlink:href="#DejaVuSans-30" x="83.789062"/>
       <use xlink:href="#DejaVuSans-2e" x="147.412109"/>
       <use xlink:href="#DejaVuSans-35" x="179.199219"/>
      </g>
     </g>
    </g>
    <g id="ytick_3">
     <g id="line2d_23">
      <path d="M 52.160938 90.608424 
L 442.760938 90.608424 
" clip-path="url(#pd6fa1f1bb3)" style="fill: none; stroke: #b0b0b0; stroke-width: 0.8; stroke-linecap: square"/>
     </g>
     <g id="line2d_24">
      <g>
       <use xlink:href="#m66e99c48bb" x="52.160938" y="90.608424" style="stroke: #000000; stroke-width: 0.8"/>
      </g>
     </g>
     <g id="text_13">
      <!-- 0.0 -->
      <g transform="translate(29.257813 94.407643)scale(0.1 -0.1)">
       <use xlink:href="#DejaVuSans-30"/>
       <use xlink:href="#DejaVuSans-2e" x="63.623047"/>
       <use xlink:href="#DejaVuSans-30" x="95.410156"/>
      </g>
     </g>
    </g>
    <g id="ytick_4">
     <g id="line2d_25">
      <path d="M 52.160938 59.332167 
L 442.760938 59.332167 
" clip-path="url(#pd6fa1f1bb3)" style="fill: none; stroke: #b0b0b0; stroke-width: 0.8; stroke-linecap: square"/>
     </g>
     <g id="line2d_26">
      <g>
       <use xlink:href="#m66e99c48bb" x="52.160938" y="59.332167" style="stroke: #000000; stroke-width: 0.8"/>
      </g>
     </g>
     <g id="text_14">
      <!-- 0.5 -->
      <g transform="translate(29.257813 63.131386)scale(0.1 -0.1)">
       <use xlink:href="#DejaVuSans-30"/>
       <use xlink:href="#DejaVuSans-2e" x="63.623047"/>
       <use xlink:href="#DejaVuSans-35" x="95.410156"/>
      </g>
     </g>
    </g>
    <g id="ytick_5">
     <g id="line2d_27">
      <path d="M 52.160938 28.05591 
L 442.760938 28.05591 
" clip-path="url(#pd6fa1f1bb3)" style="fill: none; stroke: #b0b0b0; stroke-width: 0.8; stroke-linecap: square"/>
     </g>
     <g id="line2d_28">
      <g>
       <use xlink:href="#m66e99c48bb" x="52.160938" y="28.05591" style="stroke: #000000; stroke-width: 0.8"/>
      </g>
     </g>
     <g id="text_15">
      <!-- 1.0 -->
      <g transform="translate(29.257813 31.855128)scale(0.1 -0.1)">
       <use xlink:href="#DejaVuSans-31"/>
       <use xlink:href="#DejaVuSans-2e" x="63.623047"/>
       <use xlink:href="#DejaVuSans-30" x="95.410156"/>
      </g>
     </g>
    </g>
    <g id="text_16">
     <!-- Samples -->
     <g transform="translate(14.798438 111.713125)rotate(-90)scale(0.1 -0.1)">
      <defs>
       <path id="DejaVuSans-53" d="M 3425 4513 
L 3425 3897 
Q 3066 4069 2747 4153 
Q 2428 4238 2131 4238 
Q 1616 4238 1336 4038 
Q 1056 3838 1056 3469 
Q 1056 3159 1242 3001 
Q 1428 2844 1947 2747 
L 2328 2669 
Q 3034 2534 3370 2195 
Q 3706 1856 3706 1288 
Q 3706 609 3251 259 
Q 2797 -91 1919 -91 
Q 1588 -91 1214 -16 
Q 841 59 441 206 
L 441 856 
Q 825 641 1194 531 
Q 1563 422 1919 422 
Q 2459 422 2753 634 
Q 3047 847 3047 1241 
Q 3047 1584 2836 1778 
Q 2625 1972 2144 2069 
L 1759 2144 
Q 1053 2284 737 2584 
Q 422 2884 422 3419 
Q 422 4038 858 4394 
Q 1294 4750 2059 4750 
Q 2388 4750 2728 4690 
Q 3069 4631 3425 4513 
z
" transform="scale(0.015625)"/>
       <path id="DejaVuSans-61" d="M 2194 1759 
Q 1497 1759 1228 1600 
Q 959 1441 959 1056 
Q 959 750 1161 570 
Q 1363 391 1709 391 
Q 2188 391 2477 730 
Q 2766 1069 2766 1631 
L 2766 1759 
L 2194 1759 
z
M 3341 1997 
L 3341 0 
L 2766 0 
L 2766 531 
Q 2569 213 2275 61 
Q 1981 -91 1556 -91 
Q 1019 -91 701 211 
Q 384 513 384 1019 
Q 384 1609 779 1909 
Q 1175 2209 1959 2209 
L 2766 2209 
L 2766 2266 
Q 2766 2663 2505 2880 
Q 2244 3097 1772 3097 
Q 1472 3097 1187 3025 
Q 903 2953 641 2809 
L 641 3341 
Q 956 3463 1253 3523 
Q 1550 3584 1831 3584 
Q 2591 3584 2966 3190 
Q 3341 2797 3341 1997 
z
" transform="scale(0.015625)"/>
       <path id="DejaVuSans-70" d="M 1159 525 
L 1159 -1331 
L 581 -1331 
L 581 3500 
L 1159 3500 
L 1159 2969 
Q 1341 3281 1617 3432 
Q 1894 3584 2278 3584 
Q 2916 3584 3314 3078 
Q 3713 2572 3713 1747 
Q 3713 922 3314 415 
Q 2916 -91 2278 -91 
Q 1894 -91 1617 61 
Q 1341 213 1159 525 
z
M 3116 1747 
Q 3116 2381 2855 2742 
Q 2594 3103 2138 3103 
Q 1681 3103 1420 2742 
Q 1159 2381 1159 1747 
Q 1159 1113 1420 752 
Q 1681 391 2138 391 
Q 2594 391 2855 752 
Q 3116 1113 3116 1747 
z
" transform="scale(0.015625)"/>
       <path id="DejaVuSans-6c" d="M 603 4863 
L 1178 4863 
L 1178 0 
L 603 0 
L 603 4863 
z
" transform="scale(0.015625)"/>
       <path id="DejaVuSans-73" d="M 2834 3397 
L 2834 2853 
Q 2591 2978 2328 3040 
Q 2066 3103 1784 3103 
Q 1356 3103 1142 2972 
Q 928 2841 928 2578 
Q 928 2378 1081 2264 
Q 1234 2150 1697 2047 
L 1894 2003 
Q 2506 1872 2764 1633 
Q 3022 1394 3022 966 
Q 3022 478 2636 193 
Q 2250 -91 1575 -91 
Q 1294 -91 989 -36 
Q 684 19 347 128 
L 347 722 
Q 666 556 975 473 
Q 1284 391 1588 391 
Q 1994 391 2212 530 
Q 2431 669 2431 922 
Q 2431 1156 2273 1281 
Q 2116 1406 1581 1522 
L 1381 1569 
Q 847 1681 609 1914 
Q 372 2147 372 2553 
Q 372 3047 722 3315 
Q 1072 3584 1716 3584 
Q 2034 3584 2315 3537 
Q 2597 3491 2834 3397 
z
" transform="scale(0.015625)"/>
      </defs>
      <use xlink:href="#DejaVuSans-53"/>
      <use xlink:href="#DejaVuSans-61" x="63.476562"/>
      <use xlink:href="#DejaVuSans-6d" x="124.755859"/>
      <use xlink:href="#DejaVuSans-70" x="222.167969"/>
      <use xlink:href="#DejaVuSans-6c" x="285.644531"/>
      <use xlink:href="#DejaVuSans-65" x="313.427734"/>
      <use xlink:href="#DejaVuSans-73" x="374.951172"/>
     </g>
    </g>
   </g>
   <g id="line2d_29">
    <path d="M 69.915483 29.117866 
L 71.699859 32.355968 
L 73.484236 22.05129 
L 75.268612 34.047849 
L 77.052989 27.523435 
L 78.837365 36.422505 
L 80.621742 55.375719 
L 82.406118 47.222366 
L 84.190494 70.300799 
L 85.974871 66.265169 
L 87.759247 73.843448 
L 89.543624 74.291109 
L 91.328 82.844773 
L 93.112377 95.458747 
L 94.896753 103.188646 
L 96.681129 114.85899 
L 98.465506 128.330973 
L 100.249882 122.382621 
L 102.034259 125.813367 
L 103.818635 137.415384 
L 105.603012 143.365501 
L 107.387388 141.899709 
L 109.171764 137.41371 
L 110.956141 144.576824 
L 112.740517 154.1044 
L 114.524894 155.323182 
L 116.30927 156.715665 
L 118.093646 139.102059 
L 119.878023 141.759411 
L 121.662399 140.254203 
L 123.446776 131.382769 
L 125.231152 123.606775 
L 127.015529 135.889408 
L 128.799905 117.966431 
L 130.584281 113.877318 
L 132.368658 100.109368 
L 134.153034 96.919296 
L 135.937411 85.849751 
L 137.721787 80.598203 
L 139.506164 82.891158 
L 141.29054 79.228102 
L 143.074916 66.473977 
L 146.643669 46.70179 
L 148.428046 51.742704 
L 150.212422 30.628607 
L 151.996799 27.820441 
L 153.781175 37.832073 
L 155.565551 20.773775 
L 157.349928 31.425329 
L 159.134304 33.742304 
L 160.918681 24.256523 
L 162.703057 29.496691 
L 164.487434 25.834102 
L 166.27181 29.271383 
L 168.056186 40.589384 
L 169.840563 34.246963 
L 171.624939 57.239712 
L 173.409316 50.808326 
L 175.193692 68.662563 
L 176.978069 75.10931 
L 178.762445 79.875366 
L 180.546821 92.871133 
L 182.331198 95.551507 
L 184.115574 101.099232 
L 185.899951 101.75375 
L 187.684327 115.901014 
L 189.468704 127.266611 
L 191.25308 142.02194 
L 193.037456 151.50124 
L 194.821833 137.253007 
L 196.606209 138.834275 
L 198.390586 147.25499 
L 200.174962 156.573942 
L 201.959339 159.030753 
L 203.743715 156.98838 
L 205.528091 147.304638 
L 207.312468 149.047292 
L 209.096844 144.050648 
L 210.881221 148.242126 
L 212.665597 138.230324 
L 214.449974 138.118993 
L 216.23435 139.87706 
L 218.018726 116.543973 
L 219.803103 116.955706 
L 221.587479 105.107965 
L 223.371856 112.398869 
L 225.156232 96.803128 
L 226.940609 85.011537 
L 228.724985 83.338769 
L 230.509361 76.557067 
L 232.293738 80.20913 
L 234.078114 60.716394 
L 235.862491 53.622246 
L 237.646867 45.253024 
L 239.431244 38.943481 
L 241.21562 30.826656 
L 242.999996 30.512804 
L 244.784373 25.675509 
L 246.568749 38.272641 
L 248.353126 39.668649 
L 250.137502 14.76 
L 251.921879 26.876284 
L 253.706255 37.119953 
L 255.490631 35.646291 
L 257.275008 39.259525 
L 259.059384 39.238967 
L 260.843761 59.177635 
L 262.628137 61.725934 
L 264.412514 67.720739 
L 266.19689 61.503949 
L 267.981266 74.629881 
L 269.765643 93.347311 
L 271.550019 91.450843 
L 273.334396 110.945526 
L 275.118772 100.143382 
L 276.903149 114.441978 
L 278.687525 130.274585 
L 280.471901 128.217137 
L 282.256278 134.193009 
L 284.040654 141.091883 
L 285.825031 150.583003 
L 287.609407 149.352407 
L 289.393784 146.849165 
L 291.17816 145.038324 
L 292.962536 163.602544 
L 294.746913 145.23082 
L 296.531289 156.287982 
L 298.315666 146.509607 
L 300.100042 153.687023 
L 301.884419 154.843693 
L 303.668795 136.777931 
L 305.453171 145.534785 
L 307.237548 125.180362 
L 309.021924 110.786312 
L 310.806301 105.392471 
L 312.590677 109.88871 
L 314.375054 83.944119 
L 316.15943 89.990135 
L 317.943806 82.827589 
L 319.728183 70.00647 
L 321.512559 76.280128 
L 323.296936 59.231488 
L 325.081312 56.809093 
L 326.865689 41.093803 
L 328.650065 37.463538 
L 330.434441 41.115913 
L 332.218818 29.72504 
L 334.003194 31.38095 
L 335.787571 25.178456 
L 337.571947 25.614935 
L 339.356324 33.693734 
L 341.1407 37.731613 
L 342.925076 25.316349 
L 344.709453 41.150436 
L 346.493829 44.349037 
L 348.278206 31.610205 
L 350.062582 53.912541 
L 351.846959 58.621949 
L 353.631335 56.425486 
L 355.415711 74.831557 
L 357.200088 88.781873 
L 358.984464 87.533029 
L 360.768841 90.241846 
L 362.553217 97.362966 
L 364.337594 111.102702 
L 366.12197 102.500977 
L 367.906346 130.310189 
L 369.690723 124.252083 
L 371.475099 142.492996 
L 373.259476 145.570982 
L 375.043852 142.015256 
L 376.828229 141.984502 
L 378.612605 158.422008 
L 380.396981 156.456315 
L 382.181358 145.271134 
L 383.965734 165.96 
L 385.750111 151.273307 
L 387.534487 152.418008 
L 389.318863 147.120413 
L 391.10324 143.791285 
L 392.887616 128.162547 
L 394.671993 131.712438 
L 396.456369 119.546362 
L 398.240746 115.194435 
L 400.025122 116.122692 
L 401.809498 104.431912 
L 403.593875 99.956758 
L 405.378251 87.646825 
L 407.162628 67.803767 
L 408.947004 73.027577 
L 410.731381 70.324037 
L 412.515757 67.369578 
L 414.300133 46.67784 
L 416.08451 45.018588 
L 417.868886 30.716492 
L 419.653263 40.179791 
L 421.437639 30.238126 
L 423.222016 40.456725 
L 425.006392 36.607411 
L 425.006392 36.607411 
" clip-path="url(#pd6fa1f1bb3)" style="fill: none; stroke: #1f77b4; stroke-width: 1.5; stroke-linecap: square"/>
   </g>
   <g id="line2d_30">
    <path d="M 69.915483 69.793168 
L 71.699859 59.084484 
L 73.484236 51.162395 
L 75.268612 46.69527 
L 77.052989 36.722316 
L 78.837365 37.663046 
L 80.621742 35.208011 
L 82.406118 20.100434 
L 84.190494 25.761866 
L 85.974871 22.179372 
L 87.759247 34.696611 
L 89.543624 33.027197 
L 93.112377 39.226134 
L 94.896753 39.021607 
L 96.681129 53.723978 
L 98.465506 49.255769 
L 100.249882 55.62494 
L 102.034259 67.206717 
L 103.818635 66.657765 
L 105.603012 82.778571 
L 107.387388 91.122467 
L 109.171764 110.977421 
L 110.956141 101.530659 
L 112.740517 112.58069 
L 114.524894 129.584741 
L 116.30927 125.095986 
L 118.093646 130.51055 
L 119.878023 134.819991 
L 121.662399 146.654815 
L 123.446776 147.317311 
L 125.231152 152.907499 
L 127.015529 138.947035 
L 128.799905 159.886789 
L 130.584281 150.065178 
L 132.368658 155.358093 
L 134.153034 141.765797 
L 135.937411 145.095755 
L 137.721787 135.61124 
L 139.506164 137.088952 
L 141.29054 120.366433 
L 143.074916 126.990328 
L 144.859293 129.834445 
L 146.643669 110.843925 
L 148.428046 103.954914 
L 150.212422 99.858864 
L 151.996799 76.587647 
L 153.781175 90.076181 
L 155.565551 75.898854 
L 157.349928 67.88766 
L 159.134304 67.037265 
L 160.918681 47.310636 
L 162.703057 43.124567 
L 164.487434 61.585739 
L 166.27181 25.807685 
L 168.056186 34.914851 
L 169.840563 21.079225 
L 171.624939 27.095167 
L 173.409316 35.079569 
L 175.193692 30.556959 
L 176.978069 32.700446 
L 178.762445 35.741122 
L 180.546821 29.615499 
L 182.331198 42.03886 
L 184.115574 39.139069 
L 185.899951 48.398395 
L 187.684327 55.974619 
L 189.468704 51.209705 
L 191.25308 60.20913 
L 193.037456 74.83073 
L 194.821833 80.291952 
L 196.606209 87.808229 
L 198.390586 93.167471 
L 200.174962 111.749061 
L 201.959339 116.682504 
L 203.743715 125.298162 
L 205.528091 126.805103 
L 207.312468 135.610032 
L 209.096844 138.690274 
L 210.881221 133.250308 
L 214.449974 150.751359 
L 216.23435 161.853399 
L 218.018726 160.055956 
L 219.803103 153.240395 
L 221.587479 160.730628 
L 223.371856 148.799535 
L 225.156232 146.62829 
L 226.940609 147.723625 
L 230.509361 133.575217 
L 232.293738 118.706285 
L 234.078114 120.358246 
L 237.646867 104.98182 
L 239.431244 98.700329 
L 242.999996 79.452555 
L 244.784373 78.095904 
L 246.568749 61.64635 
L 248.353126 62.066341 
L 250.137502 43.465993 
L 251.921879 53.610167 
L 253.706255 51.054553 
L 255.490631 38.564852 
L 257.275008 27.583446 
L 259.059384 33.378834 
L 260.843761 45.52806 
L 262.628137 30.205021 
L 264.412514 23.54885 
L 266.19689 38.166713 
L 267.981266 45.997088 
L 269.765643 36.874632 
L 271.550019 37.644926 
L 273.334396 49.640639 
L 275.118772 44.537531 
L 276.903149 45.491349 
L 278.687525 60.568512 
L 280.471901 71.401913 
L 282.256278 74.016159 
L 284.040654 76.976862 
L 285.825031 88.244142 
L 287.609407 108.841166 
L 289.393784 107.74776 
L 291.17816 113.340422 
L 292.962536 118.111977 
L 294.746913 127.978834 
L 296.531289 127.760132 
L 298.315666 127.245636 
L 300.100042 139.11953 
L 301.884419 149.14705 
L 303.668795 142.480304 
L 305.453171 161.815582 
L 307.237548 158.42923 
L 309.021924 153.839844 
L 310.806301 140.738159 
L 312.590677 156.583418 
L 314.375054 154.648475 
L 316.15943 147.605898 
L 317.943806 135.400222 
L 319.728183 138.863558 
L 321.512559 127.388906 
L 323.296936 125.986464 
L 325.081312 116.982286 
L 326.865689 102.127645 
L 328.650065 92.462133 
L 330.434441 97.979973 
L 332.218818 77.604413 
L 334.003194 72.036525 
L 335.787571 61.451379 
L 337.571947 66.921891 
L 339.356324 52.613544 
L 341.1407 50.017503 
L 342.925076 36.320701 
L 344.709453 42.70772 
L 346.493829 40.734366 
L 348.278206 29.199185 
L 350.062582 35.037117 
L 351.846959 30.153314 
L 353.631335 27.247858 
L 355.415711 31.089322 
L 357.200088 29.950801 
L 358.984464 29.782622 
L 360.768841 42.37206 
L 362.553217 47.891066 
L 364.337594 52.651003 
L 366.12197 53.628622 
L 367.906346 48.232811 
L 369.690723 67.822372 
L 371.475099 75.365696 
L 373.259476 74.793175 
L 375.043852 97.419163 
L 376.828229 106.831991 
L 378.612605 117.117925 
L 380.396981 111.466868 
L 382.181358 115.062182 
L 383.965734 117.16091 
L 385.750111 139.817915 
L 387.534487 147.779329 
L 389.318863 137.734431 
L 391.10324 154.053896 
L 392.887616 158.637662 
L 394.671993 155.951634 
L 396.456369 157.604542 
L 398.240746 147.812805 
L 400.025122 152.407412 
L 401.809498 148.370934 
L 403.593875 143.896798 
L 405.378251 144.81676 
L 407.162628 144.062269 
L 408.947004 129.964363 
L 410.731381 128.061525 
L 412.515757 129.223804 
L 414.300133 123.530146 
L 416.08451 108.852619 
L 417.868886 100.836251 
L 419.653263 84.4632 
L 421.437639 91.866116 
L 423.222016 72.411675 
L 425.006392 71.023952 
L 425.006392 71.023952 
" clip-path="url(#pd6fa1f1bb3)" style="fill: none; stroke: #ff7f0e; stroke-width: 1.5; stroke-linecap: square"/>
   </g>
   <g id="line2d_31">
    <path d="M 69.915483 126.548366 
L 71.699859 120.263269 
L 73.484236 102.917289 
L 75.268612 96.572139 
L 77.052989 93.656327 
L 78.837365 104.390564 
L 80.621742 81.217326 
L 82.406118 71.248396 
L 84.190494 70.71983 
L 85.974871 68.86042 
L 87.759247 52.456999 
L 89.543624 57.308149 
L 91.328 34.65186 
L 93.112377 30.46901 
L 94.896753 27.046878 
L 96.681129 35.118767 
L 98.465506 40.86135 
L 100.249882 24.522024 
L 102.034259 29.186013 
L 103.818635 41.784967 
L 105.603012 24.857133 
L 107.387388 47.606484 
L 109.171764 37.980896 
L 110.956141 47.034866 
L 112.740517 48.665993 
L 114.524894 61.915025 
L 116.30927 61.160418 
L 118.093646 67.393009 
L 119.878023 86.905136 
L 121.662399 89.993918 
L 123.446776 90.86995 
L 125.231152 99.01699 
L 127.015529 112.712301 
L 128.799905 121.050233 
L 130.584281 131.386141 
L 132.368658 129.844637 
L 134.153034 126.297432 
L 135.937411 141.278348 
L 137.721787 147.995385 
L 139.506164 153.894414 
L 141.29054 161.783312 
L 143.074916 155.309211 
L 144.859293 151.46971 
L 146.643669 153.8272 
L 148.428046 156.827489 
L 150.212422 139.541435 
L 151.996799 154.845805 
L 153.781175 138.241853 
L 155.565551 137.440923 
L 157.349928 141.837971 
L 159.134304 123.344849 
L 160.918681 127.268734 
L 162.703057 101.177144 
L 164.487434 97.333533 
L 166.27181 91.040017 
L 168.056186 90.130825 
L 169.840563 82.307305 
L 171.624939 61.166162 
L 173.409316 60.448325 
L 175.193692 55.681513 
L 176.978069 45.610393 
L 178.762445 39.720284 
L 180.546821 51.426808 
L 182.331198 33.564872 
L 184.115574 38.541533 
L 185.899951 18.257459 
L 187.684327 32.514168 
L 189.468704 27.99918 
L 191.25308 25.333324 
L 193.037456 27.463607 
L 194.821833 32.390663 
L 196.606209 34.483441 
L 198.390586 49.953878 
L 200.174962 44.118463 
L 201.959339 53.923706 
L 203.743715 55.682328 
L 205.528091 63.467267 
L 207.312468 73.713143 
L 209.096844 74.964939 
L 210.881221 93.158206 
L 212.665597 92.284054 
L 214.449974 98.285897 
L 216.23435 105.250889 
L 218.018726 123.439412 
L 219.803103 127.18136 
L 221.587479 130.318896 
L 223.371856 146.372897 
L 225.156232 134.020412 
L 226.940609 145.020353 
L 228.724985 146.389767 
L 230.509361 148.182293 
L 232.293738 141.365728 
L 234.078114 161.340411 
L 235.862491 153.933471 
L 237.646867 140.289118 
L 239.431244 145.36343 
L 241.21562 144.947169 
L 242.999996 134.878227 
L 244.784373 133.738487 
L 246.568749 135.298645 
L 248.353126 123.132111 
L 250.137502 107.670026 
L 251.921879 106.23202 
L 253.706255 104.288438 
L 255.490631 95.65364 
L 257.275008 96.161718 
L 259.059384 65.90087 
L 260.843761 74.308568 
L 264.412514 57.516875 
L 266.19689 54.228905 
L 267.981266 44.534549 
L 269.765643 53.558773 
L 271.550019 34.243058 
L 273.334396 29.951236 
L 275.118772 28.224504 
L 276.903149 32.315379 
L 278.687525 31.857624 
L 280.471901 24.154582 
L 282.256278 26.06485 
L 284.040654 33.601359 
L 285.825031 32.649293 
L 287.609407 39.342482 
L 289.393784 46.860679 
L 291.17816 53.570213 
L 292.962536 50.494779 
L 294.746913 60.592518 
L 296.531289 66.418515 
L 298.315666 82.812563 
L 300.100042 89.496283 
L 301.884419 86.481043 
L 303.668795 93.836686 
L 305.453171 95.365682 
L 307.237548 114.479036 
L 309.021924 125.915085 
L 310.806301 135.04739 
L 312.590677 135.695043 
L 314.375054 146.334907 
L 316.15943 137.952687 
L 317.943806 155.566006 
L 319.728183 146.989211 
L 321.512559 140.307144 
L 323.296936 150.514364 
L 325.081312 149.317108 
L 326.865689 157.856925 
L 328.650065 147.218644 
L 330.434441 145.424318 
L 332.218818 136.99864 
L 334.003194 127.983861 
L 337.571947 132.962145 
L 339.356324 118.383423 
L 341.1407 112.075655 
L 342.925076 102.998421 
L 344.709453 101.967392 
L 346.493829 96.322233 
L 348.278206 87.029237 
L 350.062582 69.860755 
L 351.846959 62.612822 
L 353.631335 59.1291 
L 355.415711 56.588477 
L 357.200088 41.653075 
L 358.984464 39.274362 
L 360.768841 35.320375 
L 362.553217 41.693172 
L 364.337594 24.312078 
L 366.12197 25.897181 
L 367.906346 18.460261 
L 369.690723 32.401223 
L 371.475099 32.243149 
L 373.259476 38.656225 
L 375.043852 41.820676 
L 376.828229 36.944968 
L 378.612605 45.649335 
L 380.396981 49.118636 
L 382.181358 51.11011 
L 383.965734 60.196376 
L 385.750111 71.686418 
L 387.534487 79.085428 
L 389.318863 80.796089 
L 391.10324 100.913579 
L 392.887616 103.052409 
L 394.671993 106.147718 
L 396.456369 107.495454 
L 398.240746 130.599766 
L 400.025122 128.517982 
L 401.809498 135.649926 
L 403.593875 138.530092 
L 405.378251 148.860584 
L 407.162628 143.003264 
L 408.947004 147.344041 
L 410.731381 152.227835 
L 412.515757 145.198442 
L 414.300133 156.399715 
L 416.08451 141.663686 
L 417.868886 151.064146 
L 419.653263 142.756052 
L 421.437639 147.884585 
L 423.222016 140.554807 
L 425.006392 136.432983 
L 425.006392 136.432983 
" clip-path="url(#pd6fa1f1bb3)" style="fill: none; stroke: #2ca02c; stroke-width: 1.5; stroke-linecap: square"/>
   </g>
   <g id="patch_3">
    <path d="M 52.160938 173.52 
L 52.160938 7.2 
" style="fill: none; stroke: #000000; stroke-width: 0.8; stroke-linejoin: miter; stroke-linecap: square"/>
   </g>
   <g id="patch_4">
    <path d="M 442.760938 173.52 
L 442.760938 7.2 
" style="fill: none; stroke: #000000; stroke-width: 0.8; stroke-linejoin: miter; stroke-linecap: square"/>
   </g>
   <g id="patch_5">
    <path d="M 52.160938 173.52 
L 442.760938 173.52 
" style="fill: none; stroke: #000000; stroke-width: 0.8; stroke-linejoin: miter; stroke-linecap: square"/>
   </g>
   <g id="patch_6">
    <path d="M 52.160938 7.2 
L 442.760938 7.2 
" style="fill: none; stroke: #000000; stroke-width: 0.8; stroke-linejoin: miter; stroke-linecap: square"/>
   </g>
   <g id="legend_1">
    <g id="patch_7">
     <path d="M 397.398438 59.234375 
L 435.760938 59.234375 
Q 437.760938 59.234375 437.760938 57.234375 
L 437.760938 14.2 
Q 437.760938 12.2 435.760938 12.2 
L 397.398438 12.2 
Q 395.398438 12.2 395.398438 14.2 
L 395.398438 57.234375 
Q 395.398438 59.234375 397.398438 59.234375 
z
" style="fill: #ffffff; opacity: 0.8; stroke: #cccccc; stroke-linejoin: miter"/>
    </g>
    <g id="line2d_32">
     <path d="M 399.398438 20.298438 
L 409.398438 20.298438 
L 419.398438 20.298438 
" style="fill: none; stroke: #1f77b4; stroke-width: 1.5; stroke-linecap: square"/>
    </g>
    <g id="text_17">
     <!-- 0 -->
     <g transform="translate(427.398438 23.798438)scale(0.1 -0.1)">
      <use xlink:href="#DejaVuSans-30"/>
     </g>
    </g>
    <g id="line2d_33">
     <path d="M 399.398438 34.976563 
L 409.398438 34.976563 
L 419.398438 34.976563 
" style="fill: none; stroke: #ff7f0e; stroke-width: 1.5; stroke-linecap: square"/>
    </g>
    <g id="text_18">
     <!-- 1 -->
     <g transform="translate(427.398438 38.476563)scale(0.1 -0.1)">
      <use xlink:href="#DejaVuSans-31"/>
     </g>
    </g>
    <g id="line2d_34">
     <path d="M 399.398438 49.654688 
L 409.398438 49.654688 
L 419.398438 49.654688 
" style="fill: none; stroke: #2ca02c; stroke-width: 1.5; stroke-linecap: square"/>
    </g>
    <g id="text_19">
     <!-- 2 -->
     <g transform="translate(427.398438 53.154688)scale(0.1 -0.1)">
      <use xlink:href="#DejaVuSans-32"/>
     </g>
    </g>
   </g>
  </g>
 </g>
 <defs>
  <clipPath id="pd6fa1f1bb3">
   <rect x="52.160938" y="7.2" width="390.6" height="166.32"/>
  </clipPath>
 </defs>
</svg>
