<?xml version="1.0" encoding="utf-8" standalone="no"?>
<!DOCTYPE svg PUBLIC "-//W3C//DTD SVG 1.1//EN"
  "http://www.w3.org/Graphics/SVG/1.1/DTD/svg11.dtd">
<svg xmlns:xlink="http://www.w3.org/1999/xlink" width="449.960938pt" height="211.07625pt" viewBox="0 0 449.960938 211.07625" xmlns="http://www.w3.org/2000/svg" version="1.1">
 <metadata>
  <rdf:RDF xmlns:dc="http://purl.org/dc/elements/1.1/" xmlns:cc="http://creativecommons.org/ns#" xmlns:rdf="http://www.w3.org/1999/02/22-rdf-syntax-ns#">
   <cc:Work>
    <dc:type rdf:resource="http://purl.org/dc/dcmitype/StillImage"/>
    <dc:date>2023-04-03T01:00:33.458967</dc:date>
    <dc:format>image/svg+xml</dc:format>
    <dc:creator>
     <cc:Agent>
      <dc:title>Matplotlib v3.5.1, https://matplotlib.org/</dc:title>
     </cc:Agent>
    </dc:creator>
   </cc:Work>
  </rdf:RDF>
 </metadata>
 <defs>
  <style type="text/css">*{stroke-linejoin: round; stroke-linecap: butt}</style>
 </defs>
 <g id="figure_1">
  <g id="patch_1">
   <path d="M 0 211.07625 
L 449.960938 211.07625 
L 449.960938 0 
L 0 0 
z
" style="fill: #ffffff"/>
  </g>
  <g id="axes_1">
   <g id="patch_2">
    <path d="M 52.160938 173.52 
L 442.760938 173.52 
L 442.760938 7.2 
L 52.160938 7.2 
z
" style="fill: #ffffff"/>
   </g>
   <g id="matplotlib.axis_1">
    <g id="xtick_1">
     <g id="line2d_1">
      <path d="M 69.915483 173.52 
L 69.915483 7.2 
" clip-path="url(#p5f98b12812)" style="fill: none; stroke: #b0b0b0; stroke-width: 0.8; stroke-linecap: square"/>
     </g>
     <g id="line2d_2">
      <defs>
       <path id="m10b700faa7" d="M 0 0 
L 0 3.5 
" style="stroke: #000000; stroke-width: 0.8"/>
      </defs>
      <g>
       <use xlink:href="#m10b700faa7" x="69.915483" y="173.52" style="stroke: #000000; stroke-width: 0.8"/>
      </g>
     </g>
     <g id="text_1">
      <!-- 0 -->
      <g transform="translate(66.734233 188.118438)scale(0.1 -0.1)">
       <defs>
        <path id="DejaVuSans-30" d="M 2034 4250 
Q 1547 4250 1301 3770 
Q 1056 3291 1056 2328 
Q 1056 1369 1301 889 
Q 1547 409 2034 409 
Q 2525 409 2770 889 
Q 3016 1369 3016 2328 
Q 3016 3291 2770 3770 
Q 2525 4250 2034 4250 
z
M 2034 4750 
Q 2819 4750 3233 4129 
Q 3647 3509 3647 2328 
Q 3647 1150 3233 529 
Q 2819 -91 2034 -91 
Q 1250 -91 836 529 
Q 422 1150 422 2328 
Q 422 3509 836 4129 
Q 1250 4750 2034 4750 
z
" transform="scale(0.015625)"/>
       </defs>
       <use xlink:href="#DejaVuSans-30"/>
      </g>
     </g>
    </g>
    <g id="xtick_2">
     <g id="line2d_3">
      <path d="M 114.524894 173.52 
L 114.524894 7.2 
" clip-path="url(#p5f98b12812)" style="fill: none; stroke: #b0b0b0; stroke-width: 0.8; stroke-linecap: square"/>
     </g>
     <g id="line2d_4">
      <g>
       <use xlink:href="#m10b700faa7" x="114.524894" y="173.52" style="stroke: #000000; stroke-width: 0.8"/>
      </g>
     </g>
     <g id="text_2">
      <!-- 25 -->
      <g transform="translate(108.162394 188.118438)scale(0.1 -0.1)">
       <defs>
        <path id="DejaVuSans-32" d="M 1228 531 
L 3431 531 
L 3431 0 
L 469 0 
L 469 531 
Q 828 903 1448 1529 
Q 2069 2156 2228 2338 
Q 2531 2678 2651 2914 
Q 2772 3150 2772 3378 
Q 2772 3750 2511 3984 
Q 2250 4219 1831 4219 
Q 1534 4219 1204 4116 
Q 875 4013 500 3803 
L 500 4441 
Q 881 4594 1212 4672 
Q 1544 4750 1819 4750 
Q 2544 4750 2975 4387 
Q 3406 4025 3406 3419 
Q 3406 3131 3298 2873 
Q 3191 2616 2906 2266 
Q 2828 2175 2409 1742 
Q 1991 1309 1228 531 
z
" transform="scale(0.015625)"/>
        <path id="DejaVuSans-35" d="M 691 4666 
L 3169 4666 
L 3169 4134 
L 1269 4134 
L 1269 2991 
Q 1406 3038 1543 3061 
Q 1681 3084 1819 3084 
Q 2600 3084 3056 2656 
Q 3513 2228 3513 1497 
Q 3513 744 3044 326 
Q 2575 -91 1722 -91 
Q 1428 -91 1123 -41 
Q 819 9 494 109 
L 494 744 
Q 775 591 1075 516 
Q 1375 441 1709 441 
Q 2250 441 2565 725 
Q 2881 1009 2881 1497 
Q 2881 1984 2565 2268 
Q 2250 2553 1709 2553 
Q 1456 2553 1204 2497 
Q 953 2441 691 2322 
L 691 4666 
z
" transform="scale(0.015625)"/>
       </defs>
       <use xlink:href="#DejaVuSans-32"/>
       <use xlink:href="#DejaVuSans-35" x="63.623047"/>
      </g>
     </g>
    </g>
    <g id="xtick_3">
     <g id="line2d_5">
      <path d="M 159.134304 173.52 
L 159.134304 7.2 
" clip-path="url(#p5f98b12812)" style="fill: none; stroke: #b0b0b0; stroke-width: 0.8; stroke-linecap: square"/>
     </g>
     <g id="line2d_6">
      <g>
       <use xlink:href="#m10b700faa7" x="159.134304" y="173.52" style="stroke: #000000; stroke-width: 0.8"/>
      </g>
     </g>
     <g id="text_3">
      <!-- 50 -->
      <g transform="translate(152.771804 188.118438)scale(0.1 -0.1)">
       <use xlink:href="#DejaVuSans-35"/>
       <use xlink:href="#DejaVuSans-30" x="63.623047"/>
      </g>
     </g>
    </g>
    <g id="xtick_4">
     <g id="line2d_7">
      <path d="M 203.743715 173.52 
L 203.743715 7.2 
" clip-path="url(#p5f98b12812)" style="fill: none; stroke: #b0b0b0; stroke-width: 0.8; stroke-linecap: square"/>
     </g>
     <g id="line2d_8">
      <g>
       <use xlink:href="#m10b700faa7" x="203.743715" y="173.52" style="stroke: #000000; stroke-width: 0.8"/>
      </g>
     </g>
     <g id="text_4">
      <!-- 75 -->
      <g transform="translate(197.381215 188.118438)scale(0.1 -0.1)">
       <defs>
        <path id="DejaVuSans-37" d="M 525 4666 
L 3525 4666 
L 3525 4397 
L 1831 0 
L 1172 0 
L 2766 4134 
L 525 4134 
L 525 4666 
z
" transform="scale(0.015625)"/>
       </defs>
       <use xlink:href="#DejaVuSans-37"/>
       <use xlink:href="#DejaVuSans-35" x="63.623047"/>
      </g>
     </g>
    </g>
    <g id="xtick_5">
     <g id="line2d_9">
      <path d="M 248.353126 173.52 
L 248.353126 7.2 
" clip-path="url(#p5f98b12812)" style="fill: none; stroke: #b0b0b0; stroke-width: 0.8; stroke-linecap: square"/>
     </g>
     <g id="line2d_10">
      <g>
       <use xlink:href="#m10b700faa7" x="248.353126" y="173.52" style="stroke: #000000; stroke-width: 0.8"/>
      </g>
     </g>
     <g id="text_5">
      <!-- 100 -->
      <g transform="translate(238.809376 188.118438)scale(0.1 -0.1)">
       <defs>
        <path id="DejaVuSans-31" d="M 794 531 
L 1825 531 
L 1825 4091 
L 703 3866 
L 703 4441 
L 1819 4666 
L 2450 4666 
L 2450 531 
L 3481 531 
L 3481 0 
L 794 0 
L 794 531 
z
" transform="scale(0.015625)"/>
       </defs>
       <use xlink:href="#DejaVuSans-31"/>
       <use xlink:href="#DejaVuSans-30" x="63.623047"/>
       <use xlink:href="#DejaVuSans-30" x="127.246094"/>
      </g>
     </g>
    </g>
    <g id="xtick_6">
     <g id="line2d_11">
      <path d="M 292.962536 173.52 
L 292.962536 7.2 
" clip-path="url(#p5f98b12812)" style="fill: none; stroke: #b0b0b0; stroke-width: 0.8; stroke-linecap: square"/>
     </g>
     <g id="line2d_12">
      <g>
       <use xlink:href="#m10b700faa7" x="292.962536" y="173.52" style="stroke: #000000; stroke-width: 0.8"/>
      </g>
     </g>
     <g id="text_6">
      <!-- 125 -->
      <g transform="translate(283.418786 188.118438)scale(0.1 -0.1)">
       <use xlink:href="#DejaVuSans-31"/>
       <use xlink:href="#DejaVuSans-32" x="63.623047"/>
       <use xlink:href="#DejaVuSans-35" x="127.246094"/>
      </g>
     </g>
    </g>
    <g id="xtick_7">
     <g id="line2d_13">
      <path d="M 337.571947 173.52 
L 337.571947 7.2 
" clip-path="url(#p5f98b12812)" style="fill: none; stroke: #b0b0b0; stroke-width: 0.8; stroke-linecap: square"/>
     </g>
     <g id="line2d_14">
      <g>
       <use xlink:href="#m10b700faa7" x="337.571947" y="173.52" style="stroke: #000000; stroke-width: 0.8"/>
      </g>
     </g>
     <g id="text_7">
      <!-- 150 -->
      <g transform="translate(328.028197 188.118438)scale(0.1 -0.1)">
       <use xlink:href="#DejaVuSans-31"/>
       <use xlink:href="#DejaVuSans-35" x="63.623047"/>
       <use xlink:href="#DejaVuSans-30" x="127.246094"/>
      </g>
     </g>
    </g>
    <g id="xtick_8">
     <g id="line2d_15">
      <path d="M 382.181358 173.52 
L 382.181358 7.2 
" clip-path="url(#p5f98b12812)" style="fill: none; stroke: #b0b0b0; stroke-width: 0.8; stroke-linecap: square"/>
     </g>
     <g id="line2d_16">
      <g>
       <use xlink:href="#m10b700faa7" x="382.181358" y="173.52" style="stroke: #000000; stroke-width: 0.8"/>
      </g>
     </g>
     <g id="text_8">
      <!-- 175 -->
      <g transform="translate(372.637608 188.118438)scale(0.1 -0.1)">
       <use xlink:href="#DejaVuSans-31"/>
       <use xlink:href="#DejaVuSans-37" x="63.623047"/>
       <use xlink:href="#DejaVuSans-35" x="127.246094"/>
      </g>
     </g>
    </g>
    <g id="xtick_9">
     <g id="line2d_17">
      <path d="M 426.790768 173.52 
L 426.790768 7.2 
" clip-path="url(#p5f98b12812)" style="fill: none; stroke: #b0b0b0; stroke-width: 0.8; stroke-linecap: square"/>
     </g>
     <g id="line2d_18">
      <g>
       <use xlink:href="#m10b700faa7" x="426.790768" y="173.52" style="stroke: #000000; stroke-width: 0.8"/>
      </g>
     </g>
     <g id="text_9">
      <!-- 200 -->
      <g transform="translate(417.247018 188.118438)scale(0.1 -0.1)">
       <use xlink:href="#DejaVuSans-32"/>
       <use xlink:href="#DejaVuSans-30" x="63.623047"/>
       <use xlink:href="#DejaVuSans-30" x="127.246094"/>
      </g>
     </g>
    </g>
    <g id="text_10">
     <!-- Time -->
     <g transform="translate(235.227344 201.796563)scale(0.1 -0.1)">
      <defs>
       <path id="DejaVuSans-54" d="M -19 4666 
L 3928 4666 
L 3928 4134 
L 2272 4134 
L 2272 0 
L 1638 0 
L 1638 4134 
L -19 4134 
L -19 4666 
z
" transform="scale(0.015625)"/>
       <path id="DejaVuSans-69" d="M 603 3500 
L 1178 3500 
L 1178 0 
L 603 0 
L 603 3500 
z
M 603 4863 
L 1178 4863 
L 1178 4134 
L 603 4134 
L 603 4863 
z
" transform="scale(0.015625)"/>
       <path id="DejaVuSans-6d" d="M 3328 2828 
Q 3544 3216 3844 3400 
Q 4144 3584 4550 3584 
Q 5097 3584 5394 3201 
Q 5691 2819 5691 2113 
L 5691 0 
L 5113 0 
L 5113 2094 
Q 5113 2597 4934 2840 
Q 4756 3084 4391 3084 
Q 3944 3084 3684 2787 
Q 3425 2491 3425 1978 
L 3425 0 
L 2847 0 
L 2847 2094 
Q 2847 2600 2669 2842 
Q 2491 3084 2119 3084 
Q 1678 3084 1418 2786 
Q 1159 2488 1159 1978 
L 1159 0 
L 581 0 
L 581 3500 
L 1159 3500 
L 1159 2956 
Q 1356 3278 1631 3431 
Q 1906 3584 2284 3584 
Q 2666 3584 2933 3390 
Q 3200 3197 3328 2828 
z
" transform="scale(0.015625)"/>
       <path id="DejaVuSans-65" d="M 3597 1894 
L 3597 1613 
L 953 1613 
Q 991 1019 1311 708 
Q 1631 397 2203 397 
Q 2534 397 2845 478 
Q 3156 559 3463 722 
L 3463 178 
Q 3153 47 2828 -22 
Q 2503 -91 2169 -91 
Q 1331 -91 842 396 
Q 353 884 353 1716 
Q 353 2575 817 3079 
Q 1281 3584 2069 3584 
Q 2775 3584 3186 3129 
Q 3597 2675 3597 1894 
z
M 3022 2063 
Q 3016 2534 2758 2815 
Q 2500 3097 2075 3097 
Q 1594 3097 1305 2825 
Q 1016 2553 972 2059 
L 3022 2063 
z
" transform="scale(0.015625)"/>
      </defs>
      <use xlink:href="#DejaVuSans-54"/>
      <use xlink:href="#DejaVuSans-69" x="57.958984"/>
      <use xlink:href="#DejaVuSans-6d" x="85.742188"/>
      <use xlink:href="#DejaVuSans-65" x="183.154297"/>
     </g>
    </g>
   </g>
   <g id="matplotlib.axis_2">
    <g id="ytick_1">
     <g id="line2d_19">
      <path d="M 52.160938 165.96 
L 442.760938 165.96 
" clip-path="url(#p5f98b12812)" style="fill: none; stroke: #b0b0b0; stroke-width: 0.8; stroke-linecap: square"/>
     </g>
     <g id="line2d_20">
      <defs>
       <path id="mb3706a7349" d="M 0 0 
L -3.5 0 
" style="stroke: #000000; stroke-width: 0.8"/>
      </defs>
      <g>
       <use xlink:href="#mb3706a7349" x="52.160938" y="165.96" style="stroke: #000000; stroke-width: 0.8"/>
      </g>
     </g>
     <g id="text_11">
      <!-- −1.0 -->
      <g transform="translate(20.878125 169.759219)scale(0.1 -0.1)">
       <defs>
        <path id="DejaVuSans-2212" d="M 678 2272 
L 4684 2272 
L 4684 1741 
L 678 1741 
L 678 2272 
z
" transform="scale(0.015625)"/>
        <path id="DejaVuSans-2e" d="M 684 794 
L 1344 794 
L 1344 0 
L 684 0 
L 684 794 
z
" transform="scale(0.015625)"/>
       </defs>
       <use xlink:href="#DejaVuSans-2212"/>
       <use xlink:href="#DejaVuSans-31" x="83.789062"/>
       <use xlink:href="#DejaVuSans-2e" x="147.412109"/>
       <use xlink:href="#DejaVuSans-30" x="179.199219"/>
      </g>
     </g>
    </g>
    <g id="ytick_2">
     <g id="line2d_21">
      <path d="M 52.160938 128.16 
L 442.760938 128.16 
" clip-path="url(#p5f98b12812)" style="fill: none; stroke: #b0b0b0; stroke-width: 0.8; stroke-linecap: square"/>
     </g>
     <g id="line2d_22">
      <g>
       <use xlink:href="#mb3706a7349" x="52.160938" y="128.16" style="stroke: #000000; stroke-width: 0.8"/>
      </g>
     </g>
     <g id="text_12">
      <!-- −0.5 -->
      <g transform="translate(20.878125 131.959219)scale(0.1 -0.1)">
       <use xlink:href="#DejaVuSans-2212"/>
       <use xlink:href="#DejaVuSans-30" x="83.789062"/>
       <use xlink:href="#DejaVuSans-2e" x="147.412109"/>
       <use xlink:href="#DejaVuSans-35" x="179.199219"/>
      </g>
     </g>
    </g>
    <g id="ytick_3">
     <g id="line2d_23">
      <path d="M 52.160938 90.36 
L 442.760938 90.36 
" clip-path="url(#p5f98b12812)" style="fill: none; stroke: #b0b0b0; stroke-width: 0.8; stroke-linecap: square"/>
     </g>
     <g id="line2d_24">
      <g>
       <use xlink:href="#mb3706a7349" x="52.160938" y="90.36" style="stroke: #000000; stroke-width: 0.8"/>
      </g>
     </g>
     <g id="text_13">
      <!-- 0.0 -->
      <g transform="translate(29.257813 94.159219)scale(0.1 -0.1)">
       <use xlink:href="#DejaVuSans-30"/>
       <use xlink:href="#DejaVuSans-2e" x="63.623047"/>
       <use xlink:href="#DejaVuSans-30" x="95.410156"/>
      </g>
     </g>
    </g>
    <g id="ytick_4">
     <g id="line2d_25">
      <path d="M 52.160938 52.56 
L 442.760938 52.56 
" clip-path="url(#p5f98b12812)" style="fill: none; stroke: #b0b0b0; stroke-width: 0.8; stroke-linecap: square"/>
     </g>
     <g id="line2d_26">
      <g>
       <use xlink:href="#mb3706a7349" x="52.160938" y="52.56" style="stroke: #000000; stroke-width: 0.8"/>
      </g>
     </g>
     <g id="text_14">
      <!-- 0.5 -->
      <g transform="translate(29.257813 56.359219)scale(0.1 -0.1)">
       <use xlink:href="#DejaVuSans-30"/>
       <use xlink:href="#DejaVuSans-2e" x="63.623047"/>
       <use xlink:href="#DejaVuSans-35" x="95.410156"/>
      </g>
     </g>
    </g>
    <g id="ytick_5">
     <g id="line2d_27">
      <path d="M 52.160938 14.76 
L 442.760938 14.76 
" clip-path="url(#p5f98b12812)" style="fill: none; stroke: #b0b0b0; stroke-width: 0.8; stroke-linecap: square"/>
     </g>
     <g id="line2d_28">
      <g>
       <use xlink:href="#mb3706a7349" x="52.160938" y="14.76" style="stroke: #000000; stroke-width: 0.8"/>
      </g>
     </g>
     <g id="text_15">
      <!-- 1.0 -->
      <g transform="translate(29.257813 18.559219)scale(0.1 -0.1)">
       <use xlink:href="#DejaVuSans-31"/>
       <use xlink:href="#DejaVuSans-2e" x="63.623047"/>
       <use xlink:href="#DejaVuSans-30" x="95.410156"/>
      </g>
     </g>
    </g>
    <g id="text_16">
     <!-- Samples -->
     <g transform="translate(14.798438 111.713125)rotate(-90)scale(0.1 -0.1)">
      <defs>
       <path id="DejaVuSans-53" d="M 3425 4513 
L 3425 3897 
Q 3066 4069 2747 4153 
Q 2428 4238 2131 4238 
Q 1616 4238 1336 4038 
Q 1056 3838 1056 3469 
Q 1056 3159 1242 3001 
Q 1428 2844 1947 2747 
L 2328 2669 
Q 3034 2534 3370 2195 
Q 3706 1856 3706 1288 
Q 3706 609 3251 259 
Q 2797 -91 1919 -91 
Q 1588 -91 1214 -16 
Q 841 59 441 206 
L 441 856 
Q 825 641 1194 531 
Q 1563 422 1919 422 
Q 2459 422 2753 634 
Q 3047 847 3047 1241 
Q 3047 1584 2836 1778 
Q 2625 1972 2144 2069 
L 1759 2144 
Q 1053 2284 737 2584 
Q 422 2884 422 3419 
Q 422 4038 858 4394 
Q 1294 4750 2059 4750 
Q 2388 4750 2728 4690 
Q 3069 4631 3425 4513 
z
" transform="scale(0.015625)"/>
       <path id="DejaVuSans-61" d="M 2194 1759 
Q 1497 1759 1228 1600 
Q 959 1441 959 1056 
Q 959 750 1161 570 
Q 1363 391 1709 391 
Q 2188 391 2477 730 
Q 2766 1069 2766 1631 
L 2766 1759 
L 2194 1759 
z
M 3341 1997 
L 3341 0 
L 2766 0 
L 2766 531 
Q 2569 213 2275 61 
Q 1981 -91 1556 -91 
Q 1019 -91 701 211 
Q 384 513 384 1019 
Q 384 1609 779 1909 
Q 1175 2209 1959 2209 
L 2766 2209 
L 2766 2266 
Q 2766 2663 2505 2880 
Q 2244 3097 1772 3097 
Q 1472 3097 1187 3025 
Q 903 2953 641 2809 
L 641 3341 
Q 956 3463 1253 3523 
Q 1550 3584 1831 3584 
Q 2591 3584 2966 3190 
Q 3341 2797 3341 1997 
z
" transform="scale(0.015625)"/>
       <path id="DejaVuSans-70" d="M 1159 525 
L 1159 -1331 
L 581 -1331 
L 581 3500 
L 1159 3500 
L 1159 2969 
Q 1341 3281 1617 3432 
Q 1894 3584 2278 3584 
Q 2916 3584 3314 3078 
Q 3713 2572 3713 1747 
Q 3713 922 3314 415 
Q 2916 -91 2278 -91 
Q 1894 -91 1617 61 
Q 1341 213 1159 525 
z
M 3116 1747 
Q 3116 2381 2855 2742 
Q 2594 3103 2138 3103 
Q 1681 3103 1420 2742 
Q 1159 2381 1159 1747 
Q 1159 1113 1420 752 
Q 1681 391 2138 391 
Q 2594 391 2855 752 
Q 3116 1113 3116 1747 
z
" transform="scale(0.015625)"/>
       <path id="DejaVuSans-6c" d="M 603 4863 
L 1178 4863 
L 1178 0 
L 603 0 
L 603 4863 
z
" transform="scale(0.015625)"/>
       <path id="DejaVuSans-73" d="M 2834 3397 
L 2834 2853 
Q 2591 2978 2328 3040 
Q 2066 3103 1784 3103 
Q 1356 3103 1142 2972 
Q 928 2841 928 2578 
Q 928 2378 1081 2264 
Q 1234 2150 1697 2047 
L 1894 2003 
Q 2506 1872 2764 1633 
Q 3022 1394 3022 966 
Q 3022 478 2636 193 
Q 2250 -91 1575 -91 
Q 1294 -91 989 -36 
Q 684 19 347 128 
L 347 722 
Q 666 556 975 473 
Q 1284 391 1588 391 
Q 1994 391 2212 530 
Q 2431 669 2431 922 
Q 2431 1156 2273 1281 
Q 2116 1406 1581 1522 
L 1381 1569 
Q 847 1681 609 1914 
Q 372 2147 372 2553 
Q 372 3047 722 3315 
Q 1072 3584 1716 3584 
Q 2034 3584 2315 3537 
Q 2597 3491 2834 3397 
z
" transform="scale(0.015625)"/>
      </defs>
      <use xlink:href="#DejaVuSans-53"/>
      <use xlink:href="#DejaVuSans-61" x="63.476562"/>
      <use xlink:href="#DejaVuSans-6d" x="124.755859"/>
      <use xlink:href="#DejaVuSans-70" x="222.167969"/>
      <use xlink:href="#DejaVuSans-6c" x="285.644531"/>
      <use xlink:href="#DejaVuSans-65" x="313.427734"/>
      <use xlink:href="#DejaVuSans-73" x="374.951172"/>
     </g>
    </g>
   </g>
   <g id="line2d_29">
    <path d="M 69.915483 14.76 
L 71.699859 15.356129 
L 73.484236 17.135113 
L 75.268612 20.068898 
L 77.052989 24.111215 
L 78.837365 29.198315 
L 80.621742 35.249972 
L 82.406118 42.170746 
L 84.190494 49.851494 
L 87.759247 66.998315 
L 93.112377 95.106963 
L 96.681129 113.721685 
L 100.249882 130.868506 
L 102.034259 138.549254 
L 103.818635 145.470028 
L 105.603012 151.521685 
L 107.387388 156.608785 
L 109.171764 160.651102 
L 110.956141 163.584887 
L 112.740517 165.363871 
L 114.524894 165.96 
L 116.30927 165.363871 
L 118.093646 163.584887 
L 119.878023 160.651102 
L 121.662399 156.608785 
L 123.446776 151.521685 
L 125.231152 145.470028 
L 127.015529 138.549254 
L 128.799905 130.868506 
L 132.368658 113.721685 
L 137.721787 85.613037 
L 141.29054 66.998315 
L 144.859293 49.851494 
L 146.643669 42.170746 
L 148.428046 35.249972 
L 150.212422 29.198315 
L 151.996799 24.111215 
L 153.781175 20.068898 
L 155.565551 17.135113 
L 157.349928 15.356129 
L 159.134304 14.76 
L 160.918681 15.356129 
L 162.703057 17.135113 
L 164.487434 20.068898 
L 166.27181 24.111215 
L 168.056186 29.198315 
L 169.840563 35.249972 
L 171.624939 42.170746 
L 173.409316 49.851494 
L 176.978069 66.998315 
L 182.331198 95.106963 
L 185.899951 113.721685 
L 189.468704 130.868506 
L 191.25308 138.549254 
L 193.037456 145.470028 
L 194.821833 151.521685 
L 196.606209 156.608785 
L 198.390586 160.651102 
L 200.174962 163.584887 
L 201.959339 165.363871 
L 203.743715 165.96 
L 205.528091 165.363871 
L 207.312468 163.584887 
L 209.096844 160.651102 
L 210.881221 156.608785 
L 212.665597 151.521685 
L 214.449974 145.470028 
L 216.23435 138.549254 
L 218.018726 130.868506 
L 221.587479 113.721685 
L 226.940609 85.613037 
L 230.509361 66.998315 
L 234.078114 49.851494 
L 235.862491 42.170746 
L 237.646867 35.249972 
L 239.431244 29.198315 
L 241.21562 24.111215 
L 242.999996 20.068898 
L 244.784373 17.135113 
L 246.568749 15.356129 
L 248.353126 14.76 
L 250.137502 15.356129 
L 251.921879 17.135113 
L 253.706255 20.068898 
L 255.490631 24.111215 
L 257.275008 29.198315 
L 259.059384 35.249972 
L 260.843761 42.170746 
L 262.628137 49.851494 
L 266.19689 66.998315 
L 271.550019 95.106963 
L 275.118772 113.721685 
L 278.687525 130.868506 
L 280.471901 138.549254 
L 282.256278 145.470028 
L 284.040654 151.521685 
L 285.825031 156.608785 
L 287.609407 160.651102 
L 289.393784 163.584887 
L 291.17816 165.363871 
L 292.962536 165.96 
L 294.746913 165.363871 
L 296.531289 163.584887 
L 298.315666 160.651102 
L 300.100042 156.608785 
L 301.884419 151.521685 
L 303.668795 145.470028 
L 305.453171 138.549254 
L 307.237548 130.868506 
L 310.806301 113.721685 
L 316.15943 85.613037 
L 319.728183 66.998315 
L 323.296936 49.851494 
L 325.081312 42.170746 
L 326.865689 35.249972 
L 328.650065 29.198315 
L 330.434441 24.111215 
L 332.218818 20.068898 
L 334.003194 17.135113 
L 335.787571 15.356129 
L 337.571947 14.76 
L 339.356324 15.356129 
L 341.1407 17.135113 
L 342.925076 20.068898 
L 344.709453 24.111215 
L 346.493829 29.198315 
L 348.278206 35.249972 
L 350.062582 42.170746 
L 351.846959 49.851494 
L 355.415711 66.998315 
L 360.768841 95.106963 
L 364.337594 113.721685 
L 367.906346 130.868506 
L 369.690723 138.549254 
L 371.475099 145.470028 
L 373.259476 151.521685 
L 375.043852 156.608785 
L 376.828229 160.651102 
L 378.612605 163.584887 
L 380.396981 165.363871 
L 382.181358 165.96 
L 383.965734 165.363871 
L 385.750111 163.584887 
L 387.534487 160.651102 
L 389.318863 156.608785 
L 391.10324 151.521685 
L 392.887616 145.470028 
L 394.671993 138.549254 
L 396.456369 130.868506 
L 400.025122 113.721685 
L 405.378251 85.613037 
L 408.947004 66.998315 
L 412.515757 49.851494 
L 414.300133 42.170746 
L 416.08451 35.249972 
L 417.868886 29.198315 
L 419.653263 24.111215 
L 421.437639 20.068898 
L 423.222016 17.135113 
L 425.006392 15.356129 
L 425.006392 15.356129 
" clip-path="url(#p5f98b12812)" style="fill: none; stroke: #1f77b4; stroke-width: 1.5; stroke-linecap: square"/>
   </g>
   <g id="line2d_30">
    <path d="M 69.915483 54.360599 
L 71.699859 46.312488 
L 73.484236 38.959033 
L 75.268612 32.416201 
L 77.052989 26.787178 
L 78.837365 22.160737 
L 80.621742 18.609839 
L 82.406118 16.190483 
L 84.190494 14.940825 
L 85.974871 14.880573 
L 87.759247 16.010676 
L 89.543624 18.313312 
L 91.328 21.752168 
L 93.112377 26.27301 
L 94.896753 31.804542 
L 96.681129 38.259529 
L 98.465506 45.536172 
L 100.249882 53.519713 
L 103.818635 71.094707 
L 112.740517 117.743559 
L 114.524894 126.359401 
L 116.30927 134.407512 
L 118.093646 141.760967 
L 119.878023 148.303799 
L 121.662399 153.932822 
L 123.446776 158.559263 
L 125.231152 162.110161 
L 127.015529 164.529517 
L 128.799905 165.779175 
L 130.584281 165.839427 
L 132.368658 164.709324 
L 134.153034 162.406688 
L 135.937411 158.967832 
L 137.721787 154.44699 
L 139.506164 148.915458 
L 141.29054 142.460471 
L 143.074916 135.183828 
L 144.859293 127.200287 
L 148.428046 109.625293 
L 157.349928 62.976441 
L 159.134304 54.360599 
L 160.918681 46.312488 
L 162.703057 38.959033 
L 164.487434 32.416201 
L 166.27181 26.787178 
L 168.056186 22.160737 
L 169.840563 18.609839 
L 171.624939 16.190483 
L 173.409316 14.940825 
L 175.193692 14.880573 
L 176.978069 16.010676 
L 178.762445 18.313312 
L 180.546821 21.752168 
L 182.331198 26.27301 
L 184.115574 31.804542 
L 185.899951 38.259529 
L 187.684327 45.536172 
L 189.468704 53.519713 
L 193.037456 71.094707 
L 201.959339 117.743559 
L 203.743715 126.359401 
L 205.528091 134.407512 
L 207.312468 141.760967 
L 209.096844 148.303799 
L 210.881221 153.932822 
L 212.665597 158.559263 
L 214.449974 162.110161 
L 216.23435 164.529517 
L 218.018726 165.779175 
L 219.803103 165.839427 
L 221.587479 164.709324 
L 223.371856 162.406688 
L 225.156232 158.967832 
L 226.940609 154.44699 
L 228.724985 148.915458 
L 230.509361 142.460471 
L 232.293738 135.183828 
L 234.078114 127.200287 
L 237.646867 109.625293 
L 246.568749 62.976441 
L 248.353126 54.360599 
L 250.137502 46.312488 
L 251.921879 38.959033 
L 253.706255 32.416201 
L 255.490631 26.787178 
L 257.275008 22.160737 
L 259.059384 18.609839 
L 260.843761 16.190483 
L 262.628137 14.940825 
L 264.412514 14.880573 
L 266.19689 16.010676 
L 267.981266 18.313312 
L 269.765643 21.752168 
L 271.550019 26.27301 
L 273.334396 31.804542 
L 275.118772 38.259529 
L 276.903149 45.536172 
L 278.687525 53.519713 
L 282.256278 71.094707 
L 291.17816 117.743559 
L 292.962536 126.359401 
L 294.746913 134.407512 
L 296.531289 141.760967 
L 298.315666 148.303799 
L 300.100042 153.932822 
L 301.884419 158.559263 
L 303.668795 162.110161 
L 305.453171 164.529517 
L 307.237548 165.779175 
L 309.021924 165.839427 
L 310.806301 164.709324 
L 312.590677 162.406688 
L 314.375054 158.967832 
L 316.15943 154.44699 
L 317.943806 148.915458 
L 319.728183 142.460471 
L 321.512559 135.183828 
L 323.296936 127.200287 
L 326.865689 109.625293 
L 335.787571 62.976441 
L 337.571947 54.360599 
L 339.356324 46.312488 
L 341.1407 38.959033 
L 342.925076 32.416201 
L 344.709453 26.787178 
L 346.493829 22.160737 
L 348.278206 18.609839 
L 350.062582 16.190483 
L 351.846959 14.940825 
L 353.631335 14.880573 
L 355.415711 16.010676 
L 357.200088 18.313312 
L 358.984464 21.752168 
L 360.768841 26.27301 
L 362.553217 31.804542 
L 364.337594 38.259529 
L 366.12197 45.536172 
L 367.906346 53.519713 
L 371.475099 71.094707 
L 380.396981 117.743559 
L 382.181358 126.359401 
L 383.965734 134.407512 
L 385.750111 141.760967 
L 387.534487 148.303799 
L 389.318863 153.932822 
L 391.10324 158.559263 
L 392.887616 162.110161 
L 394.671993 164.529517 
L 396.456369 165.779175 
L 398.240746 165.839427 
L 400.025122 164.709324 
L 401.809498 162.406688 
L 403.593875 158.967832 
L 405.378251 154.44699 
L 407.162628 148.915458 
L 408.947004 142.460471 
L 410.731381 135.183828 
L 412.515757 127.200287 
L 416.08451 109.625293 
L 425.006392 62.976441 
L 425.006392 62.976441 
" clip-path="url(#p5f98b12812)" style="fill: none; stroke: #ff7f0e; stroke-width: 1.5; stroke-linecap: square"/>
   </g>
   <g id="line2d_31">
    <path d="M 69.915483 131.675426 
L 73.484236 114.632399 
L 78.837365 86.571086 
L 82.406118 67.912793 
L 85.974871 50.664941 
L 87.759247 42.913982 
L 89.543624 35.911275 
L 91.328 29.767257 
L 93.112377 24.578823 
L 94.896753 20.427798 
L 96.681129 17.379644 
L 98.465506 15.482435 
L 100.249882 14.76609 
L 102.034259 15.241906 
L 103.818635 16.902379 
L 105.603012 19.721322 
L 107.387388 23.65428 
L 109.171764 28.639227 
L 110.956141 34.597547 
L 112.740517 41.435274 
L 114.524894 49.044574 
L 118.093646 66.087601 
L 123.446776 94.148914 
L 127.015529 112.807207 
L 130.584281 130.055059 
L 132.368658 137.806018 
L 134.153034 144.808725 
L 135.937411 150.952743 
L 137.721787 156.141177 
L 139.506164 160.292202 
L 141.29054 163.340356 
L 143.074916 165.237565 
L 144.859293 165.95391 
L 146.643669 165.478094 
L 148.428046 163.817621 
L 150.212422 160.998678 
L 151.996799 157.06572 
L 153.781175 152.080773 
L 155.565551 146.122453 
L 157.349928 139.284726 
L 159.134304 131.675426 
L 162.703057 114.632399 
L 168.056186 86.571086 
L 171.624939 67.912793 
L 175.193692 50.664941 
L 176.978069 42.913982 
L 178.762445 35.911275 
L 180.546821 29.767257 
L 182.331198 24.578823 
L 184.115574 20.427798 
L 185.899951 17.379644 
L 187.684327 15.482435 
L 189.468704 14.76609 
L 191.25308 15.241906 
L 193.037456 16.902379 
L 194.821833 19.721322 
L 196.606209 23.65428 
L 198.390586 28.639227 
L 200.174962 34.597547 
L 201.959339 41.435274 
L 203.743715 49.044574 
L 207.312468 66.087601 
L 212.665597 94.148914 
L 216.23435 112.807207 
L 219.803103 130.055059 
L 221.587479 137.806018 
L 223.371856 144.808725 
L 225.156232 150.952743 
L 226.940609 156.141177 
L 228.724985 160.292202 
L 230.509361 163.340356 
L 232.293738 165.237565 
L 234.078114 165.95391 
L 235.862491 165.478094 
L 237.646867 163.817621 
L 239.431244 160.998678 
L 241.21562 157.06572 
L 242.999996 152.080773 
L 244.784373 146.122453 
L 246.568749 139.284726 
L 248.353126 131.675426 
L 251.921879 114.632399 
L 257.275008 86.571086 
L 260.843761 67.912793 
L 264.412514 50.664941 
L 266.19689 42.913982 
L 267.981266 35.911275 
L 269.765643 29.767257 
L 271.550019 24.578823 
L 273.334396 20.427798 
L 275.118772 17.379644 
L 276.903149 15.482435 
L 278.687525 14.76609 
L 280.471901 15.241906 
L 282.256278 16.902379 
L 284.040654 19.721322 
L 285.825031 23.65428 
L 287.609407 28.639227 
L 289.393784 34.597547 
L 291.17816 41.435274 
L 292.962536 49.044574 
L 296.531289 66.087601 
L 301.884419 94.148914 
L 305.453171 112.807207 
L 309.021924 130.055059 
L 310.806301 137.806018 
L 312.590677 144.808725 
L 314.375054 150.952743 
L 316.15943 156.141177 
L 317.943806 160.292202 
L 319.728183 163.340356 
L 321.512559 165.237565 
L 323.296936 165.95391 
L 325.081312 165.478094 
L 326.865689 163.817621 
L 328.650065 160.998678 
L 330.434441 157.06572 
L 332.218818 152.080773 
L 334.003194 146.122453 
L 335.787571 139.284726 
L 337.571947 131.675426 
L 341.1407 114.632399 
L 346.493829 86.571086 
L 350.062582 67.912793 
L 353.631335 50.664941 
L 355.415711 42.913982 
L 357.200088 35.911275 
L 358.984464 29.767257 
L 360.768841 24.578823 
L 362.553217 20.427798 
L 364.337594 17.379644 
L 366.12197 15.482435 
L 367.906346 14.76609 
L 369.690723 15.241906 
L 371.475099 16.902379 
L 373.259476 19.721322 
L 375.043852 23.65428 
L 376.828229 28.639227 
L 378.612605 34.597547 
L 380.396981 41.435274 
L 382.181358 49.044574 
L 385.750111 66.087601 
L 391.10324 94.148914 
L 394.671993 112.807207 
L 398.240746 130.055059 
L 400.025122 137.806018 
L 401.809498 144.808725 
L 403.593875 150.952743 
L 405.378251 156.141177 
L 407.162628 160.292202 
L 408.947004 163.340356 
L 410.731381 165.237565 
L 412.515757 165.95391 
L 414.300133 165.478094 
L 416.08451 163.817621 
L 417.868886 160.998678 
L 419.653263 157.06572 
L 421.437639 152.080773 
L 423.222016 146.122453 
L 425.006392 139.284726 
L 425.006392 139.284726 
" clip-path="url(#p5f98b12812)" style="fill: none; stroke: #2ca02c; stroke-width: 1.5; stroke-linecap: square"/>
   </g>
   <g id="patch_3">
    <path d="M 52.160938 173.52 
L 52.160938 7.2 
" style="fill: none; stroke: #000000; stroke-width: 0.8; stroke-linejoin: miter; stroke-linecap: square"/>
   </g>
   <g id="patch_4">
    <path d="M 442.760938 173.52 
L 442.760938 7.2 
" style="fill: none; stroke: #000000; stroke-width: 0.8; stroke-linejoin: miter; stroke-linecap: square"/>
   </g>
   <g id="patch_5">
    <path d="M 52.160938 173.52 
L 442.760938 173.52 
" style="fill: none; stroke: #000000; stroke-width: 0.8; stroke-linejoin: miter; stroke-linecap: square"/>
   </g>
   <g id="patch_6">
    <path d="M 52.160938 7.2 
L 442.760938 7.2 
" style="fill: none; stroke: #000000; stroke-width: 0.8; stroke-linejoin: miter; stroke-linecap: square"/>
   </g>
   <g id="legend_1">
    <g id="patch_7">
     <path d="M 397.398438 59.234375 
L 435.760938 59.234375 
Q 437.760938 59.234375 437.760938 57.234375 
L 437.760938 14.2 
Q 437.760938 12.2 435.760938 12.2 
L 397.398438 12.2 
Q 395.398438 12.2 395.398438 14.2 
L 395.398438 57.234375 
Q 395.398438 59.234375 397.398438 59.234375 
z
" style="fill: #ffffff; opacity: 0.8; stroke: #cccccc; stroke-linejoin: miter"/>
    </g>
    <g id="line2d_32">
     <path d="M 399.398438 20.298438 
L 409.398438 20.298438 
L 419.398438 20.298438 
" style="fill: none; stroke: #1f77b4; stroke-width: 1.5; stroke-linecap: square"/>
    </g>
    <g id="text_17">
     <!-- 0 -->
     <g transform="translate(427.398438 23.798438)scale(0.1 -0.1)">
      <use xlink:href="#DejaVuSans-30"/>
     </g>
    </g>
    <g id="line2d_33">
     <path d="M 399.398438 34.976563 
L 409.398438 34.976563 
L 419.398438 34.976563 
" style="fill: none; stroke: #ff7f0e; stroke-width: 1.5; stroke-linecap: square"/>
    </g>
    <g id="text_18">
     <!-- 1 -->
     <g transform="translate(427.398438 38.476563)scale(0.1 -0.1)">
      <use xlink:href="#DejaVuSans-31"/>
     </g>
    </g>
    <g id="line2d_34">
     <path d="M 399.398438 49.654688 
L 409.398438 49.654688 
L 419.398438 49.654688 
" style="fill: none; stroke: #2ca02c; stroke-width: 1.5; stroke-linecap: square"/>
    </g>
    <g id="text_19">
     <!-- 2 -->
     <g transform="translate(427.398438 53.154688)scale(0.1 -0.1)">
      <use xlink:href="#DejaVuSans-32"/>
     </g>
    </g>
   </g>
  </g>
 </g>
 <defs>
  <clipPath id="p5f98b12812">
   <rect x="52.160938" y="7.2" width="390.6" height="166.32"/>
  </clipPath>
 </defs>
</svg>
