<svg width="307" height="173" xmlns="http://www.w3.org/2000/svg" xmlns:xlink="http://www.w3.org/1999/xlink" overflow="hidden"><defs><clipPath id="clip0"><rect x="0" y="0" width="307" height="173"/></clipPath></defs><g clip-path="url(#clip0)"><rect x="0" y="0" width="307" height="173.261" fill="#FFFFFF"/><path d="M5.00002 143.216C5.00002 138.791 8.58174 135.204 13 135.204 17.4183 135.204 21 138.791 21 143.216 21 147.641 17.4183 151.228 13 151.228 8.58174 151.228 5.00002 147.641 5.00002 143.216Z" fill="#BFBFBF" fill-rule="evenodd"/><path d="M232 143.716C232 139.015 235.582 135.204 240 135.204 244.418 135.204 248 139.015 248 143.716 248 148.418 244.418 152.229 240 152.229 235.582 152.229 232 148.418 232 143.716Z" fill="#BFBFBF" fill-rule="evenodd"/><path d="M74.4939 42.7573 239.164 143.524 12.8946 143.725Z" stroke="#000000" stroke-width="1.33407" stroke-miterlimit="8" fill="none" fill-rule="evenodd"/><text font-family="Times New Roman,Times New Roman_MSFontService,sans-serif" font-style="italic" font-weight="400" font-size="19" transform="matrix(1 0 0 1.00151 26.1334 137)">90</text><text font-family="Times New Roman,Times New Roman_MSFontService,sans-serif" font-style="italic" font-weight="400" font-size="12" transform="matrix(1 0 0 1.00151 44.79 131)">o</text><text font-family="Times New Roman,Times New Roman_MSFontService,sans-serif" font-style="italic" font-weight="400" font-size="19" transform="matrix(1 0 0 1.00151 50.9533 137)">-</text><text font-family="Times New Roman,Times New Roman_MSFontService,sans-serif" font-style="italic" font-weight="400" font-size="19" transform="matrix(1 0 0 1.00151 57.1166 137)">θ</text><path d="M43.5464 98.5154C60.7555 103.419 72.1807 121.057 71.1985 141.204" stroke="#000000" stroke-width="1.33269" stroke-miterlimit="8" fill="none" fill-rule="evenodd"/><path d="M0 0 0.562319 141.17" stroke="#BFBFBF" stroke-width="1.99891" stroke-miterlimit="8" stroke-dasharray="7.99566 5.99674" fill="none" fill-rule="evenodd" transform="matrix(-1 0 0 1.00151 11.5623 3.00457)"/><path d="M0 0 62.1617 101.225" stroke="#000000" stroke-width="1.33261" stroke-miterlimit="8" fill="none" fill-rule="evenodd" transform="matrix(1 0 0 -1.00151 241.5 144.944)"/><text fill="#BFBFBF" font-family="Times New Roman,Times New Roman_MSFontService,sans-serif" font-style="italic" font-weight="400" font-size="24" transform="matrix(1 0 0 1.00151 14.6739 113)">θ</text><text fill="#0070C0" font-family="Times New Roman,Times New Roman_MSFontService,sans-serif" font-style="italic" font-weight="400" font-size="24" transform="matrix(1 0 0 1.00151 101.896 163)">d</text><path d="M0 0 0.562319 141.17" stroke="#BFBFBF" stroke-width="1.99891" stroke-miterlimit="8" stroke-dasharray="7.99566 5.99674" fill="none" fill-rule="evenodd" transform="matrix(-1 0 0 1.00151 238.562 4.00606)"/><text fill="#BFBFBF" font-family="Times New Roman,Times New Roman_MSFontService,sans-serif" font-style="italic" font-weight="400" font-size="24" transform="matrix(1 0 0 1.00151 241.536 117)">θ</text><text fill="#FF0000" font-family="Times New Roman,Times New Roman_MSFontService,sans-serif" font-weight="700" font-size="24" transform="matrix(1 0 0 1.00151 32.4584 80)">?</text><path d="M0 0 62.1617 101.225" stroke="#FF0000" stroke-width="7.99566" stroke-miterlimit="8" stroke-opacity="0.4" fill="none" fill-rule="evenodd" transform="matrix(1 0 0 -1.00151 12 143.441)"/></g></svg>