<?xml version="1.0" encoding="utf-8" standalone="no"?>
<!DOCTYPE svg PUBLIC "-//W3C//DTD SVG 1.1//EN"
  "http://www.w3.org/Graphics/SVG/1.1/DTD/svg11.dtd">
<svg xmlns:xlink="http://www.w3.org/1999/xlink" width="329.41825pt" height="318.190125pt" viewBox="0 0 329.41825 318.190125" xmlns="http://www.w3.org/2000/svg" version="1.1">
 <metadata>
  <rdf:RDF xmlns:dc="http://purl.org/dc/elements/1.1/" xmlns:cc="http://creativecommons.org/ns#" xmlns:rdf="http://www.w3.org/1999/02/22-rdf-syntax-ns#">
   <cc:Work>
    <dc:type rdf:resource="http://purl.org/dc/dcmitype/StillImage"/>
    <dc:date>2023-04-05T01:00:32.919591</dc:date>
    <dc:format>image/svg+xml</dc:format>
    <dc:creator>
     <cc:Agent>
      <dc:title>Matplotlib v3.5.1, https://matplotlib.org/</dc:title>
     </cc:Agent>
    </dc:creator>
   </cc:Work>
  </rdf:RDF>
 </metadata>
 <defs>
  <style type="text/css">*{stroke-linejoin: round; stroke-linecap: butt}</style>
 </defs>
 <g id="figure_1">
  <g id="patch_1">
   <path d="M 0 318.190125 
L 329.41825 318.190125 
L 329.41825 0 
L 0 0 
z
" style="fill: #ffffff"/>
  </g>
  <g id="axes_1">
   <g id="patch_2">
    <path d="M 299.35575 159.095062 
C 299.35575 141.622309 295.913998 124.319455 289.227465 108.176736 
C 282.540932 92.034016 272.739653 77.365365 260.38455 65.010263 
C 248.029447 52.65516 233.360796 42.853881 217.218077 36.167347 
C 201.075357 29.480814 183.772504 26.039062 166.29975 26.039062 
C 148.826996 26.039062 131.524143 29.480814 115.381423 36.167347 
C 99.238704 42.853881 84.570053 52.65516 72.21495 65.010263 
C 59.859847 77.365365 50.058568 92.034016 43.372035 108.176736 
C 36.685502 124.319455 33.24375 141.622309 33.24375 159.095062 
C 33.24375 176.567816 36.685502 193.87067 43.372035 210.013389 
C 50.058568 226.156109 59.859847 240.82476 72.21495 253.179862 
C 84.570053 265.534965 99.238704 275.336244 115.381423 282.022778 
C 131.524143 288.709311 148.826996 292.151062 166.29975 292.151062 
C 183.772504 292.151062 201.075357 288.709311 217.218077 282.022778 
C 233.360796 275.336244 248.029447 265.534965 260.38455 253.179862 
C 272.739653 240.82476 282.540932 226.156109 289.227465 210.013389 
C 295.913998 193.87067 299.35575 176.567816 299.35575 159.095062 
M 166.29975 159.095062 
C 166.29975 159.095062 166.29975 159.095062 166.29975 159.095062 
C 166.29975 159.095062 166.29975 159.095062 166.29975 159.095062 
C 166.29975 159.095062 166.29975 159.095062 166.29975 159.095062 
C 166.29975 159.095062 166.29975 159.095062 166.29975 159.095062 
C 166.29975 159.095062 166.29975 159.095062 166.29975 159.095062 
C 166.29975 159.095062 166.29975 159.095062 166.29975 159.095062 
C 166.29975 159.095062 166.29975 159.095062 166.29975 159.095062 
C 166.29975 159.095062 166.29975 159.095062 166.29975 159.095062 
C 166.29975 159.095062 166.29975 159.095062 166.29975 159.095062 
C 166.29975 159.095062 166.29975 159.095062 166.29975 159.095062 
C 166.29975 159.095062 166.29975 159.095062 166.29975 159.095062 
C 166.29975 159.095062 166.29975 159.095062 166.29975 159.095062 
C 166.29975 159.095062 166.29975 159.095062 166.29975 159.095062 
C 166.29975 159.095062 166.29975 159.095062 166.29975 159.095062 
C 166.29975 159.095062 166.29975 159.095062 166.29975 159.095062 
C 166.29975 159.095062 166.29975 159.095062 166.29975 159.095062 
M 299.35575 159.095062 
z
" style="fill: #ffffff"/>
   </g>
   <g id="matplotlib.axis_1">
    <g id="xtick_1">
     <g id="line2d_1">
      <path d="M 166.29975 159.095062 
L 166.29975 26.039062 
" clip-path="url(#p06a50788ea)" style="fill: none; stroke: #b0b0b0; stroke-width: 0.8; stroke-linecap: square"/>
     </g>
     <g id="text_1">
      <!-- 0° -->
      <g transform="translate(160.6185 14.798437)scale(0.1 -0.1)">
       <defs>
        <path id="DejaVuSans-30" d="M 2034 4250 
Q 1547 4250 1301 3770 
Q 1056 3291 1056 2328 
Q 1056 1369 1301 889 
Q 1547 409 2034 409 
Q 2525 409 2770 889 
Q 3016 1369 3016 2328 
Q 3016 3291 2770 3770 
Q 2525 4250 2034 4250 
z
M 2034 4750 
Q 2819 4750 3233 4129 
Q 3647 3509 3647 2328 
Q 3647 1150 3233 529 
Q 2819 -91 2034 -91 
Q 1250 -91 836 529 
Q 422 1150 422 2328 
Q 422 3509 836 4129 
Q 1250 4750 2034 4750 
z
" transform="scale(0.015625)"/>
        <path id="DejaVuSans-b0" d="M 1600 4347 
Q 1350 4347 1178 4173 
Q 1006 4000 1006 3750 
Q 1006 3503 1178 3333 
Q 1350 3163 1600 3163 
Q 1850 3163 2022 3333 
Q 2194 3503 2194 3750 
Q 2194 3997 2020 4172 
Q 1847 4347 1600 4347 
z
M 1600 4750 
Q 1800 4750 1984 4673 
Q 2169 4597 2303 4453 
Q 2447 4313 2519 4134 
Q 2591 3956 2591 3750 
Q 2591 3338 2302 3052 
Q 2013 2766 1594 2766 
Q 1172 2766 890 3047 
Q 609 3328 609 3750 
Q 609 4169 896 4459 
Q 1184 4750 1600 4750 
z
" transform="scale(0.015625)"/>
       </defs>
       <use xlink:href="#DejaVuSans-30"/>
       <use xlink:href="#DejaVuSans-b0" x="63.623047"/>
      </g>
     </g>
    </g>
    <g id="xtick_2">
     <g id="line2d_2">
      <path d="M 166.29975 159.095062 
L 260.38455 65.010263 
" clip-path="url(#p06a50788ea)" style="fill: none; stroke: #b0b0b0; stroke-width: 0.8; stroke-linecap: square"/>
     </g>
     <g id="text_2">
      <!-- 45° -->
      <g transform="translate(261.421545 57.870143)scale(0.1 -0.1)">
       <defs>
        <path id="DejaVuSans-34" d="M 2419 4116 
L 825 1625 
L 2419 1625 
L 2419 4116 
z
M 2253 4666 
L 3047 4666 
L 3047 1625 
L 3713 1625 
L 3713 1100 
L 3047 1100 
L 3047 0 
L 2419 0 
L 2419 1100 
L 313 1100 
L 313 1709 
L 2253 4666 
z
" transform="scale(0.015625)"/>
        <path id="DejaVuSans-35" d="M 691 4666 
L 3169 4666 
L 3169 4134 
L 1269 4134 
L 1269 2991 
Q 1406 3038 1543 3061 
Q 1681 3084 1819 3084 
Q 2600 3084 3056 2656 
Q 3513 2228 3513 1497 
Q 3513 744 3044 326 
Q 2575 -91 1722 -91 
Q 1428 -91 1123 -41 
Q 819 9 494 109 
L 494 744 
Q 775 591 1075 516 
Q 1375 441 1709 441 
Q 2250 441 2565 725 
Q 2881 1009 2881 1497 
Q 2881 1984 2565 2268 
Q 2250 2553 1709 2553 
Q 1456 2553 1204 2497 
Q 953 2441 691 2322 
L 691 4666 
z
" transform="scale(0.015625)"/>
       </defs>
       <use xlink:href="#DejaVuSans-34"/>
       <use xlink:href="#DejaVuSans-35" x="63.623047"/>
       <use xlink:href="#DejaVuSans-b0" x="127.246094"/>
      </g>
     </g>
    </g>
    <g id="xtick_3">
     <g id="line2d_3">
      <path d="M 166.29975 159.095062 
L 299.35575 159.095062 
" clip-path="url(#p06a50788ea)" style="fill: none; stroke: #b0b0b0; stroke-width: 0.8; stroke-linecap: square"/>
     </g>
     <g id="text_3">
      <!-- 90° -->
      <g transform="translate(304.49325 161.854437)scale(0.1 -0.1)">
       <defs>
        <path id="DejaVuSans-39" d="M 703 97 
L 703 672 
Q 941 559 1184 500 
Q 1428 441 1663 441 
Q 2288 441 2617 861 
Q 2947 1281 2994 2138 
Q 2813 1869 2534 1725 
Q 2256 1581 1919 1581 
Q 1219 1581 811 2004 
Q 403 2428 403 3163 
Q 403 3881 828 4315 
Q 1253 4750 1959 4750 
Q 2769 4750 3195 4129 
Q 3622 3509 3622 2328 
Q 3622 1225 3098 567 
Q 2575 -91 1691 -91 
Q 1453 -91 1209 -44 
Q 966 3 703 97 
z
M 1959 2075 
Q 2384 2075 2632 2365 
Q 2881 2656 2881 3163 
Q 2881 3666 2632 3958 
Q 2384 4250 1959 4250 
Q 1534 4250 1286 3958 
Q 1038 3666 1038 3163 
Q 1038 2656 1286 2365 
Q 1534 2075 1959 2075 
z
" transform="scale(0.015625)"/>
       </defs>
       <use xlink:href="#DejaVuSans-39"/>
       <use xlink:href="#DejaVuSans-30" x="63.623047"/>
       <use xlink:href="#DejaVuSans-b0" x="127.246094"/>
      </g>
     </g>
    </g>
    <g id="xtick_4">
     <g id="line2d_4">
      <path d="M 166.29975 159.095062 
L 260.38455 253.179862 
" clip-path="url(#p06a50788ea)" style="fill: none; stroke: #b0b0b0; stroke-width: 0.8; stroke-linecap: square"/>
     </g>
     <g id="text_4">
      <!-- 135° -->
      <g transform="translate(258.240295 265.838732)scale(0.1 -0.1)">
       <defs>
        <path id="DejaVuSans-31" d="M 794 531 
L 1825 531 
L 1825 4091 
L 703 3866 
L 703 4441 
L 1819 4666 
L 2450 4666 
L 2450 531 
L 3481 531 
L 3481 0 
L 794 0 
L 794 531 
z
" transform="scale(0.015625)"/>
        <path id="DejaVuSans-33" d="M 2597 2516 
Q 3050 2419 3304 2112 
Q 3559 1806 3559 1356 
Q 3559 666 3084 287 
Q 2609 -91 1734 -91 
Q 1441 -91 1130 -33 
Q 819 25 488 141 
L 488 750 
Q 750 597 1062 519 
Q 1375 441 1716 441 
Q 2309 441 2620 675 
Q 2931 909 2931 1356 
Q 2931 1769 2642 2001 
Q 2353 2234 1838 2234 
L 1294 2234 
L 1294 2753 
L 1863 2753 
Q 2328 2753 2575 2939 
Q 2822 3125 2822 3475 
Q 2822 3834 2567 4026 
Q 2313 4219 1838 4219 
Q 1578 4219 1281 4162 
Q 984 4106 628 3988 
L 628 4550 
Q 988 4650 1302 4700 
Q 1616 4750 1894 4750 
Q 2613 4750 3031 4423 
Q 3450 4097 3450 3541 
Q 3450 3153 3228 2886 
Q 3006 2619 2597 2516 
z
" transform="scale(0.015625)"/>
       </defs>
       <use xlink:href="#DejaVuSans-31"/>
       <use xlink:href="#DejaVuSans-33" x="63.623047"/>
       <use xlink:href="#DejaVuSans-35" x="127.246094"/>
       <use xlink:href="#DejaVuSans-b0" x="190.869141"/>
      </g>
     </g>
    </g>
    <g id="xtick_5">
     <g id="line2d_5">
      <path d="M 166.29975 159.095062 
L 166.29975 292.151062 
" clip-path="url(#p06a50788ea)" style="fill: none; stroke: #b0b0b0; stroke-width: 0.8; stroke-linecap: square"/>
     </g>
     <g id="text_5">
      <!-- 180° -->
      <g transform="translate(154.256 308.910437)scale(0.1 -0.1)">
       <defs>
        <path id="DejaVuSans-38" d="M 2034 2216 
Q 1584 2216 1326 1975 
Q 1069 1734 1069 1313 
Q 1069 891 1326 650 
Q 1584 409 2034 409 
Q 2484 409 2743 651 
Q 3003 894 3003 1313 
Q 3003 1734 2745 1975 
Q 2488 2216 2034 2216 
z
M 1403 2484 
Q 997 2584 770 2862 
Q 544 3141 544 3541 
Q 544 4100 942 4425 
Q 1341 4750 2034 4750 
Q 2731 4750 3128 4425 
Q 3525 4100 3525 3541 
Q 3525 3141 3298 2862 
Q 3072 2584 2669 2484 
Q 3125 2378 3379 2068 
Q 3634 1759 3634 1313 
Q 3634 634 3220 271 
Q 2806 -91 2034 -91 
Q 1263 -91 848 271 
Q 434 634 434 1313 
Q 434 1759 690 2068 
Q 947 2378 1403 2484 
z
M 1172 3481 
Q 1172 3119 1398 2916 
Q 1625 2713 2034 2713 
Q 2441 2713 2670 2916 
Q 2900 3119 2900 3481 
Q 2900 3844 2670 4047 
Q 2441 4250 2034 4250 
Q 1625 4250 1398 4047 
Q 1172 3844 1172 3481 
z
" transform="scale(0.015625)"/>
       </defs>
       <use xlink:href="#DejaVuSans-31"/>
       <use xlink:href="#DejaVuSans-38" x="63.623047"/>
       <use xlink:href="#DejaVuSans-30" x="127.246094"/>
       <use xlink:href="#DejaVuSans-b0" x="190.869141"/>
      </g>
     </g>
    </g>
    <g id="xtick_6">
     <g id="line2d_6">
      <path d="M 166.29975 159.095062 
L 72.21495 253.179862 
" clip-path="url(#p06a50788ea)" style="fill: none; stroke: #b0b0b0; stroke-width: 0.8; stroke-linecap: square"/>
     </g>
     <g id="text_6">
      <!-- 225° -->
      <g transform="translate(50.271705 265.838732)scale(0.1 -0.1)">
       <defs>
        <path id="DejaVuSans-32" d="M 1228 531 
L 3431 531 
L 3431 0 
L 469 0 
L 469 531 
Q 828 903 1448 1529 
Q 2069 2156 2228 2338 
Q 2531 2678 2651 2914 
Q 2772 3150 2772 3378 
Q 2772 3750 2511 3984 
Q 2250 4219 1831 4219 
Q 1534 4219 1204 4116 
Q 875 4013 500 3803 
L 500 4441 
Q 881 4594 1212 4672 
Q 1544 4750 1819 4750 
Q 2544 4750 2975 4387 
Q 3406 4025 3406 3419 
Q 3406 3131 3298 2873 
Q 3191 2616 2906 2266 
Q 2828 2175 2409 1742 
Q 1991 1309 1228 531 
z
" transform="scale(0.015625)"/>
       </defs>
       <use xlink:href="#DejaVuSans-32"/>
       <use xlink:href="#DejaVuSans-32" x="63.623047"/>
       <use xlink:href="#DejaVuSans-35" x="127.246094"/>
       <use xlink:href="#DejaVuSans-b0" x="190.869141"/>
      </g>
     </g>
    </g>
    <g id="xtick_7">
     <g id="line2d_7">
      <path d="M 166.29975 159.095062 
L 33.24375 159.095062 
" clip-path="url(#p06a50788ea)" style="fill: none; stroke: #b0b0b0; stroke-width: 0.8; stroke-linecap: square"/>
     </g>
     <g id="text_7">
      <!-- 270° -->
      <g transform="translate(7.2 161.854437)scale(0.1 -0.1)">
       <defs>
        <path id="DejaVuSans-37" d="M 525 4666 
L 3525 4666 
L 3525 4397 
L 1831 0 
L 1172 0 
L 2766 4134 
L 525 4134 
L 525 4666 
z
" transform="scale(0.015625)"/>
       </defs>
       <use xlink:href="#DejaVuSans-32"/>
       <use xlink:href="#DejaVuSans-37" x="63.623047"/>
       <use xlink:href="#DejaVuSans-30" x="127.246094"/>
       <use xlink:href="#DejaVuSans-b0" x="190.869141"/>
      </g>
     </g>
    </g>
    <g id="xtick_8">
     <g id="line2d_8">
      <path d="M 166.29975 159.095062 
L 72.21495 65.010263 
" clip-path="url(#p06a50788ea)" style="fill: none; stroke: #b0b0b0; stroke-width: 0.8; stroke-linecap: square"/>
     </g>
     <g id="text_8">
      <!-- 315° -->
      <g transform="translate(50.271705 57.870143)scale(0.1 -0.1)">
       <use xlink:href="#DejaVuSans-33"/>
       <use xlink:href="#DejaVuSans-31" x="63.623047"/>
       <use xlink:href="#DejaVuSans-35" x="127.246094"/>
       <use xlink:href="#DejaVuSans-b0" x="190.869141"/>
      </g>
     </g>
    </g>
   </g>
   <g id="matplotlib.axis_2">
    <g id="ytick_1">
     <g id="line2d_9">
      <path d="M 166.29975 151.107836 
C 167.348623 151.107836 168.387297 151.314441 169.356329 151.715827 
C 170.325362 152.117213 171.205907 152.705575 171.947572 153.44724 
C 172.689238 154.188905 173.277599 155.069451 173.678985 156.038483 
C 174.080372 157.007515 174.286977 158.046189 174.286977 159.095062 
C 174.286977 160.143936 174.080372 161.18261 173.678985 162.151642 
C 173.277599 163.120674 172.689238 164.00122 171.947572 164.742885 
C 171.205907 165.48455 170.325362 166.072912 169.356329 166.474298 
C 168.387297 166.875684 167.348623 167.082289 166.29975 167.082289 
C 165.250877 167.082289 164.212203 166.875684 163.243171 166.474298 
C 162.274138 166.072912 161.393593 165.48455 160.651928 164.742885 
C 159.910262 164.00122 159.321901 163.120674 158.920515 162.151642 
C 158.519128 161.18261 158.312523 160.143936 158.312523 159.095062 
C 158.312523 158.046189 158.519128 157.007515 158.920515 156.038483 
C 159.321901 155.069451 159.910262 154.188905 160.651928 153.44724 
C 161.393593 152.705575 162.274138 152.117213 163.243171 151.715827 
C 164.212203 151.314441 165.250877 151.107836 166.29975 151.107836 
" clip-path="url(#p06a50788ea)" style="fill: none; stroke: #b0b0b0; stroke-width: 0.8; stroke-linecap: square"/>
     </g>
     <g id="text_9">
      <!-- −0.75 -->
      <g transform="translate(170.293363 150.098234)scale(0.1 -0.1)">
       <defs>
        <path id="DejaVuSans-2212" d="M 678 2272 
L 4684 2272 
L 4684 1741 
L 678 1741 
L 678 2272 
z
" transform="scale(0.015625)"/>
        <path id="DejaVuSans-2e" d="M 684 794 
L 1344 794 
L 1344 0 
L 684 0 
L 684 794 
z
" transform="scale(0.015625)"/>
       </defs>
       <use xlink:href="#DejaVuSans-2212"/>
       <use xlink:href="#DejaVuSans-30" x="83.789062"/>
       <use xlink:href="#DejaVuSans-2e" x="147.412109"/>
       <use xlink:href="#DejaVuSans-37" x="179.199219"/>
       <use xlink:href="#DejaVuSans-35" x="242.822266"/>
      </g>
     </g>
    </g>
    <g id="ytick_2">
     <g id="line2d_10">
      <path d="M 166.29975 134.104868 
C 169.581432 134.104868 172.831204 134.751288 175.863083 136.007133 
C 178.894962 137.262979 181.649986 139.103827 183.970486 141.424327 
C 186.290986 143.744826 188.131834 146.49985 189.387679 149.531729 
C 190.643525 152.563608 191.289944 155.81338 191.289944 159.095062 
C 191.289944 162.376745 190.643525 165.626517 189.387679 168.658396 
C 188.131834 171.690275 186.290986 174.445299 183.970486 176.765798 
C 181.649986 179.086298 178.894962 180.927146 175.863083 182.182992 
C 172.831204 183.438837 169.581432 184.085257 166.29975 184.085257 
C 163.018068 184.085257 159.768296 183.438837 156.736417 182.182992 
C 153.704538 180.927146 150.949514 179.086298 148.629014 176.765798 
C 146.308514 174.445299 144.467666 171.690275 143.211821 168.658396 
C 141.955975 165.626517 141.309556 162.376745 141.309556 159.095062 
C 141.309556 155.81338 141.955975 152.563608 143.211821 149.531729 
C 144.467666 146.49985 146.308514 143.744826 148.629014 141.424327 
C 150.949514 139.103827 153.704538 137.262979 156.736417 136.007133 
C 159.768296 134.751288 163.018068 134.104868 166.29975 134.104868 
" clip-path="url(#p06a50788ea)" style="fill: none; stroke: #b0b0b0; stroke-width: 0.8; stroke-linecap: square"/>
     </g>
     <g id="text_10">
      <!-- −0.50 -->
      <g transform="translate(178.794847 135.373232)scale(0.1 -0.1)">
       <use xlink:href="#DejaVuSans-2212"/>
       <use xlink:href="#DejaVuSans-30" x="83.789062"/>
       <use xlink:href="#DejaVuSans-2e" x="147.412109"/>
       <use xlink:href="#DejaVuSans-35" x="179.199219"/>
       <use xlink:href="#DejaVuSans-30" x="242.822266"/>
      </g>
     </g>
    </g>
    <g id="ytick_3">
     <g id="line2d_11">
      <path d="M 166.29975 117.1019 
C 171.814242 117.1019 177.275112 118.188135 182.369837 120.29844 
C 187.464563 122.408744 192.094065 125.502078 195.9934 129.401413 
C 199.892734 133.300747 202.986068 137.930249 205.096373 143.024975 
C 207.206677 148.119701 208.292912 153.580571 208.292912 159.095062 
C 208.292912 164.609554 207.206677 170.070424 205.096373 175.16515 
C 202.986068 180.259876 199.892734 184.889378 195.9934 188.788712 
C 192.094065 192.688047 187.464563 195.781381 182.369837 197.891685 
C 177.275112 200.00199 171.814242 201.088225 166.29975 201.088225 
C 160.785258 201.088225 155.324388 200.00199 150.229663 197.891685 
C 145.134937 195.781381 140.505435 192.688047 136.6061 188.788712 
C 132.706766 184.889378 129.613432 180.259876 127.503127 175.16515 
C 125.392823 170.070424 124.306588 164.609554 124.306588 159.095062 
C 124.306588 153.580571 125.392823 148.119701 127.503127 143.024975 
C 129.613432 137.930249 132.706766 133.300747 136.6061 129.401413 
C 140.505435 125.502078 145.134937 122.408744 150.229663 120.29844 
C 155.324388 118.188135 160.785258 117.1019 166.29975 117.1019 
" clip-path="url(#p06a50788ea)" style="fill: none; stroke: #b0b0b0; stroke-width: 0.8; stroke-linecap: square"/>
     </g>
     <g id="text_11">
      <!-- −0.25 -->
      <g transform="translate(187.296331 120.64823)scale(0.1 -0.1)">
       <use xlink:href="#DejaVuSans-2212"/>
       <use xlink:href="#DejaVuSans-30" x="83.789062"/>
       <use xlink:href="#DejaVuSans-2e" x="147.412109"/>
       <use xlink:href="#DejaVuSans-32" x="179.199219"/>
       <use xlink:href="#DejaVuSans-35" x="242.822266"/>
      </g>
     </g>
    </g>
    <g id="ytick_4">
     <g id="line2d_12">
      <path d="M 166.29975 100.098933 
C 174.047051 100.098933 181.719019 101.624982 188.876591 104.589746 
C 196.034164 107.554509 202.538144 111.90033 208.016313 117.378499 
C 213.494482 122.856668 217.840303 129.360648 220.805067 136.518221 
C 223.76983 143.675794 225.29588 151.347762 225.29588 159.095062 
C 225.29588 166.842363 223.76983 174.514331 220.805067 181.671904 
C 217.840303 188.829477 213.494482 195.333457 208.016313 200.811626 
C 202.538144 206.289795 196.034164 210.635616 188.876591 213.600379 
C 181.719019 216.565143 174.047051 218.091192 166.29975 218.091192 
C 158.552449 218.091192 150.880481 216.565143 143.722909 213.600379 
C 136.565336 210.635616 130.061356 206.289795 124.583187 200.811626 
C 119.105018 195.333457 114.759197 188.829477 111.794433 181.671904 
C 108.82967 174.514331 107.30362 166.842363 107.30362 159.095062 
C 107.30362 151.347762 108.82967 143.675794 111.794433 136.518221 
C 114.759197 129.360648 119.105018 122.856668 124.583187 117.378499 
C 130.061356 111.90033 136.565336 107.554509 143.722909 104.589746 
C 150.880481 101.624982 158.552449 100.098933 166.29975 100.098933 
" clip-path="url(#p06a50788ea)" style="fill: none; stroke: #b0b0b0; stroke-width: 0.8; stroke-linecap: square"/>
     </g>
     <g id="text_12">
      <!-- 0.00 -->
      <g transform="translate(195.797815 105.923228)scale(0.1 -0.1)">
       <use xlink:href="#DejaVuSans-30"/>
       <use xlink:href="#DejaVuSans-2e" x="63.623047"/>
       <use xlink:href="#DejaVuSans-30" x="95.410156"/>
       <use xlink:href="#DejaVuSans-30" x="159.033203"/>
      </g>
     </g>
    </g>
    <g id="ytick_5">
     <g id="line2d_13">
      <path d="M 166.29975 83.095965 
C 176.27986 83.095965 186.162926 85.061829 195.383345 88.881052 
C 204.603765 92.700275 212.982224 98.298582 220.039227 105.355585 
C 227.09623 112.412589 232.694538 120.791048 236.51376 130.011467 
C 240.332983 139.231886 242.298847 149.114952 242.298847 159.095062 
C 242.298847 169.075173 240.332983 178.958239 236.51376 188.178658 
C 232.694538 197.399077 227.09623 205.777536 220.039227 212.83454 
C 212.982224 219.891543 204.603765 225.48985 195.383345 229.309073 
C 186.162926 233.128296 176.27986 235.09416 166.29975 235.09416 
C 156.31964 235.09416 146.436574 233.128296 137.216155 229.309073 
C 127.995735 225.48985 119.617276 219.891543 112.560273 212.83454 
C 105.50327 205.777536 99.904962 197.399077 96.08574 188.178658 
C 92.266517 178.958239 90.300653 169.075173 90.300653 159.095062 
C 90.300653 149.114952 92.266517 139.231886 96.08574 130.011467 
C 99.904962 120.791048 105.50327 112.412589 112.560273 105.355585 
C 119.617276 98.298582 127.995735 92.700275 137.216155 88.881052 
C 146.436574 85.061829 156.31964 83.095965 166.29975 83.095965 
" clip-path="url(#p06a50788ea)" style="fill: none; stroke: #b0b0b0; stroke-width: 0.8; stroke-linecap: square"/>
     </g>
     <g id="text_13">
      <!-- 0.25 -->
      <g transform="translate(204.299299 91.198226)scale(0.1 -0.1)">
       <use xlink:href="#DejaVuSans-30"/>
       <use xlink:href="#DejaVuSans-2e" x="63.623047"/>
       <use xlink:href="#DejaVuSans-32" x="95.410156"/>
       <use xlink:href="#DejaVuSans-35" x="159.033203"/>
      </g>
     </g>
    </g>
    <g id="ytick_6">
     <g id="line2d_14">
      <path d="M 166.29975 66.092998 
C 178.512669 66.092998 190.606833 68.498676 201.890099 73.172358 
C 213.173366 77.84604 223.426303 84.696834 232.062141 93.332672 
C 240.697979 101.96851 247.548772 112.221447 252.222454 123.504713 
C 256.896136 134.787979 259.301815 146.882143 259.301815 159.095062 
C 259.301815 171.307982 256.896136 183.402146 252.222454 194.685412 
C 247.548772 205.968678 240.697979 216.221615 232.062141 224.857453 
C 223.426303 233.493291 213.173366 240.344085 201.890099 245.017767 
C 190.606833 249.691449 178.512669 252.097127 166.29975 252.097127 
C 154.086831 252.097127 141.992667 249.691449 130.709401 245.017767 
C 119.426134 240.344085 109.173197 233.493291 100.537359 224.857453 
C 91.901521 216.221615 85.050728 205.968678 80.377046 194.685412 
C 75.703364 183.402146 73.297685 171.307982 73.297685 159.095062 
C 73.297685 146.882143 75.703364 134.787979 80.377046 123.504713 
C 85.050728 112.221447 91.901521 101.96851 100.537359 93.332672 
C 109.173197 84.696834 119.426134 77.84604 130.709401 73.172358 
C 141.992667 68.498676 154.086831 66.092998 166.29975 66.092998 
" clip-path="url(#p06a50788ea)" style="fill: none; stroke: #b0b0b0; stroke-width: 0.8; stroke-linecap: square"/>
     </g>
     <g id="text_14">
      <!-- 0.50 -->
      <g transform="translate(212.800782 76.473224)scale(0.1 -0.1)">
       <use xlink:href="#DejaVuSans-30"/>
       <use xlink:href="#DejaVuSans-2e" x="63.623047"/>
       <use xlink:href="#DejaVuSans-35" x="95.410156"/>
       <use xlink:href="#DejaVuSans-30" x="159.033203"/>
      </g>
     </g>
    </g>
    <g id="ytick_7">
     <g id="line2d_15">
      <path d="M 166.29975 49.09003 
C 180.745478 49.09003 195.05074 51.935524 208.396853 57.463665 
C 221.742966 62.991806 233.870382 71.095086 244.085054 81.309758 
C 254.299727 91.524431 262.403007 103.651846 267.931148 116.997959 
C 273.459289 130.344072 276.304782 144.649334 276.304782 159.095062 
C 276.304782 173.540791 273.459289 187.846053 267.931148 201.192166 
C 262.403007 214.538279 254.299727 226.665694 244.085054 236.880367 
C 233.870382 247.095039 221.742966 255.198319 208.396853 260.72646 
C 195.05074 266.254601 180.745478 269.100095 166.29975 269.100095 
C 151.854022 269.100095 137.54876 266.254601 124.202647 260.72646 
C 110.856534 255.198319 98.729118 247.095039 88.514446 236.880367 
C 78.299773 226.665694 70.196493 214.538279 64.668352 201.192166 
C 59.140211 187.846053 56.294718 173.540791 56.294718 159.095062 
C 56.294718 144.649334 59.140211 130.344072 64.668352 116.997959 
C 70.196493 103.651846 78.299773 91.524431 88.514446 81.309758 
C 98.729118 71.095086 110.856534 62.991806 124.202647 57.463665 
C 137.54876 51.935524 151.854022 49.09003 166.29975 49.09003 
" clip-path="url(#p06a50788ea)" style="fill: none; stroke: #b0b0b0; stroke-width: 0.8; stroke-linecap: square"/>
     </g>
     <g id="text_15">
      <!-- 0.75 -->
      <g transform="translate(221.302266 61.748222)scale(0.1 -0.1)">
       <use xlink:href="#DejaVuSans-30"/>
       <use xlink:href="#DejaVuSans-2e" x="63.623047"/>
       <use xlink:href="#DejaVuSans-37" x="95.410156"/>
       <use xlink:href="#DejaVuSans-35" x="159.033203"/>
      </g>
     </g>
    </g>
    <g id="ytick_8">
     <g id="line2d_16">
      <path d="M 166.29975 32.087062 
C 182.978288 32.087062 199.494648 35.372371 214.903607 41.754971 
C 230.312567 48.137571 244.314461 57.493337 256.107968 69.286844 
C 267.901475 81.080352 277.257242 95.082245 283.639842 110.491205 
C 290.022442 125.900165 293.30775 142.416525 293.30775 159.095062 
C 293.30775 175.7736 290.022442 192.28996 283.639842 207.69892 
C 277.257242 223.10788 267.901475 237.109773 256.107968 248.903281 
C 244.314461 260.696788 230.312567 270.052554 214.903607 276.435154 
C 199.494648 282.817754 182.978288 286.103062 166.29975 286.103062 
C 149.621212 286.103062 133.104852 282.817754 117.695893 276.435154 
C 102.286933 270.052554 88.285039 260.696788 76.491532 248.903281 
C 64.698025 237.109773 55.342258 223.10788 48.959658 207.69892 
C 42.577058 192.28996 39.29175 175.7736 39.29175 159.095062 
C 39.29175 142.416525 42.577058 125.900165 48.959658 110.491205 
C 55.342258 95.082245 64.698025 81.080352 76.491532 69.286844 
C 88.285039 57.493337 102.286933 48.137571 117.695893 41.754971 
C 133.104852 35.372371 149.621212 32.087062 166.29975 32.087062 
" clip-path="url(#p06a50788ea)" style="fill: none; stroke: #b0b0b0; stroke-width: 0.8; stroke-linecap: square"/>
     </g>
     <g id="text_16">
      <!-- 1.00 -->
      <g transform="translate(229.80375 47.023221)scale(0.1 -0.1)">
       <use xlink:href="#DejaVuSans-31"/>
       <use xlink:href="#DejaVuSans-2e" x="63.623047"/>
       <use xlink:href="#DejaVuSans-30" x="95.410156"/>
       <use xlink:href="#DejaVuSans-30" x="159.033203"/>
      </g>
     </g>
    </g>
   </g>
   <g id="line2d_17">
    <path d="M 166.29975 178.551124 
L 165.854081 173.26228 
L 165.634823 167.888374 
L 165.501443 165.104038 
L 165.421525 165.123702 
L 165.148214 165.810842 
L 163.174664 171.578912 
L 162.018608 174.168196 
L 161.201187 175.467385 
L 160.748892 175.802606 
L 160.542054 175.723142 
L 160.409324 175.43861 
L 160.320066 174.462851 
L 160.249448 172.15028 
L 160.110914 172.020503 
L 159.894515 172.05148 
L 159.397376 172.418269 
L 158.358245 173.523405 
L 148.900805 184.321361 
L 145.201189 188.096365 
L 141.173807 191.866495 
L 138.10664 194.464399 
L 135.175686 196.664641 
L 132.54669 198.307922 
L 131.026716 199.046177 
L 129.716745 199.494079 
L 128.617095 199.670732 
L 127.71224 199.610837 
L 126.975967 199.35743 
L 126.377645 198.954445 
L 125.675785 198.152715 
L 125.144122 197.195977 
L 124.641108 195.759278 
L 124.423595 194.571285 
L 124.375563 193.274425 
L 124.534085 191.853072 
L 124.927537 190.30187 
L 125.564864 188.632014 
L 126.765811 186.270562 
L 128.284092 183.842251 
L 130.443986 180.862518 
L 133.120988 177.561441 
L 137.774758 172.260223 
L 140.675406 168.834371 
L 141.982305 166.962475 
L 142.677631 165.604076 
L 143.057617 164.410914 
L 143.229245 163.163015 
L 143.220529 161.38878 
L 143.17345 157.894003 
L 143.198198 154.646028 
L 142.951879 153.367282 
L 142.470687 152.12411 
L 141.638596 150.685872 
L 140.359232 148.954485 
L 137.936482 146.112581 
L 132.013636 139.299965 
L 129.340855 135.854876 
L 127.30412 132.827848 
L 125.971322 130.429414 
L 125.216077 128.709736 
L 124.700347 127.096706 
L 124.426873 125.610134 
L 124.376035 124.25256 
L 124.51343 123.012317 
L 124.928968 121.513522 
L 125.576853 120.187991 
L 126.246079 119.355056 
L 126.814661 118.921062 
L 127.513536 118.626251 
L 128.373508 118.513789 
L 129.422482 118.627593 
L 130.679218 119.005174 
L 132.147706 119.670117 
L 133.814098 120.6265 
L 136.613404 122.564848 
L 139.633818 124.986341 
L 142.707003 127.714627 
L 146.638313 131.526159 
L 150.968976 136.102055 
L 155.042934 140.74828 
L 159.495901 145.860299 
L 159.956613 146.162039 
L 160.152334 146.151786 
L 160.273503 145.983831 
L 160.347202 145.472554 
L 160.5022 142.520644 
L 160.689957 142.385931 
L 160.954455 142.484115 
L 161.484445 143.102389 
L 162.131941 144.243411 
L 163.060575 146.326053 
L 164.293031 149.712244 
L 165.484407 153.102273 
L 165.542485 152.951595 
L 165.610024 151.553038 
L 165.825715 145.396974 
L 166.240364 140.210748 
L 166.820327 135.450438 
L 167.651175 130.466864 
L 168.726542 125.601438 
L 169.674528 122.1925 
L 171.101192 118.016098 
L 172.715037 114.06459 
L 176.197642 106.362077 
L 190.260423 75.732183 
L 194.957282 66.041224 
L 198.486898 59.070831 
L 202.210159 52.133586 
L 205.853572 46.015997 
L 207.513189 43.607177 
L 208.986614 41.813868 
L 210.228007 40.724943 
L 211.213745 40.3635 
L 211.944748 40.686888 
L 212.440349 41.60834 
L 212.727819 43.027194 
L 212.833086 44.853001 
L 212.775728 47.016758 
L 212.568301 49.470708 
L 211.731977 55.12263 
L 210.3792 61.580305 
L 208.598442 68.571101 
L 206.514375 75.780112 
L 204.2554 82.92282 
L 200.761553 93.084732 
L 197.335966 102.285438 
L 194.094774 110.423896 
L 190.142986 119.680457 
L 186.647572 127.293486 
L 182.928077 134.823105 
L 179.407808 141.429964 
L 174.974615 149.575652 
L 174.936419 149.969517 
L 175.047046 150.082458 
L 175.413099 150.053081 
L 176.261832 149.696323 
L 185.037972 145.417824 
L 187.524282 144.603461 
L 189.236356 144.266425 
L 190.577258 144.251895 
L 191.301725 144.449733 
L 191.782769 144.806775 
L 192.039022 145.294828 
L 192.102985 145.881151 
L 191.958512 146.759748 
L 191.443187 148.155333 
L 189.484422 152.784964 
L 189.266255 154.069772 
L 189.248627 155.56751 
L 189.401281 160.513482 
L 189.259792 164.04333 
L 189.463718 165.321352 
L 189.923373 166.738003 
L 190.856634 168.783891 
L 191.854569 171.084929 
L 192.097706 172.204031 
L 192.010672 172.98437 
L 191.718913 173.4528 
L 191.198131 173.785069 
L 190.432566 173.954226 
L 189.426074 173.943439 
L 187.755121 173.645562 
L 185.809894 173.055531 
L 183.207372 172.016019 
L 180.197581 170.57175 
L 175.200386 168.094208 
L 174.953942 168.181715 
L 174.951097 168.528903 
L 175.33295 169.456919 
L 176.741783 172.027276 
L 181.337027 180.320937 
L 184.69787 186.877351 
L 187.904133 193.572721 
L 191.572438 201.776749 
L 194.619486 209.049179 
L 197.896183 217.364903 
L 201.343654 226.738047 
L 204.830244 237.033995 
L 207.05655 244.216016 
L 209.077278 251.399532 
L 210.761778 258.286068 
L 211.991907 264.565089 
L 212.690216 269.980349 
L 212.823802 272.294066 
L 212.80183 274.296039 
L 212.608366 275.928443 
L 212.220329 277.110964 
L 211.610195 277.745792 
L 210.753314 277.735544 
L 209.638384 277.011876 
L 208.276473 275.563468 
L 206.703157 273.447842 
L 204.972026 270.779613 
L 201.272992 264.36112 
L 197.579535 257.358239 
L 192.51276 247.156334 
L 186.926597 235.35559 
L 178.442759 216.75821 
L 171.682769 201.662985 
L 170.188597 197.608917 
L 169.186617 194.324019 
L 168.296334 190.79804 
L 167.309882 185.850138 
L 166.57418 180.910525 
L 166.29975 178.551124 
L 166.29975 178.551124 
" clip-path="url(#p06a50788ea)" style="fill: none; stroke: #1f77b4; stroke-width: 1.5; stroke-linecap: square"/>
   </g>
   <g id="patch_3">
    <path d="M 166.29975 26.039062 
C 148.826996 26.039062 131.524143 29.480814 115.381423 36.167347 
C 99.238704 42.853881 84.570053 52.65516 72.21495 65.010263 
C 59.859847 77.365365 50.058568 92.034016 43.372035 108.176736 
C 36.685502 124.319455 33.24375 141.622309 33.24375 159.095062 
C 33.24375 176.567816 36.685502 193.87067 43.372035 210.013389 
C 50.058568 226.156109 59.859847 240.82476 72.21495 253.179862 
C 84.570053 265.534965 99.238704 275.336244 115.381423 282.022778 
C 131.524143 288.709311 148.826996 292.151062 166.29975 292.151062 
C 183.772504 292.151062 201.075357 288.709311 217.218077 282.022778 
C 233.360796 275.336244 248.029447 265.534965 260.38455 253.179862 
C 272.739653 240.82476 282.540932 226.156109 289.227465 210.013389 
C 295.913998 193.87067 299.35575 176.567816 299.35575 159.095062 
C 299.35575 141.622309 295.913998 124.319455 289.227465 108.176736 
C 282.540932 92.034016 272.739653 77.365365 260.38455 65.010263 
C 248.029447 52.65516 233.360796 42.853881 217.218077 36.167347 
C 201.075357 29.480814 183.772504 26.039062 166.29975 26.039062 
" style="fill: none; stroke: #000000; stroke-width: 0.8; stroke-linejoin: miter; stroke-linecap: square"/>
   </g>
  </g>
 </g>
 <defs>
  <clipPath id="p06a50788ea">
   <path d="M 299.35575 159.095062 
C 299.35575 141.622309 295.913998 124.319455 289.227465 108.176736 
C 282.540932 92.034016 272.739653 77.365365 260.38455 65.010263 
C 248.029447 52.65516 233.360796 42.853881 217.218077 36.167347 
C 201.075357 29.480814 183.772504 26.039062 166.29975 26.039062 
C 148.826996 26.039062 131.524143 29.480814 115.381423 36.167347 
C 99.238704 42.853881 84.570053 52.65516 72.21495 65.010263 
C 59.859847 77.365365 50.058568 92.034016 43.372035 108.176736 
C 36.685502 124.319455 33.24375 141.622309 33.24375 159.095062 
C 33.24375 176.567816 36.685502 193.87067 43.372035 210.013389 
C 50.058568 226.156109 59.859847 240.82476 72.21495 253.179862 
C 84.570053 265.534965 99.238704 275.336244 115.381423 282.022778 
C 131.524143 288.709311 148.826996 292.151062 166.29975 292.151062 
C 183.772504 292.151062 201.075357 288.709311 217.218077 282.022778 
C 233.360796 275.336244 248.029447 265.534965 260.38455 253.179862 
C 272.739653 240.82476 282.540932 226.156109 289.227465 210.013389 
C 295.913998 193.87067 299.35575 176.567816 299.35575 159.095062 
M 166.29975 159.095062 
C 166.29975 159.095062 166.29975 159.095062 166.29975 159.095062 
C 166.29975 159.095062 166.29975 159.095062 166.29975 159.095062 
C 166.29975 159.095062 166.29975 159.095062 166.29975 159.095062 
C 166.29975 159.095062 166.29975 159.095062 166.29975 159.095062 
C 166.29975 159.095062 166.29975 159.095062 166.29975 159.095062 
C 166.29975 159.095062 166.29975 159.095062 166.29975 159.095062 
C 166.29975 159.095062 166.29975 159.095062 166.29975 159.095062 
C 166.29975 159.095062 166.29975 159.095062 166.29975 159.095062 
C 166.29975 159.095062 166.29975 159.095062 166.29975 159.095062 
C 166.29975 159.095062 166.29975 159.095062 166.29975 159.095062 
C 166.29975 159.095062 166.29975 159.095062 166.29975 159.095062 
C 166.29975 159.095062 166.29975 159.095062 166.29975 159.095062 
C 166.29975 159.095062 166.29975 159.095062 166.29975 159.095062 
C 166.29975 159.095062 166.29975 159.095062 166.29975 159.095062 
C 166.29975 159.095062 166.29975 159.095062 166.29975 159.095062 
C 166.29975 159.095062 166.29975 159.095062 166.29975 159.095062 
M 299.35575 159.095062 
z
"/>
  </clipPath>
 </defs>
</svg>
