<?xml version="1.0" encoding="UTF-8" standalone="no"?>
<svg
   width="329.41825pt"
   height="318.190125pt"
   viewBox="0 0 329.41825 318.190125"
   version="1.1"
   id="svg213"
   sodipodi:docname="doa_from_behind.svg"
   inkscape:version="1.2.2 (b0a8486541, 2022-12-01)"
   xmlns:inkscape="http://www.inkscape.org/namespaces/inkscape"
   xmlns:sodipodi="http://sodipodi.sourceforge.net/DTD/sodipodi-0.dtd"
   xmlns:xlink="http://www.w3.org/1999/xlink"
   xmlns="http://www.w3.org/2000/svg"
   xmlns:svg="http://www.w3.org/2000/svg"
   xmlns:rdf="http://www.w3.org/1999/02/22-rdf-syntax-ns#"
   xmlns:cc="http://creativecommons.org/ns#"
   xmlns:dc="http://purl.org/dc/elements/1.1/">
  <sodipodi:namedview
     id="namedview215"
     pagecolor="#ffffff"
     bordercolor="#000000"
     borderopacity="0.25"
     inkscape:showpageshadow="2"
     inkscape:pageopacity="0.0"
     inkscape:pagecheckerboard="0"
     inkscape:deskcolor="#d1d1d1"
     inkscape:document-units="pt"
     showgrid="false"
     inkscape:zoom="1.7117093"
     inkscape:cx="-4.0894794"
     inkscape:cy="157.15285"
     inkscape:window-width="2560"
     inkscape:window-height="1369"
     inkscape:window-x="-8"
     inkscape:window-y="-8"
     inkscape:window-maximized="1"
     inkscape:current-layer="svg213" />
  <metadata
     id="metadata2">
    <rdf:RDF>
      <cc:Work>
        <dc:type
           rdf:resource="http://purl.org/dc/dcmitype/StillImage" />
        <dc:date>2023-04-03T01:26:02.032378</dc:date>
        <dc:format>image/svg+xml</dc:format>
        <dc:creator>
          <cc:Agent>
            <dc:title>Matplotlib v3.5.1, https://matplotlib.org/</dc:title>
          </cc:Agent>
        </dc:creator>
      </cc:Work>
    </rdf:RDF>
  </metadata>
  <defs
     id="defs6">
    <style
       type="text/css"
       id="style4">*{stroke-linejoin: round; stroke-linecap: butt}</style>
  </defs>
  <g
     id="patch_2">
    <path
       d="m 299.35575,159.09506 c 0,-17.47275 -3.44175,-34.7756 -10.12829,-50.91832 C 282.54093,92.034016 272.73965,77.365365 260.38455,65.010263 248.02945,52.65516 233.3608,42.853881 217.21808,36.167347 201.07536,29.480814 183.7725,26.039062 166.29975,26.039062 c -17.47275,0 -34.77561,3.441752 -50.91833,10.128285 C 99.238704,42.853881 84.570053,52.65516 72.21495,65.010263 59.859847,77.365365 50.058568,92.034016 43.372035,108.17674 36.685502,124.31946 33.24375,141.62231 33.24375,159.09506 c 0,17.47276 3.441752,34.77561 10.128285,50.91833 6.686533,16.14272 16.487812,30.81137 28.842915,43.16647 12.355103,12.3551 27.023754,22.15638 43.16647,28.84292 16.14272,6.68653 33.44558,10.12828 50.91833,10.12828 17.47275,0 34.77561,-3.44175 50.91833,-10.12828 16.14272,-6.68654 30.81137,-16.48782 43.16647,-28.84292 12.3551,-12.3551 22.15638,-27.02375 28.84291,-43.16647 6.68654,-16.14272 10.12829,-33.44557 10.12829,-50.91833 m -133.056,0 c 0,0 0,0 0,0 0,0 0,0 0,0 0,0 0,0 0,0 0,0 0,0 0,0 0,0 0,0 0,0 0,0 0,0 0,0 0,0 0,0 0,0 0,0 0,0 0,0 0,0 0,0 0,0 0,0 0,0 0,0 0,0 0,0 0,0 0,0 0,0 0,0 0,0 0,0 0,0 0,0 0,0 0,0 0,0 0,0 0,0 0,0 0,0 0,0 m 133.056,0 z"
       style="fill:#ffffff"
       id="path11" />
  </g>
  <g
     id="matplotlib.axis_1">
    <g
       id="xtick_1">
      <g
         id="line2d_1">
        <path
           d="M 166.29975,159.09506 V 26.039062"
           clip-path="url(#p21f5c89158)"
           style="fill:none;stroke:#b0b0b0;stroke-width:0.8;stroke-linecap:square"
           id="path14" />
      </g>
      <g
         id="text_1">
        <!-- 0° -->
        <g
           transform="matrix(0.1,0,0,-0.1,160.6185,14.798437)"
           id="g25">
          <defs
             id="defs19">
            <path
               id="DejaVuSans-30"
               d="m 2034,4250 q -487,0 -733,-480 -245,-479 -245,-1442 0,-959 245,-1439 246,-480 733,-480 491,0 736,480 246,480 246,1439 0,963 -246,1442 -245,480 -736,480 z m 0,500 q 785,0 1199,-621 414,-620 414,-1801 0,-1178 -414,-1799 -414,-620 -1199,-620 -784,0 -1198,620 -414,621 -414,1799 0,1181 414,1801 414,621 1198,621 z"
               transform="scale(0.015625)" />
            <path
               id="DejaVuSans-b0"
               d="m 1600,4347 q -250,0 -422,-174 -172,-173 -172,-423 0,-247 172,-417 172,-170 422,-170 250,0 422,170 172,170 172,417 0,247 -174,422 -173,175 -420,175 z m 0,403 q 200,0 384,-77 185,-76 319,-220 144,-140 216,-319 72,-178 72,-384 0,-412 -289,-698 -289,-286 -708,-286 -422,0 -704,281 -281,281 -281,703 0,419 287,709 288,291 704,291 z"
               transform="scale(0.015625)" />
          </defs>
          <use
             xlink:href="#DejaVuSans-30"
             id="use21" />
          <use
             xlink:href="#DejaVuSans-b0"
             x="63.623047"
             id="use23" />
        </g>
      </g>
    </g>
    <g
       id="xtick_2">
      <g
         id="line2d_2">
        <path
           d="m 166.29975,159.09506 94.0848,-94.084797"
           clip-path="url(#p21f5c89158)"
           style="fill:none;stroke:#b0b0b0;stroke-width:0.8;stroke-linecap:square"
           id="path29" />
      </g>
      <g
         id="text_2">
        <!-- 45° -->
        <g
           transform="matrix(0.1,0,0,-0.1,261.42154,57.870143)"
           id="g42">
          <defs
             id="defs34">
            <path
               id="DejaVuSans-34"
               d="M 2419,4116 825,1625 h 1594 z m -166,550 h 794 V 1625 h 666 V 1100 H 3047 V 0 H 2419 V 1100 H 313 v 609 z"
               transform="scale(0.015625)" />
            <path
               id="DejaVuSans-35"
               d="M 691,4666 H 3169 V 4134 H 1269 V 2991 q 137,47 274,70 138,23 276,23 781,0 1237,-428 457,-428 457,-1159 Q 3513,744 3044,326 2575,-91 1722,-91 1428,-91 1123,-41 819,9 494,109 v 635 q 281,-153 581,-228 300,-75 634,-75 541,0 856,284 316,284 316,772 0,487 -316,771 -315,285 -856,285 -253,0 -505,-56 -251,-56 -513,-175 z"
               transform="scale(0.015625)" />
          </defs>
          <use
             xlink:href="#DejaVuSans-34"
             id="use36" />
          <use
             xlink:href="#DejaVuSans-35"
             x="63.623047"
             id="use38" />
          <use
             xlink:href="#DejaVuSans-b0"
             x="127.24609"
             id="use40" />
        </g>
      </g>
    </g>
    <g
       id="xtick_3">
      <g
         id="line2d_3">
        <path
           d="m 166.29975,159.09506 h 133.056"
           clip-path="url(#p21f5c89158)"
           style="fill:none;stroke:#b0b0b0;stroke-width:0.8;stroke-linecap:square"
           id="path46" />
      </g>
      <g
         id="text_3">
        <!-- 90° -->
        <g
           transform="matrix(0.1,0,0,-0.1,304.49325,161.85444)"
           id="g58">
          <defs
             id="defs50">
            <path
               id="DejaVuSans-39"
               d="m 703,97 v 575 q 238,-113 481,-172 244,-59 479,-59 625,0 954,420 330,420 377,1277 -181,-269 -460,-413 -278,-144 -615,-144 -700,0 -1108,423 -408,424 -408,1159 0,718 425,1152 425,435 1131,435 810,0 1236,-621 427,-620 427,-1801 Q 3622,1225 3098,567 2575,-91 1691,-91 1453,-91 1209,-44 966,3 703,97 Z m 1256,1978 q 425,0 673,290 249,291 249,798 0,503 -249,795 -248,292 -673,292 -425,0 -673,-292 -248,-292 -248,-795 0,-507 248,-798 248,-290 673,-290 z"
               transform="scale(0.015625)" />
          </defs>
          <use
             xlink:href="#DejaVuSans-39"
             id="use52" />
          <use
             xlink:href="#DejaVuSans-30"
             x="63.623047"
             id="use54" />
          <use
             xlink:href="#DejaVuSans-b0"
             x="127.24609"
             id="use56" />
        </g>
      </g>
    </g>
    <g
       id="xtick_4">
      <g
         id="line2d_4">
        <path
           d="m 166.29975,159.09506 94.0848,94.0848"
           clip-path="url(#p21f5c89158)"
           style="fill:none;stroke:#b0b0b0;stroke-width:0.8;stroke-linecap:square"
           id="path62" />
      </g>
      <g
         id="text_4">
        <!-- 135° -->
        <g
           transform="matrix(0.1,0,0,-0.1,258.24029,265.83873)"
           id="g77">
          <defs
             id="defs67">
            <path
               id="DejaVuSans-31"
               d="M 794,531 H 1825 V 4091 L 703,3866 v 575 l 1116,225 h 631 V 531 H 3481 V 0 H 794 Z"
               transform="scale(0.015625)" />
            <path
               id="DejaVuSans-33"
               d="m 2597,2516 q 453,-97 707,-404 255,-306 255,-756 0,-690 -475,-1069 -475,-378 -1350,-378 -293,0 -604,58 -311,58 -642,174 v 609 q 262,-153 574,-231 313,-78 654,-78 593,0 904,234 311,234 311,681 0,413 -289,645 -289,233 -804,233 h -544 v 519 h 569 q 465,0 712,186 247,186 247,536 0,359 -255,551 -254,193 -729,193 -260,0 -557,-57 -297,-56 -653,-174 v 562 q 360,100 674,150 314,50 592,50 719,0 1137,-327 419,-326 419,-882 0,-388 -222,-655 -222,-267 -631,-370 z"
               transform="scale(0.015625)" />
          </defs>
          <use
             xlink:href="#DejaVuSans-31"
             id="use69" />
          <use
             xlink:href="#DejaVuSans-33"
             x="63.623047"
             id="use71" />
          <use
             xlink:href="#DejaVuSans-35"
             x="127.24609"
             id="use73" />
          <use
             xlink:href="#DejaVuSans-b0"
             x="190.86914"
             id="use75" />
        </g>
      </g>
    </g>
    <g
       id="xtick_5">
      <g
         id="line2d_5">
        <path
           d="m 166.29975,159.09506 v 133.056"
           clip-path="url(#p21f5c89158)"
           style="fill:none;stroke:#b0b0b0;stroke-width:0.8;stroke-linecap:square"
           id="path81" />
      </g>
      <g
         id="text_5">
        <!-- 180° -->
        <g
           transform="matrix(0.1,0,0,-0.1,154.256,308.91044)"
           id="g95">
          <defs
             id="defs85">
            <path
               id="DejaVuSans-38"
               d="m 2034,2216 q -450,0 -708,-241 -257,-241 -257,-662 0,-422 257,-663 258,-241 708,-241 450,0 709,242 260,243 260,662 0,421 -258,662 -257,241 -711,241 z m -631,268 q -406,100 -633,378 -226,279 -226,679 0,559 398,884 399,325 1092,325 697,0 1094,-325 397,-325 397,-884 0,-400 -227,-679 -226,-278 -629,-378 456,-106 710,-416 255,-309 255,-755 Q 3634,634 3220,271 2806,-91 2034,-91 1263,-91 848,271 434,634 434,1313 q 0,446 256,755 257,310 713,416 z m -231,997 q 0,-362 226,-565 227,-203 636,-203 407,0 636,203 230,203 230,565 0,363 -230,566 -229,203 -636,203 -409,0 -636,-203 -226,-203 -226,-566 z"
               transform="scale(0.015625)" />
          </defs>
          <use
             xlink:href="#DejaVuSans-31"
             id="use87" />
          <use
             xlink:href="#DejaVuSans-38"
             x="63.623047"
             id="use89" />
          <use
             xlink:href="#DejaVuSans-30"
             x="127.24609"
             id="use91" />
          <use
             xlink:href="#DejaVuSans-b0"
             x="190.86914"
             id="use93" />
        </g>
      </g>
    </g>
    <g
       id="xtick_6">
      <g
         id="line2d_6">
        <path
           d="m 166.29975,159.09506 -94.0848,94.0848"
           clip-path="url(#p21f5c89158)"
           style="fill:none;stroke:#b0b0b0;stroke-width:0.8;stroke-linecap:square"
           id="path99" />
      </g>
      <g
         id="text_6">
        <!-- 225° -->
        <g
           transform="matrix(0.1,0,0,-0.1,50.271705,265.83873)"
           id="g113">
          <defs
             id="defs103">
            <path
               id="DejaVuSans-32"
               d="M 1228,531 H 3431 V 0 H 469 v 531 q 359,372 979,998 621,627 780,809 303,340 423,576 121,236 121,464 0,372 -261,606 -261,235 -680,235 -297,0 -627,-103 -329,-103 -704,-313 v 638 q 381,153 712,231 332,78 607,78 725,0 1156,-363 431,-362 431,-968 0,-288 -108,-546 -107,-257 -392,-607 -78,-91 -497,-524 Q 1991,1309 1228,531 Z"
               transform="scale(0.015625)" />
          </defs>
          <use
             xlink:href="#DejaVuSans-32"
             id="use105" />
          <use
             xlink:href="#DejaVuSans-32"
             x="63.623047"
             id="use107" />
          <use
             xlink:href="#DejaVuSans-35"
             x="127.24609"
             id="use109" />
          <use
             xlink:href="#DejaVuSans-b0"
             x="190.86914"
             id="use111" />
        </g>
      </g>
    </g>
    <g
       id="xtick_7">
      <g
         id="line2d_7">
        <path
           d="M 166.29975,159.09506 H 33.24375"
           clip-path="url(#p21f5c89158)"
           style="fill:none;stroke:#b0b0b0;stroke-width:0.8;stroke-linecap:square"
           id="path117" />
      </g>
      <g
         id="text_7">
        <!-- 270° -->
        <g
           transform="matrix(0.1,0,0,-0.1,7.2,161.85444)"
           id="g131">
          <defs
             id="defs121">
            <path
               id="DejaVuSans-37"
               d="M 525,4666 H 3525 V 4397 L 1831,0 H 1172 L 2766,4134 H 525 Z"
               transform="scale(0.015625)" />
          </defs>
          <use
             xlink:href="#DejaVuSans-32"
             id="use123" />
          <use
             xlink:href="#DejaVuSans-37"
             x="63.623047"
             id="use125" />
          <use
             xlink:href="#DejaVuSans-30"
             x="127.24609"
             id="use127" />
          <use
             xlink:href="#DejaVuSans-b0"
             x="190.86914"
             id="use129" />
        </g>
      </g>
    </g>
    <g
       id="xtick_8">
      <g
         id="line2d_8">
        <path
           d="M 166.29975,159.09506 72.21495,65.010263"
           clip-path="url(#p21f5c89158)"
           style="fill:none;stroke:#b0b0b0;stroke-width:0.8;stroke-linecap:square"
           id="path135" />
      </g>
      <g
         id="text_8">
        <!-- 315° -->
        <g
           transform="matrix(0.1,0,0,-0.1,50.271705,57.870143)"
           id="g146">
          <use
             xlink:href="#DejaVuSans-33"
             id="use138" />
          <use
             xlink:href="#DejaVuSans-31"
             x="63.623047"
             id="use140" />
          <use
             xlink:href="#DejaVuSans-35"
             x="127.24609"
             id="use142" />
          <use
             xlink:href="#DejaVuSans-b0"
             x="190.86914"
             id="use144" />
        </g>
      </g>
    </g>
  </g>
  <g
     id="line2d_9">
    <path
       d="m 166.29975,159.09506 c 0,0 0,0 0,0 0,0 0,0 0,0 0,0 0,0 0,0 0,0 0,0 0,0 0,0 0,0 0,0 0,0 0,0 0,0 0,0 0,0 0,0 0,0 0,0 0,0 0,0 0,0 0,0 0,0 0,0 0,0 0,0 0,0 0,0 0,0 0,0 0,0 0,0 0,0 0,0 0,0 0,0 0,0 0,0 0,0 0,0 0,0 0,0 0,0"
       clip-path="url(#p21f5c89158)"
       style="fill:none;stroke:#b0b0b0;stroke-width:0.8;stroke-linecap:square"
       id="path151" />
  </g>
  <g
     id="line2d_10">
    <path
       d="m 166.29975,131.10177 c 3.67604,0 7.31635,0.7241 10.71257,2.13086 3.39622,1.40676 6.48232,3.46883 9.08168,6.06819 2.59935,2.59935 4.66142,5.68545 6.06818,9.08167 1.40676,3.39623 2.13086,7.03653 2.13086,10.71257 0,3.67605 -0.7241,7.31635 -2.13086,10.71257 -1.40676,3.39622 -3.46883,6.48232 -6.06818,9.08168 -2.59936,2.59936 -5.68546,4.66142 -9.08168,6.06818 -3.39622,1.40676 -7.03653,2.13086 -10.71257,2.13086 -3.67605,0 -7.31635,-0.7241 -10.71257,-2.13086 -3.39622,-1.40676 -6.48232,-3.46882 -9.08168,-6.06818 -2.59935,-2.59936 -4.66142,-5.68546 -6.06818,-9.08168 -1.40676,-3.39622 -2.13086,-7.03652 -2.13086,-10.71257 0,-3.67604 0.7241,-7.31634 2.13086,-10.71257 1.40676,-3.39622 3.46883,-6.48232 6.06818,-9.08167 2.59936,-2.59936 5.68546,-4.66143 9.08168,-6.06819 3.39622,-1.40676 7.03652,-2.13086 10.71257,-2.13086"
       clip-path="url(#p21f5c89158)"
       style="fill:none;stroke:#b0b0b0;stroke-width:0.8;stroke-linecap:square"
       id="path160" />
  </g>
  <g
     id="line2d_11">
    <path
       d="m 166.29975,103.10848 c 7.35209,0 14.63269,1.4482 21.42514,4.26172 6.79244,2.81353 12.96464,6.93766 18.16335,12.13637 5.19872,5.19871 9.32285,11.37091 12.13637,18.16335 2.81352,6.79245 4.26172,14.07305 4.26172,21.42514 0,7.35209 -1.4482,14.63269 -4.26172,21.42514 -2.81352,6.79245 -6.93765,12.96464 -12.13637,18.16336 -5.19871,5.19871 -11.37091,9.32284 -18.16335,12.13636 -6.79245,2.81353 -14.07305,4.26173 -21.42514,4.26173 -7.35209,0 -14.63269,-1.4482 -21.42514,-4.26173 -6.79245,-2.81352 -12.96464,-6.93765 -18.16335,-12.13636 -5.19872,-5.19872 -9.32285,-11.37091 -12.13637,-18.16336 -2.81352,-6.79245 -4.26173,-14.07305 -4.26173,-21.42514 0,-7.35209 1.44821,-14.63269 4.26173,-21.42514 2.81352,-6.79244 6.93765,-12.96464 12.13637,-18.16335 5.19871,-5.19871 11.3709,-9.32284 18.16335,-12.13637 6.79245,-2.81352 14.07305,-4.26172 21.42514,-4.26172"
       clip-path="url(#p21f5c89158)"
       style="fill:none;stroke:#b0b0b0;stroke-width:0.8;stroke-linecap:square"
       id="path169" />
  </g>
  <g
     id="line2d_12">
    <path
       d="m 166.29975,75.115186 c 11.02814,0 21.94904,2.172302 32.13771,6.392587 10.18867,4.220285 19.44696,10.406479 27.24503,18.204549 7.79807,7.798068 13.98426,17.056368 18.20455,27.245038 4.22028,10.18866 6.39259,21.10957 6.39259,32.1377 0,11.02814 -2.17231,21.94904 -6.39259,32.13771 -4.22029,10.18867 -10.40648,19.44696 -18.20455,27.24503 -7.79807,7.79807 -17.05636,13.98427 -27.24503,18.20455 -10.18867,4.22029 -21.10957,6.39259 -32.13771,6.39259 -11.02814,0 -21.94904,-2.1723 -32.13771,-6.39259 -10.18867,-4.22028 -19.44696,-10.40648 -27.24503,-18.20455 -7.798071,-7.79807 -13.984264,-17.05636 -18.204549,-27.24503 -4.220286,-10.18867 -6.392588,-21.10957 -6.392588,-32.13771 0,-11.02813 2.172302,-21.94904 6.392588,-32.1377 4.220285,-10.18867 10.406478,-19.44697 18.204549,-27.245038 7.79807,-7.79807 17.05636,-13.984264 27.24503,-18.204549 10.18867,-4.220285 21.10957,-6.392587 32.13771,-6.392587"
       clip-path="url(#p21f5c89158)"
       style="fill:none;stroke:#b0b0b0;stroke-width:0.8;stroke-linecap:square"
       id="path178" />
  </g>
  <g
     id="line2d_13">
    <path
       d="m 166.29975,47.121893 c 14.70418,0 29.26538,2.896403 42.85028,8.52345 13.58489,5.627047 25.92928,13.875305 36.32671,24.272732 10.39742,10.397427 18.64568,22.741815 24.27273,36.326715 5.62705,13.58489 8.52345,28.14609 8.52345,42.85027 0,14.70418 -2.8964,29.26539 -8.52345,42.85028 -5.62705,13.58489 -13.87531,25.92928 -24.27273,36.32671 -10.39743,10.39743 -22.74182,18.64568 -36.32671,24.27273 -13.5849,5.62705 -28.1461,8.52345 -42.85028,8.52345 -14.70418,0 -29.26538,-2.8964 -42.85028,-8.52345 -13.58489,-5.62705 -25.929281,-13.8753 -36.326707,-24.27273 -10.397427,-10.39743 -18.645685,-22.74182 -24.272732,-36.32671 -5.627047,-13.58489 -8.52345,-28.1461 -8.52345,-42.85028 0,-14.70418 2.896403,-29.26538 8.52345,-42.85027 5.627047,-13.5849 13.875305,-25.929288 24.272732,-36.326715 10.397426,-10.397427 22.741817,-18.645685 36.326707,-24.272732 13.5849,-5.627047 28.1461,-8.52345 42.85028,-8.52345"
       clip-path="url(#p21f5c89158)"
       style="fill:none;stroke:#b0b0b0;stroke-width:0.8;stroke-linecap:square"
       id="path190" />
  </g>
  <g
     id="patch_3">
    <path
       d="m 166.29975,26.039062 c -17.47275,0 -34.77561,3.441752 -50.91833,10.128285 C 99.238704,42.853881 84.570053,52.65516 72.21495,65.010263 59.859847,77.365365 50.058568,92.034016 43.372035,108.17674 36.685502,124.31946 33.24375,141.62231 33.24375,159.09506 c 0,17.47276 3.441752,34.77561 10.128285,50.91833 6.686533,16.14272 16.487812,30.81137 28.842915,43.16647 12.355103,12.3551 27.023754,22.15638 43.16647,28.84292 16.14272,6.68653 33.44558,10.12828 50.91833,10.12828 17.47275,0 34.77561,-3.44175 50.91833,-10.12828 16.14272,-6.68654 30.81137,-16.48782 43.16647,-28.84292 12.3551,-12.3551 22.15638,-27.02375 28.84291,-43.16647 6.68654,-16.14272 10.12829,-33.44557 10.12829,-50.91833 0,-17.47275 -3.44175,-34.7756 -10.12829,-50.91832 C 282.54093,92.034016 272.73965,77.365365 260.38455,65.010263 248.02945,52.65516 233.3608,42.853881 217.21808,36.167347 201.07536,29.480814 183.7725,26.039062 166.29975,26.039062"
       style="fill:none;stroke:#000000;stroke-width:0.8;stroke-linecap:square;stroke-linejoin:miter"
       id="path203" />
  </g>
  <defs
     id="defs211">
    <clipPath
       id="p21f5c89158">
      <path
         d="M 299.35575 159.095062  C 299.35575 141.622309 295.913998 124.319455 289.227465 108.176736  C 282.540932 92.034016 272.739653 77.365365 260.38455 65.010263  C 248.029447 52.65516 233.360796 42.853881 217.218077 36.167347  C 201.075357 29.480814 183.772504 26.039062 166.29975 26.039062  C 148.826996 26.039062 131.524143 29.480814 115.381423 36.167347  C 99.238704 42.853881 84.570053 52.65516 72.21495 65.010263  C 59.859847 77.365365 50.058568 92.034016 43.372035 108.176736  C 36.685502 124.319455 33.24375 141.622309 33.24375 159.095062  C 33.24375 176.567816 36.685502 193.87067 43.372035 210.013389  C 50.058568 226.156109 59.859847 240.82476 72.21495 253.179862  C 84.570053 265.534965 99.238704 275.336244 115.381423 282.022778  C 131.524143 288.709311 148.826996 292.151062 166.29975 292.151062  C 183.772504 292.151062 201.075357 288.709311 217.218077 282.022778  C 233.360796 275.336244 248.029447 265.534965 260.38455 253.179862  C 272.739653 240.82476 282.540932 226.156109 289.227465 210.013389  C 295.913998 193.87067 299.35575 176.567816 299.35575 159.095062  M 166.29975 159.095062  C 166.29975 159.095062 166.29975 159.095062 166.29975 159.095062  C 166.29975 159.095062 166.29975 159.095062 166.29975 159.095062  C 166.29975 159.095062 166.29975 159.095062 166.29975 159.095062  C 166.29975 159.095062 166.29975 159.095062 166.29975 159.095062  C 166.29975 159.095062 166.29975 159.095062 166.29975 159.095062  C 166.29975 159.095062 166.29975 159.095062 166.29975 159.095062  C 166.29975 159.095062 166.29975 159.095062 166.29975 159.095062  C 166.29975 159.095062 166.29975 159.095062 166.29975 159.095062  C 166.29975 159.095062 166.29975 159.095062 166.29975 159.095062  C 166.29975 159.095062 166.29975 159.095062 166.29975 159.095062  C 166.29975 159.095062 166.29975 159.095062 166.29975 159.095062  C 166.29975 159.095062 166.29975 159.095062 166.29975 159.095062  C 166.29975 159.095062 166.29975 159.095062 166.29975 159.095062  C 166.29975 159.095062 166.29975 159.095062 166.29975 159.095062  C 166.29975 159.095062 166.29975 159.095062 166.29975 159.095062  C 166.29975 159.095062 166.29975 159.095062 166.29975 159.095062  M 299.35575 159.095062  z "
         id="path208" />
    </clipPath>
  </defs>
  <circle
     style="fill:#ff0000;fill-opacity:1;stroke-width:0.75"
     id="path1050"
     cx="166.36557"
     cy="159.40489"
     r="4.1826358" />
  <circle
     style="fill:#ff0000;fill-opacity:1;stroke-width:0.75;stroke-linecap:butt;stroke-linejoin:round"
     id="path1050-5"
     cx="241.66338"
     cy="159.24997"
     r="4.1826358" />
  <circle
     style="fill:#ff0000;fill-opacity:1;stroke-width:0.75;stroke-linecap:butt;stroke-linejoin:round"
     id="path1050-5-2"
     cx="91.398338"
     cy="158.63033"
     r="4.1826358" />
  <polygon
     points="233.18,0 233.18,141.73 902.25,141.73 902.25,222.99 233.18,222.99 233.18,364.72 0,182.36 "
     id="polygon5639"
     transform="matrix(0.02344216,-0.05082341,0.05082341,0.02344216,195.86577,44.721188)"
     style="fill:#009c00;fill-opacity:1;stroke:none;stroke-opacity:1" />
  <polygon
     points="902.25,222.99 233.18,222.99 233.18,364.72 0,182.36 233.18,0 233.18,141.73 902.25,141.73 "
     id="polygon5639-2"
     transform="matrix(0.02455278,0.05029627,-0.05029627,0.02455278,217.17625,264.16637)"
     style="fill:#009c00;fill-opacity:1;stroke:none;stroke-linecap:butt;stroke-linejoin:round;stroke-opacity:1" />
  <polygon
     points="0,182.36 233.18,0 233.18,141.73 902.25,141.73 902.25,222.99 233.18,222.99 233.18,364.72 "
     id="polygon5639-2-2"
     transform="matrix(1.2160311e-4,0.05596909,-0.05596909,1.2160311e-4,176.52623,104.72531)"
     style="fill:#c2c2c3;fill-opacity:1;stroke:none;stroke-linecap:butt;stroke-linejoin:round;stroke-opacity:1" />
  <g
     aria-label="Possible DOA"
     id="text7177"
     style="font-size:14.7875px;fill:#009c00;stroke-width:1.23229">
    <path
       d="m 238.73115,7.4291372 q 0,0.7148255 -0.25271,1.3285645 -0.2455,0.6065186 -0.69317,1.0541871 -0.55597,0.5559752 -1.31412,0.8375732 -0.75815,0.274377 -1.91342,0.274377 h -1.42965 v 4.007355 h -1.42965 V 4.1799306 h 2.91706 q 0.96754,0 1.63905,0.1660706 0.6715,0.1588501 1.19137,0.5054321 0.61374,0.4115662 0.94588,1.0253052 0.33936,0.613739 0.33936,1.5523987 z m -1.48741,0.036102 q 0,-0.5559753 -0.19495,-0.9675415 -0.19496,-0.4115662 -0.59208,-0.6715027 -0.34658,-0.2238342 -0.79425,-0.3177002 -0.44045,-0.1010864 -1.11917,-0.1010864 h -1.41521 v 4.2961732 h 1.20581 q 0.86646,0 1.40799,-0.1516297 0.54154,-0.1588501 0.8809,-0.4982117 0.33936,-0.346582 0.47655,-0.7292663 0.14441,-0.3826844 0.14441,-0.8592347 z"
       id="path11398" />
    <path
       d="m 247.02024,10.902178 q 0,1.971185 -1.01086,3.112018 -1.01087,1.140833 -2.70768,1.140833 -1.71125,0 -2.72211,-1.140833 -1.00364,-1.140833 -1.00364,-3.112018 0,-1.9711853 1.00364,-3.1120178 1.01086,-1.148053 2.72211,-1.148053 1.69681,0 2.70768,1.148053 1.01086,1.1408325 1.01086,3.1120178 z m -1.40077,0 q 0,-1.5668396 -0.61374,-2.3249878 -0.61374,-0.7653686 -1.70403,-0.7653686 -1.10473,0 -1.71847,0.7653686 -0.60651,0.7581482 -0.60651,2.3249878 0,1.516297 0.61373,2.303327 0.61374,0.779809 1.71125,0.779809 1.08307,0 1.69681,-0.772589 0.62096,-0.77981 0.62096,-2.310547 z"
       id="path11400" />
    <path
       d="m 254.88332,12.606206 q 0,1.104731 -0.917,1.812336 -0.90978,0.707605 -2.49106,0.707605 -0.89533,0 -1.64626,-0.209394 -0.74371,-0.216613 -1.24914,-0.469329 v -1.523517 h 0.0722 q 0.64262,0.48377 1.42965,0.772589 0.78703,0.281598 1.50908,0.281598 0.89534,0 1.40077,-0.288819 0.50543,-0.288818 0.50543,-0.909778 0,-0.47655 -0.27438,-0.722045 -0.27437,-0.245496 -1.05418,-0.418787 -0.28882,-0.06498 -0.75815,-0.15163 -0.46211,-0.08665 -0.84479,-0.187732 -1.06141,-0.281598 -1.50908,-0.823132 -0.44045,-0.5487549 -0.44045,-1.3430054 0,-0.4982117 0.20217,-0.9386597 0.2094,-0.440448 0.62818,-0.7870301 0.40435,-0.3393615 1.02531,-0.5343139 0.62818,-0.2021729 1.40077,-0.2021729 0.72204,0 1.45853,0.1805115 0.74371,0.173291 1.2347,0.4260071 v 1.4513123 h -0.0722 q -0.51987,-0.3826844 -1.26358,-0.6426209 -0.7437,-0.267157 -1.45853,-0.267157 -0.74371,0 -1.25636,0.2888184 -0.51265,0.2815979 -0.51265,0.8447937 0,0.4982117 0.31048,0.7509278 0.30326,0.252716 0.98198,0.4115661 0.37547,0.08665 0.83757,0.173291 0.46933,0.08665 0.77981,0.15885 0.94588,0.216614 1.45854,0.743707 0.51265,0.534314 0.51265,1.41521 z"
       id="path11402" />
    <path
       d="m 262.58755,12.606206 q 0,1.104731 -0.917,1.812336 -0.90978,0.707605 -2.49106,0.707605 -0.89533,0 -1.64626,-0.209394 -0.74371,-0.216613 -1.24914,-0.469329 v -1.523517 h 0.0722 q 0.64262,0.48377 1.42965,0.772589 0.78703,0.281598 1.50908,0.281598 0.89534,0 1.40077,-0.288819 0.50543,-0.288818 0.50543,-0.909778 0,-0.47655 -0.27438,-0.722045 -0.27437,-0.245496 -1.05418,-0.418787 -0.28882,-0.06498 -0.75815,-0.15163 -0.46211,-0.08665 -0.8448,-0.187732 -1.0614,-0.281598 -1.50907,-0.823132 -0.44045,-0.5487549 -0.44045,-1.3430054 0,-0.4982117 0.20217,-0.9386597 0.2094,-0.440448 0.62818,-0.7870301 0.40435,-0.3393615 1.02531,-0.5343139 0.62818,-0.2021729 1.40077,-0.2021729 0.72204,0 1.45853,0.1805115 0.74371,0.173291 1.2347,0.4260071 v 1.4513123 h -0.0722 q -0.51987,-0.3826844 -1.26358,-0.6426209 -0.7437,-0.267157 -1.45853,-0.267157 -0.74371,0 -1.25636,0.2888184 -0.51265,0.2815979 -0.51265,0.8447937 0,0.4982117 0.31048,0.7509278 0.30326,0.252716 0.98198,0.4115661 0.37546,0.08665 0.83757,0.173291 0.46933,0.08665 0.77981,0.15885 0.94588,0.216614 1.45854,0.743707 0.51265,0.534314 0.51265,1.41521 z"
       id="path11404" />
    <path
       d="m 265.98839,5.5157155 h -1.53074 V 4.107726 h 1.53074 z m -0.0866,9.4154785 h -1.35745 V 6.8659414 h 1.35745 z"
       id="path11406" />
    <path
       d="m 275.68546,10.837194 q 0,1.010864 -0.28882,1.819556 -0.2816,0.808691 -0.76537,1.357446 -0.51265,0.570416 -1.12639,0.859235 -0.61374,0.281598 -1.35022,0.281598 -0.68595,0 -1.1986,-0.166071 -0.51265,-0.15885 -1.01086,-0.433228 l -0.0867,0.375464 h -1.2708 V 3.6961598 h 1.35745 v 4.0145753 q 0.57041,-0.4693298 1.21303,-0.7653686 0.64262,-0.3032593 1.44409,-0.3032593 1.42966,0 2.25279,1.0975098 0.83035,1.0975098 0.83035,3.097577 z m -1.40077,0.0361 q 0,-1.4440916 -0.47655,-2.1877989 -0.47655,-0.7509277 -1.53796,-0.7509277 -0.59207,0 -1.19859,0.2599365 -0.60652,0.2527161 -1.12639,0.6570618 v 4.6210943 q 0.57763,0.259936 0.9892,0.361023 0.41879,0.101086 0.94588,0.101086 1.12639,0 1.76179,-0.736487 0.64262,-0.743707 0.64262,-2.324988 z"
       id="path11408" />
    <path
       d="M 279.17294,14.931194 H 277.8155 V 3.6961598 h 1.35744 z"
       id="path11410" />
    <path
       d="m 288.61008,11.039367 h -5.94243 q 0,0.743707 0.22383,1.299682 0.22384,0.548755 0.61374,0.902558 0.37546,0.346582 0.88812,0.519873 0.51987,0.173291 1.14083,0.173291 0.82313,0 1.65348,-0.324921 0.83758,-0.332141 1.19138,-0.649841 h 0.0722 v 1.480194 q -0.68594,0.288818 -1.40076,0.483771 -0.71483,0.194952 -1.50186,0.194952 -2.00729,0 -3.13368,-1.083069 -1.12639,-1.090289 -1.12639,-3.090356 0,-1.978406 1.07585,-3.1408999 1.08307,-1.1624939 2.84486,-1.1624939 1.63182,0 2.51272,0.9531006 0.88811,0.9531006 0.88811,2.7076722 z m -1.32134,-1.0397463 q -0.007,-1.068628 -0.54153,-1.6534852 -0.5271,-0.5848572 -1.61017,-0.5848572 -1.09029,0 -1.74013,0.6426209 -0.64262,0.6426209 -0.72926,1.5957215 z"
       id="path11412" />
    <path
       d="m 305.05829,9.5663931 q 0,1.4657529 -0.64262,2.6571289 -0.6354,1.191376 -1.69681,1.848438 -0.73649,0.454889 -1.64626,0.657061 -0.90256,0.202173 -2.38275,0.202173 h -2.7149 V 4.1799306 h 2.68601 q 1.57406,0 2.49828,0.2310547 0.93144,0.2238342 1.57406,0.6209595 1.09751,0.6859436 1.71125,1.8267762 0.61374,1.1408325 0.61374,2.7076721 z m -1.49463,-0.021661 q 0,-1.2635804 -0.44045,-2.1300355 -0.44045,-0.8664551 -1.31413,-1.3646668 -0.6354,-0.3610229 -1.35022,-0.4982117 -0.71483,-0.1444091 -1.71125,-0.1444091 h -1.34301 v 8.2963073 h 1.34301 q 1.03252,0 1.79789,-0.151629 0.77259,-0.15163 1.41521,-0.563196 0.80147,-0.512653 1.1986,-1.350226 0.40435,-0.837573 0.40435,-2.0939332 z"
       id="path11414" />
    <path
       d="m 315.38355,5.4146291 q 0.65706,0.7220459 1.00364,1.7690125 0.3538,1.0469666 0.3538,2.3755311 0,1.3285643 -0.36102,2.3827513 -0.3538,1.046967 -0.99642,1.747351 -0.66429,0.729267 -1.57406,1.09751 -0.90256,0.368244 -2.06506,0.368244 -1.13361,0 -2.06505,-0.375464 -0.92422,-0.375464 -1.57406,-1.09029 -0.64984,-0.714825 -1.00364,-1.754571 -0.34658,-1.039746 -0.34658,-2.3755313 0,-1.3141236 0.34658,-2.3538697 0.34658,-1.0469666 1.01086,-1.7906739 0.6354,-0.707605 1.57406,-1.0830689 0.94588,-0.3754638 2.05783,-0.3754638 1.15528,0 2.07228,0.3826843 0.92421,0.3754639 1.56684,1.0758484 z m -0.12997,4.1445436 q 0,-2.0939332 -0.93866,-3.2275453 -0.93866,-1.1408325 -2.56327,-1.1408325 -1.63904,0 -2.5777,1.1408325 -0.93144,1.1336121 -0.93144,3.2275453 0,2.1155943 0.9531,3.2419863 0.9531,1.119171 2.55604,1.119171 1.60295,0 2.54883,-1.119171 0.9531,-1.126392 0.9531,-3.2419863 z"
       id="path11416" />
    <path
       d="m 327.48504,14.931194 h -1.52352 l -1.05419,-2.99649 h -4.64997 l -1.05419,2.99649 h -1.45131 l 3.91349,-10.7512634 h 1.9062 z m -3.01816,-4.223968 -1.88454,-5.278156 -1.89176,5.278156 z"
       id="path11418" />
  </g>
  <g
     aria-label="Possible DOA"
     id="text7177-2"
     style="font-size:14.7875px;fill:#009c00;stroke-width:1.23229">
    <path
       d="m 240.4604,305.03997 q 0,0.71482 -0.25272,1.32856 -0.24549,0.60652 -0.69316,1.05419 -0.55597,0.55597 -1.31412,0.83757 -0.75815,0.27438 -1.91342,0.27438 h -1.42966 v 4.00735 h -1.42965 v -10.75126 h 2.91707 q 0.96754,0 1.63904,0.16607 0.67151,0.15885 1.19138,0.50543 0.61374,0.41157 0.94588,1.02531 0.33936,0.61374 0.33936,1.5524 z m -1.48741,0.0361 q 0,-0.55598 -0.19496,-0.96754 -0.19495,-0.41157 -0.59207,-0.67151 -0.34659,-0.22383 -0.79425,-0.3177 -0.44045,-0.10108 -1.11918,-0.10108 h -1.41521 v 4.29617 h 1.20582 q 0.86646,0 1.40799,-0.15163 0.54153,-0.15885 0.8809,-0.49821 0.33936,-0.34658 0.47655,-0.72927 0.14441,-0.38268 0.14441,-0.85923 z"
       id="path11421" />
    <path
       d="m 248.74949,308.51301 q 0,1.97118 -1.01087,3.11201 -1.01086,1.14084 -2.70767,1.14084 -1.71125,0 -2.72211,-1.14084 -1.00365,-1.14083 -1.00365,-3.11201 0,-1.97119 1.00365,-3.11202 1.01086,-1.14805 2.72211,-1.14805 1.69681,0 2.70767,1.14805 1.01087,1.14083 1.01087,3.11202 z m -1.40077,0 q 0,-1.56684 -0.61374,-2.32499 -0.61374,-0.76537 -1.70403,-0.76537 -1.10473,0 -1.71847,0.76537 -0.60652,0.75815 -0.60652,2.32499 0,1.51629 0.61374,2.30332 0.61374,0.77981 1.71125,0.77981 1.08307,0 1.69681,-0.77259 0.62096,-0.77981 0.62096,-2.31054 z"
       id="path11423" />
    <path
       d="m 256.61257,310.21703 q 0,1.10474 -0.917,1.81234 -0.90978,0.70761 -2.49106,0.70761 -0.89534,0 -1.64626,-0.2094 -0.74371,-0.21661 -1.24914,-0.46933 v -1.52351 h 0.0722 q 0.64262,0.48377 1.42965,0.77258 0.78703,0.2816 1.50908,0.2816 0.89534,0 1.40077,-0.28882 0.50543,-0.28881 0.50543,-0.90977 0,-0.47655 -0.27438,-0.72205 -0.27438,-0.2455 -1.05418,-0.41879 -0.28882,-0.065 -0.75815,-0.15163 -0.46211,-0.0866 -0.8448,-0.18773 -1.0614,-0.2816 -1.50907,-0.82313 -0.44045,-0.54876 -0.44045,-1.34301 0,-0.49821 0.20217,-0.93866 0.2094,-0.44044 0.62818,-0.78703 0.40435,-0.33936 1.02531,-0.53431 0.62818,-0.20217 1.40077,-0.20217 0.72204,0 1.45853,0.18051 0.74371,0.17329 1.2347,0.42601 v 1.45131 h -0.0722 q -0.51987,-0.38269 -1.26358,-0.64262 -0.7437,-0.26716 -1.45853,-0.26716 -0.74371,0 -1.25636,0.28882 -0.51265,0.2816 -0.51265,0.84479 0,0.49821 0.31048,0.75093 0.30326,0.25272 0.98198,0.41157 0.37546,0.0866 0.83757,0.17329 0.46933,0.0866 0.77981,0.15885 0.94588,0.21661 1.45854,0.7437 0.51265,0.53432 0.51265,1.41521 z"
       id="path11425" />
    <path
       d="m 264.3168,310.21703 q 0,1.10474 -0.917,1.81234 -0.90978,0.70761 -2.49106,0.70761 -0.89534,0 -1.64626,-0.2094 -0.74371,-0.21661 -1.24914,-0.46933 v -1.52351 h 0.0722 q 0.64262,0.48377 1.42965,0.77258 0.78703,0.2816 1.50908,0.2816 0.89533,0 1.40077,-0.28882 0.50543,-0.28881 0.50543,-0.90977 0,-0.47655 -0.27438,-0.72205 -0.27438,-0.2455 -1.05419,-0.41879 -0.28881,-0.065 -0.75814,-0.15163 -0.46211,-0.0866 -0.8448,-0.18773 -1.06141,-0.2816 -1.50907,-0.82313 -0.44045,-0.54876 -0.44045,-1.34301 0,-0.49821 0.20217,-0.93866 0.20939,-0.44044 0.62818,-0.78703 0.40435,-0.33936 1.02531,-0.53431 0.62818,-0.20217 1.40077,-0.20217 0.72204,0 1.45853,0.18051 0.74371,0.17329 1.2347,0.42601 v 1.45131 h -0.0722 q -0.51987,-0.38269 -1.26358,-0.64262 -0.74371,-0.26716 -1.45853,-0.26716 -0.74371,0 -1.25636,0.28882 -0.51265,0.2816 -0.51265,0.84479 0,0.49821 0.31048,0.75093 0.30326,0.25272 0.98198,0.41157 0.37546,0.0866 0.83757,0.17329 0.46933,0.0866 0.77981,0.15885 0.94588,0.21661 1.45853,0.7437 0.51266,0.53432 0.51266,1.41521 z"
       id="path11427" />
    <path
       d="m 267.71763,303.12654 h -1.53073 v -1.40799 h 1.53073 z m -0.0866,9.41548 h -1.35745 v -8.06525 h 1.35745 z"
       id="path11429" />
    <path
       d="m 277.41471,308.44802 q 0,1.01087 -0.28882,1.81956 -0.2816,0.80869 -0.76537,1.35744 -0.51265,0.57042 -1.12639,0.85924 -0.61374,0.2816 -1.35023,0.2816 -0.68594,0 -1.19859,-0.16607 -0.51265,-0.15885 -1.01087,-0.43323 l -0.0866,0.37546 h -1.2708 v -11.23503 h 1.35744 v 4.01457 q 0.57042,-0.46933 1.21304,-0.76537 0.64262,-0.30325 1.44409,-0.30325 1.42965,0 2.25279,1.09751 0.83035,1.09751 0.83035,3.09757 z m -1.40077,0.0361 q 0,-1.44409 -0.47655,-2.18779 -0.47655,-0.75093 -1.53796,-0.75093 -0.59208,0 -1.19859,0.25993 -0.60652,0.25272 -1.1264,0.65707 v 4.62109 q 0.57764,0.25994 0.98921,0.36102 0.41878,0.10109 0.94588,0.10109 1.12639,0 1.76179,-0.73649 0.64262,-0.7437 0.64262,-2.32499 z"
       id="path11431" />
    <path
       d="m 280.90219,312.54202 h -1.35745 v -11.23503 h 1.35745 z"
       id="path11433" />
    <path
       d="m 290.33933,308.6502 h -5.94244 q 0,0.7437 0.22384,1.29968 0.22383,0.54875 0.61374,0.90256 0.37546,0.34658 0.88811,0.51987 0.51988,0.17329 1.14084,0.17329 0.82313,0 1.65348,-0.32492 0.83758,-0.33214 1.19138,-0.64984 h 0.0722 v 1.48019 q -0.68594,0.28882 -1.40077,0.48377 -0.71482,0.19495 -1.50185,0.19495 -2.00729,0 -3.13368,-1.08306 -1.12639,-1.09029 -1.12639,-3.09036 0,-1.97841 1.07585,-3.1409 1.08306,-1.16249 2.84486,-1.16249 1.63182,0 2.51272,0.9531 0.88811,0.9531 0.88811,2.70767 z m -1.32134,-1.03975 q -0.007,-1.06863 -0.54154,-1.65349 -0.52709,-0.58485 -1.61016,-0.58485 -1.09029,0 -1.74013,0.64262 -0.64262,0.64262 -0.72927,1.59572 z"
       id="path11435" />
    <path
       d="m 306.78754,307.17722 q 0,1.46575 -0.64262,2.65713 -0.6354,1.19138 -1.69681,1.84844 -0.73649,0.45489 -1.64627,0.65706 -0.90255,0.20217 -2.38275,0.20217 h -2.71489 v -10.75126 h 2.68601 q 1.57406,0 2.49828,0.23105 0.93144,0.22384 1.57406,0.62096 1.09751,0.68595 1.71125,1.82678 0.61374,1.14083 0.61374,2.70767 z m -1.49464,-0.0217 q 0,-1.26358 -0.44044,-2.13004 -0.44045,-0.86645 -1.31413,-1.36466 -0.6354,-0.36103 -1.35022,-0.49821 -0.71483,-0.14441 -1.71125,-0.14441 h -1.34301 v 8.2963 h 1.34301 q 1.03252,0 1.79789,-0.15162 0.77259,-0.15163 1.41521,-0.5632 0.80147,-0.51265 1.1986,-1.35023 0.40434,-0.83757 0.40434,-2.09393 z"
       id="path11437" />
    <path
       d="m 317.11279,303.02546 q 0.65706,0.72204 1.00365,1.76901 0.3538,1.04697 0.3538,2.37553 0,1.32857 -0.36102,2.38275 -0.35381,1.04697 -0.99643,1.74735 -0.66428,0.72927 -1.57406,1.09751 -0.90255,0.36825 -2.06505,0.36825 -1.13361,0 -2.06505,-0.37547 -0.92422,-0.37546 -1.57406,-1.09029 -0.64984,-0.71482 -1.00364,-1.75457 -0.34659,-1.03974 -0.34659,-2.37553 0,-1.31412 0.34659,-2.35387 0.34658,-1.04697 1.01086,-1.79067 0.6354,-0.70761 1.57406,-1.08307 0.94588,-0.37547 2.05783,-0.37547 1.15528,0 2.07227,0.38269 0.92422,0.37546 1.56684,1.07585 z m -0.12997,4.14454 q 0,-2.09393 -0.93865,-3.22754 -0.93866,-1.14084 -2.56327,-1.14084 -1.63904,0 -2.5777,1.14084 -0.93144,1.13361 -0.93144,3.22754 0,2.1156 0.9531,3.24199 0.9531,1.11917 2.55604,1.11917 1.60294,0 2.54882,-1.11917 0.9531,-1.12639 0.9531,-3.24199 z"
       id="path11439" />
    <path
       d="m 329.21428,312.54202 h -1.52351 l -1.05419,-2.99649 h -4.64998 l -1.05418,2.99649 h -1.45131 l 3.91348,-10.75126 h 1.90621 z m -3.01815,-4.22397 -1.88454,-5.27815 -1.89176,5.27815 z"
       id="path11441" />
  </g>
  <g
     aria-label="Boresight"
     id="text8175"
     style="font-size:18.8164px;fill:#c2c2c3;stroke-width:1.56803"
     transform="matrix(0.87951057,0,0,0.87951057,19.931817,12.419268)">
    <path
       d="m 134.75739,94.979154 q 0,1.019834 -0.38588,1.800788 -0.38588,0.780954 -1.03821,1.286278 -0.77176,0.606388 -1.69972,0.863643 -0.91877,0.257256 -2.34286,0.257256 h -4.85111 V 85.50664 h 4.05178 q 1.49759,0 2.24179,0.110252 0.74421,0.110253 1.4241,0.459385 0.75339,0.395071 1.09333,1.019834 0.33995,0.615576 0.33995,1.479219 0,0.973896 -0.49614,1.662973 -0.49613,0.67989 -1.32303,1.093336 v 0.0735 q 1.38735,0.284819 2.18668,1.221964 0.79932,0.927957 0.79932,2.352051 z m -3.0595,-6.164944 q 0,-0.496135 -0.16538,-0.83608 -0.16537,-0.339945 -0.53288,-0.551262 -0.43182,-0.248068 -1.0474,-0.303194 -0.61558,-0.06431 -1.52516,-0.06431 h -2.16829 v 3.950709 h 2.35205 q 0.85445,0 1.35978,-0.08269 0.50532,-0.09188 0.93714,-0.367508 0.43182,-0.27563 0.60639,-0.707452 0.18375,-0.44101 0.18375,-1.03821 z m 1.16684,6.238446 q 0,-0.826893 -0.24807,-1.313841 -0.24807,-0.486948 -0.90039,-0.826893 -0.44101,-0.229692 -1.07496,-0.294006 -0.62477,-0.0735 -1.52516,-0.0735 h -2.85737 v 5.089983 h 2.40717 q 1.1944,0 1.95698,-0.11944 0.76258,-0.128628 1.24953,-0.459385 0.51451,-0.35832 0.75339,-0.817705 0.23888,-0.459385 0.23888,-1.185212 z"
       id="path10525" />
    <path
       d="m 145.94801,94.060384 q 0,2.508241 -1.28628,3.959897 -1.28628,1.451656 -3.44538,1.451656 -2.17749,0 -3.46377,-1.451656 -1.27709,-1.451656 -1.27709,-3.959897 0,-2.50824 1.27709,-3.959896 1.28628,-1.460844 3.46377,-1.460844 2.1591,0 3.44538,1.460844 1.28628,1.451656 1.28628,3.959896 z m -1.78241,0 q 0,-1.99373 -0.78096,-2.958438 -0.78095,-0.973895 -2.16829,-0.973895 -1.40572,0 -2.18668,0.973895 -0.77176,0.964708 -0.77176,2.958438 0,1.929416 0.78095,2.930875 0.78096,0.992271 2.17749,0.992271 1.37815,0 2.1591,-0.983083 0.79015,-0.992271 0.79015,-2.940063 z"
       id="path10527" />
    <path
       d="m 155.02545,90.80794 h -0.0919 q -0.38588,-0.09188 -0.75339,-0.128628 -0.35832,-0.04594 -0.85445,-0.04594 -0.79933,0 -1.54354,0.35832 -0.7442,0.349133 -1.43328,0.909582 v 7.285843 h -1.72728 V 88.924463 h 1.72728 v 1.515969 q 1.02903,-0.826892 1.80998,-1.166837 0.79014,-0.349132 1.60785,-0.349132 0.45019,0 0.65232,0.02756 0.20213,0.01837 0.60639,0.08269 z"
       id="path10529" />
    <path
       d="m 165.24217,94.234951 h -7.56147 q 0,0.946332 0.28481,1.653785 0.28482,0.698265 0.78096,1.148462 0.47776,0.441009 1.13008,0.661514 0.66152,0.220505 1.45166,0.220505 1.0474,0 2.10398,-0.413447 1.06578,-0.422634 1.51597,-0.826892 h 0.0919 v 1.883477 q -0.87283,0.367508 -1.78241,0.615576 -0.90958,0.248068 -1.91104,0.248068 -2.55418,0 -3.98746,-1.378155 -1.43328,-1.387342 -1.43328,-3.932333 0,-2.517429 1.36896,-3.996648 1.37816,-1.479219 3.61995,-1.479219 2.07642,0 3.19732,1.212776 1.13009,1.212776 1.13009,3.445386 z m -1.68135,-1.323029 q -0.009,-1.359778 -0.68908,-2.103982 -0.6707,-0.744203 -2.04885,-0.744203 -1.38734,0 -2.21424,0.817705 -0.8177,0.817705 -0.92795,2.03048 z"
       id="path10531" />
    <path
       d="m 175.19244,96.228681 q 0,1.405717 -1.16683,2.306111 -1.15765,0.900394 -3.16976,0.900394 -1.13927,0 -2.09479,-0.266443 -0.94634,-0.275631 -1.58948,-0.5972 v -1.938604 h 0.0919 q 0.81771,0.615576 1.81917,0.983084 1.00145,0.35832 1.92022,0.35832 1.13928,0 1.78242,-0.367508 0.64314,-0.367508 0.64314,-1.15765 0,-0.606388 -0.34914,-0.918769 -0.34913,-0.312382 -1.3414,-0.532887 -0.36751,-0.08269 -0.96471,-0.192941 -0.58801,-0.110253 -1.07496,-0.23888 -1.35059,-0.35832 -1.92023,-1.047398 -0.56045,-0.698264 -0.56045,-1.708911 0,-0.633951 0.25726,-1.1944 0.26644,-0.56045 0.79933,-1.001459 0.51451,-0.431822 1.30465,-0.67989 0.79933,-0.257255 1.78241,-0.257255 0.91877,0 1.85592,0.229692 0.94633,0.220505 1.57109,0.542074 v 1.846727 h -0.0919 q -0.66152,-0.486948 -1.60785,-0.817705 -0.94633,-0.339945 -1.85591,-0.339945 -0.94634,0 -1.59866,0.367508 -0.65233,0.35832 -0.65233,1.074961 0,0.633951 0.39507,0.95552 0.38588,0.321569 1.24953,0.523699 0.47776,0.110252 1.06577,0.220504 0.5972,0.110253 0.99227,0.20213 1.20359,0.27563 1.85592,0.946332 0.65232,0.67989 0.65232,1.800789 z"
       id="path10533" />
    <path
       d="m 179.51985,87.206364 h -1.94779 v -1.791601 h 1.94779 z m -0.11025,11.980755 h -1.72729 V 88.924463 h 1.72729 z"
       id="path10535" />
    <path
       d="m 191.15147,98.020281 q 0,2.609309 -1.18521,3.831269 -1.18522,1.22196 -3.64752,1.22196 -0.8177,0 -1.59866,-0.11944 -0.77176,-0.11025 -1.52516,-0.32157 v -1.76403 h 0.0919 q 0.42264,0.16538 1.34141,0.40426 0.91876,0.24806 1.83753,0.24806 0.88202,0 1.46085,-0.21131 0.57882,-0.21132 0.90039,-0.58802 0.32157,-0.35832 0.45939,-0.86364 0.13781,-0.505323 0.13781,-1.130086 v -0.937145 q -0.78095,0.624763 -1.49759,0.937145 -0.70745,0.303194 -1.80998,0.303194 -1.83754,0 -2.92169,-1.323028 -1.07496,-1.332216 -1.07496,-3.74858 0,-1.323028 0.36751,-2.278549 0.3767,-0.964708 1.01984,-1.662973 0.5972,-0.652326 1.45165,-1.010646 0.85446,-0.367508 1.69973,-0.367508 0.8912,0 1.4884,0.183754 0.60639,0.174566 1.27709,0.542074 l 0.11025,-0.441009 h 1.61704 z m -1.72729,-1.653785 v -5.595307 q -0.68907,-0.312381 -1.28628,-0.441009 -0.58801,-0.137815 -1.17602,-0.137815 -1.42409,0 -2.2418,0.95552 -0.8177,0.95552 -0.8177,2.774684 0,1.727287 0.60639,2.618493 0.60638,0.891207 2.0121,0.891207 0.75339,0 1.50678,-0.284819 0.76258,-0.294006 1.39653,-0.780954 z"
       id="path10537" />
    <path
       d="m 203.13223,99.187119 h -1.72729 v -5.843375 q 0,-0.707452 -0.0827,-1.323028 -0.0827,-0.624763 -0.30319,-0.973896 -0.22969,-0.385883 -0.66152,-0.569637 -0.43182,-0.192941 -1.1209,-0.192941 -0.70745,0 -1.47921,0.349132 -0.77177,0.349132 -1.47922,0.891206 v 7.662539 h -1.72729 V 84.891064 h 1.72729 v 5.172673 q 0.80851,-0.670702 1.67216,-1.047397 0.86364,-0.376696 1.77322,-0.376696 1.66298,0 2.53581,1.001459 0.87283,1.001459 0.87283,2.884936 z"
       id="path10539" />
    <path
       d="m 211.78703,99.095242 q -0.48695,0.128627 -1.06577,0.211317 -0.56964,0.08269 -1.01983,0.08269 -1.5711,0 -2.3888,-0.845268 -0.81771,-0.845268 -0.81771,-2.71037 v -5.457492 h -1.16684 v -1.451655 h 1.16684 v -2.949251 h 1.72729 v 2.949251 h 3.56482 v 1.451655 h -3.56482 v 4.676538 q 0,0.808517 0.0368,1.267902 0.0368,0.450197 0.25725,0.845268 0.20213,0.367507 0.55126,0.542074 0.35833,0.165378 1.08415,0.165378 0.42264,0 0.88202,-0.11944 0.45939,-0.128628 0.66152,-0.211317 h 0.0919 z"
       id="path10541" />
  </g>
</svg>
