<?xml version="1.0" encoding="utf-8" standalone="no"?>
<!DOCTYPE svg PUBLIC "-//W3C//DTD SVG 1.1//EN"
  "http://www.w3.org/Graphics/SVG/1.1/DTD/svg11.dtd">
<svg xmlns:xlink="http://www.w3.org/1999/xlink" width="329.41825pt" height="318.190125pt" viewBox="0 0 329.41825 318.190125" xmlns="http://www.w3.org/2000/svg" version="1.1">
 <metadata>
  <rdf:RDF xmlns:dc="http://purl.org/dc/elements/1.1/" xmlns:cc="http://creativecommons.org/ns#" xmlns:rdf="http://www.w3.org/1999/02/22-rdf-syntax-ns#">
   <cc:Work>
    <dc:type rdf:resource="http://purl.org/dc/dcmitype/StillImage"/>
    <dc:date>2023-04-04T03:49:19.527761</dc:date>
    <dc:format>image/svg+xml</dc:format>
    <dc:creator>
     <cc:Agent>
      <dc:title>Matplotlib v3.5.1, https://matplotlib.org/</dc:title>
     </cc:Agent>
    </dc:creator>
   </cc:Work>
  </rdf:RDF>
 </metadata>
 <defs>
  <style type="text/css">*{stroke-linejoin: round; stroke-linecap: butt}</style>
 </defs>
 <g id="figure_1">
  <g id="patch_1">
   <path d="M 0 318.190125 
L 329.41825 318.190125 
L 329.41825 0 
L 0 0 
z
" style="fill: #ffffff"/>
  </g>
  <g id="axes_1">
   <g id="patch_2">
    <path d="M 299.35575 159.095062 
C 299.35575 141.622309 295.913998 124.319455 289.227465 108.176736 
C 282.540932 92.034016 272.739653 77.365365 260.38455 65.010263 
C 248.029447 52.65516 233.360796 42.853881 217.218077 36.167347 
C 201.075357 29.480814 183.772504 26.039062 166.29975 26.039062 
C 148.826996 26.039062 131.524143 29.480814 115.381423 36.167347 
C 99.238704 42.853881 84.570053 52.65516 72.21495 65.010263 
C 59.859847 77.365365 50.058568 92.034016 43.372035 108.176736 
C 36.685502 124.319455 33.24375 141.622309 33.24375 159.095062 
C 33.24375 176.567816 36.685502 193.87067 43.372035 210.013389 
C 50.058568 226.156109 59.859847 240.82476 72.21495 253.179862 
C 84.570053 265.534965 99.238704 275.336244 115.381423 282.022778 
C 131.524143 288.709311 148.826996 292.151062 166.29975 292.151062 
C 183.772504 292.151062 201.075357 288.709311 217.218077 282.022778 
C 233.360796 275.336244 248.029447 265.534965 260.38455 253.179862 
C 272.739653 240.82476 282.540932 226.156109 289.227465 210.013389 
C 295.913998 193.87067 299.35575 176.567816 299.35575 159.095062 
M 166.29975 159.095062 
C 166.29975 159.095062 166.29975 159.095062 166.29975 159.095062 
C 166.29975 159.095062 166.29975 159.095062 166.29975 159.095062 
C 166.29975 159.095062 166.29975 159.095062 166.29975 159.095062 
C 166.29975 159.095062 166.29975 159.095062 166.29975 159.095062 
C 166.29975 159.095062 166.29975 159.095062 166.29975 159.095062 
C 166.29975 159.095062 166.29975 159.095062 166.29975 159.095062 
C 166.29975 159.095062 166.29975 159.095062 166.29975 159.095062 
C 166.29975 159.095062 166.29975 159.095062 166.29975 159.095062 
C 166.29975 159.095062 166.29975 159.095062 166.29975 159.095062 
C 166.29975 159.095062 166.29975 159.095062 166.29975 159.095062 
C 166.29975 159.095062 166.29975 159.095062 166.29975 159.095062 
C 166.29975 159.095062 166.29975 159.095062 166.29975 159.095062 
C 166.29975 159.095062 166.29975 159.095062 166.29975 159.095062 
C 166.29975 159.095062 166.29975 159.095062 166.29975 159.095062 
C 166.29975 159.095062 166.29975 159.095062 166.29975 159.095062 
C 166.29975 159.095062 166.29975 159.095062 166.29975 159.095062 
M 299.35575 159.095062 
z
" style="fill: #ffffff"/>
   </g>
   <g id="matplotlib.axis_1">
    <g id="xtick_1">
     <g id="line2d_1">
      <path d="M 166.29975 159.095062 
L 166.29975 26.039062 
" clip-path="url(#p005aa538a5)" style="fill: none; stroke: #b0b0b0; stroke-width: 0.8; stroke-linecap: square"/>
     </g>
     <g id="text_1">
      <!-- 0° -->
      <g transform="translate(160.6185 14.798437)scale(0.1 -0.1)">
       <defs>
        <path id="DejaVuSans-30" d="M 2034 4250 
Q 1547 4250 1301 3770 
Q 1056 3291 1056 2328 
Q 1056 1369 1301 889 
Q 1547 409 2034 409 
Q 2525 409 2770 889 
Q 3016 1369 3016 2328 
Q 3016 3291 2770 3770 
Q 2525 4250 2034 4250 
z
M 2034 4750 
Q 2819 4750 3233 4129 
Q 3647 3509 3647 2328 
Q 3647 1150 3233 529 
Q 2819 -91 2034 -91 
Q 1250 -91 836 529 
Q 422 1150 422 2328 
Q 422 3509 836 4129 
Q 1250 4750 2034 4750 
z
" transform="scale(0.015625)"/>
        <path id="DejaVuSans-b0" d="M 1600 4347 
Q 1350 4347 1178 4173 
Q 1006 4000 1006 3750 
Q 1006 3503 1178 3333 
Q 1350 3163 1600 3163 
Q 1850 3163 2022 3333 
Q 2194 3503 2194 3750 
Q 2194 3997 2020 4172 
Q 1847 4347 1600 4347 
z
M 1600 4750 
Q 1800 4750 1984 4673 
Q 2169 4597 2303 4453 
Q 2447 4313 2519 4134 
Q 2591 3956 2591 3750 
Q 2591 3338 2302 3052 
Q 2013 2766 1594 2766 
Q 1172 2766 890 3047 
Q 609 3328 609 3750 
Q 609 4169 896 4459 
Q 1184 4750 1600 4750 
z
" transform="scale(0.015625)"/>
       </defs>
       <use xlink:href="#DejaVuSans-30"/>
       <use xlink:href="#DejaVuSans-b0" x="63.623047"/>
      </g>
     </g>
    </g>
    <g id="xtick_2">
     <g id="line2d_2">
      <path d="M 166.29975 159.095062 
L 260.38455 65.010263 
" clip-path="url(#p005aa538a5)" style="fill: none; stroke: #b0b0b0; stroke-width: 0.8; stroke-linecap: square"/>
     </g>
     <g id="text_2">
      <!-- 45° -->
      <g transform="translate(261.421545 57.870143)scale(0.1 -0.1)">
       <defs>
        <path id="DejaVuSans-34" d="M 2419 4116 
L 825 1625 
L 2419 1625 
L 2419 4116 
z
M 2253 4666 
L 3047 4666 
L 3047 1625 
L 3713 1625 
L 3713 1100 
L 3047 1100 
L 3047 0 
L 2419 0 
L 2419 1100 
L 313 1100 
L 313 1709 
L 2253 4666 
z
" transform="scale(0.015625)"/>
        <path id="DejaVuSans-35" d="M 691 4666 
L 3169 4666 
L 3169 4134 
L 1269 4134 
L 1269 2991 
Q 1406 3038 1543 3061 
Q 1681 3084 1819 3084 
Q 2600 3084 3056 2656 
Q 3513 2228 3513 1497 
Q 3513 744 3044 326 
Q 2575 -91 1722 -91 
Q 1428 -91 1123 -41 
Q 819 9 494 109 
L 494 744 
Q 775 591 1075 516 
Q 1375 441 1709 441 
Q 2250 441 2565 725 
Q 2881 1009 2881 1497 
Q 2881 1984 2565 2268 
Q 2250 2553 1709 2553 
Q 1456 2553 1204 2497 
Q 953 2441 691 2322 
L 691 4666 
z
" transform="scale(0.015625)"/>
       </defs>
       <use xlink:href="#DejaVuSans-34"/>
       <use xlink:href="#DejaVuSans-35" x="63.623047"/>
       <use xlink:href="#DejaVuSans-b0" x="127.246094"/>
      </g>
     </g>
    </g>
    <g id="xtick_3">
     <g id="line2d_3">
      <path d="M 166.29975 159.095062 
L 299.35575 159.095062 
" clip-path="url(#p005aa538a5)" style="fill: none; stroke: #b0b0b0; stroke-width: 0.8; stroke-linecap: square"/>
     </g>
     <g id="text_3">
      <!-- 90° -->
      <g transform="translate(304.49325 161.854437)scale(0.1 -0.1)">
       <defs>
        <path id="DejaVuSans-39" d="M 703 97 
L 703 672 
Q 941 559 1184 500 
Q 1428 441 1663 441 
Q 2288 441 2617 861 
Q 2947 1281 2994 2138 
Q 2813 1869 2534 1725 
Q 2256 1581 1919 1581 
Q 1219 1581 811 2004 
Q 403 2428 403 3163 
Q 403 3881 828 4315 
Q 1253 4750 1959 4750 
Q 2769 4750 3195 4129 
Q 3622 3509 3622 2328 
Q 3622 1225 3098 567 
Q 2575 -91 1691 -91 
Q 1453 -91 1209 -44 
Q 966 3 703 97 
z
M 1959 2075 
Q 2384 2075 2632 2365 
Q 2881 2656 2881 3163 
Q 2881 3666 2632 3958 
Q 2384 4250 1959 4250 
Q 1534 4250 1286 3958 
Q 1038 3666 1038 3163 
Q 1038 2656 1286 2365 
Q 1534 2075 1959 2075 
z
" transform="scale(0.015625)"/>
       </defs>
       <use xlink:href="#DejaVuSans-39"/>
       <use xlink:href="#DejaVuSans-30" x="63.623047"/>
       <use xlink:href="#DejaVuSans-b0" x="127.246094"/>
      </g>
     </g>
    </g>
    <g id="xtick_4">
     <g id="line2d_4">
      <path d="M 166.29975 159.095062 
L 260.38455 253.179862 
" clip-path="url(#p005aa538a5)" style="fill: none; stroke: #b0b0b0; stroke-width: 0.8; stroke-linecap: square"/>
     </g>
     <g id="text_4">
      <!-- 135° -->
      <g transform="translate(258.240295 265.838732)scale(0.1 -0.1)">
       <defs>
        <path id="DejaVuSans-31" d="M 794 531 
L 1825 531 
L 1825 4091 
L 703 3866 
L 703 4441 
L 1819 4666 
L 2450 4666 
L 2450 531 
L 3481 531 
L 3481 0 
L 794 0 
L 794 531 
z
" transform="scale(0.015625)"/>
        <path id="DejaVuSans-33" d="M 2597 2516 
Q 3050 2419 3304 2112 
Q 3559 1806 3559 1356 
Q 3559 666 3084 287 
Q 2609 -91 1734 -91 
Q 1441 -91 1130 -33 
Q 819 25 488 141 
L 488 750 
Q 750 597 1062 519 
Q 1375 441 1716 441 
Q 2309 441 2620 675 
Q 2931 909 2931 1356 
Q 2931 1769 2642 2001 
Q 2353 2234 1838 2234 
L 1294 2234 
L 1294 2753 
L 1863 2753 
Q 2328 2753 2575 2939 
Q 2822 3125 2822 3475 
Q 2822 3834 2567 4026 
Q 2313 4219 1838 4219 
Q 1578 4219 1281 4162 
Q 984 4106 628 3988 
L 628 4550 
Q 988 4650 1302 4700 
Q 1616 4750 1894 4750 
Q 2613 4750 3031 4423 
Q 3450 4097 3450 3541 
Q 3450 3153 3228 2886 
Q 3006 2619 2597 2516 
z
" transform="scale(0.015625)"/>
       </defs>
       <use xlink:href="#DejaVuSans-31"/>
       <use xlink:href="#DejaVuSans-33" x="63.623047"/>
       <use xlink:href="#DejaVuSans-35" x="127.246094"/>
       <use xlink:href="#DejaVuSans-b0" x="190.869141"/>
      </g>
     </g>
    </g>
    <g id="xtick_5">
     <g id="line2d_5">
      <path d="M 166.29975 159.095062 
L 166.29975 292.151062 
" clip-path="url(#p005aa538a5)" style="fill: none; stroke: #b0b0b0; stroke-width: 0.8; stroke-linecap: square"/>
     </g>
     <g id="text_5">
      <!-- 180° -->
      <g transform="translate(154.256 308.910437)scale(0.1 -0.1)">
       <defs>
        <path id="DejaVuSans-38" d="M 2034 2216 
Q 1584 2216 1326 1975 
Q 1069 1734 1069 1313 
Q 1069 891 1326 650 
Q 1584 409 2034 409 
Q 2484 409 2743 651 
Q 3003 894 3003 1313 
Q 3003 1734 2745 1975 
Q 2488 2216 2034 2216 
z
M 1403 2484 
Q 997 2584 770 2862 
Q 544 3141 544 3541 
Q 544 4100 942 4425 
Q 1341 4750 2034 4750 
Q 2731 4750 3128 4425 
Q 3525 4100 3525 3541 
Q 3525 3141 3298 2862 
Q 3072 2584 2669 2484 
Q 3125 2378 3379 2068 
Q 3634 1759 3634 1313 
Q 3634 634 3220 271 
Q 2806 -91 2034 -91 
Q 1263 -91 848 271 
Q 434 634 434 1313 
Q 434 1759 690 2068 
Q 947 2378 1403 2484 
z
M 1172 3481 
Q 1172 3119 1398 2916 
Q 1625 2713 2034 2713 
Q 2441 2713 2670 2916 
Q 2900 3119 2900 3481 
Q 2900 3844 2670 4047 
Q 2441 4250 2034 4250 
Q 1625 4250 1398 4047 
Q 1172 3844 1172 3481 
z
" transform="scale(0.015625)"/>
       </defs>
       <use xlink:href="#DejaVuSans-31"/>
       <use xlink:href="#DejaVuSans-38" x="63.623047"/>
       <use xlink:href="#DejaVuSans-30" x="127.246094"/>
       <use xlink:href="#DejaVuSans-b0" x="190.869141"/>
      </g>
     </g>
    </g>
    <g id="xtick_6">
     <g id="line2d_6">
      <path d="M 166.29975 159.095062 
L 72.21495 253.179862 
" clip-path="url(#p005aa538a5)" style="fill: none; stroke: #b0b0b0; stroke-width: 0.8; stroke-linecap: square"/>
     </g>
     <g id="text_6">
      <!-- 225° -->
      <g transform="translate(50.271705 265.838732)scale(0.1 -0.1)">
       <defs>
        <path id="DejaVuSans-32" d="M 1228 531 
L 3431 531 
L 3431 0 
L 469 0 
L 469 531 
Q 828 903 1448 1529 
Q 2069 2156 2228 2338 
Q 2531 2678 2651 2914 
Q 2772 3150 2772 3378 
Q 2772 3750 2511 3984 
Q 2250 4219 1831 4219 
Q 1534 4219 1204 4116 
Q 875 4013 500 3803 
L 500 4441 
Q 881 4594 1212 4672 
Q 1544 4750 1819 4750 
Q 2544 4750 2975 4387 
Q 3406 4025 3406 3419 
Q 3406 3131 3298 2873 
Q 3191 2616 2906 2266 
Q 2828 2175 2409 1742 
Q 1991 1309 1228 531 
z
" transform="scale(0.015625)"/>
       </defs>
       <use xlink:href="#DejaVuSans-32"/>
       <use xlink:href="#DejaVuSans-32" x="63.623047"/>
       <use xlink:href="#DejaVuSans-35" x="127.246094"/>
       <use xlink:href="#DejaVuSans-b0" x="190.869141"/>
      </g>
     </g>
    </g>
    <g id="xtick_7">
     <g id="line2d_7">
      <path d="M 166.29975 159.095062 
L 33.24375 159.095062 
" clip-path="url(#p005aa538a5)" style="fill: none; stroke: #b0b0b0; stroke-width: 0.8; stroke-linecap: square"/>
     </g>
     <g id="text_7">
      <!-- 270° -->
      <g transform="translate(7.2 161.854437)scale(0.1 -0.1)">
       <defs>
        <path id="DejaVuSans-37" d="M 525 4666 
L 3525 4666 
L 3525 4397 
L 1831 0 
L 1172 0 
L 2766 4134 
L 525 4134 
L 525 4666 
z
" transform="scale(0.015625)"/>
       </defs>
       <use xlink:href="#DejaVuSans-32"/>
       <use xlink:href="#DejaVuSans-37" x="63.623047"/>
       <use xlink:href="#DejaVuSans-30" x="127.246094"/>
       <use xlink:href="#DejaVuSans-b0" x="190.869141"/>
      </g>
     </g>
    </g>
    <g id="xtick_8">
     <g id="line2d_8">
      <path d="M 166.29975 159.095062 
L 72.21495 65.010263 
" clip-path="url(#p005aa538a5)" style="fill: none; stroke: #b0b0b0; stroke-width: 0.8; stroke-linecap: square"/>
     </g>
     <g id="text_8">
      <!-- 315° -->
      <g transform="translate(50.271705 57.870143)scale(0.1 -0.1)">
       <use xlink:href="#DejaVuSans-33"/>
       <use xlink:href="#DejaVuSans-31" x="63.623047"/>
       <use xlink:href="#DejaVuSans-35" x="127.246094"/>
       <use xlink:href="#DejaVuSans-b0" x="190.869141"/>
      </g>
     </g>
    </g>
   </g>
   <g id="matplotlib.axis_2">
    <g id="ytick_1">
     <g id="line2d_9">
      <path d="M 166.29975 139.728872 
C 168.842895 139.728872 171.361311 140.229816 173.71087 141.203036 
C 176.06043 142.176255 178.19544 143.602823 179.993714 145.401098 
C 181.791989 147.199373 183.218557 149.334383 184.191777 151.683942 
C 185.164996 154.033502 185.66594 156.551918 185.66594 159.095062 
C 185.66594 161.638207 185.164996 164.156623 184.191777 166.506183 
C 183.218557 168.855742 181.791989 170.990752 179.993714 172.789027 
C 178.19544 174.587302 176.06043 176.01387 173.71087 176.987089 
C 171.361311 177.960309 168.842895 178.461253 166.29975 178.461253 
C 163.756605 178.461253 161.238189 177.960309 158.88863 176.987089 
C 156.53907 176.01387 154.40406 174.587302 152.605786 172.789027 
C 150.807511 170.990752 149.380943 168.855742 148.407723 166.506183 
C 147.434504 164.156623 146.93356 161.638207 146.93356 159.095062 
C 146.93356 156.551918 147.434504 154.033502 148.407723 151.683942 
C 149.380943 149.334383 150.807511 147.199373 152.605786 145.401098 
C 154.40406 143.602823 156.53907 142.176255 158.88863 141.203036 
C 161.238189 140.229816 163.756605 139.728872 166.29975 139.728872 
" clip-path="url(#p005aa538a5)" style="fill: none; stroke: #b0b0b0; stroke-width: 0.8; stroke-linecap: square"/>
     </g>
     <g id="text_9">
      <!-- 0.0 -->
      <g transform="translate(175.982845 140.243762)scale(0.1 -0.1)">
       <defs>
        <path id="DejaVuSans-2e" d="M 684 794 
L 1344 794 
L 1344 0 
L 684 0 
L 684 794 
z
" transform="scale(0.015625)"/>
       </defs>
       <use xlink:href="#DejaVuSans-30"/>
       <use xlink:href="#DejaVuSans-2e" x="63.623047"/>
       <use xlink:href="#DejaVuSans-30" x="95.410156"/>
      </g>
     </g>
    </g>
    <g id="ytick_2">
     <g id="line2d_10">
      <path d="M 166.29975 118.20051 
C 171.669973 118.20051 176.987978 119.258327 181.949418 121.313423 
C 186.910857 123.368518 191.419244 126.380926 195.216565 130.178247 
C 199.013887 133.975569 202.026294 138.483955 204.08139 143.445395 
C 206.136485 148.406834 207.194302 153.724839 207.194302 159.095062 
C 207.194302 164.465286 206.136485 169.783291 204.08139 174.74473 
C 202.026294 179.70617 199.013887 184.214556 195.216565 188.011878 
C 191.419244 191.809199 186.910857 194.821607 181.949418 196.876702 
C 176.987978 198.931798 171.669973 199.989615 166.29975 199.989615 
C 160.929527 199.989615 155.611522 198.931798 150.650082 196.876702 
C 145.688643 194.821607 141.180256 191.809199 137.382935 188.011878 
C 133.585613 184.214556 130.573206 179.70617 128.51811 174.74473 
C 126.463015 169.783291 125.405198 164.465286 125.405198 159.095062 
C 125.405198 153.724839 126.463015 148.406834 128.51811 143.445395 
C 130.573206 138.483955 133.585613 133.975569 137.382935 130.178247 
C 141.180256 126.380926 145.688643 123.368518 150.650082 121.313423 
C 155.611522 119.258327 160.929527 118.20051 166.29975 118.20051 
" clip-path="url(#p005aa538a5)" style="fill: none; stroke: #b0b0b0; stroke-width: 0.8; stroke-linecap: square"/>
     </g>
     <g id="text_10">
      <!-- 0.2 -->
      <g transform="translate(186.747026 121.599654)scale(0.1 -0.1)">
       <use xlink:href="#DejaVuSans-30"/>
       <use xlink:href="#DejaVuSans-2e" x="63.623047"/>
       <use xlink:href="#DejaVuSans-32" x="95.410156"/>
      </g>
     </g>
    </g>
    <g id="ytick_3">
     <g id="line2d_11">
      <path d="M 166.29975 96.672148 
C 174.497052 96.672148 182.614646 98.286838 190.187965 101.42381 
C 197.761285 104.560781 204.643048 109.159029 210.439416 114.955397 
C 216.235784 120.751764 220.834031 127.633528 223.971003 135.206847 
C 227.107974 142.780167 228.722664 150.897761 228.722664 159.095062 
C 228.722664 167.292364 227.107974 175.409958 223.971003 182.983278 
C 220.834031 190.556597 216.235784 197.438361 210.439416 203.234728 
C 204.643048 209.031096 197.761285 213.629344 190.187965 216.766315 
C 182.614646 219.903287 174.497052 221.517977 166.29975 221.517977 
C 158.102448 221.517977 149.984854 219.903287 142.411535 216.766315 
C 134.838215 213.629344 127.956452 209.031096 122.160084 203.234728 
C 116.363716 197.438361 111.765469 190.556597 108.628497 182.983278 
C 105.491526 175.409958 103.876836 167.292364 103.876836 159.095062 
C 103.876836 150.897761 105.491526 142.780167 108.628497 135.206847 
C 111.765469 127.633528 116.363716 120.751764 122.160084 114.955397 
C 127.956452 109.159029 134.838215 104.560781 142.411535 101.42381 
C 149.984854 98.286838 158.102448 96.672148 166.29975 96.672148 
" clip-path="url(#p005aa538a5)" style="fill: none; stroke: #b0b0b0; stroke-width: 0.8; stroke-linecap: square"/>
     </g>
     <g id="text_11">
      <!-- 0.4 -->
      <g transform="translate(197.511207 102.955546)scale(0.1 -0.1)">
       <use xlink:href="#DejaVuSans-30"/>
       <use xlink:href="#DejaVuSans-2e" x="63.623047"/>
       <use xlink:href="#DejaVuSans-34" x="95.410156"/>
      </g>
     </g>
    </g>
    <g id="ytick_4">
     <g id="line2d_12">
      <path d="M 166.29975 75.143786 
C 177.324131 75.143786 188.241313 77.315349 198.426512 81.534197 
C 208.611712 85.753045 217.866852 91.937132 225.662267 99.732546 
C 233.457681 107.52796 239.641768 116.7831 243.860616 126.9683 
C 248.079464 137.1535 250.251026 148.070682 250.251026 159.095062 
C 250.251026 170.119443 248.079464 181.036625 243.860616 191.221825 
C 239.641768 201.407025 233.457681 210.662165 225.662267 218.457579 
C 217.866852 226.252993 208.611712 232.43708 198.426512 236.655928 
C 188.241313 240.874776 177.324131 243.046339 166.29975 243.046339 
C 155.275369 243.046339 144.358187 240.874776 134.172988 236.655928 
C 123.987788 232.43708 114.732648 226.252993 106.937233 218.457579 
C 99.141819 210.662165 92.957732 201.407025 88.738884 191.221825 
C 84.520036 181.036625 82.348474 170.119443 82.348474 159.095062 
C 82.348474 148.070682 84.520036 137.1535 88.738884 126.9683 
C 92.957732 116.7831 99.141819 107.52796 106.937233 99.732546 
C 114.732648 91.937132 123.987788 85.753045 134.172988 81.534197 
C 144.358187 77.315349 155.275369 75.143786 166.29975 75.143786 
" clip-path="url(#p005aa538a5)" style="fill: none; stroke: #b0b0b0; stroke-width: 0.8; stroke-linecap: square"/>
     </g>
     <g id="text_12">
      <!-- 0.6 -->
      <g transform="translate(208.275388 84.311437)scale(0.1 -0.1)">
       <defs>
        <path id="DejaVuSans-36" d="M 2113 2584 
Q 1688 2584 1439 2293 
Q 1191 2003 1191 1497 
Q 1191 994 1439 701 
Q 1688 409 2113 409 
Q 2538 409 2786 701 
Q 3034 994 3034 1497 
Q 3034 2003 2786 2293 
Q 2538 2584 2113 2584 
z
M 3366 4563 
L 3366 3988 
Q 3128 4100 2886 4159 
Q 2644 4219 2406 4219 
Q 1781 4219 1451 3797 
Q 1122 3375 1075 2522 
Q 1259 2794 1537 2939 
Q 1816 3084 2150 3084 
Q 2853 3084 3261 2657 
Q 3669 2231 3669 1497 
Q 3669 778 3244 343 
Q 2819 -91 2113 -91 
Q 1303 -91 875 529 
Q 447 1150 447 2328 
Q 447 3434 972 4092 
Q 1497 4750 2381 4750 
Q 2619 4750 2861 4703 
Q 3103 4656 3366 4563 
z
" transform="scale(0.015625)"/>
       </defs>
       <use xlink:href="#DejaVuSans-30"/>
       <use xlink:href="#DejaVuSans-2e" x="63.623047"/>
       <use xlink:href="#DejaVuSans-36" x="95.410156"/>
      </g>
     </g>
    </g>
    <g id="ytick_5">
     <g id="line2d_13">
      <path d="M 166.29975 53.615424 
C 180.151209 53.615424 193.86798 56.34386 206.66506 61.644584 
C 219.46214 66.945308 231.090657 74.715234 240.885117 84.509695 
C 250.679578 94.304156 258.449505 105.932673 263.750229 118.729753 
C 269.050953 131.526832 271.779388 145.243603 271.779388 159.095062 
C 271.779388 172.946522 269.050953 186.663293 263.750229 199.460372 
C 258.449505 212.257452 250.679578 223.885969 240.885117 233.68043 
C 231.090657 243.474891 219.46214 251.244817 206.66506 256.545541 
C 193.86798 261.846265 180.151209 264.574701 166.29975 264.574701 
C 152.448291 264.574701 138.73152 261.846265 125.93444 256.545541 
C 113.13736 251.244817 101.508843 243.474891 91.714383 233.68043 
C 81.919922 223.885969 74.149995 212.257452 68.849271 199.460372 
C 63.548547 186.663293 60.820112 172.946522 60.820112 159.095062 
C 60.820112 145.243603 63.548547 131.526832 68.849271 118.729753 
C 74.149995 105.932673 81.919922 94.304156 91.714383 84.509695 
C 101.508843 74.715234 113.13736 66.945308 125.93444 61.644584 
C 138.73152 56.34386 152.448291 53.615424 166.29975 53.615424 
" clip-path="url(#p005aa538a5)" style="fill: none; stroke: #b0b0b0; stroke-width: 0.8; stroke-linecap: square"/>
     </g>
     <g id="text_13">
      <!-- 0.8 -->
      <g transform="translate(219.039569 65.667329)scale(0.1 -0.1)">
       <use xlink:href="#DejaVuSans-30"/>
       <use xlink:href="#DejaVuSans-2e" x="63.623047"/>
       <use xlink:href="#DejaVuSans-38" x="95.410156"/>
      </g>
     </g>
    </g>
    <g id="ytick_6">
     <g id="line2d_14">
      <path d="M 166.29975 32.087062 
C 182.978288 32.087062 199.494648 35.372371 214.903607 41.754971 
C 230.312567 48.137571 244.314461 57.493337 256.107968 69.286844 
C 267.901475 81.080352 277.257242 95.082245 283.639842 110.491205 
C 290.022442 125.900165 293.30775 142.416525 293.30775 159.095062 
C 293.30775 175.7736 290.022442 192.28996 283.639842 207.69892 
C 277.257242 223.10788 267.901475 237.109773 256.107968 248.903281 
C 244.314461 260.696788 230.312567 270.052554 214.903607 276.435154 
C 199.494648 282.817754 182.978288 286.103062 166.29975 286.103062 
C 149.621212 286.103062 133.104852 282.817754 117.695893 276.435154 
C 102.286933 270.052554 88.285039 260.696788 76.491532 248.903281 
C 64.698025 237.109773 55.342258 223.10788 48.959658 207.69892 
C 42.577058 192.28996 39.29175 175.7736 39.29175 159.095062 
C 39.29175 142.416525 42.577058 125.900165 48.959658 110.491205 
C 55.342258 95.082245 64.698025 81.080352 76.491532 69.286844 
C 88.285039 57.493337 102.286933 48.137571 117.695893 41.754971 
C 133.104852 35.372371 149.621212 32.087062 166.29975 32.087062 
" clip-path="url(#p005aa538a5)" style="fill: none; stroke: #b0b0b0; stroke-width: 0.8; stroke-linecap: square"/>
     </g>
     <g id="text_14">
      <!-- 1.0 -->
      <g transform="translate(229.80375 47.023221)scale(0.1 -0.1)">
       <use xlink:href="#DejaVuSans-31"/>
       <use xlink:href="#DejaVuSans-2e" x="63.623047"/>
       <use xlink:href="#DejaVuSans-30" x="95.410156"/>
      </g>
     </g>
    </g>
   </g>
   <g id="line2d_15">
    <path d="M 166.29975 214.852238 
L 165.617274 213.347596 
L 164.992651 211.0399 
L 164.455915 207.932206 
L 164.0367 204.034032 
L 163.762528 199.382616 
L 163.653717 194.087471 
L 163.792102 185.596526 
L 164.122272 176.314156 
L 164.025944 176.210343 
L 163.572911 177.813652 
L 161.42101 186.511616 
L 159.962235 191.186588 
L 159.064818 193.451372 
L 158.273342 194.966056 
L 157.617388 195.72883 
L 157.348423 195.832455 
L 157.12296 195.753786 
L 156.944081 195.494967 
L 156.738413 194.444751 
L 156.756158 192.696338 
L 157.021498 190.264879 
L 157.555573 187.174047 
L 158.370475 183.472774 
L 160.08653 177.038685 
L 162.134797 170.42717 
L 164.035893 164.703383 
L 163.86354 165.022675 
L 159.657366 173.667407 
L 156.947323 178.627693 
L 154.522191 182.546111 
L 152.550285 185.230991 
L 151.520148 186.351462 
L 150.726641 186.972211 
L 150.17201 187.130839 
L 149.983939 187.049516 
L 149.783339 186.592779 
L 149.808896 185.783827 
L 150.233219 184.032326 
L 151.024822 181.84896 
L 153.317604 176.027502 
L 153.230521 175.920855 
L 152.790399 176.043061 
L 151.51855 176.937317 
L 146.319494 180.882485 
L 144.425052 182.062866 
L 142.82721 182.827387 
L 141.616367 183.127316 
L 141.0532 183.064463 
L 140.699292 182.795366 
L 140.56346 182.326808 
L 140.652527 181.667458 
L 140.971686 180.827337 
L 141.889294 179.25297 
L 143.336101 177.340549 
L 145.300043 175.143227 
L 147.740708 172.73118 
L 150.567535 170.203296 
L 154.621242 166.908356 
L 159.65742 163.184907 
L 160.806981 162.289387 
L 160.718269 162.294172 
L 158.966301 163.056668 
L 154.651716 164.922009 
L 150.601844 166.460241 
L 146.657467 167.714843 
L 143.089295 168.591776 
L 139.993912 169.093393 
L 137.381619 169.26137 
L 135.223741 169.14907 
L 133.475571 168.809607 
L 132.087049 168.291163 
L 131.007684 167.635461 
L 130.188848 166.877557 
L 129.584918 166.046155 
L 129.068703 164.937885 
L 128.704804 163.549213 
L 128.488063 161.655484 
L 128.422231 158.797269 
L 128.532931 155.940438 
L 128.775118 154.289845 
L 129.199695 152.913625 
L 129.788956 151.825154 
L 130.468351 151.018332 
L 131.379361 150.295059 
L 132.568828 149.686367 
L 134.086256 149.229791 
L 135.98234 148.969548 
L 138.305925 148.955962 
L 141.097426 149.243057 
L 144.374566 149.881809 
L 148.102069 150.903628 
L 152.130902 152.283464 
L 156.09365 153.868489 
L 160.781657 155.90919 
L 160.652458 155.739183 
L 157.891257 153.733614 
L 154.11605 150.888197 
L 150.075641 147.562885 
L 147.303844 145.045764 
L 144.938046 142.66359 
L 143.058465 140.509457 
L 141.699562 138.650021 
L 140.870099 137.136402 
L 140.608866 136.340471 
L 140.576571 135.727926 
L 140.76763 135.308482 
L 141.174771 135.090401 
L 141.788577 135.079866 
L 142.596663 135.279901 
L 144.135172 135.968955 
L 145.988413 137.085961 
L 148.710747 139.046599 
L 152.933365 142.217802 
L 153.285077 142.2303 
L 153.288397 141.788814 
L 152.750883 140.347645 
L 150.592417 135.213223 
L 149.967136 133.21169 
L 149.76901 131.768545 
L 149.912005 131.219094 
L 150.07058 131.087111 
L 150.288293 131.057803 
L 150.902645 131.328247 
L 151.755675 132.070552 
L 152.844117 133.321288 
L 154.159583 135.110365 
L 156.516716 138.826989 
L 159.199176 143.646432 
L 161.84318 148.896125 
L 164.041578 153.449745 
L 163.895366 152.972836 
L 161.102975 144.532712 
L 159.161523 137.833391 
L 157.73284 131.887008 
L 157.129128 128.637438 
L 156.798373 126.038306 
L 156.720939 124.117564 
L 156.873073 122.89149 
L 157.027505 122.543359 
L 157.230061 122.374354 
L 157.47766 122.386558 
L 157.767215 122.582155 
L 158.459575 123.531898 
L 159.280525 125.235365 
L 160.199012 127.683115 
L 161.174512 130.809277 
L 162.609708 136.284788 
L 163.944899 141.786852 
L 164.084881 142.012072 
L 164.139347 141.568348 
L 163.947836 136.513181 
L 163.682566 128.345382 
L 163.664857 122.729318 
L 163.816159 117.578171 
L 164.128914 113.108698 
L 164.580224 109.406264 
L 165.141739 106.498173 
L 165.783644 104.390939 
L 166.475879 103.08777 
L 166.831434 102.739725 
L 167.1882 102.595813 
L 167.542315 102.657709 
L 167.889875 102.927128 
L 168.22694 103.405464 
L 168.85389 104.988899 
L 169.393408 107.379999 
L 169.824041 110.454194 
L 170.610802 117.702533 
L 170.845725 117.959644 
L 171.170947 117.419306 
L 171.610565 116.009976 
L 172.864961 110.840607 
L 175.516524 99.755827 
L 177.593761 91.96142 
L 179.79695 84.605078 
L 182.067699 77.907845 
L 184.371964 71.917386 
L 186.688606 66.610875 
L 189.003103 61.941585 
L 191.304342 57.858257 
L 193.583005 54.312508 
L 195.830737 51.261214 
L 198.039707 48.666855 
L 200.202373 46.497096 
L 202.311341 44.724142 
L 204.359277 43.324084 
L 206.338851 42.276303 
L 208.242692 41.56297 
L 210.06335 41.168633 
L 211.793256 41.079876 
L 213.424688 41.285056 
L 214.949729 41.774086 
L 216.360219 42.538269 
L 217.647705 43.570178 
L 218.803379 44.863565 
L 219.818012 46.413301 
L 220.681872 48.215343 
L 221.384627 50.266733 
L 221.915244 52.565607 
L 222.26186 55.111232 
L 222.411641 57.904059 
L 222.350632 60.945775 
L 222.063593 64.239356 
L 221.533849 67.789075 
L 220.743189 71.600424 
L 219.671891 75.679833 
L 218.29903 80.033998 
L 216.603369 84.668437 
L 214.56543 89.584569 
L 212.171881 94.774011 
L 209.424343 100.207756 
L 206.356162 105.8165 
L 203.061832 111.457769 
L 198.170935 119.368396 
L 194.505035 125.265831 
L 193.456129 127.344547 
L 193.422943 127.784187 
L 193.693352 127.871028 
L 194.224066 127.667044 
L 195.85007 126.667859 
L 201.037285 123.303927 
L 202.962204 122.259259 
L 204.649444 121.521363 
L 206.065891 121.102085 
L 207.199626 120.991365 
L 208.049229 121.16951 
L 208.618075 121.613433 
L 208.911401 122.299639 
L 208.934889 123.205543 
L 208.694064 124.30992 
L 208.194175 125.592903 
L 207.440374 127.035742 
L 205.845821 129.460361 
L 203.716202 132.143437 
L 201.088587 135.019885 
L 198.026386 138.013059 
L 194.638735 141.025473 
L 189.93984 144.845093 
L 181.807448 151.153526 
L 181.843407 151.380342 
L 182.343415 151.382155 
L 184.374104 150.959141 
L 188.612364 150.047516 
L 191.477049 149.616173 
L 194.074855 149.428623 
L 196.317347 149.487655 
L 198.190228 149.765824 
L 199.714965 150.225899 
L 200.928639 150.830336 
L 201.873769 151.545263 
L 202.593207 152.341902 
L 203.236609 153.417368 
L 203.661489 154.549355 
L 203.966195 155.948822 
L 204.148696 157.844846 
L 204.15412 160.226299 
L 203.947444 162.358986 
L 203.553179 163.984672 
L 203.069562 165.102697 
L 202.347221 166.154935 
L 201.548065 166.923964 
L 200.50731 167.601117 
L 199.181827 168.155633 
L 197.530339 168.552003 
L 195.520032 168.752121 
L 193.139726 168.72088 
L 190.425714 168.438944 
L 186.779426 167.776771 
L 181.927908 166.790565 
L 181.769209 166.955711 
L 182.119565 167.385744 
L 183.626376 168.596345 
L 191.694194 174.731042 
L 195.21937 177.663055 
L 198.563034 180.680228 
L 201.558859 183.660028 
L 204.106965 186.509153 
L 206.149489 189.153476 
L 207.652339 191.529085 
L 208.343154 192.933671 
L 208.778759 194.173798 
L 208.954007 195.23047 
L 208.863589 196.083495 
L 208.501913 196.711295 
L 207.863329 197.090992 
L 206.942888 197.199022 
L 205.738058 197.012772 
L 204.2522 196.5142 
L 202.50127 195.697246 
L 199.479436 193.932777 
L 193.929387 190.389075 
L 193.522554 190.321957 
L 193.399534 190.578431 
L 193.595078 191.211956 
L 194.96418 193.695639 
L 205.548169 210.958563 
L 208.685002 216.59259 
L 211.517596 222.078763 
L 214.000667 227.333151 
L 216.126646 232.318964 
L 217.906191 237.023949 
L 219.357782 241.44776 
L 220.502475 245.595244 
L 221.36139 249.472979 
L 221.954596 253.087547 
L 222.300689 256.444712 
L 222.416722 259.549065 
L 222.318283 262.403906 
L 222.019632 265.011242 
L 221.533868 267.371827 
L 220.873082 269.485219 
L 220.048505 271.349833 
L 219.070631 272.962982 
L 217.949333 274.320894 
L 216.693959 275.418715 
L 215.313415 276.250478 
L 213.816237 276.80906 
L 212.210651 277.086091 
L 210.504633 277.071846 
L 208.705948 276.755089 
L 206.822201 276.122869 
L 204.860866 275.160272 
L 202.829333 273.850099 
L 200.734936 272.172473 
L 198.585005 270.104358 
L 196.386911 267.618991 
L 194.14815 264.685236 
L 191.876463 261.266922 
L 189.580042 257.322338 
L 187.267907 252.804303 
L 184.950612 247.661858 
L 182.641606 241.845971 
L 180.35994 235.32491 
L 178.135591 228.121909 
L 176.019461 220.400515 
L 173.251739 209.016597 
L 171.375396 201.366712 
L 170.995303 200.394005 
L 170.718826 200.267706 
L 170.517684 200.868092 
L 170.220533 203.50764 
L 169.727062 208.554927 
L 169.268149 211.479376 
L 168.704253 213.674887 
L 168.059966 215.050003 
L 167.71716 215.423747 
L 167.365832 215.5892 
L 167.009906 215.547973 
L 166.653266 215.301798 
L 166.29975 214.852238 
L 166.29975 214.852238 
" clip-path="url(#p005aa538a5)" style="fill: none; stroke: #1f77b4; stroke-width: 1.5; stroke-linecap: square"/>
   </g>
   <g id="patch_3">
    <path d="M 166.29975 26.039062 
C 148.826996 26.039062 131.524143 29.480814 115.381423 36.167347 
C 99.238704 42.853881 84.570053 52.65516 72.21495 65.010263 
C 59.859847 77.365365 50.058568 92.034016 43.372035 108.176736 
C 36.685502 124.319455 33.24375 141.622309 33.24375 159.095062 
C 33.24375 176.567816 36.685502 193.87067 43.372035 210.013389 
C 50.058568 226.156109 59.859847 240.82476 72.21495 253.179862 
C 84.570053 265.534965 99.238704 275.336244 115.381423 282.022778 
C 131.524143 288.709311 148.826996 292.151062 166.29975 292.151062 
C 183.772504 292.151062 201.075357 288.709311 217.218077 282.022778 
C 233.360796 275.336244 248.029447 265.534965 260.38455 253.179862 
C 272.739653 240.82476 282.540932 226.156109 289.227465 210.013389 
C 295.913998 193.87067 299.35575 176.567816 299.35575 159.095062 
C 299.35575 141.622309 295.913998 124.319455 289.227465 108.176736 
C 282.540932 92.034016 272.739653 77.365365 260.38455 65.010263 
C 248.029447 52.65516 233.360796 42.853881 217.218077 36.167347 
C 201.075357 29.480814 183.772504 26.039062 166.29975 26.039062 
" style="fill: none; stroke: #000000; stroke-width: 0.8; stroke-linejoin: miter; stroke-linecap: square"/>
   </g>
  </g>
 </g>
 <defs>
  <clipPath id="p005aa538a5">
   <path d="M 299.35575 159.095062 
C 299.35575 141.622309 295.913998 124.319455 289.227465 108.176736 
C 282.540932 92.034016 272.739653 77.365365 260.38455 65.010263 
C 248.029447 52.65516 233.360796 42.853881 217.218077 36.167347 
C 201.075357 29.480814 183.772504 26.039062 166.29975 26.039062 
C 148.826996 26.039062 131.524143 29.480814 115.381423 36.167347 
C 99.238704 42.853881 84.570053 52.65516 72.21495 65.010263 
C 59.859847 77.365365 50.058568 92.034016 43.372035 108.176736 
C 36.685502 124.319455 33.24375 141.622309 33.24375 159.095062 
C 33.24375 176.567816 36.685502 193.87067 43.372035 210.013389 
C 50.058568 226.156109 59.859847 240.82476 72.21495 253.179862 
C 84.570053 265.534965 99.238704 275.336244 115.381423 282.022778 
C 131.524143 288.709311 148.826996 292.151062 166.29975 292.151062 
C 183.772504 292.151062 201.075357 288.709311 217.218077 282.022778 
C 233.360796 275.336244 248.029447 265.534965 260.38455 253.179862 
C 272.739653 240.82476 282.540932 226.156109 289.227465 210.013389 
C 295.913998 193.87067 299.35575 176.567816 299.35575 159.095062 
M 166.29975 159.095062 
C 166.29975 159.095062 166.29975 159.095062 166.29975 159.095062 
C 166.29975 159.095062 166.29975 159.095062 166.29975 159.095062 
C 166.29975 159.095062 166.29975 159.095062 166.29975 159.095062 
C 166.29975 159.095062 166.29975 159.095062 166.29975 159.095062 
C 166.29975 159.095062 166.29975 159.095062 166.29975 159.095062 
C 166.29975 159.095062 166.29975 159.095062 166.29975 159.095062 
C 166.29975 159.095062 166.29975 159.095062 166.29975 159.095062 
C 166.29975 159.095062 166.29975 159.095062 166.29975 159.095062 
C 166.29975 159.095062 166.29975 159.095062 166.29975 159.095062 
C 166.29975 159.095062 166.29975 159.095062 166.29975 159.095062 
C 166.29975 159.095062 166.29975 159.095062 166.29975 159.095062 
C 166.29975 159.095062 166.29975 159.095062 166.29975 159.095062 
C 166.29975 159.095062 166.29975 159.095062 166.29975 159.095062 
C 166.29975 159.095062 166.29975 159.095062 166.29975 159.095062 
C 166.29975 159.095062 166.29975 159.095062 166.29975 159.095062 
C 166.29975 159.095062 166.29975 159.095062 166.29975 159.095062 
M 299.35575 159.095062 
z
"/>
  </clipPath>
 </defs>
</svg>
