<?xml version="1.0" encoding="utf-8" standalone="no"?>
<!DOCTYPE svg PUBLIC "-//W3C//DTD SVG 1.1//EN"
  "http://www.w3.org/Graphics/SVG/1.1/DTD/svg11.dtd">
<svg xmlns:xlink="http://www.w3.org/1999/xlink" width="329.41825pt" height="318.190125pt" viewBox="0 0 329.41825 318.190125" xmlns="http://www.w3.org/2000/svg" version="1.1">
 <metadata>
  <rdf:RDF xmlns:dc="http://purl.org/dc/elements/1.1/" xmlns:cc="http://creativecommons.org/ns#" xmlns:rdf="http://www.w3.org/1999/02/22-rdf-syntax-ns#">
   <cc:Work>
    <dc:type rdf:resource="http://purl.org/dc/dcmitype/StillImage"/>
    <dc:date>2023-04-04T03:44:52.015709</dc:date>
    <dc:format>image/svg+xml</dc:format>
    <dc:creator>
     <cc:Agent>
      <dc:title>Matplotlib v3.5.1, https://matplotlib.org/</dc:title>
     </cc:Agent>
    </dc:creator>
   </cc:Work>
  </rdf:RDF>
 </metadata>
 <defs>
  <style type="text/css">*{stroke-linejoin: round; stroke-linecap: butt}</style>
 </defs>
 <g id="figure_1">
  <g id="patch_1">
   <path d="M 0 318.190125 
L 329.41825 318.190125 
L 329.41825 0 
L 0 0 
z
" style="fill: #ffffff"/>
  </g>
  <g id="axes_1">
   <g id="patch_2">
    <path d="M 299.35575 159.095062 
C 299.35575 141.622309 295.913998 124.319455 289.227465 108.176736 
C 282.540932 92.034016 272.739653 77.365365 260.38455 65.010263 
C 248.029447 52.65516 233.360796 42.853881 217.218077 36.167347 
C 201.075357 29.480814 183.772504 26.039062 166.29975 26.039062 
C 148.826996 26.039062 131.524143 29.480814 115.381423 36.167347 
C 99.238704 42.853881 84.570053 52.65516 72.21495 65.010263 
C 59.859847 77.365365 50.058568 92.034016 43.372035 108.176736 
C 36.685502 124.319455 33.24375 141.622309 33.24375 159.095062 
C 33.24375 176.567816 36.685502 193.87067 43.372035 210.013389 
C 50.058568 226.156109 59.859847 240.82476 72.21495 253.179862 
C 84.570053 265.534965 99.238704 275.336244 115.381423 282.022778 
C 131.524143 288.709311 148.826996 292.151062 166.29975 292.151062 
C 183.772504 292.151062 201.075357 288.709311 217.218077 282.022778 
C 233.360796 275.336244 248.029447 265.534965 260.38455 253.179862 
C 272.739653 240.82476 282.540932 226.156109 289.227465 210.013389 
C 295.913998 193.87067 299.35575 176.567816 299.35575 159.095062 
M 166.29975 159.095062 
C 166.29975 159.095062 166.29975 159.095062 166.29975 159.095062 
C 166.29975 159.095062 166.29975 159.095062 166.29975 159.095062 
C 166.29975 159.095062 166.29975 159.095062 166.29975 159.095062 
C 166.29975 159.095062 166.29975 159.095062 166.29975 159.095062 
C 166.29975 159.095062 166.29975 159.095062 166.29975 159.095062 
C 166.29975 159.095062 166.29975 159.095062 166.29975 159.095062 
C 166.29975 159.095062 166.29975 159.095062 166.29975 159.095062 
C 166.29975 159.095062 166.29975 159.095062 166.29975 159.095062 
C 166.29975 159.095062 166.29975 159.095062 166.29975 159.095062 
C 166.29975 159.095062 166.29975 159.095062 166.29975 159.095062 
C 166.29975 159.095062 166.29975 159.095062 166.29975 159.095062 
C 166.29975 159.095062 166.29975 159.095062 166.29975 159.095062 
C 166.29975 159.095062 166.29975 159.095062 166.29975 159.095062 
C 166.29975 159.095062 166.29975 159.095062 166.29975 159.095062 
C 166.29975 159.095062 166.29975 159.095062 166.29975 159.095062 
C 166.29975 159.095062 166.29975 159.095062 166.29975 159.095062 
M 299.35575 159.095062 
z
" style="fill: #ffffff"/>
   </g>
   <g id="matplotlib.axis_1">
    <g id="xtick_1">
     <g id="line2d_1">
      <path d="M 166.29975 159.095062 
L 166.29975 26.039062 
" clip-path="url(#p93af2d3cea)" style="fill: none; stroke: #b0b0b0; stroke-width: 0.8; stroke-linecap: square"/>
     </g>
     <g id="text_1">
      <!-- 0° -->
      <g transform="translate(160.6185 14.798437)scale(0.1 -0.1)">
       <defs>
        <path id="DejaVuSans-30" d="M 2034 4250 
Q 1547 4250 1301 3770 
Q 1056 3291 1056 2328 
Q 1056 1369 1301 889 
Q 1547 409 2034 409 
Q 2525 409 2770 889 
Q 3016 1369 3016 2328 
Q 3016 3291 2770 3770 
Q 2525 4250 2034 4250 
z
M 2034 4750 
Q 2819 4750 3233 4129 
Q 3647 3509 3647 2328 
Q 3647 1150 3233 529 
Q 2819 -91 2034 -91 
Q 1250 -91 836 529 
Q 422 1150 422 2328 
Q 422 3509 836 4129 
Q 1250 4750 2034 4750 
z
" transform="scale(0.015625)"/>
        <path id="DejaVuSans-b0" d="M 1600 4347 
Q 1350 4347 1178 4173 
Q 1006 4000 1006 3750 
Q 1006 3503 1178 3333 
Q 1350 3163 1600 3163 
Q 1850 3163 2022 3333 
Q 2194 3503 2194 3750 
Q 2194 3997 2020 4172 
Q 1847 4347 1600 4347 
z
M 1600 4750 
Q 1800 4750 1984 4673 
Q 2169 4597 2303 4453 
Q 2447 4313 2519 4134 
Q 2591 3956 2591 3750 
Q 2591 3338 2302 3052 
Q 2013 2766 1594 2766 
Q 1172 2766 890 3047 
Q 609 3328 609 3750 
Q 609 4169 896 4459 
Q 1184 4750 1600 4750 
z
" transform="scale(0.015625)"/>
       </defs>
       <use xlink:href="#DejaVuSans-30"/>
       <use xlink:href="#DejaVuSans-b0" x="63.623047"/>
      </g>
     </g>
    </g>
    <g id="xtick_2">
     <g id="line2d_2">
      <path d="M 166.29975 159.095062 
L 260.38455 65.010263 
" clip-path="url(#p93af2d3cea)" style="fill: none; stroke: #b0b0b0; stroke-width: 0.8; stroke-linecap: square"/>
     </g>
     <g id="text_2">
      <!-- 45° -->
      <g transform="translate(261.421545 57.870143)scale(0.1 -0.1)">
       <defs>
        <path id="DejaVuSans-34" d="M 2419 4116 
L 825 1625 
L 2419 1625 
L 2419 4116 
z
M 2253 4666 
L 3047 4666 
L 3047 1625 
L 3713 1625 
L 3713 1100 
L 3047 1100 
L 3047 0 
L 2419 0 
L 2419 1100 
L 313 1100 
L 313 1709 
L 2253 4666 
z
" transform="scale(0.015625)"/>
        <path id="DejaVuSans-35" d="M 691 4666 
L 3169 4666 
L 3169 4134 
L 1269 4134 
L 1269 2991 
Q 1406 3038 1543 3061 
Q 1681 3084 1819 3084 
Q 2600 3084 3056 2656 
Q 3513 2228 3513 1497 
Q 3513 744 3044 326 
Q 2575 -91 1722 -91 
Q 1428 -91 1123 -41 
Q 819 9 494 109 
L 494 744 
Q 775 591 1075 516 
Q 1375 441 1709 441 
Q 2250 441 2565 725 
Q 2881 1009 2881 1497 
Q 2881 1984 2565 2268 
Q 2250 2553 1709 2553 
Q 1456 2553 1204 2497 
Q 953 2441 691 2322 
L 691 4666 
z
" transform="scale(0.015625)"/>
       </defs>
       <use xlink:href="#DejaVuSans-34"/>
       <use xlink:href="#DejaVuSans-35" x="63.623047"/>
       <use xlink:href="#DejaVuSans-b0" x="127.246094"/>
      </g>
     </g>
    </g>
    <g id="xtick_3">
     <g id="line2d_3">
      <path d="M 166.29975 159.095062 
L 299.35575 159.095062 
" clip-path="url(#p93af2d3cea)" style="fill: none; stroke: #b0b0b0; stroke-width: 0.8; stroke-linecap: square"/>
     </g>
     <g id="text_3">
      <!-- 90° -->
      <g transform="translate(304.49325 161.854437)scale(0.1 -0.1)">
       <defs>
        <path id="DejaVuSans-39" d="M 703 97 
L 703 672 
Q 941 559 1184 500 
Q 1428 441 1663 441 
Q 2288 441 2617 861 
Q 2947 1281 2994 2138 
Q 2813 1869 2534 1725 
Q 2256 1581 1919 1581 
Q 1219 1581 811 2004 
Q 403 2428 403 3163 
Q 403 3881 828 4315 
Q 1253 4750 1959 4750 
Q 2769 4750 3195 4129 
Q 3622 3509 3622 2328 
Q 3622 1225 3098 567 
Q 2575 -91 1691 -91 
Q 1453 -91 1209 -44 
Q 966 3 703 97 
z
M 1959 2075 
Q 2384 2075 2632 2365 
Q 2881 2656 2881 3163 
Q 2881 3666 2632 3958 
Q 2384 4250 1959 4250 
Q 1534 4250 1286 3958 
Q 1038 3666 1038 3163 
Q 1038 2656 1286 2365 
Q 1534 2075 1959 2075 
z
" transform="scale(0.015625)"/>
       </defs>
       <use xlink:href="#DejaVuSans-39"/>
       <use xlink:href="#DejaVuSans-30" x="63.623047"/>
       <use xlink:href="#DejaVuSans-b0" x="127.246094"/>
      </g>
     </g>
    </g>
    <g id="xtick_4">
     <g id="line2d_4">
      <path d="M 166.29975 159.095062 
L 260.38455 253.179862 
" clip-path="url(#p93af2d3cea)" style="fill: none; stroke: #b0b0b0; stroke-width: 0.8; stroke-linecap: square"/>
     </g>
     <g id="text_4">
      <!-- 135° -->
      <g transform="translate(258.240295 265.838732)scale(0.1 -0.1)">
       <defs>
        <path id="DejaVuSans-31" d="M 794 531 
L 1825 531 
L 1825 4091 
L 703 3866 
L 703 4441 
L 1819 4666 
L 2450 4666 
L 2450 531 
L 3481 531 
L 3481 0 
L 794 0 
L 794 531 
z
" transform="scale(0.015625)"/>
        <path id="DejaVuSans-33" d="M 2597 2516 
Q 3050 2419 3304 2112 
Q 3559 1806 3559 1356 
Q 3559 666 3084 287 
Q 2609 -91 1734 -91 
Q 1441 -91 1130 -33 
Q 819 25 488 141 
L 488 750 
Q 750 597 1062 519 
Q 1375 441 1716 441 
Q 2309 441 2620 675 
Q 2931 909 2931 1356 
Q 2931 1769 2642 2001 
Q 2353 2234 1838 2234 
L 1294 2234 
L 1294 2753 
L 1863 2753 
Q 2328 2753 2575 2939 
Q 2822 3125 2822 3475 
Q 2822 3834 2567 4026 
Q 2313 4219 1838 4219 
Q 1578 4219 1281 4162 
Q 984 4106 628 3988 
L 628 4550 
Q 988 4650 1302 4700 
Q 1616 4750 1894 4750 
Q 2613 4750 3031 4423 
Q 3450 4097 3450 3541 
Q 3450 3153 3228 2886 
Q 3006 2619 2597 2516 
z
" transform="scale(0.015625)"/>
       </defs>
       <use xlink:href="#DejaVuSans-31"/>
       <use xlink:href="#DejaVuSans-33" x="63.623047"/>
       <use xlink:href="#DejaVuSans-35" x="127.246094"/>
       <use xlink:href="#DejaVuSans-b0" x="190.869141"/>
      </g>
     </g>
    </g>
    <g id="xtick_5">
     <g id="line2d_5">
      <path d="M 166.29975 159.095062 
L 166.29975 292.151062 
" clip-path="url(#p93af2d3cea)" style="fill: none; stroke: #b0b0b0; stroke-width: 0.8; stroke-linecap: square"/>
     </g>
     <g id="text_5">
      <!-- 180° -->
      <g transform="translate(154.256 308.910437)scale(0.1 -0.1)">
       <defs>
        <path id="DejaVuSans-38" d="M 2034 2216 
Q 1584 2216 1326 1975 
Q 1069 1734 1069 1313 
Q 1069 891 1326 650 
Q 1584 409 2034 409 
Q 2484 409 2743 651 
Q 3003 894 3003 1313 
Q 3003 1734 2745 1975 
Q 2488 2216 2034 2216 
z
M 1403 2484 
Q 997 2584 770 2862 
Q 544 3141 544 3541 
Q 544 4100 942 4425 
Q 1341 4750 2034 4750 
Q 2731 4750 3128 4425 
Q 3525 4100 3525 3541 
Q 3525 3141 3298 2862 
Q 3072 2584 2669 2484 
Q 3125 2378 3379 2068 
Q 3634 1759 3634 1313 
Q 3634 634 3220 271 
Q 2806 -91 2034 -91 
Q 1263 -91 848 271 
Q 434 634 434 1313 
Q 434 1759 690 2068 
Q 947 2378 1403 2484 
z
M 1172 3481 
Q 1172 3119 1398 2916 
Q 1625 2713 2034 2713 
Q 2441 2713 2670 2916 
Q 2900 3119 2900 3481 
Q 2900 3844 2670 4047 
Q 2441 4250 2034 4250 
Q 1625 4250 1398 4047 
Q 1172 3844 1172 3481 
z
" transform="scale(0.015625)"/>
       </defs>
       <use xlink:href="#DejaVuSans-31"/>
       <use xlink:href="#DejaVuSans-38" x="63.623047"/>
       <use xlink:href="#DejaVuSans-30" x="127.246094"/>
       <use xlink:href="#DejaVuSans-b0" x="190.869141"/>
      </g>
     </g>
    </g>
    <g id="xtick_6">
     <g id="line2d_6">
      <path d="M 166.29975 159.095062 
L 72.21495 253.179862 
" clip-path="url(#p93af2d3cea)" style="fill: none; stroke: #b0b0b0; stroke-width: 0.8; stroke-linecap: square"/>
     </g>
     <g id="text_6">
      <!-- 225° -->
      <g transform="translate(50.271705 265.838732)scale(0.1 -0.1)">
       <defs>
        <path id="DejaVuSans-32" d="M 1228 531 
L 3431 531 
L 3431 0 
L 469 0 
L 469 531 
Q 828 903 1448 1529 
Q 2069 2156 2228 2338 
Q 2531 2678 2651 2914 
Q 2772 3150 2772 3378 
Q 2772 3750 2511 3984 
Q 2250 4219 1831 4219 
Q 1534 4219 1204 4116 
Q 875 4013 500 3803 
L 500 4441 
Q 881 4594 1212 4672 
Q 1544 4750 1819 4750 
Q 2544 4750 2975 4387 
Q 3406 4025 3406 3419 
Q 3406 3131 3298 2873 
Q 3191 2616 2906 2266 
Q 2828 2175 2409 1742 
Q 1991 1309 1228 531 
z
" transform="scale(0.015625)"/>
       </defs>
       <use xlink:href="#DejaVuSans-32"/>
       <use xlink:href="#DejaVuSans-32" x="63.623047"/>
       <use xlink:href="#DejaVuSans-35" x="127.246094"/>
       <use xlink:href="#DejaVuSans-b0" x="190.869141"/>
      </g>
     </g>
    </g>
    <g id="xtick_7">
     <g id="line2d_7">
      <path d="M 166.29975 159.095062 
L 33.24375 159.095062 
" clip-path="url(#p93af2d3cea)" style="fill: none; stroke: #b0b0b0; stroke-width: 0.8; stroke-linecap: square"/>
     </g>
     <g id="text_7">
      <!-- 270° -->
      <g transform="translate(7.2 161.854437)scale(0.1 -0.1)">
       <defs>
        <path id="DejaVuSans-37" d="M 525 4666 
L 3525 4666 
L 3525 4397 
L 1831 0 
L 1172 0 
L 2766 4134 
L 525 4134 
L 525 4666 
z
" transform="scale(0.015625)"/>
       </defs>
       <use xlink:href="#DejaVuSans-32"/>
       <use xlink:href="#DejaVuSans-37" x="63.623047"/>
       <use xlink:href="#DejaVuSans-30" x="127.246094"/>
       <use xlink:href="#DejaVuSans-b0" x="190.869141"/>
      </g>
     </g>
    </g>
    <g id="xtick_8">
     <g id="line2d_8">
      <path d="M 166.29975 159.095062 
L 72.21495 65.010263 
" clip-path="url(#p93af2d3cea)" style="fill: none; stroke: #b0b0b0; stroke-width: 0.8; stroke-linecap: square"/>
     </g>
     <g id="text_8">
      <!-- 315° -->
      <g transform="translate(50.271705 57.870143)scale(0.1 -0.1)">
       <use xlink:href="#DejaVuSans-33"/>
       <use xlink:href="#DejaVuSans-31" x="63.623047"/>
       <use xlink:href="#DejaVuSans-35" x="127.246094"/>
       <use xlink:href="#DejaVuSans-b0" x="190.869141"/>
      </g>
     </g>
    </g>
   </g>
   <g id="matplotlib.axis_2">
    <g id="ytick_1">
     <g id="line2d_9">
      <path d="M 166.29975 158.501943 
C 166.377638 158.501943 166.454768 158.517285 166.526727 158.547091 
C 166.598686 158.576897 166.664074 158.620588 166.719149 158.675663 
C 166.774224 158.730738 166.817915 158.796126 166.847721 158.868085 
C 166.877528 158.940044 166.89287 159.017175 166.89287 159.095062 
C 166.89287 159.17295 166.877528 159.250081 166.847721 159.32204 
C 166.817915 159.393999 166.774224 159.459387 166.719149 159.514462 
C 166.664074 159.569537 166.598686 159.613228 166.526727 159.643034 
C 166.454768 159.67284 166.377638 159.688182 166.29975 159.688182 
C 166.221862 159.688182 166.144732 159.67284 166.072773 159.643034 
C 166.000814 159.613228 165.935426 159.569537 165.880351 159.514462 
C 165.825276 159.459387 165.781585 159.393999 165.751779 159.32204 
C 165.721972 159.250081 165.70663 159.17295 165.70663 159.095062 
C 165.70663 159.017175 165.721972 158.940044 165.751779 158.868085 
C 165.781585 158.796126 165.825276 158.730738 165.880351 158.675663 
C 165.935426 158.620588 166.000814 158.576897 166.072773 158.547091 
C 166.144732 158.517285 166.221862 158.501943 166.29975 158.501943 
" clip-path="url(#p93af2d3cea)" style="fill: none; stroke: #b0b0b0; stroke-width: 0.8; stroke-linecap: square"/>
     </g>
     <g id="text_9">
      <!-- −1.00 -->
      <g transform="translate(166.59631 156.501718)scale(0.1 -0.1)">
       <defs>
        <path id="DejaVuSans-2212" d="M 678 2272 
L 4684 2272 
L 4684 1741 
L 678 1741 
L 678 2272 
z
" transform="scale(0.015625)"/>
        <path id="DejaVuSans-2e" d="M 684 794 
L 1344 794 
L 1344 0 
L 684 0 
L 684 794 
z
" transform="scale(0.015625)"/>
       </defs>
       <use xlink:href="#DejaVuSans-2212"/>
       <use xlink:href="#DejaVuSans-31" x="83.789062"/>
       <use xlink:href="#DejaVuSans-2e" x="147.412109"/>
       <use xlink:href="#DejaVuSans-30" x="179.199219"/>
       <use xlink:href="#DejaVuSans-30" x="242.822266"/>
      </g>
     </g>
    </g>
    <g id="ytick_2">
     <g id="line2d_10">
      <path d="M 166.29975 142.700083 
C 168.452719 142.700083 170.584753 143.124171 172.573837 143.948076 
C 174.562921 144.771982 176.370372 145.979682 177.892752 147.502061 
C 179.415131 149.02444 180.622831 150.831891 181.446736 152.820975 
C 182.270642 154.810059 182.69473 156.942093 182.69473 159.095062 
C 182.69473 161.248032 182.270642 163.380066 181.446736 165.36915 
C 180.622831 167.358234 179.415131 169.165685 177.892752 170.688064 
C 176.370372 172.210443 174.562921 173.418143 172.573837 174.242049 
C 170.584753 175.065954 168.452719 175.490042 166.29975 175.490042 
C 164.146781 175.490042 162.014747 175.065954 160.025663 174.242049 
C 158.036579 173.418143 156.229128 172.210443 154.706748 170.688064 
C 153.184369 169.165685 151.976669 167.358234 151.152764 165.36915 
C 150.328858 163.380066 149.90477 161.248032 149.90477 159.095062 
C 149.90477 156.942093 150.328858 154.810059 151.152764 152.820975 
C 151.976669 150.831891 153.184369 149.02444 154.706748 147.502061 
C 156.229128 145.979682 158.036579 144.771982 160.025663 143.948076 
C 162.014747 143.124171 164.146781 142.700083 166.29975 142.700083 
" clip-path="url(#p93af2d3cea)" style="fill: none; stroke: #b0b0b0; stroke-width: 0.8; stroke-linecap: square"/>
     </g>
     <g id="text_10">
      <!-- −0.75 -->
      <g transform="translate(174.49724 142.816906)scale(0.1 -0.1)">
       <use xlink:href="#DejaVuSans-2212"/>
       <use xlink:href="#DejaVuSans-30" x="83.789062"/>
       <use xlink:href="#DejaVuSans-2e" x="147.412109"/>
       <use xlink:href="#DejaVuSans-37" x="179.199219"/>
       <use xlink:href="#DejaVuSans-35" x="242.822266"/>
      </g>
     </g>
    </g>
    <g id="ytick_3">
     <g id="line2d_11">
      <path d="M 166.29975 126.898223 
C 170.5278 126.898223 174.714738 127.731056 178.620947 129.349061 
C 182.527156 130.967066 186.076671 133.338776 189.066354 136.328459 
C 192.056037 139.318142 194.427747 142.867656 196.045751 146.773865 
C 197.663756 150.680074 198.49659 154.867012 198.49659 159.095062 
C 198.49659 163.323113 197.663756 167.510051 196.045751 171.41626 
C 194.427747 175.322469 192.056037 178.871983 189.066354 181.861666 
C 186.076671 184.851349 182.527156 187.223059 178.620947 188.841064 
C 174.714738 190.459069 170.5278 191.291902 166.29975 191.291902 
C 162.0717 191.291902 157.884762 190.459069 153.978553 188.841064 
C 150.072344 187.223059 146.522829 184.851349 143.533146 181.861666 
C 140.543463 178.871983 138.171753 175.322469 136.553749 171.41626 
C 134.935744 167.510051 134.10291 163.323113 134.10291 159.095062 
C 134.10291 154.867012 134.935744 150.680074 136.553749 146.773865 
C 138.171753 142.867656 140.543463 139.318142 143.533146 136.328459 
C 146.522829 133.338776 150.072344 130.967066 153.978553 129.349061 
C 157.884762 127.731056 162.0717 126.898223 166.29975 126.898223 
" clip-path="url(#p93af2d3cea)" style="fill: none; stroke: #b0b0b0; stroke-width: 0.8; stroke-linecap: square"/>
     </g>
     <g id="text_11">
      <!-- −0.50 -->
      <g transform="translate(182.39817 129.132094)scale(0.1 -0.1)">
       <use xlink:href="#DejaVuSans-2212"/>
       <use xlink:href="#DejaVuSans-30" x="83.789062"/>
       <use xlink:href="#DejaVuSans-2e" x="147.412109"/>
       <use xlink:href="#DejaVuSans-35" x="179.199219"/>
       <use xlink:href="#DejaVuSans-30" x="242.822266"/>
      </g>
     </g>
    </g>
    <g id="ytick_4">
     <g id="line2d_12">
      <path d="M 166.29975 111.096363 
C 172.602882 111.096363 178.844723 112.337942 184.668057 114.750046 
C 190.491391 117.16215 195.782969 120.697869 200.239956 125.154856 
C 204.696943 129.611843 208.232662 134.903421 210.644766 140.726755 
C 213.05687 146.550089 214.29845 152.791931 214.29845 159.095062 
C 214.29845 165.398194 213.05687 171.640036 210.644766 177.46337 
C 208.232662 183.286704 204.696943 188.578282 200.239956 193.035269 
C 195.782969 197.492256 190.491391 201.027975 184.668057 203.440079 
C 178.844723 205.852183 172.602882 207.093762 166.29975 207.093762 
C 159.996618 207.093762 153.754777 205.852183 147.931443 203.440079 
C 142.108109 201.027975 136.816531 197.492256 132.359544 193.035269 
C 127.902557 188.578282 124.366838 183.286704 121.954734 177.46337 
C 119.54263 171.640036 118.30105 165.398194 118.30105 159.095062 
C 118.30105 152.791931 119.54263 146.550089 121.954734 140.726755 
C 124.366838 134.903421 127.902557 129.611843 132.359544 125.154856 
C 136.816531 120.697869 142.108109 117.16215 147.931443 114.750046 
C 153.754777 112.337942 159.996618 111.096363 166.29975 111.096363 
" clip-path="url(#p93af2d3cea)" style="fill: none; stroke: #b0b0b0; stroke-width: 0.8; stroke-linecap: square"/>
     </g>
     <g id="text_12">
      <!-- −0.25 -->
      <g transform="translate(190.2991 115.447281)scale(0.1 -0.1)">
       <use xlink:href="#DejaVuSans-2212"/>
       <use xlink:href="#DejaVuSans-30" x="83.789062"/>
       <use xlink:href="#DejaVuSans-2e" x="147.412109"/>
       <use xlink:href="#DejaVuSans-32" x="179.199219"/>
       <use xlink:href="#DejaVuSans-35" x="242.822266"/>
      </g>
     </g>
    </g>
    <g id="ytick_5">
     <g id="line2d_13">
      <path d="M 166.29975 95.294503 
C 174.677963 95.294503 182.974708 96.944828 190.715167 100.151031 
C 198.455627 103.357234 205.489268 108.056963 211.413559 113.981254 
C 217.33785 119.905545 222.037578 126.939186 225.243782 134.679645 
C 228.449985 142.420105 230.10031 150.71685 230.10031 159.095062 
C 230.10031 167.473275 228.449985 175.77002 225.243782 183.51048 
C 222.037578 191.250939 217.33785 198.28458 211.413559 204.208871 
C 205.489268 210.133162 198.455627 214.832891 190.715167 218.039094 
C 182.974708 221.245297 174.677963 222.895622 166.29975 222.895622 
C 157.921537 222.895622 149.624792 221.245297 141.884333 218.039094 
C 134.143873 214.832891 127.110232 210.133162 121.185941 204.208871 
C 115.26165 198.28458 110.561922 191.250939 107.355718 183.51048 
C 104.149515 175.77002 102.49919 167.473275 102.49919 159.095062 
C 102.49919 150.71685 104.149515 142.420105 107.355718 134.679645 
C 110.561922 126.939186 115.26165 119.905545 121.185941 113.981254 
C 127.110232 108.056963 134.143873 103.357234 141.884333 100.151031 
C 149.624792 96.944828 157.921537 95.294503 166.29975 95.294503 
" clip-path="url(#p93af2d3cea)" style="fill: none; stroke: #b0b0b0; stroke-width: 0.8; stroke-linecap: square"/>
     </g>
     <g id="text_13">
      <!-- 0.00 -->
      <g transform="translate(198.20003 101.762469)scale(0.1 -0.1)">
       <use xlink:href="#DejaVuSans-30"/>
       <use xlink:href="#DejaVuSans-2e" x="63.623047"/>
       <use xlink:href="#DejaVuSans-30" x="95.410156"/>
       <use xlink:href="#DejaVuSans-30" x="159.033203"/>
      </g>
     </g>
    </g>
    <g id="ytick_6">
     <g id="line2d_14">
      <path d="M 166.29975 79.492643 
C 176.753044 79.492643 187.104693 81.551714 196.762277 85.552016 
C 206.419862 89.552318 215.195566 95.416056 222.587161 102.807652 
C 229.978756 110.199247 235.842494 118.974951 239.842797 128.632535 
C 243.843099 138.29012 245.90217 148.641768 245.90217 159.095062 
C 245.90217 169.548357 243.843099 179.900005 239.842797 189.55759 
C 235.842494 199.215174 229.978756 207.990878 222.587161 215.382473 
C 215.195566 222.774069 206.419862 228.637807 196.762277 232.638109 
C 187.104693 236.638411 176.753044 238.697482 166.29975 238.697482 
C 155.846456 238.697482 145.494807 236.638411 135.837223 232.638109 
C 126.179638 228.637807 117.403934 222.774069 110.012339 215.382473 
C 102.620744 207.990878 96.757006 199.215174 92.756703 189.55759 
C 88.756401 179.900005 86.69733 169.548357 86.69733 159.095062 
C 86.69733 148.641768 88.756401 138.29012 92.756703 128.632535 
C 96.757006 118.974951 102.620744 110.199247 110.012339 102.807652 
C 117.403934 95.416056 126.179638 89.552318 135.837223 85.552016 
C 145.494807 81.551714 155.846456 79.492643 166.29975 79.492643 
" clip-path="url(#p93af2d3cea)" style="fill: none; stroke: #b0b0b0; stroke-width: 0.8; stroke-linecap: square"/>
     </g>
     <g id="text_14">
      <!-- 0.25 -->
      <g transform="translate(206.10096 88.077657)scale(0.1 -0.1)">
       <use xlink:href="#DejaVuSans-30"/>
       <use xlink:href="#DejaVuSans-2e" x="63.623047"/>
       <use xlink:href="#DejaVuSans-32" x="95.410156"/>
       <use xlink:href="#DejaVuSans-35" x="159.033203"/>
      </g>
     </g>
    </g>
    <g id="ytick_7">
     <g id="line2d_15">
      <path d="M 166.29975 63.690783 
C 178.828125 63.690783 191.234678 66.158599 202.809387 70.953001 
C 214.384097 75.747403 224.901864 82.77515 233.760763 91.634049 
C 242.619662 100.492948 249.64741 111.010716 254.441812 122.585425 
C 259.236213 134.160135 261.70403 146.566687 261.70403 159.095062 
C 261.70403 171.623438 259.236213 184.02999 254.441812 195.6047 
C 249.64741 207.179409 242.619662 217.697177 233.760763 226.556076 
C 224.901864 235.414975 214.384097 242.442722 202.809387 247.237124 
C 191.234678 252.031526 178.828125 254.499342 166.29975 254.499342 
C 153.771375 254.499342 141.364822 252.031526 129.790113 247.237124 
C 118.215403 242.442722 107.697636 235.414975 98.838737 226.556076 
C 89.979838 217.697177 82.95209 207.179409 78.157688 195.6047 
C 73.363287 184.02999 70.89547 171.623438 70.89547 159.095062 
C 70.89547 146.566687 73.363287 134.160135 78.157688 122.585425 
C 82.95209 111.010716 89.979838 100.492948 98.838737 91.634049 
C 107.697636 82.77515 118.215403 75.747403 129.790113 70.953001 
C 141.364822 66.158599 153.771375 63.690783 166.29975 63.690783 
" clip-path="url(#p93af2d3cea)" style="fill: none; stroke: #b0b0b0; stroke-width: 0.8; stroke-linecap: square"/>
     </g>
     <g id="text_15">
      <!-- 0.50 -->
      <g transform="translate(214.00189 74.392845)scale(0.1 -0.1)">
       <use xlink:href="#DejaVuSans-30"/>
       <use xlink:href="#DejaVuSans-2e" x="63.623047"/>
       <use xlink:href="#DejaVuSans-35" x="95.410156"/>
       <use xlink:href="#DejaVuSans-30" x="159.033203"/>
      </g>
     </g>
    </g>
    <g id="ytick_8">
     <g id="line2d_16">
      <path d="M 166.29975 47.888923 
C 180.903207 47.888923 195.364663 50.765485 208.856497 56.353986 
C 222.348332 61.942487 234.608163 70.134244 244.934366 80.460447 
C 255.260569 90.78665 263.452326 103.046481 269.040827 116.538315 
C 274.629327 130.03015 277.50589 144.491606 277.50589 159.095062 
C 277.50589 173.698519 274.629327 188.159975 269.040827 201.65181 
C 263.452326 215.143644 255.260569 227.403475 244.934366 237.729678 
C 234.608163 248.055881 222.348332 256.247638 208.856497 261.836139 
C 195.364663 267.42464 180.903207 270.301202 166.29975 270.301202 
C 151.696293 270.301202 137.234837 267.42464 123.743003 261.836139 
C 110.251168 256.247638 97.991337 248.055881 87.665134 237.729678 
C 77.338931 227.403475 69.147174 215.143644 63.558673 201.65181 
C 57.970173 188.159975 55.09361 173.698519 55.09361 159.095062 
C 55.09361 144.491606 57.970173 130.03015 63.558673 116.538315 
C 69.147174 103.046481 77.338931 90.78665 87.665134 80.460447 
C 97.991337 70.134244 110.251168 61.942487 123.743003 56.353986 
C 137.234837 50.765485 151.696293 47.888923 166.29975 47.888923 
" clip-path="url(#p93af2d3cea)" style="fill: none; stroke: #b0b0b0; stroke-width: 0.8; stroke-linecap: square"/>
     </g>
     <g id="text_16">
      <!-- 0.75 -->
      <g transform="translate(221.90282 60.708033)scale(0.1 -0.1)">
       <use xlink:href="#DejaVuSans-30"/>
       <use xlink:href="#DejaVuSans-2e" x="63.623047"/>
       <use xlink:href="#DejaVuSans-37" x="95.410156"/>
       <use xlink:href="#DejaVuSans-35" x="159.033203"/>
      </g>
     </g>
    </g>
    <g id="ytick_9">
     <g id="line2d_17">
      <path d="M 166.29975 32.087062 
C 182.978288 32.087062 199.494648 35.372371 214.903607 41.754971 
C 230.312567 48.137571 244.314461 57.493337 256.107968 69.286844 
C 267.901475 81.080352 277.257242 95.082245 283.639842 110.491205 
C 290.022442 125.900165 293.30775 142.416525 293.30775 159.095062 
C 293.30775 175.7736 290.022442 192.28996 283.639842 207.69892 
C 277.257242 223.10788 267.901475 237.109773 256.107968 248.903281 
C 244.314461 260.696788 230.312567 270.052554 214.903607 276.435154 
C 199.494648 282.817754 182.978288 286.103062 166.29975 286.103062 
C 149.621212 286.103062 133.104852 282.817754 117.695893 276.435154 
C 102.286933 270.052554 88.285039 260.696788 76.491532 248.903281 
C 64.698025 237.109773 55.342258 223.10788 48.959658 207.69892 
C 42.577058 192.28996 39.29175 175.7736 39.29175 159.095062 
C 39.29175 142.416525 42.577058 125.900165 48.959658 110.491205 
C 55.342258 95.082245 64.698025 81.080352 76.491532 69.286844 
C 88.285039 57.493337 102.286933 48.137571 117.695893 41.754971 
C 133.104852 35.372371 149.621212 32.087062 166.29975 32.087062 
" clip-path="url(#p93af2d3cea)" style="fill: none; stroke: #b0b0b0; stroke-width: 0.8; stroke-linecap: square"/>
     </g>
     <g id="text_17">
      <!-- 1.00 -->
      <g transform="translate(229.80375 47.023221)scale(0.1 -0.1)">
       <use xlink:href="#DejaVuSans-31"/>
       <use xlink:href="#DejaVuSans-2e" x="63.623047"/>
       <use xlink:href="#DejaVuSans-30" x="95.410156"/>
       <use xlink:href="#DejaVuSans-30" x="159.033203"/>
      </g>
     </g>
    </g>
   </g>
   <g id="line2d_18">
    <path d="M 166.29975 169.492134 
L 165.64382 176.468497 
L 164.253167 188.629493 
L 162.932585 200.185177 
L 160.945744 219.742434 
L 162.603223 193.535696 
L 163.276141 176.08653 
L 163.94395 167.592398 
L 163.805762 167.670367 
L 163.432833 168.301204 
L 161.8447 171.704083 
L 153.273888 190.230263 
L 150.777752 195.550983 
L 150.952968 194.519642 
L 156.600077 179.684383 
L 157.707612 176.203415 
L 157.853888 175.149537 
L 157.718973 174.919649 
L 157.4193 174.991799 
L 156.674106 175.587016 
L 155.118587 177.190633 
L 134.733875 199.210731 
L 124.445846 210.268287 
L 110.412951 225.698355 
L 120.207156 211.967227 
L 135.473304 191.056987 
L 140.120633 184.264808 
L 142.789403 180.050639 
L 144.087761 177.673697 
L 144.629311 176.313045 
L 144.758636 175.556975 
L 144.646623 175.004535 
L 144.280319 174.642586 
L 143.636905 174.46444 
L 142.680733 174.470418 
L 140.825129 174.780408 
L 137.331981 175.69837 
L 133.79696 176.653407 
L 132.565454 176.774174 
L 132.388738 176.595815 
L 132.570446 176.234265 
L 133.790382 175.103085 
L 137.304681 172.477177 
L 146.375073 165.819296 
L 149.430868 163.28968 
L 150.907716 161.809093 
L 151.702691 160.731455 
L 152.086274 159.878062 
L 152.204769 159.0729 
L 152.099547 158.357578 
L 151.731582 157.508281 
L 151.055629 156.555159 
L 149.835288 155.274849 
L 147.898721 153.586156 
L 144.358941 150.834665 
L 137.725648 146.016078 
L 133.407938 142.770004 
L 132.435714 141.753192 
L 132.43269 141.481904 
L 132.779973 141.393789 
L 134.216872 141.633001 
L 142.487548 143.700348 
L 143.76471 143.708678 
L 144.359858 143.500078 
L 144.68249 143.10702 
L 144.75362 142.521729 
L 144.584725 141.729977 
L 143.989972 140.315079 
L 142.618022 137.852711 
L 140.401136 134.351263 
L 135.97985 127.85555 
L 130.884369 120.719414 
L 111.53752 94.247226 
L 114.352662 96.790068 
L 126.704683 110.371779 
L 157.090806 142.969513 
L 157.659104 143.278964 
L 157.836291 143.129193 
L 157.837661 142.634711 
L 157.443452 141.037955 
L 156.347766 137.796697 
L 153.685842 130.715738 
L 150.31192 121.870278 
L 152.003887 125.223788 
L 163.847831 150.564458 
L 163.966582 150.575383 
L 164.015149 150.089039 
L 163.827379 147.880346 
L 163.137047 140.295384 
L 162.851981 134.894325 
L 162.524453 122.846579 
L 162.220969 117.388397 
L 161.128865 102.55241 
L 162.289741 111.980864 
L 164.822809 134.405819 
L 166.099407 146.354609 
L 166.736945 153.061069 
L 166.775677 153.053909 
L 166.92394 152.712549 
L 167.580433 150.105632 
L 168.965807 144.891111 
L 170.657245 139.329392 
L 172.623807 133.490674 
L 175.367681 125.983067 
L 179.292574 115.943076 
L 185.381171 101.05244 
L 193.594367 81.063416 
L 198.530773 68.777613 
L 206.704447 48.084069 
L 203.675203 58.382284 
L 199.535346 71.235715 
L 197.496435 78.16741 
L 196.438853 82.352572 
L 195.969343 84.922554 
L 195.928186 86.355519 
L 196.252034 86.864175 
L 196.932714 86.516198 
L 198.009637 85.264297 
L 199.585923 82.919084 
L 201.887436 79.028324 
L 205.465816 72.449937 
L 212.070538 59.512125 
L 216.540098 51.575064 
L 211.429021 64.076175 
L 204.702309 79.534271 
L 196.107446 100.205547 
L 183.889677 130.017633 
L 178.874662 141.462754 
L 177.414315 145.061096 
L 177.214739 146.003696 
L 177.319442 146.373987 
L 177.522855 146.463779 
L 178.05312 146.359263 
L 179.256964 145.744852 
L 181.809208 144.08945 
L 186.522896 140.955037 
L 187.532758 140.525832 
L 187.557161 140.739157 
L 186.657748 141.958053 
L 183.558739 145.293383 
L 175.39429 153.844327 
L 175.026535 154.556545 
L 175.061588 154.950495 
L 175.333471 155.231945 
L 176.045063 155.565402 
L 178.483875 156.589229 
L 179.421476 157.246716 
L 180.035389 157.947738 
L 180.337165 158.631382 
L 180.388229 159.250135 
L 180.235989 159.862789 
L 179.828089 160.525551 
L 179.118239 161.189411 
L 178.11464 161.797319 
L 176.592691 162.425133 
L 175.24709 163.021496 
L 175.027772 163.324855 
L 175.0367 163.673831 
L 175.271244 164.162513 
L 175.937847 165.029474 
L 177.739645 166.958809 
L 186.304274 175.827321 
L 187.436643 177.231181 
L 187.590405 177.59687 
L 187.386881 177.654072 
L 186.139431 177.004032 
L 182.143319 174.327761 
L 178.731115 172.147638 
L 177.752232 171.742164 
L 177.359811 171.781902 
L 177.23833 171.965881 
L 177.245991 172.478628 
L 177.58254 173.62093 
L 178.742844 176.426983 
L 185.512092 192.012244 
L 190.924625 205.197651 
L 199.485509 226.222741 
L 207.410604 244.955461 
L 220.427716 273.991517 
L 215.83424 265.979565 
L 208.176132 250.965254 
L 203.456092 241.987704 
L 200.623616 236.977377 
L 198.725321 233.942171 
L 197.417077 232.179136 
L 196.546484 231.392628 
L 196.046088 231.47173 
L 195.900728 232.42644 
L 196.143683 234.389206 
L 196.877924 237.680977 
L 198.35086 243.024663 
L 201.215535 252.280516 
L 206.917581 269.609048 
L 202.166312 258.610246 
L 191.761216 232.627129 
L 176.6688 195.602627 
L 173.545825 187.287213 
L 170.869055 179.51584 
L 168.833663 172.833127 
L 167.282181 166.863946 
L 166.755782 165.125845 
L 166.685587 165.221612 
L 166.564608 166.110281 
L 166.29975 169.492134 
L 166.29975 169.492134 
" clip-path="url(#p93af2d3cea)" style="fill: none; stroke: #1f77b4; stroke-width: 1.5; stroke-linecap: square"/>
   </g>
   <g id="patch_3">
    <path d="M 166.29975 26.039062 
C 148.826996 26.039062 131.524143 29.480814 115.381423 36.167347 
C 99.238704 42.853881 84.570053 52.65516 72.21495 65.010263 
C 59.859847 77.365365 50.058568 92.034016 43.372035 108.176736 
C 36.685502 124.319455 33.24375 141.622309 33.24375 159.095062 
C 33.24375 176.567816 36.685502 193.87067 43.372035 210.013389 
C 50.058568 226.156109 59.859847 240.82476 72.21495 253.179862 
C 84.570053 265.534965 99.238704 275.336244 115.381423 282.022778 
C 131.524143 288.709311 148.826996 292.151062 166.29975 292.151062 
C 183.772504 292.151062 201.075357 288.709311 217.218077 282.022778 
C 233.360796 275.336244 248.029447 265.534965 260.38455 253.179862 
C 272.739653 240.82476 282.540932 226.156109 289.227465 210.013389 
C 295.913998 193.87067 299.35575 176.567816 299.35575 159.095062 
C 299.35575 141.622309 295.913998 124.319455 289.227465 108.176736 
C 282.540932 92.034016 272.739653 77.365365 260.38455 65.010263 
C 248.029447 52.65516 233.360796 42.853881 217.218077 36.167347 
C 201.075357 29.480814 183.772504 26.039062 166.29975 26.039062 
" style="fill: none; stroke: #000000; stroke-width: 0.8; stroke-linejoin: miter; stroke-linecap: square"/>
   </g>
  </g>
 </g>
 <defs>
  <clipPath id="p93af2d3cea">
   <path d="M 299.35575 159.095062 
C 299.35575 141.622309 295.913998 124.319455 289.227465 108.176736 
C 282.540932 92.034016 272.739653 77.365365 260.38455 65.010263 
C 248.029447 52.65516 233.360796 42.853881 217.218077 36.167347 
C 201.075357 29.480814 183.772504 26.039062 166.29975 26.039062 
C 148.826996 26.039062 131.524143 29.480814 115.381423 36.167347 
C 99.238704 42.853881 84.570053 52.65516 72.21495 65.010263 
C 59.859847 77.365365 50.058568 92.034016 43.372035 108.176736 
C 36.685502 124.319455 33.24375 141.622309 33.24375 159.095062 
C 33.24375 176.567816 36.685502 193.87067 43.372035 210.013389 
C 50.058568 226.156109 59.859847 240.82476 72.21495 253.179862 
C 84.570053 265.534965 99.238704 275.336244 115.381423 282.022778 
C 131.524143 288.709311 148.826996 292.151062 166.29975 292.151062 
C 183.772504 292.151062 201.075357 288.709311 217.218077 282.022778 
C 233.360796 275.336244 248.029447 265.534965 260.38455 253.179862 
C 272.739653 240.82476 282.540932 226.156109 289.227465 210.013389 
C 295.913998 193.87067 299.35575 176.567816 299.35575 159.095062 
M 166.29975 159.095062 
C 166.29975 159.095062 166.29975 159.095062 166.29975 159.095062 
C 166.29975 159.095062 166.29975 159.095062 166.29975 159.095062 
C 166.29975 159.095062 166.29975 159.095062 166.29975 159.095062 
C 166.29975 159.095062 166.29975 159.095062 166.29975 159.095062 
C 166.29975 159.095062 166.29975 159.095062 166.29975 159.095062 
C 166.29975 159.095062 166.29975 159.095062 166.29975 159.095062 
C 166.29975 159.095062 166.29975 159.095062 166.29975 159.095062 
C 166.29975 159.095062 166.29975 159.095062 166.29975 159.095062 
C 166.29975 159.095062 166.29975 159.095062 166.29975 159.095062 
C 166.29975 159.095062 166.29975 159.095062 166.29975 159.095062 
C 166.29975 159.095062 166.29975 159.095062 166.29975 159.095062 
C 166.29975 159.095062 166.29975 159.095062 166.29975 159.095062 
C 166.29975 159.095062 166.29975 159.095062 166.29975 159.095062 
C 166.29975 159.095062 166.29975 159.095062 166.29975 159.095062 
C 166.29975 159.095062 166.29975 159.095062 166.29975 159.095062 
C 166.29975 159.095062 166.29975 159.095062 166.29975 159.095062 
M 299.35575 159.095062 
z
"/>
  </clipPath>
 </defs>
</svg>
