<?xml version="1.0" encoding="utf-8" standalone="no"?>
<!DOCTYPE svg PUBLIC "-//W3C//DTD SVG 1.1//EN"
  "http://www.w3.org/Graphics/SVG/1.1/DTD/svg11.dtd">
<svg xmlns:xlink="http://www.w3.org/1999/xlink" width="460.8pt" height="345.6pt" viewBox="0 0 460.8 345.6" xmlns="http://www.w3.org/2000/svg" version="1.1">
 <metadata>
  <rdf:RDF xmlns:dc="http://purl.org/dc/elements/1.1/" xmlns:cc="http://creativecommons.org/ns#" xmlns:rdf="http://www.w3.org/1999/02/22-rdf-syntax-ns#">
   <cc:Work>
    <dc:type rdf:resource="http://purl.org/dc/dcmitype/StillImage"/>
    <dc:date>2023-03-03T22:20:29.654162</dc:date>
    <dc:format>image/svg+xml</dc:format>
    <dc:creator>
     <cc:Agent>
      <dc:title>Matplotlib v3.5.1, https://matplotlib.org/</dc:title>
     </cc:Agent>
    </dc:creator>
   </cc:Work>
  </rdf:RDF>
 </metadata>
 <defs>
  <style type="text/css">*{stroke-linejoin: round; stroke-linecap: butt}</style>
 </defs>
 <g id="figure_1">
  <g id="patch_1">
   <path d="M 0 345.6 
L 460.8 345.6 
L 460.8 0 
L 0 0 
z
" style="fill: #ffffff"/>
  </g>
  <g id="axes_1">
   <g id="patch_2">
    <path d="M 57.6 307.584 
L 414.72 307.584 
L 414.72 41.472 
L 57.6 41.472 
z
" style="fill: #ffffff"/>
   </g>
   <g id="matplotlib.axis_1">
    <g id="xtick_1">
     <g id="line2d_1">
      <path d="M 106.298182 307.584 
L 106.298182 41.472 
" clip-path="url(#pc11aa7c24b)" style="fill: none; stroke: #b0b0b0; stroke-width: 0.8; stroke-linecap: square"/>
     </g>
     <g id="line2d_2">
      <defs>
       <path id="m6cdd9f52a4" d="M 0 0 
L 0 3.5 
" style="stroke: #000000; stroke-width: 0.8"/>
      </defs>
      <g>
       <use xlink:href="#m6cdd9f52a4" x="106.298182" y="307.584" style="stroke: #000000; stroke-width: 0.8"/>
      </g>
     </g>
     <g id="text_1">
      <!-- −0.4 -->
      <g transform="translate(94.156776 322.182437)scale(0.1 -0.1)">
       <defs>
        <path id="DejaVuSans-2212" d="M 678 2272 
L 4684 2272 
L 4684 1741 
L 678 1741 
L 678 2272 
z
" transform="scale(0.015625)"/>
        <path id="DejaVuSans-30" d="M 2034 4250 
Q 1547 4250 1301 3770 
Q 1056 3291 1056 2328 
Q 1056 1369 1301 889 
Q 1547 409 2034 409 
Q 2525 409 2770 889 
Q 3016 1369 3016 2328 
Q 3016 3291 2770 3770 
Q 2525 4250 2034 4250 
z
M 2034 4750 
Q 2819 4750 3233 4129 
Q 3647 3509 3647 2328 
Q 3647 1150 3233 529 
Q 2819 -91 2034 -91 
Q 1250 -91 836 529 
Q 422 1150 422 2328 
Q 422 3509 836 4129 
Q 1250 4750 2034 4750 
z
" transform="scale(0.015625)"/>
        <path id="DejaVuSans-2e" d="M 684 794 
L 1344 794 
L 1344 0 
L 684 0 
L 684 794 
z
" transform="scale(0.015625)"/>
        <path id="DejaVuSans-34" d="M 2419 4116 
L 825 1625 
L 2419 1625 
L 2419 4116 
z
M 2253 4666 
L 3047 4666 
L 3047 1625 
L 3713 1625 
L 3713 1100 
L 3047 1100 
L 3047 0 
L 2419 0 
L 2419 1100 
L 313 1100 
L 313 1709 
L 2253 4666 
z
" transform="scale(0.015625)"/>
       </defs>
       <use xlink:href="#DejaVuSans-2212"/>
       <use xlink:href="#DejaVuSans-30" x="83.789062"/>
       <use xlink:href="#DejaVuSans-2e" x="147.412109"/>
       <use xlink:href="#DejaVuSans-34" x="179.199219"/>
      </g>
     </g>
    </g>
    <g id="xtick_2">
     <g id="line2d_3">
      <path d="M 171.229091 307.584 
L 171.229091 41.472 
" clip-path="url(#pc11aa7c24b)" style="fill: none; stroke: #b0b0b0; stroke-width: 0.8; stroke-linecap: square"/>
     </g>
     <g id="line2d_4">
      <g>
       <use xlink:href="#m6cdd9f52a4" x="171.229091" y="307.584" style="stroke: #000000; stroke-width: 0.8"/>
      </g>
     </g>
     <g id="text_2">
      <!-- −0.2 -->
      <g transform="translate(159.087685 322.182437)scale(0.1 -0.1)">
       <defs>
        <path id="DejaVuSans-32" d="M 1228 531 
L 3431 531 
L 3431 0 
L 469 0 
L 469 531 
Q 828 903 1448 1529 
Q 2069 2156 2228 2338 
Q 2531 2678 2651 2914 
Q 2772 3150 2772 3378 
Q 2772 3750 2511 3984 
Q 2250 4219 1831 4219 
Q 1534 4219 1204 4116 
Q 875 4013 500 3803 
L 500 4441 
Q 881 4594 1212 4672 
Q 1544 4750 1819 4750 
Q 2544 4750 2975 4387 
Q 3406 4025 3406 3419 
Q 3406 3131 3298 2873 
Q 3191 2616 2906 2266 
Q 2828 2175 2409 1742 
Q 1991 1309 1228 531 
z
" transform="scale(0.015625)"/>
       </defs>
       <use xlink:href="#DejaVuSans-2212"/>
       <use xlink:href="#DejaVuSans-30" x="83.789062"/>
       <use xlink:href="#DejaVuSans-2e" x="147.412109"/>
       <use xlink:href="#DejaVuSans-32" x="179.199219"/>
      </g>
     </g>
    </g>
    <g id="xtick_3">
     <g id="line2d_5">
      <path d="M 236.16 307.584 
L 236.16 41.472 
" clip-path="url(#pc11aa7c24b)" style="fill: none; stroke: #b0b0b0; stroke-width: 0.8; stroke-linecap: square"/>
     </g>
     <g id="line2d_6">
      <g>
       <use xlink:href="#m6cdd9f52a4" x="236.16" y="307.584" style="stroke: #000000; stroke-width: 0.8"/>
      </g>
     </g>
     <g id="text_3">
      <!-- 0.0 -->
      <g transform="translate(228.208438 322.182437)scale(0.1 -0.1)">
       <use xlink:href="#DejaVuSans-30"/>
       <use xlink:href="#DejaVuSans-2e" x="63.623047"/>
       <use xlink:href="#DejaVuSans-30" x="95.410156"/>
      </g>
     </g>
    </g>
    <g id="xtick_4">
     <g id="line2d_7">
      <path d="M 301.090909 307.584 
L 301.090909 41.472 
" clip-path="url(#pc11aa7c24b)" style="fill: none; stroke: #b0b0b0; stroke-width: 0.8; stroke-linecap: square"/>
     </g>
     <g id="line2d_8">
      <g>
       <use xlink:href="#m6cdd9f52a4" x="301.090909" y="307.584" style="stroke: #000000; stroke-width: 0.8"/>
      </g>
     </g>
     <g id="text_4">
      <!-- 0.2 -->
      <g transform="translate(293.139347 322.182437)scale(0.1 -0.1)">
       <use xlink:href="#DejaVuSans-30"/>
       <use xlink:href="#DejaVuSans-2e" x="63.623047"/>
       <use xlink:href="#DejaVuSans-32" x="95.410156"/>
      </g>
     </g>
    </g>
    <g id="xtick_5">
     <g id="line2d_9">
      <path d="M 366.021818 307.584 
L 366.021818 41.472 
" clip-path="url(#pc11aa7c24b)" style="fill: none; stroke: #b0b0b0; stroke-width: 0.8; stroke-linecap: square"/>
     </g>
     <g id="line2d_10">
      <g>
       <use xlink:href="#m6cdd9f52a4" x="366.021818" y="307.584" style="stroke: #000000; stroke-width: 0.8"/>
      </g>
     </g>
     <g id="text_5">
      <!-- 0.4 -->
      <g transform="translate(358.070256 322.182437)scale(0.1 -0.1)">
       <use xlink:href="#DejaVuSans-30"/>
       <use xlink:href="#DejaVuSans-2e" x="63.623047"/>
       <use xlink:href="#DejaVuSans-34" x="95.410156"/>
      </g>
     </g>
    </g>
    <g id="text_6">
     <!-- Frequency [MHz] -->
     <g transform="translate(194.14125 335.860562)scale(0.1 -0.1)">
      <defs>
       <path id="DejaVuSans-46" d="M 628 4666 
L 3309 4666 
L 3309 4134 
L 1259 4134 
L 1259 2759 
L 3109 2759 
L 3109 2228 
L 1259 2228 
L 1259 0 
L 628 0 
L 628 4666 
z
" transform="scale(0.015625)"/>
       <path id="DejaVuSans-72" d="M 2631 2963 
Q 2534 3019 2420 3045 
Q 2306 3072 2169 3072 
Q 1681 3072 1420 2755 
Q 1159 2438 1159 1844 
L 1159 0 
L 581 0 
L 581 3500 
L 1159 3500 
L 1159 2956 
Q 1341 3275 1631 3429 
Q 1922 3584 2338 3584 
Q 2397 3584 2469 3576 
Q 2541 3569 2628 3553 
L 2631 2963 
z
" transform="scale(0.015625)"/>
       <path id="DejaVuSans-65" d="M 3597 1894 
L 3597 1613 
L 953 1613 
Q 991 1019 1311 708 
Q 1631 397 2203 397 
Q 2534 397 2845 478 
Q 3156 559 3463 722 
L 3463 178 
Q 3153 47 2828 -22 
Q 2503 -91 2169 -91 
Q 1331 -91 842 396 
Q 353 884 353 1716 
Q 353 2575 817 3079 
Q 1281 3584 2069 3584 
Q 2775 3584 3186 3129 
Q 3597 2675 3597 1894 
z
M 3022 2063 
Q 3016 2534 2758 2815 
Q 2500 3097 2075 3097 
Q 1594 3097 1305 2825 
Q 1016 2553 972 2059 
L 3022 2063 
z
" transform="scale(0.015625)"/>
       <path id="DejaVuSans-71" d="M 947 1747 
Q 947 1113 1208 752 
Q 1469 391 1925 391 
Q 2381 391 2643 752 
Q 2906 1113 2906 1747 
Q 2906 2381 2643 2742 
Q 2381 3103 1925 3103 
Q 1469 3103 1208 2742 
Q 947 2381 947 1747 
z
M 2906 525 
Q 2725 213 2448 61 
Q 2172 -91 1784 -91 
Q 1150 -91 751 415 
Q 353 922 353 1747 
Q 353 2572 751 3078 
Q 1150 3584 1784 3584 
Q 2172 3584 2448 3432 
Q 2725 3281 2906 2969 
L 2906 3500 
L 3481 3500 
L 3481 -1331 
L 2906 -1331 
L 2906 525 
z
" transform="scale(0.015625)"/>
       <path id="DejaVuSans-75" d="M 544 1381 
L 544 3500 
L 1119 3500 
L 1119 1403 
Q 1119 906 1312 657 
Q 1506 409 1894 409 
Q 2359 409 2629 706 
Q 2900 1003 2900 1516 
L 2900 3500 
L 3475 3500 
L 3475 0 
L 2900 0 
L 2900 538 
Q 2691 219 2414 64 
Q 2138 -91 1772 -91 
Q 1169 -91 856 284 
Q 544 659 544 1381 
z
M 1991 3584 
L 1991 3584 
z
" transform="scale(0.015625)"/>
       <path id="DejaVuSans-6e" d="M 3513 2113 
L 3513 0 
L 2938 0 
L 2938 2094 
Q 2938 2591 2744 2837 
Q 2550 3084 2163 3084 
Q 1697 3084 1428 2787 
Q 1159 2491 1159 1978 
L 1159 0 
L 581 0 
L 581 3500 
L 1159 3500 
L 1159 2956 
Q 1366 3272 1645 3428 
Q 1925 3584 2291 3584 
Q 2894 3584 3203 3211 
Q 3513 2838 3513 2113 
z
" transform="scale(0.015625)"/>
       <path id="DejaVuSans-63" d="M 3122 3366 
L 3122 2828 
Q 2878 2963 2633 3030 
Q 2388 3097 2138 3097 
Q 1578 3097 1268 2742 
Q 959 2388 959 1747 
Q 959 1106 1268 751 
Q 1578 397 2138 397 
Q 2388 397 2633 464 
Q 2878 531 3122 666 
L 3122 134 
Q 2881 22 2623 -34 
Q 2366 -91 2075 -91 
Q 1284 -91 818 406 
Q 353 903 353 1747 
Q 353 2603 823 3093 
Q 1294 3584 2113 3584 
Q 2378 3584 2631 3529 
Q 2884 3475 3122 3366 
z
" transform="scale(0.015625)"/>
       <path id="DejaVuSans-79" d="M 2059 -325 
Q 1816 -950 1584 -1140 
Q 1353 -1331 966 -1331 
L 506 -1331 
L 506 -850 
L 844 -850 
Q 1081 -850 1212 -737 
Q 1344 -625 1503 -206 
L 1606 56 
L 191 3500 
L 800 3500 
L 1894 763 
L 2988 3500 
L 3597 3500 
L 2059 -325 
z
" transform="scale(0.015625)"/>
       <path id="DejaVuSans-20" transform="scale(0.015625)"/>
       <path id="DejaVuSans-5b" d="M 550 4863 
L 1875 4863 
L 1875 4416 
L 1125 4416 
L 1125 -397 
L 1875 -397 
L 1875 -844 
L 550 -844 
L 550 4863 
z
" transform="scale(0.015625)"/>
       <path id="DejaVuSans-4d" d="M 628 4666 
L 1569 4666 
L 2759 1491 
L 3956 4666 
L 4897 4666 
L 4897 0 
L 4281 0 
L 4281 4097 
L 3078 897 
L 2444 897 
L 1241 4097 
L 1241 0 
L 628 0 
L 628 4666 
z
" transform="scale(0.015625)"/>
       <path id="DejaVuSans-48" d="M 628 4666 
L 1259 4666 
L 1259 2753 
L 3553 2753 
L 3553 4666 
L 4184 4666 
L 4184 0 
L 3553 0 
L 3553 2222 
L 1259 2222 
L 1259 0 
L 628 0 
L 628 4666 
z
" transform="scale(0.015625)"/>
       <path id="DejaVuSans-7a" d="M 353 3500 
L 3084 3500 
L 3084 2975 
L 922 459 
L 3084 459 
L 3084 0 
L 275 0 
L 275 525 
L 2438 3041 
L 353 3041 
L 353 3500 
z
" transform="scale(0.015625)"/>
       <path id="DejaVuSans-5d" d="M 1947 4863 
L 1947 -844 
L 622 -844 
L 622 -397 
L 1369 -397 
L 1369 4416 
L 622 4416 
L 622 4863 
L 1947 4863 
z
" transform="scale(0.015625)"/>
      </defs>
      <use xlink:href="#DejaVuSans-46"/>
      <use xlink:href="#DejaVuSans-72" x="50.269531"/>
      <use xlink:href="#DejaVuSans-65" x="89.132812"/>
      <use xlink:href="#DejaVuSans-71" x="150.65625"/>
      <use xlink:href="#DejaVuSans-75" x="214.132812"/>
      <use xlink:href="#DejaVuSans-65" x="277.511719"/>
      <use xlink:href="#DejaVuSans-6e" x="339.035156"/>
      <use xlink:href="#DejaVuSans-63" x="402.414062"/>
      <use xlink:href="#DejaVuSans-79" x="457.394531"/>
      <use xlink:href="#DejaVuSans-20" x="516.574219"/>
      <use xlink:href="#DejaVuSans-5b" x="548.361328"/>
      <use xlink:href="#DejaVuSans-4d" x="587.375"/>
      <use xlink:href="#DejaVuSans-48" x="673.654297"/>
      <use xlink:href="#DejaVuSans-7a" x="748.849609"/>
      <use xlink:href="#DejaVuSans-5d" x="801.339844"/>
     </g>
    </g>
   </g>
   <g id="matplotlib.axis_2">
    <g id="ytick_1">
     <g id="line2d_11">
      <path d="M 57.6 269.243186 
L 414.72 269.243186 
" clip-path="url(#pc11aa7c24b)" style="fill: none; stroke: #b0b0b0; stroke-width: 0.8; stroke-linecap: square"/>
     </g>
     <g id="line2d_12">
      <defs>
       <path id="m3e22623e22" d="M 0 0 
L -3.5 0 
" style="stroke: #000000; stroke-width: 0.8"/>
      </defs>
      <g>
       <use xlink:href="#m3e22623e22" x="57.6" y="269.243186" style="stroke: #000000; stroke-width: 0.8"/>
      </g>
     </g>
     <g id="text_7">
      <!-- 10 -->
      <g transform="translate(37.875 273.042405)scale(0.1 -0.1)">
       <defs>
        <path id="DejaVuSans-31" d="M 794 531 
L 1825 531 
L 1825 4091 
L 703 3866 
L 703 4441 
L 1819 4666 
L 2450 4666 
L 2450 531 
L 3481 531 
L 3481 0 
L 794 0 
L 794 531 
z
" transform="scale(0.015625)"/>
       </defs>
       <use xlink:href="#DejaVuSans-31"/>
       <use xlink:href="#DejaVuSans-30" x="63.623047"/>
      </g>
     </g>
    </g>
    <g id="ytick_2">
     <g id="line2d_13">
      <path d="M 57.6 225.737938 
L 414.72 225.737938 
" clip-path="url(#pc11aa7c24b)" style="fill: none; stroke: #b0b0b0; stroke-width: 0.8; stroke-linecap: square"/>
     </g>
     <g id="line2d_14">
      <g>
       <use xlink:href="#m3e22623e22" x="57.6" y="225.737938" style="stroke: #000000; stroke-width: 0.8"/>
      </g>
     </g>
     <g id="text_8">
      <!-- 20 -->
      <g transform="translate(37.875 229.537156)scale(0.1 -0.1)">
       <use xlink:href="#DejaVuSans-32"/>
       <use xlink:href="#DejaVuSans-30" x="63.623047"/>
      </g>
     </g>
    </g>
    <g id="ytick_3">
     <g id="line2d_15">
      <path d="M 57.6 182.232689 
L 414.72 182.232689 
" clip-path="url(#pc11aa7c24b)" style="fill: none; stroke: #b0b0b0; stroke-width: 0.8; stroke-linecap: square"/>
     </g>
     <g id="line2d_16">
      <g>
       <use xlink:href="#m3e22623e22" x="57.6" y="182.232689" style="stroke: #000000; stroke-width: 0.8"/>
      </g>
     </g>
     <g id="text_9">
      <!-- 30 -->
      <g transform="translate(37.875 186.031908)scale(0.1 -0.1)">
       <defs>
        <path id="DejaVuSans-33" d="M 2597 2516 
Q 3050 2419 3304 2112 
Q 3559 1806 3559 1356 
Q 3559 666 3084 287 
Q 2609 -91 1734 -91 
Q 1441 -91 1130 -33 
Q 819 25 488 141 
L 488 750 
Q 750 597 1062 519 
Q 1375 441 1716 441 
Q 2309 441 2620 675 
Q 2931 909 2931 1356 
Q 2931 1769 2642 2001 
Q 2353 2234 1838 2234 
L 1294 2234 
L 1294 2753 
L 1863 2753 
Q 2328 2753 2575 2939 
Q 2822 3125 2822 3475 
Q 2822 3834 2567 4026 
Q 2313 4219 1838 4219 
Q 1578 4219 1281 4162 
Q 984 4106 628 3988 
L 628 4550 
Q 988 4650 1302 4700 
Q 1616 4750 1894 4750 
Q 2613 4750 3031 4423 
Q 3450 4097 3450 3541 
Q 3450 3153 3228 2886 
Q 3006 2619 2597 2516 
z
" transform="scale(0.015625)"/>
       </defs>
       <use xlink:href="#DejaVuSans-33"/>
       <use xlink:href="#DejaVuSans-30" x="63.623047"/>
      </g>
     </g>
    </g>
    <g id="ytick_4">
     <g id="line2d_17">
      <path d="M 57.6 138.727441 
L 414.72 138.727441 
" clip-path="url(#pc11aa7c24b)" style="fill: none; stroke: #b0b0b0; stroke-width: 0.8; stroke-linecap: square"/>
     </g>
     <g id="line2d_18">
      <g>
       <use xlink:href="#m3e22623e22" x="57.6" y="138.727441" style="stroke: #000000; stroke-width: 0.8"/>
      </g>
     </g>
     <g id="text_10">
      <!-- 40 -->
      <g transform="translate(37.875 142.52666)scale(0.1 -0.1)">
       <use xlink:href="#DejaVuSans-34"/>
       <use xlink:href="#DejaVuSans-30" x="63.623047"/>
      </g>
     </g>
    </g>
    <g id="ytick_5">
     <g id="line2d_19">
      <path d="M 57.6 95.222193 
L 414.72 95.222193 
" clip-path="url(#pc11aa7c24b)" style="fill: none; stroke: #b0b0b0; stroke-width: 0.8; stroke-linecap: square"/>
     </g>
     <g id="line2d_20">
      <g>
       <use xlink:href="#m3e22623e22" x="57.6" y="95.222193" style="stroke: #000000; stroke-width: 0.8"/>
      </g>
     </g>
     <g id="text_11">
      <!-- 50 -->
      <g transform="translate(37.875 99.021411)scale(0.1 -0.1)">
       <defs>
        <path id="DejaVuSans-35" d="M 691 4666 
L 3169 4666 
L 3169 4134 
L 1269 4134 
L 1269 2991 
Q 1406 3038 1543 3061 
Q 1681 3084 1819 3084 
Q 2600 3084 3056 2656 
Q 3513 2228 3513 1497 
Q 3513 744 3044 326 
Q 2575 -91 1722 -91 
Q 1428 -91 1123 -41 
Q 819 9 494 109 
L 494 744 
Q 775 591 1075 516 
Q 1375 441 1709 441 
Q 2250 441 2565 725 
Q 2881 1009 2881 1497 
Q 2881 1984 2565 2268 
Q 2250 2553 1709 2553 
Q 1456 2553 1204 2497 
Q 953 2441 691 2322 
L 691 4666 
z
" transform="scale(0.015625)"/>
       </defs>
       <use xlink:href="#DejaVuSans-35"/>
       <use xlink:href="#DejaVuSans-30" x="63.623047"/>
      </g>
     </g>
    </g>
    <g id="ytick_6">
     <g id="line2d_21">
      <path d="M 57.6 51.716944 
L 414.72 51.716944 
" clip-path="url(#pc11aa7c24b)" style="fill: none; stroke: #b0b0b0; stroke-width: 0.8; stroke-linecap: square"/>
     </g>
     <g id="line2d_22">
      <g>
       <use xlink:href="#m3e22623e22" x="57.6" y="51.716944" style="stroke: #000000; stroke-width: 0.8"/>
      </g>
     </g>
     <g id="text_12">
      <!-- 60 -->
      <g transform="translate(37.875 55.516163)scale(0.1 -0.1)">
       <defs>
        <path id="DejaVuSans-36" d="M 2113 2584 
Q 1688 2584 1439 2293 
Q 1191 2003 1191 1497 
Q 1191 994 1439 701 
Q 1688 409 2113 409 
Q 2538 409 2786 701 
Q 3034 994 3034 1497 
Q 3034 2003 2786 2293 
Q 2538 2584 2113 2584 
z
M 3366 4563 
L 3366 3988 
Q 3128 4100 2886 4159 
Q 2644 4219 2406 4219 
Q 1781 4219 1451 3797 
Q 1122 3375 1075 2522 
Q 1259 2794 1537 2939 
Q 1816 3084 2150 3084 
Q 2853 3084 3261 2657 
Q 3669 2231 3669 1497 
Q 3669 778 3244 343 
Q 2819 -91 2113 -91 
Q 1303 -91 875 529 
Q 447 1150 447 2328 
Q 447 3434 972 4092 
Q 1497 4750 2381 4750 
Q 2619 4750 2861 4703 
Q 3103 4656 3366 4563 
z
" transform="scale(0.015625)"/>
       </defs>
       <use xlink:href="#DejaVuSans-36"/>
       <use xlink:href="#DejaVuSans-30" x="63.623047"/>
      </g>
     </g>
    </g>
    <g id="text_13">
     <!-- Magnitude [dB] -->
     <g transform="translate(31.795312 213.113156)rotate(-90)scale(0.1 -0.1)">
      <defs>
       <path id="DejaVuSans-61" d="M 2194 1759 
Q 1497 1759 1228 1600 
Q 959 1441 959 1056 
Q 959 750 1161 570 
Q 1363 391 1709 391 
Q 2188 391 2477 730 
Q 2766 1069 2766 1631 
L 2766 1759 
L 2194 1759 
z
M 3341 1997 
L 3341 0 
L 2766 0 
L 2766 531 
Q 2569 213 2275 61 
Q 1981 -91 1556 -91 
Q 1019 -91 701 211 
Q 384 513 384 1019 
Q 384 1609 779 1909 
Q 1175 2209 1959 2209 
L 2766 2209 
L 2766 2266 
Q 2766 2663 2505 2880 
Q 2244 3097 1772 3097 
Q 1472 3097 1187 3025 
Q 903 2953 641 2809 
L 641 3341 
Q 956 3463 1253 3523 
Q 1550 3584 1831 3584 
Q 2591 3584 2966 3190 
Q 3341 2797 3341 1997 
z
" transform="scale(0.015625)"/>
       <path id="DejaVuSans-67" d="M 2906 1791 
Q 2906 2416 2648 2759 
Q 2391 3103 1925 3103 
Q 1463 3103 1205 2759 
Q 947 2416 947 1791 
Q 947 1169 1205 825 
Q 1463 481 1925 481 
Q 2391 481 2648 825 
Q 2906 1169 2906 1791 
z
M 3481 434 
Q 3481 -459 3084 -895 
Q 2688 -1331 1869 -1331 
Q 1566 -1331 1297 -1286 
Q 1028 -1241 775 -1147 
L 775 -588 
Q 1028 -725 1275 -790 
Q 1522 -856 1778 -856 
Q 2344 -856 2625 -561 
Q 2906 -266 2906 331 
L 2906 616 
Q 2728 306 2450 153 
Q 2172 0 1784 0 
Q 1141 0 747 490 
Q 353 981 353 1791 
Q 353 2603 747 3093 
Q 1141 3584 1784 3584 
Q 2172 3584 2450 3431 
Q 2728 3278 2906 2969 
L 2906 3500 
L 3481 3500 
L 3481 434 
z
" transform="scale(0.015625)"/>
       <path id="DejaVuSans-69" d="M 603 3500 
L 1178 3500 
L 1178 0 
L 603 0 
L 603 3500 
z
M 603 4863 
L 1178 4863 
L 1178 4134 
L 603 4134 
L 603 4863 
z
" transform="scale(0.015625)"/>
       <path id="DejaVuSans-74" d="M 1172 4494 
L 1172 3500 
L 2356 3500 
L 2356 3053 
L 1172 3053 
L 1172 1153 
Q 1172 725 1289 603 
Q 1406 481 1766 481 
L 2356 481 
L 2356 0 
L 1766 0 
Q 1100 0 847 248 
Q 594 497 594 1153 
L 594 3053 
L 172 3053 
L 172 3500 
L 594 3500 
L 594 4494 
L 1172 4494 
z
" transform="scale(0.015625)"/>
       <path id="DejaVuSans-64" d="M 2906 2969 
L 2906 4863 
L 3481 4863 
L 3481 0 
L 2906 0 
L 2906 525 
Q 2725 213 2448 61 
Q 2172 -91 1784 -91 
Q 1150 -91 751 415 
Q 353 922 353 1747 
Q 353 2572 751 3078 
Q 1150 3584 1784 3584 
Q 2172 3584 2448 3432 
Q 2725 3281 2906 2969 
z
M 947 1747 
Q 947 1113 1208 752 
Q 1469 391 1925 391 
Q 2381 391 2643 752 
Q 2906 1113 2906 1747 
Q 2906 2381 2643 2742 
Q 2381 3103 1925 3103 
Q 1469 3103 1208 2742 
Q 947 2381 947 1747 
z
" transform="scale(0.015625)"/>
       <path id="DejaVuSans-42" d="M 1259 2228 
L 1259 519 
L 2272 519 
Q 2781 519 3026 730 
Q 3272 941 3272 1375 
Q 3272 1813 3026 2020 
Q 2781 2228 2272 2228 
L 1259 2228 
z
M 1259 4147 
L 1259 2741 
L 2194 2741 
Q 2656 2741 2882 2914 
Q 3109 3088 3109 3444 
Q 3109 3797 2882 3972 
Q 2656 4147 2194 4147 
L 1259 4147 
z
M 628 4666 
L 2241 4666 
Q 2963 4666 3353 4366 
Q 3744 4066 3744 3513 
Q 3744 3084 3544 2831 
Q 3344 2578 2956 2516 
Q 3422 2416 3680 2098 
Q 3938 1781 3938 1306 
Q 3938 681 3513 340 
Q 3088 0 2303 0 
L 628 0 
L 628 4666 
z
" transform="scale(0.015625)"/>
      </defs>
      <use xlink:href="#DejaVuSans-4d"/>
      <use xlink:href="#DejaVuSans-61" x="86.279297"/>
      <use xlink:href="#DejaVuSans-67" x="147.558594"/>
      <use xlink:href="#DejaVuSans-6e" x="211.035156"/>
      <use xlink:href="#DejaVuSans-69" x="274.414062"/>
      <use xlink:href="#DejaVuSans-74" x="302.197266"/>
      <use xlink:href="#DejaVuSans-75" x="341.40625"/>
      <use xlink:href="#DejaVuSans-64" x="404.785156"/>
      <use xlink:href="#DejaVuSans-65" x="468.261719"/>
      <use xlink:href="#DejaVuSans-20" x="529.785156"/>
      <use xlink:href="#DejaVuSans-5b" x="561.572266"/>
      <use xlink:href="#DejaVuSans-64" x="600.585938"/>
      <use xlink:href="#DejaVuSans-42" x="664.0625"/>
      <use xlink:href="#DejaVuSans-5d" x="732.666016"/>
     </g>
    </g>
   </g>
   <g id="line2d_23">
    <path d="M 73.832727 186.857625 
L 74.150083 228.541131 
L 74.467438 158.689564 
L 74.784793 167.281273 
L 75.102149 190.765806 
L 75.419504 198.858751 
L 75.73686 248.883329 
L 76.054215 232.702708 
L 76.37157 178.203018 
L 76.688926 224.953293 
L 77.323636 163.431791 
L 77.640992 171.466153 
L 77.958347 164.417258 
L 78.275702 186.153275 
L 78.593058 231.654899 
L 78.910413 188.134213 
L 79.227769 174.59289 
L 79.545124 174.71757 
L 79.862479 193.603711 
L 80.179835 241.537195 
L 80.49719 196.617601 
L 80.814545 198.781072 
L 81.131901 168.654216 
L 81.449256 195.768135 
L 81.766612 179.737537 
L 82.083967 199.516536 
L 82.401322 254.993991 
L 82.718678 183.754896 
L 83.036033 227.420231 
L 83.353388 180.25108 
L 83.670744 221.276721 
L 83.988099 189.459546 
L 84.305455 211.435008 
L 84.62281 176.530326 
L 84.940165 197.333069 
L 85.574876 158.900417 
L 85.892231 201.202349 
L 86.209587 161.707119 
L 86.526942 198.770282 
L 87.161653 210.947727 
L 87.796364 188.65852 
L 88.113719 196.026035 
L 88.431074 224.159778 
L 88.74843 204.797838 
L 89.065785 223.392292 
L 89.38314 225.796372 
L 89.700496 237.549479 
L 90.017851 185.886678 
L 90.335207 201.196683 
L 90.652562 207.714105 
L 91.287273 173.785359 
L 91.604628 191.747055 
L 91.921983 152.609771 
L 92.556694 177.657339 
L 92.87405 224.286951 
L 93.191405 196.338753 
L 93.50876 195.684915 
L 93.826116 182.762056 
L 94.143471 196.446222 
L 94.460826 165.863663 
L 94.778182 208.822488 
L 95.095537 175.947691 
L 95.730248 159.340364 
L 96.047603 186.000164 
L 96.364959 184.915637 
L 96.682314 215.094901 
L 96.999669 186.553954 
L 97.317025 171.072101 
L 97.63438 183.141862 
L 97.951736 165.867956 
L 98.269091 167.993479 
L 98.586446 201.846444 
L 98.903802 200.324172 
L 99.221157 226.108122 
L 99.538512 178.05286 
L 99.855868 202.76918 
L 100.173223 160.90371 
L 100.807934 187.072533 
L 101.125289 165.80458 
L 101.442645 220.167482 
L 101.76 198.172477 
L 102.077355 196.809705 
L 102.394711 213.846193 
L 103.029421 173.380111 
L 103.346777 186.027765 
L 103.664132 244.652431 
L 103.981488 203.889586 
L 104.298843 206.39183 
L 104.616198 176.065999 
L 104.933554 191.531706 
L 105.250909 192.790478 
L 105.568264 156.367431 
L 105.88562 197.422168 
L 106.202975 181.867756 
L 106.520331 179.958582 
L 106.837686 198.970969 
L 107.155041 181.505173 
L 107.472397 203.588776 
L 107.789752 166.581784 
L 108.107107 200.866505 
L 108.424463 177.489233 
L 108.741818 197.801553 
L 109.059174 191.918522 
L 109.376529 152.933403 
L 109.693884 182.12317 
L 110.01124 198.918089 
L 110.328595 242.573505 
L 110.64595 177.062927 
L 110.963306 189.367782 
L 111.280661 167.737037 
L 111.598017 219.344898 
L 111.915372 223.489345 
L 112.232727 197.085585 
L 112.550083 247.723681 
L 112.867438 202.904922 
L 113.502149 184.899985 
L 113.819504 263.79685 
L 114.13686 167.195736 
L 114.454215 221.239294 
L 114.77157 188.5431 
L 115.088926 215.853247 
L 115.406281 205.308782 
L 115.723636 229.956509 
L 116.358347 158.98912 
L 116.675702 193.695479 
L 116.993058 195.081865 
L 117.310413 181.52565 
L 117.627769 219.197503 
L 118.262479 191.919523 
L 118.579835 243.033675 
L 118.89719 194.345834 
L 119.214545 174.467171 
L 119.531901 176.297357 
L 119.849256 175.596041 
L 120.166612 190.022374 
L 120.483967 155.326272 
L 120.801322 222.591975 
L 121.118678 163.013142 
L 121.436033 192.718789 
L 121.753388 198.49462 
L 122.388099 188.075837 
L 122.705455 182.7712 
L 123.02281 174.863832 
L 123.340165 236.682417 
L 123.657521 164.949495 
L 123.974876 178.278112 
L 124.292231 162.998953 
L 124.609587 175.36448 
L 124.926942 252.142132 
L 125.244298 176.799737 
L 125.561653 185.244389 
L 125.879008 242.395862 
L 126.196364 193.714434 
L 126.831074 218.95892 
L 127.14843 177.420704 
L 127.465785 168.761456 
L 127.78314 180.42961 
L 128.100496 166.417944 
L 128.417851 179.84257 
L 128.735207 207.424254 
L 129.052562 203.586188 
L 129.369917 183.047088 
L 129.687273 204.298283 
L 130.321983 156.899511 
L 130.639339 168.811466 
L 130.956694 208.820821 
L 131.27405 164.125835 
L 131.591405 206.363365 
L 131.90876 174.22534 
L 132.226116 215.541892 
L 132.543471 204.471038 
L 132.860826 178.408436 
L 133.178182 201.243813 
L 133.495537 183.528937 
L 133.812893 244.664872 
L 134.130248 202.482426 
L 134.447603 233.838331 
L 134.764959 162.282802 
L 135.082314 186.389516 
L 135.399669 199.330322 
L 135.717025 158.634557 
L 136.03438 197.305931 
L 136.669091 172.998319 
L 137.303802 193.225618 
L 137.621157 196.567328 
L 137.938512 189.514889 
L 138.255868 151.154235 
L 138.573223 216.208821 
L 138.890579 208.761776 
L 139.207934 219.974714 
L 139.525289 149.738873 
L 139.842645 205.136632 
L 140.16 207.344059 
L 140.477355 196.279041 
L 140.794711 169.023964 
L 141.429421 172.697155 
L 141.746777 206.437115 
L 142.064132 184.974876 
L 142.381488 202.807041 
L 142.698843 178.110026 
L 143.333554 188.306174 
L 143.650909 184.191989 
L 143.968264 218.553288 
L 144.28562 164.916094 
L 144.602975 185.205849 
L 144.920331 168.533313 
L 145.237686 199.74911 
L 145.555041 171.042895 
L 145.872397 203.649232 
L 146.189752 184.328962 
L 146.507107 182.626214 
L 146.824463 189.205797 
L 147.141818 221.284241 
L 147.459174 169.152273 
L 147.776529 158.434482 
L 148.093884 178.134072 
L 148.41124 173.356106 
L 148.728595 186.174605 
L 149.04595 183.756631 
L 149.363306 174.689992 
L 149.680661 232.885041 
L 149.998017 178.088546 
L 150.315372 187.437395 
L 150.632727 216.341291 
L 150.950083 174.565882 
L 151.267438 239.161856 
L 151.584793 183.163569 
L 151.902149 183.37125 
L 152.219504 166.621407 
L 152.53686 195.143173 
L 152.854215 179.496676 
L 153.17157 202.431783 
L 153.488926 179.001889 
L 153.806281 262.241228 
L 154.123636 166.159475 
L 154.440992 202.920057 
L 154.758347 148.318084 
L 155.075702 187.044613 
L 155.393058 181.931579 
L 155.710413 224.833718 
L 156.027769 192.204478 
L 156.345124 201.113737 
L 156.662479 169.594803 
L 156.979835 160.285059 
L 157.614545 204.559164 
L 157.931901 170.858077 
L 158.566612 163.826541 
L 158.883967 208.808519 
L 159.518678 171.838161 
L 160.153388 252.288077 
L 160.470744 188.879122 
L 160.788099 180.815361 
L 161.42281 185.233738 
L 161.740165 158.716656 
L 162.057521 216.842805 
L 162.374876 144.472515 
L 162.692231 170.248529 
L 163.009587 205.759497 
L 163.326942 182.435689 
L 163.644298 169.469341 
L 163.961653 195.595159 
L 164.279008 194.483021 
L 164.596364 180.808983 
L 164.913719 185.395007 
L 165.231074 212.61383 
L 165.54843 160.702622 
L 165.865785 190.220712 
L 166.18314 195.272294 
L 166.500496 211.893943 
L 166.817851 202.952042 
L 167.135207 212.114082 
L 167.452562 172.250596 
L 167.769917 175.182776 
L 168.087273 174.24158 
L 168.404628 246.004997 
L 168.721983 177.066706 
L 169.039339 186.920527 
L 169.356694 181.035346 
L 169.67405 230.040692 
L 169.991405 159.870302 
L 170.30876 151.444862 
L 170.626116 170.439354 
L 170.943471 177.925106 
L 171.260826 189.13019 
L 171.578182 172.010305 
L 171.895537 168.540153 
L 172.212893 176.010357 
L 172.530248 192.959867 
L 172.847603 169.767717 
L 173.164959 205.453256 
L 173.799669 170.55589 
L 174.117025 194.471798 
L 174.43438 257.960649 
L 174.751736 166.020782 
L 175.069091 167.644426 
L 175.386446 165.461902 
L 175.703802 190.358961 
L 176.021157 194.641935 
L 176.338512 216.228254 
L 176.655868 224.532877 
L 176.973223 169.350691 
L 177.290579 197.573508 
L 177.607934 196.813517 
L 177.925289 226.772294 
L 178.242645 177.226717 
L 178.56 221.48791 
L 178.877355 163.935287 
L 179.194711 205.10006 
L 179.512066 205.978304 
L 180.146777 215.646025 
L 180.464132 188.23817 
L 180.781488 218.516693 
L 181.098843 187.258478 
L 181.733554 159.016956 
L 182.050909 257.006011 
L 182.368264 246.70503 
L 182.68562 174.733042 
L 183.002975 149.049589 
L 183.320331 177.893021 
L 183.637686 195.438077 
L 183.955041 227.326288 
L 184.272397 174.230533 
L 184.589752 222.962149 
L 184.907107 174.279967 
L 185.224463 167.098407 
L 185.541818 206.894699 
L 185.859174 156.868965 
L 186.176529 159.294771 
L 186.493884 204.052265 
L 186.81124 203.161008 
L 187.128595 186.856007 
L 187.44595 185.926548 
L 187.763306 160.692243 
L 188.080661 192.681498 
L 188.398017 170.871885 
L 188.715372 230.56784 
L 189.032727 156.228197 
L 189.350083 185.45565 
L 189.667438 187.43456 
L 189.984793 187.062089 
L 190.302149 190.552099 
L 190.619504 213.608386 
L 191.254215 207.175783 
L 191.57157 214.300546 
L 191.888926 204.021921 
L 192.206281 201.743739 
L 192.523636 159.470135 
L 192.840992 207.962373 
L 193.158347 218.407113 
L 193.475702 170.76094 
L 193.793058 175.165501 
L 194.110413 171.178563 
L 194.427769 204.875075 
L 194.745124 222.694972 
L 195.062479 175.082553 
L 195.379835 172.698828 
L 195.69719 171.468972 
L 196.014545 205.679119 
L 196.331901 178.929637 
L 196.649256 170.953051 
L 196.966612 213.394223 
L 197.283967 182.892087 
L 197.601322 169.140904 
L 197.918678 206.289764 
L 198.236033 227.916161 
L 198.553388 176.691635 
L 198.870744 165.682713 
L 199.188099 249.904522 
L 199.505455 191.847472 
L 199.82281 168.31635 
L 200.140165 175.640359 
L 200.457521 204.50018 
L 200.774876 210.812973 
L 201.092231 186.547729 
L 201.409587 201.84595 
L 201.726942 178.724316 
L 202.044298 178.019946 
L 202.361653 180.572941 
L 202.679008 182.166593 
L 202.996364 235.230129 
L 203.313719 192.267517 
L 203.631074 235.074224 
L 203.94843 186.225352 
L 204.265785 176.781005 
L 204.58314 192.659547 
L 204.900496 195.81903 
L 205.217851 196.71182 
L 205.535207 203.117612 
L 205.852562 185.271997 
L 206.487273 178.884661 
L 206.804628 185.026733 
L 207.121983 171.40342 
L 207.439339 196.837401 
L 207.756694 175.162873 
L 208.07405 211.944134 
L 208.70876 157.017499 
L 209.026116 169.645138 
L 209.343471 234.738196 
L 209.978182 175.432895 
L 210.295537 239.661952 
L 210.612893 193.359768 
L 210.930248 198.785919 
L 211.247603 193.000383 
L 211.564959 207.025509 
L 211.882314 154.570411 
L 212.199669 182.899922 
L 212.517025 183.588757 
L 212.83438 180.692398 
L 213.151736 174.489175 
L 213.469091 222.837214 
L 213.786446 185.857924 
L 214.103802 180.601007 
L 214.421157 207.690148 
L 214.738512 176.134068 
L 215.055868 249.164862 
L 215.373223 172.931785 
L 215.690579 186.39441 
L 216.007934 220.995641 
L 216.325289 213.348021 
L 216.96 180.420017 
L 217.277355 215.721324 
L 217.594711 197.174452 
L 217.912066 193.834043 
L 218.229421 192.121144 
L 218.546777 162.930062 
L 218.864132 170.855929 
L 219.181488 198.328569 
L 219.498843 182.813962 
L 219.816198 176.271367 
L 220.450909 192.029923 
L 221.08562 179.850031 
L 221.402975 179.359524 
L 221.720331 181.895403 
L 222.037686 178.405925 
L 222.355041 195.062039 
L 222.672397 188.668394 
L 222.989752 206.952092 
L 223.307107 203.266187 
L 223.624463 174.99485 
L 223.941818 207.286682 
L 224.259174 149.258709 
L 224.576529 184.774094 
L 224.893884 182.771242 
L 225.21124 186.175374 
L 225.528595 182.389754 
L 225.84595 195.322273 
L 226.163306 176.959605 
L 226.480661 189.791787 
L 226.798017 177.808574 
L 227.115372 182.355269 
L 227.432727 207.235412 
L 227.750083 209.240756 
L 228.384793 170.660641 
L 228.702149 260.772582 
L 229.019504 188.085779 
L 229.33686 204.271556 
L 229.654215 185.636021 
L 229.97157 212.059234 
L 230.288926 210.309894 
L 230.606281 196.943862 
L 230.923636 223.643838 
L 231.240992 216.06684 
L 231.558347 198.8321 
L 231.875702 192.757111 
L 232.193058 196.010851 
L 232.510413 175.591805 
L 232.827769 177.846011 
L 233.145124 239.52807 
L 233.779835 181.041831 
L 234.09719 193.211064 
L 234.414545 263.819402 
L 234.731901 150.64458 
L 235.049256 202.188664 
L 235.366612 212.970327 
L 235.683967 160.347157 
L 236.001322 240.378953 
L 236.318678 187.997216 
L 236.636033 202.049839 
L 236.953388 203.833701 
L 237.270744 182.786296 
L 237.905455 203.32278 
L 238.22281 202.769201 
L 238.540165 165.974408 
L 238.857521 158.85984 
L 239.492231 198.656436 
L 239.809587 163.56156 
L 240.126942 202.267671 
L 240.444298 181.786186 
L 240.761653 259.449979 
L 241.079008 205.836814 
L 241.396364 212.000687 
L 241.713719 229.369644 
L 242.031074 168.049632 
L 242.34843 228.937658 
L 242.98314 177.41317 
L 243.300496 177.870691 
L 243.617851 191.303269 
L 243.935207 194.177021 
L 244.252562 163.198937 
L 244.569917 205.536093 
L 244.887273 186.490642 
L 245.204628 205.448168 
L 245.521983 183.084702 
L 245.839339 205.884624 
L 246.156694 185.827338 
L 246.47405 192.242788 
L 246.791405 180.194413 
L 247.10876 182.655624 
L 247.426116 210.46785 
L 247.743471 175.854843 
L 248.060826 190.289894 
L 248.378182 180.319819 
L 248.695537 192.84702 
L 249.012893 192.841664 
L 249.330248 216.827306 
L 249.647603 168.868712 
L 249.964959 176.282934 
L 250.282314 235.913568 
L 250.599669 186.531737 
L 250.917025 268.98582 
L 251.23438 195.687018 
L 251.551736 175.074274 
L 251.869091 167.263896 
L 252.186446 179.398223 
L 252.503802 179.581929 
L 252.821157 225.733794 
L 253.138512 205.478575 
L 253.455868 175.543214 
L 253.773223 212.892174 
L 254.090579 217.929914 
L 254.407934 164.334226 
L 254.725289 186.986162 
L 255.042645 188.65588 
L 255.36 230.140078 
L 255.677355 175.180007 
L 255.994711 216.75945 
L 256.312066 177.683333 
L 256.629421 161.832345 
L 256.946777 196.253046 
L 257.264132 216.487258 
L 257.581488 201.880633 
L 257.898843 295.488 
L 258.216198 187.245265 
L 258.533554 241.620869 
L 258.850909 183.594526 
L 259.168264 164.326271 
L 259.48562 204.94424 
L 259.802975 183.449679 
L 260.120331 183.167895 
L 260.437686 198.758706 
L 260.755041 172.376121 
L 261.072397 212.722331 
L 261.389752 211.669496 
L 261.707107 182.647475 
L 262.024463 213.781148 
L 262.341818 222.259108 
L 262.659174 181.027994 
L 262.976529 197.157963 
L 263.293884 200.17541 
L 263.61124 212.98992 
L 263.928595 166.33514 
L 264.24595 208.830814 
L 264.563306 184.079995 
L 264.880661 188.859698 
L 265.198017 178.298721 
L 265.515372 203.039281 
L 265.832727 165.195479 
L 266.150083 168.098273 
L 266.467438 174.69393 
L 266.784793 167.36133 
L 267.102149 184.782876 
L 267.419504 172.069682 
L 267.73686 215.305295 
L 268.37157 185.231955 
L 268.688926 179.740296 
L 269.006281 222.366635 
L 269.323636 148.348659 
L 269.640992 200.112646 
L 270.275702 184.717725 
L 270.593058 164.921678 
L 270.910413 175.636352 
L 271.227769 219.830306 
L 271.545124 231.504777 
L 271.862479 158.31057 
L 272.179835 193.511237 
L 272.814545 162.232971 
L 273.131901 209.751505 
L 273.449256 199.573929 
L 274.083967 209.275901 
L 274.401322 163.901493 
L 274.718678 182.14932 
L 275.036033 215.761205 
L 275.353388 166.955916 
L 275.670744 209.395363 
L 275.988099 203.178428 
L 276.305455 155.084678 
L 276.62281 185.944598 
L 276.940165 242.474268 
L 277.257521 197.086732 
L 277.574876 176.559846 
L 277.892231 175.258752 
L 278.209587 182.310122 
L 278.526942 205.632897 
L 278.844298 184.929224 
L 279.161653 212.977189 
L 279.479008 219.303467 
L 279.796364 205.901892 
L 280.113719 163.129535 
L 280.431074 197.381116 
L 281.065785 153.22318 
L 281.38314 216.040159 
L 281.700496 222.275632 
L 282.335207 179.503057 
L 282.652562 190.797946 
L 282.969917 226.903953 
L 283.287273 208.307746 
L 283.604628 205.180909 
L 283.921983 186.178552 
L 284.239339 186.031823 
L 284.556694 176.586673 
L 284.87405 179.277419 
L 285.191405 167.860317 
L 285.50876 192.199248 
L 285.826116 171.64266 
L 286.143471 184.218352 
L 286.778182 155.134912 
L 287.095537 219.550044 
L 287.412893 179.250531 
L 287.730248 171.188548 
L 288.047603 285.960202 
L 288.364959 178.737158 
L 288.999669 216.856596 
L 289.317025 202.288896 
L 289.63438 220.280979 
L 289.951736 176.316734 
L 290.269091 212.441494 
L 290.586446 209.400961 
L 290.903802 217.719313 
L 291.221157 159.424031 
L 291.538512 177.350116 
L 291.855868 167.254258 
L 292.173223 188.087316 
L 292.490579 184.297239 
L 292.807934 167.704139 
L 293.125289 236.224898 
L 293.442645 186.053562 
L 293.76 184.720157 
L 294.077355 199.575371 
L 294.394711 175.700388 
L 294.712066 193.074881 
L 295.029421 180.886554 
L 295.346777 216.325437 
L 295.664132 164.481521 
L 295.981488 180.519987 
L 296.298843 178.921191 
L 296.616198 193.853115 
L 296.933554 181.813438 
L 297.250909 176.956569 
L 297.568264 188.189322 
L 297.88562 209.654353 
L 298.202975 151.670892 
L 298.520331 168.071944 
L 298.837686 157.85319 
L 299.472397 207.985795 
L 299.789752 153.327218 
L 300.107107 166.692648 
L 300.424463 154.311782 
L 301.059174 104.451887 
L 301.376529 53.568 
L 301.693884 124.574447 
L 302.01124 145.829203 
L 302.328595 150.89561 
L 302.64595 153.312782 
L 302.963306 166.894145 
L 303.280661 172.526105 
L 303.598017 149.928088 
L 303.915372 202.425986 
L 304.232727 176.444209 
L 304.550083 166.317602 
L 304.867438 171.635457 
L 305.184793 196.534338 
L 305.502149 188.630014 
L 305.819504 205.787378 
L 306.13686 166.501398 
L 306.454215 173.369781 
L 306.77157 217.636198 
L 307.088926 174.258342 
L 307.406281 189.578373 
L 307.723636 182.295912 
L 308.358347 210.189526 
L 308.675702 183.409711 
L 308.993058 167.038363 
L 309.310413 261.330991 
L 309.627769 196.894726 
L 309.945124 176.726777 
L 310.262479 181.567364 
L 310.579835 198.876957 
L 310.89719 155.247171 
L 311.214545 187.133874 
L 311.531901 252.592503 
L 311.849256 199.395798 
L 312.166612 179.652564 
L 312.801322 170.451932 
L 313.118678 190.828127 
L 313.436033 286.746856 
L 313.753388 182.663073 
L 314.070744 228.512424 
L 314.388099 188.665174 
L 314.705455 193.264896 
L 315.02281 235.377899 
L 315.340165 176.852222 
L 315.657521 184.901329 
L 315.974876 241.586059 
L 316.292231 153.160634 
L 316.609587 204.5991 
L 316.926942 175.476007 
L 317.244298 206.605605 
L 317.561653 171.789213 
L 317.879008 164.250946 
L 318.196364 165.378793 
L 318.513719 215.504943 
L 318.831074 170.366247 
L 319.14843 205.008721 
L 319.465785 189.095605 
L 319.78314 185.950876 
L 320.100496 154.014573 
L 320.417851 195.374354 
L 320.735207 203.418814 
L 321.052562 183.465552 
L 321.369917 151.306302 
L 321.687273 227.923736 
L 322.004628 162.296961 
L 322.321983 190.561603 
L 322.639339 175.461299 
L 322.956694 199.237162 
L 323.27405 239.089723 
L 323.591405 155.317426 
L 323.90876 202.041027 
L 324.543471 162.638038 
L 324.860826 223.425002 
L 325.178182 168.242927 
L 325.495537 238.460158 
L 325.812893 196.975364 
L 326.130248 179.202397 
L 326.764959 216.254615 
L 327.399669 181.033823 
L 327.717025 219.222886 
L 328.03438 175.693351 
L 328.351736 173.456287 
L 328.669091 193.197698 
L 328.986446 161.035864 
L 329.303802 215.81064 
L 329.621157 189.533164 
L 329.938512 175.466048 
L 330.255868 178.000056 
L 330.573223 193.406515 
L 330.890579 189.038912 
L 331.207934 202.465832 
L 331.525289 187.936784 
L 331.842645 191.727991 
L 332.16 193.992642 
L 332.794711 186.955536 
L 333.112066 219.656647 
L 333.429421 164.837654 
L 333.746777 233.842332 
L 334.064132 177.340744 
L 334.381488 221.548716 
L 334.698843 172.860252 
L 335.016198 170.00627 
L 335.333554 248.535934 
L 335.650909 209.986861 
L 335.968264 193.019763 
L 336.28562 189.107195 
L 336.602975 213.092797 
L 336.920331 213.767401 
L 337.237686 184.448651 
L 337.555041 182.625229 
L 337.872397 277.981196 
L 338.189752 179.893749 
L 338.507107 193.447692 
L 338.824463 153.424357 
L 339.141818 213.412954 
L 339.459174 207.083346 
L 339.776529 177.949776 
L 340.093884 188.52866 
L 340.41124 242.872555 
L 340.728595 237.511287 
L 341.04595 182.935348 
L 341.363306 203.469809 
L 341.680661 174.716665 
L 341.998017 173.293163 
L 342.315372 177.669441 
L 342.632727 188.139343 
L 342.950083 169.219224 
L 343.267438 179.864863 
L 343.584793 155.457795 
L 343.902149 162.751734 
L 344.219504 175.031805 
L 344.53686 232.956441 
L 344.854215 183.660064 
L 345.17157 222.03711 
L 345.488926 181.576022 
L 345.806281 172.965213 
L 346.123636 189.555633 
L 346.440992 190.130741 
L 346.758347 196.580518 
L 347.393058 168.059704 
L 347.710413 218.94062 
L 348.027769 158.885602 
L 348.345124 154.033744 
L 348.979835 218.069743 
L 349.29719 178.533265 
L 349.614545 193.762172 
L 349.931901 177.297279 
L 350.249256 211.748658 
L 350.566612 180.801699 
L 350.883967 228.459968 
L 351.201322 165.981835 
L 351.518678 173.95114 
L 351.836033 174.738845 
L 352.153388 182.895621 
L 352.470744 174.344129 
L 352.788099 173.587869 
L 353.105455 204.638651 
L 353.42281 194.611372 
L 353.740165 171.346794 
L 354.057521 194.650132 
L 354.374876 193.144741 
L 354.692231 147.58747 
L 355.009587 223.517517 
L 355.326942 176.049035 
L 355.644298 195.950662 
L 355.961653 189.666408 
L 356.279008 187.856097 
L 356.596364 218.680726 
L 356.913719 225.82674 
L 357.54843 197.852431 
L 357.865785 166.065809 
L 358.18314 224.445963 
L 358.500496 199.682766 
L 358.817851 187.565591 
L 359.135207 219.933293 
L 359.452562 169.309525 
L 359.769917 217.8713 
L 360.087273 164.69465 
L 360.404628 181.35502 
L 360.721983 173.56597 
L 361.356694 211.93732 
L 361.67405 197.875293 
L 361.991405 202.566674 
L 362.30876 204.138724 
L 362.626116 153.82828 
L 362.943471 204.282376 
L 363.260826 195.361853 
L 363.578182 205.643765 
L 363.895537 210.121717 
L 364.212893 237.837949 
L 364.530248 176.502017 
L 364.847603 199.605102 
L 365.164959 178.027269 
L 365.482314 207.05997 
L 365.799669 162.274337 
L 366.117025 173.367131 
L 366.43438 191.627073 
L 366.751736 164.810699 
L 367.069091 186.133637 
L 367.386446 179.273201 
L 367.703802 193.980975 
L 368.021157 187.807416 
L 368.338512 185.674053 
L 368.655868 202.067044 
L 368.973223 254.248554 
L 369.290579 196.281896 
L 369.607934 200.49856 
L 369.925289 174.451828 
L 370.242645 237.868872 
L 370.56 213.485289 
L 370.877355 176.234494 
L 371.194711 187.570745 
L 371.512066 167.805957 
L 371.829421 202.012579 
L 372.146777 175.152595 
L 372.464132 178.174859 
L 372.781488 177.582742 
L 373.098843 216.374555 
L 373.416198 218.51458 
L 373.733554 207.916462 
L 374.050909 221.074881 
L 374.368264 205.013558 
L 374.68562 210.432243 
L 375.320331 199.487737 
L 375.637686 184.111231 
L 375.955041 160.443363 
L 376.272397 182.12769 
L 376.589752 185.127123 
L 376.907107 202.010496 
L 377.224463 204.578843 
L 377.541818 190.236239 
L 377.859174 217.070786 
L 378.176529 172.578583 
L 378.493884 167.605855 
L 378.81124 249.411017 
L 379.128595 191.574602 
L 379.44595 176.467478 
L 379.763306 167.828478 
L 380.080661 173.304531 
L 380.398017 201.484037 
L 380.715372 192.305886 
L 381.032727 240.908461 
L 381.350083 199.71882 
L 381.667438 194.868249 
L 381.984793 161.568611 
L 382.302149 284.45762 
L 382.619504 176.988869 
L 382.93686 204.004523 
L 383.254215 170.903328 
L 383.57157 185.734381 
L 383.888926 184.453059 
L 384.206281 198.459607 
L 384.523636 164.076207 
L 384.840992 199.231208 
L 385.158347 148.216862 
L 385.475702 180.990025 
L 385.793058 172.932584 
L 386.110413 191.496311 
L 386.427769 181.846482 
L 386.745124 234.889078 
L 387.062479 182.766595 
L 387.379835 166.218199 
L 387.69719 193.165134 
L 388.014545 273.106268 
L 388.331901 202.430657 
L 388.649256 174.278142 
L 388.966612 173.7537 
L 389.283967 198.053462 
L 389.601322 205.750989 
L 389.918678 178.423253 
L 390.236033 213.787541 
L 390.553388 181.681654 
L 390.870744 164.353164 
L 391.188099 194.627505 
L 391.505455 165.454679 
L 391.82281 196.493449 
L 392.140165 249.014549 
L 392.457521 182.838245 
L 392.774876 257.967313 
L 393.092231 171.27561 
L 393.409587 187.526866 
L 393.726942 234.457622 
L 394.044298 210.027293 
L 394.679008 189.076595 
L 394.996364 216.851947 
L 395.313719 174.629999 
L 395.631074 230.685845 
L 395.94843 192.895798 
L 396.265785 170.489889 
L 396.58314 177.30154 
L 396.900496 201.48113 
L 397.217851 186.905936 
L 397.535207 213.304311 
L 397.852562 166.372424 
L 398.169917 183.386335 
L 398.487273 214.077687 
L 398.487273 214.077687 
" clip-path="url(#pc11aa7c24b)" style="fill: none; stroke: #1f77b4; stroke-width: 1.5; stroke-linecap: square"/>
   </g>
   <g id="line2d_24">
    <defs>
     <path id="me28faff4bd" d="M -3 3 
L 3 -3 
M -3 -3 
L 3 3 
" style="stroke: #ff0000"/>
    </defs>
    <g clip-path="url(#pc11aa7c24b)">
     <use xlink:href="#me28faff4bd" x="301.376529" y="53.568" style="fill: #ff0000; stroke: #ff0000"/>
    </g>
   </g>
   <g id="patch_3">
    <path d="M 57.6 307.584 
L 57.6 41.472 
" style="fill: none; stroke: #000000; stroke-width: 0.8; stroke-linejoin: miter; stroke-linecap: square"/>
   </g>
   <g id="patch_4">
    <path d="M 414.72 307.584 
L 414.72 41.472 
" style="fill: none; stroke: #000000; stroke-width: 0.8; stroke-linejoin: miter; stroke-linecap: square"/>
   </g>
   <g id="patch_5">
    <path d="M 57.6 307.584 
L 414.72 307.584 
" style="fill: none; stroke: #000000; stroke-width: 0.8; stroke-linejoin: miter; stroke-linecap: square"/>
   </g>
   <g id="patch_6">
    <path d="M 57.6 41.472 
L 414.72 41.472 
" style="fill: none; stroke: #000000; stroke-width: 0.8; stroke-linejoin: miter; stroke-linecap: square"/>
   </g>
  </g>
 </g>
 <defs>
  <clipPath id="pc11aa7c24b">
   <rect x="57.6" y="41.472" width="357.12" height="266.112"/>
  </clipPath>
 </defs>
</svg>
