<?xml version="1.0" encoding="UTF-8" standalone="no"?>
<svg
   xmlns:dc="http://purl.org/dc/elements/1.1/"
   xmlns:cc="http://creativecommons.org/ns#"
   xmlns:rdf="http://www.w3.org/1999/02/22-rdf-syntax-ns#"
   xmlns:svg="http://www.w3.org/2000/svg"
   xmlns="http://www.w3.org/2000/svg"
   xmlns:sodipodi="http://sodipodi.sourceforge.net/DTD/sodipodi-0.dtd"
   xmlns:inkscape="http://www.inkscape.org/namespaces/inkscape"
   width="386.52148"
   height="169.77394"
   overflow="hidden"
   version="1.1"
   id="svg37"
   sodipodi:docname="freq-shift-diagram.svg"
   inkscape:version="1.0.1 (3bc2e813f5, 2020-09-07)">
  <metadata
     id="metadata41">
    <rdf:RDF>
      <cc:Work
         rdf:about="">
        <dc:format>image/svg+xml</dc:format>
        <dc:type
           rdf:resource="http://purl.org/dc/dcmitype/StillImage" />
      </cc:Work>
    </rdf:RDF>
  </metadata>
  <sodipodi:namedview
     pagecolor="#ffffff"
     bordercolor="#666666"
     borderopacity="1"
     objecttolerance="10"
     gridtolerance="10"
     guidetolerance="10"
     inkscape:pageopacity="0"
     inkscape:pageshadow="2"
     inkscape:window-width="2144"
     inkscape:window-height="1086"
     id="namedview39"
     showgrid="false"
     inkscape:zoom="2.5666667"
     inkscape:cx="146.52158"
     inkscape:cy="64.440957"
     inkscape:window-x="72"
     inkscape:window-y="30"
     inkscape:window-maximized="0"
     inkscape:current-layer="svg37" />
  <defs
     id="defs5">
    <clipPath
       id="clip0">
      <rect
         x="0"
         y="0"
         width="480"
         height="211"
         id="rect2" />
    </clipPath>
  </defs>
  <g
     id="g894"
     transform="scale(1.1844737)">
    <rect
       x="0"
       y="0"
       width="326.32339"
       height="143.33281"
       fill="#ffffff"
       id="rect7"
       style="stroke-width:0.680109" />
    <path
       d="m 69.683654,26.606124 69.653656,6.6e-5 v 0.45287 l -69.653656,-6.8e-5 z m 68.747396,-2.490719 5.43826,2.717224 -5.43894,2.717211 z"
       id="path9"
       style="stroke-width:0.680109" />
    <path
       d="m 143.78627,27.511854 c 0,-9.379284 7.45721,-16.98262 16.65612,-16.98262 9.19891,0 16.65605,7.603336 16.65605,16.98262 0,9.379216 -7.45714,16.982553 -16.65605,16.982553 -9.19891,0 -16.65612,-7.603337 -16.65612,-16.982553 z"
       stroke="#000000"
       stroke-width="0.906096"
       stroke-miterlimit="8"
       fill="#d9d9d9"
       fill-rule="evenodd"
       id="path11" />
    <path
       d="M 148.54516,39.170032 172.44968,15.284379"
       stroke="#000000"
       stroke-width="0.453048"
       stroke-miterlimit="8"
       fill="none"
       fill-rule="evenodd"
       id="path13" />
    <path
       d="m 148.54516,15.284379 23.90452,23.885653"
       stroke="#000000"
       stroke-width="0.453048"
       stroke-miterlimit="8"
       fill="none"
       fill-rule="evenodd"
       id="path15" />
    <path
       d="m 177.09846,27.964717 69.65366,6.6e-5 v 0.45287 l -69.65366,-6.8e-5 z m 68.74739,-2.490719 5.43826,2.717224 -5.43894,2.717211 z"
       id="path17"
       style="stroke-width:0.680109" />
    <path
       d="m 160.32905,91.817902 7e-5,-42.79501 h -0.45323 l -6e-5,42.79501 z m 2.49282,-41.889258 -2.71936,-5.434441 -2.71937,5.434441 z"
       id="path19"
       style="stroke-width:0.680109" />
    <path
       d="m 143.78627,108.68862 c 0,-9.191647 7.45721,-16.642971 16.65612,-16.642971 9.19891,0 16.65605,7.451324 16.65605,16.642971 0,9.19165 -7.45714,16.64291 -16.65605,16.64291 -9.19891,0 -16.65612,-7.45126 -16.65612,-16.64291 z"
       stroke="#000000"
       stroke-width="0.906096"
       stroke-miterlimit="8"
       fill="#d9d9d9"
       fill-rule="evenodd"
       id="path21" />
    <text
       font-family="'Times New Roman', 'Times New Roman_MSFontService', sans-serif"
       font-weight="400"
       font-size="16.3097px"
       transform="scale(1.0003947,0.99960543)"
       id="text29"
       x="24.985699"
       y="31.965118"
       style="stroke-width:0.679572">signal<tspan
   x="267.27972"
   y="13.602192"
   id="tspan23"
   style="stroke-width:0.679572">freq</tspan><tspan
   x="258.21896"
   y="33.325336"
   id="tspan25"
   style="stroke-width:0.679572">shifted</tspan><tspan
   x="260.93726"
   y="53.048508"
   id="tspan27"
   style="stroke-width:0.679572">signal</tspan></text>
    <path
       d="m 147.18547,108.90135 c 3.16139,-4.56756 4.78249,-8.04872 7.67915,-8.02443 2.27355,-0.0118 4.648,5.27824 5.96194,7.95338 1.65754,2.92651 4.74278,7.72374 7.05055,7.67003 2.30784,-0.0537 4.87933,-5.20724 6.50196,-8.59556"
       stroke="#000000"
       stroke-width="0.906096"
       stroke-miterlimit="8"
       fill="none"
       fill-rule="evenodd"
       id="path31" />
    <text
       font-family="'Times New Roman', 'Times New Roman_MSFontService', sans-serif"
       font-weight="400"
       font-size="16.3097px"
       transform="scale(1.0003947,0.99960543)"
       id="text33"
       x="133.91855"
       y="138.0621"
       style="stroke-width:0.679572">sinusoid</text>
  </g>
</svg>
