<svg width="451" height="221" xmlns="http://www.w3.org/2000/svg" xmlns:xlink="http://www.w3.org/1999/xlink" overflow="hidden"><defs><clipPath id="clip0"><rect x="0" y="0" width="451" height="221"/></clipPath><clipPath id="clip1"><rect x="157" y="-34" width="39" height="181"/></clipPath><clipPath id="clip2"><rect x="195" y="-34" width="40" height="181"/></clipPath><clipPath id="clip3"><rect x="234" y="-34" width="40" height="181"/></clipPath><clipPath id="clip4"><rect x="273" y="-34" width="40" height="181"/></clipPath><clipPath id="clip5"><rect x="312" y="-34" width="40" height="181"/></clipPath><clipPath id="clip6"><rect x="351" y="-34" width="39" height="181"/></clipPath><clipPath id="clip7"><rect x="389" y="-34" width="40" height="181"/></clipPath><clipPath id="clip8"><rect x="118" y="3" width="40" height="181"/></clipPath><clipPath id="clip9"><rect x="157" y="-44" width="39" height="270"/></clipPath><clipPath id="clip10"><rect x="234" y="-44" width="40" height="270"/></clipPath><clipPath id="clip11"><rect x="312" y="-44" width="40" height="270"/></clipPath><clipPath id="clip12"><rect x="389" y="-44" width="40" height="270"/></clipPath><clipPath id="clip13"><rect x="118" y="47" width="40" height="180"/></clipPath><clipPath id="clip14"><rect x="195" y="-1" width="40" height="271"/></clipPath><clipPath id="clip15"><rect x="234" y="-1" width="40" height="271"/></clipPath><clipPath id="clip16"><rect x="351" y="-1" width="39" height="271"/></clipPath><clipPath id="clip17"><rect x="389" y="-1" width="40" height="271"/></clipPath><clipPath id="clip18"><rect x="118" y="88" width="40" height="180"/></clipPath><clipPath id="clip19"><rect x="273" y="43" width="40" height="270"/></clipPath><clipPath id="clip20"><rect x="312" y="43" width="40" height="270"/></clipPath><clipPath id="clip21"><rect x="351" y="43" width="39" height="270"/></clipPath><clipPath id="clip22"><rect x="389" y="43" width="40" height="270"/></clipPath></defs><g clip-path="url(#clip0)"><rect x="0" y="0" width="451" height="221.249" fill="#FFFFFF"/><path d="M157.169 41.0586 195.943 41.0586 195.943 72.0104 157.169 72.0104Z" fill="#C5E0B4" fill-rule="evenodd"/><path d="M195.943 41.0586 234.716 41.0586 234.716 72.0104 195.943 72.0104Z" fill="#C5E0B4" fill-rule="evenodd"/><path d="M273.49 41.0586 312.263 41.0586 312.263 72.0104 273.49 72.0104Z" fill="#C5E0B4" fill-rule="evenodd"/><path d="M118.395 72.0104 157.169 72.0104 157.169 115.243 118.395 115.243Z" fill="#C5E0B4" fill-rule="evenodd"/><path d="M157.169 72.0104 195.943 72.0104 195.943 115.243 157.169 115.243Z" fill="#FF8F8F" fill-rule="evenodd"/><path d="M234.716 72.0104 273.49 72.0104 273.49 115.243 234.716 115.243Z" fill="#FF8F8F" fill-rule="evenodd"/><path d="M312.263 72.0104 351.037 72.0104 351.037 115.243 312.263 115.243Z" fill="#FF8F8F" fill-rule="evenodd"/><path d="M389.811 72.0104 428.584 72.0104 428.584 115.243 389.811 115.243Z" fill="#FF8F8F" fill-rule="evenodd"/><path d="M118.395 115.243 157.169 115.243 157.169 158.476 118.395 158.476Z" fill="#C5E0B4" fill-rule="evenodd"/><path d="M195.943 115.243 234.716 115.243 234.716 158.476 195.943 158.476Z" fill="#FF8F8F" fill-rule="evenodd"/><path d="M234.716 115.243 273.49 115.243 273.49 158.476 234.716 158.476Z" fill="#FF8F8F" fill-rule="evenodd"/><path d="M351.037 115.243 389.811 115.243 389.811 158.476 351.037 158.476Z" fill="#FF8F8F" fill-rule="evenodd"/><path d="M389.811 115.243 428.584 115.243 428.584 158.476 389.811 158.476Z" fill="#FF8F8F" fill-rule="evenodd"/><path d="M118.395 158.476 157.169 158.476 157.169 201.708 118.395 201.708Z" fill="#C5E0B4" fill-rule="evenodd"/><path d="M273.49 158.476 312.263 158.476 312.263 201.708 273.49 201.708Z" fill="#FF8F8F" fill-rule="evenodd"/><path d="M312.263 158.476 351.037 158.476 351.037 201.708 312.263 201.708Z" fill="#FF8F8F" fill-rule="evenodd"/><path d="M351.037 158.476 389.811 158.476 389.811 201.708 351.037 201.708Z" fill="#FF8F8F" fill-rule="evenodd"/><path d="M389.811 158.476 428.584 158.476 428.584 201.708 389.811 201.708Z" fill="#FF8F8F" fill-rule="evenodd"/><path d="M118.395 71.3432 118.395 202.375" stroke="#000000" stroke-width="1.33284" stroke-linejoin="round" stroke-miterlimit="10" fill="none" fill-rule="evenodd"/><path d="M157.169 9.43956 157.169 202.375" stroke="#000000" stroke-width="1.33284" stroke-linejoin="round" stroke-miterlimit="10" fill="none" fill-rule="evenodd"/><path d="M195.943 9.43956 195.943 202.375" stroke="#000000" stroke-width="1.33284" stroke-linejoin="round" stroke-miterlimit="10" fill="none" fill-rule="evenodd"/><path d="M234.716 9.43956 234.716 202.375" stroke="#000000" stroke-width="1.33284" stroke-linejoin="round" stroke-miterlimit="10" fill="none" fill-rule="evenodd"/><path d="M273.49 9.43956 273.49 202.375" stroke="#000000" stroke-width="1.33284" stroke-linejoin="round" stroke-miterlimit="10" fill="none" fill-rule="evenodd"/><path d="M312.263 9.43956 312.263 202.375" stroke="#000000" stroke-width="1.33284" stroke-linejoin="round" stroke-miterlimit="10" fill="none" fill-rule="evenodd"/><path d="M351.037 9.43956 351.037 202.375" stroke="#000000" stroke-width="1.33284" stroke-linejoin="round" stroke-miterlimit="10" fill="none" fill-rule="evenodd"/><path d="M389.811 9.43956 389.811 202.375" stroke="#000000" stroke-width="1.33284" stroke-linejoin="round" stroke-miterlimit="10" fill="none" fill-rule="evenodd"/><path d="M9.23764 41.0586 429.251 41.0586" stroke="#000000" stroke-width="1.33284" stroke-linejoin="round" stroke-miterlimit="10" fill="none" fill-rule="evenodd"/><path d="M9.23764 72.0104 429.251 72.0104" stroke="#000000" stroke-width="1.33284" stroke-linejoin="round" stroke-miterlimit="10" fill="none" fill-rule="evenodd"/><path d="M117.729 115.243 429.251 115.243" stroke="#000000" stroke-width="1.33284" stroke-linejoin="round" stroke-miterlimit="10" fill="none" fill-rule="evenodd"/><path d="M117.729 158.476 429.251 158.476" stroke="#000000" stroke-width="1.33284" stroke-linejoin="round" stroke-miterlimit="10" fill="none" fill-rule="evenodd"/><path d="M9.90406 9.43956 9.90406 202.375" stroke="#000000" stroke-width="1.33284" stroke-linejoin="round" stroke-miterlimit="10" fill="none" fill-rule="evenodd"/><path d="M428.584 9.43956 428.584 202.375" stroke="#000000" stroke-width="1.33284" stroke-linejoin="round" stroke-miterlimit="10" fill="none" fill-rule="evenodd"/><path d="M9.23764 10.1067 429.251 10.1067" stroke="#000000" stroke-width="1.33284" stroke-linejoin="round" stroke-miterlimit="10" fill="none" fill-rule="evenodd"/><path d="M9.23764 201.708 429.251 201.708" stroke="#000000" stroke-width="1.33284" stroke-linejoin="round" stroke-miterlimit="10" fill="none" fill-rule="evenodd"/><text font-family="Times New Roman,Times New Roman_MSFontService,sans-serif" font-weight="400" font-size="21" transform="matrix(1 0 0 1.00112 32.722 34)">Bit Position<tspan x="138.502" y="0">1</tspan><tspan x="177.276" y="0">2</tspan><tspan x="216.05" y="0">3</tspan><tspan x="254.823" y="0">4</tspan><tspan x="293.597" y="0">5</tspan><tspan x="332.37" y="0">6</tspan><tspan x="371.144" y="0">7</tspan><tspan x="-6.41432" y="30.9652">Encoded Bits</tspan></text><g clip-path="url(#clip1)"><text font-family="Times New Roman,Times New Roman_MSFontService,sans-serif" font-weight="400" font-size="21" transform="matrix(1 0 0 1.00112 165.893 65)">p1</text></g><g clip-path="url(#clip2)"><text font-family="Times New Roman,Times New Roman_MSFontService,sans-serif" font-weight="400" font-size="21" transform="matrix(1 0 0 1.00112 204.667 65)">p2</text></g><g clip-path="url(#clip3)"><text font-family="Times New Roman,Times New Roman_MSFontService,sans-serif" font-weight="400" font-size="21" transform="matrix(1 0 0 1.00112 243.44 65)">d1</text></g><g clip-path="url(#clip4)"><text font-family="Times New Roman,Times New Roman_MSFontService,sans-serif" font-weight="400" font-size="21" transform="matrix(1 0 0 1.00112 282.214 65)">p4</text></g><g clip-path="url(#clip5)"><text font-family="Times New Roman,Times New Roman_MSFontService,sans-serif" font-weight="400" font-size="21" transform="matrix(1 0 0 1.00112 320.987 65)">d2</text></g><g clip-path="url(#clip6)"><text font-family="Times New Roman,Times New Roman_MSFontService,sans-serif" font-weight="400" font-size="21" transform="matrix(1 0 0 1.00112 359.761 65)">d3</text></g><g clip-path="url(#clip7)"><text font-family="Times New Roman,Times New Roman_MSFontService,sans-serif" font-weight="400" font-size="21" transform="matrix(1 0 0 1.00112 398.535 65)">d4</text></g><text font-family="Times New Roman,Times New Roman_MSFontService,sans-serif" font-weight="400" font-size="21" transform="matrix(1 0 0 1.00112 38.5758 120)">Parity<tspan x="12.4954" y="24.9719">Bit </tspan><tspan x="-15.3277" y="50.9427">Coverage</tspan></text><g clip-path="url(#clip8)"><text font-family="Times New Roman,Times New Roman_MSFontService,sans-serif" font-weight="400" font-size="21" transform="matrix(1 0 0 1.00112 127.119 102)">p1</text></g><g clip-path="url(#clip9)"><text fill="#FF0000" font-family="Arial,Arial_MSFontService,sans-serif" font-weight="400" font-size="32" transform="matrix(1 0 0 1.00112 168.559 103)">x</text></g><g clip-path="url(#clip10)"><text fill="#FF0000" font-family="Arial,Arial_MSFontService,sans-serif" font-weight="400" font-size="32" transform="matrix(1 0 0 1.00112 246.106 103)">x</text></g><g clip-path="url(#clip11)"><text fill="#FF0000" font-family="Arial,Arial_MSFontService,sans-serif" font-weight="400" font-size="32" transform="matrix(1 0 0 1.00112 323.653 103)">x</text></g><g clip-path="url(#clip12)"><text fill="#FF0000" font-family="Arial,Arial_MSFontService,sans-serif" font-weight="400" font-size="32" transform="matrix(1 0 0 1.00112 401.2 103)">x</text></g><g clip-path="url(#clip13)"><text font-family="Times New Roman,Times New Roman_MSFontService,sans-serif" font-weight="400" font-size="21" transform="matrix(1 0 0 1.00112 127.119 145)">p2</text></g><g clip-path="url(#clip14)"><text fill="#FF0000" font-family="Arial,Arial_MSFontService,sans-serif" font-weight="400" font-size="32" transform="matrix(1 0 0 1.00112 207.332 146)">x</text></g><g clip-path="url(#clip15)"><text fill="#FF0000" font-family="Arial,Arial_MSFontService,sans-serif" font-weight="400" font-size="32" transform="matrix(1 0 0 1.00112 246.106 146)">x</text></g><g clip-path="url(#clip16)"><text fill="#FF0000" font-family="Arial,Arial_MSFontService,sans-serif" font-weight="400" font-size="32" transform="matrix(1 0 0 1.00112 362.427 146)">x</text></g><g clip-path="url(#clip17)"><text fill="#FF0000" font-family="Arial,Arial_MSFontService,sans-serif" font-weight="400" font-size="32" transform="matrix(1 0 0 1.00112 401.2 146)">x</text></g><g clip-path="url(#clip18)"><text font-family="Times New Roman,Times New Roman_MSFontService,sans-serif" font-weight="400" font-size="21" transform="matrix(1 0 0 1.00112 127.119 186)">p4</text></g><g clip-path="url(#clip19)"><text fill="#FF0000" font-family="Arial,Arial_MSFontService,sans-serif" font-weight="400" font-size="32" transform="matrix(1 0 0 1.00112 284.88 190)">x</text></g><g clip-path="url(#clip20)"><text fill="#FF0000" font-family="Arial,Arial_MSFontService,sans-serif" font-weight="400" font-size="32" transform="matrix(1 0 0 1.00112 323.653 190)">x</text></g><g clip-path="url(#clip21)"><text fill="#FF0000" font-family="Arial,Arial_MSFontService,sans-serif" font-weight="400" font-size="32" transform="matrix(1 0 0 1.00112 362.427 190)">x</text></g><g clip-path="url(#clip22)"><text fill="#FF0000" font-family="Arial,Arial_MSFontService,sans-serif" font-weight="400" font-size="32" transform="matrix(1 0 0 1.00112 401.2 190)">x</text></g></g></svg>