<?xml version="1.0" encoding="utf-8" standalone="no"?>
<!DOCTYPE svg PUBLIC "-//W3C//DTD SVG 1.1//EN"
  "http://www.w3.org/Graphics/SVG/1.1/DTD/svg11.dtd">
<!-- Created with matplotlib (https://matplotlib.org/) -->
<svg height="345.6pt" version="1.1" viewBox="0 0 460.8 345.6" width="460.8pt" xmlns="http://www.w3.org/2000/svg" xmlns:xlink="http://www.w3.org/1999/xlink">
 <metadata>
  <rdf:RDF xmlns:cc="http://creativecommons.org/ns#" xmlns:dc="http://purl.org/dc/elements/1.1/" xmlns:rdf="http://www.w3.org/1999/02/22-rdf-syntax-ns#">
   <cc:Work>
    <dc:type rdf:resource="http://purl.org/dc/dcmitype/StillImage"/>
    <dc:date>2023-12-25T08:50:41.547308</dc:date>
    <dc:format>image/svg+xml</dc:format>
    <dc:creator>
     <cc:Agent>
      <dc:title>Matplotlib v3.3.4, https://matplotlib.org/</dc:title>
     </cc:Agent>
    </dc:creator>
   </cc:Work>
  </rdf:RDF>
 </metadata>
 <defs>
  <style type="text/css">*{stroke-linecap:butt;stroke-linejoin:round;}</style>
 </defs>
 <g id="figure_1">
  <g id="patch_1">
   <path d="M 0 345.6 
L 460.8 345.6 
L 460.8 0 
L 0 0 
z
" style="fill:#ffffff;"/>
  </g>
  <g id="axes_1">
   <g id="patch_2">
    <path d="M 57.6 307.584 
L 414.72 307.584 
L 414.72 41.472 
L 57.6 41.472 
z
" style="fill:#ffffff;"/>
   </g>
   <g id="matplotlib.axis_1">
    <g id="xtick_1">
     <g id="line2d_1">
      <defs>
       <path d="M 0 0 
L 0 3.5 
" id="meb2860c0e0" style="stroke:#000000;stroke-width:0.8;"/>
      </defs>
      <g>
       <use style="stroke:#000000;stroke-width:0.8;" x="73.832727" xlink:href="#meb2860c0e0" y="307.584"/>
      </g>
     </g>
     <g id="text_1">
      <!-- 0 -->
      <g transform="translate(70.651477 322.182437)scale(0.1 -0.1)">
       <defs>
        <path d="M 31.78125 66.40625 
Q 24.171875 66.40625 20.328125 58.90625 
Q 16.5 51.421875 16.5 36.375 
Q 16.5 21.390625 20.328125 13.890625 
Q 24.171875 6.390625 31.78125 6.390625 
Q 39.453125 6.390625 43.28125 13.890625 
Q 47.125 21.390625 47.125 36.375 
Q 47.125 51.421875 43.28125 58.90625 
Q 39.453125 66.40625 31.78125 66.40625 
z
M 31.78125 74.21875 
Q 44.046875 74.21875 50.515625 64.515625 
Q 56.984375 54.828125 56.984375 36.375 
Q 56.984375 17.96875 50.515625 8.265625 
Q 44.046875 -1.421875 31.78125 -1.421875 
Q 19.53125 -1.421875 13.0625 8.265625 
Q 6.59375 17.96875 6.59375 36.375 
Q 6.59375 54.828125 13.0625 64.515625 
Q 19.53125 74.21875 31.78125 74.21875 
z
" id="DejaVuSans-48"/>
       </defs>
       <use xlink:href="#DejaVuSans-48"/>
      </g>
     </g>
    </g>
    <g id="xtick_2">
     <g id="line2d_2">
      <g>
       <use style="stroke:#000000;stroke-width:0.8;" x="138.763636" xlink:href="#meb2860c0e0" y="307.584"/>
      </g>
     </g>
     <g id="text_2">
      <!-- 200 -->
      <g transform="translate(129.219886 322.182437)scale(0.1 -0.1)">
       <defs>
        <path d="M 19.1875 8.296875 
L 53.609375 8.296875 
L 53.609375 0 
L 7.328125 0 
L 7.328125 8.296875 
Q 12.9375 14.109375 22.625 23.890625 
Q 32.328125 33.6875 34.8125 36.53125 
Q 39.546875 41.84375 41.421875 45.53125 
Q 43.3125 49.21875 43.3125 52.78125 
Q 43.3125 58.59375 39.234375 62.25 
Q 35.15625 65.921875 28.609375 65.921875 
Q 23.96875 65.921875 18.8125 64.3125 
Q 13.671875 62.703125 7.8125 59.421875 
L 7.8125 69.390625 
Q 13.765625 71.78125 18.9375 73 
Q 24.125 74.21875 28.421875 74.21875 
Q 39.75 74.21875 46.484375 68.546875 
Q 53.21875 62.890625 53.21875 53.421875 
Q 53.21875 48.921875 51.53125 44.890625 
Q 49.859375 40.875 45.40625 35.40625 
Q 44.1875 33.984375 37.640625 27.21875 
Q 31.109375 20.453125 19.1875 8.296875 
z
" id="DejaVuSans-50"/>
       </defs>
       <use xlink:href="#DejaVuSans-50"/>
       <use x="63.623047" xlink:href="#DejaVuSans-48"/>
       <use x="127.246094" xlink:href="#DejaVuSans-48"/>
      </g>
     </g>
    </g>
    <g id="xtick_3">
     <g id="line2d_3">
      <g>
       <use style="stroke:#000000;stroke-width:0.8;" x="203.694545" xlink:href="#meb2860c0e0" y="307.584"/>
      </g>
     </g>
     <g id="text_3">
      <!-- 400 -->
      <g transform="translate(194.150795 322.182437)scale(0.1 -0.1)">
       <defs>
        <path d="M 37.796875 64.3125 
L 12.890625 25.390625 
L 37.796875 25.390625 
z
M 35.203125 72.90625 
L 47.609375 72.90625 
L 47.609375 25.390625 
L 58.015625 25.390625 
L 58.015625 17.1875 
L 47.609375 17.1875 
L 47.609375 0 
L 37.796875 0 
L 37.796875 17.1875 
L 4.890625 17.1875 
L 4.890625 26.703125 
z
" id="DejaVuSans-52"/>
       </defs>
       <use xlink:href="#DejaVuSans-52"/>
       <use x="63.623047" xlink:href="#DejaVuSans-48"/>
       <use x="127.246094" xlink:href="#DejaVuSans-48"/>
      </g>
     </g>
    </g>
    <g id="xtick_4">
     <g id="line2d_4">
      <g>
       <use style="stroke:#000000;stroke-width:0.8;" x="268.625455" xlink:href="#meb2860c0e0" y="307.584"/>
      </g>
     </g>
     <g id="text_4">
      <!-- 600 -->
      <g transform="translate(259.081705 322.182437)scale(0.1 -0.1)">
       <defs>
        <path d="M 33.015625 40.375 
Q 26.375 40.375 22.484375 35.828125 
Q 18.609375 31.296875 18.609375 23.390625 
Q 18.609375 15.53125 22.484375 10.953125 
Q 26.375 6.390625 33.015625 6.390625 
Q 39.65625 6.390625 43.53125 10.953125 
Q 47.40625 15.53125 47.40625 23.390625 
Q 47.40625 31.296875 43.53125 35.828125 
Q 39.65625 40.375 33.015625 40.375 
z
M 52.59375 71.296875 
L 52.59375 62.3125 
Q 48.875 64.0625 45.09375 64.984375 
Q 41.3125 65.921875 37.59375 65.921875 
Q 27.828125 65.921875 22.671875 59.328125 
Q 17.53125 52.734375 16.796875 39.40625 
Q 19.671875 43.65625 24.015625 45.921875 
Q 28.375 48.1875 33.59375 48.1875 
Q 44.578125 48.1875 50.953125 41.515625 
Q 57.328125 34.859375 57.328125 23.390625 
Q 57.328125 12.15625 50.6875 5.359375 
Q 44.046875 -1.421875 33.015625 -1.421875 
Q 20.359375 -1.421875 13.671875 8.265625 
Q 6.984375 17.96875 6.984375 36.375 
Q 6.984375 53.65625 15.1875 63.9375 
Q 23.390625 74.21875 37.203125 74.21875 
Q 40.921875 74.21875 44.703125 73.484375 
Q 48.484375 72.75 52.59375 71.296875 
z
" id="DejaVuSans-54"/>
       </defs>
       <use xlink:href="#DejaVuSans-54"/>
       <use x="63.623047" xlink:href="#DejaVuSans-48"/>
       <use x="127.246094" xlink:href="#DejaVuSans-48"/>
      </g>
     </g>
    </g>
    <g id="xtick_5">
     <g id="line2d_5">
      <g>
       <use style="stroke:#000000;stroke-width:0.8;" x="333.556364" xlink:href="#meb2860c0e0" y="307.584"/>
      </g>
     </g>
     <g id="text_5">
      <!-- 800 -->
      <g transform="translate(324.012614 322.182437)scale(0.1 -0.1)">
       <defs>
        <path d="M 31.78125 34.625 
Q 24.75 34.625 20.71875 30.859375 
Q 16.703125 27.09375 16.703125 20.515625 
Q 16.703125 13.921875 20.71875 10.15625 
Q 24.75 6.390625 31.78125 6.390625 
Q 38.8125 6.390625 42.859375 10.171875 
Q 46.921875 13.96875 46.921875 20.515625 
Q 46.921875 27.09375 42.890625 30.859375 
Q 38.875 34.625 31.78125 34.625 
z
M 21.921875 38.8125 
Q 15.578125 40.375 12.03125 44.71875 
Q 8.5 49.078125 8.5 55.328125 
Q 8.5 64.0625 14.71875 69.140625 
Q 20.953125 74.21875 31.78125 74.21875 
Q 42.671875 74.21875 48.875 69.140625 
Q 55.078125 64.0625 55.078125 55.328125 
Q 55.078125 49.078125 51.53125 44.71875 
Q 48 40.375 41.703125 38.8125 
Q 48.828125 37.15625 52.796875 32.3125 
Q 56.78125 27.484375 56.78125 20.515625 
Q 56.78125 9.90625 50.3125 4.234375 
Q 43.84375 -1.421875 31.78125 -1.421875 
Q 19.734375 -1.421875 13.25 4.234375 
Q 6.78125 9.90625 6.78125 20.515625 
Q 6.78125 27.484375 10.78125 32.3125 
Q 14.796875 37.15625 21.921875 38.8125 
z
M 18.3125 54.390625 
Q 18.3125 48.734375 21.84375 45.5625 
Q 25.390625 42.390625 31.78125 42.390625 
Q 38.140625 42.390625 41.71875 45.5625 
Q 45.3125 48.734375 45.3125 54.390625 
Q 45.3125 60.0625 41.71875 63.234375 
Q 38.140625 66.40625 31.78125 66.40625 
Q 25.390625 66.40625 21.84375 63.234375 
Q 18.3125 60.0625 18.3125 54.390625 
z
" id="DejaVuSans-56"/>
       </defs>
       <use xlink:href="#DejaVuSans-56"/>
       <use x="63.623047" xlink:href="#DejaVuSans-48"/>
       <use x="127.246094" xlink:href="#DejaVuSans-48"/>
      </g>
     </g>
    </g>
    <g id="xtick_6">
     <g id="line2d_6">
      <g>
       <use style="stroke:#000000;stroke-width:0.8;" x="398.487273" xlink:href="#meb2860c0e0" y="307.584"/>
      </g>
     </g>
     <g id="text_6">
      <!-- 1000 -->
      <g transform="translate(385.762273 322.182437)scale(0.1 -0.1)">
       <defs>
        <path d="M 12.40625 8.296875 
L 28.515625 8.296875 
L 28.515625 63.921875 
L 10.984375 60.40625 
L 10.984375 69.390625 
L 28.421875 72.90625 
L 38.28125 72.90625 
L 38.28125 8.296875 
L 54.390625 8.296875 
L 54.390625 0 
L 12.40625 0 
z
" id="DejaVuSans-49"/>
       </defs>
       <use xlink:href="#DejaVuSans-49"/>
       <use x="63.623047" xlink:href="#DejaVuSans-48"/>
       <use x="127.246094" xlink:href="#DejaVuSans-48"/>
       <use x="190.869141" xlink:href="#DejaVuSans-48"/>
      </g>
     </g>
    </g>
    <g id="text_7">
     <!-- Time -->
     <g transform="translate(223.926406 335.860562)scale(0.1 -0.1)">
      <defs>
       <path d="M -0.296875 72.90625 
L 61.375 72.90625 
L 61.375 64.59375 
L 35.5 64.59375 
L 35.5 0 
L 25.59375 0 
L 25.59375 64.59375 
L -0.296875 64.59375 
z
" id="DejaVuSans-84"/>
       <path d="M 9.421875 54.6875 
L 18.40625 54.6875 
L 18.40625 0 
L 9.421875 0 
z
M 9.421875 75.984375 
L 18.40625 75.984375 
L 18.40625 64.59375 
L 9.421875 64.59375 
z
" id="DejaVuSans-105"/>
       <path d="M 52 44.1875 
Q 55.375 50.25 60.0625 53.125 
Q 64.75 56 71.09375 56 
Q 79.640625 56 84.28125 50.015625 
Q 88.921875 44.046875 88.921875 33.015625 
L 88.921875 0 
L 79.890625 0 
L 79.890625 32.71875 
Q 79.890625 40.578125 77.09375 44.375 
Q 74.3125 48.1875 68.609375 48.1875 
Q 61.625 48.1875 57.5625 43.546875 
Q 53.515625 38.921875 53.515625 30.90625 
L 53.515625 0 
L 44.484375 0 
L 44.484375 32.71875 
Q 44.484375 40.625 41.703125 44.40625 
Q 38.921875 48.1875 33.109375 48.1875 
Q 26.21875 48.1875 22.15625 43.53125 
Q 18.109375 38.875 18.109375 30.90625 
L 18.109375 0 
L 9.078125 0 
L 9.078125 54.6875 
L 18.109375 54.6875 
L 18.109375 46.1875 
Q 21.1875 51.21875 25.484375 53.609375 
Q 29.78125 56 35.6875 56 
Q 41.65625 56 45.828125 52.96875 
Q 50 49.953125 52 44.1875 
z
" id="DejaVuSans-109"/>
       <path d="M 56.203125 29.59375 
L 56.203125 25.203125 
L 14.890625 25.203125 
Q 15.484375 15.921875 20.484375 11.0625 
Q 25.484375 6.203125 34.421875 6.203125 
Q 39.59375 6.203125 44.453125 7.46875 
Q 49.3125 8.734375 54.109375 11.28125 
L 54.109375 2.78125 
Q 49.265625 0.734375 44.1875 -0.34375 
Q 39.109375 -1.421875 33.890625 -1.421875 
Q 20.796875 -1.421875 13.15625 6.1875 
Q 5.515625 13.8125 5.515625 26.8125 
Q 5.515625 40.234375 12.765625 48.109375 
Q 20.015625 56 32.328125 56 
Q 43.359375 56 49.78125 48.890625 
Q 56.203125 41.796875 56.203125 29.59375 
z
M 47.21875 32.234375 
Q 47.125 39.59375 43.09375 43.984375 
Q 39.0625 48.390625 32.421875 48.390625 
Q 24.90625 48.390625 20.390625 44.140625 
Q 15.875 39.890625 15.1875 32.171875 
z
" id="DejaVuSans-101"/>
      </defs>
      <use xlink:href="#DejaVuSans-84"/>
      <use x="57.958984" xlink:href="#DejaVuSans-105"/>
      <use x="85.742188" xlink:href="#DejaVuSans-109"/>
      <use x="183.154297" xlink:href="#DejaVuSans-101"/>
     </g>
    </g>
   </g>
   <g id="matplotlib.axis_2">
    <g id="ytick_1">
     <g id="line2d_7">
      <defs>
       <path d="M 0 0 
L -3.5 0 
" id="m614d0a5a08" style="stroke:#000000;stroke-width:0.8;"/>
      </defs>
      <g>
       <use style="stroke:#000000;stroke-width:0.8;" x="57.6" xlink:href="#m614d0a5a08" y="304.526417"/>
      </g>
     </g>
     <g id="text_8">
      <!-- −0.10 -->
      <g transform="translate(19.954687 308.325636)scale(0.1 -0.1)">
       <defs>
        <path d="M 10.59375 35.5 
L 73.1875 35.5 
L 73.1875 27.203125 
L 10.59375 27.203125 
z
" id="DejaVuSans-8722"/>
        <path d="M 10.6875 12.40625 
L 21 12.40625 
L 21 0 
L 10.6875 0 
z
" id="DejaVuSans-46"/>
       </defs>
       <use xlink:href="#DejaVuSans-8722"/>
       <use x="83.789062" xlink:href="#DejaVuSans-48"/>
       <use x="147.412109" xlink:href="#DejaVuSans-46"/>
       <use x="179.199219" xlink:href="#DejaVuSans-49"/>
       <use x="242.822266" xlink:href="#DejaVuSans-48"/>
      </g>
     </g>
    </g>
    <g id="ytick_2">
     <g id="line2d_8">
      <g>
       <use style="stroke:#000000;stroke-width:0.8;" x="57.6" xlink:href="#m614d0a5a08" y="246.642872"/>
      </g>
     </g>
     <g id="text_9">
      <!-- −0.05 -->
      <g transform="translate(19.954687 250.442091)scale(0.1 -0.1)">
       <defs>
        <path d="M 10.796875 72.90625 
L 49.515625 72.90625 
L 49.515625 64.59375 
L 19.828125 64.59375 
L 19.828125 46.734375 
Q 21.96875 47.46875 24.109375 47.828125 
Q 26.265625 48.1875 28.421875 48.1875 
Q 40.625 48.1875 47.75 41.5 
Q 54.890625 34.8125 54.890625 23.390625 
Q 54.890625 11.625 47.5625 5.09375 
Q 40.234375 -1.421875 26.90625 -1.421875 
Q 22.3125 -1.421875 17.546875 -0.640625 
Q 12.796875 0.140625 7.71875 1.703125 
L 7.71875 11.625 
Q 12.109375 9.234375 16.796875 8.0625 
Q 21.484375 6.890625 26.703125 6.890625 
Q 35.15625 6.890625 40.078125 11.328125 
Q 45.015625 15.765625 45.015625 23.390625 
Q 45.015625 31 40.078125 35.4375 
Q 35.15625 39.890625 26.703125 39.890625 
Q 22.75 39.890625 18.8125 39.015625 
Q 14.890625 38.140625 10.796875 36.28125 
z
" id="DejaVuSans-53"/>
       </defs>
       <use xlink:href="#DejaVuSans-8722"/>
       <use x="83.789062" xlink:href="#DejaVuSans-48"/>
       <use x="147.412109" xlink:href="#DejaVuSans-46"/>
       <use x="179.199219" xlink:href="#DejaVuSans-48"/>
       <use x="242.822266" xlink:href="#DejaVuSans-53"/>
      </g>
     </g>
    </g>
    <g id="ytick_3">
     <g id="line2d_9">
      <g>
       <use style="stroke:#000000;stroke-width:0.8;" x="57.6" xlink:href="#m614d0a5a08" y="188.759327"/>
      </g>
     </g>
     <g id="text_10">
      <!-- 0.00 -->
      <g transform="translate(28.334375 192.558546)scale(0.1 -0.1)">
       <use xlink:href="#DejaVuSans-48"/>
       <use x="63.623047" xlink:href="#DejaVuSans-46"/>
       <use x="95.410156" xlink:href="#DejaVuSans-48"/>
       <use x="159.033203" xlink:href="#DejaVuSans-48"/>
      </g>
     </g>
    </g>
    <g id="ytick_4">
     <g id="line2d_10">
      <g>
       <use style="stroke:#000000;stroke-width:0.8;" x="57.6" xlink:href="#m614d0a5a08" y="130.875783"/>
      </g>
     </g>
     <g id="text_11">
      <!-- 0.05 -->
      <g transform="translate(28.334375 134.675001)scale(0.1 -0.1)">
       <use xlink:href="#DejaVuSans-48"/>
       <use x="63.623047" xlink:href="#DejaVuSans-46"/>
       <use x="95.410156" xlink:href="#DejaVuSans-48"/>
       <use x="159.033203" xlink:href="#DejaVuSans-53"/>
      </g>
     </g>
    </g>
    <g id="ytick_5">
     <g id="line2d_11">
      <g>
       <use style="stroke:#000000;stroke-width:0.8;" x="57.6" xlink:href="#m614d0a5a08" y="72.992238"/>
      </g>
     </g>
     <g id="text_12">
      <!-- 0.10 -->
      <g transform="translate(28.334375 76.791456)scale(0.1 -0.1)">
       <use xlink:href="#DejaVuSans-48"/>
       <use x="63.623047" xlink:href="#DejaVuSans-46"/>
       <use x="95.410156" xlink:href="#DejaVuSans-49"/>
       <use x="159.033203" xlink:href="#DejaVuSans-48"/>
      </g>
     </g>
    </g>
    <g id="text_13">
     <!-- Error -->
     <g transform="translate(13.875 186.713156)rotate(-90)scale(0.1 -0.1)">
      <defs>
       <path d="M 9.8125 72.90625 
L 55.90625 72.90625 
L 55.90625 64.59375 
L 19.671875 64.59375 
L 19.671875 43.015625 
L 54.390625 43.015625 
L 54.390625 34.71875 
L 19.671875 34.71875 
L 19.671875 8.296875 
L 56.78125 8.296875 
L 56.78125 0 
L 9.8125 0 
z
" id="DejaVuSans-69"/>
       <path d="M 41.109375 46.296875 
Q 39.59375 47.171875 37.8125 47.578125 
Q 36.03125 48 33.890625 48 
Q 26.265625 48 22.1875 43.046875 
Q 18.109375 38.09375 18.109375 28.8125 
L 18.109375 0 
L 9.078125 0 
L 9.078125 54.6875 
L 18.109375 54.6875 
L 18.109375 46.1875 
Q 20.953125 51.171875 25.484375 53.578125 
Q 30.03125 56 36.53125 56 
Q 37.453125 56 38.578125 55.875 
Q 39.703125 55.765625 41.0625 55.515625 
z
" id="DejaVuSans-114"/>
       <path d="M 30.609375 48.390625 
Q 23.390625 48.390625 19.1875 42.75 
Q 14.984375 37.109375 14.984375 27.296875 
Q 14.984375 17.484375 19.15625 11.84375 
Q 23.34375 6.203125 30.609375 6.203125 
Q 37.796875 6.203125 41.984375 11.859375 
Q 46.1875 17.53125 46.1875 27.296875 
Q 46.1875 37.015625 41.984375 42.703125 
Q 37.796875 48.390625 30.609375 48.390625 
z
M 30.609375 56 
Q 42.328125 56 49.015625 48.375 
Q 55.71875 40.765625 55.71875 27.296875 
Q 55.71875 13.875 49.015625 6.21875 
Q 42.328125 -1.421875 30.609375 -1.421875 
Q 18.84375 -1.421875 12.171875 6.21875 
Q 5.515625 13.875 5.515625 27.296875 
Q 5.515625 40.765625 12.171875 48.375 
Q 18.84375 56 30.609375 56 
z
" id="DejaVuSans-111"/>
      </defs>
      <use xlink:href="#DejaVuSans-69"/>
      <use x="63.183594" xlink:href="#DejaVuSans-114"/>
      <use x="102.546875" xlink:href="#DejaVuSans-114"/>
      <use x="141.410156" xlink:href="#DejaVuSans-111"/>
      <use x="202.591797" xlink:href="#DejaVuSans-114"/>
     </g>
    </g>
   </g>
   <g id="line2d_12">
    <path clip-path="url(#pf25d724f9f)" d="M 73.832727 191.834917 
L 74.157382 191.737364 
L 74.482036 191.946508 
L 74.806691 191.737952 
L 75.131345 191.685649 
L 75.456 191.8922 
L 76.105309 191.69868 
L 76.429964 191.299731 
L 76.754618 191.380091 
L 77.079273 191.079031 
L 77.403927 190.933082 
L 77.728582 190.957331 
L 79.0272 190.438574 
L 79.351855 190.245471 
L 79.676509 190.185906 
L 80.001164 190.253298 
L 80.325818 190.149024 
L 80.650473 190.486635 
L 81.624436 190.65783 
L 81.949091 190.392207 
L 82.5984 190.503537 
L 82.923055 190.792123 
L 83.247709 190.697041 
L 83.572364 191.079025 
L 84.221673 191.008284 
L 84.546327 191.242716 
L 84.870982 191.204323 
L 85.195636 190.815059 
L 85.520291 190.983728 
L 86.494255 191.082245 
L 87.143564 191.730751 
L 87.792873 191.722751 
L 88.117527 191.670268 
L 88.442182 192.02553 
L 88.766836 192.134476 
L 89.091491 192.504604 
L 89.416145 192.196962 
L 89.7408 192.428235 
L 90.065455 192.314169 
L 90.390109 192.553231 
L 90.714764 192.440851 
L 91.039418 192.675211 
L 91.688727 192.299849 
L 92.013382 192.548159 
L 92.338036 192.150111 
L 92.662691 192.358739 
L 92.987345 192.134313 
L 93.312 192.057916 
L 93.636655 192.358008 
L 93.961309 192.051971 
L 94.285964 192.275235 
L 94.935273 191.80096 
L 95.584582 191.687408 
L 95.909236 191.369529 
L 96.558545 191.265953 
L 97.207855 190.640629 
L 97.857164 190.644963 
L 98.181818 190.231128 
L 98.831127 190.001128 
L 99.480436 189.330209 
L 100.129745 188.910985 
L 100.4544 188.883726 
L 100.779055 188.735842 
L 101.103709 188.885828 
L 101.428364 188.639525 
L 101.753018 188.743893 
L 102.077673 188.151875 
L 102.402327 188.423442 
L 102.726982 187.998966 
L 103.051636 187.898234 
L 103.376291 188.241997 
L 103.700945 188.039989 
L 104.0256 188.474683 
L 104.674909 188.515056 
L 104.999564 188.538216 
L 105.648873 188.010587 
L 106.298182 187.805497 
L 107.5968 185.928557 
L 107.921455 185.363711 
L 108.895418 184.651505 
L 109.544727 183.55215 
L 109.869382 183.461923 
L 110.518691 182.706617 
L 110.843345 182.654031 
L 111.168 182.235562 
L 111.492655 181.372398 
L 112.141964 180.20012 
L 112.791273 179.773224 
L 113.115927 179.433346 
L 113.440582 178.918078 
L 113.765236 179.070594 
L 114.089891 178.915801 
L 114.7392 179.030286 
L 116.037818 180.781354 
L 116.362473 181.488142 
L 116.687127 182.648831 
L 117.011782 183.178239 
L 117.336436 184.139186 
L 117.985745 186.543507 
L 118.635055 188.626599 
L 118.959709 189.40727 
L 119.933673 189.708465 
L 120.907636 189.016866 
L 121.232291 188.544477 
L 121.556945 188.431385 
L 121.8816 187.62497 
L 122.206255 187.60319 
L 122.530909 186.956945 
L 122.855564 186.833411 
L 123.829527 187.276847 
L 124.478836 187.760792 
L 125.128145 189.398539 
L 126.102109 191.7912 
L 126.751418 194.138219 
L 127.400727 195.759728 
L 127.725382 195.692399 
L 128.050036 194.99626 
L 128.699345 192.391677 
L 129.673309 187.637796 
L 130.647273 180.06671 
L 131.296582 173.381279 
L 131.945891 165.554218 
L 133.569164 142.138594 
L 134.218473 135.550381 
L 134.867782 131.634864 
L 135.192436 130.651719 
L 135.517091 130.798961 
L 135.841745 131.280044 
L 136.1664 133.005012 
L 136.815709 139.921647 
L 139.412945 174.410069 
L 141.036218 189.585306 
L 141.685527 193.54511 
L 142.010182 194.974782 
L 142.334836 195.586892 
L 142.659491 196.467619 
L 142.984145 196.84647 
L 143.3088 196.509728 
L 143.633455 195.419384 
L 144.282764 191.823029 
L 146.88 170.720578 
L 149.152582 148.792857 
L 149.477236 147.219412 
L 149.801891 146.566338 
L 150.126545 146.495562 
L 150.4512 147.193201 
L 150.775855 148.944332 
L 151.425164 155.142951 
L 153.048436 173.655516 
L 153.697745 179.00942 
L 154.347055 183.153046 
L 155.321018 189.494787 
L 155.645673 190.878605 
L 155.970327 191.580457 
L 156.294982 191.8821 
L 156.619636 191.861488 
L 156.944291 191.213506 
L 157.268945 190.283937 
L 158.242909 185.092176 
L 159.541527 177.5646 
L 160.190836 174.413832 
L 160.515491 172.917605 
L 161.814109 170.409043 
L 162.463418 169.733697 
L 162.788073 169.420986 
L 163.112727 169.343309 
L 163.762036 169.441725 
L 164.411345 170.666877 
L 165.060655 172.134533 
L 165.709964 174.94777 
L 166.359273 178.535877 
L 167.333236 184.524502 
L 167.657891 186.012569 
L 168.3072 191.048006 
L 168.956509 197.476944 
L 169.605818 206.084488 
L 171.8784 252.240313 
L 173.177018 283.726463 
L 173.826327 292.144659 
L 174.150982 294.282603 
L 174.475636 295.488 
L 174.800291 294.383475 
L 175.124945 292.01802 
L 175.774255 282.369302 
L 176.423564 268.156459 
L 178.046836 229.117736 
L 179.670109 201.98186 
L 179.994764 199.658841 
L 180.319418 198.795305 
L 180.968727 199.835745 
L 181.293382 200.412614 
L 181.618036 200.508426 
L 181.942691 199.84325 
L 182.267345 199.835269 
L 182.592 201.282802 
L 182.916655 204.86918 
L 183.565964 216.29928 
L 184.539927 234.137869 
L 185.189236 241.644947 
L 185.513891 241.871994 
L 185.838545 240.76109 
L 186.1632 237.555031 
L 186.812509 227.742677 
L 187.786473 213.258746 
L 188.435782 205.53026 
L 189.085091 201.679542 
L 189.409745 201.505284 
L 189.7344 201.523633 
L 190.059055 202.579554 
L 190.708364 206.742294 
L 191.357673 214.110686 
L 192.980945 239.326254 
L 194.279564 280.620825 
L 194.604218 286.920439 
L 194.928873 290.894109 
L 195.253527 291.731934 
L 195.578182 289.254276 
L 196.227491 278.36129 
L 196.8768 262.893976 
L 197.850764 238.306392 
L 198.500073 225.972757 
L 199.474036 210.728908 
L 200.123345 204.690403 
L 200.448 202.769515 
L 200.772655 202.29687 
L 201.097309 202.204402 
L 201.421964 202.841046 
L 201.746618 202.872866 
L 202.395927 203.632816 
L 202.720582 203.907808 
L 203.369891 203.014317 
L 204.668509 197.290514 
L 205.317818 194.763202 
L 206.291782 188.344245 
L 206.941091 182.053485 
L 208.564364 163.252519 
L 209.213673 158.733204 
L 209.538327 157.168231 
L 209.862982 156.204918 
L 210.187636 155.738964 
L 210.836945 154.542711 
L 211.1616 154.521661 
L 211.810909 154.955201 
L 212.135564 155.474278 
L 212.784873 157.347203 
L 213.434182 160.969329 
L 213.758836 162.783188 
L 214.7328 170.987029 
L 215.382109 178.510595 
L 215.706764 180.707751 
L 216.031418 181.611634 
L 216.356073 180.651107 
L 216.680727 178.488976 
L 217.005382 175.266262 
L 217.979345 159.992885 
L 218.953309 143.894654 
L 219.602618 136.685097 
L 220.576582 130.487577 
L 220.901236 130.712266 
L 221.225891 131.467302 
L 221.550545 133.03614 
L 222.199855 138.332846 
L 224.147782 164.203518 
L 224.797091 170.662861 
L 225.121745 172.355546 
L 225.4464 173.064463 
L 225.771055 173.028815 
L 226.095709 172.021481 
L 226.420364 170.279514 
L 229.0176 147.611402 
L 229.991564 139.837687 
L 230.316218 137.984439 
L 230.640873 137.068015 
L 230.965527 136.834939 
L 231.290182 138.128651 
L 231.614836 140.683334 
L 232.5888 150.761127 
L 233.238109 156.000912 
L 233.887418 159.156773 
L 234.212073 159.681816 
L 234.536727 159.962283 
L 234.861382 159.375829 
L 235.510691 156.944517 
L 236.809309 148.519572 
L 237.783273 142.045595 
L 238.432582 139.080427 
L 238.757236 139.212303 
L 239.081891 140.099702 
L 240.380509 148.88433 
L 240.705164 150.951039 
L 241.029818 152.036652 
L 241.354473 152.446983 
L 241.679127 152.021268 
L 242.003782 150.887667 
L 242.328436 149.15858 
L 243.627055 138.41846 
L 244.276364 133.158124 
L 245.574982 126.269964 
L 246.8736 121.109379 
L 247.198255 120.86809 
L 248.172218 121.663765 
L 248.821527 120.600036 
L 249.146182 120.817937 
L 249.470836 120.309269 
L 249.795491 121.408783 
L 250.120145 121.190255 
L 250.769455 122.348202 
L 251.094109 121.785868 
L 252.068073 120.935251 
L 252.392727 120.019296 
L 252.717382 119.596774 
L 253.042036 119.513127 
L 253.366691 119.276299 
L 254.016 119.130818 
L 255.314618 118.100196 
L 255.639273 118.437139 
L 256.288582 118.696805 
L 256.937891 119.255375 
L 257.262545 119.116315 
L 257.5872 118.77991 
L 258.561164 118.594932 
L 258.885818 118.830644 
L 259.210473 119.908021 
L 259.535127 120.303896 
L 260.509091 120.598411 
L 261.483055 121.696189 
L 262.132364 123.194068 
L 262.457018 123.737199 
L 262.781673 123.994415 
L 263.106327 123.893424 
L 263.430982 123.130479 
L 263.755636 122.672295 
L 264.080291 121.785941 
L 264.7296 120.671639 
L 265.378909 119.14909 
L 265.703564 117.500817 
L 266.352873 116.446995 
L 266.677527 115.778187 
L 267.002182 115.720802 
L 267.651491 115.211628 
L 267.976145 115.420185 
L 268.3008 115.387029 
L 269.924073 116.756147 
L 270.573382 116.954839 
L 270.898036 116.404788 
L 271.222691 116.176568 
L 271.547345 115.690886 
L 271.872 116.518974 
L 272.196655 116.397836 
L 272.521309 116.80118 
L 272.845964 116.488045 
L 273.170618 116.865677 
L 273.495273 116.622269 
L 273.819927 117.191198 
L 274.144582 116.491325 
L 274.469236 116.229324 
L 274.793891 115.685329 
L 275.118545 116.363345 
L 275.4432 115.836932 
L 275.767855 116.261174 
L 276.092509 116.012211 
L 276.741818 116.769508 
L 279.0144 125.750248 
L 279.663709 128.630639 
L 280.637673 133.804374 
L 281.611636 139.737303 
L 284.858182 155.680237 
L 285.832145 160.31158 
L 287.455418 169.086951 
L 288.429382 174.397042 
L 289.078691 178.917056 
L 289.728 181.860628 
L 290.052655 182.943045 
L 291.026618 184.27067 
L 291.351273 184.87559 
L 291.675927 185.216107 
L 292.000582 186.060857 
L 292.325236 186.420842 
L 292.974545 187.914977 
L 293.948509 190.166368 
L 294.273164 191.235672 
L 294.597818 191.674992 
L 296.221091 196.103883 
L 296.545745 196.441159 
L 296.8704 197.148859 
L 297.519709 197.508362 
L 298.169018 198.396374 
L 298.493673 198.673502 
L 299.142982 198.765996 
L 299.467636 199.258168 
L 299.792291 199.235275 
L 300.4416 199.83577 
L 300.766255 199.797654 
L 301.090909 199.523215 
L 301.740218 198.625565 
L 302.064873 198.729187 
L 302.389527 198.595192 
L 302.714182 198.763841 
L 303.363491 198.315714 
L 303.688145 197.863051 
L 304.337455 196.154057 
L 304.986764 195.104817 
L 305.960727 196.423022 
L 306.610036 196.695584 
L 306.934691 196.841658 
L 307.259345 197.228234 
L 307.584 197.204161 
L 307.908655 197.658338 
L 308.233309 198.312808 
L 308.882618 198.751145 
L 309.207273 199.117883 
L 310.181236 198.836345 
L 310.505891 198.867603 
L 310.830545 198.622595 
L 311.1552 198.65555 
L 311.479855 198.566915 
L 311.804509 198.19405 
L 312.453818 198.045384 
L 312.778473 198.114547 
L 313.103127 198.360019 
L 313.427782 198.812913 
L 313.752436 199.611113 
L 314.077091 199.940664 
L 314.401745 200.591053 
L 315.051055 201.245803 
L 315.375709 202.145088 
L 315.700364 202.628916 
L 316.998982 206.597701 
L 317.323636 207.986664 
L 318.946909 220.518384 
L 320.570182 233.380829 
L 321.8688 241.949122 
L 322.518109 247.370165 
L 323.816727 261.042807 
L 324.790691 267.790148 
L 325.115345 268.945215 
L 325.764655 273.359993 
L 326.089309 275.637428 
L 326.738618 278.246965 
L 327.387927 279.75203 
L 327.712582 279.088964 
L 328.037236 279.201259 
L 328.686545 278.439797 
L 329.0112 278.67845 
L 329.335855 277.894903 
L 329.985164 274.786404 
L 330.309818 272.991017 
L 330.959127 267.429487 
L 332.907055 244.27837 
L 334.205673 231.185961 
L 334.854982 222.335321 
L 335.828945 207.947519 
L 336.478255 202.003426 
L 336.802909 199.927577 
L 337.127564 198.81471 
L 337.776873 194.884187 
L 338.101527 192.07163 
L 339.075491 179.576679 
L 340.698764 156.042848 
L 341.997382 143.170132 
L 342.971345 135.331142 
L 343.620655 133.025805 
L 344.594618 130.245857 
L 344.919273 128.887327 
L 345.243927 128.248354 
L 345.568582 128.049894 
L 345.893236 127.502044 
L 346.542545 127.264272 
L 347.191855 128.787767 
L 348.165818 132.84676 
L 348.490473 133.645899 
L 348.815127 133.572377 
L 349.139782 133.871787 
L 349.789091 136.144925 
L 350.113745 138.603588 
L 350.763055 146.15971 
L 352.710982 174.605953 
L 353.684945 183.964326 
L 354.334255 188.339072 
L 354.983564 191.584951 
L 355.308218 192.699431 
L 357.256145 201.82063 
L 357.5808 202.654553 
L 357.905455 203.051512 
L 358.554764 203.028975 
L 358.879418 203.045453 
L 359.204073 203.447159 
L 359.528727 203.304882 
L 359.853382 202.908839 
L 360.502691 201.447052 
L 361.152 199.711642 
L 361.476655 199.357704 
L 362.125964 198.473551 
L 362.450618 197.93771 
L 362.775273 197.055669 
L 363.749236 196.171921 
L 364.073891 196.166345 
L 364.398545 195.952898 
L 364.7232 195.946225 
L 365.372509 195.404224 
L 366.021818 196.100046 
L 366.346473 196.142597 
L 366.671127 196.364809 
L 367.320436 196.114223 
L 367.969745 196.673297 
L 368.943709 198.612335 
L 369.268364 198.840838 
L 369.593018 199.487111 
L 369.917673 199.708305 
L 370.242327 200.071719 
L 370.566982 200.208703 
L 371.216291 201.059714 
L 371.8656 201.689105 
L 372.190255 202.236512 
L 372.839564 205.720768 
L 373.488873 212.583573 
L 374.138182 221.761113 
L 375.112145 237.894615 
L 375.761455 247.390925 
L 376.086109 250.406158 
L 376.410764 251.757787 
L 376.735418 251.053311 
L 377.060073 248.5837 
L 377.709382 239.868955 
L 378.683345 220.772433 
L 379.657309 201.908958 
L 380.306618 192.410549 
L 380.631273 188.843684 
L 380.955927 186.634789 
L 381.280582 185.670025 
L 381.605236 185.788784 
L 381.929891 187.379347 
L 382.5792 192.703237 
L 383.228509 199.928483 
L 384.202473 212.536921 
L 384.527127 215.394036 
L 384.851782 216.22146 
L 385.176436 215.743579 
L 385.825745 210.563878 
L 386.475055 203.882251 
L 387.124364 196.777975 
L 388.422982 184.775091 
L 388.747636 182.425937 
L 389.396945 179.685906 
L 390.695564 175.962692 
L 391.020218 175.311558 
L 391.344873 174.364608 
L 391.669527 172.79943 
L 391.994182 170.366596 
L 392.643491 162.924732 
L 393.2928 152.388259 
L 394.266764 133.509173 
L 395.565382 114.187485 
L 396.214691 98.02002 
L 396.864 81.130762 
L 397.188655 69.362009 
L 397.513309 66.679877 
L 398.162618 53.568 
L 398.162618 53.568 
" style="fill:none;stroke:#1f77b4;stroke-linecap:square;stroke-width:1.5;"/>
   </g>
   <g id="line2d_13">
    <path clip-path="url(#pf25d724f9f)" d="M 73.832727 188.759327 
L 398.487273 188.759327 
" style="fill:none;stroke:#ff0000;stroke-dasharray:5.55,2.4;stroke-dashoffset:0;stroke-width:1.5;"/>
   </g>
   <g id="patch_3">
    <path d="M 57.6 307.584 
L 57.6 41.472 
" style="fill:none;stroke:#000000;stroke-linecap:square;stroke-linejoin:miter;stroke-width:0.8;"/>
   </g>
   <g id="patch_4">
    <path d="M 414.72 307.584 
L 414.72 41.472 
" style="fill:none;stroke:#000000;stroke-linecap:square;stroke-linejoin:miter;stroke-width:0.8;"/>
   </g>
   <g id="patch_5">
    <path d="M 57.6 307.584 
L 414.72 307.584 
" style="fill:none;stroke:#000000;stroke-linecap:square;stroke-linejoin:miter;stroke-width:0.8;"/>
   </g>
   <g id="patch_6">
    <path d="M 57.6 41.472 
L 414.72 41.472 
" style="fill:none;stroke:#000000;stroke-linecap:square;stroke-linejoin:miter;stroke-width:0.8;"/>
   </g>
  </g>
 </g>
 <defs>
  <clipPath id="pf25d724f9f">
   <rect height="266.112" width="357.12" x="57.6" y="41.472"/>
  </clipPath>
 </defs>
</svg>
