<?xml version="1.0" encoding="utf-8" standalone="no"?>
<!DOCTYPE svg PUBLIC "-//W3C//DTD SVG 1.1//EN"
  "http://www.w3.org/Graphics/SVG/1.1/DTD/svg11.dtd">
<!-- Created with matplotlib (https://matplotlib.org/) -->
<svg height="473.04pt" version="1.1" viewBox="0 0 576 473.04" width="576pt" xmlns="http://www.w3.org/2000/svg" xmlns:xlink="http://www.w3.org/1999/xlink">
 <metadata>
  <rdf:RDF xmlns:cc="http://creativecommons.org/ns#" xmlns:dc="http://purl.org/dc/elements/1.1/" xmlns:rdf="http://www.w3.org/1999/02/22-rdf-syntax-ns#">
   <cc:Work>
    <dc:type rdf:resource="http://purl.org/dc/dcmitype/StillImage"/>
    <dc:date>2023-12-25T09:03:58.835927</dc:date>
    <dc:format>image/svg+xml</dc:format>
    <dc:creator>
     <cc:Agent>
      <dc:title>Matplotlib v3.3.4, https://matplotlib.org/</dc:title>
     </cc:Agent>
    </dc:creator>
   </cc:Work>
  </rdf:RDF>
 </metadata>
 <defs>
  <style type="text/css">*{stroke-linecap:butt;stroke-linejoin:round;}</style>
 </defs>
 <g id="figure_1">
  <g id="patch_1">
   <path d="M 0 473.04 
L 576 473.04 
L 576 0 
L 0 0 
z
" style="fill:#ffffff;"/>
  </g>
  <g id="axes_1">
   <g id="patch_2">
    <path d="M 72 222.3288 
L 518.4 222.3288 
L 518.4 56.7648 
L 72 56.7648 
z
" style="fill:#ffffff;"/>
   </g>
   <g id="matplotlib.axis_1">
    <g id="xtick_1">
     <g id="line2d_1">
      <defs>
       <path d="M 0 0 
L 0 3.5 
" id="m32c266a6ea" style="stroke:#000000;stroke-width:0.8;"/>
      </defs>
      <g>
       <use style="stroke:#000000;stroke-width:0.8;" x="92.290909" xlink:href="#m32c266a6ea" y="222.3288"/>
      </g>
     </g>
     <g id="text_1">
      <!-- 0 -->
      <g transform="translate(89.109659 236.927237)scale(0.1 -0.1)">
       <defs>
        <path d="M 31.78125 66.40625 
Q 24.171875 66.40625 20.328125 58.90625 
Q 16.5 51.421875 16.5 36.375 
Q 16.5 21.390625 20.328125 13.890625 
Q 24.171875 6.390625 31.78125 6.390625 
Q 39.453125 6.390625 43.28125 13.890625 
Q 47.125 21.390625 47.125 36.375 
Q 47.125 51.421875 43.28125 58.90625 
Q 39.453125 66.40625 31.78125 66.40625 
z
M 31.78125 74.21875 
Q 44.046875 74.21875 50.515625 64.515625 
Q 56.984375 54.828125 56.984375 36.375 
Q 56.984375 17.96875 50.515625 8.265625 
Q 44.046875 -1.421875 31.78125 -1.421875 
Q 19.53125 -1.421875 13.0625 8.265625 
Q 6.59375 17.96875 6.59375 36.375 
Q 6.59375 54.828125 13.0625 64.515625 
Q 19.53125 74.21875 31.78125 74.21875 
z
" id="DejaVuSans-48"/>
       </defs>
       <use xlink:href="#DejaVuSans-48"/>
      </g>
     </g>
    </g>
    <g id="xtick_2">
     <g id="line2d_2">
      <g>
       <use style="stroke:#000000;stroke-width:0.8;" x="173.454545" xlink:href="#m32c266a6ea" y="222.3288"/>
      </g>
     </g>
     <g id="text_2">
      <!-- 100 -->
      <g transform="translate(163.910795 236.927237)scale(0.1 -0.1)">
       <defs>
        <path d="M 12.40625 8.296875 
L 28.515625 8.296875 
L 28.515625 63.921875 
L 10.984375 60.40625 
L 10.984375 69.390625 
L 28.421875 72.90625 
L 38.28125 72.90625 
L 38.28125 8.296875 
L 54.390625 8.296875 
L 54.390625 0 
L 12.40625 0 
z
" id="DejaVuSans-49"/>
       </defs>
       <use xlink:href="#DejaVuSans-49"/>
       <use x="63.623047" xlink:href="#DejaVuSans-48"/>
       <use x="127.246094" xlink:href="#DejaVuSans-48"/>
      </g>
     </g>
    </g>
    <g id="xtick_3">
     <g id="line2d_3">
      <g>
       <use style="stroke:#000000;stroke-width:0.8;" x="254.618182" xlink:href="#m32c266a6ea" y="222.3288"/>
      </g>
     </g>
     <g id="text_3">
      <!-- 200 -->
      <g transform="translate(245.074432 236.927237)scale(0.1 -0.1)">
       <defs>
        <path d="M 19.1875 8.296875 
L 53.609375 8.296875 
L 53.609375 0 
L 7.328125 0 
L 7.328125 8.296875 
Q 12.9375 14.109375 22.625 23.890625 
Q 32.328125 33.6875 34.8125 36.53125 
Q 39.546875 41.84375 41.421875 45.53125 
Q 43.3125 49.21875 43.3125 52.78125 
Q 43.3125 58.59375 39.234375 62.25 
Q 35.15625 65.921875 28.609375 65.921875 
Q 23.96875 65.921875 18.8125 64.3125 
Q 13.671875 62.703125 7.8125 59.421875 
L 7.8125 69.390625 
Q 13.765625 71.78125 18.9375 73 
Q 24.125 74.21875 28.421875 74.21875 
Q 39.75 74.21875 46.484375 68.546875 
Q 53.21875 62.890625 53.21875 53.421875 
Q 53.21875 48.921875 51.53125 44.890625 
Q 49.859375 40.875 45.40625 35.40625 
Q 44.1875 33.984375 37.640625 27.21875 
Q 31.109375 20.453125 19.1875 8.296875 
z
" id="DejaVuSans-50"/>
       </defs>
       <use xlink:href="#DejaVuSans-50"/>
       <use x="63.623047" xlink:href="#DejaVuSans-48"/>
       <use x="127.246094" xlink:href="#DejaVuSans-48"/>
      </g>
     </g>
    </g>
    <g id="xtick_4">
     <g id="line2d_4">
      <g>
       <use style="stroke:#000000;stroke-width:0.8;" x="335.781818" xlink:href="#m32c266a6ea" y="222.3288"/>
      </g>
     </g>
     <g id="text_4">
      <!-- 300 -->
      <g transform="translate(326.238068 236.927237)scale(0.1 -0.1)">
       <defs>
        <path d="M 40.578125 39.3125 
Q 47.65625 37.796875 51.625 33 
Q 55.609375 28.21875 55.609375 21.1875 
Q 55.609375 10.40625 48.1875 4.484375 
Q 40.765625 -1.421875 27.09375 -1.421875 
Q 22.515625 -1.421875 17.65625 -0.515625 
Q 12.796875 0.390625 7.625 2.203125 
L 7.625 11.71875 
Q 11.71875 9.328125 16.59375 8.109375 
Q 21.484375 6.890625 26.8125 6.890625 
Q 36.078125 6.890625 40.9375 10.546875 
Q 45.796875 14.203125 45.796875 21.1875 
Q 45.796875 27.640625 41.28125 31.265625 
Q 36.765625 34.90625 28.71875 34.90625 
L 20.21875 34.90625 
L 20.21875 43.015625 
L 29.109375 43.015625 
Q 36.375 43.015625 40.234375 45.921875 
Q 44.09375 48.828125 44.09375 54.296875 
Q 44.09375 59.90625 40.109375 62.90625 
Q 36.140625 65.921875 28.71875 65.921875 
Q 24.65625 65.921875 20.015625 65.03125 
Q 15.375 64.15625 9.8125 62.3125 
L 9.8125 71.09375 
Q 15.4375 72.65625 20.34375 73.4375 
Q 25.25 74.21875 29.59375 74.21875 
Q 40.828125 74.21875 47.359375 69.109375 
Q 53.90625 64.015625 53.90625 55.328125 
Q 53.90625 49.265625 50.4375 45.09375 
Q 46.96875 40.921875 40.578125 39.3125 
z
" id="DejaVuSans-51"/>
       </defs>
       <use xlink:href="#DejaVuSans-51"/>
       <use x="63.623047" xlink:href="#DejaVuSans-48"/>
       <use x="127.246094" xlink:href="#DejaVuSans-48"/>
      </g>
     </g>
    </g>
    <g id="xtick_5">
     <g id="line2d_5">
      <g>
       <use style="stroke:#000000;stroke-width:0.8;" x="416.945455" xlink:href="#m32c266a6ea" y="222.3288"/>
      </g>
     </g>
     <g id="text_5">
      <!-- 400 -->
      <g transform="translate(407.401705 236.927237)scale(0.1 -0.1)">
       <defs>
        <path d="M 37.796875 64.3125 
L 12.890625 25.390625 
L 37.796875 25.390625 
z
M 35.203125 72.90625 
L 47.609375 72.90625 
L 47.609375 25.390625 
L 58.015625 25.390625 
L 58.015625 17.1875 
L 47.609375 17.1875 
L 47.609375 0 
L 37.796875 0 
L 37.796875 17.1875 
L 4.890625 17.1875 
L 4.890625 26.703125 
z
" id="DejaVuSans-52"/>
       </defs>
       <use xlink:href="#DejaVuSans-52"/>
       <use x="63.623047" xlink:href="#DejaVuSans-48"/>
       <use x="127.246094" xlink:href="#DejaVuSans-48"/>
      </g>
     </g>
    </g>
    <g id="xtick_6">
     <g id="line2d_6">
      <g>
       <use style="stroke:#000000;stroke-width:0.8;" x="498.109091" xlink:href="#m32c266a6ea" y="222.3288"/>
      </g>
     </g>
     <g id="text_6">
      <!-- 500 -->
      <g transform="translate(488.565341 236.927237)scale(0.1 -0.1)">
       <defs>
        <path d="M 10.796875 72.90625 
L 49.515625 72.90625 
L 49.515625 64.59375 
L 19.828125 64.59375 
L 19.828125 46.734375 
Q 21.96875 47.46875 24.109375 47.828125 
Q 26.265625 48.1875 28.421875 48.1875 
Q 40.625 48.1875 47.75 41.5 
Q 54.890625 34.8125 54.890625 23.390625 
Q 54.890625 11.625 47.5625 5.09375 
Q 40.234375 -1.421875 26.90625 -1.421875 
Q 22.3125 -1.421875 17.546875 -0.640625 
Q 12.796875 0.140625 7.71875 1.703125 
L 7.71875 11.625 
Q 12.109375 9.234375 16.796875 8.0625 
Q 21.484375 6.890625 26.703125 6.890625 
Q 35.15625 6.890625 40.078125 11.328125 
Q 45.015625 15.765625 45.015625 23.390625 
Q 45.015625 31 40.078125 35.4375 
Q 35.15625 39.890625 26.703125 39.890625 
Q 22.75 39.890625 18.8125 39.015625 
Q 14.890625 38.140625 10.796875 36.28125 
z
" id="DejaVuSans-53"/>
       </defs>
       <use xlink:href="#DejaVuSans-53"/>
       <use x="63.623047" xlink:href="#DejaVuSans-48"/>
       <use x="127.246094" xlink:href="#DejaVuSans-48"/>
      </g>
     </g>
    </g>
    <g id="text_7">
     <!-- Time -->
     <g transform="translate(282.966406 250.605362)scale(0.1 -0.1)">
      <defs>
       <path d="M -0.296875 72.90625 
L 61.375 72.90625 
L 61.375 64.59375 
L 35.5 64.59375 
L 35.5 0 
L 25.59375 0 
L 25.59375 64.59375 
L -0.296875 64.59375 
z
" id="DejaVuSans-84"/>
       <path d="M 9.421875 54.6875 
L 18.40625 54.6875 
L 18.40625 0 
L 9.421875 0 
z
M 9.421875 75.984375 
L 18.40625 75.984375 
L 18.40625 64.59375 
L 9.421875 64.59375 
z
" id="DejaVuSans-105"/>
       <path d="M 52 44.1875 
Q 55.375 50.25 60.0625 53.125 
Q 64.75 56 71.09375 56 
Q 79.640625 56 84.28125 50.015625 
Q 88.921875 44.046875 88.921875 33.015625 
L 88.921875 0 
L 79.890625 0 
L 79.890625 32.71875 
Q 79.890625 40.578125 77.09375 44.375 
Q 74.3125 48.1875 68.609375 48.1875 
Q 61.625 48.1875 57.5625 43.546875 
Q 53.515625 38.921875 53.515625 30.90625 
L 53.515625 0 
L 44.484375 0 
L 44.484375 32.71875 
Q 44.484375 40.625 41.703125 44.40625 
Q 38.921875 48.1875 33.109375 48.1875 
Q 26.21875 48.1875 22.15625 43.53125 
Q 18.109375 38.875 18.109375 30.90625 
L 18.109375 0 
L 9.078125 0 
L 9.078125 54.6875 
L 18.109375 54.6875 
L 18.109375 46.1875 
Q 21.1875 51.21875 25.484375 53.609375 
Q 29.78125 56 35.6875 56 
Q 41.65625 56 45.828125 52.96875 
Q 50 49.953125 52 44.1875 
z
" id="DejaVuSans-109"/>
       <path d="M 56.203125 29.59375 
L 56.203125 25.203125 
L 14.890625 25.203125 
Q 15.484375 15.921875 20.484375 11.0625 
Q 25.484375 6.203125 34.421875 6.203125 
Q 39.59375 6.203125 44.453125 7.46875 
Q 49.3125 8.734375 54.109375 11.28125 
L 54.109375 2.78125 
Q 49.265625 0.734375 44.1875 -0.34375 
Q 39.109375 -1.421875 33.890625 -1.421875 
Q 20.796875 -1.421875 13.15625 6.1875 
Q 5.515625 13.8125 5.515625 26.8125 
Q 5.515625 40.234375 12.765625 48.109375 
Q 20.015625 56 32.328125 56 
Q 43.359375 56 49.78125 48.890625 
Q 56.203125 41.796875 56.203125 29.59375 
z
M 47.21875 32.234375 
Q 47.125 39.59375 43.09375 43.984375 
Q 39.0625 48.390625 32.421875 48.390625 
Q 24.90625 48.390625 20.390625 44.140625 
Q 15.875 39.890625 15.1875 32.171875 
z
" id="DejaVuSans-101"/>
      </defs>
      <use xlink:href="#DejaVuSans-84"/>
      <use x="57.958984" xlink:href="#DejaVuSans-105"/>
      <use x="85.742188" xlink:href="#DejaVuSans-109"/>
      <use x="183.154297" xlink:href="#DejaVuSans-101"/>
     </g>
    </g>
   </g>
   <g id="matplotlib.axis_2">
    <g id="ytick_1">
     <g id="line2d_7">
      <defs>
       <path d="M 0 0 
L -3.5 0 
" id="m25bc5463f2" style="stroke:#000000;stroke-width:0.8;"/>
      </defs>
      <g>
       <use style="stroke:#000000;stroke-width:0.8;" x="72" xlink:href="#m25bc5463f2" y="216.495557"/>
      </g>
     </g>
     <g id="text_8">
      <!-- −30 -->
      <g transform="translate(43.895313 220.294776)scale(0.1 -0.1)">
       <defs>
        <path d="M 10.59375 35.5 
L 73.1875 35.5 
L 73.1875 27.203125 
L 10.59375 27.203125 
z
" id="DejaVuSans-8722"/>
       </defs>
       <use xlink:href="#DejaVuSans-8722"/>
       <use x="83.789062" xlink:href="#DejaVuSans-51"/>
       <use x="147.412109" xlink:href="#DejaVuSans-48"/>
      </g>
     </g>
    </g>
    <g id="ytick_2">
     <g id="line2d_8">
      <g>
       <use style="stroke:#000000;stroke-width:0.8;" x="72" xlink:href="#m25bc5463f2" y="189.569627"/>
      </g>
     </g>
     <g id="text_9">
      <!-- −20 -->
      <g transform="translate(43.895313 193.368845)scale(0.1 -0.1)">
       <use xlink:href="#DejaVuSans-8722"/>
       <use x="83.789062" xlink:href="#DejaVuSans-50"/>
       <use x="147.412109" xlink:href="#DejaVuSans-48"/>
      </g>
     </g>
    </g>
    <g id="ytick_3">
     <g id="line2d_9">
      <g>
       <use style="stroke:#000000;stroke-width:0.8;" x="72" xlink:href="#m25bc5463f2" y="162.643696"/>
      </g>
     </g>
     <g id="text_10">
      <!-- −10 -->
      <g transform="translate(43.895313 166.442915)scale(0.1 -0.1)">
       <use xlink:href="#DejaVuSans-8722"/>
       <use x="83.789062" xlink:href="#DejaVuSans-49"/>
       <use x="147.412109" xlink:href="#DejaVuSans-48"/>
      </g>
     </g>
    </g>
    <g id="ytick_4">
     <g id="line2d_10">
      <g>
       <use style="stroke:#000000;stroke-width:0.8;" x="72" xlink:href="#m25bc5463f2" y="135.717766"/>
      </g>
     </g>
     <g id="text_11">
      <!-- 0 -->
      <g transform="translate(58.6375 139.516985)scale(0.1 -0.1)">
       <use xlink:href="#DejaVuSans-48"/>
      </g>
     </g>
    </g>
    <g id="ytick_5">
     <g id="line2d_11">
      <g>
       <use style="stroke:#000000;stroke-width:0.8;" x="72" xlink:href="#m25bc5463f2" y="108.791836"/>
      </g>
     </g>
     <g id="text_12">
      <!-- 10 -->
      <g transform="translate(52.275 112.591054)scale(0.1 -0.1)">
       <use xlink:href="#DejaVuSans-49"/>
       <use x="63.623047" xlink:href="#DejaVuSans-48"/>
      </g>
     </g>
    </g>
    <g id="ytick_6">
     <g id="line2d_12">
      <g>
       <use style="stroke:#000000;stroke-width:0.8;" x="72" xlink:href="#m25bc5463f2" y="81.865905"/>
      </g>
     </g>
     <g id="text_13">
      <!-- 20 -->
      <g transform="translate(52.275 85.665124)scale(0.1 -0.1)">
       <use xlink:href="#DejaVuSans-50"/>
       <use x="63.623047" xlink:href="#DejaVuSans-48"/>
      </g>
     </g>
    </g>
    <g id="text_14">
     <!-- Phase Estimate [degrees] -->
     <g transform="translate(37.815625 203.76555)rotate(-90)scale(0.1 -0.1)">
      <defs>
       <path d="M 19.671875 64.796875 
L 19.671875 37.40625 
L 32.078125 37.40625 
Q 38.96875 37.40625 42.71875 40.96875 
Q 46.484375 44.53125 46.484375 51.125 
Q 46.484375 57.671875 42.71875 61.234375 
Q 38.96875 64.796875 32.078125 64.796875 
z
M 9.8125 72.90625 
L 32.078125 72.90625 
Q 44.34375 72.90625 50.609375 67.359375 
Q 56.890625 61.8125 56.890625 51.125 
Q 56.890625 40.328125 50.609375 34.8125 
Q 44.34375 29.296875 32.078125 29.296875 
L 19.671875 29.296875 
L 19.671875 0 
L 9.8125 0 
z
" id="DejaVuSans-80"/>
       <path d="M 54.890625 33.015625 
L 54.890625 0 
L 45.90625 0 
L 45.90625 32.71875 
Q 45.90625 40.484375 42.875 44.328125 
Q 39.84375 48.1875 33.796875 48.1875 
Q 26.515625 48.1875 22.3125 43.546875 
Q 18.109375 38.921875 18.109375 30.90625 
L 18.109375 0 
L 9.078125 0 
L 9.078125 75.984375 
L 18.109375 75.984375 
L 18.109375 46.1875 
Q 21.34375 51.125 25.703125 53.5625 
Q 30.078125 56 35.796875 56 
Q 45.21875 56 50.046875 50.171875 
Q 54.890625 44.34375 54.890625 33.015625 
z
" id="DejaVuSans-104"/>
       <path d="M 34.28125 27.484375 
Q 23.390625 27.484375 19.1875 25 
Q 14.984375 22.515625 14.984375 16.5 
Q 14.984375 11.71875 18.140625 8.90625 
Q 21.296875 6.109375 26.703125 6.109375 
Q 34.1875 6.109375 38.703125 11.40625 
Q 43.21875 16.703125 43.21875 25.484375 
L 43.21875 27.484375 
z
M 52.203125 31.203125 
L 52.203125 0 
L 43.21875 0 
L 43.21875 8.296875 
Q 40.140625 3.328125 35.546875 0.953125 
Q 30.953125 -1.421875 24.3125 -1.421875 
Q 15.921875 -1.421875 10.953125 3.296875 
Q 6 8.015625 6 15.921875 
Q 6 25.140625 12.171875 29.828125 
Q 18.359375 34.515625 30.609375 34.515625 
L 43.21875 34.515625 
L 43.21875 35.40625 
Q 43.21875 41.609375 39.140625 45 
Q 35.0625 48.390625 27.6875 48.390625 
Q 23 48.390625 18.546875 47.265625 
Q 14.109375 46.140625 10.015625 43.890625 
L 10.015625 52.203125 
Q 14.9375 54.109375 19.578125 55.046875 
Q 24.21875 56 28.609375 56 
Q 40.484375 56 46.34375 49.84375 
Q 52.203125 43.703125 52.203125 31.203125 
z
" id="DejaVuSans-97"/>
       <path d="M 44.28125 53.078125 
L 44.28125 44.578125 
Q 40.484375 46.53125 36.375 47.5 
Q 32.28125 48.484375 27.875 48.484375 
Q 21.1875 48.484375 17.84375 46.4375 
Q 14.5 44.390625 14.5 40.28125 
Q 14.5 37.15625 16.890625 35.375 
Q 19.28125 33.59375 26.515625 31.984375 
L 29.59375 31.296875 
Q 39.15625 29.25 43.1875 25.515625 
Q 47.21875 21.78125 47.21875 15.09375 
Q 47.21875 7.46875 41.1875 3.015625 
Q 35.15625 -1.421875 24.609375 -1.421875 
Q 20.21875 -1.421875 15.453125 -0.5625 
Q 10.6875 0.296875 5.421875 2 
L 5.421875 11.28125 
Q 10.40625 8.6875 15.234375 7.390625 
Q 20.0625 6.109375 24.8125 6.109375 
Q 31.15625 6.109375 34.5625 8.28125 
Q 37.984375 10.453125 37.984375 14.40625 
Q 37.984375 18.0625 35.515625 20.015625 
Q 33.0625 21.96875 24.703125 23.78125 
L 21.578125 24.515625 
Q 13.234375 26.265625 9.515625 29.90625 
Q 5.8125 33.546875 5.8125 39.890625 
Q 5.8125 47.609375 11.28125 51.796875 
Q 16.75 56 26.8125 56 
Q 31.78125 56 36.171875 55.265625 
Q 40.578125 54.546875 44.28125 53.078125 
z
" id="DejaVuSans-115"/>
       <path id="DejaVuSans-32"/>
       <path d="M 9.8125 72.90625 
L 55.90625 72.90625 
L 55.90625 64.59375 
L 19.671875 64.59375 
L 19.671875 43.015625 
L 54.390625 43.015625 
L 54.390625 34.71875 
L 19.671875 34.71875 
L 19.671875 8.296875 
L 56.78125 8.296875 
L 56.78125 0 
L 9.8125 0 
z
" id="DejaVuSans-69"/>
       <path d="M 18.3125 70.21875 
L 18.3125 54.6875 
L 36.8125 54.6875 
L 36.8125 47.703125 
L 18.3125 47.703125 
L 18.3125 18.015625 
Q 18.3125 11.328125 20.140625 9.421875 
Q 21.96875 7.515625 27.59375 7.515625 
L 36.8125 7.515625 
L 36.8125 0 
L 27.59375 0 
Q 17.1875 0 13.234375 3.875 
Q 9.28125 7.765625 9.28125 18.015625 
L 9.28125 47.703125 
L 2.6875 47.703125 
L 2.6875 54.6875 
L 9.28125 54.6875 
L 9.28125 70.21875 
z
" id="DejaVuSans-116"/>
       <path d="M 8.59375 75.984375 
L 29.296875 75.984375 
L 29.296875 69 
L 17.578125 69 
L 17.578125 -6.203125 
L 29.296875 -6.203125 
L 29.296875 -13.1875 
L 8.59375 -13.1875 
z
" id="DejaVuSans-91"/>
       <path d="M 45.40625 46.390625 
L 45.40625 75.984375 
L 54.390625 75.984375 
L 54.390625 0 
L 45.40625 0 
L 45.40625 8.203125 
Q 42.578125 3.328125 38.25 0.953125 
Q 33.9375 -1.421875 27.875 -1.421875 
Q 17.96875 -1.421875 11.734375 6.484375 
Q 5.515625 14.40625 5.515625 27.296875 
Q 5.515625 40.1875 11.734375 48.09375 
Q 17.96875 56 27.875 56 
Q 33.9375 56 38.25 53.625 
Q 42.578125 51.265625 45.40625 46.390625 
z
M 14.796875 27.296875 
Q 14.796875 17.390625 18.875 11.75 
Q 22.953125 6.109375 30.078125 6.109375 
Q 37.203125 6.109375 41.296875 11.75 
Q 45.40625 17.390625 45.40625 27.296875 
Q 45.40625 37.203125 41.296875 42.84375 
Q 37.203125 48.484375 30.078125 48.484375 
Q 22.953125 48.484375 18.875 42.84375 
Q 14.796875 37.203125 14.796875 27.296875 
z
" id="DejaVuSans-100"/>
       <path d="M 45.40625 27.984375 
Q 45.40625 37.75 41.375 43.109375 
Q 37.359375 48.484375 30.078125 48.484375 
Q 22.859375 48.484375 18.828125 43.109375 
Q 14.796875 37.75 14.796875 27.984375 
Q 14.796875 18.265625 18.828125 12.890625 
Q 22.859375 7.515625 30.078125 7.515625 
Q 37.359375 7.515625 41.375 12.890625 
Q 45.40625 18.265625 45.40625 27.984375 
z
M 54.390625 6.78125 
Q 54.390625 -7.171875 48.1875 -13.984375 
Q 42 -20.796875 29.203125 -20.796875 
Q 24.46875 -20.796875 20.265625 -20.09375 
Q 16.0625 -19.390625 12.109375 -17.921875 
L 12.109375 -9.1875 
Q 16.0625 -11.328125 19.921875 -12.34375 
Q 23.78125 -13.375 27.78125 -13.375 
Q 36.625 -13.375 41.015625 -8.765625 
Q 45.40625 -4.15625 45.40625 5.171875 
L 45.40625 9.625 
Q 42.625 4.78125 38.28125 2.390625 
Q 33.9375 0 27.875 0 
Q 17.828125 0 11.671875 7.65625 
Q 5.515625 15.328125 5.515625 27.984375 
Q 5.515625 40.671875 11.671875 48.328125 
Q 17.828125 56 27.875 56 
Q 33.9375 56 38.28125 53.609375 
Q 42.625 51.21875 45.40625 46.390625 
L 45.40625 54.6875 
L 54.390625 54.6875 
z
" id="DejaVuSans-103"/>
       <path d="M 41.109375 46.296875 
Q 39.59375 47.171875 37.8125 47.578125 
Q 36.03125 48 33.890625 48 
Q 26.265625 48 22.1875 43.046875 
Q 18.109375 38.09375 18.109375 28.8125 
L 18.109375 0 
L 9.078125 0 
L 9.078125 54.6875 
L 18.109375 54.6875 
L 18.109375 46.1875 
Q 20.953125 51.171875 25.484375 53.578125 
Q 30.03125 56 36.53125 56 
Q 37.453125 56 38.578125 55.875 
Q 39.703125 55.765625 41.0625 55.515625 
z
" id="DejaVuSans-114"/>
       <path d="M 30.421875 75.984375 
L 30.421875 -13.1875 
L 9.71875 -13.1875 
L 9.71875 -6.203125 
L 21.390625 -6.203125 
L 21.390625 69 
L 9.71875 69 
L 9.71875 75.984375 
z
" id="DejaVuSans-93"/>
      </defs>
      <use xlink:href="#DejaVuSans-80"/>
      <use x="60.302734" xlink:href="#DejaVuSans-104"/>
      <use x="123.681641" xlink:href="#DejaVuSans-97"/>
      <use x="184.960938" xlink:href="#DejaVuSans-115"/>
      <use x="237.060547" xlink:href="#DejaVuSans-101"/>
      <use x="298.583984" xlink:href="#DejaVuSans-32"/>
      <use x="330.371094" xlink:href="#DejaVuSans-69"/>
      <use x="393.554688" xlink:href="#DejaVuSans-115"/>
      <use x="445.654297" xlink:href="#DejaVuSans-116"/>
      <use x="484.863281" xlink:href="#DejaVuSans-105"/>
      <use x="512.646484" xlink:href="#DejaVuSans-109"/>
      <use x="610.058594" xlink:href="#DejaVuSans-97"/>
      <use x="671.337891" xlink:href="#DejaVuSans-116"/>
      <use x="710.546875" xlink:href="#DejaVuSans-101"/>
      <use x="772.070312" xlink:href="#DejaVuSans-32"/>
      <use x="803.857422" xlink:href="#DejaVuSans-91"/>
      <use x="842.871094" xlink:href="#DejaVuSans-100"/>
      <use x="906.347656" xlink:href="#DejaVuSans-101"/>
      <use x="967.871094" xlink:href="#DejaVuSans-103"/>
      <use x="1031.347656" xlink:href="#DejaVuSans-114"/>
      <use x="1070.210938" xlink:href="#DejaVuSans-101"/>
      <use x="1131.734375" xlink:href="#DejaVuSans-101"/>
      <use x="1193.257812" xlink:href="#DejaVuSans-115"/>
      <use x="1245.357422" xlink:href="#DejaVuSans-93"/>
     </g>
    </g>
   </g>
   <g id="line2d_13">
    <path clip-path="url(#p9125146fb4)" d="M 92.290909 190.944203 
L 115.828364 191.754608 
L 131.249455 192.627158 
L 144.235636 193.117266 
L 148.293818 193.072506 
L 154.786909 192.741204 
L 157.221818 192.397398 
L 159.656727 191.846008 
L 162.091636 190.777646 
L 164.526545 189.098034 
L 166.961455 186.824991 
L 168.584727 184.921704 
L 170.208 183.076272 
L 171.831273 180.904327 
L 172.642909 179.554642 
L 173.454545 178.584244 
L 175.077818 175.878413 
L 176.701091 173.678258 
L 178.324364 171.72531 
L 179.947636 169.772616 
L 188.875636 160.026807 
L 189.687273 159.263928 
L 192.933818 155.409608 
L 194.557091 153.38279 
L 196.180364 150.982844 
L 197.803636 148.148993 
L 201.861818 141.867189 
L 205.108364 137.540489 
L 206.731636 135.721071 
L 212.413091 130.712269 
L 217.282909 125.426323 
L 221.341091 121.641994 
L 223.776 118.577648 
L 226.210909 114.662939 
L 231.892364 105.672771 
L 234.327273 102.682235 
L 235.138909 101.979847 
L 240.820364 95.907812 
L 243.255273 93.533899 
L 244.066909 92.420839 
L 245.690182 89.541734 
L 247.313455 86.493421 
L 248.125091 85.295518 
L 248.936727 84.298092 
L 249.748364 83.541496 
L 250.56 83.042466 
L 251.371636 82.758429 
L 252.183273 82.594431 
L 254.618182 82.561328 
L 255.429818 82.418992 
L 256.241455 82.106554 
L 257.053091 81.581111 
L 257.864727 80.663024 
L 260.299636 74.988436 
L 261.922909 71.225251 
L 262.734545 69.818093 
L 263.546182 68.750716 
L 265.169455 67.313419 
L 265.981091 66.689121 
L 267.604364 65.806632 
L 270.039273 64.74365 
L 271.662545 64.359623 
L 272.474182 64.290436 
L 274.097455 64.525748 
L 279.778909 65.901451 
L 281.402182 66.809431 
L 283.025455 68.002979 
L 283.837091 69.233905 
L 286.272 72.110322 
L 287.895273 73.539086 
L 289.518545 74.529585 
L 291.141818 75.215981 
L 291.953455 75.409658 
L 293.576727 75.468052 
L 296.011636 75.341874 
L 297.634909 75.567039 
L 300.881455 76.297363 
L 301.693091 76.27109 
L 302.504727 75.981287 
L 303.316364 75.441642 
L 306.562909 72.12597 
L 308.997818 70.042176 
L 309.809455 69.267709 
L 311.432727 69.037136 
L 312.244364 69.103029 
L 315.490909 69.971265 
L 323.607273 72.606546 
L 326.042182 73.417693 
L 327.665455 73.790928 
L 329.288727 73.907444 
L 330.912 73.78774 
L 332.535273 73.349793 
L 334.970182 72.41245 
L 339.028364 70.680069 
L 343.898182 69.041593 
L 347.144727 68.211158 
L 349.579636 67.636084 
L 352.826182 66.622049 
L 354.449455 66.482894 
L 355.261091 66.665621 
L 356.072727 66.979936 
L 356.884364 67.582731 
L 357.696 68.822493 
L 358.507636 71.708076 
L 359.319273 78.860541 
L 360.130909 82.716087 
L 363.377455 105.637361 
L 364.189091 113.645331 
L 365.000727 118.51753 
L 365.812364 122.268497 
L 366.624 126.967581 
L 368.247273 137.517897 
L 369.058909 147.574601 
L 369.870545 150.232725 
L 370.682182 153.590373 
L 371.493818 156.33161 
L 372.305455 160.661947 
L 373.117091 162.91619 
L 373.928727 164.581264 
L 374.740364 165.934392 
L 376.363636 173.009475 
L 377.986909 177.723339 
L 378.798545 179.977886 
L 380.421818 185.178286 
L 382.045091 189.306869 
L 383.668364 192.335203 
L 385.291636 195.135407 
L 386.914909 197.52066 
L 390.161455 201.66191 
L 391.784727 203.484022 
L 393.408 205.030284 
L 395.842909 207.242391 
L 400.712727 211.599892 
L 402.336 212.73332 
L 403.959273 213.26147 
L 406.394182 214.064092 
L 408.017455 214.436026 
L 410.452364 214.725571 
L 412.887273 214.80096 
L 416.133818 214.632571 
L 418.568727 214.214353 
L 423.438545 212.951975 
L 426.685091 212.113857 
L 433.178182 209.940189 
L 434.801455 208.996226 
L 438.048 206.695373 
L 439.671273 205.344337 
L 441.294545 203.623222 
L 442.106182 202.346093 
L 442.917818 201.532721 
L 444.541091 199.552105 
L 445.352727 198.217672 
L 446.164364 197.33452 
L 446.976 196.215654 
L 447.787636 194.800699 
L 449.410909 190.875362 
L 451.034182 187.038921 
L 453.469091 182.389713 
L 455.092364 179.614478 
L 456.715636 177.397534 
L 458.338909 175.242549 
L 459.962182 173.567671 
L 461.585455 172.320077 
L 463.208727 171.205104 
L 465.643636 169.862094 
L 469.701818 167.969631 
L 474.571636 166.082245 
L 485.122909 162.278855 
L 486.746182 162.178508 
L 487.557818 162.218692 
L 489.181091 162.719027 
L 489.992727 162.992962 
L 490.804364 163.489112 
L 491.616 164.385479 
L 493.239273 168.102083 
L 494.862545 172.56069 
L 495.674182 174.039323 
L 496.485818 175.025853 
L 497.297455 175.562568 
L 497.297455 175.562568 
" style="fill:none;stroke:#1f77b4;stroke-linecap:square;stroke-width:1.5;"/>
   </g>
   <g id="line2d_14">
    <path clip-path="url(#p9125146fb4)" d="M 92.290909 135.717766 
L 498.109091 135.717766 
" style="fill:none;stroke:#ff0000;stroke-dasharray:5.55,2.4;stroke-dashoffset:0;stroke-width:1.5;"/>
   </g>
   <g id="patch_3">
    <path d="M 72 222.3288 
L 72 56.7648 
" style="fill:none;stroke:#000000;stroke-linecap:square;stroke-linejoin:miter;stroke-width:0.8;"/>
   </g>
   <g id="patch_4">
    <path d="M 518.4 222.3288 
L 518.4 56.7648 
" style="fill:none;stroke:#000000;stroke-linecap:square;stroke-linejoin:miter;stroke-width:0.8;"/>
   </g>
   <g id="patch_5">
    <path d="M 72 222.3288 
L 518.4 222.3288 
" style="fill:none;stroke:#000000;stroke-linecap:square;stroke-linejoin:miter;stroke-width:0.8;"/>
   </g>
   <g id="patch_6">
    <path d="M 72 56.7648 
L 518.4 56.7648 
" style="fill:none;stroke:#000000;stroke-linecap:square;stroke-linejoin:miter;stroke-width:0.8;"/>
   </g>
  </g>
  <g id="axes_2">
   <g id="patch_7">
    <path d="M 72 421.0056 
L 518.4 421.0056 
L 518.4 255.4416 
L 72 255.4416 
z
" style="fill:#ffffff;"/>
   </g>
   <g id="matplotlib.axis_3">
    <g id="xtick_7">
     <g id="line2d_15">
      <g>
       <use style="stroke:#000000;stroke-width:0.8;" x="92.290909" xlink:href="#m32c266a6ea" y="421.0056"/>
      </g>
     </g>
     <g id="text_15">
      <!-- 0 -->
      <g transform="translate(89.109659 435.604038)scale(0.1 -0.1)">
       <use xlink:href="#DejaVuSans-48"/>
      </g>
     </g>
    </g>
    <g id="xtick_8">
     <g id="line2d_16">
      <g>
       <use style="stroke:#000000;stroke-width:0.8;" x="173.454545" xlink:href="#m32c266a6ea" y="421.0056"/>
      </g>
     </g>
     <g id="text_16">
      <!-- 100 -->
      <g transform="translate(163.910795 435.604038)scale(0.1 -0.1)">
       <use xlink:href="#DejaVuSans-49"/>
       <use x="63.623047" xlink:href="#DejaVuSans-48"/>
       <use x="127.246094" xlink:href="#DejaVuSans-48"/>
      </g>
     </g>
    </g>
    <g id="xtick_9">
     <g id="line2d_17">
      <g>
       <use style="stroke:#000000;stroke-width:0.8;" x="254.618182" xlink:href="#m32c266a6ea" y="421.0056"/>
      </g>
     </g>
     <g id="text_17">
      <!-- 200 -->
      <g transform="translate(245.074432 435.604038)scale(0.1 -0.1)">
       <use xlink:href="#DejaVuSans-50"/>
       <use x="63.623047" xlink:href="#DejaVuSans-48"/>
       <use x="127.246094" xlink:href="#DejaVuSans-48"/>
      </g>
     </g>
    </g>
    <g id="xtick_10">
     <g id="line2d_18">
      <g>
       <use style="stroke:#000000;stroke-width:0.8;" x="335.781818" xlink:href="#m32c266a6ea" y="421.0056"/>
      </g>
     </g>
     <g id="text_18">
      <!-- 300 -->
      <g transform="translate(326.238068 435.604038)scale(0.1 -0.1)">
       <use xlink:href="#DejaVuSans-51"/>
       <use x="63.623047" xlink:href="#DejaVuSans-48"/>
       <use x="127.246094" xlink:href="#DejaVuSans-48"/>
      </g>
     </g>
    </g>
    <g id="xtick_11">
     <g id="line2d_19">
      <g>
       <use style="stroke:#000000;stroke-width:0.8;" x="416.945455" xlink:href="#m32c266a6ea" y="421.0056"/>
      </g>
     </g>
     <g id="text_19">
      <!-- 400 -->
      <g transform="translate(407.401705 435.604038)scale(0.1 -0.1)">
       <use xlink:href="#DejaVuSans-52"/>
       <use x="63.623047" xlink:href="#DejaVuSans-48"/>
       <use x="127.246094" xlink:href="#DejaVuSans-48"/>
      </g>
     </g>
    </g>
    <g id="xtick_12">
     <g id="line2d_20">
      <g>
       <use style="stroke:#000000;stroke-width:0.8;" x="498.109091" xlink:href="#m32c266a6ea" y="421.0056"/>
      </g>
     </g>
     <g id="text_20">
      <!-- 500 -->
      <g transform="translate(488.565341 435.604038)scale(0.1 -0.1)">
       <use xlink:href="#DejaVuSans-53"/>
       <use x="63.623047" xlink:href="#DejaVuSans-48"/>
       <use x="127.246094" xlink:href="#DejaVuSans-48"/>
      </g>
     </g>
    </g>
    <g id="text_21">
     <!-- Time -->
     <g transform="translate(282.966406 449.282163)scale(0.1 -0.1)">
      <use xlink:href="#DejaVuSans-84"/>
      <use x="57.958984" xlink:href="#DejaVuSans-105"/>
      <use x="85.742188" xlink:href="#DejaVuSans-109"/>
      <use x="183.154297" xlink:href="#DejaVuSans-101"/>
     </g>
    </g>
   </g>
   <g id="matplotlib.axis_4">
    <g id="ytick_7">
     <g id="line2d_21">
      <g>
       <use style="stroke:#000000;stroke-width:0.8;" x="72" xlink:href="#m25bc5463f2" y="410.065203"/>
      </g>
     </g>
     <g id="text_22">
      <!-- −0.2 -->
      <g transform="translate(40.717187 413.864422)scale(0.1 -0.1)">
       <defs>
        <path d="M 10.6875 12.40625 
L 21 12.40625 
L 21 0 
L 10.6875 0 
z
" id="DejaVuSans-46"/>
       </defs>
       <use xlink:href="#DejaVuSans-8722"/>
       <use x="83.789062" xlink:href="#DejaVuSans-48"/>
       <use x="147.412109" xlink:href="#DejaVuSans-46"/>
       <use x="179.199219" xlink:href="#DejaVuSans-50"/>
      </g>
     </g>
    </g>
    <g id="ytick_8">
     <g id="line2d_22">
      <g>
       <use style="stroke:#000000;stroke-width:0.8;" x="72" xlink:href="#m25bc5463f2" y="388.897979"/>
      </g>
     </g>
     <g id="text_23">
      <!-- 0.0 -->
      <g transform="translate(49.096875 392.697197)scale(0.1 -0.1)">
       <use xlink:href="#DejaVuSans-48"/>
       <use x="63.623047" xlink:href="#DejaVuSans-46"/>
       <use x="95.410156" xlink:href="#DejaVuSans-48"/>
      </g>
     </g>
    </g>
    <g id="ytick_9">
     <g id="line2d_23">
      <g>
       <use style="stroke:#000000;stroke-width:0.8;" x="72" xlink:href="#m25bc5463f2" y="367.730754"/>
      </g>
     </g>
     <g id="text_24">
      <!-- 0.2 -->
      <g transform="translate(49.096875 371.529973)scale(0.1 -0.1)">
       <use xlink:href="#DejaVuSans-48"/>
       <use x="63.623047" xlink:href="#DejaVuSans-46"/>
       <use x="95.410156" xlink:href="#DejaVuSans-50"/>
      </g>
     </g>
    </g>
    <g id="ytick_10">
     <g id="line2d_24">
      <g>
       <use style="stroke:#000000;stroke-width:0.8;" x="72" xlink:href="#m25bc5463f2" y="346.56353"/>
      </g>
     </g>
     <g id="text_25">
      <!-- 0.4 -->
      <g transform="translate(49.096875 350.362748)scale(0.1 -0.1)">
       <use xlink:href="#DejaVuSans-48"/>
       <use x="63.623047" xlink:href="#DejaVuSans-46"/>
       <use x="95.410156" xlink:href="#DejaVuSans-52"/>
      </g>
     </g>
    </g>
    <g id="ytick_11">
     <g id="line2d_25">
      <g>
       <use style="stroke:#000000;stroke-width:0.8;" x="72" xlink:href="#m25bc5463f2" y="325.396305"/>
      </g>
     </g>
     <g id="text_26">
      <!-- 0.6 -->
      <g transform="translate(49.096875 329.195524)scale(0.1 -0.1)">
       <defs>
        <path d="M 33.015625 40.375 
Q 26.375 40.375 22.484375 35.828125 
Q 18.609375 31.296875 18.609375 23.390625 
Q 18.609375 15.53125 22.484375 10.953125 
Q 26.375 6.390625 33.015625 6.390625 
Q 39.65625 6.390625 43.53125 10.953125 
Q 47.40625 15.53125 47.40625 23.390625 
Q 47.40625 31.296875 43.53125 35.828125 
Q 39.65625 40.375 33.015625 40.375 
z
M 52.59375 71.296875 
L 52.59375 62.3125 
Q 48.875 64.0625 45.09375 64.984375 
Q 41.3125 65.921875 37.59375 65.921875 
Q 27.828125 65.921875 22.671875 59.328125 
Q 17.53125 52.734375 16.796875 39.40625 
Q 19.671875 43.65625 24.015625 45.921875 
Q 28.375 48.1875 33.59375 48.1875 
Q 44.578125 48.1875 50.953125 41.515625 
Q 57.328125 34.859375 57.328125 23.390625 
Q 57.328125 12.15625 50.6875 5.359375 
Q 44.046875 -1.421875 33.015625 -1.421875 
Q 20.359375 -1.421875 13.671875 8.265625 
Q 6.984375 17.96875 6.984375 36.375 
Q 6.984375 53.65625 15.1875 63.9375 
Q 23.390625 74.21875 37.203125 74.21875 
Q 40.921875 74.21875 44.703125 73.484375 
Q 48.484375 72.75 52.59375 71.296875 
z
" id="DejaVuSans-54"/>
       </defs>
       <use xlink:href="#DejaVuSans-48"/>
       <use x="63.623047" xlink:href="#DejaVuSans-46"/>
       <use x="95.410156" xlink:href="#DejaVuSans-54"/>
      </g>
     </g>
    </g>
    <g id="ytick_12">
     <g id="line2d_26">
      <g>
       <use style="stroke:#000000;stroke-width:0.8;" x="72" xlink:href="#m25bc5463f2" y="304.229081"/>
      </g>
     </g>
     <g id="text_27">
      <!-- 0.8 -->
      <g transform="translate(49.096875 308.0283)scale(0.1 -0.1)">
       <defs>
        <path d="M 31.78125 34.625 
Q 24.75 34.625 20.71875 30.859375 
Q 16.703125 27.09375 16.703125 20.515625 
Q 16.703125 13.921875 20.71875 10.15625 
Q 24.75 6.390625 31.78125 6.390625 
Q 38.8125 6.390625 42.859375 10.171875 
Q 46.921875 13.96875 46.921875 20.515625 
Q 46.921875 27.09375 42.890625 30.859375 
Q 38.875 34.625 31.78125 34.625 
z
M 21.921875 38.8125 
Q 15.578125 40.375 12.03125 44.71875 
Q 8.5 49.078125 8.5 55.328125 
Q 8.5 64.0625 14.71875 69.140625 
Q 20.953125 74.21875 31.78125 74.21875 
Q 42.671875 74.21875 48.875 69.140625 
Q 55.078125 64.0625 55.078125 55.328125 
Q 55.078125 49.078125 51.53125 44.71875 
Q 48 40.375 41.703125 38.8125 
Q 48.828125 37.15625 52.796875 32.3125 
Q 56.78125 27.484375 56.78125 20.515625 
Q 56.78125 9.90625 50.3125 4.234375 
Q 43.84375 -1.421875 31.78125 -1.421875 
Q 19.734375 -1.421875 13.25 4.234375 
Q 6.78125 9.90625 6.78125 20.515625 
Q 6.78125 27.484375 10.78125 32.3125 
Q 14.796875 37.15625 21.921875 38.8125 
z
M 18.3125 54.390625 
Q 18.3125 48.734375 21.84375 45.5625 
Q 25.390625 42.390625 31.78125 42.390625 
Q 38.140625 42.390625 41.71875 45.5625 
Q 45.3125 48.734375 45.3125 54.390625 
Q 45.3125 60.0625 41.71875 63.234375 
Q 38.140625 66.40625 31.78125 66.40625 
Q 25.390625 66.40625 21.84375 63.234375 
Q 18.3125 60.0625 18.3125 54.390625 
z
" id="DejaVuSans-56"/>
       </defs>
       <use xlink:href="#DejaVuSans-48"/>
       <use x="63.623047" xlink:href="#DejaVuSans-46"/>
       <use x="95.410156" xlink:href="#DejaVuSans-56"/>
      </g>
     </g>
    </g>
    <g id="ytick_13">
     <g id="line2d_27">
      <g>
       <use style="stroke:#000000;stroke-width:0.8;" x="72" xlink:href="#m25bc5463f2" y="283.061857"/>
      </g>
     </g>
     <g id="text_28">
      <!-- 1.0 -->
      <g transform="translate(49.096875 286.861075)scale(0.1 -0.1)">
       <use xlink:href="#DejaVuSans-49"/>
       <use x="63.623047" xlink:href="#DejaVuSans-46"/>
       <use x="95.410156" xlink:href="#DejaVuSans-48"/>
      </g>
     </g>
    </g>
    <g id="ytick_14">
     <g id="line2d_28">
      <g>
       <use style="stroke:#000000;stroke-width:0.8;" x="72" xlink:href="#m25bc5463f2" y="261.894632"/>
      </g>
     </g>
     <g id="text_29">
      <!-- 1.2 -->
      <g transform="translate(49.096875 265.693851)scale(0.1 -0.1)">
       <use xlink:href="#DejaVuSans-49"/>
       <use x="63.623047" xlink:href="#DejaVuSans-46"/>
       <use x="95.410156" xlink:href="#DejaVuSans-50"/>
      </g>
     </g>
    </g>
    <g id="text_30">
     <!-- Error -->
     <g transform="translate(34.6375 350.408756)rotate(-90)scale(0.1 -0.1)">
      <defs>
       <path d="M 30.609375 48.390625 
Q 23.390625 48.390625 19.1875 42.75 
Q 14.984375 37.109375 14.984375 27.296875 
Q 14.984375 17.484375 19.15625 11.84375 
Q 23.34375 6.203125 30.609375 6.203125 
Q 37.796875 6.203125 41.984375 11.859375 
Q 46.1875 17.53125 46.1875 27.296875 
Q 46.1875 37.015625 41.984375 42.703125 
Q 37.796875 48.390625 30.609375 48.390625 
z
M 30.609375 56 
Q 42.328125 56 49.015625 48.375 
Q 55.71875 40.765625 55.71875 27.296875 
Q 55.71875 13.875 49.015625 6.21875 
Q 42.328125 -1.421875 30.609375 -1.421875 
Q 18.84375 -1.421875 12.171875 6.21875 
Q 5.515625 13.875 5.515625 27.296875 
Q 5.515625 40.765625 12.171875 48.375 
Q 18.84375 56 30.609375 56 
z
" id="DejaVuSans-111"/>
      </defs>
      <use xlink:href="#DejaVuSans-69"/>
      <use x="63.183594" xlink:href="#DejaVuSans-114"/>
      <use x="102.546875" xlink:href="#DejaVuSans-114"/>
      <use x="141.410156" xlink:href="#DejaVuSans-111"/>
      <use x="202.591797" xlink:href="#DejaVuSans-114"/>
     </g>
    </g>
   </g>
   <g id="line2d_29">
    <path clip-path="url(#p0ce5032974)" d="M 92.290909 388.591942 
L 100.407273 388.66206 
L 102.030545 388.498107 
L 104.465455 388.691675 
L 106.088727 388.666335 
L 108.523636 388.675541 
L 109.335273 388.418394 
L 119.886545 388.350268 
L 121.509818 388.218593 
L 123.944727 388.268221 
L 124.756364 388.385204 
L 126.379636 388.355315 
L 128.002909 388.43738 
L 136.930909 388.531626 
L 137.742545 388.596646 
L 138.554182 388.323963 
L 143.424 388.744253 
L 145.858909 388.906993 
L 149.917091 389.330073 
L 152.352 389.249492 
L 153.163636 389.316657 
L 153.975273 389.58919 
L 155.598545 389.824263 
L 156.410182 390.130665 
L 157.221818 390.759799 
L 158.033455 390.856827 
L 159.656727 391.217044 
L 160.468364 392.837114 
L 161.28 392.345548 
L 162.091636 394.044565 
L 163.714909 395.83204 
L 164.526545 395.62221 
L 165.338182 397.470887 
L 166.961455 398.217622 
L 167.773091 400.679025 
L 168.584727 399.727568 
L 169.396364 399.575443 
L 170.208 400.232018 
L 171.019636 401.967413 
L 171.831273 401.841431 
L 172.642909 405.118941 
L 173.454545 400.586257 
L 174.266182 405.677792 
L 175.077818 404.818841 
L 175.889455 402.855772 
L 176.701091 401.642972 
L 177.512727 400.049631 
L 178.324364 401.529269 
L 179.136 401.361338 
L 179.947636 400.286129 
L 180.759273 399.886926 
L 181.570909 400.912088 
L 182.382545 400.811256 
L 183.194182 399.783616 
L 184.005818 400.076644 
L 184.817455 399.79114 
L 185.629091 398.709912 
L 186.440727 400.818608 
L 187.252364 398.360081 
L 188.064 399.391162 
L 188.875636 399.316065 
L 189.687273 398.34705 
L 190.498909 400.486772 
L 191.310545 400.808782 
L 192.122182 400.084522 
L 192.933818 402.056856 
L 193.745455 401.371195 
L 194.557091 401.647908 
L 195.368727 404.189627 
L 196.180364 403.521924 
L 196.992 407.994124 
L 197.803636 405.185055 
L 198.615273 404.866587 
L 199.426909 405.841153 
L 200.238545 405.251309 
L 201.050182 402.179423 
L 201.861818 404.955491 
L 202.673455 402.830642 
L 203.485091 404.427899 
L 204.296727 401.615421 
L 205.108364 400.940023 
L 206.731636 400.061045 
L 207.543273 397.891458 
L 208.354909 397.144626 
L 209.978182 398.01123 
L 210.789818 398.519167 
L 212.413091 397.825289 
L 213.224727 400.083262 
L 214.036364 399.757224 
L 214.848 401.157689 
L 215.659636 398.936982 
L 216.471273 400.583892 
L 217.282909 399.051765 
L 218.094545 398.172417 
L 218.906182 398.165212 
L 219.717818 398.483441 
L 220.529455 398.346102 
L 221.341091 398.616153 
L 222.152727 401.113742 
L 222.964364 402.099811 
L 223.776 401.699685 
L 224.587636 404.434192 
L 225.399273 405.052158 
L 226.210909 405.907742 
L 227.834182 404.015404 
L 228.645818 407.87144 
L 229.457455 404.202836 
L 230.269091 404.798268 
L 231.080727 404.486675 
L 232.704 401.6391 
L 233.515636 401.469687 
L 234.327273 400.294846 
L 235.138909 397.498104 
L 235.950545 399.783743 
L 236.762182 399.468557 
L 237.573818 399.396174 
L 238.385455 401.013382 
L 240.008727 398.942478 
L 240.820364 397.589505 
L 241.632 397.975255 
L 242.443636 398.85655 
L 243.255273 398.577907 
L 244.878545 405.865611 
L 245.690182 406.516983 
L 246.501818 408.400231 
L 249.748364 397.853462 
L 250.56 394.796332 
L 251.371636 392.252176 
L 252.183273 390.833626 
L 252.994909 388.925855 
L 253.806545 388.774571 
L 254.618182 389.384135 
L 255.429818 390.577223 
L 256.241455 392.58209 
L 257.053091 395.087644 
L 257.864727 399.694396 
L 258.676364 410.07457 
L 259.488 410.381742 
L 260.299636 412.423435 
L 261.111273 410.487487 
L 261.922909 410.652601 
L 262.734545 404.986913 
L 264.357818 397.652565 
L 265.169455 396.455523 
L 265.981091 395.9609 
L 266.792727 394.327641 
L 267.604364 393.428837 
L 268.416 392.88545 
L 269.227636 393.330536 
L 270.039273 392.438857 
L 270.850909 391.102764 
L 271.662545 391.004353 
L 272.474182 389.674117 
L 273.285818 388.070056 
L 274.097455 387.085466 
L 274.909091 386.616543 
L 275.720727 385.661479 
L 276.532364 386.321284 
L 278.967273 387.736842 
L 279.778909 386.321067 
L 280.590545 384.170658 
L 281.402182 383.373603 
L 282.213818 381.380888 
L 283.025455 382.895165 
L 283.837091 374.903158 
L 284.648727 377.858234 
L 285.460364 378.259222 
L 286.272 377.674536 
L 287.083636 379.943279 
L 287.895273 381.408866 
L 288.706909 382.458902 
L 289.518545 383.899019 
L 290.330182 384.701526 
L 291.141818 385.150008 
L 292.765091 388.189864 
L 293.576727 388.9292 
L 294.388364 389.494044 
L 295.2 389.491691 
L 296.011636 389.170688 
L 296.823273 387.893071 
L 298.446545 386.654795 
L 299.258182 386.334313 
L 300.069818 386.978888 
L 300.881455 387.147108 
L 301.693091 389.203218 
L 304.128 398.746705 
L 304.939636 398.362143 
L 305.751273 399.006709 
L 307.374545 396.44197 
L 308.186182 395.99269 
L 308.997818 398.123414 
L 309.809455 397.730466 
L 310.621091 390.719857 
L 311.432727 389.701765 
L 313.056 386.719442 
L 313.867636 386.418022 
L 315.490909 386.234072 
L 316.302545 385.996303 
L 317.114182 386.149534 
L 318.737455 385.957842 
L 320.360727 385.418189 
L 321.172364 385.910559 
L 321.984 385.718284 
L 322.795636 386.075195 
L 324.418909 385.562185 
L 326.853818 386.283496 
L 327.665455 387.207522 
L 328.477091 387.82402 
L 329.288727 388.627112 
L 330.100364 389.14683 
L 330.912 390.030741 
L 331.723636 391.096404 
L 332.535273 391.750386 
L 333.346909 392.102461 
L 334.158545 392.910284 
L 334.970182 392.4709 
L 335.781818 393.118895 
L 336.593455 392.959657 
L 337.405091 393.203438 
L 338.216727 392.590233 
L 339.028364 392.483766 
L 339.84 392.233871 
L 340.651636 392.458797 
L 341.463273 391.982753 
L 342.274909 391.970748 
L 347.144727 391.049423 
L 347.956364 390.688371 
L 348.768 390.949576 
L 349.579636 391.580468 
L 350.391273 392.044501 
L 351.202909 392.19329 
L 352.014545 391.846809 
L 354.449455 389.247324 
L 355.261091 386.833457 
L 356.072727 385.343981 
L 356.884364 382.072432 
L 357.696 374.820404 
L 358.507636 355.930337 
L 359.319273 306.03028 
L 360.130909 343.595412 
L 360.942545 320.962052 
L 361.754182 316.960718 
L 362.565818 316.664918 
L 363.377455 324.259404 
L 364.189091 289.947354 
L 365.000727 328.313956 
L 365.812364 342.106708 
L 367.435636 319.063176 
L 368.247273 326.527376 
L 369.058909 262.967236 
L 369.870545 355.69629 
L 370.682182 347.037119 
L 371.493818 354.799721 
L 372.305455 335.202888 
L 373.117091 361.040346 
L 373.928727 368.367388 
L 374.740364 372.244481 
L 375.552 344.825 
L 376.363636 346.395835 
L 377.175273 358.768029 
L 377.986909 361.8754 
L 378.798545 361.731449 
L 379.610182 357.308243 
L 380.421818 358.27998 
L 381.233455 363.073804 
L 382.045091 365.825294 
L 382.856727 370.159262 
L 383.668364 372.068418 
L 384.48 371.63052 
L 385.291636 373.514218 
L 386.914909 375.600265 
L 387.726545 376.430835 
L 388.538182 376.681643 
L 389.349818 377.547051 
L 390.161455 377.403306 
L 391.784727 378.91472 
L 392.596364 379.463635 
L 393.408 380.829373 
L 394.219636 381.102567 
L 395.031273 380.434872 
L 395.842909 380.263637 
L 396.654545 380.493263 
L 397.466182 380.407264 
L 398.277818 380.685447 
L 399.901091 380.807741 
L 400.712727 381.77186 
L 401.524364 383.205253 
L 402.336 382.09064 
L 403.147636 386.556194 
L 403.959273 385.432063 
L 404.770909 385.662278 
L 405.582545 386.024393 
L 406.394182 386.202308 
L 407.205818 386.546656 
L 408.017455 387.177719 
L 409.640727 387.924789 
L 411.264 388.267363 
L 412.075636 388.680765 
L 413.698909 389.069979 
L 414.510545 389.097198 
L 415.322182 389.38294 
L 416.133818 389.882044 
L 417.757091 390.173292 
L 418.568727 391.03421 
L 419.380364 391.381678 
L 420.192 391.232584 
L 421.003636 390.71346 
L 422.626909 391.425563 
L 423.438545 391.454762 
L 424.250182 391.020358 
L 425.061818 391.930142 
L 425.873455 391.100971 
L 426.685091 390.771784 
L 427.496727 391.886516 
L 428.308364 391.25441 
L 429.12 392.180568 
L 429.931636 391.692163 
L 430.743273 391.535012 
L 431.554909 392.265838 
L 432.366545 392.45349 
L 433.178182 391.983156 
L 433.989818 393.817431 
L 435.613091 395.102275 
L 436.424727 394.771906 
L 437.236364 395.922888 
L 438.048 395.543883 
L 438.859636 396.044064 
L 439.671273 396.960824 
L 441.294545 399.181074 
L 442.106182 403.410762 
L 442.917818 398.169792 
L 443.729455 400.105124 
L 444.541091 400.360848 
L 445.352727 404.244324 
L 446.164364 399.08589 
L 446.976 401.840416 
L 447.787636 405.320997 
L 448.599273 410.190335 
L 449.410909 413.479964 
L 450.222545 411.882887 
L 451.034182 411.172105 
L 451.845818 407.647354 
L 452.657455 406.013286 
L 453.469091 408.401439 
L 454.280727 405.283289 
L 455.092364 405.816016 
L 455.904 401.527549 
L 456.715636 402.998908 
L 457.527273 402.937751 
L 458.338909 400.943854 
L 459.150545 399.60492 
L 459.962182 398.531399 
L 460.773818 397.014993 
L 461.585455 395.968326 
L 462.397091 396.101066 
L 463.208727 395.293021 
L 464.832 394.305615 
L 466.455273 393.692991 
L 467.266909 393.927635 
L 468.078545 393.247521 
L 468.890182 393.467393 
L 469.701818 393.331994 
L 470.513455 392.954836 
L 471.325091 393.083288 
L 472.136727 392.756123 
L 472.948364 392.758483 
L 473.76 392.428586 
L 474.571636 392.58218 
L 476.194909 392.581743 
L 477.006545 392.87239 
L 477.818182 392.971302 
L 478.629818 392.619061 
L 480.253091 392.607397 
L 481.064727 392.858662 
L 481.876364 392.910898 
L 482.688 392.448537 
L 484.311273 392.217183 
L 485.122909 390.893808 
L 486.746182 389.077111 
L 487.557818 388.401604 
L 488.369455 386.415889 
L 489.181091 385.201659 
L 489.992727 385.51677 
L 490.804364 382.776688 
L 491.616 377.848101 
L 492.427636 366.623259 
L 493.239273 365.489501 
L 494.050909 360.692559 
L 494.862545 362.610659 
L 495.674182 370.908389 
L 497.297455 382.389603 
L 497.297455 382.389603 
" style="fill:none;stroke:#1f77b4;stroke-linecap:square;stroke-width:1.5;"/>
   </g>
   <g id="line2d_30">
    <path clip-path="url(#p0ce5032974)" d="M 92.290909 388.897979 
L 498.109091 388.897979 
" style="fill:none;stroke:#ff0000;stroke-dasharray:5.55,2.4;stroke-dashoffset:0;stroke-width:1.5;"/>
   </g>
   <g id="patch_8">
    <path d="M 72 421.0056 
L 72 255.4416 
" style="fill:none;stroke:#000000;stroke-linecap:square;stroke-linejoin:miter;stroke-width:0.8;"/>
   </g>
   <g id="patch_9">
    <path d="M 518.4 421.0056 
L 518.4 255.4416 
" style="fill:none;stroke:#000000;stroke-linecap:square;stroke-linejoin:miter;stroke-width:0.8;"/>
   </g>
   <g id="patch_10">
    <path d="M 72 421.0056 
L 518.4 421.0056 
" style="fill:none;stroke:#000000;stroke-linecap:square;stroke-linejoin:miter;stroke-width:0.8;"/>
   </g>
   <g id="patch_11">
    <path d="M 72 255.4416 
L 518.4 255.4416 
" style="fill:none;stroke:#000000;stroke-linecap:square;stroke-linejoin:miter;stroke-width:0.8;"/>
   </g>
  </g>
 </g>
 <defs>
  <clipPath id="p9125146fb4">
   <rect height="165.564" width="446.4" x="72" y="56.7648"/>
  </clipPath>
  <clipPath id="p0ce5032974">
   <rect height="165.564" width="446.4" x="72" y="255.4416"/>
  </clipPath>
 </defs>
</svg>
