<svg width="576" height="240" xmlns="http://www.w3.org/2000/svg" xmlns:xlink="http://www.w3.org/1999/xlink" overflow="hidden"><defs><clipPath id="clip0"><rect x="0" y="0" width="576" height="240"/></clipPath></defs><g clip-path="url(#clip0)"><rect x="0" y="0" width="576" height="240" fill="#FFFFFF"/><path d="M357 132 364.5 102 413.5 102 421 132Z" fill="#FFC000" fill-rule="evenodd"/><path d="M214 133 230 11 262 11 278 133Z" fill="#70AD47" fill-rule="evenodd"/><path d="M101 133 141.5 55 182 133Z" fill="#4472C4" fill-rule="evenodd"/><path d="M24.9999 132 458.23 132 458.23 135 24.9999 135ZM26.5001 138 17.5001 133.5 26.5001 129ZM456.73 129 465.73 133.5 456.73 138Z"/><path d="M40 122 40.0001 140.67" stroke="#000000" stroke-width="2" stroke-miterlimit="8" fill="none" fill-rule="evenodd"/><path d="M433 124 433 142.67" stroke="#000000" stroke-width="2" stroke-miterlimit="8" fill="none" fill-rule="evenodd"/><text font-family="Times New Roman,Times New Roman_MSFontService,sans-serif" font-style="italic" font-weight="400" font-size="24" transform="translate(477.729 137)">frequency</text><path d="M246 124 246 142.67" stroke="#000000" stroke-width="2" stroke-miterlimit="8" fill="none" fill-rule="evenodd"/><text font-family="Times New Roman,Times New Roman_MSFontService,sans-serif" font-style="italic" font-weight="400" font-size="24" transform="translate(239.005 167)">0<tspan x="165.683" y="0">5 </tspan>MHz<tspan x="-231.127" y="-1">-</tspan>5 MHz<tspan fill="#FF0000" x="-47.1469" y="41">Sample Rate</tspan></text><path d="M163.682 205.239 97.615 180.176 97.8515 179.553 163.919 204.616ZM97.5611 184.078 91.5001 177.5 100.399 176.598Z" fill="#FF0000"/><path d="M0.158387-0.2933 51.5244 27.4453 51.2076 28.0319-0.158387 0.2933ZM52.0935 23.5855 57.232 30.9064 48.2922 30.6247Z" fill="#FF0000" transform="matrix(1 0 0 -1 338.5 204.406)"/><text fill="#FF0000" font-family="Times New Roman,Times New Roman_MSFontService,sans-serif" font-style="italic" font-weight="400" font-size="24" transform="translate(246.874 238)">2</text><path d="M181.5 214.5 322.733 214.5" stroke="#FF0000" stroke-width="0.666667" stroke-miterlimit="8" fill="none" fill-rule="evenodd"/></g></svg>