<?xml version="1.0" encoding="utf-8" standalone="no"?>
<!DOCTYPE svg PUBLIC "-//W3C//DTD SVG 1.1//EN"
  "http://www.w3.org/Graphics/SVG/1.1/DTD/svg11.dtd">
<!-- Created with matplotlib (https://matplotlib.org/) -->
<svg height="209.389375pt" version="1.1" viewBox="0 0 612.262727 209.389375" width="612.262727pt" xmlns="http://www.w3.org/2000/svg" xmlns:xlink="http://www.w3.org/1999/xlink">
 <defs>
  <style type="text/css">
*{stroke-linecap:butt;stroke-linejoin:round;}
  </style>
 </defs>
 <g id="figure_1">
  <g id="patch_1">
   <path d="M 0 209.389375 
L 612.262727 209.389375 
L 612.262727 0 
L 0 0 
z
" style="fill:#ffffff;"/>
  </g>
  <g id="axes_1">
   <g id="patch_2">
    <path d="M 10.7 191.717813 
L 568.7 191.717813 
L 568.7 25.397812 
L 10.7 25.397812 
z
" style="fill:#ffffff;"/>
   </g>
   <g id="matplotlib.axis_1">
    <g id="xtick_1">
     <g id="line2d_1">
      <defs>
       <path d="M 0 0 
L 0 3.5 
" id="m42f3f63bc0" style="stroke:#000000;stroke-width:0.8;"/>
      </defs>
      <g>
       <use style="stroke:#000000;stroke-width:0.8;" x="36.063636" xlink:href="#m42f3f63bc0" y="184.157813"/>
      </g>
     </g>
    </g>
    <g id="xtick_2">
     <g id="line2d_2">
      <g>
       <use style="stroke:#000000;stroke-width:0.8;" x="120.609091" xlink:href="#m42f3f63bc0" y="184.157813"/>
      </g>
     </g>
    </g>
    <g id="xtick_3">
     <g id="line2d_3">
      <g>
       <use style="stroke:#000000;stroke-width:0.8;" x="205.154545" xlink:href="#m42f3f63bc0" y="184.157813"/>
      </g>
     </g>
    </g>
    <g id="xtick_4">
     <g id="line2d_4">
      <g>
       <use style="stroke:#000000;stroke-width:0.8;" x="289.7" xlink:href="#m42f3f63bc0" y="184.157813"/>
      </g>
     </g>
    </g>
    <g id="xtick_5">
     <g id="line2d_5">
      <g>
       <use style="stroke:#000000;stroke-width:0.8;" x="374.245455" xlink:href="#m42f3f63bc0" y="184.157813"/>
      </g>
     </g>
    </g>
    <g id="xtick_6">
     <g id="line2d_6">
      <g>
       <use style="stroke:#000000;stroke-width:0.8;" x="458.790909" xlink:href="#m42f3f63bc0" y="184.157813"/>
      </g>
     </g>
    </g>
    <g id="xtick_7">
     <g id="line2d_7">
      <g>
       <use style="stroke:#000000;stroke-width:0.8;" x="543.336364" xlink:href="#m42f3f63bc0" y="184.157813"/>
      </g>
     </g>
    </g>
   </g>
   <g id="matplotlib.axis_2">
    <g id="ytick_1">
     <g id="line2d_8">
      <defs>
       <path d="M 0 0 
L -3.5 0 
" id="m43dd81251f" style="stroke:#000000;stroke-width:0.8;"/>
      </defs>
      <g>
       <use style="stroke:#000000;stroke-width:0.8;" x="289.7" xlink:href="#m43dd81251f" y="184.157813"/>
      </g>
     </g>
    </g>
    <g id="ytick_2">
     <g id="line2d_9">
      <g>
       <use style="stroke:#000000;stroke-width:0.8;" x="289.7" xlink:href="#m43dd81251f" y="153.917812"/>
      </g>
     </g>
    </g>
    <g id="ytick_3">
     <g id="line2d_10">
      <g>
       <use style="stroke:#000000;stroke-width:0.8;" x="289.7" xlink:href="#m43dd81251f" y="123.677812"/>
      </g>
     </g>
    </g>
    <g id="ytick_4">
     <g id="line2d_11">
      <g>
       <use style="stroke:#000000;stroke-width:0.8;" x="289.7" xlink:href="#m43dd81251f" y="93.437812"/>
      </g>
     </g>
    </g>
    <g id="ytick_5">
     <g id="line2d_12">
      <g>
       <use style="stroke:#000000;stroke-width:0.8;" x="289.7" xlink:href="#m43dd81251f" y="63.197812"/>
      </g>
     </g>
    </g>
    <g id="ytick_6">
     <g id="line2d_13">
      <g>
       <use style="stroke:#000000;stroke-width:0.8;" x="289.7" xlink:href="#m43dd81251f" y="32.957812"/>
      </g>
     </g>
    </g>
   </g>
   <g id="line2d_14">
    <path clip-path="url(#pfe6e0f8d89)" d="M 36.063636 184.157813 
L 204.138984 184.157813 
L 204.646765 169.761392 
L 205.662326 47.354233 
L 206.170106 32.957812 
L 373.229894 32.957812 
L 373.737674 47.354233 
L 374.753235 169.761392 
L 375.261016 184.157813 
L 543.336364 184.157813 
L 543.336364 184.157813 
" style="fill:none;stroke:#1f77b4;stroke-linecap:square;stroke-width:1.5;"/>
   </g>
   <g id="line2d_15">
    <path clip-path="url(#pfe6e0f8d89)" d="M 36.063636 184.157813 
L 184.335545 184.136786 
L 185.351106 183.787194 
L 186.366667 183.009279 
L 187.382228 181.807468 
L 188.397789 180.188604 
L 189.41335 178.161906 
L 190.428911 175.738911 
L 191.952252 171.392139 
L 193.475594 166.240902 
L 194.998935 160.351153 
L 197.030057 151.480929 
L 199.061179 141.634552 
L 202.107862 125.529363 
L 211.755692 72.939877 
L 213.786814 63.31733 
L 215.817936 54.723636 
L 217.341278 49.072127 
L 218.864619 44.18221 
L 220.387961 40.11649 
L 221.403522 37.890058 
L 222.419083 36.065978 
L 223.434644 34.654636 
L 224.450205 33.664068 
L 225.465766 33.099912 
L 226.481327 32.957812 
L 353.426454 32.978839 
L 354.442015 33.328431 
L 355.457576 34.106346 
L 356.473137 35.308157 
L 357.488698 36.927021 
L 358.504259 38.953719 
L 359.51982 41.376714 
L 361.043161 45.723486 
L 362.566503 50.874723 
L 364.089844 56.764472 
L 366.120966 65.634696 
L 368.152088 75.481073 
L 371.198771 91.586262 
L 380.846601 144.175748 
L 382.877723 153.798295 
L 384.908845 162.391989 
L 386.432187 168.043498 
L 387.955528 172.933415 
L 389.47887 176.999135 
L 390.494431 179.225567 
L 391.509992 181.049647 
L 392.525553 182.460989 
L 393.541114 183.451557 
L 394.556675 184.015713 
L 395.572236 184.157813 
L 543.336364 184.157813 
L 543.336364 184.157813 
" style="fill:none;stroke:#ff7f0e;stroke-linecap:square;stroke-width:1.5;"/>
   </g>
   <g id="line2d_16">
    <path clip-path="url(#pfe6e0f8d89)" d="M 36.063636 184.157813 
L 164.024324 184.089694 
L 165.547666 183.787194 
L 167.071007 183.243712 
L 168.594349 182.460989 
L 170.11769 181.441531 
L 171.641032 180.188604 
L 173.164373 178.706223 
L 175.195495 176.381096 
L 177.226618 173.669811 
L 179.25774 170.587807 
L 181.288862 167.15263 
L 183.827764 162.391989 
L 186.366667 157.152556 
L 189.41335 150.299116 
L 192.460033 142.911265 
L 196.014496 133.743181 
L 200.584521 121.334275 
L 215.817936 79.380026 
L 219.3724 70.449398 
L 222.419083 63.31733 
L 225.465766 56.764472 
L 228.004668 51.806986 
L 230.543571 47.354233 
L 232.574693 44.18221 
L 234.605815 41.376714 
L 236.636937 38.953719 
L 238.668059 36.927021 
L 240.1914 35.674094 
L 241.714742 34.654636 
L 243.238084 33.871913 
L 244.761425 33.328431 
L 246.284767 33.025931 
L 247.808108 32.957812 
L 333.115233 33.025931 
L 334.638575 33.328431 
L 336.161916 33.871913 
L 337.685258 34.654636 
L 339.2086 35.674094 
L 340.731941 36.927021 
L 342.255283 38.409402 
L 344.286405 40.734529 
L 346.317527 43.445814 
L 348.348649 46.527818 
L 350.379771 49.962995 
L 352.918673 54.723636 
L 355.457576 59.963069 
L 358.504259 66.816509 
L 361.550942 74.20436 
L 365.105405 83.372444 
L 369.67543 95.78135 
L 384.908845 137.735599 
L 388.463309 146.666227 
L 391.509992 153.798295 
L 394.556675 160.351153 
L 397.095577 165.308639 
L 399.63448 169.761392 
L 401.665602 172.933415 
L 403.696724 175.738911 
L 405.727846 178.161906 
L 407.758968 180.188604 
L 409.28231 181.441531 
L 410.805651 182.460989 
L 412.328993 183.243712 
L 413.852334 183.787194 
L 415.375676 184.089694 
L 416.899017 184.157813 
L 543.336364 184.157813 
L 543.336364 184.157813 
" style="fill:none;stroke:#2ca02c;stroke-linecap:square;stroke-width:1.5;"/>
   </g>
   <g id="line2d_17">
    <path clip-path="url(#pfe6e0f8d89)" d="M 36.063636 184.157813 
L 123.401884 184.056063 
L 126.448567 183.713312 
L 129.49525 183.129814 
L 132.541933 182.30744 
L 135.588616 181.248824 
L 138.635299 179.957356 
L 141.681982 178.437174 
L 144.728665 176.693148 
L 148.283129 174.383027 
L 151.837592 171.785934 
L 155.392056 168.913189 
L 158.946519 165.777317 
L 163.008763 161.888855 
L 167.071007 157.696748 
L 171.641032 152.64746 
L 176.718837 146.666227 
L 182.304423 139.697547 
L 188.397789 131.715908 
L 196.014496 121.334275 
L 209.21679 102.857416 
L 219.3724 88.818916 
L 225.973546 80.03928 
L 231.559132 72.939877 
L 236.636937 66.816509 
L 241.206962 61.621402 
L 245.776986 56.764472 
L 249.83923 52.759454 
L 253.901474 49.072127 
L 257.455938 46.122874 
L 261.010401 43.445814 
L 264.564865 41.052618 
L 268.119328 38.953719 
L 271.166011 37.395872 
L 274.212695 36.065978 
L 277.259378 34.968298 
L 280.306061 34.106346 
L 283.352744 33.482886 
L 286.399427 33.099912 
L 289.44611 32.958654 
L 292.492793 33.059562 
L 295.539476 33.402313 
L 298.586159 33.985811 
L 301.632842 34.808185 
L 304.679525 35.866801 
L 307.726208 37.158269 
L 310.772891 38.678451 
L 313.819574 40.422477 
L 317.374038 42.732598 
L 320.928501 45.329691 
L 324.482965 48.202436 
L 328.037428 51.338308 
L 332.099672 55.22677 
L 336.161916 59.418877 
L 340.731941 64.468165 
L 345.809746 70.449398 
L 351.395332 77.418078 
L 357.488698 85.399717 
L 365.105405 95.78135 
L 378.307699 114.258209 
L 388.463309 128.296709 
L 395.064455 137.076345 
L 400.650041 144.175748 
L 405.727846 150.299116 
L 410.297871 155.494223 
L 414.867895 160.351153 
L 418.930139 164.356171 
L 422.992383 168.043498 
L 426.546847 170.992751 
L 430.10131 173.669811 
L 433.655774 176.063007 
L 437.210238 178.161906 
L 440.256921 179.719753 
L 443.303604 181.049647 
L 446.350287 182.147327 
L 449.39697 183.009279 
L 452.443653 183.632739 
L 455.490336 184.015713 
L 458.537019 184.156971 
L 526.071826 184.157813 
L 543.336364 184.157813 
L 543.336364 184.157813 
" style="fill:none;stroke:#d62728;stroke-linecap:square;stroke-width:1.5;"/>
   </g>
   <g id="patch_3">
    <path d="M 289.7 191.717813 
L 289.7 25.397812 
" style="fill:none;stroke:#000000;stroke-linecap:square;stroke-linejoin:miter;stroke-width:0.8;"/>
   </g>
   <g id="patch_4">
    <path d="M 568.7 191.717813 
L 568.7 25.397812 
" style="fill:none;"/>
   </g>
   <g id="patch_5">
    <path d="M 10.7 184.157813 
L 568.7 184.157813 
" style="fill:none;stroke:#000000;stroke-linecap:square;stroke-linejoin:miter;stroke-width:0.8;"/>
   </g>
   <g id="patch_6">
    <path d="M 10.7 25.397812 
L 568.7 25.397812 
" style="fill:none;"/>
   </g>
   <g id="text_1">
    <!-- Freq -->
    <defs>
     <path d="M 9.8125 72.90625 
L 51.703125 72.90625 
L 51.703125 64.59375 
L 19.671875 64.59375 
L 19.671875 43.109375 
L 48.578125 43.109375 
L 48.578125 34.8125 
L 19.671875 34.8125 
L 19.671875 0 
L 9.8125 0 
z
" id="DejaVuSans-70"/>
     <path d="M 41.109375 46.296875 
Q 39.59375 47.171875 37.8125 47.578125 
Q 36.03125 48 33.890625 48 
Q 26.265625 48 22.1875 43.046875 
Q 18.109375 38.09375 18.109375 28.8125 
L 18.109375 0 
L 9.078125 0 
L 9.078125 54.6875 
L 18.109375 54.6875 
L 18.109375 46.1875 
Q 20.953125 51.171875 25.484375 53.578125 
Q 30.03125 56 36.53125 56 
Q 37.453125 56 38.578125 55.875 
Q 39.703125 55.765625 41.0625 55.515625 
z
" id="DejaVuSans-114"/>
     <path d="M 56.203125 29.59375 
L 56.203125 25.203125 
L 14.890625 25.203125 
Q 15.484375 15.921875 20.484375 11.0625 
Q 25.484375 6.203125 34.421875 6.203125 
Q 39.59375 6.203125 44.453125 7.46875 
Q 49.3125 8.734375 54.109375 11.28125 
L 54.109375 2.78125 
Q 49.265625 0.734375 44.1875 -0.34375 
Q 39.109375 -1.421875 33.890625 -1.421875 
Q 20.796875 -1.421875 13.15625 6.1875 
Q 5.515625 13.8125 5.515625 26.8125 
Q 5.515625 40.234375 12.765625 48.109375 
Q 20.015625 56 32.328125 56 
Q 43.359375 56 49.78125 48.890625 
Q 56.203125 41.796875 56.203125 29.59375 
z
M 47.21875 32.234375 
Q 47.125 39.59375 43.09375 43.984375 
Q 39.0625 48.390625 32.421875 48.390625 
Q 24.90625 48.390625 20.390625 44.140625 
Q 15.875 39.890625 15.1875 32.171875 
z
" id="DejaVuSans-101"/>
     <path d="M 14.796875 27.296875 
Q 14.796875 17.390625 18.875 11.75 
Q 22.953125 6.109375 30.078125 6.109375 
Q 37.203125 6.109375 41.296875 11.75 
Q 45.40625 17.390625 45.40625 27.296875 
Q 45.40625 37.203125 41.296875 42.84375 
Q 37.203125 48.484375 30.078125 48.484375 
Q 22.953125 48.484375 18.875 42.84375 
Q 14.796875 37.203125 14.796875 27.296875 
z
M 45.40625 8.203125 
Q 42.578125 3.328125 38.25 0.953125 
Q 33.9375 -1.421875 27.875 -1.421875 
Q 17.96875 -1.421875 11.734375 6.484375 
Q 5.515625 14.40625 5.515625 27.296875 
Q 5.515625 40.1875 11.734375 48.09375 
Q 17.96875 56 27.875 56 
Q 33.9375 56 38.25 53.625 
Q 42.578125 51.265625 45.40625 46.390625 
L 45.40625 54.6875 
L 54.390625 54.6875 
L 54.390625 -20.796875 
L 45.40625 -20.796875 
z
" id="DejaVuSans-113"/>
    </defs>
    <g transform="translate(573.772727 191.717813)scale(0.14 -0.14)">
     <use xlink:href="#DejaVuSans-70"/>
     <use x="57.410156" xlink:href="#DejaVuSans-114"/>
     <use x="98.492188" xlink:href="#DejaVuSans-101"/>
     <use x="160.015625" xlink:href="#DejaVuSans-113"/>
    </g>
   </g>
   <g id="text_2">
    <!-- -3/2T -->
    <defs>
     <path d="M 4.890625 31.390625 
L 31.203125 31.390625 
L 31.203125 23.390625 
L 4.890625 23.390625 
z
" id="DejaVuSans-45"/>
     <path d="M 40.578125 39.3125 
Q 47.65625 37.796875 51.625 33 
Q 55.609375 28.21875 55.609375 21.1875 
Q 55.609375 10.40625 48.1875 4.484375 
Q 40.765625 -1.421875 27.09375 -1.421875 
Q 22.515625 -1.421875 17.65625 -0.515625 
Q 12.796875 0.390625 7.625 2.203125 
L 7.625 11.71875 
Q 11.71875 9.328125 16.59375 8.109375 
Q 21.484375 6.890625 26.8125 6.890625 
Q 36.078125 6.890625 40.9375 10.546875 
Q 45.796875 14.203125 45.796875 21.1875 
Q 45.796875 27.640625 41.28125 31.265625 
Q 36.765625 34.90625 28.71875 34.90625 
L 20.21875 34.90625 
L 20.21875 43.015625 
L 29.109375 43.015625 
Q 36.375 43.015625 40.234375 45.921875 
Q 44.09375 48.828125 44.09375 54.296875 
Q 44.09375 59.90625 40.109375 62.90625 
Q 36.140625 65.921875 28.71875 65.921875 
Q 24.65625 65.921875 20.015625 65.03125 
Q 15.375 64.15625 9.8125 62.3125 
L 9.8125 71.09375 
Q 15.4375 72.65625 20.34375 73.4375 
Q 25.25 74.21875 29.59375 74.21875 
Q 40.828125 74.21875 47.359375 69.109375 
Q 53.90625 64.015625 53.90625 55.328125 
Q 53.90625 49.265625 50.4375 45.09375 
Q 46.96875 40.921875 40.578125 39.3125 
z
" id="DejaVuSans-51"/>
     <path d="M 25.390625 72.90625 
L 33.6875 72.90625 
L 8.296875 -9.28125 
L 0 -9.28125 
z
" id="DejaVuSans-47"/>
     <path d="M 19.1875 8.296875 
L 53.609375 8.296875 
L 53.609375 0 
L 7.328125 0 
L 7.328125 8.296875 
Q 12.9375 14.109375 22.625 23.890625 
Q 32.328125 33.6875 34.8125 36.53125 
Q 39.546875 41.84375 41.421875 45.53125 
Q 43.3125 49.21875 43.3125 52.78125 
Q 43.3125 58.59375 39.234375 62.25 
Q 35.15625 65.921875 28.609375 65.921875 
Q 23.96875 65.921875 18.8125 64.3125 
Q 13.671875 62.703125 7.8125 59.421875 
L 7.8125 69.390625 
Q 13.765625 71.78125 18.9375 73 
Q 24.125 74.21875 28.421875 74.21875 
Q 39.75 74.21875 46.484375 68.546875 
Q 53.21875 62.890625 53.21875 53.421875 
Q 53.21875 48.921875 51.53125 44.890625 
Q 49.859375 40.875 45.40625 35.40625 
Q 44.1875 33.984375 37.640625 27.21875 
Q 31.109375 20.453125 19.1875 8.296875 
z
" id="DejaVuSans-50"/>
     <path d="M -0.296875 72.90625 
L 61.375 72.90625 
L 61.375 64.59375 
L 35.5 64.59375 
L 35.5 0 
L 25.59375 0 
L 25.59375 64.59375 
L -0.296875 64.59375 
z
" id="DejaVuSans-84"/>
    </defs>
    <g transform="translate(10.7 199.277813)scale(0.14 -0.14)">
     <use xlink:href="#DejaVuSans-45"/>
     <use x="36.083984" xlink:href="#DejaVuSans-51"/>
     <use x="99.707031" xlink:href="#DejaVuSans-47"/>
     <use x="133.398438" xlink:href="#DejaVuSans-50"/>
     <use x="197.021484" xlink:href="#DejaVuSans-84"/>
    </g>
   </g>
   <g id="text_3">
    <!-- -1/T -->
    <defs>
     <path d="M 12.40625 8.296875 
L 28.515625 8.296875 
L 28.515625 63.921875 
L 10.984375 60.40625 
L 10.984375 69.390625 
L 28.421875 72.90625 
L 38.28125 72.90625 
L 38.28125 8.296875 
L 54.390625 8.296875 
L 54.390625 0 
L 12.40625 0 
z
" id="DejaVuSans-49"/>
    </defs>
    <g transform="translate(95.245455 199.277813)scale(0.14 -0.14)">
     <use xlink:href="#DejaVuSans-45"/>
     <use x="36.083984" xlink:href="#DejaVuSans-49"/>
     <use x="99.707031" xlink:href="#DejaVuSans-47"/>
     <use x="133.398438" xlink:href="#DejaVuSans-84"/>
    </g>
   </g>
   <g id="text_4">
    <!-- -1/2T -->
    <g transform="translate(179.790909 199.277813)scale(0.14 -0.14)">
     <use xlink:href="#DejaVuSans-45"/>
     <use x="36.083984" xlink:href="#DejaVuSans-49"/>
     <use x="99.707031" xlink:href="#DejaVuSans-47"/>
     <use x="133.398438" xlink:href="#DejaVuSans-50"/>
     <use x="197.021484" xlink:href="#DejaVuSans-84"/>
    </g>
   </g>
   <g id="text_5">
    <!-- 0 -->
    <defs>
     <path d="M 31.78125 66.40625 
Q 24.171875 66.40625 20.328125 58.90625 
Q 16.5 51.421875 16.5 36.375 
Q 16.5 21.390625 20.328125 13.890625 
Q 24.171875 6.390625 31.78125 6.390625 
Q 39.453125 6.390625 43.28125 13.890625 
Q 47.125 21.390625 47.125 36.375 
Q 47.125 51.421875 43.28125 58.90625 
Q 39.453125 66.40625 31.78125 66.40625 
z
M 31.78125 74.21875 
Q 44.046875 74.21875 50.515625 64.515625 
Q 56.984375 54.828125 56.984375 36.375 
Q 56.984375 17.96875 50.515625 8.265625 
Q 44.046875 -1.421875 31.78125 -1.421875 
Q 19.53125 -1.421875 13.0625 8.265625 
Q 6.59375 17.96875 6.59375 36.375 
Q 6.59375 54.828125 13.0625 64.515625 
Q 19.53125 74.21875 31.78125 74.21875 
z
" id="DejaVuSans-48"/>
    </defs>
    <g transform="translate(289.7 199.277813)scale(0.14 -0.14)">
     <use xlink:href="#DejaVuSans-48"/>
    </g>
   </g>
   <g id="text_6">
    <!-- 3/2T -->
    <g transform="translate(517.972727 199.277813)scale(0.14 -0.14)">
     <use xlink:href="#DejaVuSans-51"/>
     <use x="63.623047" xlink:href="#DejaVuSans-47"/>
     <use x="97.314453" xlink:href="#DejaVuSans-50"/>
     <use x="160.9375" xlink:href="#DejaVuSans-84"/>
    </g>
   </g>
   <g id="text_7">
    <!-- 1/T -->
    <g transform="translate(450.336364 199.277813)scale(0.14 -0.14)">
     <use xlink:href="#DejaVuSans-49"/>
     <use x="63.623047" xlink:href="#DejaVuSans-47"/>
     <use x="97.314453" xlink:href="#DejaVuSans-84"/>
    </g>
   </g>
   <g id="text_8">
    <!-- 1/2T -->
    <g transform="translate(348.881818 199.277813)scale(0.14 -0.14)">
     <use xlink:href="#DejaVuSans-49"/>
     <use x="63.623047" xlink:href="#DejaVuSans-47"/>
     <use x="97.314453" xlink:href="#DejaVuSans-50"/>
     <use x="160.9375" xlink:href="#DejaVuSans-84"/>
    </g>
   </g>
   <g id="text_9">
    <!-- H(f) -->
    <defs>
     <path d="M 9.8125 72.90625 
L 19.671875 72.90625 
L 19.671875 43.015625 
L 55.515625 43.015625 
L 55.515625 72.90625 
L 65.375 72.90625 
L 65.375 0 
L 55.515625 0 
L 55.515625 34.71875 
L 19.671875 34.71875 
L 19.671875 0 
L 9.8125 0 
z
" id="DejaVuSans-72"/>
     <path d="M 31 75.875 
Q 24.46875 64.65625 21.28125 53.65625 
Q 18.109375 42.671875 18.109375 31.390625 
Q 18.109375 20.125 21.3125 9.0625 
Q 24.515625 -2 31 -13.1875 
L 23.1875 -13.1875 
Q 15.875 -1.703125 12.234375 9.375 
Q 8.59375 20.453125 8.59375 31.390625 
Q 8.59375 42.28125 12.203125 53.3125 
Q 15.828125 64.359375 23.1875 75.875 
z
" id="DejaVuSans-40"/>
     <path d="M 37.109375 75.984375 
L 37.109375 68.5 
L 28.515625 68.5 
Q 23.6875 68.5 21.796875 66.546875 
Q 19.921875 64.59375 19.921875 59.515625 
L 19.921875 54.6875 
L 34.71875 54.6875 
L 34.71875 47.703125 
L 19.921875 47.703125 
L 19.921875 0 
L 10.890625 0 
L 10.890625 47.703125 
L 2.296875 47.703125 
L 2.296875 54.6875 
L 10.890625 54.6875 
L 10.890625 58.5 
Q 10.890625 67.625 15.140625 71.796875 
Q 19.390625 75.984375 28.609375 75.984375 
z
" id="DejaVuSans-102"/>
     <path d="M 8.015625 75.875 
L 15.828125 75.875 
Q 23.140625 64.359375 26.78125 53.3125 
Q 30.421875 42.28125 30.421875 31.390625 
Q 30.421875 20.453125 26.78125 9.375 
Q 23.140625 -1.703125 15.828125 -13.1875 
L 8.015625 -13.1875 
Q 14.5 -2 17.703125 9.0625 
Q 20.90625 20.125 20.90625 31.390625 
Q 20.90625 42.671875 17.703125 53.65625 
Q 14.5 64.65625 8.015625 75.875 
z
" id="DejaVuSans-41"/>
    </defs>
    <g transform="translate(289.7 17.837812)scale(0.14 -0.14)">
     <use xlink:href="#DejaVuSans-72"/>
     <use x="75.195312" xlink:href="#DejaVuSans-40"/>
     <use x="114.208984" xlink:href="#DejaVuSans-102"/>
     <use x="149.414062" xlink:href="#DejaVuSans-41"/>
    </g>
   </g>
   <g id="legend_1">
    <g id="patch_7">
     <path d="M 453.364062 119.145312 
L 558.9 119.145312 
Q 561.7 119.145312 561.7 116.345312 
L 561.7 35.197812 
Q 561.7 32.397812 558.9 32.397812 
L 453.364062 32.397812 
Q 450.564062 32.397812 450.564062 35.197812 
L 450.564062 116.345312 
Q 450.564062 119.145312 453.364062 119.145312 
z
" style="fill:#ffffff;opacity:0.8;stroke:#cccccc;stroke-linejoin:miter;"/>
    </g>
    <g id="line2d_18">
     <path d="M 456.164062 43.823125 
L 484.164062 43.823125 
" style="fill:none;stroke:#1f77b4;stroke-linecap:square;stroke-width:1.5;"/>
    </g>
    <g id="line2d_19"/>
    <g id="text_10">
     <!-- β = 0 -->
     <defs>
      <path d="M 18.40625 3.375 
L 18.40625 -20.796875 
L 9.375 -20.796875 
L 9.375 54.34375 
Q 9.375 76.609375 30.171875 76.609375 
Q 51.375 76.609375 51.375 57.8125 
Q 51.375 44.4375 42.96875 39.546875 
Q 56.640625 35.15625 56.640625 22.125 
Q 56.640625 -1.03125 33.109375 -1.03125 
Q 22.75 -1.03125 18.40625 3.375 
z
M 18.40625 15.09375 
Q 23.828125 6.640625 33.453125 6.640625 
Q 47.515625 6.640625 47.515625 21.96875 
Q 47.515625 35.75 24.859375 34.671875 
L 24.859375 42.96875 
Q 42.578125 42.96875 42.578125 58.59375 
Q 42.578125 69.28125 31.15625 69.28125 
Q 18.40625 69.28125 18.40625 54.046875 
z
" id="DejaVuSans-946"/>
      <path id="DejaVuSans-32"/>
      <path d="M 10.59375 45.40625 
L 73.1875 45.40625 
L 73.1875 37.203125 
L 10.59375 37.203125 
z
M 10.59375 25.484375 
L 73.1875 25.484375 
L 73.1875 17.1875 
L 10.59375 17.1875 
z
" id="DejaVuSans-61"/>
     </defs>
     <g transform="translate(495.364062 48.723125)scale(0.14 -0.14)">
      <use xlink:href="#DejaVuSans-946"/>
      <use x="63.818359" xlink:href="#DejaVuSans-32"/>
      <use x="95.605469" xlink:href="#DejaVuSans-61"/>
      <use x="179.394531" xlink:href="#DejaVuSans-32"/>
      <use x="211.181641" xlink:href="#DejaVuSans-48"/>
     </g>
    </g>
    <g id="line2d_20">
     <path d="M 456.164062 64.46 
L 484.164062 64.46 
" style="fill:none;stroke:#ff7f0e;stroke-linecap:square;stroke-width:1.5;"/>
    </g>
    <g id="line2d_21"/>
    <g id="text_11">
     <!-- β = 0.25 -->
     <defs>
      <path d="M 10.6875 12.40625 
L 21 12.40625 
L 21 0 
L 10.6875 0 
z
" id="DejaVuSans-46"/>
      <path d="M 10.796875 72.90625 
L 49.515625 72.90625 
L 49.515625 64.59375 
L 19.828125 64.59375 
L 19.828125 46.734375 
Q 21.96875 47.46875 24.109375 47.828125 
Q 26.265625 48.1875 28.421875 48.1875 
Q 40.625 48.1875 47.75 41.5 
Q 54.890625 34.8125 54.890625 23.390625 
Q 54.890625 11.625 47.5625 5.09375 
Q 40.234375 -1.421875 26.90625 -1.421875 
Q 22.3125 -1.421875 17.546875 -0.640625 
Q 12.796875 0.140625 7.71875 1.703125 
L 7.71875 11.625 
Q 12.109375 9.234375 16.796875 8.0625 
Q 21.484375 6.890625 26.703125 6.890625 
Q 35.15625 6.890625 40.078125 11.328125 
Q 45.015625 15.765625 45.015625 23.390625 
Q 45.015625 31 40.078125 35.4375 
Q 35.15625 39.890625 26.703125 39.890625 
Q 22.75 39.890625 18.8125 39.015625 
Q 14.890625 38.140625 10.796875 36.28125 
z
" id="DejaVuSans-53"/>
     </defs>
     <g transform="translate(495.364062 69.36)scale(0.14 -0.14)">
      <use xlink:href="#DejaVuSans-946"/>
      <use x="63.818359" xlink:href="#DejaVuSans-32"/>
      <use x="95.605469" xlink:href="#DejaVuSans-61"/>
      <use x="179.394531" xlink:href="#DejaVuSans-32"/>
      <use x="211.181641" xlink:href="#DejaVuSans-48"/>
      <use x="274.804688" xlink:href="#DejaVuSans-46"/>
      <use x="306.591797" xlink:href="#DejaVuSans-50"/>
      <use x="370.214844" xlink:href="#DejaVuSans-53"/>
     </g>
    </g>
    <g id="line2d_22">
     <path d="M 456.164062 85.096875 
L 484.164062 85.096875 
" style="fill:none;stroke:#2ca02c;stroke-linecap:square;stroke-width:1.5;"/>
    </g>
    <g id="line2d_23"/>
    <g id="text_12">
     <!-- β = 0.5 -->
     <g transform="translate(495.364062 89.996875)scale(0.14 -0.14)">
      <use xlink:href="#DejaVuSans-946"/>
      <use x="63.818359" xlink:href="#DejaVuSans-32"/>
      <use x="95.605469" xlink:href="#DejaVuSans-61"/>
      <use x="179.394531" xlink:href="#DejaVuSans-32"/>
      <use x="211.181641" xlink:href="#DejaVuSans-48"/>
      <use x="274.804688" xlink:href="#DejaVuSans-46"/>
      <use x="306.591797" xlink:href="#DejaVuSans-53"/>
     </g>
    </g>
    <g id="line2d_24">
     <path d="M 456.164062 105.73375 
L 484.164062 105.73375 
" style="fill:none;stroke:#d62728;stroke-linecap:square;stroke-width:1.5;"/>
    </g>
    <g id="line2d_25"/>
    <g id="text_13">
     <!-- β = 1 -->
     <g transform="translate(495.364062 110.63375)scale(0.14 -0.14)">
      <use xlink:href="#DejaVuSans-946"/>
      <use x="63.818359" xlink:href="#DejaVuSans-32"/>
      <use x="95.605469" xlink:href="#DejaVuSans-61"/>
      <use x="179.394531" xlink:href="#DejaVuSans-32"/>
      <use x="211.181641" xlink:href="#DejaVuSans-49"/>
     </g>
    </g>
   </g>
  </g>
 </g>
 <defs>
  <clipPath id="pfe6e0f8d89">
   <rect height="166.32" width="558" x="10.7" y="25.397812"/>
  </clipPath>
 </defs>
</svg>
