<?xml version="1.0" encoding="UTF-8" standalone="no"?>
<svg
   xmlns:dc="http://purl.org/dc/elements/1.1/"
   xmlns:cc="http://creativecommons.org/ns#"
   xmlns:rdf="http://www.w3.org/1999/02/22-rdf-syntax-ns#"
   xmlns:svg="http://www.w3.org/2000/svg"
   xmlns="http://www.w3.org/2000/svg"
   xmlns:xlink="http://www.w3.org/1999/xlink"
   xmlns:sodipodi="http://sodipodi.sourceforge.net/DTD/sodipodi-0.dtd"
   xmlns:inkscape="http://www.inkscape.org/namespaces/inkscape"
   height="215.10724pt"
   version="1.1"
   viewBox="0 0 555.42134 215.10724"
   width="555.42133pt"
   id="svg398"
   sodipodi:docname="rayleigh.svg"
   inkscape:version="1.0.1 (0767f8302a, 2020-10-17)">
  <metadata
     id="metadata402">
    <rdf:RDF>
      <cc:Work
         rdf:about="">
        <dc:format>image/svg+xml</dc:format>
        <dc:type
           rdf:resource="http://purl.org/dc/dcmitype/StillImage" />
      </cc:Work>
    </rdf:RDF>
  </metadata>
  <sodipodi:namedview
     pagecolor="#ffffff"
     bordercolor="#666666"
     borderopacity="1"
     objecttolerance="10"
     gridtolerance="10"
     guidetolerance="10"
     inkscape:pageopacity="0"
     inkscape:pageshadow="2"
     inkscape:window-width="2138"
     inkscape:window-height="1154"
     id="namedview400"
     showgrid="false"
     inkscape:zoom="1.4451952"
     inkscape:cx="389.85258"
     inkscape:cy="122.66061"
     inkscape:window-x="72"
     inkscape:window-y="27"
     inkscape:window-maximized="0"
     inkscape:current-layer="svg398"
     inkscape:document-rotation="0" />
  <defs
     id="defs4">
    <style
       type="text/css"
       id="style2">
*{stroke-linecap:butt;stroke-linejoin:round;}
  </style>
  </defs>
  <g
     id="axes_1"
     transform="translate(-27.290559,-24.284544)">
    <g
       id="patch_2">
      <path
         d="M 79.92,206.9784 H 575.424 V 27.9072 H 79.92 Z"
         style="fill:#ffffff"
         id="path9" />
    </g>
    <g
       id="matplotlib.axis_1">
      <g
         id="xtick_1">
        <g
           id="line2d_1">
          <defs
             id="defs13">
            <path
               d="M 0,0 V 3.5"
               id="m942b00f384"
               style="stroke:#000000;stroke-width:0.8" />
          </defs>
          <g
             id="g17">
            <use
               style="stroke:#000000;stroke-width:0.8"
               x="79.919998"
               xlink:href="#m942b00f384"
               y="206.97839"
               id="use15"
               width="100%"
               height="100%" />
          </g>
        </g>
        <g
           id="text_1">
          <!-- 0.0 -->
          <defs
             id="defs22">
            <path
               d="m 31.78125,66.40625 q -7.609375,0 -11.453125,-7.5 Q 16.5,51.421875 16.5,36.375 q 0,-14.984375 3.828125,-22.484375 3.84375,-7.5 11.453125,-7.5 7.671875,0 11.5,7.5 3.84375,7.5 3.84375,22.484375 0,15.046875 -3.84375,22.53125 -3.828125,7.5 -11.5,7.5 z m 0,7.8125 q 12.265625,0 18.734375,-9.703125 6.46875,-9.6875 6.46875,-28.140625 0,-18.40625 -6.46875,-28.109375 -6.46875,-9.6875 -18.734375,-9.6875 -12.25,0 -18.71875,9.6875 Q 6.59375,17.96875 6.59375,36.375 q 0,18.453125 6.46875,28.140625 6.46875,9.703125 18.71875,9.703125 z"
               id="DejaVuSans-48" />
            <path
               d="M 10.6875,12.40625 H 21 V 0 H 10.6875 Z"
               id="DejaVuSans-46" />
          </defs>
          <g
             transform="matrix(0.1,0,0,-0.1,71.968438,221.57684)"
             id="g30">
            <use
               xlink:href="#DejaVuSans-48"
               id="use24"
               x="0"
               y="0"
               width="100%"
               height="100%" />
            <use
               x="63.623047"
               xlink:href="#DejaVuSans-46"
               id="use26"
               y="0"
               width="100%"
               height="100%" />
            <use
               x="95.410156"
               xlink:href="#DejaVuSans-48"
               id="use28"
               y="0"
               width="100%"
               height="100%" />
          </g>
        </g>
      </g>
      <g
         id="xtick_2">
        <g
           id="line2d_2">
          <g
             id="g36">
            <use
               style="stroke:#000000;stroke-width:0.8"
               x="179.0208"
               xlink:href="#m942b00f384"
               y="206.97839"
               id="use34"
               width="100%"
               height="100%" />
          </g>
        </g>
        <g
           id="text_2">
          <!-- 0.2 -->
          <defs
             id="defs40">
            <path
               d="M 19.1875,8.296875 H 53.609375 V 0 H 7.328125 v 8.296875 q 5.609375,5.8125 15.296875,15.59375 9.703125,9.796875 12.1875,12.640625 4.734375,5.3125 6.609375,9 1.890625,3.6875 1.890625,7.25 0,5.8125 -4.078125,9.46875 -4.078125,3.671875 -10.625,3.671875 -4.640625,0 -9.796875,-1.609375 -5.140625,-1.609375 -11,-4.890625 v 9.96875 Q 13.765625,71.78125 18.9375,73 q 5.1875,1.21875 9.484375,1.21875 11.328125,0 18.0625,-5.671875 6.734375,-5.65625 6.734375,-15.125 0,-4.5 -1.6875,-8.53125 Q 49.859375,40.875 45.40625,35.40625 44.1875,33.984375 37.640625,27.21875 31.109375,20.453125 19.1875,8.296875 Z"
               id="DejaVuSans-50" />
          </defs>
          <g
             transform="matrix(0.1,0,0,-0.1,171.06924,221.57684)"
             id="g48">
            <use
               xlink:href="#DejaVuSans-48"
               id="use42"
               x="0"
               y="0"
               width="100%"
               height="100%" />
            <use
               x="63.623047"
               xlink:href="#DejaVuSans-46"
               id="use44"
               y="0"
               width="100%"
               height="100%" />
            <use
               x="95.410156"
               xlink:href="#DejaVuSans-50"
               id="use46"
               y="0"
               width="100%"
               height="100%" />
          </g>
        </g>
      </g>
      <g
         id="xtick_3">
        <g
           id="line2d_3">
          <g
             id="g54">
            <use
               style="stroke:#000000;stroke-width:0.8"
               x="278.12161"
               xlink:href="#m942b00f384"
               y="206.97839"
               id="use52"
               width="100%"
               height="100%" />
          </g>
        </g>
        <g
           id="text_3">
          <!-- 0.4 -->
          <defs
             id="defs58">
            <path
               d="M 37.796875,64.3125 12.890625,25.390625 h 24.90625 z m -2.59375,8.59375 h 12.40625 V 25.390625 h 10.40625 V 17.1875 H 47.609375 V 0 h -9.8125 V 17.1875 H 4.890625 v 9.515625 z"
               id="DejaVuSans-52" />
          </defs>
          <g
             transform="matrix(0.1,0,0,-0.1,270.17004,221.57684)"
             id="g66">
            <use
               xlink:href="#DejaVuSans-48"
               id="use60"
               x="0"
               y="0"
               width="100%"
               height="100%" />
            <use
               x="63.623047"
               xlink:href="#DejaVuSans-46"
               id="use62"
               y="0"
               width="100%"
               height="100%" />
            <use
               x="95.410156"
               xlink:href="#DejaVuSans-52"
               id="use64"
               y="0"
               width="100%"
               height="100%" />
          </g>
        </g>
      </g>
      <g
         id="xtick_4">
        <g
           id="line2d_4">
          <g
             id="g72">
            <use
               style="stroke:#000000;stroke-width:0.8"
               x="377.22241"
               xlink:href="#m942b00f384"
               y="206.97839"
               id="use70"
               width="100%"
               height="100%" />
          </g>
        </g>
        <g
           id="text_4">
          <!-- 0.6 -->
          <defs
             id="defs76">
            <path
               d="m 33.015625,40.375 q -6.640625,0 -10.53125,-4.546875 -3.875,-4.53125 -3.875,-12.4375 0,-7.859375 3.875,-12.4375 3.890625,-4.5625 10.53125,-4.5625 6.640625,0 10.515625,4.5625 3.875,4.578125 3.875,12.4375 0,7.90625 -3.875,12.4375 Q 39.65625,40.375 33.015625,40.375 Z M 52.59375,71.296875 V 62.3125 q -3.71875,1.75 -7.5,2.671875 -3.78125,0.9375 -7.5,0.9375 -9.765625,0 -14.921875,-6.59375 -5.140625,-6.59375 -5.875,-19.921875 2.875,4.25 7.21875,6.515625 4.359375,2.265625 9.578125,2.265625 10.984375,0 17.359375,-6.671875 6.375,-6.65625 6.375,-18.125 0,-11.234375 -6.640625,-18.03125 -6.640625,-6.78125 -17.671875,-6.78125 -12.65625,0 -19.34375,9.6875 -6.6875,9.703125 -6.6875,28.109375 0,17.28125 8.203125,27.5625 8.203125,10.28125 22.015625,10.28125 3.71875,0 7.5,-0.734375 3.78125,-0.734375 7.890625,-2.1875 z"
               id="DejaVuSans-54" />
          </defs>
          <g
             transform="matrix(0.1,0,0,-0.1,369.27084,221.57684)"
             id="g84">
            <use
               xlink:href="#DejaVuSans-48"
               id="use78"
               x="0"
               y="0"
               width="100%"
               height="100%" />
            <use
               x="63.623047"
               xlink:href="#DejaVuSans-46"
               id="use80"
               y="0"
               width="100%"
               height="100%" />
            <use
               x="95.410156"
               xlink:href="#DejaVuSans-54"
               id="use82"
               y="0"
               width="100%"
               height="100%" />
          </g>
        </g>
      </g>
      <g
         id="xtick_5">
        <g
           id="line2d_5">
          <g
             id="g90">
            <use
               style="stroke:#000000;stroke-width:0.8"
               x="476.32321"
               xlink:href="#m942b00f384"
               y="206.97839"
               id="use88"
               width="100%"
               height="100%" />
          </g>
        </g>
        <g
           id="text_5">
          <!-- 0.8 -->
          <defs
             id="defs94">
            <path
               d="m 31.78125,34.625 q -7.03125,0 -11.0625,-3.765625 -4.015625,-3.765625 -4.015625,-10.34375 0,-6.59375 4.015625,-10.359375 4.03125,-3.765625 11.0625,-3.765625 7.03125,0 11.078125,3.78125 4.0625,3.796875 4.0625,10.34375 0,6.578125 -4.03125,10.34375 Q 38.875,34.625 31.78125,34.625 Z m -9.859375,4.1875 Q 15.578125,40.375 12.03125,44.71875 8.5,49.078125 8.5,55.328125 q 0,8.734375 6.21875,13.8125 6.234375,5.078125 17.0625,5.078125 10.890625,0 17.09375,-5.078125 6.203125,-5.078125 6.203125,-13.8125 0,-6.25 -3.546875,-10.609375 Q 48,40.375 41.703125,38.8125 q 7.125,-1.65625 11.09375,-6.5 3.984375,-4.828125 3.984375,-11.796875 0,-10.609375 -6.46875,-16.28125 -6.46875,-5.65625 -18.53125,-5.65625 -12.046875,0 -18.53125,5.65625 -6.46875,5.671875 -6.46875,16.28125 0,6.96875 4,11.796875 4.015625,4.84375 11.140625,6.5 z M 18.3125,54.390625 q 0,-5.65625 3.53125,-8.828125 3.546875,-3.171875 9.9375,-3.171875 6.359375,0 9.9375,3.171875 3.59375,3.171875 3.59375,8.828125 0,5.671875 -3.59375,8.84375 -3.578125,3.171875 -9.9375,3.171875 -6.390625,0 -9.9375,-3.171875 Q 18.3125,60.0625 18.3125,54.390625 Z"
               id="DejaVuSans-56" />
          </defs>
          <g
             transform="matrix(0.1,0,0,-0.1,468.37164,221.57684)"
             id="g102">
            <use
               xlink:href="#DejaVuSans-48"
               id="use96"
               x="0"
               y="0"
               width="100%"
               height="100%" />
            <use
               x="63.623047"
               xlink:href="#DejaVuSans-46"
               id="use98"
               y="0"
               width="100%"
               height="100%" />
            <use
               x="95.410156"
               xlink:href="#DejaVuSans-56"
               id="use100"
               y="0"
               width="100%"
               height="100%" />
          </g>
        </g>
      </g>
      <g
         id="xtick_6">
        <g
           id="line2d_6">
          <g
             id="g108">
            <use
               style="stroke:#000000;stroke-width:0.8"
               x="575.42401"
               xlink:href="#m942b00f384"
               y="206.97839"
               id="use106"
               width="100%"
               height="100%" />
          </g>
        </g>
        <g
           id="text_6">
          <!-- 1.0 -->
          <defs
             id="defs112">
            <path
               d="m 12.40625,8.296875 h 16.109375 v 55.625 L 10.984375,60.40625 v 8.984375 l 17.4375,3.515625 H 38.28125 V 8.296875 H 54.390625 V 0 H 12.40625 Z"
               id="DejaVuSans-49" />
          </defs>
          <g
             transform="matrix(0.1,0,0,-0.1,567.47244,221.57684)"
             id="g120">
            <use
               xlink:href="#DejaVuSans-49"
               id="use114"
               x="0"
               y="0"
               width="100%"
               height="100%" />
            <use
               x="63.623047"
               xlink:href="#DejaVuSans-46"
               id="use116"
               y="0"
               width="100%"
               height="100%" />
            <use
               x="95.410156"
               xlink:href="#DejaVuSans-48"
               id="use118"
               y="0"
               width="100%"
               height="100%" />
          </g>
        </g>
      </g>
    </g>
    <g
       id="matplotlib.axis_2">
      <g
         id="ytick_1">
        <g
           id="line2d_7">
          <defs
             id="defs126">
            <path
               d="M 0,0 H -3.5"
               id="m0c3a38d91f"
               style="stroke:#000000;stroke-width:0.8" />
          </defs>
          <g
             id="g130">
            <use
               style="stroke:#000000;stroke-width:0.8"
               x="79.919998"
               xlink:href="#m0c3a38d91f"
               y="206.97839"
               id="use128"
               width="100%"
               height="100%" />
          </g>
        </g>
        <g
           id="text_7">
          <!-- −15.0 -->
          <defs
             id="defs135">
            <path
               d="M 10.59375,35.5 H 73.1875 V 27.203125 H 10.59375 Z"
               id="DejaVuSans-8722" />
            <path
               d="m 10.796875,72.90625 h 38.71875 v -8.3125 h -29.6875 V 46.734375 q 2.140625,0.734375 4.28125,1.09375 2.15625,0.359375 4.3125,0.359375 Q 40.625,48.1875 47.75,41.5 54.890625,34.8125 54.890625,23.390625 54.890625,11.625 47.5625,5.09375 40.234375,-1.421875 26.90625,-1.421875 q -4.59375,0 -9.359375,0.78125 -4.75,0.78125 -9.828125,2.34375 V 11.625 q 4.390625,-2.390625 9.078125,-3.5625 4.6875,-1.171875 9.90625,-1.171875 8.453125,0 13.375,4.4375 4.9375,4.4375 4.9375,12.0625 0,7.609375 -4.9375,12.046875 -4.921875,4.453125 -13.375,4.453125 -3.953125,0 -7.890625,-0.875 -3.921875,-0.875 -8.015625,-2.734375 z"
               id="DejaVuSans-53" />
          </defs>
          <g
             transform="matrix(0.1,0,0,-0.1,42.274687,210.77762)"
             id="g147">
            <use
               xlink:href="#DejaVuSans-8722"
               id="use137"
               x="0"
               y="0"
               width="100%"
               height="100%" />
            <use
               x="83.789062"
               xlink:href="#DejaVuSans-49"
               id="use139"
               y="0"
               width="100%"
               height="100%" />
            <use
               x="147.41211"
               xlink:href="#DejaVuSans-53"
               id="use141"
               y="0"
               width="100%"
               height="100%" />
            <use
               x="211.03516"
               xlink:href="#DejaVuSans-46"
               id="use143"
               y="0"
               width="100%"
               height="100%" />
            <use
               x="242.82227"
               xlink:href="#DejaVuSans-48"
               id="use145"
               y="0"
               width="100%"
               height="100%" />
          </g>
        </g>
      </g>
      <g
         id="ytick_2">
        <g
           id="line2d_8">
          <g
             id="g153">
            <use
               style="stroke:#000000;stroke-width:0.8"
               x="79.919998"
               xlink:href="#m0c3a38d91f"
               y="184.5945"
               id="use151"
               width="100%"
               height="100%" />
          </g>
        </g>
        <g
           id="text_8">
          <!-- −12.5 -->
          <g
             transform="matrix(0.1,0,0,-0.1,42.274687,188.39372)"
             id="g166">
            <use
               xlink:href="#DejaVuSans-8722"
               id="use156"
               x="0"
               y="0"
               width="100%"
               height="100%" />
            <use
               x="83.789062"
               xlink:href="#DejaVuSans-49"
               id="use158"
               y="0"
               width="100%"
               height="100%" />
            <use
               x="147.41211"
               xlink:href="#DejaVuSans-50"
               id="use160"
               y="0"
               width="100%"
               height="100%" />
            <use
               x="211.03516"
               xlink:href="#DejaVuSans-46"
               id="use162"
               y="0"
               width="100%"
               height="100%" />
            <use
               x="242.82227"
               xlink:href="#DejaVuSans-53"
               id="use164"
               y="0"
               width="100%"
               height="100%" />
          </g>
        </g>
      </g>
      <g
         id="ytick_3">
        <g
           id="line2d_9">
          <g
             id="g172">
            <use
               style="stroke:#000000;stroke-width:0.8"
               x="79.919998"
               xlink:href="#m0c3a38d91f"
               y="162.2106"
               id="use170"
               width="100%"
               height="100%" />
          </g>
        </g>
        <g
           id="text_9">
          <!-- −10.0 -->
          <g
             transform="matrix(0.1,0,0,-0.1,42.274687,166.00982)"
             id="g185">
            <use
               xlink:href="#DejaVuSans-8722"
               id="use175"
               x="0"
               y="0"
               width="100%"
               height="100%" />
            <use
               x="83.789062"
               xlink:href="#DejaVuSans-49"
               id="use177"
               y="0"
               width="100%"
               height="100%" />
            <use
               x="147.41211"
               xlink:href="#DejaVuSans-48"
               id="use179"
               y="0"
               width="100%"
               height="100%" />
            <use
               x="211.03516"
               xlink:href="#DejaVuSans-46"
               id="use181"
               y="0"
               width="100%"
               height="100%" />
            <use
               x="242.82227"
               xlink:href="#DejaVuSans-48"
               id="use183"
               y="0"
               width="100%"
               height="100%" />
          </g>
        </g>
      </g>
      <g
         id="ytick_4">
        <g
           id="line2d_10">
          <g
             id="g191">
            <use
               style="stroke:#000000;stroke-width:0.8"
               x="79.919998"
               xlink:href="#m0c3a38d91f"
               y="139.82671"
               id="use189"
               width="100%"
               height="100%" />
          </g>
        </g>
        <g
           id="text_10">
          <!-- −7.5 -->
          <defs
             id="defs195">
            <path
               d="m 8.203125,72.90625 h 46.875 V 68.703125 L 28.609375,0 H 18.3125 L 43.21875,64.59375 H 8.203125 Z"
               id="DejaVuSans-55" />
          </defs>
          <g
             transform="matrix(0.1,0,0,-0.1,48.637187,143.62592)"
             id="g205">
            <use
               xlink:href="#DejaVuSans-8722"
               id="use197"
               x="0"
               y="0"
               width="100%"
               height="100%" />
            <use
               x="83.789062"
               xlink:href="#DejaVuSans-55"
               id="use199"
               y="0"
               width="100%"
               height="100%" />
            <use
               x="147.41211"
               xlink:href="#DejaVuSans-46"
               id="use201"
               y="0"
               width="100%"
               height="100%" />
            <use
               x="179.19922"
               xlink:href="#DejaVuSans-53"
               id="use203"
               y="0"
               width="100%"
               height="100%" />
          </g>
        </g>
      </g>
      <g
         id="ytick_5">
        <g
           id="line2d_11">
          <g
             id="g211">
            <use
               style="stroke:#000000;stroke-width:0.8"
               x="79.919998"
               xlink:href="#m0c3a38d91f"
               y="117.4428"
               id="use209"
               width="100%"
               height="100%" />
          </g>
        </g>
        <g
           id="text_11">
          <!-- −5.0 -->
          <g
             transform="matrix(0.1,0,0,-0.1,48.637187,121.24202)"
             id="g222">
            <use
               xlink:href="#DejaVuSans-8722"
               id="use214"
               x="0"
               y="0"
               width="100%"
               height="100%" />
            <use
               x="83.789062"
               xlink:href="#DejaVuSans-53"
               id="use216"
               y="0"
               width="100%"
               height="100%" />
            <use
               x="147.41211"
               xlink:href="#DejaVuSans-46"
               id="use218"
               y="0"
               width="100%"
               height="100%" />
            <use
               x="179.19922"
               xlink:href="#DejaVuSans-48"
               id="use220"
               y="0"
               width="100%"
               height="100%" />
          </g>
        </g>
      </g>
      <g
         id="ytick_6">
        <g
           id="line2d_12">
          <g
             id="g228">
            <use
               style="stroke:#000000;stroke-width:0.8"
               x="79.919998"
               xlink:href="#m0c3a38d91f"
               y="95.058899"
               id="use226"
               width="100%"
               height="100%" />
          </g>
        </g>
        <g
           id="text_12">
          <!-- −2.5 -->
          <g
             transform="matrix(0.1,0,0,-0.1,48.637187,98.858119)"
             id="g239">
            <use
               xlink:href="#DejaVuSans-8722"
               id="use231"
               x="0"
               y="0"
               width="100%"
               height="100%" />
            <use
               x="83.789062"
               xlink:href="#DejaVuSans-50"
               id="use233"
               y="0"
               width="100%"
               height="100%" />
            <use
               x="147.41211"
               xlink:href="#DejaVuSans-46"
               id="use235"
               y="0"
               width="100%"
               height="100%" />
            <use
               x="179.19922"
               xlink:href="#DejaVuSans-53"
               id="use237"
               y="0"
               width="100%"
               height="100%" />
          </g>
        </g>
      </g>
      <g
         id="ytick_7">
        <g
           id="line2d_13">
          <g
             id="g245">
            <use
               style="stroke:#000000;stroke-width:0.8"
               x="79.919998"
               xlink:href="#m0c3a38d91f"
               y="72.675003"
               id="use243"
               width="100%"
               height="100%" />
          </g>
        </g>
        <g
           id="text_13">
          <!-- 0.0 -->
          <g
             transform="matrix(0.1,0,0,-0.1,57.016875,76.474219)"
             id="g254">
            <use
               xlink:href="#DejaVuSans-48"
               id="use248"
               x="0"
               y="0"
               width="100%"
               height="100%" />
            <use
               x="63.623047"
               xlink:href="#DejaVuSans-46"
               id="use250"
               y="0"
               width="100%"
               height="100%" />
            <use
               x="95.410156"
               xlink:href="#DejaVuSans-48"
               id="use252"
               y="0"
               width="100%"
               height="100%" />
          </g>
        </g>
      </g>
      <g
         id="ytick_8">
        <g
           id="line2d_14">
          <g
             id="g260">
            <use
               style="stroke:#000000;stroke-width:0.8"
               x="79.919998"
               xlink:href="#m0c3a38d91f"
               y="50.2911"
               id="use258"
               width="100%"
               height="100%" />
          </g>
        </g>
        <g
           id="text_14">
          <!-- 2.5 -->
          <g
             transform="matrix(0.1,0,0,-0.1,57.016875,54.090319)"
             id="g269">
            <use
               xlink:href="#DejaVuSans-50"
               id="use263"
               x="0"
               y="0"
               width="100%"
               height="100%" />
            <use
               x="63.623047"
               xlink:href="#DejaVuSans-46"
               id="use265"
               y="0"
               width="100%"
               height="100%" />
            <use
               x="95.410156"
               xlink:href="#DejaVuSans-53"
               id="use267"
               y="0"
               width="100%"
               height="100%" />
          </g>
        </g>
      </g>
      <g
         id="ytick_9">
        <g
           id="line2d_15">
          <g
             id="g275">
            <use
               style="stroke:#000000;stroke-width:0.8"
               x="79.919998"
               xlink:href="#m0c3a38d91f"
               y="27.9072"
               id="use273"
               width="100%"
               height="100%" />
          </g>
        </g>
        <g
           id="text_15">
          <!-- 5.0 -->
          <g
             transform="matrix(0.1,0,0,-0.1,57.016875,31.706419)"
             id="g284">
            <use
               xlink:href="#DejaVuSans-53"
               id="use278"
               x="0"
               y="0"
               width="100%"
               height="100%" />
            <use
               x="63.623047"
               xlink:href="#DejaVuSans-46"
               id="use280"
               y="0"
               width="100%"
               height="100%" />
            <use
               x="95.410156"
               xlink:href="#DejaVuSans-48"
               id="use282"
               y="0"
               width="100%"
               height="100%" />
          </g>
        </g>
      </g>
    </g>
    <g
       id="line2d_16">
      <path
         clip-path="url(#p50351551ed)"
         d="m 79.92,96.681976 0.277482,0.380501 0.173427,-0.05485 0.208111,-0.360078 0.302258,-1.049607 0.450908,-2.487086 0.847312,-6.190115 1.461737,-10.385731 0.941458,-5.115549 0.837401,-3.403977 0.748211,-2.179063 0.654066,-1.276983 0.559919,-0.648085 0.475684,-0.236857 0.426134,0.02901 0.431088,0.260146 0.485594,0.572041 0.559919,1.031698 0.639201,1.67932 0.713525,2.538244 0.782897,3.652956 0.842356,5.049956 0.901818,6.832068 1.050468,9.798868 1.332906,12.268037 0.396403,1.82466 0.237842,0.30944 0.138741,-0.11353 0.198202,-0.52838 0.302257,-1.54712 0.485594,-3.83911 2.948251,-25.716557 1.01578,-5.970625 1.00587,-4.643458 0.99597,-3.589933 0.96623,-2.689181 0.92164,-1.941441 0.86218,-1.325499 0.78785,-0.827402 0.71848,-0.448516 0.65902,-0.158799 0.62929,0.07484 0.63424,0.30363 0.66893,0.57673 0.71848,0.926753 0.77795,1.385191 0.83244,1.957371 0.88695,2.679209 0.93651,3.569876 0.97614,4.632951 1.02569,5.991834 1.11984,7.933155 2.66086,19.628251 0.41127,1.22671 0.27252,0.26272 0.19821,-0.0837 0.24279,-0.3957 0.35181,-1.06476 0.55001,-2.48494 2.76491,-13.59579 0.82254,-2.524941 0.74325,-1.61141 0.6838,-0.985536 0.64415,-0.558938 0.64416,-0.272531 0.74821,-0.06564 2.23472,-0.03504 0.64911,-0.35048 0.66893,-0.627513 0.78786,-1.068944 1.14461,-1.98116 1.79868,-3.075804 0.82254,-0.971057 0.64415,-0.442744 0.53515,-0.114754 0.49054,0.120747 0.49551,0.361734 0.53514,0.684502 0.58965,1.139198 0.64911,1.76852 0.70362,2.601205 0.74326,3.640589 0.77298,4.953049 0.77794,6.495246 0.75812,8.268262 0.72344,10.40269 0.68875,13.23384 0.78785,19.95422 0.47568,9.64861 0.13875,0.65202 0.0347,-0.0459 0.0991,-0.57919 0.1982,-2.84548 0.49055,-11.3467 0.80767,-16.82735 0.69866,-10.07403 0.69867,-7.04442 0.67388,-4.69217 0.61443,-2.84574 0.52523,-1.49526 0.42613,-0.62629 0.32704,-0.13624 0.28243,0.12073 0.32208,0.40855 0.3964,0.90608 0.47569,1.69551 0.55496,2.86313 0.64416,4.58466 0.82253,7.64679 0.882,7.76384 0.29235,1.01216 0.11396,0.0127 0.0198,-0.0217 0.1437,-0.37454 0.22793,-1.35983 0.35677,-3.72053 0.71352,-10.36841 1.30318,-18.277631 0.98605,-10.675577 0.96623,-8.146641 0.95137,-6.223627 0.91668,-4.598623 0.85227,-3.2087 0.77299,-2.105725 0.67884,-1.256764 0.58469,-0.653548 0.49551,-0.24759 0.44595,0.0172 0.44595,0.246624 0.49055,0.541162 0.55992,0.974001 0.62929,1.57065 0.69866,2.379217 0.75317,3.398909 0.78785,4.632499 0.79776,6.06689 0.78785,7.767019 0.74821,9.669828 0.68875,11.896487 0.62434,14.80234 0.60947,20.12858 0.52523,15.58939 0.0644,0.27872 0.0545,-0.20271 0.11892,-1.72615 0.27749,-8.24568 0.84731,-25.40616 0.64911,-12.51207 0.6838,-9.089525 0.70361,-6.544652 0.68875,-4.459373 0.6392,-2.799187 0.56488,-1.566123 0.46577,-0.712013 0.37163,-0.211795 0.31712,0.06376 0.33694,0.31333 0.40136,0.706921 0.48064,1.33895 0.55496,2.256714 0.61443,3.488295 0.65406,5.063505 0.66893,7.000693 0.65902,9.33665 0.65407,12.61087 1.18921,24.15785 0.0545,-0.0831 0.10901,-0.77694 0.21306,-3.48375 0.58965,-14.78611 0.78785,-17.05044 0.74822,-11.52091 0.77298,-8.615012 0.77794,-6.310114 0.75317,-4.403417 0.6937,-2.839197 0.61443,-1.658809 0.51532,-0.816046 0.41623,-0.289877 0.3518,0.0089 0.35181,0.241764 0.40632,0.572195 0.48063,1.091882 0.56488,1.880968 0.64415,2.97621 0.73335,4.517546 0.91173,7.146233 1.11984,8.553544 0.35676,1.2567 0.19325,0.11007 0.14865,-0.22002 0.22297,-0.8285 0.33199,-2.23624 0.5401,-5.421256 2.42302,-26.130246 1.01578,-7.846397 0.98605,-5.963843 0.95137,-4.45382 0.89191,-3.172237 0.82253,-2.155772 0.7383,-1.35436 0.64911,-0.760742 0.56488,-0.345346 0.51037,-0.06327 0.50046,0.165448 0.53019,0.421136 0.58965,0.768322 0.66397,1.251508 0.74326,1.905317 0.81262,2.731208 0.86714,3.731783 0.90677,4.927258 0.92164,6.279173 0.92163,7.863981 0.90678,9.714292 0.92163,12.384153 1.64012,22.78821 0.25271,0.84604 0.10405,-0.0637 0.14866,-0.49071 0.2527,-1.76266 0.46082,-5.10701 1.59552,-18.563602 0.84732,-6.929713 0.82253,-4.99407 0.79776,-3.548315 0.75317,-2.39611 0.69371,-1.514432 0.61938,-0.860995 0.55001,-0.41422 0.50045,-0.112534 0.49055,0.119023 0.53019,0.370434 0.59956,0.707124 0.69371,1.183492 0.79776,1.82845 0.89686,2.640527 0.99101,3.643083 1.05047,4.739673 1.07029,5.883447 1.04056,6.990688 0.96623,8.03356 0.86713,9.10285 0.76803,10.45486 0.67389,12.28542 0.60451,15.2699 0.97614,28.00066 0.0595,-0.24783 0.12388,-1.96525 0.28244,-9.04327 0.89686,-29.13025 0.71848,-15.63609 0.81758,-13.05413 0.9266,-11.30066 1.02569,-9.839622 1.10002,-8.461156 1.13966,-7.096298 1.13966,-5.748448 1.10497,-4.479614 1.04056,-3.335014 0.95632,-2.359863 0.86218,-1.572776 0.76803,-0.969542 0.68379,-0.527103 0.61939,-0.208223 0.58469,0.03442 0.59956,0.262984 0.65902,0.545318 0.75317,0.929719 0.91668,1.509966 1.50633,2.995918 1.15948,2.084366 0.65406,0.757957 0.4856,0.254003 0.40631,-0.02765 0.40632,-0.262033 0.46577,-0.589092 0.57478,-1.120419 0.75812,-2.01334 1.24867,-4.053788 1.98202,-6.327701 1.09507,-2.754389 0.91172,-1.730841 0.78785,-1.049089 0.6838,-0.562687 0.60451,-0.222989 0.55992,0.02622 0.56488,0.255729 0.60451,0.531519 0.66893,0.902661 0.74821,1.406886 0.83245,2.066991 0.92164,2.917187 1.01083,3.973134 1.11488,5.326344 1.25363,7.131843 1.52119,10.031527 3.2406,23.384095 1.51624,11.97421 1.1248,10.8437 0.91172,8.23288 0.31713,1.22139 0.12387,0.0434 0.0248,-0.0241 0.13874,-0.34344 0.21802,-1.25139 0.33694,-3.44607 0.60452,-8.93148 1.66489,-25.045291 1.05542,-12.221052 1.05543,-9.720635 1.05542,-7.733384 1.03065,-5.97806 0.98605,-4.473399 0.91668,-3.18509 0.83741,-2.154119 0.74325,-1.339854 0.64911,-0.744901 0.56488,-0.331947 0.50541,-0.05008 0.49551,0.17631 0.53018,0.435716 0.59461,0.793273 0.67884,1.300985 0.76803,1.980719 0.87704,2.912302 1.03561,4.263349 1.69958,8.150511 1.04055,4.42111 0.60947,1.724539 0.43605,0.658757 0.32703,0.14722 0.28739,-0.113679 0.33695,-0.402327 0.4509,-0.92654 0.66398,-1.937667 2.83924,-8.896067 0.75812,-1.427947 0.62929,-0.749708 0.53019,-0.31238 0.46577,-0.02775 0.45587,0.20063 0.49054,0.472881 0.55497,0.864766 0.62929,1.420181 0.70361,2.171607 0.76803,3.129792 0.82254,4.328479 0.86218,5.779438 0.89686,7.590271 0.96128,10.140612 1.75904,19.115059 0.31217,1.14958 0.14865,0.061 0.0149,-0.0114 0.14865,-0.28494 0.23785,-1.0532 0.38153,-2.88017 0.83245,-8.46799 1.1793,-11.196245 0.92659,-6.730137 0.88695,-4.886946 0.84732,-3.491913 0.80271,-2.419863 0.7383,-1.567006 0.66398,-0.927989 0.58965,-0.471847 0.53019,-0.156186 0.50541,0.07995 0.52524,0.316334 0.57478,0.61935 0.64416,1.041611 0.70857,1.593008 0.76307,2.288818 0.80272,3.14121 0.82254,4.154739 0.81758,5.313629 0.79776,6.692883 0.76308,8.3387 0.72839,10.50409 0.72343,13.85694 0.98605,19.03982 0.12884,0.42658 0.0347,-0.042 0.0991,-0.48421 0.19325,-2.33088 0.3964,-8.18424 1.10993,-23.13355 0.79281,-11.62547 0.81758,-8.850349 0.82749,-6.660487 0.80767,-4.805591 0.75317,-3.237237 0.67388,-1.994504 0.56983,-1.062077 0.46578,-0.451979 0.38153,-0.08997 0.35181,0.145237 0.3865,0.420249 0.44595,0.84108 0.51532,1.484177 0.57479,2.380201 0.61938,3.570559 0.6392,5.052497 0.63424,6.860154 0.60947,9.1235 0.55992,11.85037 0.52028,15.96789 0.72839,24.30025 0.0347,-0.12982 0.0941,-1.48807 0.22298,-8.07858 0.87704,-33.55806 0.65902,-15.90364 0.74326,-12.735034 0.81758,-10.316776 0.87209,-8.286138 0.8919,-6.442392 0.882,-4.831959 0.84236,-3.44438 0.77298,-2.284661 0.6838,-1.382048 0.58965,-0.734804 0.50046,-0.300345 0.44595,-0.0198 0.441,0.210671 0.48064,0.493656 0.54505,0.901352 0.61938,1.483596 0.68876,2.262415 0.74821,3.263732 0.78785,4.478429 0.80767,5.930059 0.80272,7.611686 0.77298,9.53451 0.72839,11.836922 0.70362,15.231399 1.06038,23.57671 0.0842,0.20835 0.0496,-0.0979 0.11892,-0.86634 0.23289,-3.73049 1.81355,-34.367204 0.70361,-7.36472 0.68875,-5.016634 0.6392,-3.150191 0.56488,-1.768433 0.46577,-0.81103 0.36172,-0.246276 0.30226,0.04671 0.31712,0.29632 0.38154,0.697903 0.45586,1.342783 0.53019,2.314491 0.58469,3.622268 0.61443,5.28798 0.61442,7.323753 0.57974,9.69536 0.52028,12.59272 0.441,16.33025 0.34685,21.48462 0.25271,30.437 0.15105,40.91426 m 0.0979,0 0.26641,-58.24722 0.3518,-28.91998 0.46578,-20.63568 0.56983,-15.77017 0.66397,-12.458995 0.7383,-9.827105 0.77794,-7.513203 0.7829,-5.509962 0.74821,-3.783186 0.6838,-2.394044 0.58965,-1.332187 0.49055,-0.620562 0.40135,-0.186148 0.35181,0.07393 0.37163,0.32087 0.43109,0.6916 0.50541,1.265399 0.57974,2.096576 0.64416,3.222525 0.6937,4.677121 0.73335,6.553581 0.79281,9.214311 1.40227,16.774649 0.22793,0.59598 0.0991,-0.1196 0.15857,-0.67002 0.26261,-2.26208 0.47073,-6.36659 1.64012,-23.255232 0.90182,-9.182896 0.8919,-6.906628 0.87209,-5.102229 0.83245,-3.621318 0.76803,-2.411418 0.68875,-1.482668 0.59956,-0.805833 0.51532,-0.350213 0.45587,-0.05507 0.45091,0.174945 0.49054,0.444332 0.56488,0.833623 0.65902,1.399367 0.76308,2.176864 0.90181,3.290865 1.16939,5.191569 1.92751,8.597657 0.62929,1.794887 0.45587,0.715529 0.34685,0.185044 0.30226,-0.08588 0.34685,-0.356925 0.46577,-0.839772 0.70857,-1.803673 2.18022,-5.814982 0.74821,-1.272628 0.61443,-0.64151 0.52028,-0.246162 0.47568,0.01463 0.48064,0.244075 0.5401,0.540454 0.63424,0.972429 0.77795,1.630563 1.10001,2.885081 1.65003,4.278521 0.65902,1.107198 0.49055,0.436953 0.40632,0.08538 0.39144,-0.150784 0.45587,-0.435009 0.60947,-0.923172 1.12975,-2.211417 1.13966,-2.035848 0.69866,-0.825103 0.5401,-0.324981 0.45586,-0.02843 0.43109,0.200898 0.45586,0.473051 0.51037,0.873349 0.57478,1.45866 0.63425,2.260626 0.67884,3.288861 0.71353,4.617251 0.71848,6.167544 0.70361,8.029311 0.66893,10.267414 0.62929,13.22881 0.66893,19.23927 0.48064,11.71316 0.0942,0.43941 0.0495,-0.13077 0.11396,-1.20785 0.23785,-5.53807 1.28335,-33.70878 0.71353,-11.539804 0.75316,-8.728231 0.77299,-6.502044 0.76803,-4.683294 0.73335,-3.188442 0.67884,-2.031063 0.60451,-1.167818 0.53019,-0.584468 0.46578,-0.208836 0.44595,0.04031 0.48559,0.280469 0.58965,0.618345 0.83245,1.234401 1.6203,2.44127 0.55001,0.417799 0.42613,0.06378 0.3964,-0.170738 0.441,-0.454855 0.54506,-0.916723 0.74821,-1.7476 2.86897,-7.169264 0.67884,-0.939061 0.54505,-0.406832 0.45587,-0.07855 0.42117,0.154753 0.44596,0.417127 0.50046,0.799278 0.55991,1.342604 0.62434,2.111841 0.67884,3.128258 0.71848,4.416472 0.74326,6.02394 0.75812,8.05283 0.80271,11.055356 1.26354,17.75284 0.22793,0.74974 0.0892,-0.1083 0.14865,-0.67567 0.25767,-2.43744 0.4955,-7.29728 1.2784,-18.955374 0.83245,-8.912039 0.80767,-6.389197 0.77298,-4.445662 0.70858,-2.868223 0.61938,-1.664097 0.52027,-0.828385 0.42118,-0.300582 0.35181,0.0013 0.35181,0.233121 0.40136,0.5553 0.47568,1.073624 0.54506,1.822609 0.60947,2.871201 0.64911,4.190717 0.66893,5.844902 0.66397,7.859496 0.63425,10.277239 0.60451,13.60379 1.05047,26.20875 0.0446,-0.10046 0.10406,-1.02484 0.21802,-4.96061 1.4766,-39.353203 0.73831,-11.732509 0.78785,-9.119855 0.81262,-6.945431 0.80767,-5.097628 0.77299,-3.545959 0.70857,-2.27901 0.61938,-1.308146 0.52524,-0.639925 0.43604,-0.214463 0.38649,0.04708 0.40136,0.284734 0.45586,0.617951 0.53019,1.122476 0.60947,1.850816 0.67885,2.818054 0.7383,4.064477 0.7928,5.677972 0.85227,7.80483 1.20903,13.496683 0.67388,6.259519 0.33199,1.422599 0.16352,0.121583 0.0149,-0.0089 0.13874,-0.241754 0.21803,-0.929861 0.34685,-2.618292 0.66397,-7.084271 1.37255,-14.421671 0.91173,-7.19822 0.85226,-5.059315 0.79777,-3.485436 0.73334,-2.275428 0.64911,-1.347105 0.55992,-0.696146 0.48064,-0.271316 0.43109,0.0037 0.43604,0.235048 0.49055,0.536487 0.56983,0.977943 0.66398,1.611347 0.77298,2.499629 0.90182,3.720762 1.12479,5.667906 2.31401,11.934252 0.59956,1.850739 0.44595,0.753424 0.34685,0.207943 0.30226,-0.0691 0.35181,-0.334071 0.48559,-0.805894 0.84731,-1.920755 1.37751,-3.037783 0.75812,-1.146889 0.63424,-0.585784 0.56983,-0.239207 0.55992,0.0043 0.63425,0.238868 0.92659,0.6209 1.21398,0.764836 0.60452,0.119225 0.51532,-0.121787 0.52524,-0.36159 0.60947,-0.71056 0.80271,-1.312779 2.59644,-4.513772 0.64912,-0.589156 0.52523,-0.197716 0.46082,0.05893 0.45586,0.290786 0.49551,0.596734 0.55992,1.048044 0.63424,1.692224 0.72344,2.607583 0.85226,3.966364 2.36356,11.625048 0.32703,0.468759 0.21307,-0.01028 0.21802,-0.280248 0.2973,-0.810965 0.41622,-1.86849 0.64416,-4.06131 2.5568,-17.112739 0.90182,-4.162853 0.78785,-2.659279 0.67884,-1.574783 0.57478,-0.824152 0.47569,-0.332158 0.41127,-0.03224 0.40135,0.197107 0.44596,0.485359 0.52028,0.923417 0.60451,1.559063 0.70857,2.486021 0.86218,3.90494 2.17031,10.306762 0.36667,0.634277 0.23289,0.05171 0.20811,-0.201015 0.27748,-0.629495 0.38649,-1.508924 0.56488,-3.222878 1.21398,-8.598068 1.31309,-8.581039 0.98605,-5.040284 0.86713,-3.347866 0.76308,-2.122444 0.65407,-1.219513 0.55496,-0.605469 0.46082,-0.202939 0.21306,-0.0011 v 0"
         style="fill:none;stroke:#1f77b4;stroke-width:1.5;stroke-linecap:square"
         id="path289" />
    </g>
    <g
       id="line2d_17">
      <path
         clip-path="url(#p50351551ed)"
         d="M 79.92,72.675 H 575.424"
         style="fill:none;stroke:#ff0000;stroke-width:1.5;stroke-dasharray:1.5, 2.475;stroke-dashoffset:0"
         id="path292" />
    </g>
    <g
       id="patch_3">
      <path
         d="M 79.92,206.9784 V 27.9072"
         style="fill:none;stroke:#000000;stroke-width:0.8;stroke-linecap:square;stroke-linejoin:miter"
         id="path295" />
    </g>
    <g
       id="patch_4">
      <path
         d="M 575.424,206.9784 V 27.9072"
         style="fill:none;stroke:#000000;stroke-width:0.8;stroke-linecap:square;stroke-linejoin:miter"
         id="path298" />
    </g>
    <g
       id="patch_5">
      <path
         d="M 79.92,206.9784 H 575.424"
         style="fill:none;stroke:#000000;stroke-width:0.8;stroke-linecap:square;stroke-linejoin:miter"
         id="path301" />
    </g>
    <g
       id="patch_6">
      <path
         d="M 79.92,27.9072 H 575.424"
         style="fill:none;stroke:#000000;stroke-width:0.8;stroke-linecap:square;stroke-linejoin:miter"
         id="path304" />
    </g>
    <g
       id="legend_1">
      <g
         id="patch_7">
        <path
           d="m 86.92,201.9784 h 112.24375 q 2,0 2,-2 v -28.35625 q 0,-2 -2,-2 H 86.92 q -2,0 -2,2 v 28.35625 q 0,2 2,2 z"
           style="opacity:0.8;fill:#ffffff;stroke:#cccccc;stroke-linejoin:miter"
           id="path307" />
      </g>
      <g
         id="line2d_18">
        <path
           d="m 88.92,177.72059 h 20"
           style="fill:none;stroke:#1f77b4;stroke-width:1.5;stroke-linecap:square"
           id="path310" />
      </g>
      <g
         id="line2d_19" />
      <g
         id="text_16">
        <!-- Rayleigh Fading -->
        <defs
           id="defs326">
          <path
             d="m 44.390625,34.1875 q 3.171875,-1.078125 6.171875,-4.59375 3,-3.515625 6.03125,-9.671875 L 66.609375,0 H 56 l -9.3125,18.703125 q -3.625,7.328125 -7.015625,9.71875 -3.390625,2.390625 -9.25,2.390625 h -10.75 V 0 H 9.8125 v 72.90625 h 22.265625 q 12.5,0 18.65625,-5.234375 6.15625,-5.21875 6.15625,-15.765625 0,-6.890625 -3.203125,-11.4375 -3.203125,-4.53125 -9.296875,-6.28125 z m -24.71875,30.609375 v -25.875 h 12.40625 q 7.125,0 10.765625,3.296875 3.640625,3.296875 3.640625,9.6875 0,6.390625 -3.640625,9.640625 -3.640625,3.25 -10.765625,3.25 z"
             id="DejaVuSans-82" />
          <path
             d="m 34.28125,27.484375 q -10.890625,0 -15.09375,-2.484375 -4.203125,-2.484375 -4.203125,-8.5 0,-4.78125 3.15625,-7.59375 3.15625,-2.796875 8.5625,-2.796875 7.484375,0 12,5.296875 4.515625,5.296875 4.515625,14.078125 v 2 z m 17.921875,3.71875 V 0 H 43.21875 v 8.296875 q -3.078125,-4.96875 -7.671875,-7.34375 -4.59375,-2.375 -11.234375,-2.375 -8.390625,0 -13.359375,4.71875 Q 6,8.015625 6,15.921875 q 0,9.21875 6.171875,13.90625 6.1875,4.6875 18.4375,4.6875 H 43.21875 v 0.890625 q 0,6.203125 -4.078125,9.59375 -4.078125,3.390625 -11.453125,3.390625 -4.6875,0 -9.140625,-1.125 -4.4375,-1.125 -8.53125,-3.375 v 8.3125 q 4.921875,1.90625 9.5625,2.84375 Q 24.21875,56 28.609375,56 q 11.875,0 17.734375,-6.15625 5.859375,-6.140625 5.859375,-18.640625 z"
             id="DejaVuSans-97" />
          <path
             d="M 32.171875,-5.078125 Q 28.375,-14.84375 24.75,-17.8125 q -3.609375,-2.984375 -9.65625,-2.984375 h -7.1875 v 7.515625 h 5.28125 q 3.703125,0 5.75,1.765625 2.0625,1.75 4.546875,8.296875 L 25.09375,0.875 2.984375,54.6875 H 12.5 L 29.59375,11.921875 46.6875,54.6875 h 9.515625 z"
             id="DejaVuSans-121" />
          <path
             d="M 9.421875,75.984375 H 18.40625 V 0 H 9.421875 Z"
             id="DejaVuSans-108" />
          <path
             d="m 56.203125,29.59375 v -4.390625 h -41.3125 q 0.59375,-9.28125 5.59375,-14.140625 5,-4.859375 13.9375,-4.859375 5.171875,0 10.03125,1.265625 4.859375,1.265625 9.65625,3.8125 v -8.5 q -4.84375,-2.046875 -9.921875,-3.125 -5.078125,-1.078125 -10.296875,-1.078125 -13.09375,0 -20.734375,7.609375 -7.640625,7.625 -7.640625,20.625 0,13.421875 7.25,21.296875 Q 20.015625,56 32.328125,56 q 11.03125,0 17.453125,-7.109375 6.421875,-7.09375 6.421875,-19.296875 z m -8.984375,2.640625 q -0.09375,7.359375 -4.125,11.75 -4.03125,4.40625 -10.671875,4.40625 -7.515625,0 -12.03125,-4.25 -4.515625,-4.25 -5.203125,-11.96875 z"
             id="DejaVuSans-101" />
          <path
             d="M 9.421875,54.6875 H 18.40625 V 0 H 9.421875 Z m 0,21.296875 H 18.40625 V 64.59375 H 9.421875 Z"
             id="DejaVuSans-105" />
          <path
             d="m 45.40625,27.984375 q 0,9.765625 -4.03125,15.125 -4.015625,5.375 -11.296875,5.375 -7.21875,0 -11.25,-5.375 -4.03125,-5.359375 -4.03125,-15.125 0,-9.71875 4.03125,-15.09375 4.03125,-5.375 11.25,-5.375 7.28125,0 11.296875,5.375 4.03125,5.375 4.03125,15.09375 z M 54.390625,6.78125 q 0,-13.953125 -6.203125,-20.765625 -6.1875,-6.8125 -18.984375,-6.8125 -4.734375,0 -8.9375,0.703125 -4.203125,0.703125 -8.15625,2.171875 V -9.1875 q 3.953125,-2.140625 7.8125,-3.15625 3.859375,-1.03125 7.859375,-1.03125 8.84375,0 13.234375,4.609375 4.390625,4.609375 4.390625,13.9375 V 9.625 Q 42.625,4.78125 38.28125,2.390625 33.9375,0 27.875,0 17.828125,0 11.671875,7.65625 q -6.15625,7.671875 -6.15625,20.328125 0,12.6875 6.15625,20.34375 Q 17.828125,56 27.875,56 q 6.0625,0 10.40625,-2.390625 4.34375,-2.390625 7.125,-7.21875 V 54.6875 h 8.984375 z"
             id="DejaVuSans-103" />
          <path
             d="M 54.890625,33.015625 V 0 H 45.90625 v 32.71875 q 0,7.765625 -3.03125,11.609375 -3.03125,3.859375 -9.078125,3.859375 -7.28125,0 -11.484375,-4.640625 -4.203125,-4.625 -4.203125,-12.640625 V 0 h -9.03125 v 75.984375 h 9.03125 V 46.1875 q 3.234375,4.9375 7.59375,7.375 4.375,2.4375 10.09375,2.4375 9.421875,0 14.25,-5.828125 4.84375,-5.828125 4.84375,-17.15625 z"
             id="DejaVuSans-104" />
          <path
             id="DejaVuSans-32"
             d="" />
          <path
             d="m 9.8125,72.90625 h 41.890625 v -8.3125 H 19.671875 V 43.109375 h 28.90625 V 34.8125 H 19.671875 V 0 H 9.8125 Z"
             id="DejaVuSans-70" />
          <path
             d="m 45.40625,46.390625 v 29.59375 h 8.984375 V 0 H 45.40625 v 8.203125 q -2.828125,-4.875 -7.15625,-7.25 -4.3125,-2.375 -10.375,-2.375 -9.90625,0 -16.140625,7.90625 -6.21875,7.921875 -6.21875,20.8125 0,12.890625 6.21875,20.796875 Q 17.96875,56 27.875,56 q 6.0625,0 10.375,-2.375 4.328125,-2.359375 7.15625,-7.234375 z M 14.796875,27.296875 q 0,-9.90625 4.078125,-15.546875 4.078125,-5.640625 11.203125,-5.640625 7.125,0 11.21875,5.640625 4.109375,5.640625 4.109375,15.546875 0,9.90625 -4.109375,15.546875 -4.09375,5.640625 -11.21875,5.640625 -7.125,0 -11.203125,-5.640625 -4.078125,-5.640625 -4.078125,-15.546875 z"
             id="DejaVuSans-100" />
          <path
             d="M 54.890625,33.015625 V 0 H 45.90625 v 32.71875 q 0,7.765625 -3.03125,11.609375 -3.03125,3.859375 -9.078125,3.859375 -7.28125,0 -11.484375,-4.640625 -4.203125,-4.625 -4.203125,-12.640625 V 0 h -9.03125 v 54.6875 h 9.03125 v -8.5 q 3.234375,4.9375 7.59375,7.375 4.375,2.4375 10.09375,2.4375 9.421875,0 14.25,-5.828125 4.84375,-5.828125 4.84375,-17.15625 z"
             id="DejaVuSans-110" />
        </defs>
        <g
           transform="matrix(0.1,0,0,-0.1,116.92,181.22059)"
           id="g358">
          <use
             xlink:href="#DejaVuSans-82"
             id="use328"
             x="0"
             y="0"
             width="100%"
             height="100%" />
          <use
             x="69.451172"
             xlink:href="#DejaVuSans-97"
             id="use330"
             y="0"
             width="100%"
             height="100%" />
          <use
             x="130.73047"
             xlink:href="#DejaVuSans-121"
             id="use332"
             y="0"
             width="100%"
             height="100%" />
          <use
             x="189.91016"
             xlink:href="#DejaVuSans-108"
             id="use334"
             y="0"
             width="100%"
             height="100%" />
          <use
             x="217.69336"
             xlink:href="#DejaVuSans-101"
             id="use336"
             y="0"
             width="100%"
             height="100%" />
          <use
             x="279.2168"
             xlink:href="#DejaVuSans-105"
             id="use338"
             y="0"
             width="100%"
             height="100%" />
          <use
             x="307"
             xlink:href="#DejaVuSans-103"
             id="use340"
             y="0"
             width="100%"
             height="100%" />
          <use
             x="370.47656"
             xlink:href="#DejaVuSans-104"
             id="use342"
             y="0"
             width="100%"
             height="100%" />
          <use
             x="433.85547"
             xlink:href="#DejaVuSans-32"
             id="use344"
             y="0"
             width="100%"
             height="100%" />
          <use
             x="465.64258"
             xlink:href="#DejaVuSans-70"
             id="use346"
             y="0"
             width="100%"
             height="100%" />
          <use
             x="523.02148"
             xlink:href="#DejaVuSans-97"
             id="use348"
             y="0"
             width="100%"
             height="100%" />
          <use
             x="584.30078"
             xlink:href="#DejaVuSans-100"
             id="use350"
             y="0"
             width="100%"
             height="100%" />
          <use
             x="647.77734"
             xlink:href="#DejaVuSans-105"
             id="use352"
             y="0"
             width="100%"
             height="100%" />
          <use
             x="675.56055"
             xlink:href="#DejaVuSans-110"
             id="use354"
             y="0"
             width="100%"
             height="100%" />
          <use
             x="738.93945"
             xlink:href="#DejaVuSans-103"
             id="use356"
             y="0"
             width="100%"
             height="100%" />
        </g>
      </g>
      <g
         id="line2d_20">
        <path
           d="m 88.92,192.39871 h 20"
           style="fill:none;stroke:#ff0000;stroke-width:1.5;stroke-dasharray:1.5, 2.475;stroke-dashoffset:0"
           id="path361" />
      </g>
      <g
         id="line2d_21" />
      <g
         id="text_17">
        <!-- No Fading -->
        <defs
           id="defs367">
          <path
             d="M 9.8125,72.90625 H 23.09375 L 55.421875,11.921875 V 72.90625 h 9.5625 V 0 h -13.28125 l -32.3125,60.984375 V 0 H 9.8125 Z"
             id="DejaVuSans-78" />
          <path
             d="m 30.609375,48.390625 q -7.21875,0 -11.421875,-5.640625 -4.203125,-5.640625 -4.203125,-15.453125 0,-9.8125 4.171875,-15.453125 4.1875,-5.640625 11.453125,-5.640625 7.1875,0 11.375,5.65625 4.203125,5.671875 4.203125,15.4375 0,9.71875 -4.203125,15.40625 -4.1875,5.6875 -11.375,5.6875 z m 0,7.609375 q 11.71875,0 18.40625,-7.625 6.703125,-7.609375 6.703125,-21.078125 0,-13.421875 -6.703125,-21.078125 -6.6875,-7.640625 -18.40625,-7.640625 -11.765625,0 -18.4375,7.640625 -6.65625,7.65625 -6.65625,21.078125 0,13.46875 6.65625,21.078125 Q 18.84375,56 30.609375,56 Z"
             id="DejaVuSans-111" />
        </defs>
        <g
           transform="matrix(0.1,0,0,-0.1,116.92,195.89871)"
           id="g387">
          <use
             xlink:href="#DejaVuSans-78"
             id="use369"
             x="0"
             y="0"
             width="100%"
             height="100%" />
          <use
             x="74.804688"
             xlink:href="#DejaVuSans-111"
             id="use371"
             y="0"
             width="100%"
             height="100%" />
          <use
             x="135.98633"
             xlink:href="#DejaVuSans-32"
             id="use373"
             y="0"
             width="100%"
             height="100%" />
          <use
             x="167.77344"
             xlink:href="#DejaVuSans-70"
             id="use375"
             y="0"
             width="100%"
             height="100%" />
          <use
             x="225.15234"
             xlink:href="#DejaVuSans-97"
             id="use377"
             y="0"
             width="100%"
             height="100%" />
          <use
             x="286.43164"
             xlink:href="#DejaVuSans-100"
             id="use379"
             y="0"
             width="100%"
             height="100%" />
          <use
             x="349.9082"
             xlink:href="#DejaVuSans-105"
             id="use381"
             y="0"
             width="100%"
             height="100%" />
          <use
             x="377.69141"
             xlink:href="#DejaVuSans-110"
             id="use383"
             y="0"
             width="100%"
             height="100%" />
          <use
             x="441.07031"
             xlink:href="#DejaVuSans-103"
             id="use385"
             y="0"
             width="100%"
             height="100%" />
        </g>
      </g>
    </g>
  </g>
  <defs
     id="defs396">
    <clipPath
       id="p50351551ed">
      <rect
         height="179.0712"
         width="495.504"
         x="79.919998"
         y="27.9072"
         id="rect393" />
    </clipPath>
  </defs>
  <text
     xml:space="preserve"
     style="font-style:normal;font-weight:normal;font-size:14px;line-height:1.25;font-family:sans-serif;fill:#000000;fill-opacity:1;stroke:none;stroke-width:0.75"
     x="269.37018"
     y="213.26155"
     id="text1071"><tspan
       sodipodi:role="line"
       id="tspan1069"
       x="269.37018"
       y="213.26155"
       style="font-size:14px;stroke-width:0.75">Time [s]</tspan></text>
  <text
     xml:space="preserve"
     style="font-style:normal;font-weight:normal;font-size:14px;line-height:1.25;font-family:sans-serif;fill:#000000;fill-opacity:1;stroke:none;stroke-width:0.75"
     x="-94.791367"
     y="10.636719"
     id="text1075"
     transform="rotate(-90)"><tspan
       sodipodi:role="line"
       x="-94.791367"
       y="10.636719"
       style="font-size:14px;text-align:center;text-anchor:middle;stroke-width:0.75"
       id="tspan1079">Channel Magnitude [dB]</tspan></text>
</svg>
