<svg width="720" height="432" xmlns="http://www.w3.org/2000/svg" xmlns:xlink="http://www.w3.org/1999/xlink" overflow="hidden"><defs><clipPath id="clip0"><rect x="0" y="0" width="720" height="432"/></clipPath></defs><g clip-path="url(#clip0)"><rect x="0" y="0" width="720" height="432" fill="#FFFFFF"/><path d="M130.3 338.115 174.696 338.115 174.696 377.048 130.3 377.048Z" fill="#00F26D" fill-rule="evenodd"/><path d="M174.696 338.115 219.093 338.115 219.093 377.048 174.696 377.048Z" fill="#00F26D" fill-rule="evenodd"/><path d="M219.093 338.115 263.49 338.115 263.49 377.048 219.093 377.048Z" fill="#00F26D" fill-rule="evenodd"/><path d="M263.49 338.115 307.886 338.115 307.886 377.048 263.49 377.048Z" fill="#00F26D" fill-rule="evenodd"/><path d="M307.886 338.115 352.283 338.115 352.283 377.048 307.886 377.048Z" fill="#00F26D" fill-rule="evenodd"/><path d="M352.283 338.115 396.679 338.115 396.679 377.048 352.283 377.048Z" fill="#00F26D" fill-rule="evenodd"/><path d="M396.679 338.115 441.076 338.115 441.076 377.048 396.679 377.048Z" fill="#00F26D" fill-rule="evenodd"/><path d="M441.076 338.115 485.472 338.115 485.472 377.048 441.076 377.048Z" fill="#00F26D" fill-rule="evenodd"/><path d="M485.472 338.115 529.869 338.115 529.869 377.048 485.472 377.048Z" fill="#00F26D" fill-rule="evenodd"/><path d="M529.869 338.115 574.265 338.115 574.265 377.048 529.869 377.048Z" fill="#00F26D" fill-rule="evenodd"/><path d="M174.696 337.448 174.696 379.048" stroke="#FFFFFF" stroke-width="1.33333" stroke-linejoin="round" stroke-miterlimit="10" fill="none" fill-rule="evenodd"/><path d="M219.093 337.448 219.093 379.048" stroke="#FFFFFF" stroke-width="1.33333" stroke-linejoin="round" stroke-miterlimit="10" fill="none" fill-rule="evenodd"/><path d="M263.49 337.448 263.49 379.048" stroke="#FFFFFF" stroke-width="1.33333" stroke-linejoin="round" stroke-miterlimit="10" fill="none" fill-rule="evenodd"/><path d="M307.886 337.448 307.886 379.048" stroke="#FFFFFF" stroke-width="1.33333" stroke-linejoin="round" stroke-miterlimit="10" fill="none" fill-rule="evenodd"/><path d="M352.283 337.448 352.283 379.048" stroke="#FFFFFF" stroke-width="1.33333" stroke-linejoin="round" stroke-miterlimit="10" fill="none" fill-rule="evenodd"/><path d="M396.679 337.448 396.679 379.048" stroke="#FFFFFF" stroke-width="1.33333" stroke-linejoin="round" stroke-miterlimit="10" fill="none" fill-rule="evenodd"/><path d="M441.076 337.448 441.076 379.048" stroke="#FFFFFF" stroke-width="1.33333" stroke-linejoin="round" stroke-miterlimit="10" fill="none" fill-rule="evenodd"/><path d="M485.472 337.448 485.472 379.048" stroke="#FFFFFF" stroke-width="1.33333" stroke-linejoin="round" stroke-miterlimit="10" fill="none" fill-rule="evenodd"/><path d="M529.869 337.448 529.869 379.048" stroke="#FFFFFF" stroke-width="1.33333" stroke-linejoin="round" stroke-miterlimit="10" fill="none" fill-rule="evenodd"/><path d="M130.3 337.448 130.3 379.048" stroke="#FFFFFF" stroke-width="1.33333" stroke-linejoin="round" stroke-miterlimit="10" fill="none" fill-rule="evenodd"/><path d="M574.265 337.448 574.265 379.048" stroke="#FFFFFF" stroke-width="1.33333" stroke-linejoin="round" stroke-miterlimit="10" fill="none" fill-rule="evenodd"/><path d="M129.633 338.115 574.932 338.115" stroke="#FFFFFF" stroke-width="1.33333" stroke-linejoin="round" stroke-miterlimit="10" fill="none" fill-rule="evenodd"/><path d="M129.633 377.048 574.932 377.048" stroke="#FFFFFF" stroke-width="4" stroke-linejoin="round" stroke-miterlimit="10" fill="none" fill-rule="evenodd"/><path d="M130.3 299.182 174.696 299.182 174.696 338.115 130.3 338.115Z" fill="#00B0F0" fill-rule="evenodd"/><path d="M174.696 299.182 219.093 299.182 219.093 338.115 174.696 338.115Z" fill="#00B0F0" fill-rule="evenodd"/><path d="M219.093 299.182 263.49 299.182 263.49 338.115 219.093 338.115Z" fill="#00B0F0" fill-rule="evenodd"/><path d="M263.49 299.182 307.886 299.182 307.886 338.115 263.49 338.115Z" fill="#00B0F0" fill-rule="evenodd"/><path d="M307.886 299.182 352.283 299.182 352.283 338.115 307.886 338.115Z" fill="#00B0F0" fill-rule="evenodd"/><path d="M352.283 299.182 396.679 299.182 396.679 338.115 352.283 338.115Z" fill="#00B0F0" fill-rule="evenodd"/><path d="M396.679 299.182 441.076 299.182 441.076 338.115 396.679 338.115Z" fill="#00B0F0" fill-rule="evenodd"/><path d="M441.076 299.182 485.472 299.182 485.472 338.115 441.076 338.115Z" fill="#00B0F0" fill-rule="evenodd"/><path d="M485.472 299.182 529.869 299.182 529.869 338.115 485.472 338.115Z" fill="#00B0F0" fill-rule="evenodd"/><path d="M529.869 299.182 574.265 299.182 574.265 338.115 529.869 338.115Z" fill="#00B0F0" fill-rule="evenodd"/><path d="M174.696 298.515 174.696 340.115" stroke="#FFFFFF" stroke-width="1.33333" stroke-linejoin="round" stroke-miterlimit="10" fill="none" fill-rule="evenodd"/><path d="M219.093 298.515 219.093 340.115" stroke="#FFFFFF" stroke-width="1.33333" stroke-linejoin="round" stroke-miterlimit="10" fill="none" fill-rule="evenodd"/><path d="M263.49 298.515 263.49 340.115" stroke="#FFFFFF" stroke-width="1.33333" stroke-linejoin="round" stroke-miterlimit="10" fill="none" fill-rule="evenodd"/><path d="M307.886 298.515 307.886 340.115" stroke="#FFFFFF" stroke-width="1.33333" stroke-linejoin="round" stroke-miterlimit="10" fill="none" fill-rule="evenodd"/><path d="M352.283 298.515 352.283 340.115" stroke="#FFFFFF" stroke-width="1.33333" stroke-linejoin="round" stroke-miterlimit="10" fill="none" fill-rule="evenodd"/><path d="M396.679 298.515 396.679 340.115" stroke="#FFFFFF" stroke-width="1.33333" stroke-linejoin="round" stroke-miterlimit="10" fill="none" fill-rule="evenodd"/><path d="M441.076 298.515 441.076 340.115" stroke="#FFFFFF" stroke-width="1.33333" stroke-linejoin="round" stroke-miterlimit="10" fill="none" fill-rule="evenodd"/><path d="M485.472 298.515 485.472 340.115" stroke="#FFFFFF" stroke-width="1.33333" stroke-linejoin="round" stroke-miterlimit="10" fill="none" fill-rule="evenodd"/><path d="M529.869 298.515 529.869 340.115" stroke="#FFFFFF" stroke-width="1.33333" stroke-linejoin="round" stroke-miterlimit="10" fill="none" fill-rule="evenodd"/><path d="M130.3 298.515 130.3 340.115" stroke="#FFFFFF" stroke-width="1.33333" stroke-linejoin="round" stroke-miterlimit="10" fill="none" fill-rule="evenodd"/><path d="M574.265 298.515 574.265 340.115" stroke="#FFFFFF" stroke-width="1.33333" stroke-linejoin="round" stroke-miterlimit="10" fill="none" fill-rule="evenodd"/><path d="M129.633 299.182 574.932 299.182" stroke="#FFFFFF" stroke-width="1.33333" stroke-linejoin="round" stroke-miterlimit="10" fill="none" fill-rule="evenodd"/><path d="M129.633 338.115 574.932 338.115" stroke="#FFFFFF" stroke-width="4" stroke-linejoin="round" stroke-miterlimit="10" fill="none" fill-rule="evenodd"/><path d="M130.3 260.248 174.696 260.248 174.696 299.182 130.3 299.182Z" fill="#FFD966" fill-rule="evenodd"/><path d="M174.696 260.248 219.093 260.248 219.093 299.182 174.696 299.182Z" fill="#FFD966" fill-rule="evenodd"/><path d="M219.093 260.248 263.49 260.248 263.49 299.182 219.093 299.182Z" fill="#FFD966" fill-rule="evenodd"/><path d="M263.49 260.248 307.886 260.248 307.886 299.182 263.49 299.182Z" fill="#FFD966" fill-rule="evenodd"/><path d="M307.886 260.248 352.283 260.248 352.283 299.182 307.886 299.182Z" fill="#FFD966" fill-rule="evenodd"/><path d="M352.283 260.248 396.679 260.248 396.679 299.182 352.283 299.182Z" fill="#FFD966" fill-rule="evenodd"/><path d="M396.679 260.248 441.076 260.248 441.076 299.182 396.679 299.182Z" fill="#FFD966" fill-rule="evenodd"/><path d="M441.076 260.248 485.472 260.248 485.472 299.182 441.076 299.182Z" fill="#FFD966" fill-rule="evenodd"/><path d="M485.472 260.248 529.869 260.248 529.869 299.182 485.472 299.182Z" fill="#FFD966" fill-rule="evenodd"/><path d="M529.869 260.248 574.265 260.248 574.265 299.182 529.869 299.182Z" fill="#FFD966" fill-rule="evenodd"/><path d="M174.696 259.582 174.696 301.182" stroke="#FFFFFF" stroke-width="1.33333" stroke-linejoin="round" stroke-miterlimit="10" fill="none" fill-rule="evenodd"/><path d="M219.093 259.582 219.093 301.182" stroke="#FFFFFF" stroke-width="1.33333" stroke-linejoin="round" stroke-miterlimit="10" fill="none" fill-rule="evenodd"/><path d="M263.49 259.582 263.49 301.182" stroke="#FFFFFF" stroke-width="1.33333" stroke-linejoin="round" stroke-miterlimit="10" fill="none" fill-rule="evenodd"/><path d="M307.886 259.582 307.886 301.182" stroke="#FFFFFF" stroke-width="1.33333" stroke-linejoin="round" stroke-miterlimit="10" fill="none" fill-rule="evenodd"/><path d="M352.283 259.582 352.283 301.182" stroke="#FFFFFF" stroke-width="1.33333" stroke-linejoin="round" stroke-miterlimit="10" fill="none" fill-rule="evenodd"/><path d="M396.679 259.582 396.679 301.182" stroke="#FFFFFF" stroke-width="1.33333" stroke-linejoin="round" stroke-miterlimit="10" fill="none" fill-rule="evenodd"/><path d="M441.076 259.582 441.076 301.182" stroke="#FFFFFF" stroke-width="1.33333" stroke-linejoin="round" stroke-miterlimit="10" fill="none" fill-rule="evenodd"/><path d="M485.472 259.582 485.472 301.182" stroke="#FFFFFF" stroke-width="1.33333" stroke-linejoin="round" stroke-miterlimit="10" fill="none" fill-rule="evenodd"/><path d="M529.869 259.582 529.869 301.182" stroke="#FFFFFF" stroke-width="1.33333" stroke-linejoin="round" stroke-miterlimit="10" fill="none" fill-rule="evenodd"/><path d="M130.3 259.582 130.3 301.182" stroke="#FFFFFF" stroke-width="1.33333" stroke-linejoin="round" stroke-miterlimit="10" fill="none" fill-rule="evenodd"/><path d="M574.265 259.582 574.265 301.182" stroke="#FFFFFF" stroke-width="1.33333" stroke-linejoin="round" stroke-miterlimit="10" fill="none" fill-rule="evenodd"/><path d="M129.633 260.248 574.932 260.248" stroke="#FFFFFF" stroke-width="1.33333" stroke-linejoin="round" stroke-miterlimit="10" fill="none" fill-rule="evenodd"/><path d="M129.633 299.182 574.932 299.182" stroke="#FFFFFF" stroke-width="4" stroke-linejoin="round" stroke-miterlimit="10" fill="none" fill-rule="evenodd"/><path d="M130.3 220.396 174.696 220.396 174.696 259.329 130.3 259.329Z" fill="#F4B183" fill-rule="evenodd"/><path d="M174.696 220.396 219.093 220.396 219.093 259.329 174.696 259.329Z" fill="#F4B183" fill-rule="evenodd"/><path d="M219.093 220.396 263.49 220.396 263.49 259.329 219.093 259.329Z" fill="#F4B183" fill-rule="evenodd"/><path d="M263.49 220.396 307.886 220.396 307.886 259.329 263.49 259.329Z" fill="#F4B183" fill-rule="evenodd"/><path d="M307.886 220.396 352.283 220.396 352.283 259.329 307.886 259.329Z" fill="#F4B183" fill-rule="evenodd"/><path d="M352.283 220.396 396.679 220.396 396.679 259.329 352.283 259.329Z" fill="#F4B183" fill-rule="evenodd"/><path d="M396.679 220.396 441.076 220.396 441.076 259.329 396.679 259.329Z" fill="#F4B183" fill-rule="evenodd"/><path d="M441.076 220.396 485.472 220.396 485.472 259.329 441.076 259.329Z" fill="#F4B183" fill-rule="evenodd"/><path d="M485.472 220.396 529.869 220.396 529.869 259.329 485.472 259.329Z" fill="#F4B183" fill-rule="evenodd"/><path d="M529.869 220.396 574.265 220.396 574.265 259.329 529.869 259.329Z" fill="#F4B183" fill-rule="evenodd"/><path d="M174.696 219.729 174.696 261.329" stroke="#FFFFFF" stroke-width="1.33333" stroke-linejoin="round" stroke-miterlimit="10" fill="none" fill-rule="evenodd"/><path d="M219.093 219.729 219.093 261.329" stroke="#FFFFFF" stroke-width="1.33333" stroke-linejoin="round" stroke-miterlimit="10" fill="none" fill-rule="evenodd"/><path d="M263.49 219.729 263.49 261.329" stroke="#FFFFFF" stroke-width="1.33333" stroke-linejoin="round" stroke-miterlimit="10" fill="none" fill-rule="evenodd"/><path d="M307.886 219.729 307.886 261.329" stroke="#FFFFFF" stroke-width="1.33333" stroke-linejoin="round" stroke-miterlimit="10" fill="none" fill-rule="evenodd"/><path d="M352.283 219.729 352.283 261.329" stroke="#FFFFFF" stroke-width="1.33333" stroke-linejoin="round" stroke-miterlimit="10" fill="none" fill-rule="evenodd"/><path d="M396.679 219.729 396.679 261.329" stroke="#FFFFFF" stroke-width="1.33333" stroke-linejoin="round" stroke-miterlimit="10" fill="none" fill-rule="evenodd"/><path d="M441.076 219.729 441.076 261.329" stroke="#FFFFFF" stroke-width="1.33333" stroke-linejoin="round" stroke-miterlimit="10" fill="none" fill-rule="evenodd"/><path d="M485.472 219.729 485.472 261.329" stroke="#FFFFFF" stroke-width="1.33333" stroke-linejoin="round" stroke-miterlimit="10" fill="none" fill-rule="evenodd"/><path d="M529.869 219.729 529.869 261.329" stroke="#FFFFFF" stroke-width="1.33333" stroke-linejoin="round" stroke-miterlimit="10" fill="none" fill-rule="evenodd"/><path d="M130.3 219.729 130.3 261.329" stroke="#FFFFFF" stroke-width="1.33333" stroke-linejoin="round" stroke-miterlimit="10" fill="none" fill-rule="evenodd"/><path d="M574.265 219.729 574.265 261.329" stroke="#FFFFFF" stroke-width="1.33333" stroke-linejoin="round" stroke-miterlimit="10" fill="none" fill-rule="evenodd"/><path d="M129.633 220.396 574.932 220.396" stroke="#FFFFFF" stroke-width="1.33333" stroke-linejoin="round" stroke-miterlimit="10" fill="none" fill-rule="evenodd"/><path d="M129.633 259.329 574.932 259.329" stroke="#FFFFFF" stroke-width="4" stroke-linejoin="round" stroke-miterlimit="10" fill="none" fill-rule="evenodd"/><path d="M130.3 180.543 174.696 180.543 174.696 219.477 130.3 219.477Z" fill="#CFAFE7" fill-rule="evenodd"/><path d="M174.696 180.543 219.093 180.543 219.093 219.477 174.696 219.477Z" fill="#CFAFE7" fill-rule="evenodd"/><path d="M219.093 180.543 263.49 180.543 263.49 219.477 219.093 219.477Z" fill="#CFAFE7" fill-rule="evenodd"/><path d="M263.49 180.543 307.886 180.543 307.886 219.477 263.49 219.477Z" fill="#CFAFE7" fill-rule="evenodd"/><path d="M307.886 180.543 352.283 180.543 352.283 219.477 307.886 219.477Z" fill="#CFAFE7" fill-rule="evenodd"/><path d="M352.283 180.543 396.679 180.543 396.679 219.477 352.283 219.477Z" fill="#CFAFE7" fill-rule="evenodd"/><path d="M396.679 180.543 441.076 180.543 441.076 219.477 396.679 219.477Z" fill="#CFAFE7" fill-rule="evenodd"/><path d="M441.076 180.543 485.472 180.543 485.472 219.477 441.076 219.477Z" fill="#CFAFE7" fill-rule="evenodd"/><path d="M485.472 180.543 529.869 180.543 529.869 219.477 485.472 219.477Z" fill="#CFAFE7" fill-rule="evenodd"/><path d="M529.869 180.543 574.265 180.543 574.265 219.477 529.869 219.477Z" fill="#CFAFE7" fill-rule="evenodd"/><path d="M174.696 179.877 174.696 221.477" stroke="#FFFFFF" stroke-width="1.33333" stroke-linejoin="round" stroke-miterlimit="10" fill="none" fill-rule="evenodd"/><path d="M219.093 179.877 219.093 221.477" stroke="#FFFFFF" stroke-width="1.33333" stroke-linejoin="round" stroke-miterlimit="10" fill="none" fill-rule="evenodd"/><path d="M263.49 179.877 263.49 221.477" stroke="#FFFFFF" stroke-width="1.33333" stroke-linejoin="round" stroke-miterlimit="10" fill="none" fill-rule="evenodd"/><path d="M307.886 179.877 307.886 221.477" stroke="#FFFFFF" stroke-width="1.33333" stroke-linejoin="round" stroke-miterlimit="10" fill="none" fill-rule="evenodd"/><path d="M352.283 179.877 352.283 221.477" stroke="#FFFFFF" stroke-width="1.33333" stroke-linejoin="round" stroke-miterlimit="10" fill="none" fill-rule="evenodd"/><path d="M396.679 179.877 396.679 221.477" stroke="#FFFFFF" stroke-width="1.33333" stroke-linejoin="round" stroke-miterlimit="10" fill="none" fill-rule="evenodd"/><path d="M441.076 179.877 441.076 221.477" stroke="#FFFFFF" stroke-width="1.33333" stroke-linejoin="round" stroke-miterlimit="10" fill="none" fill-rule="evenodd"/><path d="M485.472 179.877 485.472 221.477" stroke="#FFFFFF" stroke-width="1.33333" stroke-linejoin="round" stroke-miterlimit="10" fill="none" fill-rule="evenodd"/><path d="M529.869 179.877 529.869 221.477" stroke="#FFFFFF" stroke-width="1.33333" stroke-linejoin="round" stroke-miterlimit="10" fill="none" fill-rule="evenodd"/><path d="M130.3 179.877 130.3 221.477" stroke="#FFFFFF" stroke-width="1.33333" stroke-linejoin="round" stroke-miterlimit="10" fill="none" fill-rule="evenodd"/><path d="M574.265 179.877 574.265 221.477" stroke="#FFFFFF" stroke-width="1.33333" stroke-linejoin="round" stroke-miterlimit="10" fill="none" fill-rule="evenodd"/><path d="M129.633 180.543 574.932 180.543" stroke="#FFFFFF" stroke-width="1.33333" stroke-linejoin="round" stroke-miterlimit="10" fill="none" fill-rule="evenodd"/><path d="M129.633 219.477 574.932 219.477" stroke="#FFFFFF" stroke-width="4" stroke-linejoin="round" stroke-miterlimit="10" fill="none" fill-rule="evenodd"/><path d="M130.3 140.691 174.696 140.691 174.696 179.624 130.3 179.624Z" fill="#B4C7E7" fill-rule="evenodd"/><path d="M174.696 140.691 219.093 140.691 219.093 179.624 174.696 179.624Z" fill="#B4C7E7" fill-rule="evenodd"/><path d="M219.093 140.691 263.49 140.691 263.49 179.624 219.093 179.624Z" fill="#B4C7E7" fill-rule="evenodd"/><path d="M263.49 140.691 307.886 140.691 307.886 179.624 263.49 179.624Z" fill="#B4C7E7" fill-rule="evenodd"/><path d="M307.886 140.691 352.283 140.691 352.283 179.624 307.886 179.624Z" fill="#B4C7E7" fill-rule="evenodd"/><path d="M352.283 140.691 396.679 140.691 396.679 179.624 352.283 179.624Z" fill="#B4C7E7" fill-rule="evenodd"/><path d="M396.679 140.691 441.076 140.691 441.076 179.624 396.679 179.624Z" fill="#B4C7E7" fill-rule="evenodd"/><path d="M441.076 140.691 485.472 140.691 485.472 179.624 441.076 179.624Z" fill="#B4C7E7" fill-rule="evenodd"/><path d="M485.472 140.691 529.869 140.691 529.869 179.624 485.472 179.624Z" fill="#B4C7E7" fill-rule="evenodd"/><path d="M529.869 140.691 574.265 140.691 574.265 179.624 529.869 179.624Z" fill="#B4C7E7" fill-rule="evenodd"/><path d="M174.696 140.024 174.696 181.624" stroke="#FFFFFF" stroke-width="1.33333" stroke-linejoin="round" stroke-miterlimit="10" fill="none" fill-rule="evenodd"/><path d="M219.093 140.024 219.093 181.624" stroke="#FFFFFF" stroke-width="1.33333" stroke-linejoin="round" stroke-miterlimit="10" fill="none" fill-rule="evenodd"/><path d="M263.49 140.024 263.49 181.624" stroke="#FFFFFF" stroke-width="1.33333" stroke-linejoin="round" stroke-miterlimit="10" fill="none" fill-rule="evenodd"/><path d="M307.886 140.024 307.886 181.624" stroke="#FFFFFF" stroke-width="1.33333" stroke-linejoin="round" stroke-miterlimit="10" fill="none" fill-rule="evenodd"/><path d="M352.283 140.024 352.283 181.624" stroke="#FFFFFF" stroke-width="1.33333" stroke-linejoin="round" stroke-miterlimit="10" fill="none" fill-rule="evenodd"/><path d="M396.679 140.024 396.679 181.624" stroke="#FFFFFF" stroke-width="1.33333" stroke-linejoin="round" stroke-miterlimit="10" fill="none" fill-rule="evenodd"/><path d="M441.076 140.024 441.076 181.624" stroke="#FFFFFF" stroke-width="1.33333" stroke-linejoin="round" stroke-miterlimit="10" fill="none" fill-rule="evenodd"/><path d="M485.472 140.024 485.472 181.624" stroke="#FFFFFF" stroke-width="1.33333" stroke-linejoin="round" stroke-miterlimit="10" fill="none" fill-rule="evenodd"/><path d="M529.869 140.024 529.869 181.624" stroke="#FFFFFF" stroke-width="1.33333" stroke-linejoin="round" stroke-miterlimit="10" fill="none" fill-rule="evenodd"/><path d="M130.3 140.024 130.3 181.624" stroke="#FFFFFF" stroke-width="1.33333" stroke-linejoin="round" stroke-miterlimit="10" fill="none" fill-rule="evenodd"/><path d="M574.265 140.024 574.265 181.624" stroke="#FFFFFF" stroke-width="1.33333" stroke-linejoin="round" stroke-miterlimit="10" fill="none" fill-rule="evenodd"/><path d="M129.633 140.691 574.932 140.691" stroke="#FFFFFF" stroke-width="1.33333" stroke-linejoin="round" stroke-miterlimit="10" fill="none" fill-rule="evenodd"/><path d="M129.633 179.624 574.932 179.624" stroke="#FFFFFF" stroke-width="4" stroke-linejoin="round" stroke-miterlimit="10" fill="none" fill-rule="evenodd"/><text font-family="Times New Roman,Times New Roman_MSFontService,sans-serif" font-weight="400" font-size="16" transform="translate(319.646 420)">F</text><text font-family="Times New Roman,Times New Roman_MSFontService,sans-serif" font-weight="400" font-size="16" transform="translate(328.479 420)">requency</text><text font-family="Times New Roman,Times New Roman_MSFontService,sans-serif" font-weight="400" font-size="16" transform="translate(106.221 403)">-</text><text font-family="Times New Roman,Times New Roman_MSFontService,sans-serif" font-weight="400" font-size="16" transform="translate(111.554 403)">F</text><text font-family="Times New Roman,Times New Roman_MSFontService,sans-serif" font-weight="400" font-size="11" transform="translate(120.388 406)">S</text><text font-family="Times New Roman,Times New Roman_MSFontService,sans-serif" font-weight="400" font-size="16" transform="translate(126.388 403)">/2</text><text font-family="Times New Roman,Times New Roman_MSFontService,sans-serif" font-weight="400" font-size="16" transform="matrix(-1.83697e-16 -1 1 -1.83697e-16 113.526 276)">T</text><text font-family="Times New Roman,Times New Roman_MSFontService,sans-serif" font-weight="400" font-size="16" transform="matrix(-1.83697e-16 -1 1 -1.83697e-16 113.526 266)">ime</text><text font-family="Times New Roman,Times New Roman_MSFontService,sans-serif" font-weight="400" font-size="16" transform="translate(314.796 165)">FFT of Slice 1</text><text font-family="Times New Roman,Times New Roman_MSFontService,sans-serif" font-weight="400" font-size="16" transform="translate(314.796 204)">FFT of Slice 2</text><text font-family="Times New Roman,Times New Roman_MSFontService,sans-serif" font-weight="400" font-size="16" transform="translate(314.796 244)">FFT of Slice 3</text><text font-family="Times New Roman,Times New Roman_MSFontService,sans-serif" font-weight="400" font-size="16" transform="translate(314.796 284)">FFT of Slice 4</text><text font-family="Times New Roman,Times New Roman_MSFontService,sans-serif" font-weight="400" font-size="16" transform="translate(314.796 323)">FFT of Slice 5</text><text font-family="Times New Roman,Times New Roman_MSFontService,sans-serif" font-weight="400" font-size="16" transform="translate(314.796 363)">FFT of Slice 6</text><text font-family="Times New Roman,Times New Roman_MSFontService,sans-serif" font-weight="400" font-size="16" transform="translate(554.246 404)">F</text><text font-family="Times New Roman,Times New Roman_MSFontService,sans-serif" font-weight="400" font-size="11" transform="translate(563.079 407)">S</text><text font-family="Times New Roman,Times New Roman_MSFontService,sans-serif" font-weight="400" font-size="16" transform="translate(569.079 404)">/2</text><path d="M131.5 362.5 131.5 386.847" stroke="#000000" stroke-width="1.33333" stroke-miterlimit="8" fill="none" fill-rule="evenodd"/><path d="M574.5 363.5 574.5 387.847" stroke="#000000" stroke-width="1.33333" stroke-miterlimit="8" fill="none" fill-rule="evenodd"/><path d="M0 0 18.9362 0.000104987" stroke="#000000" stroke-width="1.33333" stroke-miterlimit="8" fill="none" fill-rule="evenodd" transform="matrix(-1 0 0 1 139.436 142.5)"/><text font-family="Times New Roman,Times New Roman_MSFontService,sans-serif" font-weight="400" font-size="16" transform="translate(107.554 148)">0</text><path d="M18.7676 51.3783 30.2833 51.3783 30.2833 80.1783 18.7676 80.1783Z" fill="#B4C7E7" fill-rule="evenodd"/><path d="M30.2833 51.3783 41.799 51.3783 41.799 80.1783 30.2833 80.1783Z" fill="#B4C7E7" fill-rule="evenodd"/><path d="M41.799 51.3783 53.3146 51.3783 53.3146 80.1783 41.799 80.1783Z" fill="#B4C7E7" fill-rule="evenodd"/><path d="M53.3146 51.3783 64.8303 51.3783 64.8303 80.1783 53.3146 80.1783Z" fill="#B4C7E7" fill-rule="evenodd"/><path d="M64.8303 51.3783 76.346 51.3783 76.346 80.1783 64.8303 80.1783Z" fill="#B4C7E7" fill-rule="evenodd"/><path d="M76.346 51.3783 87.8617 51.3783 87.8617 80.1783 76.346 80.1783Z" fill="#B4C7E7" fill-rule="evenodd"/><path d="M87.8617 51.3783 99.3774 51.3783 99.3774 80.1783 87.8617 80.1783Z" fill="#B4C7E7" fill-rule="evenodd"/><path d="M99.3774 51.3783 110.893 51.3783 110.893 80.1783 99.3774 80.1783Z" fill="#B4C7E7" fill-rule="evenodd"/><path d="M110.893 51.3783 122.409 51.3783 122.409 80.1783 110.893 80.1783Z" fill="#B4C7E7" fill-rule="evenodd"/><path d="M122.409 51.3783 133.925 51.3783 133.925 80.1783 122.409 80.1783Z" fill="#B4C7E7" fill-rule="evenodd"/><path d="M30.2833 50.7116 30.2833 82.1783" stroke="#FFFFFF" stroke-width="1.33333" stroke-linejoin="round" stroke-miterlimit="10" fill="none" fill-rule="evenodd"/><path d="M41.799 50.7116 41.799 82.1783" stroke="#FFFFFF" stroke-width="1.33333" stroke-linejoin="round" stroke-miterlimit="10" fill="none" fill-rule="evenodd"/><path d="M53.3146 50.7116 53.3146 82.1783" stroke="#FFFFFF" stroke-width="1.33333" stroke-linejoin="round" stroke-miterlimit="10" fill="none" fill-rule="evenodd"/><path d="M64.8303 50.7116 64.8303 82.1783" stroke="#FFFFFF" stroke-width="1.33333" stroke-linejoin="round" stroke-miterlimit="10" fill="none" fill-rule="evenodd"/><path d="M76.346 50.7116 76.346 82.1783" stroke="#FFFFFF" stroke-width="1.33333" stroke-linejoin="round" stroke-miterlimit="10" fill="none" fill-rule="evenodd"/><path d="M87.8617 50.7116 87.8617 82.1783" stroke="#FFFFFF" stroke-width="1.33333" stroke-linejoin="round" stroke-miterlimit="10" fill="none" fill-rule="evenodd"/><path d="M99.3774 50.7116 99.3774 82.1783" stroke="#FFFFFF" stroke-width="1.33333" stroke-linejoin="round" stroke-miterlimit="10" fill="none" fill-rule="evenodd"/><path d="M110.893 50.7116 110.893 82.1783" stroke="#FFFFFF" stroke-width="1.33333" stroke-linejoin="round" stroke-miterlimit="10" fill="none" fill-rule="evenodd"/><path d="M122.409 50.7116 122.409 82.1783" stroke="#FFFFFF" stroke-width="1.33333" stroke-linejoin="round" stroke-miterlimit="10" fill="none" fill-rule="evenodd"/><path d="M18.7676 50.7116 18.7676 82.1783" stroke="#FFFFFF" stroke-width="1.33333" stroke-linejoin="round" stroke-miterlimit="10" fill="none" fill-rule="evenodd"/><path d="M133.925 50.7116 133.925 82.1783" stroke="#FFFFFF" stroke-width="1.33333" stroke-linejoin="round" stroke-miterlimit="10" fill="none" fill-rule="evenodd"/><path d="M18.1009 51.3783 134.591 51.3783" stroke="#FFFFFF" stroke-width="1.33333" stroke-linejoin="round" stroke-miterlimit="10" fill="none" fill-rule="evenodd"/><path d="M18.1009 80.1783 134.591 80.1783" stroke="#FFFFFF" stroke-width="4" stroke-linejoin="round" stroke-miterlimit="10" fill="none" fill-rule="evenodd"/><path d="M594.552 51.3783 606.068 51.3783 606.068 80.1783 594.552 80.1783Z" fill="#00F26D" fill-rule="evenodd"/><path d="M606.068 51.3783 617.584 51.3783 617.584 80.1783 606.068 80.1783Z" fill="#00F26D" fill-rule="evenodd"/><path d="M617.584 51.3783 629.099 51.3783 629.099 80.1783 617.584 80.1783Z" fill="#00F26D" fill-rule="evenodd"/><path d="M629.099 51.3783 640.615 51.3783 640.615 80.1783 629.099 80.1783Z" fill="#00F26D" fill-rule="evenodd"/><path d="M640.615 51.3783 652.131 51.3783 652.131 80.1783 640.615 80.1783Z" fill="#00F26D" fill-rule="evenodd"/><path d="M652.131 51.3783 663.646 51.3783 663.646 80.1783 652.131 80.1783Z" fill="#00F26D" fill-rule="evenodd"/><path d="M663.646 51.3783 675.162 51.3783 675.162 80.1783 663.646 80.1783Z" fill="#00F26D" fill-rule="evenodd"/><path d="M675.162 51.3783 686.678 51.3783 686.678 80.1783 675.162 80.1783Z" fill="#00F26D" fill-rule="evenodd"/><path d="M686.678 51.3783 698.194 51.3783 698.194 80.1783 686.678 80.1783Z" fill="#00F26D" fill-rule="evenodd"/><path d="M698.194 51.3783 709.709 51.3783 709.709 80.1783 698.194 80.1783Z" fill="#00F26D" fill-rule="evenodd"/><path d="M606.068 50.7116 606.068 82.1783" stroke="#FFFFFF" stroke-width="1.33333" stroke-linejoin="round" stroke-miterlimit="10" fill="none" fill-rule="evenodd"/><path d="M617.584 50.7116 617.584 82.1783" stroke="#FFFFFF" stroke-width="1.33333" stroke-linejoin="round" stroke-miterlimit="10" fill="none" fill-rule="evenodd"/><path d="M629.099 50.7116 629.099 82.1783" stroke="#FFFFFF" stroke-width="1.33333" stroke-linejoin="round" stroke-miterlimit="10" fill="none" fill-rule="evenodd"/><path d="M640.615 50.7116 640.615 82.1783" stroke="#FFFFFF" stroke-width="1.33333" stroke-linejoin="round" stroke-miterlimit="10" fill="none" fill-rule="evenodd"/><path d="M652.131 50.7116 652.131 82.1783" stroke="#FFFFFF" stroke-width="1.33333" stroke-linejoin="round" stroke-miterlimit="10" fill="none" fill-rule="evenodd"/><path d="M663.646 50.7116 663.646 82.1783" stroke="#FFFFFF" stroke-width="1.33333" stroke-linejoin="round" stroke-miterlimit="10" fill="none" fill-rule="evenodd"/><path d="M675.162 50.7116 675.162 82.1783" stroke="#FFFFFF" stroke-width="1.33333" stroke-linejoin="round" stroke-miterlimit="10" fill="none" fill-rule="evenodd"/><path d="M686.678 50.7116 686.678 82.1783" stroke="#FFFFFF" stroke-width="1.33333" stroke-linejoin="round" stroke-miterlimit="10" fill="none" fill-rule="evenodd"/><path d="M698.194 50.7116 698.194 82.1783" stroke="#FFFFFF" stroke-width="1.33333" stroke-linejoin="round" stroke-miterlimit="10" fill="none" fill-rule="evenodd"/><path d="M594.552 50.7116 594.552 82.1783" stroke="#FFFFFF" stroke-width="1.33333" stroke-linejoin="round" stroke-miterlimit="10" fill="none" fill-rule="evenodd"/><path d="M709.709 50.7116 709.709 82.1783" stroke="#FFFFFF" stroke-width="1.33333" stroke-linejoin="round" stroke-miterlimit="10" fill="none" fill-rule="evenodd"/><path d="M593.886 51.3783 710.376 51.3783" stroke="#FFFFFF" stroke-width="1.33333" stroke-linejoin="round" stroke-miterlimit="10" fill="none" fill-rule="evenodd"/><path d="M593.886 80.1783 710.376 80.1783" stroke="#FFFFFF" stroke-width="4" stroke-linejoin="round" stroke-miterlimit="10" fill="none" fill-rule="evenodd"/><path d="M479.395 51.3783 490.911 51.3783 490.911 80.1783 479.395 80.1783Z" fill="#00B0F0" fill-rule="evenodd"/><path d="M490.911 51.3783 502.427 51.3783 502.427 80.1783 490.911 80.1783Z" fill="#00B0F0" fill-rule="evenodd"/><path d="M502.427 51.3783 513.942 51.3783 513.942 80.1783 502.427 80.1783Z" fill="#00B0F0" fill-rule="evenodd"/><path d="M513.942 51.3783 525.458 51.3783 525.458 80.1783 513.942 80.1783Z" fill="#00B0F0" fill-rule="evenodd"/><path d="M525.458 51.3783 536.974 51.3783 536.974 80.1783 525.458 80.1783Z" fill="#00B0F0" fill-rule="evenodd"/><path d="M536.974 51.3783 548.49 51.3783 548.49 80.1783 536.974 80.1783Z" fill="#00B0F0" fill-rule="evenodd"/><path d="M548.49 51.3783 560.005 51.3783 560.005 80.1783 548.49 80.1783Z" fill="#00B0F0" fill-rule="evenodd"/><path d="M560.005 51.3783 571.521 51.3783 571.521 80.1783 560.005 80.1783Z" fill="#00B0F0" fill-rule="evenodd"/><path d="M571.521 51.3783 583.037 51.3783 583.037 80.1783 571.521 80.1783Z" fill="#00B0F0" fill-rule="evenodd"/><path d="M583.037 51.3783 594.552 51.3783 594.552 80.1783 583.037 80.1783Z" fill="#00B0F0" fill-rule="evenodd"/><path d="M490.911 50.7116 490.911 82.1783" stroke="#FFFFFF" stroke-width="1.33333" stroke-linejoin="round" stroke-miterlimit="10" fill="none" fill-rule="evenodd"/><path d="M502.427 50.7116 502.427 82.1783" stroke="#FFFFFF" stroke-width="1.33333" stroke-linejoin="round" stroke-miterlimit="10" fill="none" fill-rule="evenodd"/><path d="M513.942 50.7116 513.942 82.1783" stroke="#FFFFFF" stroke-width="1.33333" stroke-linejoin="round" stroke-miterlimit="10" fill="none" fill-rule="evenodd"/><path d="M525.458 50.7116 525.458 82.1783" stroke="#FFFFFF" stroke-width="1.33333" stroke-linejoin="round" stroke-miterlimit="10" fill="none" fill-rule="evenodd"/><path d="M536.974 50.7116 536.974 82.1783" stroke="#FFFFFF" stroke-width="1.33333" stroke-linejoin="round" stroke-miterlimit="10" fill="none" fill-rule="evenodd"/><path d="M548.49 50.7116 548.49 82.1783" stroke="#FFFFFF" stroke-width="1.33333" stroke-linejoin="round" stroke-miterlimit="10" fill="none" fill-rule="evenodd"/><path d="M560.005 50.7116 560.005 82.1783" stroke="#FFFFFF" stroke-width="1.33333" stroke-linejoin="round" stroke-miterlimit="10" fill="none" fill-rule="evenodd"/><path d="M571.521 50.7116 571.521 82.1783" stroke="#FFFFFF" stroke-width="1.33333" stroke-linejoin="round" stroke-miterlimit="10" fill="none" fill-rule="evenodd"/><path d="M583.037 50.7116 583.037 82.1783" stroke="#FFFFFF" stroke-width="1.33333" stroke-linejoin="round" stroke-miterlimit="10" fill="none" fill-rule="evenodd"/><path d="M479.395 50.7116 479.395 82.1783" stroke="#FFFFFF" stroke-width="1.33333" stroke-linejoin="round" stroke-miterlimit="10" fill="none" fill-rule="evenodd"/><path d="M594.552 50.7116 594.552 82.1783" stroke="#FFFFFF" stroke-width="1.33333" stroke-linejoin="round" stroke-miterlimit="10" fill="none" fill-rule="evenodd"/><path d="M478.729 51.3783 595.219 51.3783" stroke="#FFFFFF" stroke-width="1.33333" stroke-linejoin="round" stroke-miterlimit="10" fill="none" fill-rule="evenodd"/><path d="M478.729 80.1783 595.219 80.1783" stroke="#FFFFFF" stroke-width="4" stroke-linejoin="round" stroke-miterlimit="10" fill="none" fill-rule="evenodd"/><path d="M364.238 51.3783 375.754 51.3783 375.754 80.1783 364.238 80.1783Z" fill="#FFD966" fill-rule="evenodd"/><path d="M375.754 51.3783 387.27 51.3783 387.27 80.1783 375.754 80.1783Z" fill="#FFD966" fill-rule="evenodd"/><path d="M387.27 51.3783 398.786 51.3783 398.786 80.1783 387.27 80.1783Z" fill="#FFD966" fill-rule="evenodd"/><path d="M398.786 51.3783 410.301 51.3783 410.301 80.1783 398.786 80.1783Z" fill="#FFD966" fill-rule="evenodd"/><path d="M410.301 51.3783 421.817 51.3783 421.817 80.1783 410.301 80.1783Z" fill="#FFD966" fill-rule="evenodd"/><path d="M421.817 51.3783 433.333 51.3783 433.333 80.1783 421.817 80.1783Z" fill="#FFD966" fill-rule="evenodd"/><path d="M433.333 51.3783 444.848 51.3783 444.848 80.1783 433.333 80.1783Z" fill="#FFD966" fill-rule="evenodd"/><path d="M444.848 51.3783 456.364 51.3783 456.364 80.1783 444.848 80.1783Z" fill="#FFD966" fill-rule="evenodd"/><path d="M456.364 51.3783 467.88 51.3783 467.88 80.1783 456.364 80.1783Z" fill="#FFD966" fill-rule="evenodd"/><path d="M467.88 51.3783 479.395 51.3783 479.395 80.1783 467.88 80.1783Z" fill="#FFD966" fill-rule="evenodd"/><path d="M375.754 50.7116 375.754 82.1783" stroke="#FFFFFF" stroke-width="1.33333" stroke-linejoin="round" stroke-miterlimit="10" fill="none" fill-rule="evenodd"/><path d="M387.27 50.7116 387.27 82.1783" stroke="#FFFFFF" stroke-width="1.33333" stroke-linejoin="round" stroke-miterlimit="10" fill="none" fill-rule="evenodd"/><path d="M398.786 50.7116 398.786 82.1783" stroke="#FFFFFF" stroke-width="1.33333" stroke-linejoin="round" stroke-miterlimit="10" fill="none" fill-rule="evenodd"/><path d="M410.301 50.7116 410.301 82.1783" stroke="#FFFFFF" stroke-width="1.33333" stroke-linejoin="round" stroke-miterlimit="10" fill="none" fill-rule="evenodd"/><path d="M421.817 50.7116 421.817 82.1783" stroke="#FFFFFF" stroke-width="1.33333" stroke-linejoin="round" stroke-miterlimit="10" fill="none" fill-rule="evenodd"/><path d="M433.333 50.7116 433.333 82.1783" stroke="#FFFFFF" stroke-width="1.33333" stroke-linejoin="round" stroke-miterlimit="10" fill="none" fill-rule="evenodd"/><path d="M444.848 50.7116 444.848 82.1783" stroke="#FFFFFF" stroke-width="1.33333" stroke-linejoin="round" stroke-miterlimit="10" fill="none" fill-rule="evenodd"/><path d="M456.364 50.7116 456.364 82.1783" stroke="#FFFFFF" stroke-width="1.33333" stroke-linejoin="round" stroke-miterlimit="10" fill="none" fill-rule="evenodd"/><path d="M467.88 50.7116 467.88 82.1783" stroke="#FFFFFF" stroke-width="1.33333" stroke-linejoin="round" stroke-miterlimit="10" fill="none" fill-rule="evenodd"/><path d="M364.238 50.7116 364.238 82.1783" stroke="#FFFFFF" stroke-width="1.33333" stroke-linejoin="round" stroke-miterlimit="10" fill="none" fill-rule="evenodd"/><path d="M479.395 50.7116 479.395 82.1783" stroke="#FFFFFF" stroke-width="1.33333" stroke-linejoin="round" stroke-miterlimit="10" fill="none" fill-rule="evenodd"/><path d="M363.572 51.3783 480.062 51.3783" stroke="#FFFFFF" stroke-width="1.33333" stroke-linejoin="round" stroke-miterlimit="10" fill="none" fill-rule="evenodd"/><path d="M363.572 80.1783 480.062 80.1783" stroke="#FFFFFF" stroke-width="4" stroke-linejoin="round" stroke-miterlimit="10" fill="none" fill-rule="evenodd"/><path d="M249.081 51.3783 260.597 51.3783 260.597 80.1783 249.081 80.1783Z" fill="#F4B183" fill-rule="evenodd"/><path d="M260.597 51.3783 272.113 51.3783 272.113 80.1783 260.597 80.1783Z" fill="#F4B183" fill-rule="evenodd"/><path d="M272.113 51.3783 283.629 51.3783 283.629 80.1783 272.113 80.1783Z" fill="#F4B183" fill-rule="evenodd"/><path d="M283.629 51.3783 295.144 51.3783 295.144 80.1783 283.629 80.1783Z" fill="#F4B183" fill-rule="evenodd"/><path d="M295.144 51.3783 306.66 51.3783 306.66 80.1783 295.144 80.1783Z" fill="#F4B183" fill-rule="evenodd"/><path d="M306.66 51.3783 318.176 51.3783 318.176 80.1783 306.66 80.1783Z" fill="#F4B183" fill-rule="evenodd"/><path d="M318.176 51.3783 329.691 51.3783 329.691 80.1783 318.176 80.1783Z" fill="#F4B183" fill-rule="evenodd"/><path d="M329.691 51.3783 341.207 51.3783 341.207 80.1783 329.691 80.1783Z" fill="#F4B183" fill-rule="evenodd"/><path d="M341.207 51.3783 352.723 51.3783 352.723 80.1783 341.207 80.1783Z" fill="#F4B183" fill-rule="evenodd"/><path d="M352.723 51.3783 364.238 51.3783 364.238 80.1783 352.723 80.1783Z" fill="#F4B183" fill-rule="evenodd"/><path d="M260.597 50.7116 260.597 82.1783" stroke="#FFFFFF" stroke-width="1.33333" stroke-linejoin="round" stroke-miterlimit="10" fill="none" fill-rule="evenodd"/><path d="M272.113 50.7116 272.113 82.1783" stroke="#FFFFFF" stroke-width="1.33333" stroke-linejoin="round" stroke-miterlimit="10" fill="none" fill-rule="evenodd"/><path d="M283.629 50.7116 283.629 82.1783" stroke="#FFFFFF" stroke-width="1.33333" stroke-linejoin="round" stroke-miterlimit="10" fill="none" fill-rule="evenodd"/><path d="M295.144 50.7116 295.144 82.1783" stroke="#FFFFFF" stroke-width="1.33333" stroke-linejoin="round" stroke-miterlimit="10" fill="none" fill-rule="evenodd"/><path d="M306.66 50.7116 306.66 82.1783" stroke="#FFFFFF" stroke-width="1.33333" stroke-linejoin="round" stroke-miterlimit="10" fill="none" fill-rule="evenodd"/><path d="M318.176 50.7116 318.176 82.1783" stroke="#FFFFFF" stroke-width="1.33333" stroke-linejoin="round" stroke-miterlimit="10" fill="none" fill-rule="evenodd"/><path d="M329.691 50.7116 329.691 82.1783" stroke="#FFFFFF" stroke-width="1.33333" stroke-linejoin="round" stroke-miterlimit="10" fill="none" fill-rule="evenodd"/><path d="M341.207 50.7116 341.207 82.1783" stroke="#FFFFFF" stroke-width="1.33333" stroke-linejoin="round" stroke-miterlimit="10" fill="none" fill-rule="evenodd"/><path d="M352.723 50.7116 352.723 82.1783" stroke="#FFFFFF" stroke-width="1.33333" stroke-linejoin="round" stroke-miterlimit="10" fill="none" fill-rule="evenodd"/><path d="M249.081 50.7116 249.081 82.1783" stroke="#FFFFFF" stroke-width="1.33333" stroke-linejoin="round" stroke-miterlimit="10" fill="none" fill-rule="evenodd"/><path d="M364.238 50.7116 364.238 82.1783" stroke="#FFFFFF" stroke-width="1.33333" stroke-linejoin="round" stroke-miterlimit="10" fill="none" fill-rule="evenodd"/><path d="M248.415 51.3783 364.905 51.3783" stroke="#FFFFFF" stroke-width="1.33333" stroke-linejoin="round" stroke-miterlimit="10" fill="none" fill-rule="evenodd"/><path d="M248.415 80.1783 364.905 80.1783" stroke="#FFFFFF" stroke-width="4" stroke-linejoin="round" stroke-miterlimit="10" fill="none" fill-rule="evenodd"/><path d="M133.925 51.3783 145.44 51.3783 145.44 80.1783 133.925 80.1783Z" fill="#CFAFE7" fill-rule="evenodd"/><path d="M145.44 51.3783 156.956 51.3783 156.956 80.1783 145.44 80.1783Z" fill="#CFAFE7" fill-rule="evenodd"/><path d="M156.956 51.3783 168.472 51.3783 168.472 80.1783 156.956 80.1783Z" fill="#CFAFE7" fill-rule="evenodd"/><path d="M168.472 51.3783 179.987 51.3783 179.987 80.1783 168.472 80.1783Z" fill="#CFAFE7" fill-rule="evenodd"/><path d="M179.987 51.3783 191.503 51.3783 191.503 80.1783 179.987 80.1783Z" fill="#CFAFE7" fill-rule="evenodd"/><path d="M191.503 51.3783 203.019 51.3783 203.019 80.1783 191.503 80.1783Z" fill="#CFAFE7" fill-rule="evenodd"/><path d="M203.019 51.3783 214.534 51.3783 214.534 80.1783 203.019 80.1783Z" fill="#CFAFE7" fill-rule="evenodd"/><path d="M214.534 51.3783 226.05 51.3783 226.05 80.1783 214.534 80.1783Z" fill="#CFAFE7" fill-rule="evenodd"/><path d="M226.05 51.3783 237.566 51.3783 237.566 80.1783 226.05 80.1783Z" fill="#CFAFE7" fill-rule="evenodd"/><path d="M237.566 51.3783 249.081 51.3783 249.081 80.1783 237.566 80.1783Z" fill="#CFAFE7" fill-rule="evenodd"/><path d="M145.44 50.7116 145.44 82.1783" stroke="#FFFFFF" stroke-width="1.33333" stroke-linejoin="round" stroke-miterlimit="10" fill="none" fill-rule="evenodd"/><path d="M156.956 50.7116 156.956 82.1783" stroke="#FFFFFF" stroke-width="1.33333" stroke-linejoin="round" stroke-miterlimit="10" fill="none" fill-rule="evenodd"/><path d="M168.472 50.7116 168.472 82.1783" stroke="#FFFFFF" stroke-width="1.33333" stroke-linejoin="round" stroke-miterlimit="10" fill="none" fill-rule="evenodd"/><path d="M179.987 50.7116 179.987 82.1783" stroke="#FFFFFF" stroke-width="1.33333" stroke-linejoin="round" stroke-miterlimit="10" fill="none" fill-rule="evenodd"/><path d="M191.503 50.7116 191.503 82.1783" stroke="#FFFFFF" stroke-width="1.33333" stroke-linejoin="round" stroke-miterlimit="10" fill="none" fill-rule="evenodd"/><path d="M203.019 50.7116 203.019 82.1783" stroke="#FFFFFF" stroke-width="1.33333" stroke-linejoin="round" stroke-miterlimit="10" fill="none" fill-rule="evenodd"/><path d="M214.534 50.7116 214.534 82.1783" stroke="#FFFFFF" stroke-width="1.33333" stroke-linejoin="round" stroke-miterlimit="10" fill="none" fill-rule="evenodd"/><path d="M226.05 50.7116 226.05 82.1783" stroke="#FFFFFF" stroke-width="1.33333" stroke-linejoin="round" stroke-miterlimit="10" fill="none" fill-rule="evenodd"/><path d="M237.566 50.7116 237.566 82.1783" stroke="#FFFFFF" stroke-width="1.33333" stroke-linejoin="round" stroke-miterlimit="10" fill="none" fill-rule="evenodd"/><path d="M133.925 50.7116 133.925 82.1783" stroke="#FFFFFF" stroke-width="1.33333" stroke-linejoin="round" stroke-miterlimit="10" fill="none" fill-rule="evenodd"/><path d="M249.081 50.7116 249.081 82.1783" stroke="#FFFFFF" stroke-width="1.33333" stroke-linejoin="round" stroke-miterlimit="10" fill="none" fill-rule="evenodd"/><path d="M133.258 51.3783 249.748 51.3783" stroke="#FFFFFF" stroke-width="1.33333" stroke-linejoin="round" stroke-miterlimit="10" fill="none" fill-rule="evenodd"/><path d="M133.258 80.1783 249.748 80.1783" stroke="#FFFFFF" stroke-width="4" stroke-linejoin="round" stroke-miterlimit="10" fill="none" fill-rule="evenodd"/><text font-family="Times New Roman,Times New Roman_MSFontService,sans-serif" font-weight="400" font-size="16" transform="translate(47.8118 70)">Slice</text><text font-family="Times New Roman,Times New Roman_MSFontService,sans-serif" font-weight="400" font-size="16" transform="translate(83.9784 70)">1</text><text font-family="Times New Roman,Times New Roman_MSFontService,sans-serif" font-weight="400" font-size="16" transform="translate(161.977 70)">Slice 2</text><text font-family="Times New Roman,Times New Roman_MSFontService,sans-serif" font-weight="400" font-size="16" transform="translate(276.142 70)">Slice 3</text><text font-family="Times New Roman,Times New Roman_MSFontService,sans-serif" font-weight="400" font-size="16" transform="translate(504.472 70)">Slice 5</text><text font-family="Times New Roman,Times New Roman_MSFontService,sans-serif" font-weight="400" font-size="16" transform="translate(390.307 70)">Slice 4</text><text font-family="Times New Roman,Times New Roman_MSFontService,sans-serif" font-weight="400" font-size="16" transform="translate(618.637 70)">Slice 6</text><text font-family="Times New Roman,Times New Roman_MSFontService,sans-serif" font-weight="700" font-size="16" transform="translate(313.227 21)">Time Domain</text><text font-family="Times New Roman,Times New Roman_MSFontService,sans-serif" font-weight="400" font-size="16" transform="translate(317.087 41)">(IQ Samples)</text><path d="M20.5001 66.5001 20.5002 90.8475" stroke="#000000" stroke-width="1.33333" stroke-miterlimit="8" fill="none" fill-rule="evenodd"/><text font-family="Times New Roman,Times New Roman_MSFontService,sans-serif" font-weight="400" font-size="16" transform="translate(16.3071 105)">0</text><text font-family="Times New Roman,Times New Roman_MSFontService,sans-serif" font-weight="700" font-size="16" transform="translate(315.116 128)">Spectrogram</text><path d="M353.5 372.5 353.5 386.007" stroke="#000000" stroke-width="1.33333" stroke-miterlimit="8" fill="none" fill-rule="evenodd"/><text font-family="Times New Roman,Times New Roman_MSFontService,sans-serif" font-weight="400" font-size="16" transform="translate(348.916 401)">0</text></g></svg>