<svg width="1280" height="336" xmlns="http://www.w3.org/2000/svg" xmlns:xlink="http://www.w3.org/1999/xlink" overflow="hidden"><defs><clipPath id="clip0"><rect x="0" y="0" width="1280" height="336"/></clipPath></defs><g clip-path="url(#clip0)"><rect x="0" y="0" width="1280" height="336" fill="#FFFFFF"/><path d="M149 271 162.139 271 162.139 277 149 277ZM159.139 265 177.139 274 159.139 283Z"/><path d="M301 271 314.139 271 314.139 277 301 277ZM311.139 265 329.139 274 311.139 283Z"/><path d="M453 271 466.139 271 466.139 277 453 277ZM463.139 265 481.139 274 463.139 283Z"/><path d="M606 271 619.139 271 619.139 277 606 277ZM616.139 265 634.139 274 616.139 283Z"/><path d="M795 271 808.139 271 808.139 277 795 277ZM805.139 265 823.139 274 805.139 283Z"/><path d="M958 271 971.139 271 971.139 277 958 277ZM968.139 265 986.139 274 968.139 283Z"/><path d="M1121 271 1141.96 271 1141.96 277 1121 277ZM1138.96 265 1156.96 274 1138.96 283Z"/><path d="M0 0 0.000104987 47.8709" stroke="#000000" stroke-width="6" stroke-linecap="round" stroke-miterlimit="8" fill="none" fill-rule="evenodd" transform="matrix(1 0 0 -1 1063 165.871)"/><text font-family="Times New Roman,Times New Roman_MSFontService,sans-serif" font-weight="400" font-size="24" transform="translate(127.244 72)">Bits<tspan x="-72.6667" y="29">(from higher layer)</tspan></text><rect x="256" y="19" width="165" height="90" fill="#D9D9D9"/><text font-family="Times New Roman,Times New Roman_MSFontService,sans-serif" font-weight="400" font-size="24" transform="translate(298.732 58)">Channel<tspan x="4.66666" y="29">Coding</tspan></text><rect x="503" y="19" width="165" height="90" fill="#D9D9D9"/><text font-family="Times New Roman,Times New Roman_MSFontService,sans-serif" font-weight="400" font-size="24" transform="translate(529.092 72)">Modulation</text><rect x="749" y="19" width="126" height="90" fill="#D9D9D9"/><text font-family="Times New Roman,Times New Roman_MSFontService,sans-serif" font-weight="400" font-size="24" transform="translate(785.956 58)">Pulse <tspan x="-13.3334" y="29">Shaping</tspan></text><rect x="23" y="229" width="127" height="90" fill="#D9D9D9"/><text font-family="Times New Roman,Times New Roman_MSFontService,sans-serif" font-weight="400" font-size="24" transform="translate(44.483 268)">Matched <tspan x="16" y="29">Filter</tspan></text><rect x="176" y="229" width="126" height="90" fill="#FFE699"/><text font-family="Times New Roman,Times New Roman_MSFontService,sans-serif" font-weight="400" font-size="24" transform="translate(205.563 268)">Coarse <tspan x="-15.6667" y="29">Freq Sync</tspan></text><rect x="328" y="229" width="126" height="90" fill="#FFE699"/><text font-family="Times New Roman,Times New Roman_MSFontService,sans-serif" font-weight="400" font-size="24" transform="translate(339.4 282)">Time Sync</text><rect x="481" y="229" width="126" height="90" fill="#FFE699"/><text font-family="Times New Roman,Times New Roman_MSFontService,sans-serif" font-weight="400" font-size="24" transform="translate(497.391 268)">Fine Freq <tspan x="22.3333" y="29">Sync</tspan></text><rect x="823" y="229" width="136" height="90" fill="#FFE699"/><text font-family="Times New Roman,Times New Roman_MSFontService,sans-serif" font-weight="400" font-size="24" transform="translate(860.23 268)">Frame <tspan x="-28" y="29">Detect/Sync</tspan></text><rect x="633" y="229" width="163" height="90" fill="#D9D9D9"/><text font-family="Times New Roman,Times New Roman_MSFontService,sans-serif" font-weight="400" font-size="24" transform="translate(646.023 282)">Demodulation</text><rect x="986" y="229" width="136" height="90" fill="#D9D9D9"/><text font-family="Times New Roman,Times New Roman_MSFontService,sans-serif" font-weight="400" font-size="24" transform="translate(1013.79 268)">Channel <tspan x="-6.66669" y="29">Decoding</tspan><tspan x="155.817" y="13">Bits</tspan><tspan x="121.15" y="42">(hopefully)</tspan></text><path d="M985.972 45.2576C983.785 32.5683 995.049 20.8822 1011.13 19.1562 1017.65 18.4567 1024.27 19.5023 1029.95 22.1255 1035.96 13.1824 1050.01 9.78354 1061.33 14.534 1063.31 15.3647 1065.13 16.4175 1066.73 17.6597 1071.41 10.2465 1082.81 7.23468 1092.2 10.9326 1094.8 11.9561 1097.07 13.4364 1098.83 15.2596 1106.38 8.2491 1119.71 7.38312 1128.62 13.3254 1132.36 15.8229 1134.88 19.2677 1135.75 23.0691 1148.12 25.7317 1155.42 35.8176 1152.05 45.5965 1151.77 46.4186 1151.41 47.2241 1150.99 48.0072 1160.91 58.1966 1158.48 72.8011 1145.56 80.6272 1141.54 83.0633 1136.8 84.6406 1131.78 85.2068 1131.67 96.169 1120.31 104.984 1106.4 104.896 1101.76 104.867 1097.21 103.825 1093.27 101.885 1088.57 114.175 1072.17 121.122 1056.63 117.401 1050.12 115.841 1044.5 112.543 1040.72 108.069 1024.82 115.638 1004.18 111.567 994.617 98.9751 994.497 98.8164 994.378 98.6568 994.262 98.4961 983.855 99.4574 974.427 93.597 973.206 85.4065 972.555 81.0408 974.381 76.6712 978.198 73.462 969.186 69.2756 966.159 60.0866 971.437 52.9379 974.481 48.8137 979.821 46.0873 985.814 45.5971Z" fill="#D9D9D9" fill-rule="evenodd"/><text font-family="Times New Roman,Times New Roman_MSFontService,sans-serif" font-weight="400" font-size="24" transform="translate(1015 55)">Wireless <tspan x="1.51996" y="29">Channel</tspan></text><path d="M184 61 240.732 61.0001 240.732 67.0001 184 67ZM237.732 55.0001 255.732 64.0001 237.732 73.0001Z"/><path d="M421 61 487.3 61.0001 487.3 67.0001 421 67ZM484.3 55.0001 502.3 64.0001 484.3 73.0001Z"/><path d="M668 61 734.3 61.0001 734.3 67.0001 668 67ZM731.3 55.0001 749.3 64.0001 731.3 73.0001Z"/><path d="M3.3202e-06-3 79.8618-2.99991 79.8618 3.00009-3.3202e-06 3ZM76.8618-8.99991 94.8618 0.000104987 76.8618 9.00008Z" transform="matrix(1 0 0 -1 875 64.0001)"/><path d="M89.0001 167 89 214.163C89 215.82 87.6568 217.163 86 217.163 84.3431 217.163 83 215.82 83 214.163L83.0001 167C83.0001 165.343 84.3432 164 86.0001 164 87.6569 164 89.0001 165.343 89.0001 167ZM95 211.163 85.9999 229.163 77 211.163Z"/><path d="M0 0 976.718 0.000104987" stroke="#000000" stroke-width="6" stroke-linecap="round" stroke-miterlimit="8" fill="none" fill-rule="evenodd" transform="matrix(-1 0 0 1 1062.72 166)"/></g></svg>