<?xml version="1.0" encoding="utf-8" standalone="no"?>
<!DOCTYPE svg PUBLIC "-//W3C//DTD SVG 1.1//EN"
  "http://www.w3.org/Graphics/SVG/1.1/DTD/svg11.dtd">
<!-- Created with matplotlib (https://matplotlib.org/) -->
<svg height="273.15625pt" version="1.1" viewBox="0 0 474.043125 273.15625" width="474.043125pt" xmlns="http://www.w3.org/2000/svg" xmlns:xlink="http://www.w3.org/1999/xlink">
 <defs>
  <style type="text/css">
*{stroke-linecap:butt;stroke-linejoin:round;}
  </style>
 </defs>
 <g id="figure_1">
  <g id="patch_1">
   <path d="M 0 273.15625 
L 474.043125 273.15625 
L 474.043125 0 
L 0 0 
z
" style="fill:#ffffff;"/>
  </g>
  <g id="axes_1">
   <g id="patch_2">
    <path d="M 30.103125 115.278125 
L 463.343125 115.278125 
L 463.343125 22.318125 
L 30.103125 22.318125 
z
" style="fill:#ffffff;"/>
   </g>
   <g id="matplotlib.axis_1">
    <g id="xtick_1">
     <g id="line2d_1">
      <defs>
       <path d="M 0 0 
L 0 3.5 
" id="ma6f02f49b4" style="stroke:#000000;stroke-width:0.8;"/>
      </defs>
      <g>
       <use style="stroke:#000000;stroke-width:0.8;" x="49.795852" xlink:href="#ma6f02f49b4" y="115.278125"/>
      </g>
     </g>
     <g id="text_1">
      <!-- 0.0 -->
      <defs>
       <path d="M 31.78125 66.40625 
Q 24.171875 66.40625 20.328125 58.90625 
Q 16.5 51.421875 16.5 36.375 
Q 16.5 21.390625 20.328125 13.890625 
Q 24.171875 6.390625 31.78125 6.390625 
Q 39.453125 6.390625 43.28125 13.890625 
Q 47.125 21.390625 47.125 36.375 
Q 47.125 51.421875 43.28125 58.90625 
Q 39.453125 66.40625 31.78125 66.40625 
z
M 31.78125 74.21875 
Q 44.046875 74.21875 50.515625 64.515625 
Q 56.984375 54.828125 56.984375 36.375 
Q 56.984375 17.96875 50.515625 8.265625 
Q 44.046875 -1.421875 31.78125 -1.421875 
Q 19.53125 -1.421875 13.0625 8.265625 
Q 6.59375 17.96875 6.59375 36.375 
Q 6.59375 54.828125 13.0625 64.515625 
Q 19.53125 74.21875 31.78125 74.21875 
z
" id="DejaVuSans-48"/>
       <path d="M 10.6875 12.40625 
L 21 12.40625 
L 21 0 
L 10.6875 0 
z
" id="DejaVuSans-46"/>
      </defs>
      <g transform="translate(41.84429 129.876562)scale(0.1 -0.1)">
       <use xlink:href="#DejaVuSans-48"/>
       <use x="63.623047" xlink:href="#DejaVuSans-46"/>
       <use x="95.410156" xlink:href="#DejaVuSans-48"/>
      </g>
     </g>
    </g>
    <g id="xtick_2">
     <g id="line2d_2">
      <g>
       <use style="stroke:#000000;stroke-width:0.8;" x="99.02767" xlink:href="#ma6f02f49b4" y="115.278125"/>
      </g>
     </g>
     <g id="text_2">
      <!-- 0.5 -->
      <defs>
       <path d="M 10.796875 72.90625 
L 49.515625 72.90625 
L 49.515625 64.59375 
L 19.828125 64.59375 
L 19.828125 46.734375 
Q 21.96875 47.46875 24.109375 47.828125 
Q 26.265625 48.1875 28.421875 48.1875 
Q 40.625 48.1875 47.75 41.5 
Q 54.890625 34.8125 54.890625 23.390625 
Q 54.890625 11.625 47.5625 5.09375 
Q 40.234375 -1.421875 26.90625 -1.421875 
Q 22.3125 -1.421875 17.546875 -0.640625 
Q 12.796875 0.140625 7.71875 1.703125 
L 7.71875 11.625 
Q 12.109375 9.234375 16.796875 8.0625 
Q 21.484375 6.890625 26.703125 6.890625 
Q 35.15625 6.890625 40.078125 11.328125 
Q 45.015625 15.765625 45.015625 23.390625 
Q 45.015625 31 40.078125 35.4375 
Q 35.15625 39.890625 26.703125 39.890625 
Q 22.75 39.890625 18.8125 39.015625 
Q 14.890625 38.140625 10.796875 36.28125 
z
" id="DejaVuSans-53"/>
      </defs>
      <g transform="translate(91.076108 129.876562)scale(0.1 -0.1)">
       <use xlink:href="#DejaVuSans-48"/>
       <use x="63.623047" xlink:href="#DejaVuSans-46"/>
       <use x="95.410156" xlink:href="#DejaVuSans-53"/>
      </g>
     </g>
    </g>
    <g id="xtick_3">
     <g id="line2d_3">
      <g>
       <use style="stroke:#000000;stroke-width:0.8;" x="148.259489" xlink:href="#ma6f02f49b4" y="115.278125"/>
      </g>
     </g>
     <g id="text_3">
      <!-- 1.0 -->
      <defs>
       <path d="M 12.40625 8.296875 
L 28.515625 8.296875 
L 28.515625 63.921875 
L 10.984375 60.40625 
L 10.984375 69.390625 
L 28.421875 72.90625 
L 38.28125 72.90625 
L 38.28125 8.296875 
L 54.390625 8.296875 
L 54.390625 0 
L 12.40625 0 
z
" id="DejaVuSans-49"/>
      </defs>
      <g transform="translate(140.307926 129.876562)scale(0.1 -0.1)">
       <use xlink:href="#DejaVuSans-49"/>
       <use x="63.623047" xlink:href="#DejaVuSans-46"/>
       <use x="95.410156" xlink:href="#DejaVuSans-48"/>
      </g>
     </g>
    </g>
    <g id="xtick_4">
     <g id="line2d_4">
      <g>
       <use style="stroke:#000000;stroke-width:0.8;" x="197.491307" xlink:href="#ma6f02f49b4" y="115.278125"/>
      </g>
     </g>
     <g id="text_4">
      <!-- 1.5 -->
      <g transform="translate(189.539744 129.876562)scale(0.1 -0.1)">
       <use xlink:href="#DejaVuSans-49"/>
       <use x="63.623047" xlink:href="#DejaVuSans-46"/>
       <use x="95.410156" xlink:href="#DejaVuSans-53"/>
      </g>
     </g>
    </g>
    <g id="xtick_5">
     <g id="line2d_5">
      <g>
       <use style="stroke:#000000;stroke-width:0.8;" x="246.723125" xlink:href="#ma6f02f49b4" y="115.278125"/>
      </g>
     </g>
     <g id="text_5">
      <!-- 2.0 -->
      <defs>
       <path d="M 19.1875 8.296875 
L 53.609375 8.296875 
L 53.609375 0 
L 7.328125 0 
L 7.328125 8.296875 
Q 12.9375 14.109375 22.625 23.890625 
Q 32.328125 33.6875 34.8125 36.53125 
Q 39.546875 41.84375 41.421875 45.53125 
Q 43.3125 49.21875 43.3125 52.78125 
Q 43.3125 58.59375 39.234375 62.25 
Q 35.15625 65.921875 28.609375 65.921875 
Q 23.96875 65.921875 18.8125 64.3125 
Q 13.671875 62.703125 7.8125 59.421875 
L 7.8125 69.390625 
Q 13.765625 71.78125 18.9375 73 
Q 24.125 74.21875 28.421875 74.21875 
Q 39.75 74.21875 46.484375 68.546875 
Q 53.21875 62.890625 53.21875 53.421875 
Q 53.21875 48.921875 51.53125 44.890625 
Q 49.859375 40.875 45.40625 35.40625 
Q 44.1875 33.984375 37.640625 27.21875 
Q 31.109375 20.453125 19.1875 8.296875 
z
" id="DejaVuSans-50"/>
      </defs>
      <g transform="translate(238.771563 129.876562)scale(0.1 -0.1)">
       <use xlink:href="#DejaVuSans-50"/>
       <use x="63.623047" xlink:href="#DejaVuSans-46"/>
       <use x="95.410156" xlink:href="#DejaVuSans-48"/>
      </g>
     </g>
    </g>
    <g id="xtick_6">
     <g id="line2d_6">
      <g>
       <use style="stroke:#000000;stroke-width:0.8;" x="295.954943" xlink:href="#ma6f02f49b4" y="115.278125"/>
      </g>
     </g>
     <g id="text_6">
      <!-- 2.5 -->
      <g transform="translate(288.003381 129.876562)scale(0.1 -0.1)">
       <use xlink:href="#DejaVuSans-50"/>
       <use x="63.623047" xlink:href="#DejaVuSans-46"/>
       <use x="95.410156" xlink:href="#DejaVuSans-53"/>
      </g>
     </g>
    </g>
    <g id="xtick_7">
     <g id="line2d_7">
      <g>
       <use style="stroke:#000000;stroke-width:0.8;" x="345.186761" xlink:href="#ma6f02f49b4" y="115.278125"/>
      </g>
     </g>
     <g id="text_7">
      <!-- 3.0 -->
      <defs>
       <path d="M 40.578125 39.3125 
Q 47.65625 37.796875 51.625 33 
Q 55.609375 28.21875 55.609375 21.1875 
Q 55.609375 10.40625 48.1875 4.484375 
Q 40.765625 -1.421875 27.09375 -1.421875 
Q 22.515625 -1.421875 17.65625 -0.515625 
Q 12.796875 0.390625 7.625 2.203125 
L 7.625 11.71875 
Q 11.71875 9.328125 16.59375 8.109375 
Q 21.484375 6.890625 26.8125 6.890625 
Q 36.078125 6.890625 40.9375 10.546875 
Q 45.796875 14.203125 45.796875 21.1875 
Q 45.796875 27.640625 41.28125 31.265625 
Q 36.765625 34.90625 28.71875 34.90625 
L 20.21875 34.90625 
L 20.21875 43.015625 
L 29.109375 43.015625 
Q 36.375 43.015625 40.234375 45.921875 
Q 44.09375 48.828125 44.09375 54.296875 
Q 44.09375 59.90625 40.109375 62.90625 
Q 36.140625 65.921875 28.71875 65.921875 
Q 24.65625 65.921875 20.015625 65.03125 
Q 15.375 64.15625 9.8125 62.3125 
L 9.8125 71.09375 
Q 15.4375 72.65625 20.34375 73.4375 
Q 25.25 74.21875 29.59375 74.21875 
Q 40.828125 74.21875 47.359375 69.109375 
Q 53.90625 64.015625 53.90625 55.328125 
Q 53.90625 49.265625 50.4375 45.09375 
Q 46.96875 40.921875 40.578125 39.3125 
z
" id="DejaVuSans-51"/>
      </defs>
      <g transform="translate(337.235199 129.876562)scale(0.1 -0.1)">
       <use xlink:href="#DejaVuSans-51"/>
       <use x="63.623047" xlink:href="#DejaVuSans-46"/>
       <use x="95.410156" xlink:href="#DejaVuSans-48"/>
      </g>
     </g>
    </g>
    <g id="xtick_8">
     <g id="line2d_8">
      <g>
       <use style="stroke:#000000;stroke-width:0.8;" x="394.41858" xlink:href="#ma6f02f49b4" y="115.278125"/>
      </g>
     </g>
     <g id="text_8">
      <!-- 3.5 -->
      <g transform="translate(386.467017 129.876562)scale(0.1 -0.1)">
       <use xlink:href="#DejaVuSans-51"/>
       <use x="63.623047" xlink:href="#DejaVuSans-46"/>
       <use x="95.410156" xlink:href="#DejaVuSans-53"/>
      </g>
     </g>
    </g>
    <g id="xtick_9">
     <g id="line2d_9">
      <g>
       <use style="stroke:#000000;stroke-width:0.8;" x="443.650398" xlink:href="#ma6f02f49b4" y="115.278125"/>
      </g>
     </g>
     <g id="text_9">
      <!-- 4.0 -->
      <defs>
       <path d="M 37.796875 64.3125 
L 12.890625 25.390625 
L 37.796875 25.390625 
z
M 35.203125 72.90625 
L 47.609375 72.90625 
L 47.609375 25.390625 
L 58.015625 25.390625 
L 58.015625 17.1875 
L 47.609375 17.1875 
L 47.609375 0 
L 37.796875 0 
L 37.796875 17.1875 
L 4.890625 17.1875 
L 4.890625 26.703125 
z
" id="DejaVuSans-52"/>
      </defs>
      <g transform="translate(435.698835 129.876562)scale(0.1 -0.1)">
       <use xlink:href="#DejaVuSans-52"/>
       <use x="63.623047" xlink:href="#DejaVuSans-46"/>
       <use x="95.410156" xlink:href="#DejaVuSans-48"/>
      </g>
     </g>
    </g>
   </g>
   <g id="matplotlib.axis_2">
    <g id="ytick_1">
     <g id="line2d_10">
      <defs>
       <path d="M 0 0 
L -3.5 0 
" id="m0de70ff7a1" style="stroke:#000000;stroke-width:0.8;"/>
      </defs>
      <g>
       <use style="stroke:#000000;stroke-width:0.8;" x="30.103125" xlink:href="#m0de70ff7a1" y="99.281281"/>
      </g>
     </g>
     <g id="text_10">
      <!-- 0.9 -->
      <defs>
       <path d="M 10.984375 1.515625 
L 10.984375 10.5 
Q 14.703125 8.734375 18.5 7.8125 
Q 22.3125 6.890625 25.984375 6.890625 
Q 35.75 6.890625 40.890625 13.453125 
Q 46.046875 20.015625 46.78125 33.40625 
Q 43.953125 29.203125 39.59375 26.953125 
Q 35.25 24.703125 29.984375 24.703125 
Q 19.046875 24.703125 12.671875 31.3125 
Q 6.296875 37.9375 6.296875 49.421875 
Q 6.296875 60.640625 12.9375 67.421875 
Q 19.578125 74.21875 30.609375 74.21875 
Q 43.265625 74.21875 49.921875 64.515625 
Q 56.59375 54.828125 56.59375 36.375 
Q 56.59375 19.140625 48.40625 8.859375 
Q 40.234375 -1.421875 26.421875 -1.421875 
Q 22.703125 -1.421875 18.890625 -0.6875 
Q 15.09375 0.046875 10.984375 1.515625 
z
M 30.609375 32.421875 
Q 37.25 32.421875 41.125 36.953125 
Q 45.015625 41.5 45.015625 49.421875 
Q 45.015625 57.28125 41.125 61.84375 
Q 37.25 66.40625 30.609375 66.40625 
Q 23.96875 66.40625 20.09375 61.84375 
Q 16.21875 57.28125 16.21875 49.421875 
Q 16.21875 41.5 20.09375 36.953125 
Q 23.96875 32.421875 30.609375 32.421875 
z
" id="DejaVuSans-57"/>
      </defs>
      <g transform="translate(7.2 103.0805)scale(0.1 -0.1)">
       <use xlink:href="#DejaVuSans-48"/>
       <use x="63.623047" xlink:href="#DejaVuSans-46"/>
       <use x="95.410156" xlink:href="#DejaVuSans-57"/>
      </g>
     </g>
    </g>
    <g id="ytick_2">
     <g id="line2d_11">
      <g>
       <use style="stroke:#000000;stroke-width:0.8;" x="30.103125" xlink:href="#m0de70ff7a1" y="63.21424"/>
      </g>
     </g>
     <g id="text_11">
      <!-- 1.0 -->
      <g transform="translate(7.2 67.013459)scale(0.1 -0.1)">
       <use xlink:href="#DejaVuSans-49"/>
       <use x="63.623047" xlink:href="#DejaVuSans-46"/>
       <use x="95.410156" xlink:href="#DejaVuSans-48"/>
      </g>
     </g>
    </g>
    <g id="ytick_3">
     <g id="line2d_12">
      <g>
       <use style="stroke:#000000;stroke-width:0.8;" x="30.103125" xlink:href="#m0de70ff7a1" y="27.147199"/>
      </g>
     </g>
     <g id="text_12">
      <!-- 1.1 -->
      <g transform="translate(7.2 30.946418)scale(0.1 -0.1)">
       <use xlink:href="#DejaVuSans-49"/>
       <use x="63.623047" xlink:href="#DejaVuSans-46"/>
       <use x="95.410156" xlink:href="#DejaVuSans-49"/>
      </g>
     </g>
    </g>
   </g>
   <g id="line2d_13">
    <path clip-path="url(#pe9bd033c11)" d="M 49.795852 26.54358 
L 148.259489 58.257536 
L 246.723125 84.374732 
L 345.186761 102.221137 
L 443.650398 111.05267 
" style="fill:none;stroke:#1f77b4;stroke-linecap:square;stroke-width:1.5;"/>
    <defs>
     <path d="M 0 1.5 
C 0.397805 1.5 0.77937 1.341951 1.06066 1.06066 
C 1.341951 0.77937 1.5 0.397805 1.5 0 
C 1.5 -0.397805 1.341951 -0.77937 1.06066 -1.06066 
C 0.77937 -1.341951 0.397805 -1.5 0 -1.5 
C -0.397805 -1.5 -0.77937 -1.341951 -1.06066 -1.06066 
C -1.341951 -0.77937 -1.5 -0.397805 -1.5 0 
C -1.5 0.397805 -1.341951 0.77937 -1.06066 1.06066 
C -0.77937 1.341951 -0.397805 1.5 0 1.5 
z
" id="m2d471b9e46" style="stroke:#1f77b4;"/>
    </defs>
    <g clip-path="url(#pe9bd033c11)">
     <use style="fill:#1f77b4;stroke:#1f77b4;" x="49.795852" xlink:href="#m2d471b9e46" y="26.54358"/>
     <use style="fill:#1f77b4;stroke:#1f77b4;" x="148.259489" xlink:href="#m2d471b9e46" y="58.257536"/>
     <use style="fill:#1f77b4;stroke:#1f77b4;" x="246.723125" xlink:href="#m2d471b9e46" y="84.374732"/>
     <use style="fill:#1f77b4;stroke:#1f77b4;" x="345.186761" xlink:href="#m2d471b9e46" y="102.221137"/>
     <use style="fill:#1f77b4;stroke:#1f77b4;" x="443.650398" xlink:href="#m2d471b9e46" y="111.05267"/>
    </g>
   </g>
   <g id="patch_3">
    <path d="M 30.103125 115.278125 
L 30.103125 22.318125 
" style="fill:none;stroke:#000000;stroke-linecap:square;stroke-linejoin:miter;stroke-width:0.8;"/>
   </g>
   <g id="patch_4">
    <path d="M 463.343125 115.278125 
L 463.343125 22.318125 
" style="fill:none;stroke:#000000;stroke-linecap:square;stroke-linejoin:miter;stroke-width:0.8;"/>
   </g>
   <g id="patch_5">
    <path d="M 30.103125 115.278125 
L 463.343125 115.278125 
" style="fill:none;stroke:#000000;stroke-linecap:square;stroke-linejoin:miter;stroke-width:0.8;"/>
   </g>
   <g id="patch_6">
    <path d="M 30.103125 22.318125 
L 463.343125 22.318125 
" style="fill:none;stroke:#000000;stroke-linecap:square;stroke-linejoin:miter;stroke-width:0.8;"/>
   </g>
   <g id="text_13">
    <!-- Before Interpolation -->
    <defs>
     <path d="M 19.671875 34.8125 
L 19.671875 8.109375 
L 35.5 8.109375 
Q 43.453125 8.109375 47.28125 11.40625 
Q 51.125 14.703125 51.125 21.484375 
Q 51.125 28.328125 47.28125 31.5625 
Q 43.453125 34.8125 35.5 34.8125 
z
M 19.671875 64.796875 
L 19.671875 42.828125 
L 34.28125 42.828125 
Q 41.5 42.828125 45.03125 45.53125 
Q 48.578125 48.25 48.578125 53.8125 
Q 48.578125 59.328125 45.03125 62.0625 
Q 41.5 64.796875 34.28125 64.796875 
z
M 9.8125 72.90625 
L 35.015625 72.90625 
Q 46.296875 72.90625 52.390625 68.21875 
Q 58.5 63.53125 58.5 54.890625 
Q 58.5 48.1875 55.375 44.234375 
Q 52.25 40.28125 46.1875 39.3125 
Q 53.46875 37.75 57.5 32.78125 
Q 61.53125 27.828125 61.53125 20.40625 
Q 61.53125 10.640625 54.890625 5.3125 
Q 48.25 0 35.984375 0 
L 9.8125 0 
z
" id="DejaVuSans-66"/>
     <path d="M 56.203125 29.59375 
L 56.203125 25.203125 
L 14.890625 25.203125 
Q 15.484375 15.921875 20.484375 11.0625 
Q 25.484375 6.203125 34.421875 6.203125 
Q 39.59375 6.203125 44.453125 7.46875 
Q 49.3125 8.734375 54.109375 11.28125 
L 54.109375 2.78125 
Q 49.265625 0.734375 44.1875 -0.34375 
Q 39.109375 -1.421875 33.890625 -1.421875 
Q 20.796875 -1.421875 13.15625 6.1875 
Q 5.515625 13.8125 5.515625 26.8125 
Q 5.515625 40.234375 12.765625 48.109375 
Q 20.015625 56 32.328125 56 
Q 43.359375 56 49.78125 48.890625 
Q 56.203125 41.796875 56.203125 29.59375 
z
M 47.21875 32.234375 
Q 47.125 39.59375 43.09375 43.984375 
Q 39.0625 48.390625 32.421875 48.390625 
Q 24.90625 48.390625 20.390625 44.140625 
Q 15.875 39.890625 15.1875 32.171875 
z
" id="DejaVuSans-101"/>
     <path d="M 37.109375 75.984375 
L 37.109375 68.5 
L 28.515625 68.5 
Q 23.6875 68.5 21.796875 66.546875 
Q 19.921875 64.59375 19.921875 59.515625 
L 19.921875 54.6875 
L 34.71875 54.6875 
L 34.71875 47.703125 
L 19.921875 47.703125 
L 19.921875 0 
L 10.890625 0 
L 10.890625 47.703125 
L 2.296875 47.703125 
L 2.296875 54.6875 
L 10.890625 54.6875 
L 10.890625 58.5 
Q 10.890625 67.625 15.140625 71.796875 
Q 19.390625 75.984375 28.609375 75.984375 
z
" id="DejaVuSans-102"/>
     <path d="M 30.609375 48.390625 
Q 23.390625 48.390625 19.1875 42.75 
Q 14.984375 37.109375 14.984375 27.296875 
Q 14.984375 17.484375 19.15625 11.84375 
Q 23.34375 6.203125 30.609375 6.203125 
Q 37.796875 6.203125 41.984375 11.859375 
Q 46.1875 17.53125 46.1875 27.296875 
Q 46.1875 37.015625 41.984375 42.703125 
Q 37.796875 48.390625 30.609375 48.390625 
z
M 30.609375 56 
Q 42.328125 56 49.015625 48.375 
Q 55.71875 40.765625 55.71875 27.296875 
Q 55.71875 13.875 49.015625 6.21875 
Q 42.328125 -1.421875 30.609375 -1.421875 
Q 18.84375 -1.421875 12.171875 6.21875 
Q 5.515625 13.875 5.515625 27.296875 
Q 5.515625 40.765625 12.171875 48.375 
Q 18.84375 56 30.609375 56 
z
" id="DejaVuSans-111"/>
     <path d="M 41.109375 46.296875 
Q 39.59375 47.171875 37.8125 47.578125 
Q 36.03125 48 33.890625 48 
Q 26.265625 48 22.1875 43.046875 
Q 18.109375 38.09375 18.109375 28.8125 
L 18.109375 0 
L 9.078125 0 
L 9.078125 54.6875 
L 18.109375 54.6875 
L 18.109375 46.1875 
Q 20.953125 51.171875 25.484375 53.578125 
Q 30.03125 56 36.53125 56 
Q 37.453125 56 38.578125 55.875 
Q 39.703125 55.765625 41.0625 55.515625 
z
" id="DejaVuSans-114"/>
     <path id="DejaVuSans-32"/>
     <path d="M 9.8125 72.90625 
L 19.671875 72.90625 
L 19.671875 0 
L 9.8125 0 
z
" id="DejaVuSans-73"/>
     <path d="M 54.890625 33.015625 
L 54.890625 0 
L 45.90625 0 
L 45.90625 32.71875 
Q 45.90625 40.484375 42.875 44.328125 
Q 39.84375 48.1875 33.796875 48.1875 
Q 26.515625 48.1875 22.3125 43.546875 
Q 18.109375 38.921875 18.109375 30.90625 
L 18.109375 0 
L 9.078125 0 
L 9.078125 54.6875 
L 18.109375 54.6875 
L 18.109375 46.1875 
Q 21.34375 51.125 25.703125 53.5625 
Q 30.078125 56 35.796875 56 
Q 45.21875 56 50.046875 50.171875 
Q 54.890625 44.34375 54.890625 33.015625 
z
" id="DejaVuSans-110"/>
     <path d="M 18.3125 70.21875 
L 18.3125 54.6875 
L 36.8125 54.6875 
L 36.8125 47.703125 
L 18.3125 47.703125 
L 18.3125 18.015625 
Q 18.3125 11.328125 20.140625 9.421875 
Q 21.96875 7.515625 27.59375 7.515625 
L 36.8125 7.515625 
L 36.8125 0 
L 27.59375 0 
Q 17.1875 0 13.234375 3.875 
Q 9.28125 7.765625 9.28125 18.015625 
L 9.28125 47.703125 
L 2.6875 47.703125 
L 2.6875 54.6875 
L 9.28125 54.6875 
L 9.28125 70.21875 
z
" id="DejaVuSans-116"/>
     <path d="M 18.109375 8.203125 
L 18.109375 -20.796875 
L 9.078125 -20.796875 
L 9.078125 54.6875 
L 18.109375 54.6875 
L 18.109375 46.390625 
Q 20.953125 51.265625 25.265625 53.625 
Q 29.59375 56 35.59375 56 
Q 45.5625 56 51.78125 48.09375 
Q 58.015625 40.1875 58.015625 27.296875 
Q 58.015625 14.40625 51.78125 6.484375 
Q 45.5625 -1.421875 35.59375 -1.421875 
Q 29.59375 -1.421875 25.265625 0.953125 
Q 20.953125 3.328125 18.109375 8.203125 
z
M 48.6875 27.296875 
Q 48.6875 37.203125 44.609375 42.84375 
Q 40.53125 48.484375 33.40625 48.484375 
Q 26.265625 48.484375 22.1875 42.84375 
Q 18.109375 37.203125 18.109375 27.296875 
Q 18.109375 17.390625 22.1875 11.75 
Q 26.265625 6.109375 33.40625 6.109375 
Q 40.53125 6.109375 44.609375 11.75 
Q 48.6875 17.390625 48.6875 27.296875 
z
" id="DejaVuSans-112"/>
     <path d="M 9.421875 75.984375 
L 18.40625 75.984375 
L 18.40625 0 
L 9.421875 0 
z
" id="DejaVuSans-108"/>
     <path d="M 34.28125 27.484375 
Q 23.390625 27.484375 19.1875 25 
Q 14.984375 22.515625 14.984375 16.5 
Q 14.984375 11.71875 18.140625 8.90625 
Q 21.296875 6.109375 26.703125 6.109375 
Q 34.1875 6.109375 38.703125 11.40625 
Q 43.21875 16.703125 43.21875 25.484375 
L 43.21875 27.484375 
z
M 52.203125 31.203125 
L 52.203125 0 
L 43.21875 0 
L 43.21875 8.296875 
Q 40.140625 3.328125 35.546875 0.953125 
Q 30.953125 -1.421875 24.3125 -1.421875 
Q 15.921875 -1.421875 10.953125 3.296875 
Q 6 8.015625 6 15.921875 
Q 6 25.140625 12.171875 29.828125 
Q 18.359375 34.515625 30.609375 34.515625 
L 43.21875 34.515625 
L 43.21875 35.40625 
Q 43.21875 41.609375 39.140625 45 
Q 35.0625 48.390625 27.6875 48.390625 
Q 23 48.390625 18.546875 47.265625 
Q 14.109375 46.140625 10.015625 43.890625 
L 10.015625 52.203125 
Q 14.9375 54.109375 19.578125 55.046875 
Q 24.21875 56 28.609375 56 
Q 40.484375 56 46.34375 49.84375 
Q 52.203125 43.703125 52.203125 31.203125 
z
" id="DejaVuSans-97"/>
     <path d="M 9.421875 54.6875 
L 18.40625 54.6875 
L 18.40625 0 
L 9.421875 0 
z
M 9.421875 75.984375 
L 18.40625 75.984375 
L 18.40625 64.59375 
L 9.421875 64.59375 
z
" id="DejaVuSans-105"/>
    </defs>
    <g transform="translate(186.667813 16.318125)scale(0.12 -0.12)">
     <use xlink:href="#DejaVuSans-66"/>
     <use x="68.603516" xlink:href="#DejaVuSans-101"/>
     <use x="130.126953" xlink:href="#DejaVuSans-102"/>
     <use x="165.332031" xlink:href="#DejaVuSans-111"/>
     <use x="226.513672" xlink:href="#DejaVuSans-114"/>
     <use x="267.595703" xlink:href="#DejaVuSans-101"/>
     <use x="329.119141" xlink:href="#DejaVuSans-32"/>
     <use x="360.90625" xlink:href="#DejaVuSans-73"/>
     <use x="390.398438" xlink:href="#DejaVuSans-110"/>
     <use x="453.777344" xlink:href="#DejaVuSans-116"/>
     <use x="492.986328" xlink:href="#DejaVuSans-101"/>
     <use x="554.509766" xlink:href="#DejaVuSans-114"/>
     <use x="595.623047" xlink:href="#DejaVuSans-112"/>
     <use x="659.099609" xlink:href="#DejaVuSans-111"/>
     <use x="720.28125" xlink:href="#DejaVuSans-108"/>
     <use x="748.064453" xlink:href="#DejaVuSans-97"/>
     <use x="809.34375" xlink:href="#DejaVuSans-116"/>
     <use x="848.552734" xlink:href="#DejaVuSans-105"/>
     <use x="876.335938" xlink:href="#DejaVuSans-111"/>
     <use x="937.517578" xlink:href="#DejaVuSans-110"/>
    </g>
   </g>
  </g>
  <g id="axes_2">
   <g id="patch_7">
    <path d="M 30.103125 249.278125 
L 463.343125 249.278125 
L 463.343125 156.318125 
L 30.103125 156.318125 
z
" style="fill:#ffffff;"/>
   </g>
   <g id="matplotlib.axis_3">
    <g id="xtick_10">
     <g id="line2d_14">
      <g>
       <use style="stroke:#000000;stroke-width:0.8;" x="49.795852" xlink:href="#ma6f02f49b4" y="249.278125"/>
      </g>
     </g>
     <g id="text_14">
      <!-- 0 -->
      <g transform="translate(46.614602 263.876562)scale(0.1 -0.1)">
       <use xlink:href="#DejaVuSans-48"/>
      </g>
     </g>
    </g>
    <g id="xtick_11">
     <g id="line2d_15">
      <g>
       <use style="stroke:#000000;stroke-width:0.8;" x="99.650858" xlink:href="#ma6f02f49b4" y="249.278125"/>
      </g>
     </g>
     <g id="text_15">
      <!-- 10 -->
      <g transform="translate(93.288358 263.876562)scale(0.1 -0.1)">
       <use xlink:href="#DejaVuSans-49"/>
       <use x="63.623047" xlink:href="#DejaVuSans-48"/>
      </g>
     </g>
    </g>
    <g id="xtick_12">
     <g id="line2d_16">
      <g>
       <use style="stroke:#000000;stroke-width:0.8;" x="149.505864" xlink:href="#ma6f02f49b4" y="249.278125"/>
      </g>
     </g>
     <g id="text_16">
      <!-- 20 -->
      <g transform="translate(143.143364 263.876562)scale(0.1 -0.1)">
       <use xlink:href="#DejaVuSans-50"/>
       <use x="63.623047" xlink:href="#DejaVuSans-48"/>
      </g>
     </g>
    </g>
    <g id="xtick_13">
     <g id="line2d_17">
      <g>
       <use style="stroke:#000000;stroke-width:0.8;" x="199.36087" xlink:href="#ma6f02f49b4" y="249.278125"/>
      </g>
     </g>
     <g id="text_17">
      <!-- 30 -->
      <g transform="translate(192.99837 263.876562)scale(0.1 -0.1)">
       <use xlink:href="#DejaVuSans-51"/>
       <use x="63.623047" xlink:href="#DejaVuSans-48"/>
      </g>
     </g>
    </g>
    <g id="xtick_14">
     <g id="line2d_18">
      <g>
       <use style="stroke:#000000;stroke-width:0.8;" x="249.215875" xlink:href="#ma6f02f49b4" y="249.278125"/>
      </g>
     </g>
     <g id="text_18">
      <!-- 40 -->
      <g transform="translate(242.853375 263.876562)scale(0.1 -0.1)">
       <use xlink:href="#DejaVuSans-52"/>
       <use x="63.623047" xlink:href="#DejaVuSans-48"/>
      </g>
     </g>
    </g>
    <g id="xtick_15">
     <g id="line2d_19">
      <g>
       <use style="stroke:#000000;stroke-width:0.8;" x="299.070881" xlink:href="#ma6f02f49b4" y="249.278125"/>
      </g>
     </g>
     <g id="text_19">
      <!-- 50 -->
      <g transform="translate(292.708381 263.876562)scale(0.1 -0.1)">
       <use xlink:href="#DejaVuSans-53"/>
       <use x="63.623047" xlink:href="#DejaVuSans-48"/>
      </g>
     </g>
    </g>
    <g id="xtick_16">
     <g id="line2d_20">
      <g>
       <use style="stroke:#000000;stroke-width:0.8;" x="348.925887" xlink:href="#ma6f02f49b4" y="249.278125"/>
      </g>
     </g>
     <g id="text_20">
      <!-- 60 -->
      <defs>
       <path d="M 33.015625 40.375 
Q 26.375 40.375 22.484375 35.828125 
Q 18.609375 31.296875 18.609375 23.390625 
Q 18.609375 15.53125 22.484375 10.953125 
Q 26.375 6.390625 33.015625 6.390625 
Q 39.65625 6.390625 43.53125 10.953125 
Q 47.40625 15.53125 47.40625 23.390625 
Q 47.40625 31.296875 43.53125 35.828125 
Q 39.65625 40.375 33.015625 40.375 
z
M 52.59375 71.296875 
L 52.59375 62.3125 
Q 48.875 64.0625 45.09375 64.984375 
Q 41.3125 65.921875 37.59375 65.921875 
Q 27.828125 65.921875 22.671875 59.328125 
Q 17.53125 52.734375 16.796875 39.40625 
Q 19.671875 43.65625 24.015625 45.921875 
Q 28.375 48.1875 33.59375 48.1875 
Q 44.578125 48.1875 50.953125 41.515625 
Q 57.328125 34.859375 57.328125 23.390625 
Q 57.328125 12.15625 50.6875 5.359375 
Q 44.046875 -1.421875 33.015625 -1.421875 
Q 20.359375 -1.421875 13.671875 8.265625 
Q 6.984375 17.96875 6.984375 36.375 
Q 6.984375 53.65625 15.1875 63.9375 
Q 23.390625 74.21875 37.203125 74.21875 
Q 40.921875 74.21875 44.703125 73.484375 
Q 48.484375 72.75 52.59375 71.296875 
z
" id="DejaVuSans-54"/>
      </defs>
      <g transform="translate(342.563387 263.876562)scale(0.1 -0.1)">
       <use xlink:href="#DejaVuSans-54"/>
       <use x="63.623047" xlink:href="#DejaVuSans-48"/>
      </g>
     </g>
    </g>
    <g id="xtick_17">
     <g id="line2d_21">
      <g>
       <use style="stroke:#000000;stroke-width:0.8;" x="398.780893" xlink:href="#ma6f02f49b4" y="249.278125"/>
      </g>
     </g>
     <g id="text_21">
      <!-- 70 -->
      <defs>
       <path d="M 8.203125 72.90625 
L 55.078125 72.90625 
L 55.078125 68.703125 
L 28.609375 0 
L 18.3125 0 
L 43.21875 64.59375 
L 8.203125 64.59375 
z
" id="DejaVuSans-55"/>
      </defs>
      <g transform="translate(392.418393 263.876562)scale(0.1 -0.1)">
       <use xlink:href="#DejaVuSans-55"/>
       <use x="63.623047" xlink:href="#DejaVuSans-48"/>
      </g>
     </g>
    </g>
    <g id="xtick_18">
     <g id="line2d_22">
      <g>
       <use style="stroke:#000000;stroke-width:0.8;" x="448.635898" xlink:href="#ma6f02f49b4" y="249.278125"/>
      </g>
     </g>
     <g id="text_22">
      <!-- 80 -->
      <defs>
       <path d="M 31.78125 34.625 
Q 24.75 34.625 20.71875 30.859375 
Q 16.703125 27.09375 16.703125 20.515625 
Q 16.703125 13.921875 20.71875 10.15625 
Q 24.75 6.390625 31.78125 6.390625 
Q 38.8125 6.390625 42.859375 10.171875 
Q 46.921875 13.96875 46.921875 20.515625 
Q 46.921875 27.09375 42.890625 30.859375 
Q 38.875 34.625 31.78125 34.625 
z
M 21.921875 38.8125 
Q 15.578125 40.375 12.03125 44.71875 
Q 8.5 49.078125 8.5 55.328125 
Q 8.5 64.0625 14.71875 69.140625 
Q 20.953125 74.21875 31.78125 74.21875 
Q 42.671875 74.21875 48.875 69.140625 
Q 55.078125 64.0625 55.078125 55.328125 
Q 55.078125 49.078125 51.53125 44.71875 
Q 48 40.375 41.703125 38.8125 
Q 48.828125 37.15625 52.796875 32.3125 
Q 56.78125 27.484375 56.78125 20.515625 
Q 56.78125 9.90625 50.3125 4.234375 
Q 43.84375 -1.421875 31.78125 -1.421875 
Q 19.734375 -1.421875 13.25 4.234375 
Q 6.78125 9.90625 6.78125 20.515625 
Q 6.78125 27.484375 10.78125 32.3125 
Q 14.796875 37.15625 21.921875 38.8125 
z
M 18.3125 54.390625 
Q 18.3125 48.734375 21.84375 45.5625 
Q 25.390625 42.390625 31.78125 42.390625 
Q 38.140625 42.390625 41.71875 45.5625 
Q 45.3125 48.734375 45.3125 54.390625 
Q 45.3125 60.0625 41.71875 63.234375 
Q 38.140625 66.40625 31.78125 66.40625 
Q 25.390625 66.40625 21.84375 63.234375 
Q 18.3125 60.0625 18.3125 54.390625 
z
" id="DejaVuSans-56"/>
      </defs>
      <g transform="translate(442.273398 263.876562)scale(0.1 -0.1)">
       <use xlink:href="#DejaVuSans-56"/>
       <use x="63.623047" xlink:href="#DejaVuSans-48"/>
      </g>
     </g>
    </g>
   </g>
   <g id="matplotlib.axis_4">
    <g id="ytick_4">
     <g id="line2d_23">
      <g>
       <use style="stroke:#000000;stroke-width:0.8;" x="30.103125" xlink:href="#m0de70ff7a1" y="232.259565"/>
      </g>
     </g>
     <g id="text_23">
      <!-- 0.9 -->
      <g transform="translate(7.2 236.058784)scale(0.1 -0.1)">
       <use xlink:href="#DejaVuSans-48"/>
       <use x="63.623047" xlink:href="#DejaVuSans-46"/>
       <use x="95.410156" xlink:href="#DejaVuSans-57"/>
      </g>
     </g>
    </g>
    <g id="ytick_5">
     <g id="line2d_24">
      <g>
       <use style="stroke:#000000;stroke-width:0.8;" x="30.103125" xlink:href="#m0de70ff7a1" y="196.829348"/>
      </g>
     </g>
     <g id="text_24">
      <!-- 1.0 -->
      <g transform="translate(7.2 200.628567)scale(0.1 -0.1)">
       <use xlink:href="#DejaVuSans-49"/>
       <use x="63.623047" xlink:href="#DejaVuSans-46"/>
       <use x="95.410156" xlink:href="#DejaVuSans-48"/>
      </g>
     </g>
    </g>
    <g id="ytick_6">
     <g id="line2d_25">
      <g>
       <use style="stroke:#000000;stroke-width:0.8;" x="30.103125" xlink:href="#m0de70ff7a1" y="161.39913"/>
      </g>
     </g>
     <g id="text_25">
      <!-- 1.1 -->
      <g transform="translate(7.2 165.198349)scale(0.1 -0.1)">
       <use xlink:href="#DejaVuSans-49"/>
       <use x="63.623047" xlink:href="#DejaVuSans-46"/>
       <use x="95.410156" xlink:href="#DejaVuSans-49"/>
      </g>
     </g>
    </g>
   </g>
   <g id="line2d_26">
    <path clip-path="url(#pb535ff33c5)" d="M 49.795852 160.54358 
L 54.781353 162.589276 
L 59.766853 164.633452 
L 64.752354 166.674205 
L 69.737855 168.709335 
L 74.723355 170.736372 
L 79.708856 172.752608 
L 84.694356 174.755157 
L 89.679857 176.741037 
L 94.665357 178.707259 
L 99.650858 180.650934 
L 104.636359 182.569387 
L 109.621859 184.460272 
L 114.60736 186.321682 
L 119.59286 188.15225 
L 124.578361 189.951224 
L 129.563861 191.718532 
L 134.549362 193.565376 
L 139.534863 195.388814 
L 144.520363 197.186846 
L 149.505864 198.957439 
L 154.491364 200.698531 
L 159.476865 202.40804 
L 164.462366 204.083904 
L 169.447866 205.724113 
L 174.433367 207.326772 
L 179.418867 208.890164 
L 184.404368 210.412828 
L 189.389868 211.893639 
L 194.375369 213.331889 
L 199.36087 214.727355 
L 204.34637 216.080367 
L 209.331871 217.391845 
L 214.317371 218.797953 
L 219.302872 220.167655 
L 224.288372 221.499411 
L 229.273873 222.791854 
L 234.259374 224.043769 
L 239.244874 225.254071 
L 244.230375 226.421797 
L 249.215875 227.546105 
L 254.201376 228.626283 
L 259.186876 229.661775 
L 264.172377 230.652214 
L 269.157878 231.597466 
L 274.143378 232.497683 
L 279.128879 233.353351 
L 284.114379 234.165338 
L 289.09988 234.934937 
L 294.08538 235.818713 
L 299.070881 236.661253 
L 304.056382 237.460735 
L 309.041882 238.215654 
L 314.027383 238.924805 
L 319.012883 239.587256 
L 323.998384 240.20233 
L 328.983884 240.769582 
L 333.969385 241.288804 
L 338.954886 241.760018 
L 343.940386 242.183505 
L 348.925887 242.559822 
L 353.911387 242.889842 
L 358.896888 243.174791 
L 363.882389 243.416287 
L 368.867889 243.616371 
L 373.85339 243.947607 
L 378.83889 244.236761 
L 383.824391 244.482608 
L 388.809891 244.684432 
L 393.795392 244.841995 
L 398.780893 244.955476 
L 403.766393 245.025417 
L 408.751894 245.05267 
L 413.737394 245.038347 
L 418.722895 244.983786 
L 423.708395 244.890523 
L 428.693896 244.760288 
L 433.679397 244.595001 
L 438.664897 244.396784 
L 443.650398 244.167976 
" style="fill:none;stroke:#1f77b4;stroke-linecap:square;stroke-width:1.5;"/>
    <g clip-path="url(#pb535ff33c5)">
     <use style="fill:#1f77b4;stroke:#1f77b4;" x="49.795852" xlink:href="#m2d471b9e46" y="160.54358"/>
     <use style="fill:#1f77b4;stroke:#1f77b4;" x="54.781353" xlink:href="#m2d471b9e46" y="162.589276"/>
     <use style="fill:#1f77b4;stroke:#1f77b4;" x="59.766853" xlink:href="#m2d471b9e46" y="164.633452"/>
     <use style="fill:#1f77b4;stroke:#1f77b4;" x="64.752354" xlink:href="#m2d471b9e46" y="166.674205"/>
     <use style="fill:#1f77b4;stroke:#1f77b4;" x="69.737855" xlink:href="#m2d471b9e46" y="168.709335"/>
     <use style="fill:#1f77b4;stroke:#1f77b4;" x="74.723355" xlink:href="#m2d471b9e46" y="170.736372"/>
     <use style="fill:#1f77b4;stroke:#1f77b4;" x="79.708856" xlink:href="#m2d471b9e46" y="172.752608"/>
     <use style="fill:#1f77b4;stroke:#1f77b4;" x="84.694356" xlink:href="#m2d471b9e46" y="174.755157"/>
     <use style="fill:#1f77b4;stroke:#1f77b4;" x="89.679857" xlink:href="#m2d471b9e46" y="176.741037"/>
     <use style="fill:#1f77b4;stroke:#1f77b4;" x="94.665357" xlink:href="#m2d471b9e46" y="178.707259"/>
     <use style="fill:#1f77b4;stroke:#1f77b4;" x="99.650858" xlink:href="#m2d471b9e46" y="180.650934"/>
     <use style="fill:#1f77b4;stroke:#1f77b4;" x="104.636359" xlink:href="#m2d471b9e46" y="182.569387"/>
     <use style="fill:#1f77b4;stroke:#1f77b4;" x="109.621859" xlink:href="#m2d471b9e46" y="184.460272"/>
     <use style="fill:#1f77b4;stroke:#1f77b4;" x="114.60736" xlink:href="#m2d471b9e46" y="186.321682"/>
     <use style="fill:#1f77b4;stroke:#1f77b4;" x="119.59286" xlink:href="#m2d471b9e46" y="188.15225"/>
     <use style="fill:#1f77b4;stroke:#1f77b4;" x="124.578361" xlink:href="#m2d471b9e46" y="189.951224"/>
     <use style="fill:#1f77b4;stroke:#1f77b4;" x="129.563861" xlink:href="#m2d471b9e46" y="191.718532"/>
     <use style="fill:#1f77b4;stroke:#1f77b4;" x="134.549362" xlink:href="#m2d471b9e46" y="193.565376"/>
     <use style="fill:#1f77b4;stroke:#1f77b4;" x="139.534863" xlink:href="#m2d471b9e46" y="195.388814"/>
     <use style="fill:#1f77b4;stroke:#1f77b4;" x="144.520363" xlink:href="#m2d471b9e46" y="197.186846"/>
     <use style="fill:#1f77b4;stroke:#1f77b4;" x="149.505864" xlink:href="#m2d471b9e46" y="198.957439"/>
     <use style="fill:#1f77b4;stroke:#1f77b4;" x="154.491364" xlink:href="#m2d471b9e46" y="200.698531"/>
     <use style="fill:#1f77b4;stroke:#1f77b4;" x="159.476865" xlink:href="#m2d471b9e46" y="202.40804"/>
     <use style="fill:#1f77b4;stroke:#1f77b4;" x="164.462366" xlink:href="#m2d471b9e46" y="204.083904"/>
     <use style="fill:#1f77b4;stroke:#1f77b4;" x="169.447866" xlink:href="#m2d471b9e46" y="205.724113"/>
     <use style="fill:#1f77b4;stroke:#1f77b4;" x="174.433367" xlink:href="#m2d471b9e46" y="207.326772"/>
     <use style="fill:#1f77b4;stroke:#1f77b4;" x="179.418867" xlink:href="#m2d471b9e46" y="208.890164"/>
     <use style="fill:#1f77b4;stroke:#1f77b4;" x="184.404368" xlink:href="#m2d471b9e46" y="210.412828"/>
     <use style="fill:#1f77b4;stroke:#1f77b4;" x="189.389868" xlink:href="#m2d471b9e46" y="211.893639"/>
     <use style="fill:#1f77b4;stroke:#1f77b4;" x="194.375369" xlink:href="#m2d471b9e46" y="213.331889"/>
     <use style="fill:#1f77b4;stroke:#1f77b4;" x="199.36087" xlink:href="#m2d471b9e46" y="214.727355"/>
     <use style="fill:#1f77b4;stroke:#1f77b4;" x="204.34637" xlink:href="#m2d471b9e46" y="216.080367"/>
     <use style="fill:#1f77b4;stroke:#1f77b4;" x="209.331871" xlink:href="#m2d471b9e46" y="217.391845"/>
     <use style="fill:#1f77b4;stroke:#1f77b4;" x="214.317371" xlink:href="#m2d471b9e46" y="218.797953"/>
     <use style="fill:#1f77b4;stroke:#1f77b4;" x="219.302872" xlink:href="#m2d471b9e46" y="220.167655"/>
     <use style="fill:#1f77b4;stroke:#1f77b4;" x="224.288372" xlink:href="#m2d471b9e46" y="221.499411"/>
     <use style="fill:#1f77b4;stroke:#1f77b4;" x="229.273873" xlink:href="#m2d471b9e46" y="222.791854"/>
     <use style="fill:#1f77b4;stroke:#1f77b4;" x="234.259374" xlink:href="#m2d471b9e46" y="224.043769"/>
     <use style="fill:#1f77b4;stroke:#1f77b4;" x="239.244874" xlink:href="#m2d471b9e46" y="225.254071"/>
     <use style="fill:#1f77b4;stroke:#1f77b4;" x="244.230375" xlink:href="#m2d471b9e46" y="226.421797"/>
     <use style="fill:#1f77b4;stroke:#1f77b4;" x="249.215875" xlink:href="#m2d471b9e46" y="227.546105"/>
     <use style="fill:#1f77b4;stroke:#1f77b4;" x="254.201376" xlink:href="#m2d471b9e46" y="228.626283"/>
     <use style="fill:#1f77b4;stroke:#1f77b4;" x="259.186876" xlink:href="#m2d471b9e46" y="229.661775"/>
     <use style="fill:#1f77b4;stroke:#1f77b4;" x="264.172377" xlink:href="#m2d471b9e46" y="230.652214"/>
     <use style="fill:#1f77b4;stroke:#1f77b4;" x="269.157878" xlink:href="#m2d471b9e46" y="231.597466"/>
     <use style="fill:#1f77b4;stroke:#1f77b4;" x="274.143378" xlink:href="#m2d471b9e46" y="232.497683"/>
     <use style="fill:#1f77b4;stroke:#1f77b4;" x="279.128879" xlink:href="#m2d471b9e46" y="233.353351"/>
     <use style="fill:#1f77b4;stroke:#1f77b4;" x="284.114379" xlink:href="#m2d471b9e46" y="234.165338"/>
     <use style="fill:#1f77b4;stroke:#1f77b4;" x="289.09988" xlink:href="#m2d471b9e46" y="234.934937"/>
     <use style="fill:#1f77b4;stroke:#1f77b4;" x="294.08538" xlink:href="#m2d471b9e46" y="235.818713"/>
     <use style="fill:#1f77b4;stroke:#1f77b4;" x="299.070881" xlink:href="#m2d471b9e46" y="236.661253"/>
     <use style="fill:#1f77b4;stroke:#1f77b4;" x="304.056382" xlink:href="#m2d471b9e46" y="237.460735"/>
     <use style="fill:#1f77b4;stroke:#1f77b4;" x="309.041882" xlink:href="#m2d471b9e46" y="238.215654"/>
     <use style="fill:#1f77b4;stroke:#1f77b4;" x="314.027383" xlink:href="#m2d471b9e46" y="238.924805"/>
     <use style="fill:#1f77b4;stroke:#1f77b4;" x="319.012883" xlink:href="#m2d471b9e46" y="239.587256"/>
     <use style="fill:#1f77b4;stroke:#1f77b4;" x="323.998384" xlink:href="#m2d471b9e46" y="240.20233"/>
     <use style="fill:#1f77b4;stroke:#1f77b4;" x="328.983884" xlink:href="#m2d471b9e46" y="240.769582"/>
     <use style="fill:#1f77b4;stroke:#1f77b4;" x="333.969385" xlink:href="#m2d471b9e46" y="241.288804"/>
     <use style="fill:#1f77b4;stroke:#1f77b4;" x="338.954886" xlink:href="#m2d471b9e46" y="241.760018"/>
     <use style="fill:#1f77b4;stroke:#1f77b4;" x="343.940386" xlink:href="#m2d471b9e46" y="242.183505"/>
     <use style="fill:#1f77b4;stroke:#1f77b4;" x="348.925887" xlink:href="#m2d471b9e46" y="242.559822"/>
     <use style="fill:#1f77b4;stroke:#1f77b4;" x="353.911387" xlink:href="#m2d471b9e46" y="242.889842"/>
     <use style="fill:#1f77b4;stroke:#1f77b4;" x="358.896888" xlink:href="#m2d471b9e46" y="243.174791"/>
     <use style="fill:#1f77b4;stroke:#1f77b4;" x="363.882389" xlink:href="#m2d471b9e46" y="243.416287"/>
     <use style="fill:#1f77b4;stroke:#1f77b4;" x="368.867889" xlink:href="#m2d471b9e46" y="243.616371"/>
     <use style="fill:#1f77b4;stroke:#1f77b4;" x="373.85339" xlink:href="#m2d471b9e46" y="243.947607"/>
     <use style="fill:#1f77b4;stroke:#1f77b4;" x="378.83889" xlink:href="#m2d471b9e46" y="244.236761"/>
     <use style="fill:#1f77b4;stroke:#1f77b4;" x="383.824391" xlink:href="#m2d471b9e46" y="244.482608"/>
     <use style="fill:#1f77b4;stroke:#1f77b4;" x="388.809891" xlink:href="#m2d471b9e46" y="244.684432"/>
     <use style="fill:#1f77b4;stroke:#1f77b4;" x="393.795392" xlink:href="#m2d471b9e46" y="244.841995"/>
     <use style="fill:#1f77b4;stroke:#1f77b4;" x="398.780893" xlink:href="#m2d471b9e46" y="244.955476"/>
     <use style="fill:#1f77b4;stroke:#1f77b4;" x="403.766393" xlink:href="#m2d471b9e46" y="245.025417"/>
     <use style="fill:#1f77b4;stroke:#1f77b4;" x="408.751894" xlink:href="#m2d471b9e46" y="245.05267"/>
     <use style="fill:#1f77b4;stroke:#1f77b4;" x="413.737394" xlink:href="#m2d471b9e46" y="245.038347"/>
     <use style="fill:#1f77b4;stroke:#1f77b4;" x="418.722895" xlink:href="#m2d471b9e46" y="244.983786"/>
     <use style="fill:#1f77b4;stroke:#1f77b4;" x="423.708395" xlink:href="#m2d471b9e46" y="244.890523"/>
     <use style="fill:#1f77b4;stroke:#1f77b4;" x="428.693896" xlink:href="#m2d471b9e46" y="244.760288"/>
     <use style="fill:#1f77b4;stroke:#1f77b4;" x="433.679397" xlink:href="#m2d471b9e46" y="244.595001"/>
     <use style="fill:#1f77b4;stroke:#1f77b4;" x="438.664897" xlink:href="#m2d471b9e46" y="244.396784"/>
     <use style="fill:#1f77b4;stroke:#1f77b4;" x="443.650398" xlink:href="#m2d471b9e46" y="244.167976"/>
    </g>
   </g>
   <g id="patch_8">
    <path d="M 30.103125 249.278125 
L 30.103125 156.318125 
" style="fill:none;stroke:#000000;stroke-linecap:square;stroke-linejoin:miter;stroke-width:0.8;"/>
   </g>
   <g id="patch_9">
    <path d="M 463.343125 249.278125 
L 463.343125 156.318125 
" style="fill:none;stroke:#000000;stroke-linecap:square;stroke-linejoin:miter;stroke-width:0.8;"/>
   </g>
   <g id="patch_10">
    <path d="M 30.103125 249.278125 
L 463.343125 249.278125 
" style="fill:none;stroke:#000000;stroke-linecap:square;stroke-linejoin:miter;stroke-width:0.8;"/>
   </g>
   <g id="patch_11">
    <path d="M 30.103125 156.318125 
L 463.343125 156.318125 
" style="fill:none;stroke:#000000;stroke-linecap:square;stroke-linejoin:miter;stroke-width:0.8;"/>
   </g>
   <g id="text_26">
    <!-- After Interpolation -->
    <defs>
     <path d="M 34.1875 63.1875 
L 20.796875 26.90625 
L 47.609375 26.90625 
z
M 28.609375 72.90625 
L 39.796875 72.90625 
L 67.578125 0 
L 57.328125 0 
L 50.6875 18.703125 
L 17.828125 18.703125 
L 11.1875 0 
L 0.78125 0 
z
" id="DejaVuSans-65"/>
    </defs>
    <g transform="translate(191.692813 150.318125)scale(0.12 -0.12)">
     <use xlink:href="#DejaVuSans-65"/>
     <use x="68.361328" xlink:href="#DejaVuSans-102"/>
     <use x="103.550781" xlink:href="#DejaVuSans-116"/>
     <use x="142.759766" xlink:href="#DejaVuSans-101"/>
     <use x="204.283203" xlink:href="#DejaVuSans-114"/>
     <use x="245.396484" xlink:href="#DejaVuSans-32"/>
     <use x="277.183594" xlink:href="#DejaVuSans-73"/>
     <use x="306.675781" xlink:href="#DejaVuSans-110"/>
     <use x="370.054688" xlink:href="#DejaVuSans-116"/>
     <use x="409.263672" xlink:href="#DejaVuSans-101"/>
     <use x="470.787109" xlink:href="#DejaVuSans-114"/>
     <use x="511.900391" xlink:href="#DejaVuSans-112"/>
     <use x="575.376953" xlink:href="#DejaVuSans-111"/>
     <use x="636.558594" xlink:href="#DejaVuSans-108"/>
     <use x="664.341797" xlink:href="#DejaVuSans-97"/>
     <use x="725.621094" xlink:href="#DejaVuSans-116"/>
     <use x="764.830078" xlink:href="#DejaVuSans-105"/>
     <use x="792.613281" xlink:href="#DejaVuSans-111"/>
     <use x="853.794922" xlink:href="#DejaVuSans-110"/>
    </g>
   </g>
  </g>
 </g>
 <defs>
  <clipPath id="pe9bd033c11">
   <rect height="92.96" width="433.24" x="30.103125" y="22.318125"/>
  </clipPath>
  <clipPath id="pb535ff33c5">
   <rect height="92.96" width="433.24" x="30.103125" y="156.318125"/>
  </clipPath>
 </defs>
</svg>
