<svg width="576" height="192" xmlns="http://www.w3.org/2000/svg" xmlns:xlink="http://www.w3.org/1999/xlink" overflow="hidden"><defs><clipPath id="clip0"><rect x="0" y="0" width="576" height="192"/></clipPath></defs><g clip-path="url(#clip0)"><rect x="0" y="0" width="576" height="192" fill="#FFFFFF"/><path d="M236.5 154.5 252.5 32.5001 284.5 32.5001 300.5 154.5Z" stroke="#507E32" stroke-width="1.33333" stroke-miterlimit="8" fill="#70AD47" fill-rule="evenodd"/><path d="M91.5001 154.5 131.5 76.5001 171.5 154.5Z" stroke="#2F528F" stroke-width="1.33333" stroke-miterlimit="8" fill="#4472C4" fill-rule="evenodd"/><path d="M1.5-1.29556e-06 1.5001 114.054-1.4999 114.054-1.5 1.29556e-06ZM4.5001 112.554 0.000104987 121.554-4.4999 112.554Z" transform="matrix(1 0 0 -1 6.50005 154.054)"/><path d="M6.50005 153 447.23 153 447.23 156 6.50005 156ZM445.73 150 454.73 154.5 445.73 159Z"/><path d="M129 143 129 161.67" stroke="#000000" stroke-width="2" stroke-miterlimit="8" fill="none" fill-rule="evenodd"/><path d="M269 145 269 163.67" stroke="#000000" stroke-width="2" stroke-miterlimit="8" fill="none" fill-rule="evenodd"/><text font-family="Times New Roman,Times New Roman_MSFontService,sans-serif" font-style="italic" font-weight="400" font-size="24" transform="translate(462.359 158)">frequency</text><path d="M0.0824577-0.322973 37.0393 9.11239 36.8743 9.75834-0.0824577 0.322973ZM36.6544 5.22985 43.4163 11.0845 34.6754 12.9812Z" fill="#4472C4" transform="matrix(-1 -8.74228e-08 -8.74228e-08 1 353.916 63.5001)"/><path d="M91.7917 60.3387 105.088 84.378 104.505 84.7007 91.2084 60.6614ZM107.651 81.4366 108.023 90.3731 100.651 85.3086Z" fill="#4472C4"/><text fill="#0070C0" font-family="Times New Roman,Times New Roman_MSFontService,sans-serif" font-weight="400" font-size="24" transform="translate(368.994 64)">Signal we don’t want<tspan x="-335.886" y="-14">Signal we want</tspan></text></g></svg>