<svg width="1248" height="528" xmlns="http://www.w3.org/2000/svg" xmlns:xlink="http://www.w3.org/1999/xlink" overflow="hidden"><defs><clipPath id="clip0"><rect x="0" y="0" width="1248" height="528"/></clipPath><linearGradient x1="250.5" y1="84.5001" x2="250.5" y2="170.5" gradientUnits="userSpaceOnUse" spreadMethod="reflect" id="fill1"><stop offset="0" stop-color="#D2D2D2"/><stop offset="0.5" stop-color="#C8C8C8"/><stop offset="1" stop-color="#C0C0C0"/></linearGradient><linearGradient x1="449.5" y1="82.5001" x2="449.5" y2="173.5" gradientUnits="userSpaceOnUse" spreadMethod="reflect" id="fill2"><stop offset="0" stop-color="#D2D2D2"/><stop offset="0.5" stop-color="#C8C8C8"/><stop offset="1" stop-color="#C0C0C0"/></linearGradient><linearGradient x1="656.5" y1="84.5001" x2="656.5" y2="170.5" gradientUnits="userSpaceOnUse" spreadMethod="reflect" id="fill3"><stop offset="0" stop-color="#D2D2D2"/><stop offset="0.5" stop-color="#C8C8C8"/><stop offset="1" stop-color="#C0C0C0"/></linearGradient><linearGradient x1="1060" y1="78.5001" x2="1060" y2="176.5" gradientUnits="userSpaceOnUse" spreadMethod="reflect" id="fill4"><stop offset="0" stop-color="#D2D2D2"/><stop offset="0.5" stop-color="#C8C8C8"/><stop offset="1" stop-color="#C0C0C0"/></linearGradient><linearGradient x1="862.5" y1="84.5001" x2="862.5" y2="170.5" gradientUnits="userSpaceOnUse" spreadMethod="reflect" id="fill5"><stop offset="0" stop-color="#D2D2D2"/><stop offset="0.5" stop-color="#C8C8C8"/><stop offset="1" stop-color="#C0C0C0"/></linearGradient><linearGradient x1="75" y1="-6.11104e-15" x2="75" y2="99" gradientUnits="userSpaceOnUse" spreadMethod="reflect" id="fill6"><stop offset="0" stop-color="#D2D2D2"/><stop offset="0.5" stop-color="#C8C8C8"/><stop offset="1" stop-color="#C0C0C0"/></linearGradient><linearGradient x1="69" y1="-6.11104e-15" x2="69" y2="91" gradientUnits="userSpaceOnUse" spreadMethod="reflect" id="fill7"><stop offset="0" stop-color="#D2D2D2"/><stop offset="0.5" stop-color="#C8C8C8"/><stop offset="1" stop-color="#C0C0C0"/></linearGradient><linearGradient x1="77" y1="-6.11104e-15" x2="77" y2="85" gradientUnits="userSpaceOnUse" spreadMethod="reflect" id="fill8"><stop offset="0" stop-color="#D2D2D2"/><stop offset="0.5" stop-color="#C8C8C8"/><stop offset="1" stop-color="#C0C0C0"/></linearGradient><linearGradient x1="69" y1="-6.11104e-15" x2="69" y2="85" gradientUnits="userSpaceOnUse" spreadMethod="reflect" id="fill9"><stop offset="0" stop-color="#D2D2D2"/><stop offset="0.5" stop-color="#C8C8C8"/><stop offset="1" stop-color="#C0C0C0"/></linearGradient><linearGradient x1="68.5" y1="0" x2="68.5" y2="85" gradientUnits="userSpaceOnUse" spreadMethod="reflect" id="fill10"><stop offset="0" stop-color="#D2D2D2"/><stop offset="0.5" stop-color="#C8C8C8"/><stop offset="1" stop-color="#C0C0C0"/></linearGradient></defs><g clip-path="url(#clip0)"><rect x="0" y="0" width="1248" height="528" fill="#FFFFFF"/><path d="M181.5 98.8337C181.5 90.9174 187.917 84.5001 195.834 84.5001L305.166 84.5001C313.083 84.5001 319.5 90.9174 319.5 98.8337L319.5 156.166C319.5 164.083 313.083 170.5 305.166 170.5L195.834 170.5C187.917 170.5 181.5 164.083 181.5 156.166Z" stroke="#A5A5A5" stroke-width="0.666667" stroke-miterlimit="8" fill="url(#fill1)" fill-rule="evenodd"/><text font-family="Times New Roman,Times New Roman_MSFontService,sans-serif" font-weight="400" font-size="24" transform="translate(216.847 112)">Source<tspan font-size="24" x="-12.6667" y="29">Encoding</tspan><tspan font-size="16" x="-14.2533" y="50">(Compression)</tspan></text><path d="M380.5 97.6671C380.5 89.2906 387.291 82.5001 395.667 82.5001L503.333 82.5001C511.71 82.5001 518.5 89.2906 518.5 97.6671L518.5 158.333C518.5 166.71 511.71 173.5 503.333 173.5L395.667 173.5C387.291 173.5 380.5 166.71 380.5 158.333Z" stroke="#A5A5A5" stroke-width="0.666667" stroke-miterlimit="8" fill="url(#fill2)" fill-rule="evenodd"/><text font-family="Times New Roman,Times New Roman_MSFontService,sans-serif" font-weight="400" font-size="24" transform="translate(409.081 105)">Channel<tspan font-size="24" x="-6" y="29">Encoding</tspan><tspan font-size="14" x="-7.08667" y="48">(Error correcting </tspan><tspan font-size="14" x="21.7466" y="65">codes)</tspan></text><path d="M579.5 98.8337C579.5 90.9174 585.917 84.5001 593.834 84.5001L719.167 84.5001C727.083 84.5001 733.5 90.9174 733.5 98.8337L733.5 156.166C733.5 164.083 727.083 170.5 719.167 170.5L593.834 170.5C585.917 170.5 579.5 164.083 579.5 156.166Z" stroke="#A5A5A5" stroke-width="0.666667" stroke-miterlimit="8" fill="url(#fill3)" fill-rule="evenodd"/><text font-family="Times New Roman,Times New Roman_MSFontService,sans-serif" font-weight="400" font-size="24" transform="translate(600.086 126)">Modulation<tspan font-size="16" x="-2.08002" y="21">(e.g</tspan><tspan font-size="16" x="22.42" y="21">., </tspan><tspan font-size="16" x="34.42" y="21">PSK, QAM)</tspan></text><path d="M991.5 94.8337C991.5 85.8129 998.813 78.5001 1007.83 78.5001L1112.17 78.5001C1121.19 78.5001 1128.5 85.8129 1128.5 94.8337L1128.5 160.166C1128.5 169.187 1121.19 176.5 1112.17 176.5L1007.83 176.5C998.813 176.5 991.5 169.187 991.5 160.166Z" stroke="#A5A5A5" stroke-width="0.666667" stroke-miterlimit="8" fill="url(#fill4)" fill-rule="evenodd"/><text font-family="Times New Roman,Times New Roman_MSFontService,sans-serif" font-weight="400" font-size="24" transform="translate(1008.55 107)">RF Circuit<tspan font-size="16" x="25.8333" y="21">(Filters,</tspan><tspan font-size="16" x="4.82001" y="40">Up</tspan><tspan font-size="16" x="24.32" y="40">-</tspan><tspan font-size="16" x="29.6534" y="40">Converter,</tspan><tspan font-size="16" x="13.58" y="60">Amplifiers)</tspan><tspan font-size="24" x="-933.317" y="29">Data</tspan></text><path d="M793.5 98.8337C793.5 90.9174 799.917 84.5001 807.834 84.5001L917.166 84.5001C925.083 84.5001 931.5 90.9174 931.5 98.8337L931.5 156.166C931.5 164.083 925.083 170.5 917.166 170.5L807.834 170.5C799.917 170.5 793.5 164.083 793.5 156.166Z" stroke="#A5A5A5" stroke-width="0.666667" stroke-miterlimit="8" fill="url(#fill5)" fill-rule="evenodd"/><text font-family="Times New Roman,Times New Roman_MSFontService,sans-serif" font-weight="400" font-size="24" transform="translate(836.548 118)">DAC<tspan font-size="15" x="-29.42" y="20">(Digital</tspan><tspan font-size="15" x="15.9133" y="20">-</tspan><tspan font-size="15" x="20.7467" y="20">to</tspan><tspan font-size="15" x="32.08" y="20">-</tspan><tspan font-size="15" x="36.9133" y="20">Analog </tspan><tspan font-size="15" x="-6.33331" y="38">Converter)</tspan></text><path d="M0 56 13 0 26 56Z" stroke="#000000" stroke-width="2" stroke-miterlimit="8" fill="none" fill-rule="evenodd" transform="matrix(1 0 0 -1 1128 94)"/><path d="M1141 94 1141.65 131.029" stroke="#000000" stroke-width="2" stroke-miterlimit="8" fill="none" fill-rule="evenodd"/><path d="M0 0 12.9904 0.000104987" stroke="#000000" stroke-width="2" stroke-miterlimit="8" fill="none" fill-rule="evenodd" transform="matrix(-1 0 0 1 1140.99 131)"/><path d="M139 125 171.547 125 171.547 129 139 129ZM169.547 121 181.547 127 169.547 133Z"/><path d="M319 125 370.277 125 370.277 129 319 129ZM368.277 121 380.277 127 368.277 133Z"/><path d="M518 125 569.277 125 569.277 129 518 129ZM567.277 121 579.277 127 567.277 133Z"/><path d="M733 125 783.055 125 783.055 129 733 129ZM781.055 121 793.055 127 781.055 133Z"/><path d="M931 125 981.055 125 981.055 129 931 129ZM979.055 121 991.055 127 979.055 133Z"/><path d="M0 16.5003C0 7.38745 7.38745-2.38713e-15 16.5003-4.77425e-15L133.5 0C142.613-4.77425e-15 150 7.38745 150 16.5003L150 82.4997C150 91.6126 142.613 99 133.5 99L16.5003 99C7.38745 99-2.38713e-15 91.6126-2.38713e-15 82.4997Z" stroke="#A5A5A5" stroke-width="0.666667" stroke-miterlimit="8" fill="url(#fill6)" fill-rule="evenodd" transform="matrix(-1 0 0 1 1129.5 314.5)"/><text font-family="Times New Roman,Times New Roman_MSFontService,sans-serif" font-weight="400" font-size="24" transform="translate(1003.02 343)">RF Circuit<tspan font-size="16" x="25.8333" y="21">(Filters,</tspan><tspan font-size="16" x="-4.93329" y="40">Down</tspan><tspan font-size="16" x="34.0667" y="40">-</tspan><tspan font-size="16" x="39.4" y="40">Converter,</tspan><tspan font-size="16" x="13.58" y="60">Amplifiers)</tspan></text><path d="M0 15.167C-2.19616e-15 6.79052 6.79051-4.39232e-15 15.167-4.39232e-15L122.833 0C131.209-4.39232e-15 138 6.79052 138 15.167L138 75.833C138 84.2095 131.209 91 122.833 91L15.167 91C6.79051 91 0 84.2095 0 75.833Z" stroke="#A5A5A5" stroke-width="0.666667" stroke-miterlimit="8" fill="url(#fill7)" fill-rule="evenodd" transform="matrix(-1 0 0 1 930.5 318.5)"/><text font-family="Times New Roman,Times New Roman_MSFontService,sans-serif" font-weight="400" font-size="24" transform="translate(835.967 355)">ADC<tspan font-size="15" x="-9.16663" y="20">(Analog</tspan><tspan font-size="15" x="38.8334" y="20">-</tspan><tspan font-size="15" x="43.6667" y="20">to</tspan><tspan font-size="15" x="55" y="20">-</tspan><tspan font-size="15" x="-28.42" y="38">Digital Converter)</tspan></text><path d="M0 14.167C0 6.3428 6.34279-2.45078e-15 14.167-4.90157e-15L139.833 0C147.657-2.45078e-15 154 6.3428 154 14.167L154 70.833C154 78.6572 147.657 85 139.833 85L14.167 85C6.34279 85 0 78.6572 0 70.833Z" stroke="#A5A5A5" stroke-width="0.666667" stroke-miterlimit="8" fill="url(#fill8)" fill-rule="evenodd" transform="matrix(-1 0 0 1 731.5 321.5)"/><text font-family="Times New Roman,Times New Roman_MSFontService,sans-serif" font-weight="400" font-size="21" transform="translate(593.118 372)">Demodulation</text><path d="M0 14.1669C0 6.34273 6.34273-4.39231e-15 14.1669-4.39231e-15L123.833 0C131.657-2.19616e-15 138 6.34273 138 14.1669L138 70.8331C138 78.6573 131.657 85 123.833 85L14.1669 85C6.34273 85 0 78.6573 0 70.8331Z" stroke="#A5A5A5" stroke-width="0.666667" stroke-miterlimit="8" fill="url(#fill9)" fill-rule="evenodd" transform="matrix(-1 0 0 1 320.5 321.5)"/><text font-family="Times New Roman,Times New Roman_MSFontService,sans-serif" font-weight="400" font-size="24" transform="translate(217.486 358)">Source <tspan font-size="24" x="-13.3333" y="29">Decoding</tspan><tspan font-size="24" x="-168.013" y="-1">Data</tspan><tspan font-size="24" x="-199.346" y="28">(hopefully)</tspan></text><path d="M0 14.167C-2.18024e-15 6.34279 6.34278 0 14.167 0L122.833 0C130.657-2.18024e-15 137 6.34279 137 14.167L137 70.833C137 78.6572 130.657 85 122.833 85L14.167 85C6.34278 85 0 78.6572 0 70.833Z" stroke="#A5A5A5" stroke-width="0.666667" stroke-miterlimit="8" fill="url(#fill10)" fill-rule="evenodd" transform="matrix(-1 0 0 1 517.5 321.5)"/><text font-family="Times New Roman,Times New Roman_MSFontService,sans-serif" font-weight="400" font-size="24" transform="translate(408.496 358)">Channel<tspan font-size="24" x="-6.66669" y="29">Decoding</tspan></text><path d="M0 56 13 0 26 56Z" stroke="#000000" stroke-width="2" stroke-miterlimit="8" fill="none" fill-rule="evenodd" transform="matrix(1 0 0 -1 1129 324)"/><path d="M1142 324 1142.65 361.029" stroke="#000000" stroke-width="2" stroke-miterlimit="8" fill="none" fill-rule="evenodd"/><path d="M0 0 12.9904 0.000104987" stroke="#000000" stroke-width="2" stroke-miterlimit="8" fill="none" fill-rule="evenodd" transform="matrix(-1 0 0 1 1141.99 361)"/><path d="M4.86176e-06-2 33.1889-1.99992 33.1889 2.00008-4.86176e-06 2ZM31.1889-5.99992 43.1889 0.000104987 31.1889 6.00008Z" transform="matrix(-1 0 0 1 182.189 364)"/><path d="M4.29198e-06-2 38.9223-1.99992 38.9223 2.00008-4.29198e-06 2ZM36.9223-5.99992 48.9223 0.000104987 36.9223 6.00008Z" transform="matrix(-1 0 0 1 978.922 364)"/><path d="M3.42661e-06-2 51.2775-1.99991 51.2775 2.00009-3.42661e-06 2ZM49.2775-5.99992 61.2775 0.000104987 49.2775 6.00008Z" transform="matrix(-1 0 0 1 792.277 364)"/><path d="M3.49638e-06-2 50.0547-1.99991 50.0547 2.00009-3.49638e-06 2ZM48.0547-5.99992 60.0547 0.000104987 48.0547 6.00008Z" transform="matrix(-1 0 0 1 577.055 364)"/><path d="M3.49638e-06-2 50.0547-1.99991 50.0547 2.00009-3.49638e-06 2ZM48.0547-5.99992 60.0547 0.000104987 48.0547 6.00008Z" transform="matrix(-1 0 0 1 380.055 364)"/><text fill="#4472C4" font-family="Times New Roman,Times New Roman_MSFontService,sans-serif" font-weight="700" font-size="24" transform="translate(1141.02 193)">Wireless<tspan font-size="24" x="0.233276" y="29">Channel</tspan><tspan fill="#000000" font-weight="400" font-size="19" x="-41.2302" y="-168">TX Antenna</tspan></text><path d="M1163.5 311 1183 288.059 1183 297.809C1214.92 286.356 1238.22 248.25 1241.18 202.625 1244.62 255.492 1219.99 304.038 1183 317.309L1183 327.059Z" fill="#4472C4" fill-rule="evenodd"/><path d="M1241.5 212.375C1241.5 152.521 1206.58 104 1163.5 104L1163.5 84.5001C1206.58 84.5001 1241.5 133.021 1241.5 192.875Z" fill="#375C9E" fill-rule="evenodd"/><path d="M1241.5 212.375C1241.5 152.521 1206.58 104 1163.5 104L1163.5 84.5001C1206.58 84.5001 1241.5 133.021 1241.5 192.875L1241.5 212.375C1241.5 261.794 1217.44 304.954 1183 317.309L1183 327.059 1163.5 311 1183 288.059 1183 297.809C1214.92 286.356 1238.22 248.25 1241.18 202.625" stroke="#2F528F" stroke-width="1.33333" stroke-miterlimit="8" fill="none" fill-rule="evenodd"/><text fill="#4472C4" font-family="Times New Roman,Times New Roman_MSFontService,sans-serif" font-weight="400" font-size="24" transform="translate(675.454 462)">Synchronization and <tspan font-size="24" x="20" y="29">other </tspan><tspan font-size="24" x="75.3333" y="29">processing </tspan><tspan font-size="24" x="8.33331" y="58">often happens here</tspan></text><path d="M772.467 434.085 763.338 395.192 767.232 394.278 776.361 433.171ZM759.901 398.054 763 385 771.583 395.311Z" fill="#4472C4"/><text font-family="Times New Roman,Times New Roman_MSFontService,sans-serif" font-weight="400" font-size="19" transform="translate(1095.57 258)">RX Antenna</text></g></svg>