<?xml version="1.0" encoding="utf-8" standalone="no"?>
<!DOCTYPE svg PUBLIC "-//W3C//DTD SVG 1.1//EN"
  "http://www.w3.org/Graphics/SVG/1.1/DTD/svg11.dtd">
<!-- Created with matplotlib (https://matplotlib.org/) -->
<svg height="288.944625pt" version="1.1" viewBox="0 0 611.766387 288.944625" width="611.766387pt" xmlns="http://www.w3.org/2000/svg" xmlns:xlink="http://www.w3.org/1999/xlink">
 <defs>
  <style type="text/css">
*{stroke-linecap:butt;stroke-linejoin:round;}
  </style>
 </defs>
 <g id="figure_1">
  <g id="patch_1">
   <path d="M 0 288.944625 
L 611.766387 288.944625 
L 611.766387 0 
L 0 0 
z
" style="fill:#ffffff;"/>
  </g>
  <g id="axes_1">
   <g id="patch_2">
    <path d="M 32.252324 244.078125 
L 285.888688 244.078125 
L 285.888688 22.318125 
L 32.252324 22.318125 
z
" style="fill:#ffffff;"/>
   </g>
   <g id="matplotlib.axis_1">
    <g id="xtick_1">
     <g id="line2d_1">
      <defs>
       <path d="M 0 0 
L 0 3.5 
" id="ma3f6df2e29" style="stroke:#000000;stroke-width:0.8;"/>
      </defs>
      <g>
       <use style="stroke:#000000;stroke-width:0.8;" x="43.78125" xlink:href="#ma3f6df2e29" y="233.998125"/>
      </g>
     </g>
    </g>
    <g id="xtick_2">
     <g id="line2d_2">
      <g>
       <use style="stroke:#000000;stroke-width:0.8;" x="89.943114" xlink:href="#ma3f6df2e29" y="233.998125"/>
      </g>
     </g>
    </g>
    <g id="xtick_3">
     <g id="line2d_3">
      <g>
       <use style="stroke:#000000;stroke-width:0.8;" x="136.104979" xlink:href="#ma3f6df2e29" y="233.998125"/>
      </g>
     </g>
    </g>
    <g id="xtick_4">
     <g id="line2d_4">
      <g>
       <use style="stroke:#000000;stroke-width:0.8;" x="182.266843" xlink:href="#ma3f6df2e29" y="233.998125"/>
      </g>
     </g>
    </g>
    <g id="xtick_5">
     <g id="line2d_5">
      <g>
       <use style="stroke:#000000;stroke-width:0.8;" x="228.428707" xlink:href="#ma3f6df2e29" y="233.998125"/>
      </g>
     </g>
    </g>
    <g id="xtick_6">
     <g id="line2d_6">
      <g>
       <use style="stroke:#000000;stroke-width:0.8;" x="274.590572" xlink:href="#ma3f6df2e29" y="233.998125"/>
      </g>
     </g>
    </g>
   </g>
   <g id="matplotlib.axis_2">
    <g id="ytick_1">
     <g id="line2d_7">
      <defs>
       <path d="M 0 0 
L -3.5 0 
" id="m21bcaa2248" style="stroke:#000000;stroke-width:0.8;"/>
      </defs>
      <g>
       <use style="stroke:#000000;stroke-width:0.8;" x="43.78125" xlink:href="#m21bcaa2248" y="233.998125"/>
      </g>
     </g>
     <g id="text_1">
      <!-- 0.0 -->
      <defs>
       <path d="M 31.78125 66.40625 
Q 24.171875 66.40625 20.328125 58.90625 
Q 16.5 51.421875 16.5 36.375 
Q 16.5 21.390625 20.328125 13.890625 
Q 24.171875 6.390625 31.78125 6.390625 
Q 39.453125 6.390625 43.28125 13.890625 
Q 47.125 21.390625 47.125 36.375 
Q 47.125 51.421875 43.28125 58.90625 
Q 39.453125 66.40625 31.78125 66.40625 
z
M 31.78125 74.21875 
Q 44.046875 74.21875 50.515625 64.515625 
Q 56.984375 54.828125 56.984375 36.375 
Q 56.984375 17.96875 50.515625 8.265625 
Q 44.046875 -1.421875 31.78125 -1.421875 
Q 19.53125 -1.421875 13.0625 8.265625 
Q 6.59375 17.96875 6.59375 36.375 
Q 6.59375 54.828125 13.0625 64.515625 
Q 19.53125 74.21875 31.78125 74.21875 
z
" id="DejaVuSans-48"/>
       <path d="M 10.6875 12.40625 
L 21 12.40625 
L 21 0 
L 10.6875 0 
z
" id="DejaVuSans-46"/>
      </defs>
      <g transform="translate(20.878125 237.797344)scale(0.1 -0.1)">
       <use xlink:href="#DejaVuSans-48"/>
       <use x="63.623047" xlink:href="#DejaVuSans-46"/>
       <use x="95.410156" xlink:href="#DejaVuSans-48"/>
      </g>
     </g>
    </g>
    <g id="ytick_2">
     <g id="line2d_8">
      <g>
       <use style="stroke:#000000;stroke-width:0.8;" x="43.78125" xlink:href="#m21bcaa2248" y="193.678125"/>
      </g>
     </g>
     <g id="text_2">
      <!-- 0.2 -->
      <defs>
       <path d="M 19.1875 8.296875 
L 53.609375 8.296875 
L 53.609375 0 
L 7.328125 0 
L 7.328125 8.296875 
Q 12.9375 14.109375 22.625 23.890625 
Q 32.328125 33.6875 34.8125 36.53125 
Q 39.546875 41.84375 41.421875 45.53125 
Q 43.3125 49.21875 43.3125 52.78125 
Q 43.3125 58.59375 39.234375 62.25 
Q 35.15625 65.921875 28.609375 65.921875 
Q 23.96875 65.921875 18.8125 64.3125 
Q 13.671875 62.703125 7.8125 59.421875 
L 7.8125 69.390625 
Q 13.765625 71.78125 18.9375 73 
Q 24.125 74.21875 28.421875 74.21875 
Q 39.75 74.21875 46.484375 68.546875 
Q 53.21875 62.890625 53.21875 53.421875 
Q 53.21875 48.921875 51.53125 44.890625 
Q 49.859375 40.875 45.40625 35.40625 
Q 44.1875 33.984375 37.640625 27.21875 
Q 31.109375 20.453125 19.1875 8.296875 
z
" id="DejaVuSans-50"/>
      </defs>
      <g transform="translate(20.878125 197.477344)scale(0.1 -0.1)">
       <use xlink:href="#DejaVuSans-48"/>
       <use x="63.623047" xlink:href="#DejaVuSans-46"/>
       <use x="95.410156" xlink:href="#DejaVuSans-50"/>
      </g>
     </g>
    </g>
    <g id="ytick_3">
     <g id="line2d_9">
      <g>
       <use style="stroke:#000000;stroke-width:0.8;" x="43.78125" xlink:href="#m21bcaa2248" y="153.358125"/>
      </g>
     </g>
     <g id="text_3">
      <!-- 0.4 -->
      <defs>
       <path d="M 37.796875 64.3125 
L 12.890625 25.390625 
L 37.796875 25.390625 
z
M 35.203125 72.90625 
L 47.609375 72.90625 
L 47.609375 25.390625 
L 58.015625 25.390625 
L 58.015625 17.1875 
L 47.609375 17.1875 
L 47.609375 0 
L 37.796875 0 
L 37.796875 17.1875 
L 4.890625 17.1875 
L 4.890625 26.703125 
z
" id="DejaVuSans-52"/>
      </defs>
      <g transform="translate(20.878125 157.157344)scale(0.1 -0.1)">
       <use xlink:href="#DejaVuSans-48"/>
       <use x="63.623047" xlink:href="#DejaVuSans-46"/>
       <use x="95.410156" xlink:href="#DejaVuSans-52"/>
      </g>
     </g>
    </g>
    <g id="ytick_4">
     <g id="line2d_10">
      <g>
       <use style="stroke:#000000;stroke-width:0.8;" x="43.78125" xlink:href="#m21bcaa2248" y="113.038125"/>
      </g>
     </g>
     <g id="text_4">
      <!-- 0.6 -->
      <defs>
       <path d="M 33.015625 40.375 
Q 26.375 40.375 22.484375 35.828125 
Q 18.609375 31.296875 18.609375 23.390625 
Q 18.609375 15.53125 22.484375 10.953125 
Q 26.375 6.390625 33.015625 6.390625 
Q 39.65625 6.390625 43.53125 10.953125 
Q 47.40625 15.53125 47.40625 23.390625 
Q 47.40625 31.296875 43.53125 35.828125 
Q 39.65625 40.375 33.015625 40.375 
z
M 52.59375 71.296875 
L 52.59375 62.3125 
Q 48.875 64.0625 45.09375 64.984375 
Q 41.3125 65.921875 37.59375 65.921875 
Q 27.828125 65.921875 22.671875 59.328125 
Q 17.53125 52.734375 16.796875 39.40625 
Q 19.671875 43.65625 24.015625 45.921875 
Q 28.375 48.1875 33.59375 48.1875 
Q 44.578125 48.1875 50.953125 41.515625 
Q 57.328125 34.859375 57.328125 23.390625 
Q 57.328125 12.15625 50.6875 5.359375 
Q 44.046875 -1.421875 33.015625 -1.421875 
Q 20.359375 -1.421875 13.671875 8.265625 
Q 6.984375 17.96875 6.984375 36.375 
Q 6.984375 53.65625 15.1875 63.9375 
Q 23.390625 74.21875 37.203125 74.21875 
Q 40.921875 74.21875 44.703125 73.484375 
Q 48.484375 72.75 52.59375 71.296875 
z
" id="DejaVuSans-54"/>
      </defs>
      <g transform="translate(20.878125 116.837344)scale(0.1 -0.1)">
       <use xlink:href="#DejaVuSans-48"/>
       <use x="63.623047" xlink:href="#DejaVuSans-46"/>
       <use x="95.410156" xlink:href="#DejaVuSans-54"/>
      </g>
     </g>
    </g>
    <g id="ytick_5">
     <g id="line2d_11">
      <g>
       <use style="stroke:#000000;stroke-width:0.8;" x="43.78125" xlink:href="#m21bcaa2248" y="72.718125"/>
      </g>
     </g>
     <g id="text_5">
      <!-- 0.8 -->
      <defs>
       <path d="M 31.78125 34.625 
Q 24.75 34.625 20.71875 30.859375 
Q 16.703125 27.09375 16.703125 20.515625 
Q 16.703125 13.921875 20.71875 10.15625 
Q 24.75 6.390625 31.78125 6.390625 
Q 38.8125 6.390625 42.859375 10.171875 
Q 46.921875 13.96875 46.921875 20.515625 
Q 46.921875 27.09375 42.890625 30.859375 
Q 38.875 34.625 31.78125 34.625 
z
M 21.921875 38.8125 
Q 15.578125 40.375 12.03125 44.71875 
Q 8.5 49.078125 8.5 55.328125 
Q 8.5 64.0625 14.71875 69.140625 
Q 20.953125 74.21875 31.78125 74.21875 
Q 42.671875 74.21875 48.875 69.140625 
Q 55.078125 64.0625 55.078125 55.328125 
Q 55.078125 49.078125 51.53125 44.71875 
Q 48 40.375 41.703125 38.8125 
Q 48.828125 37.15625 52.796875 32.3125 
Q 56.78125 27.484375 56.78125 20.515625 
Q 56.78125 9.90625 50.3125 4.234375 
Q 43.84375 -1.421875 31.78125 -1.421875 
Q 19.734375 -1.421875 13.25 4.234375 
Q 6.78125 9.90625 6.78125 20.515625 
Q 6.78125 27.484375 10.78125 32.3125 
Q 14.796875 37.15625 21.921875 38.8125 
z
M 18.3125 54.390625 
Q 18.3125 48.734375 21.84375 45.5625 
Q 25.390625 42.390625 31.78125 42.390625 
Q 38.140625 42.390625 41.71875 45.5625 
Q 45.3125 48.734375 45.3125 54.390625 
Q 45.3125 60.0625 41.71875 63.234375 
Q 38.140625 66.40625 31.78125 66.40625 
Q 25.390625 66.40625 21.84375 63.234375 
Q 18.3125 60.0625 18.3125 54.390625 
z
" id="DejaVuSans-56"/>
      </defs>
      <g transform="translate(20.878125 76.517344)scale(0.1 -0.1)">
       <use xlink:href="#DejaVuSans-48"/>
       <use x="63.623047" xlink:href="#DejaVuSans-46"/>
       <use x="95.410156" xlink:href="#DejaVuSans-56"/>
      </g>
     </g>
    </g>
    <g id="ytick_6">
     <g id="line2d_12">
      <g>
       <use style="stroke:#000000;stroke-width:0.8;" x="43.78125" xlink:href="#m21bcaa2248" y="32.398125"/>
      </g>
     </g>
     <g id="text_6">
      <!-- 1.0 -->
      <defs>
       <path d="M 12.40625 8.296875 
L 28.515625 8.296875 
L 28.515625 63.921875 
L 10.984375 60.40625 
L 10.984375 69.390625 
L 28.421875 72.90625 
L 38.28125 72.90625 
L 38.28125 8.296875 
L 54.390625 8.296875 
L 54.390625 0 
L 12.40625 0 
z
" id="DejaVuSans-49"/>
      </defs>
      <g transform="translate(20.878125 36.197344)scale(0.1 -0.1)">
       <use xlink:href="#DejaVuSans-49"/>
       <use x="63.623047" xlink:href="#DejaVuSans-46"/>
       <use x="95.410156" xlink:href="#DejaVuSans-48"/>
      </g>
     </g>
    </g>
    <g id="text_7">
     <!-- Amplitude / Value -->
     <defs>
      <path d="M 34.1875 63.1875 
L 20.796875 26.90625 
L 47.609375 26.90625 
z
M 28.609375 72.90625 
L 39.796875 72.90625 
L 67.578125 0 
L 57.328125 0 
L 50.6875 18.703125 
L 17.828125 18.703125 
L 11.1875 0 
L 0.78125 0 
z
" id="DejaVuSans-65"/>
      <path d="M 52 44.1875 
Q 55.375 50.25 60.0625 53.125 
Q 64.75 56 71.09375 56 
Q 79.640625 56 84.28125 50.015625 
Q 88.921875 44.046875 88.921875 33.015625 
L 88.921875 0 
L 79.890625 0 
L 79.890625 32.71875 
Q 79.890625 40.578125 77.09375 44.375 
Q 74.3125 48.1875 68.609375 48.1875 
Q 61.625 48.1875 57.5625 43.546875 
Q 53.515625 38.921875 53.515625 30.90625 
L 53.515625 0 
L 44.484375 0 
L 44.484375 32.71875 
Q 44.484375 40.625 41.703125 44.40625 
Q 38.921875 48.1875 33.109375 48.1875 
Q 26.21875 48.1875 22.15625 43.53125 
Q 18.109375 38.875 18.109375 30.90625 
L 18.109375 0 
L 9.078125 0 
L 9.078125 54.6875 
L 18.109375 54.6875 
L 18.109375 46.1875 
Q 21.1875 51.21875 25.484375 53.609375 
Q 29.78125 56 35.6875 56 
Q 41.65625 56 45.828125 52.96875 
Q 50 49.953125 52 44.1875 
z
" id="DejaVuSans-109"/>
      <path d="M 18.109375 8.203125 
L 18.109375 -20.796875 
L 9.078125 -20.796875 
L 9.078125 54.6875 
L 18.109375 54.6875 
L 18.109375 46.390625 
Q 20.953125 51.265625 25.265625 53.625 
Q 29.59375 56 35.59375 56 
Q 45.5625 56 51.78125 48.09375 
Q 58.015625 40.1875 58.015625 27.296875 
Q 58.015625 14.40625 51.78125 6.484375 
Q 45.5625 -1.421875 35.59375 -1.421875 
Q 29.59375 -1.421875 25.265625 0.953125 
Q 20.953125 3.328125 18.109375 8.203125 
z
M 48.6875 27.296875 
Q 48.6875 37.203125 44.609375 42.84375 
Q 40.53125 48.484375 33.40625 48.484375 
Q 26.265625 48.484375 22.1875 42.84375 
Q 18.109375 37.203125 18.109375 27.296875 
Q 18.109375 17.390625 22.1875 11.75 
Q 26.265625 6.109375 33.40625 6.109375 
Q 40.53125 6.109375 44.609375 11.75 
Q 48.6875 17.390625 48.6875 27.296875 
z
" id="DejaVuSans-112"/>
      <path d="M 9.421875 75.984375 
L 18.40625 75.984375 
L 18.40625 0 
L 9.421875 0 
z
" id="DejaVuSans-108"/>
      <path d="M 9.421875 54.6875 
L 18.40625 54.6875 
L 18.40625 0 
L 9.421875 0 
z
M 9.421875 75.984375 
L 18.40625 75.984375 
L 18.40625 64.59375 
L 9.421875 64.59375 
z
" id="DejaVuSans-105"/>
      <path d="M 18.3125 70.21875 
L 18.3125 54.6875 
L 36.8125 54.6875 
L 36.8125 47.703125 
L 18.3125 47.703125 
L 18.3125 18.015625 
Q 18.3125 11.328125 20.140625 9.421875 
Q 21.96875 7.515625 27.59375 7.515625 
L 36.8125 7.515625 
L 36.8125 0 
L 27.59375 0 
Q 17.1875 0 13.234375 3.875 
Q 9.28125 7.765625 9.28125 18.015625 
L 9.28125 47.703125 
L 2.6875 47.703125 
L 2.6875 54.6875 
L 9.28125 54.6875 
L 9.28125 70.21875 
z
" id="DejaVuSans-116"/>
      <path d="M 8.5 21.578125 
L 8.5 54.6875 
L 17.484375 54.6875 
L 17.484375 21.921875 
Q 17.484375 14.15625 20.5 10.265625 
Q 23.53125 6.390625 29.59375 6.390625 
Q 36.859375 6.390625 41.078125 11.03125 
Q 45.3125 15.671875 45.3125 23.6875 
L 45.3125 54.6875 
L 54.296875 54.6875 
L 54.296875 0 
L 45.3125 0 
L 45.3125 8.40625 
Q 42.046875 3.421875 37.71875 1 
Q 33.40625 -1.421875 27.6875 -1.421875 
Q 18.265625 -1.421875 13.375 4.4375 
Q 8.5 10.296875 8.5 21.578125 
z
M 31.109375 56 
z
" id="DejaVuSans-117"/>
      <path d="M 45.40625 46.390625 
L 45.40625 75.984375 
L 54.390625 75.984375 
L 54.390625 0 
L 45.40625 0 
L 45.40625 8.203125 
Q 42.578125 3.328125 38.25 0.953125 
Q 33.9375 -1.421875 27.875 -1.421875 
Q 17.96875 -1.421875 11.734375 6.484375 
Q 5.515625 14.40625 5.515625 27.296875 
Q 5.515625 40.1875 11.734375 48.09375 
Q 17.96875 56 27.875 56 
Q 33.9375 56 38.25 53.625 
Q 42.578125 51.265625 45.40625 46.390625 
z
M 14.796875 27.296875 
Q 14.796875 17.390625 18.875 11.75 
Q 22.953125 6.109375 30.078125 6.109375 
Q 37.203125 6.109375 41.296875 11.75 
Q 45.40625 17.390625 45.40625 27.296875 
Q 45.40625 37.203125 41.296875 42.84375 
Q 37.203125 48.484375 30.078125 48.484375 
Q 22.953125 48.484375 18.875 42.84375 
Q 14.796875 37.203125 14.796875 27.296875 
z
" id="DejaVuSans-100"/>
      <path d="M 56.203125 29.59375 
L 56.203125 25.203125 
L 14.890625 25.203125 
Q 15.484375 15.921875 20.484375 11.0625 
Q 25.484375 6.203125 34.421875 6.203125 
Q 39.59375 6.203125 44.453125 7.46875 
Q 49.3125 8.734375 54.109375 11.28125 
L 54.109375 2.78125 
Q 49.265625 0.734375 44.1875 -0.34375 
Q 39.109375 -1.421875 33.890625 -1.421875 
Q 20.796875 -1.421875 13.15625 6.1875 
Q 5.515625 13.8125 5.515625 26.8125 
Q 5.515625 40.234375 12.765625 48.109375 
Q 20.015625 56 32.328125 56 
Q 43.359375 56 49.78125 48.890625 
Q 56.203125 41.796875 56.203125 29.59375 
z
M 47.21875 32.234375 
Q 47.125 39.59375 43.09375 43.984375 
Q 39.0625 48.390625 32.421875 48.390625 
Q 24.90625 48.390625 20.390625 44.140625 
Q 15.875 39.890625 15.1875 32.171875 
z
" id="DejaVuSans-101"/>
      <path id="DejaVuSans-32"/>
      <path d="M 25.390625 72.90625 
L 33.6875 72.90625 
L 8.296875 -9.28125 
L 0 -9.28125 
z
" id="DejaVuSans-47"/>
      <path d="M 28.609375 0 
L 0.78125 72.90625 
L 11.078125 72.90625 
L 34.1875 11.53125 
L 57.328125 72.90625 
L 67.578125 72.90625 
L 39.796875 0 
z
" id="DejaVuSans-86"/>
      <path d="M 34.28125 27.484375 
Q 23.390625 27.484375 19.1875 25 
Q 14.984375 22.515625 14.984375 16.5 
Q 14.984375 11.71875 18.140625 8.90625 
Q 21.296875 6.109375 26.703125 6.109375 
Q 34.1875 6.109375 38.703125 11.40625 
Q 43.21875 16.703125 43.21875 25.484375 
L 43.21875 27.484375 
z
M 52.203125 31.203125 
L 52.203125 0 
L 43.21875 0 
L 43.21875 8.296875 
Q 40.140625 3.328125 35.546875 0.953125 
Q 30.953125 -1.421875 24.3125 -1.421875 
Q 15.921875 -1.421875 10.953125 3.296875 
Q 6 8.015625 6 15.921875 
Q 6 25.140625 12.171875 29.828125 
Q 18.359375 34.515625 30.609375 34.515625 
L 43.21875 34.515625 
L 43.21875 35.40625 
Q 43.21875 41.609375 39.140625 45 
Q 35.0625 48.390625 27.6875 48.390625 
Q 23 48.390625 18.546875 47.265625 
Q 14.109375 46.140625 10.015625 43.890625 
L 10.015625 52.203125 
Q 14.9375 54.109375 19.578125 55.046875 
Q 24.21875 56 28.609375 56 
Q 40.484375 56 46.34375 49.84375 
Q 52.203125 43.703125 52.203125 31.203125 
z
" id="DejaVuSans-97"/>
     </defs>
     <g transform="translate(14.798438 177.796562)rotate(-90)scale(0.1 -0.1)">
      <use xlink:href="#DejaVuSans-65"/>
      <use x="68.408203" xlink:href="#DejaVuSans-109"/>
      <use x="165.820312" xlink:href="#DejaVuSans-112"/>
      <use x="229.296875" xlink:href="#DejaVuSans-108"/>
      <use x="257.080078" xlink:href="#DejaVuSans-105"/>
      <use x="284.863281" xlink:href="#DejaVuSans-116"/>
      <use x="324.072266" xlink:href="#DejaVuSans-117"/>
      <use x="387.451172" xlink:href="#DejaVuSans-100"/>
      <use x="450.927734" xlink:href="#DejaVuSans-101"/>
      <use x="512.451172" xlink:href="#DejaVuSans-32"/>
      <use x="544.238281" xlink:href="#DejaVuSans-47"/>
      <use x="577.929688" xlink:href="#DejaVuSans-32"/>
      <use x="609.716797" xlink:href="#DejaVuSans-86"/>
      <use x="678.015625" xlink:href="#DejaVuSans-97"/>
      <use x="739.294922" xlink:href="#DejaVuSans-108"/>
      <use x="767.078125" xlink:href="#DejaVuSans-117"/>
      <use x="830.457031" xlink:href="#DejaVuSans-101"/>
     </g>
    </g>
   </g>
   <g id="line2d_13">
    <path clip-path="url(#p655e4578d9)" d="M 43.78125 233.998125 
L 44.012059 32.398125 
L 274.128953 32.398125 
L 274.359762 233.998125 
L 274.359762 233.998125 
" style="fill:none;stroke:#1f77b4;stroke-dasharray:5.55,2.4;stroke-dashoffset:0;stroke-width:1.5;"/>
   </g>
   <g id="line2d_14">
    <path clip-path="url(#p655e4578d9)" d="M 43.78125 217.870125 
L 45.627725 217.752761 
L 47.474199 217.400965 
L 49.320674 216.815629 
L 51.167148 215.998234 
L 53.013623 214.950848 
L 55.090907 213.500952 
L 57.168191 211.767991 
L 59.245475 209.757515 
L 61.553568 207.206036 
L 63.861661 204.330008 
L 66.400564 200.805134 
L 69.170275 196.547528 
L 71.939987 191.883324 
L 74.940508 186.402456 
L 78.171839 180.043285 
L 81.864788 172.257728 
L 86.019356 162.933163 
L 90.635542 152.010356 
L 96.636585 137.202459 
L 113.947284 94.102625 
L 118.56347 83.384031 
L 122.718038 74.29675 
L 126.410987 66.762138 
L 129.642318 60.651381 
L 132.642839 55.423528 
L 135.412551 51.01048 
L 138.182263 47.01946 
L 140.721165 43.751217 
L 143.029258 41.117604 
L 145.337352 38.81623 
L 147.414635 37.036606 
L 149.491919 35.539185 
L 151.569203 34.328764 
L 153.415678 33.496928 
L 155.262152 32.897038 
L 157.108627 32.530615 
L 158.955102 32.398584 
L 160.801576 32.50128 
L 162.648051 32.838443 
L 164.494525 33.40922 
L 166.341 34.212167 
L 168.187474 35.24525 
L 170.264758 36.679275 
L 172.342042 38.396648 
L 174.419326 40.391867 
L 176.727419 42.926843 
L 179.035513 45.786903 
L 181.574415 49.294906 
L 184.344127 53.535028 
L 187.113839 58.182805 
L 190.11436 63.647178 
L 193.34569 69.990223 
L 197.03864 77.759583 
L 200.962398 86.537864 
L 205.578585 97.421759 
L 211.348818 111.62159 
L 229.813563 157.535825 
L 234.42975 168.181026 
L 238.353508 176.700943 
L 242.046457 184.183336 
L 245.277788 190.242761 
L 248.278309 195.418596 
L 251.048021 199.780217 
L 253.817733 203.716835 
L 256.356635 206.93286 
L 258.664729 209.51727 
L 260.972822 211.767991 
L 263.050106 213.500952 
L 265.12739 214.950848 
L 267.204673 216.113034 
L 269.051148 216.901523 
L 270.897623 217.457736 
L 272.744097 217.780264 
L 274.359762 217.870125 
L 274.359762 217.870125 
" style="fill:none;stroke:#ff7f0e;stroke-linecap:square;stroke-width:1.5;"/>
   </g>
   <g id="line2d_15">
    <path clip-path="url(#p655e4578d9)" d="M 43.78125 233.998125 
L 45.396915 233.90045 
L 47.24339 233.549876 
L 49.089864 232.945297 
L 50.936339 232.088243 
L 52.782814 230.980885 
L 54.629288 229.626024 
L 56.706572 227.810256 
L 58.783856 225.691418 
L 61.091949 222.989986 
L 63.400042 219.933478 
L 65.938945 216.175671 
L 68.477847 212.020854 
L 71.247559 207.058945 
L 74.24808 201.20993 
L 77.479411 194.403981 
L 80.941551 186.587102 
L 84.865309 177.15787 
L 89.250686 166.030381 
L 94.79011 151.325858 
L 104.714911 124.176013 
L 112.100809 104.288359 
L 117.178614 91.245668 
L 121.333182 81.160068 
L 125.026131 72.750572 
L 128.488271 65.420618 
L 131.488792 59.553382 
L 134.489313 54.178202 
L 137.259025 49.684352 
L 139.797928 45.98212 
L 142.106021 42.978136 
L 144.414114 40.330922 
L 146.491398 38.26215 
L 148.568682 36.497487 
L 150.645966 35.042584 
L 152.492441 34.013175 
L 154.338915 33.234816 
L 156.18539 32.70948 
L 158.031864 32.438495 
L 159.64753 32.410585 
L 161.263195 32.578003 
L 163.109669 33.008079 
L 164.956144 33.69175 
L 166.802618 34.627287 
L 168.649093 35.812321 
L 170.495568 37.243853 
L 172.572852 39.144432 
L 174.650135 41.346293 
L 176.958229 44.137551 
L 179.266322 47.280994 
L 181.805224 51.130679 
L 184.344127 55.37302 
L 187.113839 60.424951 
L 190.11436 66.364487 
L 193.34569 73.259101 
L 196.80783 81.160068 
L 200.731589 90.67004 
L 205.347775 102.471577 
L 211.118008 117.883669 
L 230.275182 169.602591 
L 234.891368 181.107581 
L 238.815127 190.298404 
L 242.277267 197.869622 
L 245.508597 204.41843 
L 248.509118 210.006366 
L 251.27883 214.709758 
L 253.817733 218.614114 
L 256.356635 222.109793 
L 258.664729 224.918934 
L 260.972822 227.365371 
L 263.050106 229.249024 
L 265.12739 230.824998 
L 266.973864 231.963461 
L 268.820339 232.851934 
L 270.666813 233.488169 
L 272.513288 233.870555 
L 274.359762 233.998125 
L 274.359762 233.998125 
" style="fill:none;stroke:#2ca02c;stroke-linecap:square;stroke-width:1.5;"/>
   </g>
   <g id="line2d_16">
    <path clip-path="url(#p655e4578d9)" d="M 43.78125 233.998125 
L 158.955102 32.599927 
L 159.185911 32.599927 
L 274.359762 233.998125 
L 274.359762 233.998125 
" style="fill:none;stroke:#d62728;stroke-linecap:square;stroke-width:1.5;"/>
   </g>
   <g id="line2d_17">
    <path clip-path="url(#p655e4578d9)" d="M 43.78125 233.998125 
L 46.550962 233.894559 
L 49.320674 233.581326 
L 52.090386 233.050899 
L 54.860097 232.29102 
L 57.629809 231.285115 
L 60.168712 230.129609 
L 62.707614 228.73241 
L 65.246517 227.073984 
L 67.785419 225.133777 
L 70.324322 222.890861 
L 72.863225 220.324606 
L 75.402127 217.415385 
L 77.94103 214.145274 
L 80.479932 210.498744 
L 83.018835 206.463337 
L 85.557737 202.030293 
L 88.327449 196.735603 
L 91.097161 190.96316 
L 94.097682 184.180201 
L 97.329013 176.283551 
L 100.791152 167.187832 
L 104.484102 156.840128 
L 108.869479 143.839225 
L 114.408902 126.660484 
L 126.410987 89.226552 
L 130.334746 77.805774 
L 133.796885 68.401251 
L 136.797407 60.893887 
L 139.336309 55.087195 
L 141.875212 49.841246 
L 144.183305 45.602738 
L 146.260589 42.250344 
L 148.107063 39.657312 
L 149.953538 37.44303 
L 151.569203 35.825719 
L 153.184868 34.514358 
L 154.800534 33.514431 
L 156.18539 32.908439 
L 157.570246 32.536227 
L 158.955102 32.398942 
L 160.339957 32.497011 
L 161.724813 32.830129 
L 163.109669 33.397268 
L 164.494525 34.196678 
L 166.110191 35.419562 
L 167.725856 36.950092 
L 169.341521 38.781882 
L 171.187996 41.234418 
L 173.03447 44.057187 
L 175.111754 47.65638 
L 177.419847 52.152807 
L 179.72794 57.136737 
L 182.266843 63.133459 
L 185.267364 70.837316 
L 188.498695 79.768631 
L 192.422453 91.308487 
L 197.500258 106.990125 
L 210.887199 148.706664 
L 215.272576 161.442959 
L 218.965525 171.510403 
L 222.427665 180.306498 
L 225.658996 187.900024 
L 228.659517 194.388186 
L 231.429229 199.88244 
L 234.19894 204.897662 
L 236.968652 209.437185 
L 239.507555 213.188681 
L 242.046457 216.56003 
L 244.58536 219.565986 
L 247.124262 222.223889 
L 249.663165 224.552972 
L 252.202068 226.573661 
L 254.74097 228.30687 
L 257.279873 229.773321 
L 259.818775 230.992888 
L 262.588487 232.063344 
L 265.358199 232.883018 
L 268.127911 233.469481 
L 270.897623 233.836117 
L 273.667334 233.991665 
L 274.359762 233.998125 
L 274.359762 233.998125 
" style="fill:none;stroke:#9467bd;stroke-linecap:square;stroke-width:1.5;"/>
   </g>
   <g id="line2d_18">
    <path clip-path="url(#p655e4578d9)" d="M 43.78125 216.160451 
L 47.012581 211.99347 
L 50.47472 207.162262 
L 54.167669 201.602473 
L 57.860619 195.639831 
L 61.784377 188.887457 
L 65.938945 181.304209 
L 70.555131 172.408633 
L 75.632936 162.134519 
L 81.633979 149.475312 
L 89.943114 131.379875 
L 103.099246 102.722109 
L 109.100288 90.22706 
L 113.947284 80.633463 
L 118.332661 72.449099 
L 122.256419 65.599748 
L 125.718559 59.977126 
L 128.94989 55.120899 
L 132.18122 50.672569 
L 135.181741 46.93072 
L 137.951453 43.826416 
L 140.490356 41.288001 
L 143.029258 39.053339 
L 145.568161 37.130901 
L 147.876254 35.660342 
L 150.184347 34.458504 
L 152.261631 33.609756 
L 154.338915 32.983925 
L 156.416199 32.582613 
L 158.493483 32.406847 
L 160.570767 32.457077 
L 162.648051 32.733176 
L 164.725335 33.234436 
L 166.802618 33.959573 
L 168.879902 34.906731 
L 171.187996 36.21656 
L 173.496089 37.793357 
L 175.804182 39.632163 
L 178.343085 41.950556 
L 180.881987 44.570193 
L 183.651699 47.759893 
L 186.421411 51.282027 
L 189.421932 55.454577 
L 192.653263 60.338852 
L 196.115402 65.989122 
L 199.808351 72.449099 
L 203.962919 80.190107 
L 208.579106 89.291785 
L 213.88772 100.2762 
L 220.58119 114.667602 
L 241.584839 160.219305 
L 247.124262 171.494398 
L 251.971258 180.870677 
L 256.356635 188.887457 
L 260.511203 196.023911 
L 264.434962 202.319872 
L 268.127911 207.82801 
L 271.590051 212.609149 
L 274.359762 216.160451 
L 274.359762 216.160451 
" style="fill:none;stroke:#8c564b;stroke-linecap:square;stroke-width:1.5;"/>
   </g>
   <g id="patch_3">
    <path d="M 43.78125 244.078125 
L 43.78125 22.318125 
" style="fill:none;stroke:#000000;stroke-linecap:square;stroke-linejoin:miter;stroke-width:0.8;"/>
   </g>
   <g id="patch_4">
    <path d="M 285.888688 244.078125 
L 285.888688 22.318125 
" style="fill:none;"/>
   </g>
   <g id="patch_5">
    <path d="M 32.252324 233.998125 
L 285.888688 233.998125 
" style="fill:none;stroke:#000000;stroke-linecap:square;stroke-linejoin:miter;stroke-width:0.8;"/>
   </g>
   <g id="patch_6">
    <path d="M 32.252324 22.318125 
L 285.888688 22.318125 
" style="fill:none;"/>
   </g>
   <g id="text_8">
    <!-- N -->
    <defs>
     <path d="M 9.8125 72.90625 
L 23.09375 72.90625 
L 55.421875 11.921875 
L 55.421875 72.90625 
L 64.984375 72.90625 
L 64.984375 0 
L 51.703125 0 
L 19.390625 60.984375 
L 19.390625 0 
L 9.8125 0 
z
" id="DejaVuSans-78"/>
    </defs>
    <g transform="translate(272.282479 248.110125)scale(0.1 -0.1)">
     <use xlink:href="#DejaVuSans-78"/>
    </g>
   </g>
   <g id="text_9">
    <!-- 0 -->
    <g transform="translate(41.473157 248.110125)scale(0.1 -0.1)">
     <use xlink:href="#DejaVuSans-48"/>
    </g>
   </g>
   <g id="text_10">
    <!-- Time Domain -->
    <defs>
     <path d="M -0.296875 72.90625 
L 61.375 72.90625 
L 61.375 64.59375 
L 35.5 64.59375 
L 35.5 0 
L 25.59375 0 
L 25.59375 64.59375 
L -0.296875 64.59375 
z
" id="DejaVuSans-84"/>
     <path d="M 19.671875 64.796875 
L 19.671875 8.109375 
L 31.59375 8.109375 
Q 46.6875 8.109375 53.6875 14.9375 
Q 60.6875 21.78125 60.6875 36.53125 
Q 60.6875 51.171875 53.6875 57.984375 
Q 46.6875 64.796875 31.59375 64.796875 
z
M 9.8125 72.90625 
L 30.078125 72.90625 
Q 51.265625 72.90625 61.171875 64.09375 
Q 71.09375 55.28125 71.09375 36.53125 
Q 71.09375 17.671875 61.125 8.828125 
Q 51.171875 0 30.078125 0 
L 9.8125 0 
z
" id="DejaVuSans-68"/>
     <path d="M 30.609375 48.390625 
Q 23.390625 48.390625 19.1875 42.75 
Q 14.984375 37.109375 14.984375 27.296875 
Q 14.984375 17.484375 19.15625 11.84375 
Q 23.34375 6.203125 30.609375 6.203125 
Q 37.796875 6.203125 41.984375 11.859375 
Q 46.1875 17.53125 46.1875 27.296875 
Q 46.1875 37.015625 41.984375 42.703125 
Q 37.796875 48.390625 30.609375 48.390625 
z
M 30.609375 56 
Q 42.328125 56 49.015625 48.375 
Q 55.71875 40.765625 55.71875 27.296875 
Q 55.71875 13.875 49.015625 6.21875 
Q 42.328125 -1.421875 30.609375 -1.421875 
Q 18.84375 -1.421875 12.171875 6.21875 
Q 5.515625 13.875 5.515625 27.296875 
Q 5.515625 40.765625 12.171875 48.375 
Q 18.84375 56 30.609375 56 
z
" id="DejaVuSans-111"/>
     <path d="M 54.890625 33.015625 
L 54.890625 0 
L 45.90625 0 
L 45.90625 32.71875 
Q 45.90625 40.484375 42.875 44.328125 
Q 39.84375 48.1875 33.796875 48.1875 
Q 26.515625 48.1875 22.3125 43.546875 
Q 18.109375 38.921875 18.109375 30.90625 
L 18.109375 0 
L 9.078125 0 
L 9.078125 54.6875 
L 18.109375 54.6875 
L 18.109375 46.1875 
Q 21.34375 51.125 25.703125 53.5625 
Q 30.078125 56 35.796875 56 
Q 45.21875 56 50.046875 50.171875 
Q 54.890625 44.34375 54.890625 33.015625 
z
" id="DejaVuSans-110"/>
    </defs>
    <g transform="translate(119.016756 16.318125)scale(0.12 -0.12)">
     <use xlink:href="#DejaVuSans-84"/>
     <use x="61.037109" xlink:href="#DejaVuSans-105"/>
     <use x="88.820312" xlink:href="#DejaVuSans-109"/>
     <use x="186.232422" xlink:href="#DejaVuSans-101"/>
     <use x="247.755859" xlink:href="#DejaVuSans-32"/>
     <use x="279.542969" xlink:href="#DejaVuSans-68"/>
     <use x="356.544922" xlink:href="#DejaVuSans-111"/>
     <use x="417.726562" xlink:href="#DejaVuSans-109"/>
     <use x="515.138672" xlink:href="#DejaVuSans-97"/>
     <use x="576.417969" xlink:href="#DejaVuSans-105"/>
     <use x="604.201172" xlink:href="#DejaVuSans-110"/>
    </g>
   </g>
   <g id="legend_1">
    <g id="patch_7">
     <path d="M 103.460819 281.744625 
L 214.680194 281.744625 
Q 217.080194 281.744625 217.080194 279.344625 
L 217.080194 174.862125 
Q 217.080194 172.462125 214.680194 172.462125 
L 103.460819 172.462125 
Q 101.060819 172.462125 101.060819 174.862125 
L 101.060819 279.344625 
Q 101.060819 281.744625 103.460819 281.744625 
z
" style="fill:#ffffff;stroke:#cccccc;stroke-linejoin:miter;"/>
    </g>
    <g id="line2d_19">
     <path d="M 105.860819 182.18025 
L 129.860819 182.18025 
" style="fill:none;stroke:#1f77b4;stroke-dasharray:5.55,2.4;stroke-dashoffset:0;stroke-width:1.5;"/>
    </g>
    <g id="line2d_20"/>
    <g id="text_11">
     <!-- Rectangular -->
     <defs>
      <path d="M 44.390625 34.1875 
Q 47.5625 33.109375 50.5625 29.59375 
Q 53.5625 26.078125 56.59375 19.921875 
L 66.609375 0 
L 56 0 
L 46.6875 18.703125 
Q 43.0625 26.03125 39.671875 28.421875 
Q 36.28125 30.8125 30.421875 30.8125 
L 19.671875 30.8125 
L 19.671875 0 
L 9.8125 0 
L 9.8125 72.90625 
L 32.078125 72.90625 
Q 44.578125 72.90625 50.734375 67.671875 
Q 56.890625 62.453125 56.890625 51.90625 
Q 56.890625 45.015625 53.6875 40.46875 
Q 50.484375 35.9375 44.390625 34.1875 
z
M 19.671875 64.796875 
L 19.671875 38.921875 
L 32.078125 38.921875 
Q 39.203125 38.921875 42.84375 42.21875 
Q 46.484375 45.515625 46.484375 51.90625 
Q 46.484375 58.296875 42.84375 61.546875 
Q 39.203125 64.796875 32.078125 64.796875 
z
" id="DejaVuSans-82"/>
      <path d="M 48.78125 52.59375 
L 48.78125 44.1875 
Q 44.96875 46.296875 41.140625 47.34375 
Q 37.3125 48.390625 33.40625 48.390625 
Q 24.65625 48.390625 19.8125 42.84375 
Q 14.984375 37.3125 14.984375 27.296875 
Q 14.984375 17.28125 19.8125 11.734375 
Q 24.65625 6.203125 33.40625 6.203125 
Q 37.3125 6.203125 41.140625 7.25 
Q 44.96875 8.296875 48.78125 10.40625 
L 48.78125 2.09375 
Q 45.015625 0.34375 40.984375 -0.53125 
Q 36.96875 -1.421875 32.421875 -1.421875 
Q 20.0625 -1.421875 12.78125 6.34375 
Q 5.515625 14.109375 5.515625 27.296875 
Q 5.515625 40.671875 12.859375 48.328125 
Q 20.21875 56 33.015625 56 
Q 37.15625 56 41.109375 55.140625 
Q 45.0625 54.296875 48.78125 52.59375 
z
" id="DejaVuSans-99"/>
      <path d="M 45.40625 27.984375 
Q 45.40625 37.75 41.375 43.109375 
Q 37.359375 48.484375 30.078125 48.484375 
Q 22.859375 48.484375 18.828125 43.109375 
Q 14.796875 37.75 14.796875 27.984375 
Q 14.796875 18.265625 18.828125 12.890625 
Q 22.859375 7.515625 30.078125 7.515625 
Q 37.359375 7.515625 41.375 12.890625 
Q 45.40625 18.265625 45.40625 27.984375 
z
M 54.390625 6.78125 
Q 54.390625 -7.171875 48.1875 -13.984375 
Q 42 -20.796875 29.203125 -20.796875 
Q 24.46875 -20.796875 20.265625 -20.09375 
Q 16.0625 -19.390625 12.109375 -17.921875 
L 12.109375 -9.1875 
Q 16.0625 -11.328125 19.921875 -12.34375 
Q 23.78125 -13.375 27.78125 -13.375 
Q 36.625 -13.375 41.015625 -8.765625 
Q 45.40625 -4.15625 45.40625 5.171875 
L 45.40625 9.625 
Q 42.625 4.78125 38.28125 2.390625 
Q 33.9375 0 27.875 0 
Q 17.828125 0 11.671875 7.65625 
Q 5.515625 15.328125 5.515625 27.984375 
Q 5.515625 40.671875 11.671875 48.328125 
Q 17.828125 56 27.875 56 
Q 33.9375 56 38.28125 53.609375 
Q 42.625 51.21875 45.40625 46.390625 
L 45.40625 54.6875 
L 54.390625 54.6875 
z
" id="DejaVuSans-103"/>
      <path d="M 41.109375 46.296875 
Q 39.59375 47.171875 37.8125 47.578125 
Q 36.03125 48 33.890625 48 
Q 26.265625 48 22.1875 43.046875 
Q 18.109375 38.09375 18.109375 28.8125 
L 18.109375 0 
L 9.078125 0 
L 9.078125 54.6875 
L 18.109375 54.6875 
L 18.109375 46.1875 
Q 20.953125 51.171875 25.484375 53.578125 
Q 30.03125 56 36.53125 56 
Q 37.453125 56 38.578125 55.875 
Q 39.703125 55.765625 41.0625 55.515625 
z
" id="DejaVuSans-114"/>
     </defs>
     <g transform="translate(139.460819 186.38025)scale(0.12 -0.12)">
      <use xlink:href="#DejaVuSans-82"/>
      <use x="69.419922" xlink:href="#DejaVuSans-101"/>
      <use x="130.943359" xlink:href="#DejaVuSans-99"/>
      <use x="185.923828" xlink:href="#DejaVuSans-116"/>
      <use x="225.132812" xlink:href="#DejaVuSans-97"/>
      <use x="286.412109" xlink:href="#DejaVuSans-110"/>
      <use x="349.791016" xlink:href="#DejaVuSans-103"/>
      <use x="413.267578" xlink:href="#DejaVuSans-117"/>
      <use x="476.646484" xlink:href="#DejaVuSans-108"/>
      <use x="504.429688" xlink:href="#DejaVuSans-97"/>
      <use x="565.708984" xlink:href="#DejaVuSans-114"/>
     </g>
    </g>
    <g id="line2d_21">
     <path d="M 105.860819 199.794 
L 129.860819 199.794 
" style="fill:none;stroke:#ff7f0e;stroke-linecap:square;stroke-width:1.5;"/>
    </g>
    <g id="line2d_22"/>
    <g id="text_12">
     <!-- Hamming -->
     <defs>
      <path d="M 9.8125 72.90625 
L 19.671875 72.90625 
L 19.671875 43.015625 
L 55.515625 43.015625 
L 55.515625 72.90625 
L 65.375 72.90625 
L 65.375 0 
L 55.515625 0 
L 55.515625 34.71875 
L 19.671875 34.71875 
L 19.671875 0 
L 9.8125 0 
z
" id="DejaVuSans-72"/>
     </defs>
     <g transform="translate(139.460819 203.994)scale(0.12 -0.12)">
      <use xlink:href="#DejaVuSans-72"/>
      <use x="75.195312" xlink:href="#DejaVuSans-97"/>
      <use x="136.474609" xlink:href="#DejaVuSans-109"/>
      <use x="233.886719" xlink:href="#DejaVuSans-109"/>
      <use x="331.298828" xlink:href="#DejaVuSans-105"/>
      <use x="359.082031" xlink:href="#DejaVuSans-110"/>
      <use x="422.460938" xlink:href="#DejaVuSans-103"/>
     </g>
    </g>
    <g id="line2d_23">
     <path d="M 105.860819 217.40775 
L 129.860819 217.40775 
" style="fill:none;stroke:#2ca02c;stroke-linecap:square;stroke-width:1.5;"/>
    </g>
    <g id="line2d_24"/>
    <g id="text_13">
     <!-- Hanning -->
     <g transform="translate(139.460819 221.60775)scale(0.12 -0.12)">
      <use xlink:href="#DejaVuSans-72"/>
      <use x="75.195312" xlink:href="#DejaVuSans-97"/>
      <use x="136.474609" xlink:href="#DejaVuSans-110"/>
      <use x="199.853516" xlink:href="#DejaVuSans-110"/>
      <use x="263.232422" xlink:href="#DejaVuSans-105"/>
      <use x="291.015625" xlink:href="#DejaVuSans-110"/>
      <use x="354.394531" xlink:href="#DejaVuSans-103"/>
     </g>
    </g>
    <g id="line2d_25">
     <path d="M 105.860819 235.0215 
L 129.860819 235.0215 
" style="fill:none;stroke:#d62728;stroke-linecap:square;stroke-width:1.5;"/>
    </g>
    <g id="line2d_26"/>
    <g id="text_14">
     <!-- Bartlett -->
     <defs>
      <path d="M 19.671875 34.8125 
L 19.671875 8.109375 
L 35.5 8.109375 
Q 43.453125 8.109375 47.28125 11.40625 
Q 51.125 14.703125 51.125 21.484375 
Q 51.125 28.328125 47.28125 31.5625 
Q 43.453125 34.8125 35.5 34.8125 
z
M 19.671875 64.796875 
L 19.671875 42.828125 
L 34.28125 42.828125 
Q 41.5 42.828125 45.03125 45.53125 
Q 48.578125 48.25 48.578125 53.8125 
Q 48.578125 59.328125 45.03125 62.0625 
Q 41.5 64.796875 34.28125 64.796875 
z
M 9.8125 72.90625 
L 35.015625 72.90625 
Q 46.296875 72.90625 52.390625 68.21875 
Q 58.5 63.53125 58.5 54.890625 
Q 58.5 48.1875 55.375 44.234375 
Q 52.25 40.28125 46.1875 39.3125 
Q 53.46875 37.75 57.5 32.78125 
Q 61.53125 27.828125 61.53125 20.40625 
Q 61.53125 10.640625 54.890625 5.3125 
Q 48.25 0 35.984375 0 
L 9.8125 0 
z
" id="DejaVuSans-66"/>
     </defs>
     <g transform="translate(139.460819 239.2215)scale(0.12 -0.12)">
      <use xlink:href="#DejaVuSans-66"/>
      <use x="68.603516" xlink:href="#DejaVuSans-97"/>
      <use x="129.882812" xlink:href="#DejaVuSans-114"/>
      <use x="170.996094" xlink:href="#DejaVuSans-116"/>
      <use x="210.205078" xlink:href="#DejaVuSans-108"/>
      <use x="237.988281" xlink:href="#DejaVuSans-101"/>
      <use x="299.511719" xlink:href="#DejaVuSans-116"/>
      <use x="338.720703" xlink:href="#DejaVuSans-116"/>
     </g>
    </g>
    <g id="line2d_27">
     <path d="M 105.860819 252.63525 
L 129.860819 252.63525 
" style="fill:none;stroke:#9467bd;stroke-linecap:square;stroke-width:1.5;"/>
    </g>
    <g id="line2d_28"/>
    <g id="text_15">
     <!-- Blackman -->
     <defs>
      <path d="M 9.078125 75.984375 
L 18.109375 75.984375 
L 18.109375 31.109375 
L 44.921875 54.6875 
L 56.390625 54.6875 
L 27.390625 29.109375 
L 57.625 0 
L 45.90625 0 
L 18.109375 26.703125 
L 18.109375 0 
L 9.078125 0 
z
" id="DejaVuSans-107"/>
     </defs>
     <g transform="translate(139.460819 256.83525)scale(0.12 -0.12)">
      <use xlink:href="#DejaVuSans-66"/>
      <use x="68.603516" xlink:href="#DejaVuSans-108"/>
      <use x="96.386719" xlink:href="#DejaVuSans-97"/>
      <use x="157.666016" xlink:href="#DejaVuSans-99"/>
      <use x="212.646484" xlink:href="#DejaVuSans-107"/>
      <use x="270.556641" xlink:href="#DejaVuSans-109"/>
      <use x="367.96875" xlink:href="#DejaVuSans-97"/>
      <use x="429.248047" xlink:href="#DejaVuSans-110"/>
     </g>
    </g>
    <g id="line2d_29">
     <path d="M 105.860819 270.249 
L 129.860819 270.249 
" style="fill:none;stroke:#8c564b;stroke-linecap:square;stroke-width:1.5;"/>
    </g>
    <g id="line2d_30"/>
    <g id="text_16">
     <!-- Kaiser -->
     <defs>
      <path d="M 9.8125 72.90625 
L 19.671875 72.90625 
L 19.671875 42.09375 
L 52.390625 72.90625 
L 65.09375 72.90625 
L 28.90625 38.921875 
L 67.671875 0 
L 54.6875 0 
L 19.671875 35.109375 
L 19.671875 0 
L 9.8125 0 
z
" id="DejaVuSans-75"/>
      <path d="M 44.28125 53.078125 
L 44.28125 44.578125 
Q 40.484375 46.53125 36.375 47.5 
Q 32.28125 48.484375 27.875 48.484375 
Q 21.1875 48.484375 17.84375 46.4375 
Q 14.5 44.390625 14.5 40.28125 
Q 14.5 37.15625 16.890625 35.375 
Q 19.28125 33.59375 26.515625 31.984375 
L 29.59375 31.296875 
Q 39.15625 29.25 43.1875 25.515625 
Q 47.21875 21.78125 47.21875 15.09375 
Q 47.21875 7.46875 41.1875 3.015625 
Q 35.15625 -1.421875 24.609375 -1.421875 
Q 20.21875 -1.421875 15.453125 -0.5625 
Q 10.6875 0.296875 5.421875 2 
L 5.421875 11.28125 
Q 10.40625 8.6875 15.234375 7.390625 
Q 20.0625 6.109375 24.8125 6.109375 
Q 31.15625 6.109375 34.5625 8.28125 
Q 37.984375 10.453125 37.984375 14.40625 
Q 37.984375 18.0625 35.515625 20.015625 
Q 33.0625 21.96875 24.703125 23.78125 
L 21.578125 24.515625 
Q 13.234375 26.265625 9.515625 29.90625 
Q 5.8125 33.546875 5.8125 39.890625 
Q 5.8125 47.609375 11.28125 51.796875 
Q 16.75 56 26.8125 56 
Q 31.78125 56 36.171875 55.265625 
Q 40.578125 54.546875 44.28125 53.078125 
z
" id="DejaVuSans-115"/>
     </defs>
     <g transform="translate(139.460819 274.449)scale(0.12 -0.12)">
      <use xlink:href="#DejaVuSans-75"/>
      <use x="65.560547" xlink:href="#DejaVuSans-97"/>
      <use x="126.839844" xlink:href="#DejaVuSans-105"/>
      <use x="154.623047" xlink:href="#DejaVuSans-115"/>
      <use x="206.722656" xlink:href="#DejaVuSans-101"/>
      <use x="268.246094" xlink:href="#DejaVuSans-114"/>
     </g>
    </g>
   </g>
  </g>
  <g id="axes_2">
   <g id="patch_8">
    <path d="M 336.615961 244.078125 
L 590.252324 244.078125 
L 590.252324 22.318125 
L 336.615961 22.318125 
z
" style="fill:#ffffff;"/>
   </g>
   <g id="matplotlib.axis_3">
    <g id="xtick_7">
     <g id="line2d_31">
      <g>
       <use style="stroke:#000000;stroke-width:0.8;" x="336.615961" xlink:href="#ma3f6df2e29" y="244.078125"/>
      </g>
     </g>
     <g id="text_17">
      <!-- 0.000 -->
      <g transform="translate(322.301898 258.676563)scale(0.1 -0.1)">
       <use xlink:href="#DejaVuSans-48"/>
       <use x="63.623047" xlink:href="#DejaVuSans-46"/>
       <use x="95.410156" xlink:href="#DejaVuSans-48"/>
       <use x="159.033203" xlink:href="#DejaVuSans-48"/>
       <use x="222.65625" xlink:href="#DejaVuSans-48"/>
      </g>
     </g>
    </g>
    <g id="xtick_8">
     <g id="line2d_32">
      <g>
       <use style="stroke:#000000;stroke-width:0.8;" x="387.343233" xlink:href="#ma3f6df2e29" y="244.078125"/>
      </g>
     </g>
     <g id="text_18">
      <!-- 0.002 -->
      <g transform="translate(373.029171 258.676563)scale(0.1 -0.1)">
       <use xlink:href="#DejaVuSans-48"/>
       <use x="63.623047" xlink:href="#DejaVuSans-46"/>
       <use x="95.410156" xlink:href="#DejaVuSans-48"/>
       <use x="159.033203" xlink:href="#DejaVuSans-48"/>
       <use x="222.65625" xlink:href="#DejaVuSans-50"/>
      </g>
     </g>
    </g>
    <g id="xtick_9">
     <g id="line2d_33">
      <g>
       <use style="stroke:#000000;stroke-width:0.8;" x="438.070506" xlink:href="#ma3f6df2e29" y="244.078125"/>
      </g>
     </g>
     <g id="text_19">
      <!-- 0.004 -->
      <g transform="translate(423.756444 258.676563)scale(0.1 -0.1)">
       <use xlink:href="#DejaVuSans-48"/>
       <use x="63.623047" xlink:href="#DejaVuSans-46"/>
       <use x="95.410156" xlink:href="#DejaVuSans-48"/>
       <use x="159.033203" xlink:href="#DejaVuSans-48"/>
       <use x="222.65625" xlink:href="#DejaVuSans-52"/>
      </g>
     </g>
    </g>
    <g id="xtick_10">
     <g id="line2d_34">
      <g>
       <use style="stroke:#000000;stroke-width:0.8;" x="488.797779" xlink:href="#ma3f6df2e29" y="244.078125"/>
      </g>
     </g>
     <g id="text_20">
      <!-- 0.006 -->
      <g transform="translate(474.483716 258.676563)scale(0.1 -0.1)">
       <use xlink:href="#DejaVuSans-48"/>
       <use x="63.623047" xlink:href="#DejaVuSans-46"/>
       <use x="95.410156" xlink:href="#DejaVuSans-48"/>
       <use x="159.033203" xlink:href="#DejaVuSans-48"/>
       <use x="222.65625" xlink:href="#DejaVuSans-54"/>
      </g>
     </g>
    </g>
    <g id="xtick_11">
     <g id="line2d_35">
      <g>
       <use style="stroke:#000000;stroke-width:0.8;" x="539.525052" xlink:href="#ma3f6df2e29" y="244.078125"/>
      </g>
     </g>
     <g id="text_21">
      <!-- 0.008 -->
      <g transform="translate(525.210989 258.676563)scale(0.1 -0.1)">
       <use xlink:href="#DejaVuSans-48"/>
       <use x="63.623047" xlink:href="#DejaVuSans-46"/>
       <use x="95.410156" xlink:href="#DejaVuSans-48"/>
       <use x="159.033203" xlink:href="#DejaVuSans-48"/>
       <use x="222.65625" xlink:href="#DejaVuSans-56"/>
      </g>
     </g>
    </g>
    <g id="xtick_12">
     <g id="line2d_36">
      <g>
       <use style="stroke:#000000;stroke-width:0.8;" x="590.252324" xlink:href="#ma3f6df2e29" y="244.078125"/>
      </g>
     </g>
     <g id="text_22">
      <!-- 0.010 -->
      <g transform="translate(575.938262 258.676563)scale(0.1 -0.1)">
       <use xlink:href="#DejaVuSans-48"/>
       <use x="63.623047" xlink:href="#DejaVuSans-46"/>
       <use x="95.410156" xlink:href="#DejaVuSans-48"/>
       <use x="159.033203" xlink:href="#DejaVuSans-49"/>
       <use x="222.65625" xlink:href="#DejaVuSans-48"/>
      </g>
     </g>
    </g>
    <g id="text_23">
     <!-- Normalized Frequency -->
     <defs>
      <path d="M 5.515625 54.6875 
L 48.1875 54.6875 
L 48.1875 46.484375 
L 14.40625 7.171875 
L 48.1875 7.171875 
L 48.1875 0 
L 4.296875 0 
L 4.296875 8.203125 
L 38.09375 47.515625 
L 5.515625 47.515625 
z
" id="DejaVuSans-122"/>
      <path d="M 9.8125 72.90625 
L 51.703125 72.90625 
L 51.703125 64.59375 
L 19.671875 64.59375 
L 19.671875 43.109375 
L 48.578125 43.109375 
L 48.578125 34.8125 
L 19.671875 34.8125 
L 19.671875 0 
L 9.8125 0 
z
" id="DejaVuSans-70"/>
      <path d="M 14.796875 27.296875 
Q 14.796875 17.390625 18.875 11.75 
Q 22.953125 6.109375 30.078125 6.109375 
Q 37.203125 6.109375 41.296875 11.75 
Q 45.40625 17.390625 45.40625 27.296875 
Q 45.40625 37.203125 41.296875 42.84375 
Q 37.203125 48.484375 30.078125 48.484375 
Q 22.953125 48.484375 18.875 42.84375 
Q 14.796875 37.203125 14.796875 27.296875 
z
M 45.40625 8.203125 
Q 42.578125 3.328125 38.25 0.953125 
Q 33.9375 -1.421875 27.875 -1.421875 
Q 17.96875 -1.421875 11.734375 6.484375 
Q 5.515625 14.40625 5.515625 27.296875 
Q 5.515625 40.1875 11.734375 48.09375 
Q 17.96875 56 27.875 56 
Q 33.9375 56 38.25 53.625 
Q 42.578125 51.265625 45.40625 46.390625 
L 45.40625 54.6875 
L 54.390625 54.6875 
L 54.390625 -20.796875 
L 45.40625 -20.796875 
z
" id="DejaVuSans-113"/>
      <path d="M 32.171875 -5.078125 
Q 28.375 -14.84375 24.75 -17.8125 
Q 21.140625 -20.796875 15.09375 -20.796875 
L 7.90625 -20.796875 
L 7.90625 -13.28125 
L 13.1875 -13.28125 
Q 16.890625 -13.28125 18.9375 -11.515625 
Q 21 -9.765625 23.484375 -3.21875 
L 25.09375 0.875 
L 2.984375 54.6875 
L 12.5 54.6875 
L 29.59375 11.921875 
L 46.6875 54.6875 
L 56.203125 54.6875 
z
" id="DejaVuSans-121"/>
     </defs>
     <g transform="translate(407.105236 272.354688)scale(0.1 -0.1)">
      <use xlink:href="#DejaVuSans-78"/>
      <use x="74.804688" xlink:href="#DejaVuSans-111"/>
      <use x="135.986328" xlink:href="#DejaVuSans-114"/>
      <use x="177.083984" xlink:href="#DejaVuSans-109"/>
      <use x="274.496094" xlink:href="#DejaVuSans-97"/>
      <use x="335.775391" xlink:href="#DejaVuSans-108"/>
      <use x="363.558594" xlink:href="#DejaVuSans-105"/>
      <use x="391.341797" xlink:href="#DejaVuSans-122"/>
      <use x="443.832031" xlink:href="#DejaVuSans-101"/>
      <use x="505.355469" xlink:href="#DejaVuSans-100"/>
      <use x="568.832031" xlink:href="#DejaVuSans-32"/>
      <use x="600.619141" xlink:href="#DejaVuSans-70"/>
      <use x="658.029297" xlink:href="#DejaVuSans-114"/>
      <use x="699.111328" xlink:href="#DejaVuSans-101"/>
      <use x="760.634766" xlink:href="#DejaVuSans-113"/>
      <use x="824.111328" xlink:href="#DejaVuSans-117"/>
      <use x="887.490234" xlink:href="#DejaVuSans-101"/>
      <use x="949.013672" xlink:href="#DejaVuSans-110"/>
      <use x="1012.392578" xlink:href="#DejaVuSans-99"/>
      <use x="1067.373047" xlink:href="#DejaVuSans-121"/>
     </g>
    </g>
   </g>
   <g id="matplotlib.axis_4">
    <g id="ytick_7">
     <g id="line2d_37">
      <g>
       <use style="stroke:#000000;stroke-width:0.8;" x="336.615961" xlink:href="#m21bcaa2248" y="244.078125"/>
      </g>
     </g>
     <g id="text_24">
      <!-- −50 -->
      <defs>
       <path d="M 10.59375 35.5 
L 73.1875 35.5 
L 73.1875 27.203125 
L 10.59375 27.203125 
z
" id="DejaVuSans-8722"/>
       <path d="M 10.796875 72.90625 
L 49.515625 72.90625 
L 49.515625 64.59375 
L 19.828125 64.59375 
L 19.828125 46.734375 
Q 21.96875 47.46875 24.109375 47.828125 
Q 26.265625 48.1875 28.421875 48.1875 
Q 40.625 48.1875 47.75 41.5 
Q 54.890625 34.8125 54.890625 23.390625 
Q 54.890625 11.625 47.5625 5.09375 
Q 40.234375 -1.421875 26.90625 -1.421875 
Q 22.3125 -1.421875 17.546875 -0.640625 
Q 12.796875 0.140625 7.71875 1.703125 
L 7.71875 11.625 
Q 12.109375 9.234375 16.796875 8.0625 
Q 21.484375 6.890625 26.703125 6.890625 
Q 35.15625 6.890625 40.078125 11.328125 
Q 45.015625 15.765625 45.015625 23.390625 
Q 45.015625 31 40.078125 35.4375 
Q 35.15625 39.890625 26.703125 39.890625 
Q 22.75 39.890625 18.8125 39.015625 
Q 14.890625 38.140625 10.796875 36.28125 
z
" id="DejaVuSans-53"/>
      </defs>
      <g transform="translate(308.511273 247.877344)scale(0.1 -0.1)">
       <use xlink:href="#DejaVuSans-8722"/>
       <use x="83.789062" xlink:href="#DejaVuSans-53"/>
       <use x="147.412109" xlink:href="#DejaVuSans-48"/>
      </g>
     </g>
    </g>
    <g id="ytick_8">
     <g id="line2d_38">
      <g>
       <use style="stroke:#000000;stroke-width:0.8;" x="336.615961" xlink:href="#m21bcaa2248" y="202.236616"/>
      </g>
     </g>
     <g id="text_25">
      <!-- −40 -->
      <g transform="translate(308.511273 206.035834)scale(0.1 -0.1)">
       <use xlink:href="#DejaVuSans-8722"/>
       <use x="83.789062" xlink:href="#DejaVuSans-52"/>
       <use x="147.412109" xlink:href="#DejaVuSans-48"/>
      </g>
     </g>
    </g>
    <g id="ytick_9">
     <g id="line2d_39">
      <g>
       <use style="stroke:#000000;stroke-width:0.8;" x="336.615961" xlink:href="#m21bcaa2248" y="160.395106"/>
      </g>
     </g>
     <g id="text_26">
      <!-- −30 -->
      <defs>
       <path d="M 40.578125 39.3125 
Q 47.65625 37.796875 51.625 33 
Q 55.609375 28.21875 55.609375 21.1875 
Q 55.609375 10.40625 48.1875 4.484375 
Q 40.765625 -1.421875 27.09375 -1.421875 
Q 22.515625 -1.421875 17.65625 -0.515625 
Q 12.796875 0.390625 7.625 2.203125 
L 7.625 11.71875 
Q 11.71875 9.328125 16.59375 8.109375 
Q 21.484375 6.890625 26.8125 6.890625 
Q 36.078125 6.890625 40.9375 10.546875 
Q 45.796875 14.203125 45.796875 21.1875 
Q 45.796875 27.640625 41.28125 31.265625 
Q 36.765625 34.90625 28.71875 34.90625 
L 20.21875 34.90625 
L 20.21875 43.015625 
L 29.109375 43.015625 
Q 36.375 43.015625 40.234375 45.921875 
Q 44.09375 48.828125 44.09375 54.296875 
Q 44.09375 59.90625 40.109375 62.90625 
Q 36.140625 65.921875 28.71875 65.921875 
Q 24.65625 65.921875 20.015625 65.03125 
Q 15.375 64.15625 9.8125 62.3125 
L 9.8125 71.09375 
Q 15.4375 72.65625 20.34375 73.4375 
Q 25.25 74.21875 29.59375 74.21875 
Q 40.828125 74.21875 47.359375 69.109375 
Q 53.90625 64.015625 53.90625 55.328125 
Q 53.90625 49.265625 50.4375 45.09375 
Q 46.96875 40.921875 40.578125 39.3125 
z
" id="DejaVuSans-51"/>
      </defs>
      <g transform="translate(308.511273 164.194325)scale(0.1 -0.1)">
       <use xlink:href="#DejaVuSans-8722"/>
       <use x="83.789062" xlink:href="#DejaVuSans-51"/>
       <use x="147.412109" xlink:href="#DejaVuSans-48"/>
      </g>
     </g>
    </g>
    <g id="ytick_10">
     <g id="line2d_40">
      <g>
       <use style="stroke:#000000;stroke-width:0.8;" x="336.615961" xlink:href="#m21bcaa2248" y="118.553597"/>
      </g>
     </g>
     <g id="text_27">
      <!-- −20 -->
      <g transform="translate(308.511273 122.352815)scale(0.1 -0.1)">
       <use xlink:href="#DejaVuSans-8722"/>
       <use x="83.789062" xlink:href="#DejaVuSans-50"/>
       <use x="147.412109" xlink:href="#DejaVuSans-48"/>
      </g>
     </g>
    </g>
    <g id="ytick_11">
     <g id="line2d_41">
      <g>
       <use style="stroke:#000000;stroke-width:0.8;" x="336.615961" xlink:href="#m21bcaa2248" y="76.712087"/>
      </g>
     </g>
     <g id="text_28">
      <!-- −10 -->
      <g transform="translate(308.511273 80.511306)scale(0.1 -0.1)">
       <use xlink:href="#DejaVuSans-8722"/>
       <use x="83.789062" xlink:href="#DejaVuSans-49"/>
       <use x="147.412109" xlink:href="#DejaVuSans-48"/>
      </g>
     </g>
    </g>
    <g id="ytick_12">
     <g id="line2d_42">
      <g>
       <use style="stroke:#000000;stroke-width:0.8;" x="336.615961" xlink:href="#m21bcaa2248" y="34.870578"/>
      </g>
     </g>
     <g id="text_29">
      <!-- 0 -->
      <g transform="translate(323.253461 38.669797)scale(0.1 -0.1)">
       <use xlink:href="#DejaVuSans-48"/>
      </g>
     </g>
    </g>
    <g id="text_30">
     <!-- dB -->
     <g transform="translate(302.431586 139.802813)rotate(-90)scale(0.1 -0.1)">
      <use xlink:href="#DejaVuSans-100"/>
      <use x="63.476562" xlink:href="#DejaVuSans-66"/>
     </g>
    </g>
   </g>
   <g id="line2d_43">
    <path clip-path="url(#p6d6a10f4a3)" d="M 336.615961 34.906957 
L 339.177944 35.205654 
L 341.739928 36.113828 
L 344.301911 37.670167 
L 346.863895 39.948446 
L 349.425878 43.076612 
L 351.987862 47.279346 
L 354.549845 52.984124 
L 357.111829 61.14838 
L 359.673812 74.784152 
L 362.235795 147.799646 
L 364.797779 79.135028 
L 367.359762 68.831421 
L 369.921746 64.39955 
L 372.483729 62.750834 
L 375.045713 63.040743 
L 377.607696 65.066227 
L 380.16968 69.02607 
L 382.731663 75.729669 
L 385.293647 88.020937 
L 387.85563 147.799915 
L 390.417614 91.248954 
L 392.979597 80.006471 
L 395.541581 74.852062 
L 398.103564 72.583726 
L 400.665548 72.324545 
L 403.227531 73.853086 
L 405.789514 77.351953 
L 408.351498 83.605845 
L 410.913481 95.370579 
L 413.475465 147.800364 
L 416.037448 98.69795 
L 418.599432 86.977957 
L 421.161415 81.498125 
L 423.723399 78.952232 
L 426.285382 78.440735 
L 428.847366 79.731671 
L 431.409349 82.997772 
L 433.971333 89.004415 
L 436.533316 100.426546 
L 439.0953 147.800992 
L 441.657283 104.158705 
L 444.219267 92.084277 
L 446.78125 86.394961 
L 449.343233 83.677366 
L 451.905217 83.010136 
L 454.4672 84.151805 
L 457.029184 87.266256 
L 459.591167 93.100759 
L 462.153151 104.253159 
L 464.715134 147.801799 
L 467.277118 108.513787 
L 469.839101 96.132292 
L 472.401085 90.282527 
L 474.963068 87.439527 
L 477.525052 86.65992 
L 480.087035 87.692935 
L 482.649019 90.693917 
L 485.211002 96.392637 
L 487.772986 107.312943 
L 490.334969 147.802785 
L 492.896952 112.165647 
L 495.458936 99.49776 
L 498.020919 93.512487 
L 500.582903 90.568338 
L 503.144886 89.699497 
L 505.70687 90.645893 
L 508.268853 93.554477 
L 510.830837 99.137972 
L 513.39282 109.849063 
L 515.954804 147.803951 
L 518.516787 115.332089 
L 521.078771 102.386508 
L 523.640754 96.279847 
L 526.202738 93.248758 
L 528.764721 92.304466 
L 531.326705 93.17754 
L 533.888688 96.006632 
L 536.450671 101.487808 
L 539.012655 112.005242 
L 541.574638 147.805296 
L 544.136622 118.144491 
L 546.698605 104.923607 
L 549.260589 98.70409 
L 551.822572 95.59503 
L 554.384556 94.584138 
L 556.946539 95.392538 
L 559.508523 98.150653 
L 562.070506 103.538251 
L 564.63249 113.873507 
L 567.194473 147.806821 
L 569.756457 120.688335 
L 572.31844 107.19078 
L 574.880424 100.863751 
L 577.442407 97.682691 
L 580.00439 96.611204 
L 582.566374 97.360875 
L 585.128357 100.053952 
L 587.690341 105.354252 
L 590.252324 115.516326 
" style="fill:none;stroke:#1f77b4;stroke-dasharray:5.55,2.4;stroke-dashoffset:0;stroke-width:1.5;"/>
   </g>
   <g id="line2d_44">
    <path clip-path="url(#p6d6a10f4a3)" d="M 336.615961 34.785905 
L 339.177944 34.929938 
L 341.739928 35.363175 
L 344.301911 36.089076 
L 346.863895 37.113563 
L 349.425878 38.445272 
L 351.987862 40.095934 
L 354.549845 42.080942 
L 357.111829 44.42016 
L 359.673812 47.139088 
L 362.235795 50.270583 
L 364.797779 53.857431 
L 367.359762 57.956374 
L 369.921746 62.644675 
L 372.483729 68.031501 
L 375.045713 74.27925 
L 377.607696 81.647883 
L 380.16968 90.601689 
L 382.731663 102.131507 
L 385.293647 119.223948 
L 387.85563 183.123715 
L 390.417614 132.748297 
L 392.979597 127.334673 
L 395.541581 129.047123 
L 398.103564 135.633563 
L 400.665548 149.166177 
L 403.227531 212.807456 
L 405.789514 158.498449 
L 408.351498 153.444537 
L 410.913481 160.159541 
L 413.475465 200.954626 
L 416.037448 151.206502 
L 418.599432 138.408576 
L 421.161415 131.505663 
L 423.723399 127.680776 
L 426.285382 126.079371 
L 428.847366 126.46633 
L 431.409349 129.022485 
L 433.971333 134.58494 
L 436.533316 146.264155 
L 439.0953 212.379744 
L 441.657283 145.077896 
L 444.219267 133.554042 
L 446.78125 127.801196 
L 449.343233 124.9115 
L 451.905217 124.064967 
L 454.4672 125.063295 
L 457.029184 128.114726 
L 459.591167 134.070789 
L 462.153151 146.015838 
L 464.715134 220.921611 
L 467.277118 145.707538 
L 469.839101 134.313317 
L 472.401085 128.711763 
L 474.963068 125.960035 
L 477.525052 125.233927 
L 480.087035 126.335288 
L 482.649019 129.472758 
L 485.211002 135.495914 
L 487.772986 147.472103 
L 490.334969 227.778433 
L 492.896952 147.416228 
L 495.458936 136.028659 
L 498.020919 130.450574 
L 500.582903 127.722293 
L 503.144886 127.016603 
L 505.70687 128.134469 
L 508.268853 131.283845 
L 510.830837 137.312405 
L 513.39282 149.277173 
L 515.954804 233.518636 
L 518.516787 149.315971 
L 521.078771 137.910808 
L 523.640754 132.326776 
L 526.202738 129.594213 
L 528.764721 128.88394 
L 531.326705 129.996196 
L 533.888688 133.138321 
L 536.450671 139.156586 
L 539.012655 151.101114 
L 541.574638 238.460719 
L 544.136622 151.179369 
L 546.698605 139.752398 
L 549.260589 134.154914 
L 551.822572 131.410593 
L 554.384556 130.688892 
L 556.946539 131.789504 
L 559.508523 134.919289 
L 562.070506 140.92348 
L 564.63249 152.847243 
L 567.194473 242.802383 
L 569.756457 152.942042 
L 572.31844 141.494128 
L 574.880424 135.881949 
L 577.442407 133.124386 
L 580.00439 132.389896 
L 582.566374 133.477757 
L 585.128357 136.594458 
L 587.690341 142.584433 
L 590.252324 154.489108 
" style="fill:none;stroke:#ff7f0e;stroke-linecap:square;stroke-width:1.5;"/>
   </g>
   <g id="line2d_45">
    <path clip-path="url(#p6d6a10f4a3)" d="M 336.615961 34.931855 
L 339.177944 35.04889 
L 341.739928 35.400894 
L 344.301911 35.990608 
L 346.863895 36.822729 
L 349.425878 37.904127 
L 351.987862 39.244174 
L 354.549845 40.85523 
L 357.111829 42.753349 
L 359.673812 44.959314 
L 362.235795 47.500166 
L 364.797779 50.411544 
L 367.359762 53.741391 
L 369.921746 57.556094 
L 372.483729 61.951323 
L 375.045713 67.07266 
L 377.607696 73.159236 
L 380.16968 80.650532 
L 382.731663 90.514092 
L 385.293647 105.770634 
L 387.85563 180.353298 
L 390.417614 113.154597 
L 392.979597 104.276482 
L 395.541581 101.215849 
L 398.103564 100.888846 
L 400.665548 102.455403 
L 403.227531 105.717152 
L 405.789514 110.878885 
L 408.351498 118.761516 
L 410.913481 132.253977 
L 413.475465 198.184208 
L 416.037448 137.249623 
L 418.599432 127.126644 
L 421.161415 123.000618 
L 423.723399 121.720986 
L 426.285382 122.423114 
L 428.847366 124.892592 
L 431.409349 129.320457 
L 433.971333 136.510419 
L 436.533316 149.302186 
L 439.0953 209.609327 
L 441.657283 153.557916 
L 444.219267 142.840102 
L 446.78125 138.214301 
L 449.343233 136.477624 
L 451.905217 136.752658 
L 454.4672 138.818296 
L 457.029184 142.859296 
L 459.591167 149.668306 
L 462.153151 162.041575 
L 464.715134 218.151194 
L 467.277118 166.043575 
L 469.839101 154.940583 
L 472.401085 150.008055 
L 474.963068 147.991746 
L 477.525052 148.003095 
L 480.087035 149.815779 
L 482.649019 153.609597 
L 485.211002 160.167366 
L 487.772986 172.243698 
L 490.334969 225.008015 
L 492.896952 176.208978 
L 495.458936 164.817012 
L 498.020919 159.669 
L 500.582903 157.45879 
L 503.144886 157.287019 
L 505.70687 158.922558 
L 508.268853 162.540644 
L 510.830837 168.914709 
L 513.39282 180.758843 
L 515.954804 230.748219 
L 518.516787 184.804769 
L 521.078771 173.176115 
L 523.640754 167.863434 
L 526.202738 165.507731 
L 528.764721 165.198897 
L 531.326705 166.701131 
L 533.888688 170.185272 
L 536.450671 176.415607 
L 539.012655 188.066604 
L 541.574638 235.690302 
L 544.136622 192.264405 
L 546.698605 180.430465 
L 549.260589 174.98442 
L 551.822572 172.513365 
L 554.384556 172.09639 
L 556.946539 173.493074 
L 559.508523 176.869941 
L 562.070506 182.98229 
L 564.63249 194.465795 
L 567.194473 240.031966 
L 569.756457 198.862233 
L 572.31844 186.843116 
L 574.880424 181.284376 
L 577.442407 178.718045 
L 580.00439 178.212325 
L 582.566374 179.522188 
L 585.128357 182.809892 
L 587.690341 188.821877 
L 590.252324 200.155793 
" style="fill:none;stroke:#2ca02c;stroke-linecap:square;stroke-width:1.5;"/>
   </g>
   <g id="line2d_46">
    <path clip-path="url(#p6d6a10f4a3)" d="M 336.615961 34.931873 
L 339.177944 35.081152 
L 341.739928 35.530467 
L 344.301911 36.284333 
L 346.863895 37.350515 
L 349.425878 38.740421 
L 351.987862 40.46972 
L 354.549845 42.55924 
L 357.111829 45.036299 
L 359.673812 47.936657 
L 362.235795 51.307427 
L 364.797779 55.211576 
L 367.359762 59.735081 
L 369.921746 64.998916 
L 372.483729 71.180298 
L 375.045713 78.553431 
L 377.607696 87.57604 
L 380.16968 99.102027 
L 382.731663 115.035745 
L 385.293647 141.382893 
L 385.911489 289.944625 
M 389.815945 289.944625 
L 390.417614 146.465651 
L 392.979597 123.033032 
L 395.541581 110.536937 
L 398.103564 102.626838 
L 400.665548 97.34724 
L 403.227531 93.844367 
L 405.789514 91.678265 
L 408.351498 90.602938 
L 410.913481 90.47897 
L 413.475465 91.234613 
L 416.037448 92.848526 
L 418.599432 95.344677 
L 421.161415 98.796914 
L 423.723399 103.345404 
L 426.285382 109.233845 
L 428.847366 116.892634 
L 431.409349 127.146093 
L 433.971333 141.849978 
L 436.533316 166.836568 
L 437.074748 289.944625 
M 441.132332 289.944625 
L 441.657283 171.549636 
L 444.219267 146.896498 
L 446.78125 133.506171 
L 449.343233 124.815596 
L 451.905217 118.825092 
L 454.4672 114.663802 
L 457.029184 111.882593 
L 459.591167 110.22943 
L 462.153151 109.56039 
L 464.715134 109.800065 
L 467.277118 110.923945 
L 469.839101 112.95308 
L 472.401085 115.958419 
L 474.963068 120.076946 
L 477.525052 125.548305 
L 480.087035 132.796627 
L 482.649019 142.633889 
L 485.211002 156.882574 
L 487.772986 181.225066 
L 488.218264 289.944625 
M 492.470679 289.944625 
L 492.896952 186.791766 
L 495.458936 161.421579 
L 498.020919 147.619203 
L 500.582903 138.594707 
L 503.144886 132.306216 
L 505.70687 127.86886 
L 508.268853 124.82726 
L 510.830837 122.925991 
L 513.39282 122.018971 
L 515.954804 122.029217 
L 518.516787 122.930899 
L 521.078771 124.743793 
L 523.640754 127.537428 
L 526.202738 131.446933 
L 528.764721 136.709129 
L 531.326705 143.74307 
L 533.888688 153.349731 
L 536.450671 167.320723 
L 539.012655 191.200371 
L 539.477266 289.944625 
M 543.69829 289.944625 
L 544.136622 197.938242 
L 546.698605 171.961314 
L 549.260589 157.874847 
L 551.822572 148.640933 
L 554.384556 142.173648 
L 556.946539 137.573977 
L 559.508523 134.380491 
L 562.070506 132.334644 
L 564.63249 131.28848 
L 567.194473 131.163713 
L 569.756457 131.933456 
L 572.31844 133.616463 
L 574.880424 136.281083 
L 577.442407 140.060831 
L 580.00439 145.189955 
L 582.566374 152.082755 
L 585.128357 161.529757 
L 587.690341 175.293306 
L 590.252324 198.789825 
" style="fill:none;stroke:#d62728;stroke-linecap:square;stroke-width:1.5;"/>
   </g>
   <g id="line2d_47">
    <path clip-path="url(#p6d6a10f4a3)" d="M 336.615961 34.962011 
L 339.177944 35.053092 
L 341.739928 35.326676 
L 344.301911 35.783793 
L 346.863895 36.42618 
L 349.425878 37.256316 
L 351.987862 38.277473 
L 354.549845 39.493778 
L 357.111829 40.910309 
L 359.673812 42.533201 
L 362.235795 44.369798 
L 364.797779 46.428838 
L 367.359762 48.720691 
L 369.921746 51.257669 
L 372.483729 54.054424 
L 375.045713 57.128479 
L 377.607696 60.500932 
L 380.16968 64.19741 
L 382.731663 68.249396 
L 385.293647 72.696108 
L 387.85563 77.587242 
L 390.417614 82.987093 
L 392.979597 88.981015 
L 395.541581 95.686014 
L 398.103564 103.269163 
L 400.665548 111.98209 
L 403.227531 122.232177 
L 405.789514 134.751137 
L 408.351498 151.086668 
L 410.913481 175.697285 
L 413.475465 261.799779 
L 416.037448 208.608944 
L 418.599432 177.960934 
L 421.161415 165.656488 
L 423.723399 159.494046 
L 426.285382 156.843416 
L 428.847366 156.832469 
L 431.409349 159.336522 
L 433.971333 164.984398 
L 436.533316 176.509431 
L 439.0953 235.756065 
L 441.657283 178.803165 
L 444.219267 167.309369 
L 446.78125 162.008558 
L 449.343233 159.679412 
L 451.905217 159.430379 
L 454.4672 161.029303 
L 457.029184 164.65217 
L 459.591167 171.08457 
L 462.153151 183.117009 
L 464.715134 238.916843 
L 467.277118 186.526555 
L 469.839101 175.164714 
L 472.401085 169.994373 
L 474.963068 167.758922 
L 477.525052 167.56777 
L 480.087035 169.192849 
L 482.649019 172.812444 
L 485.211002 179.208058 
L 487.772986 191.13315 
L 490.334969 243.756132 
L 492.896952 194.824772 
L 495.458936 183.308706 
L 498.020919 178.044117 
L 500.582903 175.724227 
L 503.144886 175.449115 
L 505.70687 176.987148 
L 508.268853 180.513115 
L 510.830837 186.80004 
L 513.39282 198.561646 
L 515.954804 248.472772 
L 518.516787 202.455049 
L 521.078771 190.755823 
L 523.640754 185.376018 
L 526.202738 182.956413 
L 528.764721 182.586686 
L 531.326705 184.030844 
L 533.888688 187.45955 
L 536.450671 193.636926 
L 539.012655 205.237292 
L 541.574638 252.812546 
L 544.136622 209.340266 
L 546.698605 197.461884 
L 549.260589 191.973228 
L 551.822572 189.461291 
L 554.384556 189.005068 
L 556.946539 190.364049 
L 559.508523 193.704678 
L 562.070506 199.782175 
L 564.63249 211.232142 
L 567.194473 256.766023 
L 569.756457 215.565185 
L 572.31844 203.51609 
L 574.880424 197.928443 
L 577.442407 195.334225 
L 580.00439 194.80159 
L 582.566374 196.085461 
L 585.128357 199.348058 
L 587.690341 205.335778 
L 590.252324 216.646233 
" style="fill:none;stroke:#9467bd;stroke-linecap:square;stroke-width:1.5;"/>
   </g>
   <g id="line2d_48">
    <path clip-path="url(#p6d6a10f4a3)" d="M 336.615961 34.853048 
L 339.177944 35.02128 
L 341.739928 35.528089 
L 344.301911 36.379957 
L 346.863895 37.588175 
L 349.425878 39.169661 
L 351.987862 41.1483 
L 354.549845 43.557074 
L 357.111829 46.441472 
L 359.673812 49.865153 
L 362.235795 53.919791 
L 364.797779 58.743513 
L 367.359762 64.558852 
L 369.921746 71.762391 
L 372.483729 81.185027 
L 375.045713 95.179236 
L 377.607696 130.609892 
L 380.16968 110.382795 
L 382.731663 100.204218 
L 385.293647 97.619058 
L 387.85563 98.624742 
L 390.417614 102.581732 
L 392.979597 110.282008 
L 395.541581 126.303709 
L 398.103564 145.078852 
L 400.665548 118.957269 
L 403.227531 110.988537 
L 405.789514 107.747952 
L 408.351498 107.255362 
L 410.913481 109.034258 
L 413.475465 113.303867 
L 416.037448 121.318296 
L 418.599432 139.02062 
L 421.161415 147.309649 
L 423.723399 125.739469 
L 426.285382 117.940354 
L 428.847366 114.381321 
L 431.409349 113.355505 
L 433.971333 114.403997 
L 436.533316 117.63014 
L 439.0953 123.832919 
L 441.657283 136.051861 
L 444.219267 217.15984 
L 446.78125 136.645938 
L 449.343233 125.640899 
L 451.905217 120.496236 
L 454.4672 118.263961 
L 457.029184 118.143959 
L 459.591167 119.995754 
L 462.153151 124.171473 
L 464.715134 131.986685 
L 467.277118 149.405244 
L 469.839101 157.451575 
L 472.401085 135.485301 
L 474.963068 127.272773 
L 477.525052 123.252002 
L 480.087035 121.695973 
L 482.649019 122.105736 
L 485.211002 124.491955 
L 487.772986 129.38765 
L 490.334969 138.639061 
L 492.896952 163.204077 
L 495.458936 151.863884 
L 498.020919 136.081505 
L 500.582903 129.194764 
L 503.144886 125.807641 
L 505.70687 124.672689 
L 508.268853 125.441402 
L 510.830837 128.220989 
L 513.39282 133.695506 
L 515.954804 144.258054 
L 518.516787 180.607158 
L 521.078771 150.285502 
L 523.640754 137.198734 
L 526.202738 131.093666 
L 528.764721 128.117739 
L 531.326705 127.274267 
L 533.888688 128.306379 
L 536.450671 131.391986 
L 539.012655 137.347144 
L 541.574638 149.122274 
L 544.136622 228.712721 
L 546.698605 150.031329 
L 549.260589 138.475119 
L 551.822572 132.888168 
L 554.384556 130.202479 
L 556.946539 129.574456 
L 559.508523 130.809813 
L 562.070506 134.142108 
L 564.63249 140.504982 
L 567.194473 153.410917 
L 569.756457 193.555702 
L 572.31844 150.343294 
L 574.880424 139.778731 
L 577.442407 134.56154 
L 580.00439 132.092515 
L 582.566374 131.631029 
L 585.128357 133.028783 
L 587.690341 136.565022 
L 590.252324 143.279199 
" style="fill:none;stroke:#8c564b;stroke-linecap:square;stroke-width:1.5;"/>
   </g>
   <g id="patch_9">
    <path d="M 336.615961 244.078125 
L 336.615961 22.318125 
" style="fill:none;stroke:#000000;stroke-linecap:square;stroke-linejoin:miter;stroke-width:0.8;"/>
   </g>
   <g id="patch_10">
    <path d="M 590.252324 244.078125 
L 590.252324 22.318125 
" style="fill:none;stroke:#000000;stroke-linecap:square;stroke-linejoin:miter;stroke-width:0.8;"/>
   </g>
   <g id="patch_11">
    <path d="M 336.615961 244.078125 
L 590.252324 244.078125 
" style="fill:none;stroke:#000000;stroke-linecap:square;stroke-linejoin:miter;stroke-width:0.8;"/>
   </g>
   <g id="patch_12">
    <path d="M 336.615961 22.318125 
L 590.252324 22.318125 
" style="fill:none;stroke:#000000;stroke-linecap:square;stroke-linejoin:miter;stroke-width:0.8;"/>
   </g>
   <g id="text_31">
    <!-- Frequency Domain -->
    <g transform="translate(406.688205 16.318125)scale(0.12 -0.12)">
     <use xlink:href="#DejaVuSans-70"/>
     <use x="57.410156" xlink:href="#DejaVuSans-114"/>
     <use x="98.492188" xlink:href="#DejaVuSans-101"/>
     <use x="160.015625" xlink:href="#DejaVuSans-113"/>
     <use x="223.492188" xlink:href="#DejaVuSans-117"/>
     <use x="286.871094" xlink:href="#DejaVuSans-101"/>
     <use x="348.394531" xlink:href="#DejaVuSans-110"/>
     <use x="411.773438" xlink:href="#DejaVuSans-99"/>
     <use x="466.753906" xlink:href="#DejaVuSans-121"/>
     <use x="525.933594" xlink:href="#DejaVuSans-32"/>
     <use x="557.720703" xlink:href="#DejaVuSans-68"/>
     <use x="634.722656" xlink:href="#DejaVuSans-111"/>
     <use x="695.904297" xlink:href="#DejaVuSans-109"/>
     <use x="793.316406" xlink:href="#DejaVuSans-97"/>
     <use x="854.595703" xlink:href="#DejaVuSans-105"/>
     <use x="882.378906" xlink:href="#DejaVuSans-110"/>
    </g>
   </g>
  </g>
 </g>
 <defs>
  <clipPath id="p655e4578d9">
   <rect height="221.76" width="253.636364" x="32.252324" y="22.318125"/>
  </clipPath>
  <clipPath id="p6d6a10f4a3">
   <rect height="221.76" width="253.636364" x="336.615961" y="22.318125"/>
  </clipPath>
 </defs>
</svg>
