<?xml version="1.0" encoding="UTF-8" standalone="no"?>
<svg
   xmlns:dc="http://purl.org/dc/elements/1.1/"
   xmlns:cc="http://creativecommons.org/ns#"
   xmlns:rdf="http://www.w3.org/1999/02/22-rdf-syntax-ns#"
   xmlns:svg="http://www.w3.org/2000/svg"
   xmlns="http://www.w3.org/2000/svg"
   xmlns:sodipodi="http://sodipodi.sourceforge.net/DTD/sodipodi-0.dtd"
   xmlns:inkscape="http://www.inkscape.org/namespaces/inkscape"
   width="691.20001"
   height="357.60001"
   overflow="hidden"
   version="1.1"
   id="svg61"
   sodipodi:docname="adaptive_mcs2.svg"
   style="overflow:hidden"
   inkscape:version="0.92.5 (2060ec1f9f, 2020-04-08)">
  <metadata
     id="metadata65">
    <rdf:RDF>
      <cc:Work
         rdf:about="">
        <dc:format>image/svg+xml</dc:format>
        <dc:type
           rdf:resource="http://purl.org/dc/dcmitype/StillImage" />
      </cc:Work>
    </rdf:RDF>
  </metadata>
  <sodipodi:namedview
     pagecolor="#ffffff"
     bordercolor="#666666"
     borderopacity="1"
     objecttolerance="10"
     gridtolerance="10"
     guidetolerance="10"
     inkscape:pageopacity="0"
     inkscape:pageshadow="2"
     inkscape:window-width="1861"
     inkscape:window-height="1121"
     id="namedview63"
     showgrid="false"
     inkscape:zoom="0.60243056"
     inkscape:cx="345.6"
     inkscape:cy="178.8"
     inkscape:window-x="72"
     inkscape:window-y="27"
     inkscape:window-maximized="0"
     inkscape:current-layer="svg61" />
  <defs
     id="defs5">
    <clipPath
       id="clip0">
      <rect
         x="0"
         y="0"
         width="576"
         height="298"
         id="rect2" />
    </clipPath>
  </defs>
  <g
     id="g4602"
     transform="scale(1.2)">
    <g
       id="g59"
       clip-path="url(#clip0)">
      <rect
         id="rect7"
         height="298.33401"
         width="576"
         y="0"
         x="0"
         style="fill:#ffffff" />
      <text
         id="text11"
         transform="matrix(1,0,0,1.00112,35.2239,35)"
         font-size="21"
         font-weight="400"
         style="font-weight:400;font-size:21px;font-family:'Times New Roman', 'Times New Roman_MSFontService', sans-serif">Throughpu<tspan
   id="tspan9"
   y="0"
   x="94.833298"
   font-size="21"
   style="font-size:21px">t</tspan>
</text>
      <path
         id="path13"
         transform="matrix(1,0,0,-1.00112,22.5001,227.16)"
         d="M 1.5,-7.48459e-7 1.5001,207.437 h -3 L -1.5,7.48459e-7 Z M 6.54577,199.192 1.04635e-4,210.413 -6.54557,199.192 c -0.41742,-0.716 -0.17572,-1.634 0.53986,-2.052 0.71558,-0.417 1.63406,-0.175 2.05148,0.54 l 5.25,9 h -2.59134 l 5.25,-9 c 0.41742,-0.715 1.3359,-0.957 2.05147,-0.54 0.71558,0.418 0.95729,1.336 0.53987,2.052 z"
         inkscape:connector-curvature="0" />
      <text
         id="text23"
         transform="matrix(1,0,0,1.00112,511.013,233)"
         font-size="21"
         font-weight="400"
         style="font-weight:400;font-size:21px;font-family:'Times New Roman', 'Times New Roman_MSFontService', sans-serif">SNR<tspan
   id="tspan15"
   y="28.9676"
   x="-458.01901"
   font-size="21"
   style="font-size:21px;fill:#ff0000">QPSK</tspan>
<tspan
   id="tspan17"
   y="29.9664"
   x="-339.12701"
   font-size="21"
   style="font-size:21px;fill:#ffc000">8PSK</tspan>
<tspan
   id="tspan19"
   y="29.9664"
   x="-235.588"
   font-size="21"
   style="font-size:21px;fill:#92d050">16QAM</tspan>
<tspan
   id="tspan21"
   y="29.9664"
   x="-117.974"
   font-size="21"
   style="font-size:21px;fill:#00b050">64QAM</tspan>
</text>
      <path
         id="path25"
         d="m 36,234.262 h 85.384 v 4.005 H 36 Z m 2,8.009 -12,-6.007 12,-6.006 z m 81.384,-12.013 12,6.006 -12,6.007 z"
         inkscape:connector-curvature="0"
         style="fill:#a6a6a6" />
      <path
         id="path27"
         d="m 152,234.262 h 85.384 v 4.005 H 152 Z m 2,8.009 -12,-6.007 12,-6.006 z m 81.384,-12.013 12,6.006 -12,6.007 z"
         inkscape:connector-curvature="0"
         style="fill:#a6a6a6" />
      <path
         id="path29"
         d="m 268,234.262 h 85.384 v 4.005 H 268 Z m 2,8.009 -12,-6.007 12,-6.006 z m 81.384,-12.013 12,6.006 -12,6.007 z"
         inkscape:connector-curvature="0"
         style="fill:#a6a6a6" />
      <path
         id="path31"
         d="m 384,234.262 h 85.384 v 4.005 H 384 Z m 2,8.009 -12,-6.007 12,-6.006 z m 81.384,-12.013 12,6.006 -12,6.007 z"
         inkscape:connector-curvature="0"
         style="fill:#a6a6a6" />
      <text
         id="text33"
         transform="matrix(1,0,0,1.00112,151.281,292)"
         font-size="21"
         font-weight="400"
         style="font-weight:400;font-size:21px;font-family:'Times New Roman', 'Times New Roman_MSFontService', sans-serif;fill:#969696">Modulation Scheme Used</text>
      <path
         id="path35"
         stroke-miterlimit="8"
         d="M 23.5001,224.751 C 42.1086,209.13 60.7172,193.509 98.0506,185.166 135.384,176.824 218.005,175.632 247.5,174.695"
         inkscape:connector-curvature="0"
         style="fill:none;fill-rule:evenodd;stroke:#ff0000;stroke-width:1.33333004;stroke-miterlimit:8" />
      <path
         id="path37"
         stroke-miterlimit="8"
         d="M 135.5,61.5689 V 227.047"
         inkscape:connector-curvature="0"
         style="fill:none;fill-rule:evenodd;stroke:#a6a6a6;stroke-width:0.66666698;stroke-miterlimit:8;stroke-dasharray:2.66667, 2" />
      <path
         id="path39"
         stroke-miterlimit="8"
         d="M 254.5,60.5678 V 226.046"
         inkscape:connector-curvature="0"
         style="fill:none;fill-rule:evenodd;stroke:#a6a6a6;stroke-width:0.66666698;stroke-miterlimit:8;stroke-dasharray:2.66667, 2" />
      <path
         id="path41"
         stroke-miterlimit="8"
         d="M 370.5,60.5678 V 226.046"
         inkscape:connector-curvature="0"
         style="fill:none;fill-rule:evenodd;stroke:#a6a6a6;stroke-width:0.66666698;stroke-miterlimit:8;stroke-dasharray:2.66667, 2" />
      <path
         id="path43"
         stroke-miterlimit="8"
         d="M 98.5001,224.751 C 116.776,198.195 135.053,171.639 171.719,157.457 208.386,143.274 289.532,141.248 318.5,139.656"
         inkscape:connector-curvature="0"
         style="fill:none;fill-rule:evenodd;stroke:#ffc000;stroke-width:1.33333004;stroke-miterlimit:8" />
      <path
         id="path45"
         stroke-miterlimit="8"
         d="m 206.5,225.753 c 18.193,-40.303 36.386,-80.606 72.887,-102.13 36.5,-21.524 117.276,-24.5989 146.113,-27.0149"
         inkscape:connector-curvature="0"
         style="fill:none;fill-rule:evenodd;stroke:#92d050;stroke-width:1.33333004;stroke-miterlimit:8" />
      <path
         id="path47"
         stroke-miterlimit="8"
         d="M 333.5,225.753 C 345.878,168.891 358.256,112.03 383.089,81.6629 407.923,51.2955 462.881,46.9573 482.5,43.5488"
         inkscape:connector-curvature="0"
         style="fill:none;fill-rule:evenodd;stroke:#00b050;stroke-width:1.33333004;stroke-miterlimit:8" />
      <path
         id="path49"
         d="m 21.5033,224.251 477.7877,1.049 -0.006,3.003 -477.7882,-1.049 z m 469.5567,-4.021 11.206,6.578 -11.235,6.528 c -0.717,0.417 -1.635,0.173 -2.05,-0.545 -0.416,-0.717 -0.172,-1.636 0.544,-2.052 l 9.011,-5.236 -0.005,2.594 -8.989,-5.276 c -0.714,-0.419 -0.954,-1.339 -0.535,-2.055 0.419,-0.715 1.338,-0.955 2.053,-0.536 z"
         inkscape:connector-curvature="0" />
      <text
         id="text57"
         transform="matrix(1,0,0,1.00112,485.457,49)"
         font-size="16"
         font-weight="400"
         style="font-weight:400;font-size:16px;font-family:'Times New Roman', 'Times New Roman_MSFontService', sans-serif;fill:#00b050">64QAM<tspan
   id="tspan51"
   y="52.940701"
   x="-59.549099"
   font-size="16"
   style="font-size:16px;fill:#92d050">16QAM</tspan>
<tspan
   id="tspan53"
   y="93.894897"
   x="-166.657"
   font-size="16"
   style="font-size:16px;fill:#ffc000">8PSK</tspan>
<tspan
   id="tspan55"
   y="128.856"
   x="-236.466"
   font-size="16"
   style="font-size:16px;fill:#ff0000">QPSK</tspan>
</text>
    </g>
  </g>
</svg>
