<svg width="1280" height="240" xmlns="http://www.w3.org/2000/svg" xmlns:xlink="http://www.w3.org/1999/xlink" overflow="hidden"><defs><clipPath id="clip0"><rect x="0" y="0" width="1280" height="240"/></clipPath></defs><g clip-path="url(#clip0)"><rect x="0" y="0" width="1280" height="240" fill="#FFFFFF"/><path d="M106.991 64.1919 147.42 64.1919 147.42 103.125 106.991 103.125Z" fill="#A5A5A5" fill-rule="evenodd"/><path d="M147.42 64.1919 187.848 64.1919 187.848 103.125 147.42 103.125Z" fill="#A5A5A5" fill-rule="evenodd"/><path d="M187.848 64.1919 228.277 64.1919 228.277 103.125 187.848 103.125Z" fill="#A5A5A5" fill-rule="evenodd"/><path d="M228.277 64.1919 268.706 64.1919 268.706 103.125 228.277 103.125Z" fill="#A5A5A5" fill-rule="evenodd"/><path d="M268.706 64.1919 309.135 64.1919 309.135 103.125 268.706 103.125Z" fill="#A5A5A5" fill-rule="evenodd"/><path d="M309.135 64.1919 349.564 64.1919 349.564 103.125 309.135 103.125Z" fill="#A5A5A5" fill-rule="evenodd"/><path d="M349.564 64.1919 389.993 64.1919 389.993 103.125 349.564 103.125Z" fill="#A5A5A5" fill-rule="evenodd"/><path d="M389.993 64.1919 430.422 64.1919 430.422 103.125 389.993 103.125Z" fill="#A5A5A5" fill-rule="evenodd"/><path d="M430.422 64.1919 470.85 64.1919 470.85 103.125 430.422 103.125Z" fill="#A5A5A5" fill-rule="evenodd"/><path d="M470.85 64.1919 511.279 64.1919 511.279 103.125 470.85 103.125Z" fill="#A5A5A5" fill-rule="evenodd"/><path d="M147.42 63.5252 147.42 105.125" stroke="#FFFFFF" stroke-width="1.33333" stroke-linejoin="round" stroke-miterlimit="10" fill="none" fill-rule="evenodd"/><path d="M187.848 63.5252 187.848 105.125" stroke="#FFFFFF" stroke-width="1.33333" stroke-linejoin="round" stroke-miterlimit="10" fill="none" fill-rule="evenodd"/><path d="M228.277 63.5252 228.277 105.125" stroke="#FFFFFF" stroke-width="1.33333" stroke-linejoin="round" stroke-miterlimit="10" fill="none" fill-rule="evenodd"/><path d="M268.706 63.5252 268.706 105.125" stroke="#FFFFFF" stroke-width="1.33333" stroke-linejoin="round" stroke-miterlimit="10" fill="none" fill-rule="evenodd"/><path d="M309.135 63.5252 309.135 105.125" stroke="#FFFFFF" stroke-width="1.33333" stroke-linejoin="round" stroke-miterlimit="10" fill="none" fill-rule="evenodd"/><path d="M349.564 63.5252 349.564 105.125" stroke="#FFFFFF" stroke-width="1.33333" stroke-linejoin="round" stroke-miterlimit="10" fill="none" fill-rule="evenodd"/><path d="M389.993 63.5252 389.993 105.125" stroke="#FFFFFF" stroke-width="1.33333" stroke-linejoin="round" stroke-miterlimit="10" fill="none" fill-rule="evenodd"/><path d="M430.422 63.5252 430.422 105.125" stroke="#FFFFFF" stroke-width="1.33333" stroke-linejoin="round" stroke-miterlimit="10" fill="none" fill-rule="evenodd"/><path d="M470.85 63.5252 470.85 105.125" stroke="#FFFFFF" stroke-width="1.33333" stroke-linejoin="round" stroke-miterlimit="10" fill="none" fill-rule="evenodd"/><path d="M106.991 63.5252 106.991 105.125" stroke="#FFFFFF" stroke-width="1.33333" stroke-linejoin="round" stroke-miterlimit="10" fill="none" fill-rule="evenodd"/><path d="M511.279 63.5252 511.279 105.125" stroke="#FFFFFF" stroke-width="1.33333" stroke-linejoin="round" stroke-miterlimit="10" fill="none" fill-rule="evenodd"/><path d="M106.324 64.1919 511.946 64.1919" stroke="#FFFFFF" stroke-width="1.33333" stroke-linejoin="round" stroke-miterlimit="10" fill="none" fill-rule="evenodd"/><path d="M106.324 103.125 511.946 103.125" stroke="#FFFFFF" stroke-width="4" stroke-linejoin="round" stroke-miterlimit="10" fill="none" fill-rule="evenodd"/><text font-family="Times New Roman,Times New Roman_MSFontService,sans-serif" font-weight="400" font-size="24" transform="translate(25.4183 127)">Sample:<tspan x="450.638" y="1">N</tspan>-1<tspan x="96.062" y="3">0</tspan><tspan x="132.625" y="3">1</tspan><tspan x="175.827" y="4">2</tspan><tspan x="244.917" y="-2">…</tspan><tspan x="215.673" y="4">3</tspan><tspan x="231.51" y="-79">Input Vector</tspan></text><path d="M256.928 50.9255 286.678 50.9255 316.428 50.9255 346.178 50.9255 375.928 50.9255 375.928 51.9255 346.178 51.9255 316.428 51.9255 286.678 51.9255 256.928 51.9255Z" fill-rule="evenodd"/><path d="M537.5 77.75 579 77.75 579 71.5001 591.5 84.0001 579 96.5001 579 90.2501 537.5 90.2501Z" stroke="#2F528F" stroke-width="1.33333" stroke-miterlimit="8" fill="#4472C4" fill-rule="evenodd"/><path d="M748.5 78.0001 789.5 78.0001 789.5 71.5001 802.5 84.5001 789.5 97.5001 789.5 91.0001 748.5 91.0001Z" stroke="#2F528F" stroke-width="1.33333" stroke-miterlimit="8" fill="#4472C4" fill-rule="evenodd"/><rect x="608.5" y="48.5001" width="123" height="72" stroke="#2F528F" stroke-width="1.33333" stroke-miterlimit="8" fill="#4472C4"/><text fill="#FFFFFF" font-family="Times New Roman,Times New Roman_MSFontService,sans-serif" font-weight="400" font-size="43" transform="translate(632.882 100)">FFT</text><path d="M845.235 68.2553 885.664 68.2553 885.664 107.189 845.235 107.189Z" fill="#A5A5A5" fill-rule="evenodd"/><path d="M885.664 68.2553 926.093 68.2553 926.093 107.189 885.664 107.189Z" fill="#A5A5A5" fill-rule="evenodd"/><path d="M926.093 68.2553 966.522 68.2553 966.522 107.189 926.093 107.189Z" fill="#A5A5A5" fill-rule="evenodd"/><path d="M966.522 68.2553 1006.95 68.2553 1006.95 107.189 966.522 107.189Z" fill="#A5A5A5" fill-rule="evenodd"/><path d="M1006.95 68.2553 1047.38 68.2553 1047.38 107.189 1006.95 107.189Z" fill="#A5A5A5" fill-rule="evenodd"/><path d="M1047.38 68.2553 1087.81 68.2553 1087.81 107.189 1047.38 107.189Z" fill="#A5A5A5" fill-rule="evenodd"/><path d="M1087.81 68.2553 1128.24 68.2553 1128.24 107.189 1087.81 107.189Z" fill="#A5A5A5" fill-rule="evenodd"/><path d="M1128.24 68.2553 1168.67 68.2553 1168.67 107.189 1128.24 107.189Z" fill="#A5A5A5" fill-rule="evenodd"/><path d="M1168.67 68.2553 1209.1 68.2553 1209.1 107.189 1168.67 107.189Z" fill="#A5A5A5" fill-rule="evenodd"/><path d="M1209.1 68.2553 1249.52 68.2553 1249.52 107.189 1209.1 107.189Z" fill="#A5A5A5" fill-rule="evenodd"/><path d="M885.664 67.5887 885.664 109.189" stroke="#FFFFFF" stroke-width="1.33333" stroke-linejoin="round" stroke-miterlimit="10" fill="none" fill-rule="evenodd"/><path d="M926.093 67.5887 926.093 109.189" stroke="#FFFFFF" stroke-width="1.33333" stroke-linejoin="round" stroke-miterlimit="10" fill="none" fill-rule="evenodd"/><path d="M966.522 67.5887 966.522 109.189" stroke="#FFFFFF" stroke-width="1.33333" stroke-linejoin="round" stroke-miterlimit="10" fill="none" fill-rule="evenodd"/><path d="M1006.95 67.5887 1006.95 109.189" stroke="#FFFFFF" stroke-width="1.33333" stroke-linejoin="round" stroke-miterlimit="10" fill="none" fill-rule="evenodd"/><path d="M1047.38 67.5887 1047.38 109.189" stroke="#FFFFFF" stroke-width="1.33333" stroke-linejoin="round" stroke-miterlimit="10" fill="none" fill-rule="evenodd"/><path d="M1087.81 67.5887 1087.81 109.189" stroke="#FFFFFF" stroke-width="1.33333" stroke-linejoin="round" stroke-miterlimit="10" fill="none" fill-rule="evenodd"/><path d="M1128.24 67.5887 1128.24 109.189" stroke="#FFFFFF" stroke-width="1.33333" stroke-linejoin="round" stroke-miterlimit="10" fill="none" fill-rule="evenodd"/><path d="M1168.67 67.5887 1168.67 109.189" stroke="#FFFFFF" stroke-width="1.33333" stroke-linejoin="round" stroke-miterlimit="10" fill="none" fill-rule="evenodd"/><path d="M1209.1 67.5887 1209.1 109.189" stroke="#FFFFFF" stroke-width="1.33333" stroke-linejoin="round" stroke-miterlimit="10" fill="none" fill-rule="evenodd"/><path d="M845.235 67.5887 845.235 109.189" stroke="#FFFFFF" stroke-width="1.33333" stroke-linejoin="round" stroke-miterlimit="10" fill="none" fill-rule="evenodd"/><path d="M1249.52 67.5887 1249.52 109.189" stroke="#FFFFFF" stroke-width="1.33333" stroke-linejoin="round" stroke-miterlimit="10" fill="none" fill-rule="evenodd"/><path d="M844.569 68.2553 1250.19 68.2553" stroke="#FFFFFF" stroke-width="1.33333" stroke-linejoin="round" stroke-miterlimit="10" fill="none" fill-rule="evenodd"/><path d="M844.569 107.189 1250.19 107.189" stroke="#FFFFFF" stroke-width="4" stroke-linejoin="round" stroke-miterlimit="10" fill="none" fill-rule="evenodd"/><text font-family="Times New Roman,Times New Roman_MSFontService,sans-serif" font-weight="400" font-size="24" transform="translate(771.613 134)">index:<tspan x="440.385" y="-3">N</tspan><tspan x="457.719" y="-3">-</tspan>1<tspan x="88.1117" y="0">0</tspan><tspan x="124.674" y="0">1</tspan><tspan x="167.876" y="1">2</tspan><tspan x="235.031" y="-6">…</tspan><tspan x="207.723" y="1">3</tspan><tspan x="249.419" y="-82">Output</tspan></text><path d="M1021.03 54.9889 1037.78 54.9889 1054.53 54.9889 1071.28 54.9889 1088.03 54.9889 1088.03 55.9889 1071.28 55.9889 1054.53 55.9889 1037.78 55.9889 1021.03 55.9889Z" fill-rule="evenodd"/><path d="M114.166 181.167 505.122 181.167 505.122 181.833 114.166 181.833ZM115.5 185.5 107.5 181.5 115.5 177.5ZM503.789 177.5 511.789 181.5 503.789 185.5Z" fill="#4472C4"/><text font-family="Times New Roman,Times New Roman_MSFontService,sans-serif" font-weight="400" font-size="24" transform="translate(264.324 210)">T seconds</text><path d="M355.167 133.167 380.862 133.167 380.862 133.833 355.167 133.833ZM356.5 137.5 348.5 133.5 356.5 129.5ZM379.529 129.5 387.529 133.5 379.529 137.5Z" fill="#4472C4"/><text font-family="Times New Roman,Times New Roman_MSFontService,sans-serif" font-weight="400" font-size="24" transform="translate(354.412 159)">∆t</text><path d="M852.166 168.167 1243.12 168.167 1243.12 168.833 852.166 168.833ZM853.5 172.5 845.5 168.5 853.5 164.5ZM1241.79 164.5 1249.79 168.5 1241.79 172.5Z" fill="#4472C4"/><text font-family="Times New Roman,Times New Roman_MSFontService,sans-serif" font-weight="400" font-size="24" transform="translate(966.599 196)">B bandwidth [Hz]<tspan x="50.8334" y="29">(B = f</tspan><tspan font-size="16" x="108.333" y="34">s</tspan><tspan x="114.5" y="29">)</tspan></text></g></svg>