<?xml version="1.0" encoding="utf-8" standalone="no"?>
<!DOCTYPE svg PUBLIC "-//W3C//DTD SVG 1.1//EN"
  "http://www.w3.org/Graphics/SVG/1.1/DTD/svg11.dtd">
<!-- Created with matplotlib (https://matplotlib.org/) -->
<svg height="314.36825pt" version="1.1" viewBox="0 0 416.802812 314.36825" width="416.802812pt" xmlns="http://www.w3.org/2000/svg" xmlns:xlink="http://www.w3.org/1999/xlink">
 <defs>
  <style type="text/css">
*{stroke-linecap:butt;stroke-linejoin:round;}
  </style>
 </defs>
 <g id="figure_1">
  <g id="patch_1">
   <path d="M 0 314.36825 
L 416.802812 314.36825 
L 416.802812 0 
L 0 0 
z
" style="fill:#ffffff;"/>
  </g>
  <g id="axes_1">
   <g id="patch_2">
    <path d="M 48.982813 276.812 
L 406.102813 276.812 
L 406.102813 10.7 
L 48.982813 10.7 
z
" style="fill:#ffffff;"/>
   </g>
   <g id="matplotlib.axis_1">
    <g id="xtick_1">
     <g id="line2d_1">
      <path clip-path="url(#p6ce79ced47)" d="M 65.21554 276.812 
L 65.21554 10.7 
" style="fill:none;stroke:#b0b0b0;stroke-linecap:square;stroke-width:0.8;"/>
     </g>
     <g id="line2d_2">
      <defs>
       <path d="M 0 0 
L 0 3.5 
" id="m23e5addae5" style="stroke:#000000;stroke-width:0.8;"/>
      </defs>
      <g>
       <use style="stroke:#000000;stroke-width:0.8;" x="65.21554" xlink:href="#m23e5addae5" y="276.812"/>
      </g>
     </g>
     <g id="text_1">
      <!-- −150 -->
      <defs>
       <path d="M 10.59375 35.5 
L 73.1875 35.5 
L 73.1875 27.203125 
L 10.59375 27.203125 
z
" id="DejaVuSans-8722"/>
       <path d="M 12.40625 8.296875 
L 28.515625 8.296875 
L 28.515625 63.921875 
L 10.984375 60.40625 
L 10.984375 69.390625 
L 28.421875 72.90625 
L 38.28125 72.90625 
L 38.28125 8.296875 
L 54.390625 8.296875 
L 54.390625 0 
L 12.40625 0 
z
" id="DejaVuSans-49"/>
       <path d="M 10.796875 72.90625 
L 49.515625 72.90625 
L 49.515625 64.59375 
L 19.828125 64.59375 
L 19.828125 46.734375 
Q 21.96875 47.46875 24.109375 47.828125 
Q 26.265625 48.1875 28.421875 48.1875 
Q 40.625 48.1875 47.75 41.5 
Q 54.890625 34.8125 54.890625 23.390625 
Q 54.890625 11.625 47.5625 5.09375 
Q 40.234375 -1.421875 26.90625 -1.421875 
Q 22.3125 -1.421875 17.546875 -0.640625 
Q 12.796875 0.140625 7.71875 1.703125 
L 7.71875 11.625 
Q 12.109375 9.234375 16.796875 8.0625 
Q 21.484375 6.890625 26.703125 6.890625 
Q 35.15625 6.890625 40.078125 11.328125 
Q 45.015625 15.765625 45.015625 23.390625 
Q 45.015625 31 40.078125 35.4375 
Q 35.15625 39.890625 26.703125 39.890625 
Q 22.75 39.890625 18.8125 39.015625 
Q 14.890625 38.140625 10.796875 36.28125 
z
" id="DejaVuSans-53"/>
       <path d="M 31.78125 66.40625 
Q 24.171875 66.40625 20.328125 58.90625 
Q 16.5 51.421875 16.5 36.375 
Q 16.5 21.390625 20.328125 13.890625 
Q 24.171875 6.390625 31.78125 6.390625 
Q 39.453125 6.390625 43.28125 13.890625 
Q 47.125 21.390625 47.125 36.375 
Q 47.125 51.421875 43.28125 58.90625 
Q 39.453125 66.40625 31.78125 66.40625 
z
M 31.78125 74.21875 
Q 44.046875 74.21875 50.515625 64.515625 
Q 56.984375 54.828125 56.984375 36.375 
Q 56.984375 17.96875 50.515625 8.265625 
Q 44.046875 -1.421875 31.78125 -1.421875 
Q 19.53125 -1.421875 13.0625 8.265625 
Q 6.59375 17.96875 6.59375 36.375 
Q 6.59375 54.828125 13.0625 64.515625 
Q 19.53125 74.21875 31.78125 74.21875 
z
" id="DejaVuSans-48"/>
      </defs>
      <g transform="translate(51.481946 291.410438)scale(0.1 -0.1)">
       <use xlink:href="#DejaVuSans-8722"/>
       <use x="83.789062" xlink:href="#DejaVuSans-49"/>
       <use x="147.412109" xlink:href="#DejaVuSans-53"/>
       <use x="211.035156" xlink:href="#DejaVuSans-48"/>
      </g>
     </g>
    </g>
    <g id="xtick_2">
     <g id="line2d_3">
      <path clip-path="url(#p6ce79ced47)" d="M 119.324631 276.812 
L 119.324631 10.7 
" style="fill:none;stroke:#b0b0b0;stroke-linecap:square;stroke-width:0.8;"/>
     </g>
     <g id="line2d_4">
      <g>
       <use style="stroke:#000000;stroke-width:0.8;" x="119.324631" xlink:href="#m23e5addae5" y="276.812"/>
      </g>
     </g>
     <g id="text_2">
      <!-- −100 -->
      <g transform="translate(105.591037 291.410438)scale(0.1 -0.1)">
       <use xlink:href="#DejaVuSans-8722"/>
       <use x="83.789062" xlink:href="#DejaVuSans-49"/>
       <use x="147.412109" xlink:href="#DejaVuSans-48"/>
       <use x="211.035156" xlink:href="#DejaVuSans-48"/>
      </g>
     </g>
    </g>
    <g id="xtick_3">
     <g id="line2d_5">
      <path clip-path="url(#p6ce79ced47)" d="M 173.433722 276.812 
L 173.433722 10.7 
" style="fill:none;stroke:#b0b0b0;stroke-linecap:square;stroke-width:0.8;"/>
     </g>
     <g id="line2d_6">
      <g>
       <use style="stroke:#000000;stroke-width:0.8;" x="173.433722" xlink:href="#m23e5addae5" y="276.812"/>
      </g>
     </g>
     <g id="text_3">
      <!-- −50 -->
      <g transform="translate(162.881378 291.410438)scale(0.1 -0.1)">
       <use xlink:href="#DejaVuSans-8722"/>
       <use x="83.789062" xlink:href="#DejaVuSans-53"/>
       <use x="147.412109" xlink:href="#DejaVuSans-48"/>
      </g>
     </g>
    </g>
    <g id="xtick_4">
     <g id="line2d_7">
      <path clip-path="url(#p6ce79ced47)" d="M 227.542813 276.812 
L 227.542813 10.7 
" style="fill:none;stroke:#b0b0b0;stroke-linecap:square;stroke-width:0.8;"/>
     </g>
     <g id="line2d_8">
      <g>
       <use style="stroke:#000000;stroke-width:0.8;" x="227.542813" xlink:href="#m23e5addae5" y="276.812"/>
      </g>
     </g>
     <g id="text_4">
      <!-- 0 -->
      <g transform="translate(224.361563 291.410438)scale(0.1 -0.1)">
       <use xlink:href="#DejaVuSans-48"/>
      </g>
     </g>
    </g>
    <g id="xtick_5">
     <g id="line2d_9">
      <path clip-path="url(#p6ce79ced47)" d="M 281.651903 276.812 
L 281.651903 10.7 
" style="fill:none;stroke:#b0b0b0;stroke-linecap:square;stroke-width:0.8;"/>
     </g>
     <g id="line2d_10">
      <g>
       <use style="stroke:#000000;stroke-width:0.8;" x="281.651903" xlink:href="#m23e5addae5" y="276.812"/>
      </g>
     </g>
     <g id="text_5">
      <!-- 50 -->
      <g transform="translate(275.289403 291.410438)scale(0.1 -0.1)">
       <use xlink:href="#DejaVuSans-53"/>
       <use x="63.623047" xlink:href="#DejaVuSans-48"/>
      </g>
     </g>
    </g>
    <g id="xtick_6">
     <g id="line2d_11">
      <path clip-path="url(#p6ce79ced47)" d="M 335.760994 276.812 
L 335.760994 10.7 
" style="fill:none;stroke:#b0b0b0;stroke-linecap:square;stroke-width:0.8;"/>
     </g>
     <g id="line2d_12">
      <g>
       <use style="stroke:#000000;stroke-width:0.8;" x="335.760994" xlink:href="#m23e5addae5" y="276.812"/>
      </g>
     </g>
     <g id="text_6">
      <!-- 100 -->
      <g transform="translate(326.217244 291.410438)scale(0.1 -0.1)">
       <use xlink:href="#DejaVuSans-49"/>
       <use x="63.623047" xlink:href="#DejaVuSans-48"/>
       <use x="127.246094" xlink:href="#DejaVuSans-48"/>
      </g>
     </g>
    </g>
    <g id="xtick_7">
     <g id="line2d_13">
      <path clip-path="url(#p6ce79ced47)" d="M 389.870085 276.812 
L 389.870085 10.7 
" style="fill:none;stroke:#b0b0b0;stroke-linecap:square;stroke-width:0.8;"/>
     </g>
     <g id="line2d_14">
      <g>
       <use style="stroke:#000000;stroke-width:0.8;" x="389.870085" xlink:href="#m23e5addae5" y="276.812"/>
      </g>
     </g>
     <g id="text_7">
      <!-- 150 -->
      <g transform="translate(380.326335 291.410438)scale(0.1 -0.1)">
       <use xlink:href="#DejaVuSans-49"/>
       <use x="63.623047" xlink:href="#DejaVuSans-53"/>
       <use x="127.246094" xlink:href="#DejaVuSans-48"/>
      </g>
     </g>
    </g>
    <g id="text_8">
     <!-- Frequency [Hz] -->
     <defs>
      <path d="M 9.8125 72.90625 
L 51.703125 72.90625 
L 51.703125 64.59375 
L 19.671875 64.59375 
L 19.671875 43.109375 
L 48.578125 43.109375 
L 48.578125 34.8125 
L 19.671875 34.8125 
L 19.671875 0 
L 9.8125 0 
z
" id="DejaVuSans-70"/>
      <path d="M 41.109375 46.296875 
Q 39.59375 47.171875 37.8125 47.578125 
Q 36.03125 48 33.890625 48 
Q 26.265625 48 22.1875 43.046875 
Q 18.109375 38.09375 18.109375 28.8125 
L 18.109375 0 
L 9.078125 0 
L 9.078125 54.6875 
L 18.109375 54.6875 
L 18.109375 46.1875 
Q 20.953125 51.171875 25.484375 53.578125 
Q 30.03125 56 36.53125 56 
Q 37.453125 56 38.578125 55.875 
Q 39.703125 55.765625 41.0625 55.515625 
z
" id="DejaVuSans-114"/>
      <path d="M 56.203125 29.59375 
L 56.203125 25.203125 
L 14.890625 25.203125 
Q 15.484375 15.921875 20.484375 11.0625 
Q 25.484375 6.203125 34.421875 6.203125 
Q 39.59375 6.203125 44.453125 7.46875 
Q 49.3125 8.734375 54.109375 11.28125 
L 54.109375 2.78125 
Q 49.265625 0.734375 44.1875 -0.34375 
Q 39.109375 -1.421875 33.890625 -1.421875 
Q 20.796875 -1.421875 13.15625 6.1875 
Q 5.515625 13.8125 5.515625 26.8125 
Q 5.515625 40.234375 12.765625 48.109375 
Q 20.015625 56 32.328125 56 
Q 43.359375 56 49.78125 48.890625 
Q 56.203125 41.796875 56.203125 29.59375 
z
M 47.21875 32.234375 
Q 47.125 39.59375 43.09375 43.984375 
Q 39.0625 48.390625 32.421875 48.390625 
Q 24.90625 48.390625 20.390625 44.140625 
Q 15.875 39.890625 15.1875 32.171875 
z
" id="DejaVuSans-101"/>
      <path d="M 14.796875 27.296875 
Q 14.796875 17.390625 18.875 11.75 
Q 22.953125 6.109375 30.078125 6.109375 
Q 37.203125 6.109375 41.296875 11.75 
Q 45.40625 17.390625 45.40625 27.296875 
Q 45.40625 37.203125 41.296875 42.84375 
Q 37.203125 48.484375 30.078125 48.484375 
Q 22.953125 48.484375 18.875 42.84375 
Q 14.796875 37.203125 14.796875 27.296875 
z
M 45.40625 8.203125 
Q 42.578125 3.328125 38.25 0.953125 
Q 33.9375 -1.421875 27.875 -1.421875 
Q 17.96875 -1.421875 11.734375 6.484375 
Q 5.515625 14.40625 5.515625 27.296875 
Q 5.515625 40.1875 11.734375 48.09375 
Q 17.96875 56 27.875 56 
Q 33.9375 56 38.25 53.625 
Q 42.578125 51.265625 45.40625 46.390625 
L 45.40625 54.6875 
L 54.390625 54.6875 
L 54.390625 -20.796875 
L 45.40625 -20.796875 
z
" id="DejaVuSans-113"/>
      <path d="M 8.5 21.578125 
L 8.5 54.6875 
L 17.484375 54.6875 
L 17.484375 21.921875 
Q 17.484375 14.15625 20.5 10.265625 
Q 23.53125 6.390625 29.59375 6.390625 
Q 36.859375 6.390625 41.078125 11.03125 
Q 45.3125 15.671875 45.3125 23.6875 
L 45.3125 54.6875 
L 54.296875 54.6875 
L 54.296875 0 
L 45.3125 0 
L 45.3125 8.40625 
Q 42.046875 3.421875 37.71875 1 
Q 33.40625 -1.421875 27.6875 -1.421875 
Q 18.265625 -1.421875 13.375 4.4375 
Q 8.5 10.296875 8.5 21.578125 
z
M 31.109375 56 
z
" id="DejaVuSans-117"/>
      <path d="M 54.890625 33.015625 
L 54.890625 0 
L 45.90625 0 
L 45.90625 32.71875 
Q 45.90625 40.484375 42.875 44.328125 
Q 39.84375 48.1875 33.796875 48.1875 
Q 26.515625 48.1875 22.3125 43.546875 
Q 18.109375 38.921875 18.109375 30.90625 
L 18.109375 0 
L 9.078125 0 
L 9.078125 54.6875 
L 18.109375 54.6875 
L 18.109375 46.1875 
Q 21.34375 51.125 25.703125 53.5625 
Q 30.078125 56 35.796875 56 
Q 45.21875 56 50.046875 50.171875 
Q 54.890625 44.34375 54.890625 33.015625 
z
" id="DejaVuSans-110"/>
      <path d="M 48.78125 52.59375 
L 48.78125 44.1875 
Q 44.96875 46.296875 41.140625 47.34375 
Q 37.3125 48.390625 33.40625 48.390625 
Q 24.65625 48.390625 19.8125 42.84375 
Q 14.984375 37.3125 14.984375 27.296875 
Q 14.984375 17.28125 19.8125 11.734375 
Q 24.65625 6.203125 33.40625 6.203125 
Q 37.3125 6.203125 41.140625 7.25 
Q 44.96875 8.296875 48.78125 10.40625 
L 48.78125 2.09375 
Q 45.015625 0.34375 40.984375 -0.53125 
Q 36.96875 -1.421875 32.421875 -1.421875 
Q 20.0625 -1.421875 12.78125 6.34375 
Q 5.515625 14.109375 5.515625 27.296875 
Q 5.515625 40.671875 12.859375 48.328125 
Q 20.21875 56 33.015625 56 
Q 37.15625 56 41.109375 55.140625 
Q 45.0625 54.296875 48.78125 52.59375 
z
" id="DejaVuSans-99"/>
      <path d="M 32.171875 -5.078125 
Q 28.375 -14.84375 24.75 -17.8125 
Q 21.140625 -20.796875 15.09375 -20.796875 
L 7.90625 -20.796875 
L 7.90625 -13.28125 
L 13.1875 -13.28125 
Q 16.890625 -13.28125 18.9375 -11.515625 
Q 21 -9.765625 23.484375 -3.21875 
L 25.09375 0.875 
L 2.984375 54.6875 
L 12.5 54.6875 
L 29.59375 11.921875 
L 46.6875 54.6875 
L 56.203125 54.6875 
z
" id="DejaVuSans-121"/>
      <path id="DejaVuSans-32"/>
      <path d="M 8.59375 75.984375 
L 29.296875 75.984375 
L 29.296875 69 
L 17.578125 69 
L 17.578125 -6.203125 
L 29.296875 -6.203125 
L 29.296875 -13.1875 
L 8.59375 -13.1875 
z
" id="DejaVuSans-91"/>
      <path d="M 9.8125 72.90625 
L 19.671875 72.90625 
L 19.671875 43.015625 
L 55.515625 43.015625 
L 55.515625 72.90625 
L 65.375 72.90625 
L 65.375 0 
L 55.515625 0 
L 55.515625 34.71875 
L 19.671875 34.71875 
L 19.671875 0 
L 9.8125 0 
z
" id="DejaVuSans-72"/>
      <path d="M 5.515625 54.6875 
L 48.1875 54.6875 
L 48.1875 46.484375 
L 14.40625 7.171875 
L 48.1875 7.171875 
L 48.1875 0 
L 4.296875 0 
L 4.296875 8.203125 
L 38.09375 47.515625 
L 5.515625 47.515625 
z
" id="DejaVuSans-122"/>
      <path d="M 30.421875 75.984375 
L 30.421875 -13.1875 
L 9.71875 -13.1875 
L 9.71875 -6.203125 
L 21.390625 -6.203125 
L 21.390625 69 
L 9.71875 69 
L 9.71875 75.984375 
z
" id="DejaVuSans-93"/>
     </defs>
     <g transform="translate(189.370156 305.088562)scale(0.1 -0.1)">
      <use xlink:href="#DejaVuSans-70"/>
      <use x="57.410156" xlink:href="#DejaVuSans-114"/>
      <use x="98.492188" xlink:href="#DejaVuSans-101"/>
      <use x="160.015625" xlink:href="#DejaVuSans-113"/>
      <use x="223.492188" xlink:href="#DejaVuSans-117"/>
      <use x="286.871094" xlink:href="#DejaVuSans-101"/>
      <use x="348.394531" xlink:href="#DejaVuSans-110"/>
      <use x="411.773438" xlink:href="#DejaVuSans-99"/>
      <use x="466.753906" xlink:href="#DejaVuSans-121"/>
      <use x="525.933594" xlink:href="#DejaVuSans-32"/>
      <use x="557.720703" xlink:href="#DejaVuSans-91"/>
      <use x="596.734375" xlink:href="#DejaVuSans-72"/>
      <use x="671.929688" xlink:href="#DejaVuSans-122"/>
      <use x="724.419922" xlink:href="#DejaVuSans-93"/>
     </g>
    </g>
   </g>
   <g id="matplotlib.axis_2">
    <g id="ytick_1">
     <g id="line2d_15">
      <path clip-path="url(#p6ce79ced47)" d="M 48.982813 273.289695 
L 406.102813 273.289695 
" style="fill:none;stroke:#b0b0b0;stroke-linecap:square;stroke-width:0.8;"/>
     </g>
     <g id="line2d_16">
      <defs>
       <path d="M 0 0 
L -3.5 0 
" id="m4ba706a658" style="stroke:#000000;stroke-width:0.8;"/>
      </defs>
      <g>
       <use style="stroke:#000000;stroke-width:0.8;" x="48.982813" xlink:href="#m4ba706a658" y="273.289695"/>
      </g>
     </g>
     <g id="text_9">
      <!-- −60 -->
      <defs>
       <path d="M 33.015625 40.375 
Q 26.375 40.375 22.484375 35.828125 
Q 18.609375 31.296875 18.609375 23.390625 
Q 18.609375 15.53125 22.484375 10.953125 
Q 26.375 6.390625 33.015625 6.390625 
Q 39.65625 6.390625 43.53125 10.953125 
Q 47.40625 15.53125 47.40625 23.390625 
Q 47.40625 31.296875 43.53125 35.828125 
Q 39.65625 40.375 33.015625 40.375 
z
M 52.59375 71.296875 
L 52.59375 62.3125 
Q 48.875 64.0625 45.09375 64.984375 
Q 41.3125 65.921875 37.59375 65.921875 
Q 27.828125 65.921875 22.671875 59.328125 
Q 17.53125 52.734375 16.796875 39.40625 
Q 19.671875 43.65625 24.015625 45.921875 
Q 28.375 48.1875 33.59375 48.1875 
Q 44.578125 48.1875 50.953125 41.515625 
Q 57.328125 34.859375 57.328125 23.390625 
Q 57.328125 12.15625 50.6875 5.359375 
Q 44.046875 -1.421875 33.015625 -1.421875 
Q 20.359375 -1.421875 13.671875 8.265625 
Q 6.984375 17.96875 6.984375 36.375 
Q 6.984375 53.65625 15.1875 63.9375 
Q 23.390625 74.21875 37.203125 74.21875 
Q 40.921875 74.21875 44.703125 73.484375 
Q 48.484375 72.75 52.59375 71.296875 
z
" id="DejaVuSans-54"/>
      </defs>
      <g transform="translate(20.878125 277.088914)scale(0.1 -0.1)">
       <use xlink:href="#DejaVuSans-8722"/>
       <use x="83.789062" xlink:href="#DejaVuSans-54"/>
       <use x="147.412109" xlink:href="#DejaVuSans-48"/>
      </g>
     </g>
    </g>
    <g id="ytick_2">
     <g id="line2d_17">
      <path clip-path="url(#p6ce79ced47)" d="M 48.982813 230.433857 
L 406.102813 230.433857 
" style="fill:none;stroke:#b0b0b0;stroke-linecap:square;stroke-width:0.8;"/>
     </g>
     <g id="line2d_18">
      <g>
       <use style="stroke:#000000;stroke-width:0.8;" x="48.982813" xlink:href="#m4ba706a658" y="230.433857"/>
      </g>
     </g>
     <g id="text_10">
      <!-- −50 -->
      <g transform="translate(20.878125 234.233076)scale(0.1 -0.1)">
       <use xlink:href="#DejaVuSans-8722"/>
       <use x="83.789062" xlink:href="#DejaVuSans-53"/>
       <use x="147.412109" xlink:href="#DejaVuSans-48"/>
      </g>
     </g>
    </g>
    <g id="ytick_3">
     <g id="line2d_19">
      <path clip-path="url(#p6ce79ced47)" d="M 48.982813 187.578018 
L 406.102813 187.578018 
" style="fill:none;stroke:#b0b0b0;stroke-linecap:square;stroke-width:0.8;"/>
     </g>
     <g id="line2d_20">
      <g>
       <use style="stroke:#000000;stroke-width:0.8;" x="48.982813" xlink:href="#m4ba706a658" y="187.578018"/>
      </g>
     </g>
     <g id="text_11">
      <!-- −40 -->
      <defs>
       <path d="M 37.796875 64.3125 
L 12.890625 25.390625 
L 37.796875 25.390625 
z
M 35.203125 72.90625 
L 47.609375 72.90625 
L 47.609375 25.390625 
L 58.015625 25.390625 
L 58.015625 17.1875 
L 47.609375 17.1875 
L 47.609375 0 
L 37.796875 0 
L 37.796875 17.1875 
L 4.890625 17.1875 
L 4.890625 26.703125 
z
" id="DejaVuSans-52"/>
      </defs>
      <g transform="translate(20.878125 191.377237)scale(0.1 -0.1)">
       <use xlink:href="#DejaVuSans-8722"/>
       <use x="83.789062" xlink:href="#DejaVuSans-52"/>
       <use x="147.412109" xlink:href="#DejaVuSans-48"/>
      </g>
     </g>
    </g>
    <g id="ytick_4">
     <g id="line2d_21">
      <path clip-path="url(#p6ce79ced47)" d="M 48.982813 144.72218 
L 406.102813 144.72218 
" style="fill:none;stroke:#b0b0b0;stroke-linecap:square;stroke-width:0.8;"/>
     </g>
     <g id="line2d_22">
      <g>
       <use style="stroke:#000000;stroke-width:0.8;" x="48.982813" xlink:href="#m4ba706a658" y="144.72218"/>
      </g>
     </g>
     <g id="text_12">
      <!-- −30 -->
      <defs>
       <path d="M 40.578125 39.3125 
Q 47.65625 37.796875 51.625 33 
Q 55.609375 28.21875 55.609375 21.1875 
Q 55.609375 10.40625 48.1875 4.484375 
Q 40.765625 -1.421875 27.09375 -1.421875 
Q 22.515625 -1.421875 17.65625 -0.515625 
Q 12.796875 0.390625 7.625 2.203125 
L 7.625 11.71875 
Q 11.71875 9.328125 16.59375 8.109375 
Q 21.484375 6.890625 26.8125 6.890625 
Q 36.078125 6.890625 40.9375 10.546875 
Q 45.796875 14.203125 45.796875 21.1875 
Q 45.796875 27.640625 41.28125 31.265625 
Q 36.765625 34.90625 28.71875 34.90625 
L 20.21875 34.90625 
L 20.21875 43.015625 
L 29.109375 43.015625 
Q 36.375 43.015625 40.234375 45.921875 
Q 44.09375 48.828125 44.09375 54.296875 
Q 44.09375 59.90625 40.109375 62.90625 
Q 36.140625 65.921875 28.71875 65.921875 
Q 24.65625 65.921875 20.015625 65.03125 
Q 15.375 64.15625 9.8125 62.3125 
L 9.8125 71.09375 
Q 15.4375 72.65625 20.34375 73.4375 
Q 25.25 74.21875 29.59375 74.21875 
Q 40.828125 74.21875 47.359375 69.109375 
Q 53.90625 64.015625 53.90625 55.328125 
Q 53.90625 49.265625 50.4375 45.09375 
Q 46.96875 40.921875 40.578125 39.3125 
z
" id="DejaVuSans-51"/>
      </defs>
      <g transform="translate(20.878125 148.521398)scale(0.1 -0.1)">
       <use xlink:href="#DejaVuSans-8722"/>
       <use x="83.789062" xlink:href="#DejaVuSans-51"/>
       <use x="147.412109" xlink:href="#DejaVuSans-48"/>
      </g>
     </g>
    </g>
    <g id="ytick_5">
     <g id="line2d_23">
      <path clip-path="url(#p6ce79ced47)" d="M 48.982813 101.866341 
L 406.102813 101.866341 
" style="fill:none;stroke:#b0b0b0;stroke-linecap:square;stroke-width:0.8;"/>
     </g>
     <g id="line2d_24">
      <g>
       <use style="stroke:#000000;stroke-width:0.8;" x="48.982813" xlink:href="#m4ba706a658" y="101.866341"/>
      </g>
     </g>
     <g id="text_13">
      <!-- −20 -->
      <defs>
       <path d="M 19.1875 8.296875 
L 53.609375 8.296875 
L 53.609375 0 
L 7.328125 0 
L 7.328125 8.296875 
Q 12.9375 14.109375 22.625 23.890625 
Q 32.328125 33.6875 34.8125 36.53125 
Q 39.546875 41.84375 41.421875 45.53125 
Q 43.3125 49.21875 43.3125 52.78125 
Q 43.3125 58.59375 39.234375 62.25 
Q 35.15625 65.921875 28.609375 65.921875 
Q 23.96875 65.921875 18.8125 64.3125 
Q 13.671875 62.703125 7.8125 59.421875 
L 7.8125 69.390625 
Q 13.765625 71.78125 18.9375 73 
Q 24.125 74.21875 28.421875 74.21875 
Q 39.75 74.21875 46.484375 68.546875 
Q 53.21875 62.890625 53.21875 53.421875 
Q 53.21875 48.921875 51.53125 44.890625 
Q 49.859375 40.875 45.40625 35.40625 
Q 44.1875 33.984375 37.640625 27.21875 
Q 31.109375 20.453125 19.1875 8.296875 
z
" id="DejaVuSans-50"/>
      </defs>
      <g transform="translate(20.878125 105.66556)scale(0.1 -0.1)">
       <use xlink:href="#DejaVuSans-8722"/>
       <use x="83.789062" xlink:href="#DejaVuSans-50"/>
       <use x="147.412109" xlink:href="#DejaVuSans-48"/>
      </g>
     </g>
    </g>
    <g id="ytick_6">
     <g id="line2d_25">
      <path clip-path="url(#p6ce79ced47)" d="M 48.982813 59.010503 
L 406.102813 59.010503 
" style="fill:none;stroke:#b0b0b0;stroke-linecap:square;stroke-width:0.8;"/>
     </g>
     <g id="line2d_26">
      <g>
       <use style="stroke:#000000;stroke-width:0.8;" x="48.982813" xlink:href="#m4ba706a658" y="59.010503"/>
      </g>
     </g>
     <g id="text_14">
      <!-- −10 -->
      <g transform="translate(20.878125 62.809721)scale(0.1 -0.1)">
       <use xlink:href="#DejaVuSans-8722"/>
       <use x="83.789062" xlink:href="#DejaVuSans-49"/>
       <use x="147.412109" xlink:href="#DejaVuSans-48"/>
      </g>
     </g>
    </g>
    <g id="ytick_7">
     <g id="line2d_27">
      <path clip-path="url(#p6ce79ced47)" d="M 48.982813 16.154664 
L 406.102813 16.154664 
" style="fill:none;stroke:#b0b0b0;stroke-linecap:square;stroke-width:0.8;"/>
     </g>
     <g id="line2d_28">
      <g>
       <use style="stroke:#000000;stroke-width:0.8;" x="48.982813" xlink:href="#m4ba706a658" y="16.154664"/>
      </g>
     </g>
     <g id="text_15">
      <!-- 0 -->
      <g transform="translate(35.620313 19.953883)scale(0.1 -0.1)">
       <use xlink:href="#DejaVuSans-48"/>
      </g>
     </g>
    </g>
    <g id="text_16">
     <!-- Magnitude [dB] -->
     <defs>
      <path d="M 9.8125 72.90625 
L 24.515625 72.90625 
L 43.109375 23.296875 
L 61.8125 72.90625 
L 76.515625 72.90625 
L 76.515625 0 
L 66.890625 0 
L 66.890625 64.015625 
L 48.09375 14.015625 
L 38.1875 14.015625 
L 19.390625 64.015625 
L 19.390625 0 
L 9.8125 0 
z
" id="DejaVuSans-77"/>
      <path d="M 34.28125 27.484375 
Q 23.390625 27.484375 19.1875 25 
Q 14.984375 22.515625 14.984375 16.5 
Q 14.984375 11.71875 18.140625 8.90625 
Q 21.296875 6.109375 26.703125 6.109375 
Q 34.1875 6.109375 38.703125 11.40625 
Q 43.21875 16.703125 43.21875 25.484375 
L 43.21875 27.484375 
z
M 52.203125 31.203125 
L 52.203125 0 
L 43.21875 0 
L 43.21875 8.296875 
Q 40.140625 3.328125 35.546875 0.953125 
Q 30.953125 -1.421875 24.3125 -1.421875 
Q 15.921875 -1.421875 10.953125 3.296875 
Q 6 8.015625 6 15.921875 
Q 6 25.140625 12.171875 29.828125 
Q 18.359375 34.515625 30.609375 34.515625 
L 43.21875 34.515625 
L 43.21875 35.40625 
Q 43.21875 41.609375 39.140625 45 
Q 35.0625 48.390625 27.6875 48.390625 
Q 23 48.390625 18.546875 47.265625 
Q 14.109375 46.140625 10.015625 43.890625 
L 10.015625 52.203125 
Q 14.9375 54.109375 19.578125 55.046875 
Q 24.21875 56 28.609375 56 
Q 40.484375 56 46.34375 49.84375 
Q 52.203125 43.703125 52.203125 31.203125 
z
" id="DejaVuSans-97"/>
      <path d="M 45.40625 27.984375 
Q 45.40625 37.75 41.375 43.109375 
Q 37.359375 48.484375 30.078125 48.484375 
Q 22.859375 48.484375 18.828125 43.109375 
Q 14.796875 37.75 14.796875 27.984375 
Q 14.796875 18.265625 18.828125 12.890625 
Q 22.859375 7.515625 30.078125 7.515625 
Q 37.359375 7.515625 41.375 12.890625 
Q 45.40625 18.265625 45.40625 27.984375 
z
M 54.390625 6.78125 
Q 54.390625 -7.171875 48.1875 -13.984375 
Q 42 -20.796875 29.203125 -20.796875 
Q 24.46875 -20.796875 20.265625 -20.09375 
Q 16.0625 -19.390625 12.109375 -17.921875 
L 12.109375 -9.1875 
Q 16.0625 -11.328125 19.921875 -12.34375 
Q 23.78125 -13.375 27.78125 -13.375 
Q 36.625 -13.375 41.015625 -8.765625 
Q 45.40625 -4.15625 45.40625 5.171875 
L 45.40625 9.625 
Q 42.625 4.78125 38.28125 2.390625 
Q 33.9375 0 27.875 0 
Q 17.828125 0 11.671875 7.65625 
Q 5.515625 15.328125 5.515625 27.984375 
Q 5.515625 40.671875 11.671875 48.328125 
Q 17.828125 56 27.875 56 
Q 33.9375 56 38.28125 53.609375 
Q 42.625 51.21875 45.40625 46.390625 
L 45.40625 54.6875 
L 54.390625 54.6875 
z
" id="DejaVuSans-103"/>
      <path d="M 9.421875 54.6875 
L 18.40625 54.6875 
L 18.40625 0 
L 9.421875 0 
z
M 9.421875 75.984375 
L 18.40625 75.984375 
L 18.40625 64.59375 
L 9.421875 64.59375 
z
" id="DejaVuSans-105"/>
      <path d="M 18.3125 70.21875 
L 18.3125 54.6875 
L 36.8125 54.6875 
L 36.8125 47.703125 
L 18.3125 47.703125 
L 18.3125 18.015625 
Q 18.3125 11.328125 20.140625 9.421875 
Q 21.96875 7.515625 27.59375 7.515625 
L 36.8125 7.515625 
L 36.8125 0 
L 27.59375 0 
Q 17.1875 0 13.234375 3.875 
Q 9.28125 7.765625 9.28125 18.015625 
L 9.28125 47.703125 
L 2.6875 47.703125 
L 2.6875 54.6875 
L 9.28125 54.6875 
L 9.28125 70.21875 
z
" id="DejaVuSans-116"/>
      <path d="M 45.40625 46.390625 
L 45.40625 75.984375 
L 54.390625 75.984375 
L 54.390625 0 
L 45.40625 0 
L 45.40625 8.203125 
Q 42.578125 3.328125 38.25 0.953125 
Q 33.9375 -1.421875 27.875 -1.421875 
Q 17.96875 -1.421875 11.734375 6.484375 
Q 5.515625 14.40625 5.515625 27.296875 
Q 5.515625 40.1875 11.734375 48.09375 
Q 17.96875 56 27.875 56 
Q 33.9375 56 38.25 53.625 
Q 42.578125 51.265625 45.40625 46.390625 
z
M 14.796875 27.296875 
Q 14.796875 17.390625 18.875 11.75 
Q 22.953125 6.109375 30.078125 6.109375 
Q 37.203125 6.109375 41.296875 11.75 
Q 45.40625 17.390625 45.40625 27.296875 
Q 45.40625 37.203125 41.296875 42.84375 
Q 37.203125 48.484375 30.078125 48.484375 
Q 22.953125 48.484375 18.875 42.84375 
Q 14.796875 37.203125 14.796875 27.296875 
z
" id="DejaVuSans-100"/>
      <path d="M 19.671875 34.8125 
L 19.671875 8.109375 
L 35.5 8.109375 
Q 43.453125 8.109375 47.28125 11.40625 
Q 51.125 14.703125 51.125 21.484375 
Q 51.125 28.328125 47.28125 31.5625 
Q 43.453125 34.8125 35.5 34.8125 
z
M 19.671875 64.796875 
L 19.671875 42.828125 
L 34.28125 42.828125 
Q 41.5 42.828125 45.03125 45.53125 
Q 48.578125 48.25 48.578125 53.8125 
Q 48.578125 59.328125 45.03125 62.0625 
Q 41.5 64.796875 34.28125 64.796875 
z
M 9.8125 72.90625 
L 35.015625 72.90625 
Q 46.296875 72.90625 52.390625 68.21875 
Q 58.5 63.53125 58.5 54.890625 
Q 58.5 48.1875 55.375 44.234375 
Q 52.25 40.28125 46.1875 39.3125 
Q 53.46875 37.75 57.5 32.78125 
Q 61.53125 27.828125 61.53125 20.40625 
Q 61.53125 10.640625 54.890625 5.3125 
Q 48.25 0 35.984375 0 
L 9.8125 0 
z
" id="DejaVuSans-66"/>
     </defs>
     <g transform="translate(14.798438 182.341156)rotate(-90)scale(0.1 -0.1)">
      <use xlink:href="#DejaVuSans-77"/>
      <use x="86.279297" xlink:href="#DejaVuSans-97"/>
      <use x="147.558594" xlink:href="#DejaVuSans-103"/>
      <use x="211.035156" xlink:href="#DejaVuSans-110"/>
      <use x="274.414062" xlink:href="#DejaVuSans-105"/>
      <use x="302.197266" xlink:href="#DejaVuSans-116"/>
      <use x="341.40625" xlink:href="#DejaVuSans-117"/>
      <use x="404.785156" xlink:href="#DejaVuSans-100"/>
      <use x="468.261719" xlink:href="#DejaVuSans-101"/>
      <use x="529.785156" xlink:href="#DejaVuSans-32"/>
      <use x="561.572266" xlink:href="#DejaVuSans-91"/>
      <use x="600.585938" xlink:href="#DejaVuSans-100"/>
      <use x="664.0625" xlink:href="#DejaVuSans-66"/>
      <use x="732.666016" xlink:href="#DejaVuSans-93"/>
     </g>
    </g>
   </g>
   <g id="line2d_29">
    <path clip-path="url(#p6ce79ced47)" d="M 65.21554 162.199232 
L 65.37414 124.415557 
L 65.84994 158.781966 
L 66.008541 193.137483 
L 66.167141 181.677149 
L 66.325741 158.644222 
L 66.484341 160.67512 
L 66.642941 142.508194 
L 66.801541 161.936415 
L 66.960142 164.158629 
L 67.118742 131.023384 
L 67.277342 139.643494 
L 67.435942 165.592592 
L 67.594542 138.805546 
L 67.753142 166.997064 
L 67.911743 161.175833 
L 68.070343 149.867666 
L 68.228943 199.63723 
L 68.387543 127.123393 
L 68.546143 195.818035 
L 68.704743 131.008261 
L 68.863344 181.583403 
L 69.021944 161.929231 
L 69.180544 119.757292 
L 69.339144 149.227106 
L 69.497744 135.789112 
L 69.656344 197.929399 
L 69.814945 150.551843 
L 69.973545 148.492563 
L 70.132145 139.927782 
L 70.290745 169.180894 
L 70.449345 152.43001 
L 70.607946 168.386592 
L 70.766546 149.841819 
L 70.925146 162.201261 
L 71.083746 142.161622 
L 71.400946 182.616043 
L 71.718147 128.722765 
L 71.876747 150.579074 
L 72.035347 140.802318 
L 72.193947 143.501133 
L 72.352547 132.218238 
L 72.511148 131.864579 
L 72.669748 219.467343 
L 72.986948 146.34689 
L 73.145548 174.910113 
L 73.304148 138.722502 
L 73.462749 139.237501 
L 73.621349 143.722778 
L 73.779949 143.218404 
L 73.938549 132.946127 
L 74.097149 187.779963 
L 74.255749 196.035277 
L 74.41435 145.184429 
L 74.57295 138.542687 
L 74.89015 186.825268 
L 75.20735 162.934208 
L 75.365951 133.900826 
L 75.524551 136.410584 
L 75.683151 143.896523 
L 76.000351 173.975094 
L 76.158951 138.685736 
L 76.317552 191.2051 
L 76.476152 140.148198 
L 76.634752 141.313867 
L 76.793352 118.963619 
L 76.951952 160.428408 
L 77.110552 137.004744 
L 77.269153 131.316675 
L 77.427753 222.0718 
L 77.586353 128.70499 
L 77.744953 138.87677 
L 77.903553 136.68486 
L 78.062153 125.99711 
L 78.220754 130.42325 
L 78.379354 192.98235 
L 78.537954 192.681161 
L 78.855154 212.633858 
L 79.013754 150.856721 
L 79.172355 158.985346 
L 79.489555 125.970273 
L 79.648155 129.398348 
L 79.806755 158.188875 
L 79.965355 144.285414 
L 80.123956 143.967527 
L 80.282556 159.199823 
L 80.441156 150.801867 
L 80.599756 136.217323 
L 80.758356 153.839118 
L 80.916956 124.186985 
L 81.075557 132.120292 
L 81.234157 171.212746 
L 81.392757 149.662464 
L 81.709957 232.764358 
L 82.027158 138.800001 
L 82.185758 134.573897 
L 82.344358 205.066951 
L 82.502958 154.552817 
L 82.661558 178.753045 
L 82.978759 124.50158 
L 83.137359 218.418805 
L 83.295959 189.098814 
L 83.454559 126.95957 
L 83.613159 180.137894 
L 83.93036 124.302168 
L 84.08896 162.305107 
L 84.40616 158.946246 
L 84.56476 138.322232 
L 84.723361 141.782049 
L 85.199161 184.320863 
L 85.357761 184.626884 
L 85.516361 221.992699 
L 85.674962 110.359856 
L 85.833562 155.652725 
L 85.992162 135.208627 
L 86.150762 196.2717 
L 86.309362 156.091475 
L 86.467962 161.320446 
L 86.626563 178.688518 
L 86.943763 131.534716 
L 87.102363 189.651876 
L 87.260963 135.132042 
L 87.419563 119.995166 
L 87.736764 179.280433 
L 87.895364 231.103817 
L 88.053964 150.471277 
L 88.212564 157.739842 
L 88.371164 185.092721 
L 88.529765 138.802238 
L 88.688365 139.9461 
L 88.846965 149.641332 
L 89.164165 142.179644 
L 89.322765 199.461319 
L 89.639966 132.17396 
L 89.798566 164.735178 
L 90.115766 134.681318 
L 90.274366 135.040182 
L 90.432967 196.617067 
L 90.591567 191.154758 
L 90.750167 155.685601 
L 90.908767 150.72709 
L 91.067367 132.972477 
L 91.384568 148.908889 
L 91.543168 209.643392 
L 91.701768 130.747244 
L 91.860368 212.03674 
L 92.018968 133.480647 
L 92.177568 127.100269 
L 92.336169 185.611533 
L 92.653369 138.603991 
L 92.811969 131.859844 
L 92.970569 134.242536 
L 93.129169 149.021985 
L 93.28777 124.935211 
L 93.60497 193.461292 
L 93.76357 159.186649 
L 93.92217 160.139286 
L 94.08077 141.11538 
L 94.239371 167.366709 
L 94.397971 168.331423 
L 94.715171 142.706358 
L 94.873771 163.467713 
L 95.032371 157.094698 
L 95.190972 174.752854 
L 95.349572 127.919785 
L 95.666772 145.191206 
L 95.825372 185.77443 
L 95.983973 181.13759 
L 96.142573 153.730748 
L 96.301173 151.003166 
L 96.459773 135.042416 
L 96.618373 137.637147 
L 96.776973 184.466999 
L 96.935574 181.061351 
L 97.094174 182.479041 
L 97.252774 139.850507 
L 97.411374 183.79078 
L 97.569974 136.172504 
L 97.887175 153.065092 
L 98.204375 128.568664 
L 98.521575 159.980344 
L 98.680175 145.648197 
L 98.997376 171.405613 
L 99.155976 143.571822 
L 99.631776 158.775428 
L 100.107577 129.493516 
L 100.266177 135.482839 
L 100.424777 165.183345 
L 100.583377 166.063527 
L 100.741978 161.00894 
L 101.059178 137.824958 
L 101.217778 163.950692 
L 101.376378 163.002722 
L 101.534978 133.151851 
L 101.693579 157.111502 
L 101.852179 125.945816 
L 102.169379 199.210385 
L 102.486579 145.949179 
L 102.64518 151.792266 
L 102.80378 167.536618 
L 102.96238 162.19895 
L 103.12098 184.530983 
L 103.27958 145.055881 
L 103.43818 174.981492 
L 103.596781 125.847661 
L 103.755381 148.443462 
L 103.913981 129.284028 
L 104.072581 154.302968 
L 104.231181 159.64829 
L 104.389781 186.128707 
L 104.548382 171.248988 
L 104.706982 201.791854 
L 105.024182 134.031689 
L 105.341382 153.532798 
L 105.499983 196.54604 
L 105.817183 144.503456 
L 105.975783 143.765583 
L 106.134383 160.760551 
L 106.292983 138.513791 
L 106.451584 153.21054 
L 106.610184 127.597617 
L 106.927384 179.347058 
L 107.085984 172.011969 
L 107.244584 143.353876 
L 107.403185 190.478427 
L 107.561785 153.011886 
L 107.720385 162.792868 
L 107.878985 158.205353 
L 108.037585 160.286534 
L 108.196186 176.474589 
L 108.354786 152.32447 
L 108.513386 159.493213 
L 108.671986 150.064356 
L 108.830586 148.839669 
L 108.989186 149.843143 
L 109.147787 133.129367 
L 109.306387 135.501548 
L 109.464987 186.826894 
L 109.623587 183.969635 
L 109.940787 131.948058 
L 110.099388 127.763944 
L 110.257988 136.259571 
L 110.416588 162.211639 
L 110.575188 144.168034 
L 110.733788 162.633923 
L 110.892388 132.069414 
L 111.050989 137.076212 
L 111.209589 190.732035 
L 111.368189 159.933728 
L 111.526789 171.317224 
L 111.685389 134.274371 
L 111.843989 157.380687 
L 112.00259 134.039913 
L 112.16119 196.474732 
L 112.31979 131.829146 
L 112.47839 163.712429 
L 112.63699 120.675176 
L 112.954191 219.769742 
L 113.112791 152.570782 
L 113.271391 138.895458 
L 113.429991 153.087215 
L 113.588591 139.495559 
L 113.747191 137.693637 
L 113.905792 153.068549 
L 114.064392 140.310307 
L 114.222992 166.424833 
L 114.381592 156.611684 
L 114.540192 124.763811 
L 114.698792 167.932797 
L 114.857393 133.576224 
L 115.015993 142.253472 
L 115.174593 141.997665 
L 115.333193 126.228409 
L 115.491793 140.553094 
L 115.650393 142.078386 
L 115.808994 161.298263 
L 115.967594 131.254126 
L 116.126194 168.837297 
L 116.284794 150.645055 
L 116.443394 157.554387 
L 116.601994 154.560675 
L 116.919195 204.450597 
L 117.077795 167.186309 
L 117.236395 161.971582 
L 117.394995 220.071661 
L 117.553595 138.419655 
L 117.712196 164.980026 
L 117.870796 152.81256 
L 118.029396 175.863417 
L 118.187996 146.810388 
L 118.346596 138.708917 
L 118.663797 146.878804 
L 118.822397 159.276802 
L 118.980997 144.612135 
L 119.298197 167.259255 
L 119.456797 155.610393 
L 119.615398 208.266815 
L 120.249798 122.512995 
L 120.408399 148.878852 
L 120.566999 156.222097 
L 120.725599 138.508311 
L 120.884199 143.380399 
L 121.042799 174.642928 
L 121.201399 159.232441 
L 121.36 167.814528 
L 121.5186 189.093261 
L 121.6772 127.03371 
L 121.8358 134.288219 
L 121.9944 180.874443 
L 122.153 132.877211 
L 122.311601 156.806424 
L 122.470201 116.377822 
L 122.787401 164.30154 
L 122.946001 120.483913 
L 123.104601 187.824775 
L 123.421802 149.298793 
L 123.580402 145.291553 
L 123.739002 147.266019 
L 124.056202 176.123274 
L 124.214803 128.378263 
L 124.373403 139.157929 
L 124.532003 130.547042 
L 124.690603 144.545261 
L 124.849203 182.272225 
L 125.007803 139.676523 
L 125.166404 158.046063 
L 125.325004 160.828485 
L 125.483604 174.795157 
L 125.642204 129.384086 
L 125.800804 121.341322 
L 125.959404 154.608707 
L 126.118005 128.520158 
L 126.435205 199.063649 
L 126.593805 203.750435 
L 126.752405 148.45872 
L 126.911005 158.182406 
L 127.228206 114.916771 
L 127.386806 196.609875 
L 127.545406 148.825373 
L 127.704006 151.464792 
L 127.862606 132.749673 
L 128.179807 179.36603 
L 128.338407 119.430824 
L 128.497007 176.507602 
L 128.814207 133.811108 
L 128.972808 202.478266 
L 129.290008 125.008397 
L 129.607208 197.326283 
L 129.765808 158.236635 
L 129.924409 152.505693 
L 130.083009 136.266578 
L 130.241609 170.771523 
L 130.558809 139.64004 
L 130.87601 168.89984 
L 131.03461 168.618338 
L 131.19321 146.106726 
L 131.35181 164.714288 
L 131.51041 154.413318 
L 131.66901 164.148283 
L 131.827611 183.719219 
L 131.986211 126.890606 
L 132.144811 145.554505 
L 132.303411 230.270296 
L 132.462011 204.565057 
L 132.620611 137.917422 
L 132.937812 148.671845 
L 133.096412 105.609385 
L 133.255012 174.427704 
L 133.572213 165.530313 
L 133.730813 170.146747 
L 134.048013 153.095437 
L 134.206613 160.278662 
L 134.365213 153.362519 
L 134.523814 190.580551 
L 134.682414 149.227896 
L 134.841014 139.893368 
L 134.999614 163.751711 
L 135.158214 158.820175 
L 135.316814 135.35157 
L 135.634015 188.143849 
L 135.792615 181.920966 
L 135.951215 165.20934 
L 136.268415 184.06215 
L 136.427016 112.513126 
L 136.744216 144.127692 
L 136.902816 148.502066 
L 137.061416 159.73122 
L 137.220016 182.97513 
L 137.378617 131.215944 
L 137.537217 165.265674 
L 137.695817 133.099301 
L 137.854417 162.86083 
L 138.013017 130.064052 
L 138.171617 153.371037 
L 138.330218 148.737096 
L 138.488818 205.634011 
L 138.647418 140.555564 
L 138.806018 148.385863 
L 138.964618 129.873936 
L 139.123218 160.483813 
L 139.281819 144.101742 
L 139.440419 147.380992 
L 139.599019 182.966626 
L 139.757619 142.871882 
L 139.916219 171.097016 
L 140.23342 122.777326 
L 140.39202 136.924946 
L 140.55062 182.770763 
L 140.70922 172.751653 
L 140.86782 138.612299 
L 141.02642 172.346528 
L 141.185021 136.21228 
L 141.343621 158.168967 
L 141.502221 158.636896 
L 141.660821 168.558058 
L 141.819421 158.631788 
L 141.978021 175.833212 
L 142.136622 136.880191 
L 142.295222 185.788713 
L 142.612422 121.088655 
L 142.929622 195.615586 
L 143.088223 141.558402 
L 143.246823 146.277623 
L 143.405423 162.056824 
L 143.564023 161.022927 
L 143.722623 172.995555 
L 143.881223 175.129792 
L 144.039824 126.408967 
L 144.198424 158.123662 
L 144.357024 164.565958 
L 144.515624 165.376249 
L 144.674224 123.456434 
L 144.832824 152.966045 
L 144.991425 159.219139 
L 145.150025 122.987503 
L 145.308625 136.675108 
L 145.467225 130.727077 
L 145.625825 190.569255 
L 145.784426 160.861635 
L 145.943026 168.663936 
L 146.101626 141.985899 
L 146.260226 138.855146 
L 146.418826 189.328445 
L 146.577426 133.363573 
L 146.736027 133.017585 
L 146.894627 182.857206 
L 147.053227 135.850029 
L 147.211827 158.288026 
L 147.370427 139.726175 
L 147.529027 202.641941 
L 147.687628 134.395213 
L 147.846228 151.043857 
L 148.004828 150.326079 
L 148.163428 167.163553 
L 148.322028 169.190154 
L 148.480628 131.88136 
L 148.639229 173.21859 
L 148.797829 161.844223 
L 148.956429 203.018903 
L 149.273629 146.92705 
L 149.432229 172.557052 
L 149.74943 122.493489 
L 149.90803 155.203079 
L 150.06663 133.9997 
L 150.22523 134.805345 
L 150.38383 146.537143 
L 150.542431 123.398562 
L 150.701031 172.299123 
L 150.859631 122.218855 
L 151.018231 169.772922 
L 151.176831 120.703962 
L 151.335431 209.299193 
L 151.494032 133.783812 
L 151.652632 182.217093 
L 151.811232 113.655774 
L 152.128432 150.349654 
L 152.287032 148.673365 
L 152.445633 172.145995 
L 152.604233 159.914937 
L 152.921433 197.853492 
L 153.238633 124.525801 
L 153.397234 180.375506 
L 153.714434 146.904318 
L 153.873034 155.388013 
L 154.031634 223.366844 
L 154.190234 136.789701 
L 154.348835 151.563243 
L 154.507435 132.479416 
L 154.824635 164.771899 
L 154.983235 120.430552 
L 155.141835 154.263426 
L 155.300436 160.79098 
L 155.459036 136.445938 
L 155.776236 134.222364 
L 155.934836 213.391655 
L 156.093436 163.997767 
L 156.410637 131.58194 
L 156.569237 139.692521 
L 156.727837 112.749547 
L 156.886437 152.000401 
L 157.045037 127.68586 
L 157.203638 198.236495 
L 157.520838 129.046271 
L 157.679438 132.437367 
L 157.838038 156.514482 
L 158.313839 124.651064 
L 158.472439 142.585028 
L 158.631039 132.209912 
L 158.789639 148.061141 
L 158.94824 137.576468 
L 159.10684 169.795836 
L 159.26544 159.911367 
L 159.42404 209.507386 
L 159.58264 141.84028 
L 159.74124 144.808877 
L 159.899841 122.994819 
L 160.058441 218.944504 
L 160.375641 127.646248 
L 160.534241 140.032437 
L 160.692841 140.212129 
L 160.851442 145.128354 
L 161.010042 131.032259 
L 161.168642 168.24856 
L 161.327242 133.460012 
L 161.644442 149.405082 
L 161.803043 187.836649 
L 161.961643 145.760809 
L 162.120243 174.376339 
L 162.437443 139.617373 
L 162.596043 134.758622 
L 162.754644 142.976591 
L 162.913244 166.729219 
L 163.071844 166.851794 
L 163.230444 138.771519 
L 163.547644 258.151982 
L 163.706245 148.384864 
L 163.864845 147.601087 
L 164.023445 158.79918 
L 164.182045 143.51801 
L 164.340645 139.305438 
L 164.499245 153.476129 
L 164.657846 149.426057 
L 164.816446 180.641435 
L 164.975046 150.41208 
L 165.133646 168.005624 
L 165.292246 152.858002 
L 165.450846 231.31444 
L 165.768047 148.671866 
L 165.926647 146.122655 
L 166.243847 136.457942 
L 166.402447 183.800684 
L 166.561048 143.527516 
L 166.719648 140.527276 
L 167.036848 164.703683 
L 167.195448 145.041621 
L 167.354048 204.06511 
L 167.512649 131.269303 
L 167.671249 137.000925 
L 167.829849 124.65173 
L 168.147049 203.082756 
L 168.305649 152.366341 
L 168.46425 146.351325 
L 168.62285 134.983574 
L 168.78145 147.484754 
L 168.94005 149.942871 
L 169.09865 134.098158 
L 169.415851 194.744535 
L 169.574451 143.526524 
L 169.733051 152.645467 
L 170.050251 121.739143 
L 170.208851 178.450767 
L 170.367452 138.581599 
L 170.526052 167.949183 
L 170.684652 140.317069 
L 170.843252 137.650308 
L 171.001852 139.740046 
L 171.160453 137.492166 
L 171.319053 177.897027 
L 171.477653 151.224867 
L 171.636253 150.108806 
L 171.794853 210.591133 
L 171.953453 142.791433 
L 172.112054 130.525391 
L 172.270654 212.215378 
L 172.429254 149.211019 
L 172.746454 189.711811 
L 172.905054 128.795263 
L 173.063655 144.608781 
L 173.222255 144.310704 
L 173.380855 163.082967 
L 173.539455 152.078626 
L 173.856655 182.7287 
L 174.015256 152.549836 
L 174.173856 147.598528 
L 174.491056 171.447791 
L 174.649656 130.537519 
L 174.808256 162.994734 
L 175.125457 122.722737 
L 175.442657 149.641815 
L 175.601257 195.407049 
L 175.759857 180.71472 
L 175.918458 149.760872 
L 176.077058 151.460288 
L 176.235658 144.241901 
L 176.394258 179.975368 
L 176.552858 154.940578 
L 176.711458 171.351962 
L 176.870059 167.135335 
L 177.028659 172.284737 
L 177.187259 151.953225 
L 177.345859 153.744597 
L 177.504459 189.873858 
L 177.663059 144.899017 
L 177.82166 131.652133 
L 178.13886 164.738189 
L 178.29746 152.298615 
L 178.45606 152.296179 
L 178.61466 139.690024 
L 178.773261 145.375551 
L 178.931861 128.368017 
L 179.090461 133.074621 
L 179.249061 205.458961 
L 179.407661 153.789777 
L 179.566261 187.216068 
L 179.883462 132.697993 
L 180.042062 173.570566 
L 180.200662 161.615143 
L 180.359262 114.447312 
L 180.676463 151.124583 
L 180.835063 138.295537 
L 180.993663 191.33729 
L 181.310863 137.790265 
L 181.469463 185.027898 
L 181.786664 128.526234 
L 181.945264 148.062373 
L 182.103864 153.880797 
L 182.262464 210.963469 
L 182.421064 137.897127 
L 182.579665 178.794963 
L 182.738265 155.137222 
L 182.896865 211.531902 
L 183.055465 153.750156 
L 183.372665 165.847228 
L 183.531266 124.407431 
L 184.007066 172.768277 
L 184.165666 146.71237 
L 184.324267 190.367736 
L 184.800067 162.4948 
L 184.958667 180.055149 
L 185.117267 117.666922 
L 185.275868 169.017409 
L 185.434468 125.093791 
L 185.593068 123.651301 
L 185.910268 219.700301 
L 186.068868 163.63199 
L 186.227469 181.024391 
L 186.544669 145.40553 
L 186.703269 156.234892 
L 186.861869 142.941584 
L 187.020469 153.588551 
L 187.17907 200.814804 
L 187.33767 130.101152 
L 187.49627 162.703959 
L 187.65487 152.824039 
L 187.81347 160.163572 
L 187.97207 133.570242 
L 188.130671 188.98792 
L 188.447871 130.477569 
L 188.606471 146.870785 
L 188.765071 149.819882 
L 188.923671 167.139711 
L 189.082272 128.85631 
L 189.240872 189.183781 
L 189.716672 119.453569 
L 189.875272 123.047238 
L 190.033873 194.23539 
L 190.192473 204.064303 
L 190.351073 125.6294 
L 190.509673 180.161801 
L 190.668273 132.632525 
L 190.826873 162.89176 
L 190.985474 145.003847 
L 191.144074 149.39742 
L 191.302674 147.310116 
L 191.461274 118.183906 
L 191.619874 153.979962 
L 191.778474 151.53649 
L 191.937075 154.822711 
L 192.095675 127.758131 
L 192.412875 264.716 
L 192.571475 176.897165 
L 192.730075 191.667802 
L 192.888676 136.68623 
L 193.047276 216.86656 
L 193.364476 147.474484 
L 193.523076 149.523776 
L 193.681676 183.471583 
L 193.840277 135.387146 
L 193.998877 141.05102 
L 194.157477 135.477286 
L 194.316077 208.957626 
L 194.474677 136.818252 
L 194.633277 149.895028 
L 194.791878 143.944749 
L 194.950478 155.526703 
L 195.109078 158.816497 
L 195.267678 129.499938 
L 195.426278 130.96111 
L 195.743479 145.99318 
L 195.902079 140.022761 
L 196.060679 151.669049 
L 196.219279 153.00127 
L 196.53648 128.302885 
L 196.69508 134.758886 
L 196.85368 206.506814 
L 197.17088 128.569753 
L 197.32948 144.842553 
L 197.488081 144.997039 
L 197.646681 175.326954 
L 197.805281 231.678828 
L 197.963881 125.437231 
L 198.122481 179.553526 
L 198.281081 146.525951 
L 198.439682 144.60733 
L 198.598282 171.686255 
L 198.756882 133.92956 
L 198.915482 162.961679 
L 199.074082 156.299217 
L 199.232682 162.057585 
L 199.391283 151.733424 
L 199.549883 126.085168 
L 199.708483 153.679038 
L 199.867083 129.07818 
L 200.025683 136.683505 
L 200.184283 154.450938 
L 200.342884 147.43201 
L 200.501484 128.891888 
L 200.660084 135.03577 
L 200.818684 231.113028 
L 200.977284 129.764992 
L 201.135884 187.469448 
L 201.294485 168.370802 
L 201.453085 112.813663 
L 201.611685 126.359263 
L 201.770285 193.55815 
L 201.928885 155.881532 
L 202.087485 171.589144 
L 202.246086 149.678602 
L 202.563286 171.57827 
L 202.721886 132.986636 
L 202.880486 161.789472 
L 203.039086 144.756613 
L 203.197687 185.83276 
L 203.356287 159.029985 
L 203.673487 191.955074 
L 203.832087 172.05183 
L 203.990687 199.719427 
L 204.149288 143.807612 
L 204.307888 133.168593 
L 204.466488 139.898087 
L 204.625088 180.556327 
L 204.942288 145.004925 
L 205.100889 158.426852 
L 205.418089 244.560533 
L 205.576689 138.713069 
L 205.735289 128.904083 
L 205.893889 128.549205 
L 206.05249 166.071002 
L 206.21109 134.264935 
L 206.52829 154.461527 
L 206.68689 187.915341 
L 207.004091 144.325969 
L 207.162691 162.021386 
L 207.321291 155.515881 
L 207.479891 133.991357 
L 207.638491 146.842253 
L 207.797091 132.738572 
L 207.955692 162.052979 
L 208.114292 217.144019 
L 208.272892 196.653966 
L 208.431492 145.778214 
L 208.590092 174.040522 
L 208.748693 153.768408 
L 208.907293 155.920495 
L 209.065893 156.345609 
L 209.224493 160.092915 
L 209.383093 205.967857 
L 209.541693 173.430102 
L 209.700294 171.749022 
L 209.858894 120.073791 
L 210.176094 177.086961 
L 210.493294 124.050117 
L 210.651895 146.845368 
L 210.810495 195.66267 
L 210.969095 128.653904 
L 211.127695 170.112856 
L 211.286295 135.140601 
L 211.444895 156.377576 
L 211.603496 125.994314 
L 211.762096 163.813118 
L 211.920696 123.865235 
L 212.079296 144.778258 
L 212.237896 150.845116 
L 212.396496 224.329578 
L 212.555097 140.8454 
L 212.713697 139.146432 
L 212.872297 186.671248 
L 213.189497 120.343147 
L 213.348097 170.434215 
L 213.506698 148.404516 
L 213.665298 109.160924 
L 213.982498 158.834023 
L 214.141098 152.556562 
L 214.458299 175.503342 
L 214.616899 159.763144 
L 214.775499 167.352423 
L 214.934099 141.557495 
L 215.092699 137.666771 
L 215.251299 179.238075 
L 215.4099 149.881553 
L 215.5685 142.452164 
L 215.7271 127.349873 
L 215.8857 170.129993 
L 216.0443 130.566447 
L 216.2029 164.103625 
L 216.361501 145.934638 
L 216.520101 171.626181 
L 216.678701 144.200343 
L 216.837301 162.364727 
L 216.995901 160.978983 
L 217.154501 135.642328 
L 217.313102 173.037169 
L 217.630302 145.203099 
L 217.788902 143.322362 
L 218.423303 180.272899 
L 218.740503 146.235181 
L 218.899103 134.175467 
L 219.057703 139.779106 
L 219.216304 176.582557 
L 219.374904 131.41266 
L 219.533504 204.264088 
L 219.692104 144.773454 
L 219.850704 177.438225 
L 220.009304 115.490976 
L 220.167905 148.282775 
L 220.326505 147.610678 
L 220.485105 153.590828 
L 220.643705 134.422582 
L 220.802305 178.425428 
L 220.960905 130.014076 
L 221.119506 140.074209 
L 221.278106 127.679655 
L 221.436706 124.697323 
L 221.595306 142.199859 
L 221.753906 142.174223 
L 222.229707 194.118772 
L 222.388307 159.54978 
L 222.546907 178.96982 
L 222.705507 123.448597 
L 222.864108 125.44285 
L 223.022708 165.230404 
L 223.181308 140.7477 
L 223.339908 148.39312 
L 223.498508 170.864906 
L 223.657108 140.041009 
L 223.815709 149.165108 
L 223.974309 168.326628 
L 224.132909 165.374068 
L 224.291509 138.150979 
L 224.608709 184.24963 
L 224.76731 217.883072 
L 224.92591 131.230068 
L 225.08451 157.541565 
L 225.24311 124.287332 
L 225.40171 132.496448 
L 225.56031 148.670333 
L 225.718911 127.167699 
L 225.877511 261.772036 
L 226.036111 142.504602 
L 226.194711 141.959383 
L 226.353311 134.481631 
L 226.511911 163.830409 
L 226.670512 158.050159 
L 226.829112 142.295131 
L 227.146312 158.358992 
L 227.304912 153.018139 
L 227.463512 212.051039 
L 227.622113 153.193078 
L 227.780713 154.114114 
L 228.097913 124.681291 
L 228.256513 176.715981 
L 228.415113 162.956206 
L 228.573714 139.136643 
L 228.732314 147.486346 
L 228.890914 167.716701 
L 229.049514 121.643275 
L 229.208114 169.937696 
L 229.366714 168.565414 
L 229.525315 158.210917 
L 229.683915 201.30056 
L 229.842515 144.108084 
L 230.001115 156.594177 
L 230.159715 155.626339 
L 230.318315 145.829264 
L 230.476916 211.114583 
L 230.635516 128.197585 
L 230.794116 162.114024 
L 230.952716 126.813447 
L 231.269916 201.352926 
L 231.428517 137.130793 
L 231.587117 168.625249 
L 231.904317 130.717123 
L 232.062917 170.68405 
L 232.221517 139.482562 
L 232.380118 140.514972 
L 232.855918 164.360085 
L 233.014518 113.980031 
L 233.173118 191.249108 
L 233.331719 140.292092 
L 233.490319 147.804751 
L 233.648919 145.782856 
L 233.807519 142.336876 
L 234.12472 128.457013 
L 234.28332 145.692112 
L 234.44192 118.842943 
L 234.60052 126.068249 
L 234.75912 150.441508 
L 234.91772 141.686478 
L 235.076321 168.712905 
L 235.234921 167.435766 
L 235.393521 159.132529 
L 235.552121 136.845019 
L 235.710721 158.313295 
L 235.869321 135.120006 
L 236.027922 184.120225 
L 236.186522 169.704881 
L 236.345122 183.6332 
L 236.503722 177.629169 
L 236.662322 126.749871 
L 236.820922 144.213468 
L 236.979523 133.088211 
L 237.296723 142.647254 
L 237.455323 154.148183 
L 237.772523 190.418121 
L 237.931124 142.129822 
L 238.089724 155.878813 
L 238.248324 153.1018 
L 238.406924 139.949279 
L 238.565524 153.098166 
L 238.724124 132.34829 
L 238.882725 205.830623 
L 239.358525 125.582345 
L 239.517125 147.522013 
L 239.834326 152.348023 
L 239.992926 132.309433 
L 240.151526 162.525997 
L 240.310126 118.851635 
L 240.468726 209.073616 
L 240.627326 200.184937 
L 240.785927 139.560771 
L 240.944527 143.253285 
L 241.261727 180.42082 
L 241.420327 130.375377 
L 241.578927 122.005072 
L 241.737528 176.074686 
L 241.896128 149.277495 
L 242.054728 171.823029 
L 242.213328 219.318855 
L 242.530528 115.280229 
L 242.847729 159.522317 
L 243.006329 146.02527 
L 243.164929 162.476131 
L 243.323529 123.019425 
L 243.64073 249.051144 
L 243.79933 133.263527 
L 243.95793 123.439882 
L 244.11653 133.565633 
L 244.27513 183.795834 
L 244.592331 150.03785 
L 244.750931 137.844351 
L 244.909531 171.223727 
L 245.385331 129.33671 
L 245.702532 164.014194 
L 245.861132 171.414751 
L 246.019732 144.533626 
L 246.178332 154.634366 
L 246.336932 144.587006 
L 246.495533 145.745494 
L 246.654133 234.990391 
L 246.812733 139.057942 
L 246.971333 153.133598 
L 247.129933 139.805934 
L 247.288534 140.005614 
L 247.447134 195.005438 
L 247.605734 166.273325 
L 247.764334 161.199653 
L 247.922934 141.420129 
L 248.081534 221.3081 
L 248.398735 142.625872 
L 248.557335 178.324075 
L 248.715935 168.376533 
L 248.874535 147.855777 
L 249.033135 171.482335 
L 249.191736 162.049795 
L 249.350336 179.341081 
L 249.667536 131.270509 
L 249.826136 171.164308 
L 249.984736 166.175501 
L 250.143337 122.07709 
L 250.301937 169.604367 
L 250.460537 176.9935 
L 250.619137 145.970306 
L 250.777737 146.880174 
L 250.936337 128.193312 
L 251.094938 170.90655 
L 251.253538 127.708301 
L 251.412138 142.756681 
L 251.570738 142.822609 
L 251.729338 151.081147 
L 251.887938 149.760708 
L 252.046539 137.636366 
L 252.205139 149.262766 
L 252.363739 142.76428 
L 252.680939 139.408823 
L 252.839539 136.040027 
L 252.99814 163.404478 
L 253.15674 139.337903 
L 253.31534 135.356007 
L 253.47394 153.621832 
L 253.63254 147.984545 
L 253.949741 124.395797 
L 254.108341 124.959026 
L 254.266941 143.396653 
L 254.584141 146.169707 
L 254.742741 144.033674 
L 254.901342 146.325782 
L 255.059942 123.247306 
L 255.218542 128.724526 
L 255.377142 127.43358 
L 255.694342 136.512202 
L 256.011543 204.509912 
L 256.170143 200.98001 
L 256.328743 156.479964 
L 256.487343 173.877369 
L 256.645943 144.018738 
L 256.804544 146.019695 
L 256.963144 159.904325 
L 257.121744 158.743353 
L 257.280344 159.856979 
L 257.438944 162.67243 
L 257.597544 159.888942 
L 257.756145 154.232102 
L 257.914745 132.159963 
L 258.073345 130.23159 
L 258.231945 123.688662 
L 258.390545 158.946889 
L 258.549145 122.667701 
L 258.707746 173.095687 
L 258.866346 134.316531 
L 259.024946 140.773685 
L 259.183546 257.94283 
L 259.342146 231.102778 
L 259.500747 135.72537 
L 259.659347 174.184835 
L 259.817947 142.127244 
L 259.976547 188.678649 
L 260.135147 186.427121 
L 260.293747 111.520978 
L 260.452348 130.197638 
L 260.610948 187.015805 
L 260.769548 148.66751 
L 260.928148 162.728236 
L 261.086748 125.791885 
L 261.245348 148.38403 
L 261.403949 120.307631 
L 261.562549 148.55933 
L 261.721149 203.092098 
L 261.879749 118.51094 
L 262.038349 148.501398 
L 262.196949 145.879507 
L 262.35555 136.691913 
L 262.51415 182.389437 
L 262.67275 160.556849 
L 262.83135 179.74457 
L 262.98995 128.258586 
L 263.14855 167.750406 
L 263.307151 135.836536 
L 263.465751 152.9703 
L 263.624351 183.003588 
L 263.782951 123.474713 
L 263.941551 175.647659 
L 264.100151 129.55256 
L 264.417352 171.978185 
L 264.575952 131.08869 
L 264.734552 160.127112 
L 264.893152 120.749783 
L 265.051752 211.261183 
L 265.210353 129.591536 
L 265.368953 131.46649 
L 265.527553 141.59277 
L 265.686153 141.051908 
L 265.844753 134.079 
L 266.003353 166.167764 
L 266.161954 160.383115 
L 266.320554 134.626919 
L 266.479154 144.763983 
L 266.637754 130.297288 
L 266.796354 172.388899 
L 266.954954 177.42326 
L 267.113555 175.112138 
L 267.430755 130.400033 
L 267.589355 166.955914 
L 267.747955 159.732631 
L 267.906555 169.38052 
L 268.065156 134.408165 
L 268.223756 147.339714 
L 268.382356 145.751512 
L 268.540956 197.73873 
L 268.699556 119.084734 
L 268.858156 155.483755 
L 269.016757 133.060469 
L 269.175357 130.89128 
L 269.333957 140.017909 
L 269.492557 140.630688 
L 269.651157 137.635173 
L 269.809757 143.671089 
L 269.968358 185.999389 
L 270.126958 147.630776 
L 270.444158 155.882607 
L 270.602758 145.842653 
L 270.761358 166.89262 
L 270.919959 172.092015 
L 271.078559 181.717209 
L 271.395759 135.640862 
L 271.554359 187.734847 
L 271.71296 147.34156 
L 272.03016 176.231615 
L 272.18876 213.416009 
L 272.50596 138.943558 
L 272.664561 182.5708 
L 272.823161 168.575635 
L 272.981761 112.241851 
L 273.140361 160.383704 
L 273.298961 125.983486 
L 273.457561 131.083868 
L 273.616162 149.459895 
L 273.774762 143.791378 
L 273.933362 120.232102 
L 274.091962 178.937409 
L 274.250562 155.107921 
L 274.409162 148.84944 
L 274.567763 120.847348 
L 274.726363 151.740887 
L 275.043563 160.79594 
L 275.360763 124.730898 
L 275.519364 127.004463 
L 275.677964 164.96738 
L 275.836564 136.195211 
L 276.153764 187.767527 
L 276.312364 141.993629 
L 276.470965 147.473514 
L 276.629565 143.662214 
L 276.946765 167.312729 
L 277.263965 143.995654 
L 277.422566 156.062669 
L 277.581166 133.67455 
L 277.739766 144.327128 
L 277.898366 140.964506 
L 278.056966 144.41184 
L 278.215566 170.217023 
L 278.374167 170.60711 
L 278.532767 173.822207 
L 278.691367 161.677161 
L 278.849967 130.303441 
L 279.008567 154.501764 
L 279.167167 243.236155 
L 279.325768 147.95618 
L 279.484368 143.237591 
L 279.642968 158.862709 
L 279.801568 128.845018 
L 280.118768 149.931612 
L 280.277369 204.872541 
L 280.435969 138.313585 
L 280.594569 124.528689 
L 280.753169 128.787675 
L 280.911769 125.896547 
L 281.22897 111.91499 
L 281.38757 84.505804 
L 281.54617 76.391205 
L 281.70477 22.796 
L 282.339171 120.071818 
L 282.497771 118.565572 
L 282.656371 150.967194 
L 282.814971 155.282544 
L 282.973571 170.803561 
L 283.290772 125.428514 
L 283.449372 164.305617 
L 283.766572 130.023205 
L 283.925172 133.994245 
L 284.083773 184.615772 
L 284.242373 176.9972 
L 284.400973 127.439631 
L 284.559573 160.876275 
L 284.876774 133.129413 
L 285.193974 176.774165 
L 285.352574 129.102539 
L 285.511174 139.432325 
L 285.669774 174.400442 
L 285.828375 166.2486 
L 285.986975 131.492941 
L 286.304175 148.233271 
L 286.462775 137.509235 
L 286.621375 137.88852 
L 286.779976 148.237848 
L 286.938576 136.966891 
L 287.097176 134.74187 
L 287.255776 142.876439 
L 287.414376 127.491317 
L 287.572976 182.200135 
L 287.731577 148.548431 
L 287.890177 143.586404 
L 288.048777 151.237466 
L 288.207377 180.534546 
L 288.365977 181.152176 
L 288.524577 128.776724 
L 288.683178 136.324142 
L 288.841778 131.605823 
L 289.000378 164.399454 
L 289.158978 167.050038 
L 289.317578 166.880879 
L 289.476178 153.785574 
L 289.634779 112.388637 
L 289.793379 194.784885 
L 289.951979 147.09651 
L 290.110579 143.11585 
L 290.269179 156.594951 
L 290.58638 135.212858 
L 290.90358 200.136609 
L 291.06218 119.317045 
L 291.22078 190.70548 
L 291.37938 125.462575 
L 291.855181 177.825593 
L 292.013781 143.651947 
L 292.172381 150.786172 
L 292.330981 140.116896 
L 292.489582 149.052293 
L 292.648182 183.454889 
L 292.806782 143.387551 
L 292.965382 188.514973 
L 293.282582 152.550301 
L 293.441183 188.217398 
L 293.599783 157.042931 
L 293.758383 156.789781 
L 293.916983 153.487161 
L 294.075583 153.120173 
L 294.234183 167.720782 
L 294.392784 121.767048 
L 294.551384 221.201915 
L 294.709984 164.816804 
L 294.868584 211.8438 
L 295.027184 177.058578 
L 295.185784 174.622352 
L 295.344385 141.3929 
L 295.502985 250.864718 
L 295.661585 154.939434 
L 295.820185 177.611556 
L 296.137385 121.485229 
L 296.295986 168.860649 
L 296.454586 155.983361 
L 296.613186 158.504566 
L 296.930386 145.856022 
L 297.088987 159.919112 
L 297.247587 153.025496 
L 297.406187 133.030542 
L 297.564787 159.387586 
L 297.723387 137.68328 
L 297.881987 160.342169 
L 298.040588 218.377147 
L 298.357788 140.398416 
L 298.516388 161.225948 
L 298.674988 233.713482 
L 298.833588 189.177348 
L 298.992189 179.111787 
L 299.150789 142.774803 
L 299.309389 208.079591 
L 299.467989 119.680776 
L 299.626589 160.654123 
L 299.785189 154.572174 
L 299.94379 143.071796 
L 300.10239 158.472457 
L 300.26099 157.562644 
L 300.41959 192.697687 
L 300.57819 148.579027 
L 300.73679 172.368122 
L 300.895391 137.903271 
L 301.053991 129.516819 
L 301.212591 134.88636 
L 301.371191 182.755187 
L 301.529791 139.130301 
L 301.688391 147.791942 
L 301.846992 163.150718 
L 302.005592 207.895657 
L 302.164192 158.246218 
L 302.639992 132.413444 
L 302.798593 145.387155 
L 303.115793 127.114406 
L 303.274393 170.101319 
L 303.432993 153.307088 
L 303.591593 152.095226 
L 303.750194 125.928657 
L 303.908794 135.988127 
L 304.067394 175.865825 
L 304.225994 130.051844 
L 304.384594 221.772631 
L 304.701795 142.925206 
L 305.018995 171.109992 
L 305.177595 138.658402 
L 305.336195 155.134402 
L 305.494795 203.594372 
L 305.653396 134.977856 
L 305.811996 149.647091 
L 305.970596 221.41373 
L 306.129196 147.97115 
L 306.287796 170.937721 
L 306.604997 119.532927 
L 306.763597 170.53617 
L 306.922197 152.956534 
L 307.080797 159.343071 
L 307.239397 116.627888 
L 307.397997 156.641448 
L 307.556598 156.019212 
L 307.715198 154.226795 
L 307.873798 160.47805 
L 308.032398 211.630695 
L 308.349598 144.118233 
L 308.666799 126.463855 
L 308.825399 118.891123 
L 308.983999 181.140376 
L 309.142599 137.895698 
L 309.301199 162.085759 
L 309.4598 137.623201 
L 309.6184 168.543706 
L 309.777 160.74251 
L 309.9356 160.586441 
L 310.0942 197.084195 
L 310.252801 155.515276 
L 310.411401 240.328669 
L 310.887201 141.658761 
L 311.045801 166.459088 
L 311.204402 117.293615 
L 311.363002 194.188779 
L 311.521602 144.189347 
L 311.680202 175.217637 
L 311.838802 131.430091 
L 311.997402 134.936072 
L 312.156003 157.196246 
L 312.314603 136.251344 
L 312.631803 167.075006 
L 312.790403 154.386019 
L 312.949003 153.688538 
L 313.107604 130.532034 
L 313.266204 139.13224 
L 313.424804 125.755908 
L 313.583404 181.296011 
L 313.742004 137.289004 
L 314.059205 159.413222 
L 314.217805 182.734382 
L 314.376405 140.937445 
L 314.535005 166.186077 
L 314.693605 148.098264 
L 314.852205 197.351892 
L 315.010806 139.366775 
L 315.169406 170.527406 
L 315.328006 169.41176 
L 315.486606 136.348316 
L 315.645206 135.684561 
L 315.962407 196.174277 
L 316.279607 136.237208 
L 316.438207 159.569345 
L 316.596807 143.723479 
L 316.755407 139.598722 
L 316.914008 155.855362 
L 317.072608 121.820042 
L 317.231208 186.954057 
L 317.389808 130.424533 
L 317.548408 134.144105 
L 317.707008 199.237794 
L 317.865609 141.176486 
L 318.024209 130.880841 
L 318.182809 164.83675 
L 318.341409 152.504009 
L 318.500009 131.244536 
L 318.658609 171.845075 
L 318.81721 124.173141 
L 318.97581 117.076714 
L 319.13441 139.120771 
L 319.29301 143.596108 
L 319.45161 218.273132 
L 319.768811 149.445362 
L 319.927411 163.653927 
L 320.244611 115.259681 
L 320.403211 117.43512 
L 320.561811 174.225573 
L 320.720412 172.614639 
L 321.037612 138.760006 
L 321.196212 138.00651 
L 321.354812 185.657937 
L 321.513412 158.82589 
L 321.672013 169.444358 
L 321.830613 143.642193 
L 321.989213 149.853733 
L 322.147813 186.711763 
L 322.306413 174.742519 
L 322.465014 148.269399 
L 322.623614 141.902897 
L 322.782214 140.074974 
L 322.940814 147.11301 
L 323.099414 194.237559 
L 323.258014 120.342142 
L 323.416615 149.200277 
L 323.575215 151.239507 
L 323.733815 132.724751 
L 323.892415 217.637382 
L 324.051015 169.706203 
L 324.209615 175.899955 
L 324.526816 130.016955 
L 324.685416 179.603634 
L 325.002616 132.087901 
L 325.161216 157.024558 
L 325.319817 138.363109 
L 325.478417 148.371614 
L 325.637017 122.756209 
L 325.795617 159.621309 
L 325.954217 163.298299 
L 326.112817 174.933844 
L 326.430018 134.725868 
L 326.747218 215.680314 
L 326.905818 217.923627 
L 327.064418 118.992085 
L 327.223019 146.782511 
L 327.381619 136.651336 
L 327.698819 170.607621 
L 327.857419 134.426055 
L 328.016019 133.407242 
L 328.17462 147.693187 
L 328.33322 120.970064 
L 328.49182 192.487182 
L 328.80902 123.728506 
L 328.96762 171.900813 
L 329.126221 151.728038 
L 329.284821 174.401711 
L 329.443421 152.164502 
L 329.602021 163.727374 
L 329.919221 145.159385 
L 330.077822 170.785995 
L 330.236422 178.005169 
L 330.395022 195.102752 
L 330.553622 141.663907 
L 330.712222 142.010491 
L 330.870822 170.061406 
L 331.029423 167.946805 
L 331.505223 137.01701 
L 331.663823 160.571602 
L 331.822423 160.414988 
L 331.981024 118.686371 
L 332.298224 197.188883 
L 332.456824 134.743786 
L 332.615424 131.811275 
L 332.774024 163.708084 
L 332.932625 134.714652 
L 333.091225 159.431917 
L 333.249825 139.189543 
L 333.408425 163.899255 
L 333.567025 160.966067 
L 333.725625 125.67113 
L 334.042826 193.695301 
L 334.201426 127.956961 
L 334.360026 155.147727 
L 334.518626 129.315994 
L 334.677226 169.656708 
L 335.153027 123.450214 
L 335.311627 167.877823 
L 335.470227 162.849637 
L 335.628828 168.432532 
L 335.946028 128.03301 
L 336.263228 181.861492 
L 336.580429 144.210486 
L 336.739029 143.186636 
L 336.897629 190.332754 
L 337.214829 122.872612 
L 337.373429 177.074633 
L 337.53203 141.057674 
L 337.69063 141.881957 
L 338.00783 122.934411 
L 338.16643 167.830398 
L 338.32503 174.102071 
L 338.483631 127.512991 
L 338.959431 175.334315 
L 339.118031 163.142296 
L 339.276631 137.39505 
L 339.435232 169.049386 
L 339.593832 130.18853 
L 339.752432 146.666329 
L 339.911032 140.556208 
L 340.069632 172.422821 
L 340.228232 143.063604 
L 340.386833 177.453883 
L 340.545433 161.983092 
L 340.704033 188.565228 
L 340.862633 131.210807 
L 341.179833 228.401065 
L 341.655634 134.186157 
L 341.814234 143.613389 
L 341.972834 141.619837 
L 342.131434 168.772037 
L 342.448635 130.983997 
L 342.607235 137.624059 
L 342.924435 162.2403 
L 343.083035 161.670337 
L 343.241636 123.119417 
L 343.558836 201.909212 
L 343.717436 149.933669 
L 343.876036 136.973172 
L 344.034636 142.057106 
L 344.193237 126.815633 
L 344.510437 200.964936 
L 344.669037 142.168242 
L 344.827637 167.138561 
L 344.986237 139.375602 
L 345.144838 152.195926 
L 345.303438 174.280649 
L 345.462038 180.111238 
L 345.620638 148.639848 
L 345.779238 203.75593 
L 346.096439 151.940164 
L 346.255039 153.644694 
L 346.572239 167.656425 
L 346.889439 119.332646 
L 347.04804 129.063259 
L 347.20664 128.879581 
L 347.36524 147.338548 
L 347.52384 130.986092 
L 347.841041 162.376986 
L 347.999641 139.13633 
L 348.158241 152.836984 
L 348.316841 150.115466 
L 348.475441 173.538643 
L 348.634041 178.129924 
L 348.792642 155.879612 
L 348.951242 212.956867 
L 349.109842 137.076675 
L 349.268442 154.079352 
L 349.427042 137.113808 
L 349.585642 181.896341 
L 349.744243 194.57463 
L 349.902843 153.4011 
L 350.061443 151.337034 
L 350.378643 187.679893 
L 350.537243 185.163623 
L 350.695844 141.783434 
L 350.854444 156.214682 
L 351.013044 115.624378 
L 351.171644 128.869026 
L 351.330244 248.597214 
L 351.488844 138.462196 
L 351.647445 143.042747 
L 351.806045 136.763614 
L 351.964645 135.131246 
L 352.123245 147.751883 
L 352.281845 191.155371 
L 352.440445 148.686811 
L 352.599046 184.46055 
L 352.757646 150.009265 
L 352.916246 150.219575 
L 353.233446 190.115432 
L 353.392046 169.192006 
L 353.550647 189.244158 
L 353.709247 159.861076 
L 353.867847 209.255205 
L 354.026447 142.623193 
L 354.185047 126.38648 
L 354.343647 150.463726 
L 354.502248 155.358026 
L 354.660848 153.942831 
L 354.819448 131.768763 
L 354.978048 154.919776 
L 355.136648 153.104698 
L 355.295248 118.241935 
L 355.453849 148.758017 
L 355.612449 139.806306 
L 355.771049 174.912229 
L 355.929649 167.13379 
L 356.088249 140.790368 
L 356.246849 133.700478 
L 356.56405 177.651257 
L 356.72265 222.602585 
L 356.88125 132.790398 
L 357.03985 135.656672 
L 357.357051 208.76263 
L 357.515651 155.796009 
L 357.674251 195.683845 
L 357.832851 116.880726 
L 358.150051 188.213976 
L 358.308652 179.519603 
L 358.625852 140.107121 
L 358.784452 140.880027 
L 358.943052 123.004767 
L 359.260253 162.528034 
L 359.418853 131.701106 
L 359.577453 143.113891 
L 359.736053 129.909616 
L 359.894653 169.146604 
L 360.053254 142.534215 
L 360.211854 163.295012 
L 360.370454 157.644296 
L 360.529054 203.240104 
L 360.687654 155.838532 
L 360.846254 148.899805 
L 361.004855 152.67482 
L 361.163455 151.264345 
L 361.322055 161.859532 
L 361.480655 147.10382 
L 361.639255 119.469314 
L 361.797855 149.823653 
L 361.956456 135.79254 
L 362.115056 154.120645 
L 362.273656 133.89559 
L 362.432256 135.632703 
L 362.590856 139.595373 
L 362.749456 178.634364 
L 362.908057 148.388537 
L 363.066657 163.590597 
L 363.225257 141.412997 
L 363.383857 138.212783 
L 363.701057 165.335984 
L 363.859658 165.15339 
L 364.335458 131.352974 
L 364.494058 147.624971 
L 364.652658 133.571443 
L 364.811259 168.740106 
L 364.969859 145.048922 
L 365.128459 149.465992 
L 365.445659 193.640407 
L 365.604259 186.632919 
L 365.76286 125.407452 
L 366.08006 164.083343 
L 366.23866 162.50357 
L 366.39726 152.721946 
L 366.55586 159.138667 
L 366.714461 147.214724 
L 366.873061 158.617547 
L 367.031661 130.945069 
L 367.190261 163.367696 
L 367.348861 164.038335 
L 367.507461 137.529304 
L 367.666062 142.961337 
L 367.983262 211.834591 
L 368.141862 142.602778 
L 368.300462 207.085656 
L 368.459062 164.054999 
L 368.617663 191.061588 
L 368.776263 133.224818 
L 368.934863 131.079991 
L 369.410663 171.376066 
L 369.569264 175.697306 
L 369.727864 136.92852 
L 369.886464 135.23921 
L 370.203664 164.046246 
L 370.362264 135.016843 
L 370.679465 182.879037 
L 370.838065 125.3769 
L 370.996665 145.336849 
L 371.155265 112.318216 
L 371.313865 146.412667 
L 371.472466 147.560896 
L 371.631066 137.82114 
L 371.789666 140.511325 
L 372.106866 200.415241 
L 372.424067 152.429248 
L 372.582667 129.745126 
L 372.741267 174.925681 
L 372.899867 165.000189 
L 373.058467 185.448191 
L 373.217068 241.611607 
L 373.375668 137.342345 
L 373.534268 137.488962 
L 373.692868 163.115065 
L 373.851468 164.978306 
L 374.010068 150.556837 
L 374.168669 158.564649 
L 374.327269 182.859581 
L 374.644469 133.273175 
L 374.803069 177.747905 
L 374.961669 133.672243 
L 375.12027 138.301818 
L 375.27887 154.376192 
L 375.43747 138.215243 
L 375.59607 133.76391 
L 375.91327 165.719872 
L 376.071871 123.268988 
L 376.230471 142.41391 
L 376.389071 176.991857 
L 376.547671 143.847448 
L 376.706271 153.044621 
L 376.864871 126.646404 
L 377.023472 167.091961 
L 377.182072 127.84349 
L 377.340672 126.492554 
L 377.657872 168.782355 
L 377.816472 137.332551 
L 378.133673 200.589114 
L 378.292273 133.877101 
L 378.450873 135.092815 
L 378.609473 140.076324 
L 378.768073 165.28876 
L 378.926674 157.195683 
L 379.085274 174.51721 
L 379.243874 132.637902 
L 379.402474 120.34852 
L 379.561074 192.156928 
L 379.719674 161.420744 
L 379.878275 153.520632 
L 380.036875 159.506457 
L 380.195475 141.377089 
L 380.354075 142.179475 
L 380.512675 162.732981 
L 380.671275 130.022058 
L 380.829876 171.547705 
L 381.147076 151.779867 
L 381.305676 180.805606 
L 381.464276 160.59136 
L 381.622876 159.548953 
L 381.781477 147.064634 
L 382.098677 174.786578 
L 382.257277 128.752511 
L 382.415877 133.014922 
L 382.574477 145.714761 
L 382.733078 217.934975 
L 382.891678 144.245075 
L 383.208878 205.091791 
L 383.367478 130.975825 
L 383.526078 145.798431 
L 383.684679 149.553801 
L 383.843279 175.206797 
L 384.001879 129.010028 
L 384.160479 123.118129 
L 384.477679 169.734038 
L 384.63628 142.49059 
L 384.79488 184.873362 
L 384.95348 154.841407 
L 385.11208 159.438589 
L 385.27068 155.9643 
L 385.587881 137.244687 
L 385.746481 153.305827 
L 385.905081 206.37685 
L 386.063681 126.935201 
L 386.222281 230.451029 
L 386.380882 201.548618 
L 386.539482 140.172868 
L 386.698082 142.46361 
L 386.856682 205.606963 
L 387.173882 122.25483 
L 387.491083 186.534644 
L 387.649683 177.751701 
L 387.808283 179.679483 
L 387.966883 152.734734 
L 388.125483 158.615941 
L 388.284084 145.90441 
L 388.442684 146.894568 
L 388.601284 145.157981 
L 388.759884 147.941826 
L 388.918484 225.607545 
L 389.077084 138.900852 
L 389.235685 148.83899 
L 389.394285 127.426216 
L 389.552885 122.429345 
L 389.711485 178.369849 
L 389.870085 163.527263 
L 389.870085 163.527263 
" style="fill:none;stroke:#1f77b4;stroke-linecap:square;stroke-width:1.5;"/>
   </g>
   <g id="patch_3">
    <path d="M 48.982813 276.812 
L 48.982813 10.7 
" style="fill:none;stroke:#000000;stroke-linecap:square;stroke-linejoin:miter;stroke-width:0.8;"/>
   </g>
   <g id="patch_4">
    <path d="M 406.102813 276.812 
L 406.102813 10.7 
" style="fill:none;stroke:#000000;stroke-linecap:square;stroke-linejoin:miter;stroke-width:0.8;"/>
   </g>
   <g id="patch_5">
    <path d="M 48.982813 276.812 
L 406.102813 276.812 
" style="fill:none;stroke:#000000;stroke-linecap:square;stroke-linejoin:miter;stroke-width:0.8;"/>
   </g>
   <g id="patch_6">
    <path d="M 48.982813 10.7 
L 406.102813 10.7 
" style="fill:none;stroke:#000000;stroke-linecap:square;stroke-linejoin:miter;stroke-width:0.8;"/>
   </g>
  </g>
 </g>
 <defs>
  <clipPath id="p6ce79ced47">
   <rect height="266.112" width="357.12" x="48.982813" y="10.7"/>
  </clipPath>
 </defs>
</svg>
