<svg width="576" height="192" xmlns="http://www.w3.org/2000/svg" xmlns:xlink="http://www.w3.org/1999/xlink" overflow="hidden"><defs><clipPath id="clip0"><rect x="0" y="0" width="576" height="192"/></clipPath></defs><g clip-path="url(#clip0)"><rect x="0" y="0" width="576" height="192" fill="#FFFFFF"/><path d="M357 132 364.5 102 413.5 102 421 132Z" fill="#FFC000" fill-rule="evenodd"/><path d="M214 133 230 11 262 11 278 133Z" fill="#70AD47" fill-rule="evenodd"/><path d="M101 133 141.5 55 182 133Z" fill="#4472C4" fill-rule="evenodd"/><path d="M24.9999 132 458.23 132 458.23 135 24.9999 135ZM26.5001 138 17.5001 133.5 26.5001 129ZM456.73 129 465.73 133.5 456.73 138Z"/><path d="M40 122 40.0001 140.67" stroke="#000000" stroke-width="2" stroke-miterlimit="8" fill="none" fill-rule="evenodd"/><path d="M433 124 433 142.67" stroke="#000000" stroke-width="2" stroke-miterlimit="8" fill="none" fill-rule="evenodd"/><text font-family="Times New Roman,Times New Roman_MSFontService,sans-serif" font-style="italic" font-weight="400" font-size="24" transform="translate(477.729 137)">frequency</text><path d="M246 124 246 142.67" stroke="#000000" stroke-width="2" stroke-miterlimit="8" fill="none" fill-rule="evenodd"/><text font-family="Times New Roman,Times New Roman_MSFontService,sans-serif" font-style="italic" font-weight="400" font-size="24" transform="translate(198.205 165)">100 MHz<tspan x="197.272" y="3">105 MHz</tspan><tspan x="-190.327" y="1">95 MHz</tspan></text></g></svg>