<?xml version="1.0" encoding="utf-8" standalone="no"?>
<!DOCTYPE svg PUBLIC "-//W3C//DTD SVG 1.1//EN"
  "http://www.w3.org/Graphics/SVG/1.1/DTD/svg11.dtd">
<!-- Created with matplotlib (https://matplotlib.org/) -->
<svg height="187.72pt" version="1.1" viewBox="0 0 365.843835 187.72" width="365.843835pt" xmlns="http://www.w3.org/2000/svg" xmlns:xlink="http://www.w3.org/1999/xlink">
 <defs>
  <style type="text/css">
*{stroke-linecap:butt;stroke-linejoin:round;}
  </style>
 </defs>
 <g id="figure_1">
  <g id="patch_1">
   <path d="M 0 187.72 
L 365.843835 187.72 
L 365.843835 0 
L 0 0 
z
" style="fill:#ffffff;"/>
  </g>
  <g id="axes_1">
   <g id="patch_2">
    <path d="M 10.7 177.02 
L 345.5 177.02 
L 345.5 10.7 
L 10.7 10.7 
z
" style="fill:#ffffff;"/>
   </g>
   <g id="matplotlib.axis_1">
    <g id="xtick_1">
     <g id="line2d_1">
      <defs>
       <path d="M 0 0 
L 0 3.5 
" id="mca3195056d" style="stroke:#000000;stroke-width:0.8;"/>
      </defs>
      <g>
       <use style="stroke:#000000;stroke-width:0.8;" x="25.918182" xlink:href="#mca3195056d" y="87.145594"/>
      </g>
     </g>
    </g>
    <g id="xtick_2">
     <g id="line2d_2">
      <g>
       <use style="stroke:#000000;stroke-width:0.8;" x="58.824137" xlink:href="#mca3195056d" y="87.145594"/>
      </g>
     </g>
    </g>
    <g id="xtick_3">
     <g id="line2d_3">
      <g>
       <use style="stroke:#000000;stroke-width:0.8;" x="91.730093" xlink:href="#mca3195056d" y="87.145594"/>
      </g>
     </g>
    </g>
    <g id="xtick_4">
     <g id="line2d_4">
      <g>
       <use style="stroke:#000000;stroke-width:0.8;" x="124.636049" xlink:href="#mca3195056d" y="87.145594"/>
      </g>
     </g>
    </g>
    <g id="xtick_5">
     <g id="line2d_5">
      <g>
       <use style="stroke:#000000;stroke-width:0.8;" x="157.542004" xlink:href="#mca3195056d" y="87.145594"/>
      </g>
     </g>
    </g>
    <g id="xtick_6">
     <g id="line2d_6">
      <g>
       <use style="stroke:#000000;stroke-width:0.8;" x="190.44796" xlink:href="#mca3195056d" y="87.145594"/>
      </g>
     </g>
    </g>
    <g id="xtick_7">
     <g id="line2d_7">
      <g>
       <use style="stroke:#000000;stroke-width:0.8;" x="223.353915" xlink:href="#mca3195056d" y="87.145594"/>
      </g>
     </g>
    </g>
    <g id="xtick_8">
     <g id="line2d_8">
      <g>
       <use style="stroke:#000000;stroke-width:0.8;" x="256.259871" xlink:href="#mca3195056d" y="87.145594"/>
      </g>
     </g>
    </g>
    <g id="xtick_9">
     <g id="line2d_9">
      <g>
       <use style="stroke:#000000;stroke-width:0.8;" x="289.165827" xlink:href="#mca3195056d" y="87.145594"/>
      </g>
     </g>
    </g>
    <g id="xtick_10">
     <g id="line2d_10">
      <g>
       <use style="stroke:#000000;stroke-width:0.8;" x="322.071782" xlink:href="#mca3195056d" y="87.145594"/>
      </g>
     </g>
    </g>
   </g>
   <g id="matplotlib.axis_2">
    <g id="ytick_1">
     <g id="line2d_11">
      <defs>
       <path d="M 0 0 
L -3.5 0 
" id="m4c43f59705" style="stroke:#000000;stroke-width:0.8;"/>
      </defs>
      <g>
       <use style="stroke:#000000;stroke-width:0.8;" x="25.918182" xlink:href="#m4c43f59705" y="154.804096"/>
      </g>
     </g>
    </g>
    <g id="ytick_2">
     <g id="line2d_12">
      <g>
       <use style="stroke:#000000;stroke-width:0.8;" x="25.918182" xlink:href="#m4c43f59705" y="120.974845"/>
      </g>
     </g>
    </g>
    <g id="ytick_3">
     <g id="line2d_13">
      <g>
       <use style="stroke:#000000;stroke-width:0.8;" x="25.918182" xlink:href="#m4c43f59705" y="87.145594"/>
      </g>
     </g>
    </g>
    <g id="ytick_4">
     <g id="line2d_14">
      <g>
       <use style="stroke:#000000;stroke-width:0.8;" x="25.918182" xlink:href="#m4c43f59705" y="53.316343"/>
      </g>
     </g>
    </g>
    <g id="ytick_5">
     <g id="line2d_15">
      <g>
       <use style="stroke:#000000;stroke-width:0.8;" x="25.918182" xlink:href="#m4c43f59705" y="19.487092"/>
      </g>
     </g>
    </g>
   </g>
   <g id="line2d_16">
    <path clip-path="url(#p87fa9cdf5e)" d="M 25.918182 92.166294 
L 28.073522 87.129474 
L 30.557922 80.734456 
L 33.651081 72.118066 
L 40.166461 53.073479 
L 43.703851 43.205955 
L 46.303421 36.590264 
L 48.475214 31.645605 
L 50.38376 27.831248 
L 52.09487 24.891364 
L 53.641449 22.66131 
L 55.039953 21.017368 
L 56.339738 19.822105 
L 57.540805 19.012449 
L 58.659608 18.51934 
L 59.729051 18.287407 
L 60.765589 18.288355 
L 61.802126 18.51277 
L 62.855117 18.969756 
L 63.957466 19.694471 
L 65.125628 20.734836 
L 66.376054 22.154138 
L 67.725198 24.03156 
L 69.189513 26.462027 
L 70.785452 29.554813 
L 72.545921 33.469016 
L 74.503825 38.386942 
L 76.708524 44.5494 
L 79.291642 52.461555 
L 82.549331 63.203445 
L 93.984151 101.566283 
L 96.616627 109.254867 
L 98.903591 115.271585 
L 100.960214 120.07661 
L 102.835853 123.912524 
L 104.563416 126.958191 
L 106.175808 129.365024 
L 107.689481 131.235389 
L 109.104438 132.642016 
L 110.453582 133.678042 
L 111.736914 134.391662 
L 112.98734 134.838285 
L 114.221314 135.046124 
L 115.47174 135.030241 
L 116.755072 134.788656 
L 118.104216 134.303748 
L 119.552078 133.540286 
L 121.131564 132.448611 
L 122.908486 130.939548 
L 124.965108 128.888355 
L 127.531773 125.995372 
L 132.237324 120.274685 
L 135.807621 116.110375 
L 138.242661 113.599993 
L 140.299283 111.7882 
L 142.125564 110.466812 
L 143.803768 109.521416 
L 145.366801 108.891319 
L 146.847569 108.528696 
L 148.295431 108.401298 
L 149.72684 108.499184 
L 151.174702 108.824357 
L 152.65547 109.388492 
L 154.20205 110.219801 
L 155.847348 111.361954 
L 157.640722 112.886665 
L 159.631532 114.882842 
L 161.918496 117.503714 
L 164.797767 121.162697 
L 173.896264 132.98459 
L 176.08451 135.321628 
L 177.96015 137.0117 
L 179.6219 138.220643 
L 181.135574 139.055431 
L 182.534078 139.580095 
L 183.850316 139.842802 
L 185.117195 139.87323 
L 186.367621 139.681145 
L 187.618048 139.262223 
L 188.90138 138.591918 
L 190.217618 137.648873 
L 191.599668 136.379769 
L 193.063983 134.726116 
L 194.627016 132.617459 
L 196.321673 129.944861 
L 198.164406 126.608048 
L 200.188123 122.469641 
L 202.475087 117.269954 
L 205.173375 110.558772 
L 208.79303 100.909224 
L 216.312041 80.73173 
L 219.010329 74.220013 
L 221.231481 69.416608 
L 223.172933 65.729332 
L 224.900495 62.909839 
L 226.447075 60.792571 
L 227.862031 59.216972 
L 229.161817 58.090267 
L 230.362884 57.332746 
L 231.498139 56.874271 
L 232.584036 56.674641 
L 233.637027 56.707182 
L 234.690017 56.964156 
L 235.759461 57.45555 
L 236.878263 58.217627 
L 238.062878 59.298834 
L 239.329757 60.76289 
L 240.695354 62.689294 
L 242.176122 65.173138 
L 243.788514 68.323628 
L 245.565435 72.299623 
L 247.539793 77.28237 
L 249.777398 83.558626 
L 252.393421 91.58827 
L 255.766282 102.711924 
L 265.901316 136.624644 
L 268.566698 144.499719 
L 270.853662 150.588246 
L 272.877379 155.368648 
L 274.720112 159.169978 
L 276.398316 162.141006 
L 277.944896 164.444827 
L 279.376305 166.19488 
L 280.708996 167.488428 
L 281.975875 168.4159 
L 283.176943 169.023626 
L 284.328651 169.360208 
L 285.463907 169.459534 
L 286.599162 169.332787 
L 287.750871 168.979349 
L 288.968391 168.367837 
L 290.268176 167.456857 
L 291.666679 166.195427 
L 293.196806 164.505054 
L 294.891463 162.289788 
L 296.800008 159.416945 
L 299.037613 155.627981 
L 301.818167 150.455453 
L 306.638889 140.920229 
L 310.867304 132.766132 
L 313.614952 127.939106 
L 315.918369 124.327047 
L 317.958538 121.528447 
L 319.817724 119.344794 
L 321.545287 117.651166 
L 323.157679 116.373399 
L 324.687806 115.435902 
L 326.168574 114.783566 
L 327.616436 114.384425 
L 329.064298 114.214318 
L 330.281818 114.241233 
L 330.281818 114.241233 
" style="fill:none;stroke:#008000;stroke-linecap:square;stroke-width:1.5;"/>
   </g>
   <g id="line2d_17">
    <defs>
     <path d="M 0 3.75 
C 0.994512 3.75 1.948425 3.354876 2.65165 2.65165 
C 3.354876 1.948425 3.75 0.994512 3.75 0 
C 3.75 -0.994512 3.354876 -1.948425 2.65165 -2.65165 
C 1.948425 -3.354876 0.994512 -3.75 0 -3.75 
C -0.994512 -3.75 -1.948425 -3.354876 -2.65165 -2.65165 
C -3.354876 -1.948425 -3.75 -0.994512 -3.75 0 
C -3.75 0.994512 -3.354876 1.948425 -2.65165 2.65165 
C -1.948425 3.354876 -0.994512 3.75 0 3.75 
z
" id="m1a4b43e998" style="stroke:#0000ff;"/>
    </defs>
    <g clip-path="url(#p87fa9cdf5e)">
     <use style="fill:#0000ff;stroke:#0000ff;" x="25.918182" xlink:href="#m1a4b43e998" y="92.166294"/>
     <use style="fill:#0000ff;stroke:#0000ff;" x="58.824137" xlink:href="#m1a4b43e998" y="18.468347"/>
     <use style="fill:#0000ff;stroke:#0000ff;" x="91.730093" xlink:href="#m1a4b43e998" y="94.454719"/>
     <use style="fill:#0000ff;stroke:#0000ff;" x="124.636049" xlink:href="#m1a4b43e998" y="129.235268"/>
     <use style="fill:#0000ff;stroke:#0000ff;" x="157.542004" xlink:href="#m1a4b43e998" y="112.795638"/>
     <use style="fill:#0000ff;stroke:#0000ff;" x="190.44796" xlink:href="#m1a4b43e998" y="137.457169"/>
     <use style="fill:#0000ff;stroke:#0000ff;" x="223.353915" xlink:href="#m1a4b43e998" y="65.412669"/>
     <use style="fill:#0000ff;stroke:#0000ff;" x="256.259871" xlink:href="#m1a4b43e998" y="104.38659"/>
     <use style="fill:#0000ff;stroke:#0000ff;" x="289.165827" xlink:href="#m1a4b43e998" y="168.24631"/>
     <use style="fill:#0000ff;stroke:#0000ff;" x="322.071782" xlink:href="#m1a4b43e998" y="117.201415"/>
    </g>
   </g>
   <g id="line2d_18">
    <path clip-path="url(#p87fa9cdf5e)" d="M 25.918182 87.145594 
L 25.918182 92.166294 
" style="fill:none;stroke:#0000ff;stroke-dasharray:1.5,2.475;stroke-dashoffset:0;stroke-width:1.5;"/>
   </g>
   <g id="line2d_19">
    <path clip-path="url(#p87fa9cdf5e)" d="M 58.824137 87.145594 
L 58.824137 18.468347 
" style="fill:none;stroke:#0000ff;stroke-dasharray:1.5,2.475;stroke-dashoffset:0;stroke-width:1.5;"/>
   </g>
   <g id="line2d_20">
    <path clip-path="url(#p87fa9cdf5e)" d="M 91.730093 87.145594 
L 91.730093 94.454719 
" style="fill:none;stroke:#0000ff;stroke-dasharray:1.5,2.475;stroke-dashoffset:0;stroke-width:1.5;"/>
   </g>
   <g id="line2d_21">
    <path clip-path="url(#p87fa9cdf5e)" d="M 124.636049 87.145594 
L 124.636049 129.235268 
" style="fill:none;stroke:#0000ff;stroke-dasharray:1.5,2.475;stroke-dashoffset:0;stroke-width:1.5;"/>
   </g>
   <g id="line2d_22">
    <path clip-path="url(#p87fa9cdf5e)" d="M 157.542004 87.145594 
L 157.542004 112.795638 
" style="fill:none;stroke:#0000ff;stroke-dasharray:1.5,2.475;stroke-dashoffset:0;stroke-width:1.5;"/>
   </g>
   <g id="line2d_23">
    <path clip-path="url(#p87fa9cdf5e)" d="M 190.44796 87.145594 
L 190.44796 137.457169 
" style="fill:none;stroke:#0000ff;stroke-dasharray:1.5,2.475;stroke-dashoffset:0;stroke-width:1.5;"/>
   </g>
   <g id="line2d_24">
    <path clip-path="url(#p87fa9cdf5e)" d="M 223.353915 87.145594 
L 223.353915 65.412669 
" style="fill:none;stroke:#0000ff;stroke-dasharray:1.5,2.475;stroke-dashoffset:0;stroke-width:1.5;"/>
   </g>
   <g id="line2d_25">
    <path clip-path="url(#p87fa9cdf5e)" d="M 256.259871 87.145594 
L 256.259871 104.38659 
" style="fill:none;stroke:#0000ff;stroke-dasharray:1.5,2.475;stroke-dashoffset:0;stroke-width:1.5;"/>
   </g>
   <g id="line2d_26">
    <path clip-path="url(#p87fa9cdf5e)" d="M 289.165827 87.145594 
L 289.165827 168.24631 
" style="fill:none;stroke:#0000ff;stroke-dasharray:1.5,2.475;stroke-dashoffset:0;stroke-width:1.5;"/>
   </g>
   <g id="line2d_27">
    <path clip-path="url(#p87fa9cdf5e)" d="M 322.071782 87.145594 
L 322.071782 117.201415 
" style="fill:none;stroke:#0000ff;stroke-dasharray:1.5,2.475;stroke-dashoffset:0;stroke-width:1.5;"/>
   </g>
   <g id="patch_3">
    <path d="M 25.918182 177.02 
L 25.918182 10.7 
" style="fill:none;stroke:#000000;stroke-linecap:square;stroke-linejoin:miter;stroke-width:0.8;"/>
   </g>
   <g id="patch_4">
    <path d="M 345.5 177.02 
L 345.5 10.7 
" style="fill:none;"/>
   </g>
   <g id="patch_5">
    <path d="M 10.7 87.145594 
L 345.5 87.145594 
" style="fill:none;stroke:#000000;stroke-linecap:square;stroke-linejoin:miter;stroke-width:0.8;"/>
   </g>
   <g id="patch_6">
    <path d="M 10.7 10.7 
L 345.5 10.7 
" style="fill:none;"/>
   </g>
   <g id="text_1">
    <!-- T -->
    <defs>
     <path d="M -0.296875 72.90625 
L 61.375 72.90625 
L 61.375 64.59375 
L 35.5 64.59375 
L 35.5 0 
L 25.59375 0 
L 25.59375 64.59375 
L -0.296875 64.59375 
z
" id="DejaVuSans-84"/>
    </defs>
    <g style="fill:#ff0000;" transform="translate(169.059089 76.996818)scale(0.18 -0.18)">
     <use xlink:href="#DejaVuSans-84"/>
    </g>
   </g>
   <g id="patch_7">
    <path d="M 190.625035 82.071206 
Q 174.326721 82.071206 158.028407 82.071206 
" style="fill:none;stroke:#ff0000;stroke-linecap:round;"/>
    <path d="M 186.625035 80.071206 
L 190.625035 82.071206 
L 186.625035 84.071206 
" style="fill:none;stroke:#ff0000;stroke-linecap:round;"/>
    <path d="M 162.028407 84.071206 
L 158.028407 82.071206 
L 162.028407 80.071206 
" style="fill:none;stroke:#ff0000;stroke-linecap:round;"/>
   </g>
   <g id="text_2">
    <!-- S(t) -->
    <defs>
     <path d="M 53.515625 70.515625 
L 53.515625 60.890625 
Q 47.90625 63.578125 42.921875 64.890625 
Q 37.9375 66.21875 33.296875 66.21875 
Q 25.25 66.21875 20.875 63.09375 
Q 16.5 59.96875 16.5 54.203125 
Q 16.5 49.359375 19.40625 46.890625 
Q 22.3125 44.4375 30.421875 42.921875 
L 36.375 41.703125 
Q 47.40625 39.59375 52.65625 34.296875 
Q 57.90625 29 57.90625 20.125 
Q 57.90625 9.515625 50.796875 4.046875 
Q 43.703125 -1.421875 29.984375 -1.421875 
Q 24.8125 -1.421875 18.96875 -0.25 
Q 13.140625 0.921875 6.890625 3.21875 
L 6.890625 13.375 
Q 12.890625 10.015625 18.65625 8.296875 
Q 24.421875 6.59375 29.984375 6.59375 
Q 38.421875 6.59375 43.015625 9.90625 
Q 47.609375 13.234375 47.609375 19.390625 
Q 47.609375 24.75 44.3125 27.78125 
Q 41.015625 30.8125 33.5 32.328125 
L 27.484375 33.5 
Q 16.453125 35.6875 11.515625 40.375 
Q 6.59375 45.0625 6.59375 53.421875 
Q 6.59375 63.09375 13.40625 68.65625 
Q 20.21875 74.21875 32.171875 74.21875 
Q 37.3125 74.21875 42.625 73.28125 
Q 47.953125 72.359375 53.515625 70.515625 
z
" id="DejaVuSans-83"/>
     <path d="M 31 75.875 
Q 24.46875 64.65625 21.28125 53.65625 
Q 18.109375 42.671875 18.109375 31.390625 
Q 18.109375 20.125 21.3125 9.0625 
Q 24.515625 -2 31 -13.1875 
L 23.1875 -13.1875 
Q 15.875 -1.703125 12.234375 9.375 
Q 8.59375 20.453125 8.59375 31.390625 
Q 8.59375 42.28125 12.203125 53.3125 
Q 15.828125 64.359375 23.1875 75.875 
z
" id="DejaVuSans-40"/>
     <path d="M 18.3125 70.21875 
L 18.3125 54.6875 
L 36.8125 54.6875 
L 36.8125 47.703125 
L 18.3125 47.703125 
L 18.3125 18.015625 
Q 18.3125 11.328125 20.140625 9.421875 
Q 21.96875 7.515625 27.59375 7.515625 
L 36.8125 7.515625 
L 36.8125 0 
L 27.59375 0 
Q 17.1875 0 13.234375 3.875 
Q 9.28125 7.765625 9.28125 18.015625 
L 9.28125 47.703125 
L 2.6875 47.703125 
L 2.6875 54.6875 
L 9.28125 54.6875 
L 9.28125 70.21875 
z
" id="DejaVuSans-116"/>
     <path d="M 8.015625 75.875 
L 15.828125 75.875 
Q 23.140625 64.359375 26.78125 53.3125 
Q 30.421875 42.28125 30.421875 31.390625 
Q 30.421875 20.453125 26.78125 9.375 
Q 23.140625 -1.703125 15.828125 -13.1875 
L 8.015625 -13.1875 
Q 14.5 -2 17.703125 9.0625 
Q 20.90625 20.125 20.90625 31.390625 
Q 20.90625 42.671875 17.703125 53.65625 
Q 14.5 64.65625 8.015625 75.875 
z
" id="DejaVuSans-41"/>
    </defs>
    <g style="fill:#008000;" transform="translate(81.858306 46.550492)scale(0.18 -0.18)">
     <use xlink:href="#DejaVuSans-83"/>
     <use x="63.476562" xlink:href="#DejaVuSans-40"/>
     <use x="102.490234" xlink:href="#DejaVuSans-116"/>
     <use x="141.699219" xlink:href="#DejaVuSans-41"/>
    </g>
   </g>
   <g id="text_3">
    <!-- t -->
    <g transform="translate(351.587273 93.911444)scale(0.18 -0.18)">
     <use xlink:href="#DejaVuSans-116"/>
    </g>
   </g>
  </g>
 </g>
 <defs>
  <clipPath id="p87fa9cdf5e">
   <rect height="166.32" width="334.8" x="10.7" y="10.7"/>
  </clipPath>
 </defs>
</svg>
