<?xml version="1.0" encoding="utf-8" standalone="no"?>
<!DOCTYPE svg PUBLIC "-//W3C//DTD SVG 1.1//EN"
  "http://www.w3.org/Graphics/SVG/1.1/DTD/svg11.dtd">
<!-- Created with matplotlib (https://matplotlib.org/) -->
<svg height="197.338125pt" version="1.1" viewBox="0 0 586.009943 197.338125" width="586.009943pt" xmlns="http://www.w3.org/2000/svg" xmlns:xlink="http://www.w3.org/1999/xlink">
 <defs>
  <style type="text/css">
*{stroke-linecap:butt;stroke-linejoin:round;}
  </style>
 </defs>
 <g id="figure_1">
  <g id="patch_1">
   <path d="M 0 197.338125 
L 586.009943 197.338125 
L 586.009943 0 
L 0 0 
z
" style="fill:#ffffff;"/>
  </g>
  <g id="axes_1">
   <g id="patch_2">
    <path d="M 17.309943 177.02 
L 249.809943 177.02 
L 249.809943 10.7 
L 17.309943 10.7 
z
" style="fill:#ffffff;"/>
   </g>
   <g id="matplotlib.axis_1">
    <g id="xtick_1">
     <g id="line2d_1">
      <defs>
       <path d="M 0 0 
L 0 3.5 
" id="m302b944315" style="stroke:#000000;stroke-width:0.8;"/>
      </defs>
      <g>
       <use style="stroke:#000000;stroke-width:0.8;" x="27.878125" xlink:href="#m302b944315" y="93.86"/>
      </g>
     </g>
    </g>
    <g id="xtick_2">
     <g id="line2d_2">
      <g>
       <use style="stroke:#000000;stroke-width:0.8;" x="80.984566" xlink:href="#m302b944315" y="93.86"/>
      </g>
     </g>
    </g>
    <g id="xtick_3">
     <g id="line2d_3">
      <g>
       <use style="stroke:#000000;stroke-width:0.8;" x="134.091008" xlink:href="#m302b944315" y="93.86"/>
      </g>
     </g>
    </g>
    <g id="xtick_4">
     <g id="line2d_4">
      <g>
       <use style="stroke:#000000;stroke-width:0.8;" x="187.197449" xlink:href="#m302b944315" y="93.86"/>
      </g>
     </g>
    </g>
    <g id="xtick_5">
     <g id="line2d_5">
      <g>
       <use style="stroke:#000000;stroke-width:0.8;" x="240.30389" xlink:href="#m302b944315" y="93.86"/>
      </g>
     </g>
    </g>
   </g>
   <g id="matplotlib.axis_2">
    <g id="ytick_1">
     <g id="line2d_6">
      <defs>
       <path d="M 0 0 
L -3.5 0 
" id="m3f1899d850" style="stroke:#000000;stroke-width:0.8;"/>
      </defs>
      <g>
       <use style="stroke:#000000;stroke-width:0.8;" x="27.878125" xlink:href="#m3f1899d850" y="169.46"/>
      </g>
     </g>
    </g>
    <g id="ytick_2">
     <g id="line2d_7">
      <g>
       <use style="stroke:#000000;stroke-width:0.8;" x="27.878125" xlink:href="#m3f1899d850" y="131.66"/>
      </g>
     </g>
    </g>
    <g id="ytick_3">
     <g id="line2d_8">
      <g>
       <use style="stroke:#000000;stroke-width:0.8;" x="27.878125" xlink:href="#m3f1899d850" y="93.86"/>
      </g>
     </g>
    </g>
    <g id="ytick_4">
     <g id="line2d_9">
      <g>
       <use style="stroke:#000000;stroke-width:0.8;" x="27.878125" xlink:href="#m3f1899d850" y="56.06"/>
      </g>
     </g>
    </g>
    <g id="ytick_5">
     <g id="line2d_10">
      <g>
       <use style="stroke:#000000;stroke-width:0.8;" x="27.878125" xlink:href="#m3f1899d850" y="18.26"/>
      </g>
     </g>
    </g>
    <g id="text_1">
     <!-- Amplitude -->
     <defs>
      <path d="M 34.1875 63.1875 
L 20.796875 26.90625 
L 47.609375 26.90625 
z
M 28.609375 72.90625 
L 39.796875 72.90625 
L 67.578125 0 
L 57.328125 0 
L 50.6875 18.703125 
L 17.828125 18.703125 
L 11.1875 0 
L 0.78125 0 
z
" id="DejaVuSans-65"/>
      <path d="M 52 44.1875 
Q 55.375 50.25 60.0625 53.125 
Q 64.75 56 71.09375 56 
Q 79.640625 56 84.28125 50.015625 
Q 88.921875 44.046875 88.921875 33.015625 
L 88.921875 0 
L 79.890625 0 
L 79.890625 32.71875 
Q 79.890625 40.578125 77.09375 44.375 
Q 74.3125 48.1875 68.609375 48.1875 
Q 61.625 48.1875 57.5625 43.546875 
Q 53.515625 38.921875 53.515625 30.90625 
L 53.515625 0 
L 44.484375 0 
L 44.484375 32.71875 
Q 44.484375 40.625 41.703125 44.40625 
Q 38.921875 48.1875 33.109375 48.1875 
Q 26.21875 48.1875 22.15625 43.53125 
Q 18.109375 38.875 18.109375 30.90625 
L 18.109375 0 
L 9.078125 0 
L 9.078125 54.6875 
L 18.109375 54.6875 
L 18.109375 46.1875 
Q 21.1875 51.21875 25.484375 53.609375 
Q 29.78125 56 35.6875 56 
Q 41.65625 56 45.828125 52.96875 
Q 50 49.953125 52 44.1875 
z
" id="DejaVuSans-109"/>
      <path d="M 18.109375 8.203125 
L 18.109375 -20.796875 
L 9.078125 -20.796875 
L 9.078125 54.6875 
L 18.109375 54.6875 
L 18.109375 46.390625 
Q 20.953125 51.265625 25.265625 53.625 
Q 29.59375 56 35.59375 56 
Q 45.5625 56 51.78125 48.09375 
Q 58.015625 40.1875 58.015625 27.296875 
Q 58.015625 14.40625 51.78125 6.484375 
Q 45.5625 -1.421875 35.59375 -1.421875 
Q 29.59375 -1.421875 25.265625 0.953125 
Q 20.953125 3.328125 18.109375 8.203125 
z
M 48.6875 27.296875 
Q 48.6875 37.203125 44.609375 42.84375 
Q 40.53125 48.484375 33.40625 48.484375 
Q 26.265625 48.484375 22.1875 42.84375 
Q 18.109375 37.203125 18.109375 27.296875 
Q 18.109375 17.390625 22.1875 11.75 
Q 26.265625 6.109375 33.40625 6.109375 
Q 40.53125 6.109375 44.609375 11.75 
Q 48.6875 17.390625 48.6875 27.296875 
z
" id="DejaVuSans-112"/>
      <path d="M 9.421875 75.984375 
L 18.40625 75.984375 
L 18.40625 0 
L 9.421875 0 
z
" id="DejaVuSans-108"/>
      <path d="M 9.421875 54.6875 
L 18.40625 54.6875 
L 18.40625 0 
L 9.421875 0 
z
M 9.421875 75.984375 
L 18.40625 75.984375 
L 18.40625 64.59375 
L 9.421875 64.59375 
z
" id="DejaVuSans-105"/>
      <path d="M 18.3125 70.21875 
L 18.3125 54.6875 
L 36.8125 54.6875 
L 36.8125 47.703125 
L 18.3125 47.703125 
L 18.3125 18.015625 
Q 18.3125 11.328125 20.140625 9.421875 
Q 21.96875 7.515625 27.59375 7.515625 
L 36.8125 7.515625 
L 36.8125 0 
L 27.59375 0 
Q 17.1875 0 13.234375 3.875 
Q 9.28125 7.765625 9.28125 18.015625 
L 9.28125 47.703125 
L 2.6875 47.703125 
L 2.6875 54.6875 
L 9.28125 54.6875 
L 9.28125 70.21875 
z
" id="DejaVuSans-116"/>
      <path d="M 8.5 21.578125 
L 8.5 54.6875 
L 17.484375 54.6875 
L 17.484375 21.921875 
Q 17.484375 14.15625 20.5 10.265625 
Q 23.53125 6.390625 29.59375 6.390625 
Q 36.859375 6.390625 41.078125 11.03125 
Q 45.3125 15.671875 45.3125 23.6875 
L 45.3125 54.6875 
L 54.296875 54.6875 
L 54.296875 0 
L 45.3125 0 
L 45.3125 8.40625 
Q 42.046875 3.421875 37.71875 1 
Q 33.40625 -1.421875 27.6875 -1.421875 
Q 18.265625 -1.421875 13.375 4.4375 
Q 8.5 10.296875 8.5 21.578125 
z
M 31.109375 56 
z
" id="DejaVuSans-117"/>
      <path d="M 45.40625 46.390625 
L 45.40625 75.984375 
L 54.390625 75.984375 
L 54.390625 0 
L 45.40625 0 
L 45.40625 8.203125 
Q 42.578125 3.328125 38.25 0.953125 
Q 33.9375 -1.421875 27.875 -1.421875 
Q 17.96875 -1.421875 11.734375 6.484375 
Q 5.515625 14.40625 5.515625 27.296875 
Q 5.515625 40.1875 11.734375 48.09375 
Q 17.96875 56 27.875 56 
Q 33.9375 56 38.25 53.625 
Q 42.578125 51.265625 45.40625 46.390625 
z
M 14.796875 27.296875 
Q 14.796875 17.390625 18.875 11.75 
Q 22.953125 6.109375 30.078125 6.109375 
Q 37.203125 6.109375 41.296875 11.75 
Q 45.40625 17.390625 45.40625 27.296875 
Q 45.40625 37.203125 41.296875 42.84375 
Q 37.203125 48.484375 30.078125 48.484375 
Q 22.953125 48.484375 18.875 42.84375 
Q 14.796875 37.203125 14.796875 27.296875 
z
" id="DejaVuSans-100"/>
      <path d="M 56.203125 29.59375 
L 56.203125 25.203125 
L 14.890625 25.203125 
Q 15.484375 15.921875 20.484375 11.0625 
Q 25.484375 6.203125 34.421875 6.203125 
Q 39.59375 6.203125 44.453125 7.46875 
Q 49.3125 8.734375 54.109375 11.28125 
L 54.109375 2.78125 
Q 49.265625 0.734375 44.1875 -0.34375 
Q 39.109375 -1.421875 33.890625 -1.421875 
Q 20.796875 -1.421875 13.15625 6.1875 
Q 5.515625 13.8125 5.515625 26.8125 
Q 5.515625 40.234375 12.765625 48.109375 
Q 20.015625 56 32.328125 56 
Q 43.359375 56 49.78125 48.890625 
Q 56.203125 41.796875 56.203125 29.59375 
z
M 47.21875 32.234375 
Q 47.125 39.59375 43.09375 43.984375 
Q 39.0625 48.390625 32.421875 48.390625 
Q 24.90625 48.390625 20.390625 44.140625 
Q 15.875 39.890625 15.1875 32.171875 
z
" id="DejaVuSans-101"/>
     </defs>
     <g transform="translate(14.798438 119.482656)rotate(-90)scale(0.1 -0.1)">
      <use xlink:href="#DejaVuSans-65"/>
      <use x="68.408203" xlink:href="#DejaVuSans-109"/>
      <use x="165.820312" xlink:href="#DejaVuSans-112"/>
      <use x="229.296875" xlink:href="#DejaVuSans-108"/>
      <use x="257.080078" xlink:href="#DejaVuSans-105"/>
      <use x="284.863281" xlink:href="#DejaVuSans-116"/>
      <use x="324.072266" xlink:href="#DejaVuSans-117"/>
      <use x="387.451172" xlink:href="#DejaVuSans-100"/>
      <use x="450.927734" xlink:href="#DejaVuSans-101"/>
     </g>
    </g>
   </g>
   <g id="line2d_11">
    <path clip-path="url(#p66378cb745)" d="M 27.878125 169.46 
L 48.058573 169.46 
L 49.120702 18.26 
L 69.301149 18.26 
L 70.363278 169.46 
L 90.543726 169.46 
L 91.605855 18.26 
L 111.786302 18.26 
L 112.848431 169.46 
L 133.028879 169.46 
L 134.091008 18.26 
L 154.271455 18.26 
L 155.333584 169.46 
L 175.514032 169.46 
L 176.576161 18.26 
L 196.756608 18.26 
L 197.818737 169.46 
L 217.999185 169.46 
L 219.061314 18.26 
L 239.241761 18.26 
L 239.241761 18.26 
" style="fill:none;stroke:#1f77b4;stroke-linecap:square;stroke-width:1.5;"/>
   </g>
   <g id="patch_3">
    <path d="M 27.878125 177.02 
L 27.878125 10.7 
" style="fill:none;stroke:#000000;stroke-linecap:square;stroke-linejoin:miter;stroke-width:0.8;"/>
   </g>
   <g id="patch_4">
    <path d="M 249.809943 177.02 
L 249.809943 10.7 
" style="fill:none;"/>
   </g>
   <g id="patch_5">
    <path d="M 17.309943 93.86 
L 249.809943 93.86 
" style="fill:none;stroke:#000000;stroke-linecap:square;stroke-linejoin:miter;stroke-width:0.8;"/>
   </g>
   <g id="patch_6">
    <path d="M 17.309943 10.7 
L 249.809943 10.7 
" style="fill:none;"/>
   </g>
   <g id="text_2">
    <!-- Time -->
    <defs>
     <path d="M -0.296875 72.90625 
L 61.375 72.90625 
L 61.375 64.59375 
L 35.5 64.59375 
L 35.5 0 
L 25.59375 0 
L 25.59375 64.59375 
L -0.296875 64.59375 
z
" id="DejaVuSans-84"/>
    </defs>
    <g transform="translate(250.925178 97.64)scale(0.1 -0.1)">
     <use xlink:href="#DejaVuSans-84"/>
     <use x="61.037109" xlink:href="#DejaVuSans-105"/>
     <use x="88.820312" xlink:href="#DejaVuSans-109"/>
     <use x="186.232422" xlink:href="#DejaVuSans-101"/>
    </g>
   </g>
  </g>
  <g id="axes_2">
   <g id="patch_7">
    <path d="M 342.809943 177.02 
L 575.309943 177.02 
L 575.309943 10.7 
L 342.809943 10.7 
z
" style="fill:#ffffff;"/>
   </g>
   <g id="matplotlib.axis_3">
    <g id="xtick_6">
     <g id="line2d_12">
      <g>
       <use style="stroke:#000000;stroke-width:0.8;" x="353.378125" xlink:href="#m302b944315" y="169.46"/>
      </g>
     </g>
    </g>
    <g id="xtick_7">
     <g id="line2d_13">
      <g>
       <use style="stroke:#000000;stroke-width:0.8;" x="395.650852" xlink:href="#m302b944315" y="169.46"/>
      </g>
     </g>
    </g>
    <g id="xtick_8">
     <g id="line2d_14">
      <g>
       <use style="stroke:#000000;stroke-width:0.8;" x="437.92358" xlink:href="#m302b944315" y="169.46"/>
      </g>
     </g>
    </g>
    <g id="xtick_9">
     <g id="line2d_15">
      <g>
       <use style="stroke:#000000;stroke-width:0.8;" x="480.196307" xlink:href="#m302b944315" y="169.46"/>
      </g>
     </g>
    </g>
    <g id="xtick_10">
     <g id="line2d_16">
      <g>
       <use style="stroke:#000000;stroke-width:0.8;" x="522.469034" xlink:href="#m302b944315" y="169.46"/>
      </g>
     </g>
    </g>
    <g id="xtick_11">
     <g id="line2d_17">
      <g>
       <use style="stroke:#000000;stroke-width:0.8;" x="564.741761" xlink:href="#m302b944315" y="169.46"/>
      </g>
     </g>
    </g>
    <g id="text_3">
     <!-- Frequency -->
     <defs>
      <path d="M 9.8125 72.90625 
L 51.703125 72.90625 
L 51.703125 64.59375 
L 19.671875 64.59375 
L 19.671875 43.109375 
L 48.578125 43.109375 
L 48.578125 34.8125 
L 19.671875 34.8125 
L 19.671875 0 
L 9.8125 0 
z
" id="DejaVuSans-70"/>
      <path d="M 41.109375 46.296875 
Q 39.59375 47.171875 37.8125 47.578125 
Q 36.03125 48 33.890625 48 
Q 26.265625 48 22.1875 43.046875 
Q 18.109375 38.09375 18.109375 28.8125 
L 18.109375 0 
L 9.078125 0 
L 9.078125 54.6875 
L 18.109375 54.6875 
L 18.109375 46.1875 
Q 20.953125 51.171875 25.484375 53.578125 
Q 30.03125 56 36.53125 56 
Q 37.453125 56 38.578125 55.875 
Q 39.703125 55.765625 41.0625 55.515625 
z
" id="DejaVuSans-114"/>
      <path d="M 14.796875 27.296875 
Q 14.796875 17.390625 18.875 11.75 
Q 22.953125 6.109375 30.078125 6.109375 
Q 37.203125 6.109375 41.296875 11.75 
Q 45.40625 17.390625 45.40625 27.296875 
Q 45.40625 37.203125 41.296875 42.84375 
Q 37.203125 48.484375 30.078125 48.484375 
Q 22.953125 48.484375 18.875 42.84375 
Q 14.796875 37.203125 14.796875 27.296875 
z
M 45.40625 8.203125 
Q 42.578125 3.328125 38.25 0.953125 
Q 33.9375 -1.421875 27.875 -1.421875 
Q 17.96875 -1.421875 11.734375 6.484375 
Q 5.515625 14.40625 5.515625 27.296875 
Q 5.515625 40.1875 11.734375 48.09375 
Q 17.96875 56 27.875 56 
Q 33.9375 56 38.25 53.625 
Q 42.578125 51.265625 45.40625 46.390625 
L 45.40625 54.6875 
L 54.390625 54.6875 
L 54.390625 -20.796875 
L 45.40625 -20.796875 
z
" id="DejaVuSans-113"/>
      <path d="M 54.890625 33.015625 
L 54.890625 0 
L 45.90625 0 
L 45.90625 32.71875 
Q 45.90625 40.484375 42.875 44.328125 
Q 39.84375 48.1875 33.796875 48.1875 
Q 26.515625 48.1875 22.3125 43.546875 
Q 18.109375 38.921875 18.109375 30.90625 
L 18.109375 0 
L 9.078125 0 
L 9.078125 54.6875 
L 18.109375 54.6875 
L 18.109375 46.1875 
Q 21.34375 51.125 25.703125 53.5625 
Q 30.078125 56 35.796875 56 
Q 45.21875 56 50.046875 50.171875 
Q 54.890625 44.34375 54.890625 33.015625 
z
" id="DejaVuSans-110"/>
      <path d="M 48.78125 52.59375 
L 48.78125 44.1875 
Q 44.96875 46.296875 41.140625 47.34375 
Q 37.3125 48.390625 33.40625 48.390625 
Q 24.65625 48.390625 19.8125 42.84375 
Q 14.984375 37.3125 14.984375 27.296875 
Q 14.984375 17.28125 19.8125 11.734375 
Q 24.65625 6.203125 33.40625 6.203125 
Q 37.3125 6.203125 41.140625 7.25 
Q 44.96875 8.296875 48.78125 10.40625 
L 48.78125 2.09375 
Q 45.015625 0.34375 40.984375 -0.53125 
Q 36.96875 -1.421875 32.421875 -1.421875 
Q 20.0625 -1.421875 12.78125 6.34375 
Q 5.515625 14.109375 5.515625 27.296875 
Q 5.515625 40.671875 12.859375 48.328125 
Q 20.21875 56 33.015625 56 
Q 37.15625 56 41.109375 55.140625 
Q 45.0625 54.296875 48.78125 52.59375 
z
" id="DejaVuSans-99"/>
      <path d="M 32.171875 -5.078125 
Q 28.375 -14.84375 24.75 -17.8125 
Q 21.140625 -20.796875 15.09375 -20.796875 
L 7.90625 -20.796875 
L 7.90625 -13.28125 
L 13.1875 -13.28125 
Q 16.890625 -13.28125 18.9375 -11.515625 
Q 21 -9.765625 23.484375 -3.21875 
L 25.09375 0.875 
L 2.984375 54.6875 
L 12.5 54.6875 
L 29.59375 11.921875 
L 46.6875 54.6875 
L 56.203125 54.6875 
z
" id="DejaVuSans-121"/>
     </defs>
     <g transform="translate(432.762287 188.058438)scale(0.1 -0.1)">
      <use xlink:href="#DejaVuSans-70"/>
      <use x="57.410156" xlink:href="#DejaVuSans-114"/>
      <use x="98.492188" xlink:href="#DejaVuSans-101"/>
      <use x="160.015625" xlink:href="#DejaVuSans-113"/>
      <use x="223.492188" xlink:href="#DejaVuSans-117"/>
      <use x="286.871094" xlink:href="#DejaVuSans-101"/>
      <use x="348.394531" xlink:href="#DejaVuSans-110"/>
      <use x="411.773438" xlink:href="#DejaVuSans-99"/>
      <use x="466.753906" xlink:href="#DejaVuSans-121"/>
     </g>
    </g>
   </g>
   <g id="matplotlib.axis_4">
    <g id="ytick_6">
     <g id="line2d_18">
      <g>
       <use style="stroke:#000000;stroke-width:0.8;" x="353.378125" xlink:href="#m3f1899d850" y="169.46"/>
      </g>
     </g>
    </g>
    <g id="ytick_7">
     <g id="line2d_19">
      <g>
       <use style="stroke:#000000;stroke-width:0.8;" x="353.378125" xlink:href="#m3f1899d850" y="145.875918"/>
      </g>
     </g>
    </g>
    <g id="ytick_8">
     <g id="line2d_20">
      <g>
       <use style="stroke:#000000;stroke-width:0.8;" x="353.378125" xlink:href="#m3f1899d850" y="122.291837"/>
      </g>
     </g>
    </g>
    <g id="ytick_9">
     <g id="line2d_21">
      <g>
       <use style="stroke:#000000;stroke-width:0.8;" x="353.378125" xlink:href="#m3f1899d850" y="98.707755"/>
      </g>
     </g>
    </g>
    <g id="ytick_10">
     <g id="line2d_22">
      <g>
       <use style="stroke:#000000;stroke-width:0.8;" x="353.378125" xlink:href="#m3f1899d850" y="75.123674"/>
      </g>
     </g>
    </g>
    <g id="ytick_11">
     <g id="line2d_23">
      <g>
       <use style="stroke:#000000;stroke-width:0.8;" x="353.378125" xlink:href="#m3f1899d850" y="51.539592"/>
      </g>
     </g>
    </g>
    <g id="ytick_12">
     <g id="line2d_24">
      <g>
       <use style="stroke:#000000;stroke-width:0.8;" x="353.378125" xlink:href="#m3f1899d850" y="27.955511"/>
      </g>
     </g>
    </g>
    <g id="text_4">
     <!-- Magnitude -->
     <defs>
      <path d="M 9.8125 72.90625 
L 24.515625 72.90625 
L 43.109375 23.296875 
L 61.8125 72.90625 
L 76.515625 72.90625 
L 76.515625 0 
L 66.890625 0 
L 66.890625 64.015625 
L 48.09375 14.015625 
L 38.1875 14.015625 
L 19.390625 64.015625 
L 19.390625 0 
L 9.8125 0 
z
" id="DejaVuSans-77"/>
      <path d="M 34.28125 27.484375 
Q 23.390625 27.484375 19.1875 25 
Q 14.984375 22.515625 14.984375 16.5 
Q 14.984375 11.71875 18.140625 8.90625 
Q 21.296875 6.109375 26.703125 6.109375 
Q 34.1875 6.109375 38.703125 11.40625 
Q 43.21875 16.703125 43.21875 25.484375 
L 43.21875 27.484375 
z
M 52.203125 31.203125 
L 52.203125 0 
L 43.21875 0 
L 43.21875 8.296875 
Q 40.140625 3.328125 35.546875 0.953125 
Q 30.953125 -1.421875 24.3125 -1.421875 
Q 15.921875 -1.421875 10.953125 3.296875 
Q 6 8.015625 6 15.921875 
Q 6 25.140625 12.171875 29.828125 
Q 18.359375 34.515625 30.609375 34.515625 
L 43.21875 34.515625 
L 43.21875 35.40625 
Q 43.21875 41.609375 39.140625 45 
Q 35.0625 48.390625 27.6875 48.390625 
Q 23 48.390625 18.546875 47.265625 
Q 14.109375 46.140625 10.015625 43.890625 
L 10.015625 52.203125 
Q 14.9375 54.109375 19.578125 55.046875 
Q 24.21875 56 28.609375 56 
Q 40.484375 56 46.34375 49.84375 
Q 52.203125 43.703125 52.203125 31.203125 
z
" id="DejaVuSans-97"/>
      <path d="M 45.40625 27.984375 
Q 45.40625 37.75 41.375 43.109375 
Q 37.359375 48.484375 30.078125 48.484375 
Q 22.859375 48.484375 18.828125 43.109375 
Q 14.796875 37.75 14.796875 27.984375 
Q 14.796875 18.265625 18.828125 12.890625 
Q 22.859375 7.515625 30.078125 7.515625 
Q 37.359375 7.515625 41.375 12.890625 
Q 45.40625 18.265625 45.40625 27.984375 
z
M 54.390625 6.78125 
Q 54.390625 -7.171875 48.1875 -13.984375 
Q 42 -20.796875 29.203125 -20.796875 
Q 24.46875 -20.796875 20.265625 -20.09375 
Q 16.0625 -19.390625 12.109375 -17.921875 
L 12.109375 -9.1875 
Q 16.0625 -11.328125 19.921875 -12.34375 
Q 23.78125 -13.375 27.78125 -13.375 
Q 36.625 -13.375 41.015625 -8.765625 
Q 45.40625 -4.15625 45.40625 5.171875 
L 45.40625 9.625 
Q 42.625 4.78125 38.28125 2.390625 
Q 33.9375 0 27.875 0 
Q 17.828125 0 11.671875 7.65625 
Q 5.515625 15.328125 5.515625 27.984375 
Q 5.515625 40.671875 11.671875 48.328125 
Q 17.828125 56 27.875 56 
Q 33.9375 56 38.28125 53.609375 
Q 42.625 51.21875 45.40625 46.390625 
L 45.40625 54.6875 
L 54.390625 54.6875 
z
" id="DejaVuSans-103"/>
     </defs>
     <g transform="translate(340.298438 120.349844)rotate(-90)scale(0.1 -0.1)">
      <use xlink:href="#DejaVuSans-77"/>
      <use x="86.279297" xlink:href="#DejaVuSans-97"/>
      <use x="147.558594" xlink:href="#DejaVuSans-103"/>
      <use x="211.035156" xlink:href="#DejaVuSans-110"/>
      <use x="274.414062" xlink:href="#DejaVuSans-105"/>
      <use x="302.197266" xlink:href="#DejaVuSans-116"/>
      <use x="341.40625" xlink:href="#DejaVuSans-117"/>
      <use x="404.785156" xlink:href="#DejaVuSans-100"/>
      <use x="468.261719" xlink:href="#DejaVuSans-101"/>
     </g>
    </g>
   </g>
   <g id="line2d_25">
    <path clip-path="url(#p971741548d)" d="M 353.378125 169.46 
L 354.054489 149.479863 
L 354.350398 145.897426 
L 354.434943 145.679769 
L 354.477216 145.710547 
L 354.604034 146.360325 
L 354.815398 149.238364 
L 355.15358 157.826642 
L 355.491761 169.46 
L 355.534034 167.926219 
L 356.168125 148.319946 
L 356.464034 144.267908 
L 356.590852 143.951188 
L 356.675398 144.238998 
L 356.844489 146.005048 
L 357.098125 151.438452 
L 357.520852 166.063091 
L 357.605398 169.46 
L 357.64767 167.741805 
L 358.324034 144.034273 
L 358.619943 139.619109 
L 358.704489 139.345074 
L 358.746761 139.383406 
L 358.87358 140.209836 
L 359.084943 143.938133 
L 359.423125 155.415142 
L 359.719034 169.46 
L 359.761307 167.282248 
L 360.564489 131.244982 
L 360.818125 127.007718 
L 360.90267 126.817474 
L 360.987216 127.291763 
L 361.156307 130.312353 
L 361.409943 140.114205 
L 361.790398 165.88907 
L 361.83267 169.46 
L 361.874943 165.770087 
L 362.76267 75.956989 
L 363.312216 32.635529 
L 363.650398 19.877356 
L 363.819489 18.26 
L 363.904034 18.6635 
L 364.073125 21.838483 
L 364.326761 32.132523 
L 364.749489 61.172349 
L 366.059943 169.46 
L 366.102216 167.097171 
L 366.524943 150.349929 
L 366.820852 145.963779 
L 366.905398 145.713027 
L 366.94767 145.738518 
L 367.074489 146.371401 
L 367.285852 149.020299 
L 367.70858 158.161379 
L 368.17358 169.46 
L 368.215852 168.546058 
L 368.680852 161.078231 
L 368.976761 159.23789 
L 369.10358 159.144267 
L 369.230398 159.427414 
L 369.441761 160.617229 
L 369.864489 164.768318 
L 370.287216 169.46 
L 370.329489 169.037478 
L 370.794489 165.60046 
L 371.090398 164.799144 
L 371.259489 164.820439 
L 371.470852 165.260628 
L 371.851307 166.835159 
L 372.400852 169.46 
L 372.443125 169.293267 
L 372.82358 168.224241 
L 373.077216 167.979346 
L 373.28858 168.032543 
L 373.584489 168.38288 
L 374.38767 169.433213 
L 374.641307 169.43353 
L 374.937216 169.186662 
L 375.909489 168.155692 
L 376.120852 168.291961 
L 376.374489 168.735815 
L 376.628125 169.46 
L 376.670398 169.317329 
L 377.684943 166.115728 
L 377.896307 166.057546 
L 378.065398 166.278682 
L 378.319034 167.07324 
L 378.699489 169.176219 
L 378.741761 169.46 
L 378.784034 169.169578 
L 379.671761 163.715157 
L 379.925398 163.323575 
L 380.052216 163.456389 
L 380.26358 164.201277 
L 380.559489 166.316207 
L 380.855398 169.46 
L 380.89767 168.951521 
L 381.82767 158.850641 
L 382.039034 158.18554 
L 382.12358 158.218457 
L 382.250398 158.621088 
L 382.461761 160.291723 
L 382.75767 164.787346 
L 382.969034 169.46 
L 383.011307 168.394087 
L 383.603125 150.298919 
L 384.44858 125.362306 
L 384.829034 119.768097 
L 385.040398 118.914685 
L 385.124943 119.046796 
L 385.294034 120.112907 
L 385.54767 123.607495 
L 385.928125 132.400955 
L 387.196307 169.46 
L 387.280852 167.710548 
L 387.70358 161.667912 
L 387.957216 160.23981 
L 388.084034 160.097468 
L 388.126307 160.127403 
L 388.295398 160.596505 
L 388.549034 162.168076 
L 389.09858 167.416264 
L 389.309943 169.46 
L 389.352216 169.079283 
L 389.817216 165.904328 
L 390.113125 165.074873 
L 390.282216 165.030434 
L 390.451307 165.266335 
L 390.747216 166.217556 
L 391.42358 169.46 
L 391.508125 169.086008 
L 391.973125 167.611156 
L 392.269034 167.296833 
L 392.480398 167.363026 
L 392.776307 167.776884 
L 393.537216 169.46 
L 393.621761 169.303959 
L 394.044489 168.799875 
L 394.340398 168.738385 
L 394.720852 168.927187 
L 395.566307 169.453978 
L 395.946761 169.388973 
L 396.53858 168.979213 
L 397.00358 168.77735 
L 397.299489 168.873791 
L 397.63767 169.251913 
L 397.764489 169.46 
L 397.806761 169.384206 
L 398.86358 167.62366 
L 399.117216 167.647955 
L 399.370852 167.97379 
L 399.709034 168.861574 
L 399.878125 169.46 
L 399.920398 169.299221 
L 400.808125 166.228983 
L 401.061761 165.993645 
L 401.230852 166.113403 
L 401.442216 166.599762 
L 401.780398 168.125434 
L 401.991761 169.46 
L 402.034034 169.168087 
L 402.964034 163.279266 
L 403.21767 162.862601 
L 403.344489 163.00179 
L 403.51358 163.591385 
L 403.767216 165.388693 
L 404.105398 169.46 
L 404.14767 168.827975 
L 404.739489 158.00252 
L 405.627216 142.249303 
L 406.00767 139.044882 
L 406.219034 138.645913 
L 406.345852 138.901208 
L 406.557216 140.129956 
L 406.853125 143.384113 
L 407.360398 151.970202 
L 408.33267 169.46 
L 408.755398 165.083773 
L 409.051307 163.719557 
L 409.220398 163.536937 
L 409.347216 163.653687 
L 409.55858 164.259276 
L 409.939034 166.254655 
L 410.446307 169.46 
L 410.48858 169.215765 
L 410.95358 167.167736 
L 411.249489 166.624285 
L 411.460852 166.611451 
L 411.672216 166.872719 
L 412.010398 167.709497 
L 412.559943 169.46 
L 412.602216 169.3354 
L 413.067216 168.299294 
L 413.363125 168.041192 
L 413.616761 168.071983 
L 413.954943 168.396725 
L 414.67358 169.46 
L 414.758125 169.355629 
L 415.180852 169.016799 
L 415.561307 168.987986 
L 416.110852 169.236575 
L 416.744943 169.458975 
L 417.209943 169.364535 
L 418.266761 169.000186 
L 418.647216 169.19585 
L 418.900852 169.46 
L 418.985398 169.353096 
L 419.999943 168.178268 
L 420.25358 168.192866 
L 420.507216 168.418796 
L 420.845398 169.039734 
L 421.014489 169.46 
L 421.056761 169.346917 
L 421.986761 167.122509 
L 422.240398 167.00744 
L 422.451761 167.189273 
L 422.705398 167.759594 
L 423.085852 169.256892 
L 423.128125 169.46 
L 423.170398 169.251683 
L 424.100398 165.022378 
L 424.354034 164.715518 
L 424.480852 164.811864 
L 424.692216 165.39101 
L 424.988125 167.129812 
L 425.241761 169.46 
L 425.284034 169.002817 
L 425.875852 161.141932 
L 426.76358 149.599673 
L 427.144034 147.211095 
L 427.355398 146.891439 
L 427.482216 147.061942 
L 427.69358 147.936301 
L 427.989489 150.291872 
L 428.496761 156.566439 
L 429.469034 169.46 
L 429.891761 166.208943 
L 430.18767 165.188693 
L 430.399034 165.059844 
L 430.568125 165.269309 
L 430.864034 166.157292 
L 431.58267 169.46 
L 431.667216 169.099457 
L 432.132216 167.649665 
L 432.428125 167.305311 
L 432.639489 167.337489 
L 432.893125 167.635139 
L 433.358125 168.64204 
L 433.696307 169.46 
L 433.73858 169.365596 
L 434.20358 168.578608 
L 434.541761 168.373136 
L 434.83767 168.444858 
L 435.260398 168.831606 
L 435.809943 169.46 
L 435.852216 169.419071 
L 436.317216 169.120118 
L 436.739943 169.105377 
L 437.585398 169.411209 
L 438.134943 169.440559 
L 438.85358 169.188426 
L 439.403125 169.102596 
L 439.825852 169.28331 
L 440.121761 169.376657 
L 441.136307 168.456604 
L 441.432216 168.484576 
L 441.728125 168.739405 
L 442.150852 169.46 
L 442.235398 169.280278 
L 443.080852 167.656093 
L 443.376761 167.523056 
L 443.588125 167.665212 
L 443.884034 168.218301 
L 444.264489 169.46 
L 444.306761 169.294898 
L 445.279034 165.856327 
L 445.490398 165.683245 
L 445.659489 165.815741 
L 445.870852 166.361171 
L 446.166761 167.869112 
L 446.378125 169.46 
L 446.420398 169.094843 
L 447.012216 162.802255 
L 447.899943 153.514394 
L 448.280398 151.573138 
L 448.491761 151.302981 
L 448.61858 151.432335 
L 448.829943 152.123596 
L 449.125852 154.005403 
L 449.633125 159.046615 
L 450.605398 169.46 
L 451.028125 166.822197 
L 451.324034 165.99107 
L 451.535398 165.883987 
L 451.704489 166.052368 
L 452.000398 166.771881 
L 452.719034 169.46 
L 452.80358 169.165802 
L 453.26858 167.980643 
L 453.564489 167.697628 
L 453.818125 167.748473 
L 454.114034 168.087251 
L 454.748125 169.298848 
L 454.83267 169.46 
L 454.874943 169.382474 
L 455.382216 168.699209 
L 455.720398 168.562632 
L 456.05858 168.669662 
L 456.608125 169.147794 
L 456.98858 169.426178 
L 457.495852 169.168777 
L 457.960852 169.183393 
L 459.355852 169.428819 
L 460.793125 169.227551 
L 461.300398 169.35367 
L 462.27267 168.618601 
L 462.610852 168.660015 
L 462.949034 168.950388 
L 463.287216 169.46 
L 463.371761 169.308859 
L 464.259489 167.905466 
L 464.555398 167.836006 
L 464.809034 168.043148 
L 465.147216 168.711818 
L 465.400852 169.46 
L 465.443125 169.320417 
L 466.415398 166.40594 
L 466.669034 166.264993 
L 466.838125 166.431412 
L 467.091761 167.119695 
L 467.429943 168.87825 
L 467.514489 169.46 
L 467.556761 169.149667 
L 468.14858 163.793742 
L 469.036307 155.860211 
L 469.416761 154.190789 
L 469.628125 153.95244 
L 469.754943 154.058326 
L 469.966307 154.641549 
L 470.262216 156.240903 
L 470.769489 160.542403 
L 471.741761 169.46 
L 472.164489 167.193863 
L 472.460398 166.477846 
L 472.671761 166.384324 
L 472.883125 166.590461 
L 473.221307 167.385183 
L 473.855398 169.46 
L 473.939943 169.206248 
L 474.404943 168.182714 
L 474.700852 167.93737 
L 474.954489 167.980479 
L 475.29267 168.330549 
L 475.969034 169.46 
L 476.05358 169.327728 
L 476.560852 168.772507 
L 476.899034 168.682072 
L 477.279489 168.822462 
L 478.251761 169.351059 
L 478.759034 169.190916 
L 479.30858 169.271724 
L 480.323125 169.454855 
L 481.084034 169.273521 
L 481.718125 169.203632 
L 482.183125 169.377788 
L 482.394489 169.398812 
L 483.451307 168.713053 
L 483.789489 168.775652 
L 484.169943 169.10766 
L 484.42358 169.46 
L 484.465852 169.394108 
L 485.395852 168.087315 
L 485.691761 168.025174 
L 485.945398 168.207585 
L 486.28358 168.798228 
L 486.537216 169.46 
L 486.579489 169.336469 
L 487.551761 166.752239 
L 487.805398 166.625941 
L 487.974489 166.772717 
L 488.228125 167.382461 
L 488.566307 168.943246 
L 488.650852 169.46 
L 488.693125 169.184275 
L 489.284943 164.420187 
L 490.17267 157.344272 
L 490.553125 155.847699 
L 490.764489 155.629968 
L 490.93358 155.788504 
L 491.144943 156.391917 
L 491.483125 158.193693 
L 492.03267 162.604172 
L 492.878125 169.46 
L 493.343125 167.298654 
L 493.639034 166.74646 
L 493.850398 166.719125 
L 494.061761 166.950531 
L 494.399943 167.711998 
L 494.991761 169.46 
L 495.034034 169.344234 
L 495.541307 168.311331 
L 495.879489 168.082449 
L 496.133125 168.152871 
L 496.471307 168.497717 
L 497.105398 169.46 
L 497.189943 169.340715 
L 497.697216 168.839481 
L 498.07767 168.76125 
L 498.500398 168.934986 
L 499.345852 169.38398 
L 499.895398 169.216246 
L 500.487216 169.300478 
L 501.459489 169.455327 
L 502.26267 169.279777 
L 502.896761 169.232916 
L 503.404034 169.433778 
L 503.530852 169.404247 
L 504.629943 168.774791 
L 504.968125 168.856338 
L 505.34858 169.186107 
L 505.559943 169.46 
L 505.602216 169.399766 
L 506.532216 168.203373 
L 506.828125 168.145887 
L 507.081761 168.312505 
L 507.419943 168.853353 
L 507.67358 169.46 
L 507.715852 169.346708 
L 508.688125 166.973001 
L 508.941761 166.856001 
L 509.153125 167.052947 
L 509.406761 167.686503 
L 509.744943 169.216873 
L 509.787216 169.46 
L 509.829489 169.206319 
L 510.421307 164.819005 
L 511.309034 158.288287 
L 511.689489 156.90125 
L 511.900852 156.696387 
L 512.069943 156.839552 
L 512.281307 157.392819 
L 512.619489 159.051422 
L 513.169034 163.121021 
L 514.014489 169.46 
L 514.479489 167.457781 
L 514.775398 166.945165 
L 514.986761 166.919057 
L 515.198125 167.132874 
L 515.536307 167.838223 
L 516.128125 169.46 
L 516.170398 169.352496 
L 516.67767 168.392535 
L 517.015852 168.179217 
L 517.311761 168.271473 
L 517.692216 168.673559 
L 518.241761 169.46 
L 518.326307 169.348889 
L 518.83358 168.881587 
L 519.214034 168.808317 
L 519.636761 168.970061 
L 520.482216 169.388975 
L 521.031761 169.232089 
L 521.665852 169.321447 
L 522.595852 169.455621 
L 523.441307 169.281399 
L 524.075398 169.254192 
L 524.794034 169.322808 
L 525.681761 168.824416 
L 526.062216 168.871668 
L 526.44267 169.15676 
L 526.696307 169.46 
L 526.73858 169.403242 
L 527.710852 168.252377 
L 528.006761 168.232185 
L 528.30267 168.472856 
L 528.683125 169.156804 
L 528.809943 169.46 
L 528.852216 169.352945 
L 529.824489 167.106906 
L 530.078125 166.995384 
L 530.289489 167.181156 
L 530.543125 167.780408 
L 530.881307 169.229644 
L 530.92358 169.46 
L 530.965852 169.219618 
L 531.55767 165.058909 
L 532.445398 158.853539 
L 532.825852 157.530798 
L 533.037216 157.332886 
L 533.206307 157.466288 
L 533.41767 157.988947 
L 533.755852 159.561294 
L 534.305398 163.427273 
L 535.150852 169.46 
L 535.615852 167.551308 
L 535.911761 167.061731 
L 536.123125 167.036179 
L 536.376761 167.303406 
L 536.757216 168.12317 
L 537.264489 169.46 
L 537.306761 169.357296 
L 537.814034 168.439548 
L 538.152216 168.235102 
L 538.448125 168.322907 
L 538.82858 168.707231 
L 539.378125 169.46 
L 539.46267 169.353561 
L 539.969943 168.905557 
L 540.350398 168.835025 
L 540.773125 168.989891 
L 541.61858 169.391778 
L 542.168125 169.240933 
L 542.802216 169.326719 
L 543.732216 169.455783 
L 544.619943 169.279155 
L 545.254034 169.270046 
L 545.930398 169.327518 
L 546.818125 168.845564 
L 547.19858 168.890979 
L 547.579034 169.166577 
L 547.83267 169.46 
L 547.874943 169.40506 
L 548.847216 168.289664 
L 549.143125 168.269667 
L 549.439034 168.502647 
L 549.819489 169.165818 
L 549.946307 169.46 
L 549.98858 169.356107 
L 550.960852 167.173709 
L 551.214489 167.064619 
L 551.425852 167.244606 
L 551.679489 167.826673 
L 552.01767 169.235898 
L 552.059943 169.46 
L 552.102216 169.22612 
L 552.694034 165.174902 
L 553.624034 158.923622 
L 553.962216 157.827485 
L 554.17358 157.631496 
L 554.34267 157.759241 
L 554.554034 158.266299 
L 554.892216 159.796715 
L 555.441761 163.566875 
L 556.287216 169.46 
L 556.752216 167.592557 
L 557.048125 167.112732 
L 557.259489 167.087126 
L 557.513125 167.348098 
L 557.89358 168.150281 
L 558.400852 169.46 
L 558.443125 169.359314 
L 558.950398 168.458987 
L 559.28858 168.257952 
L 559.584489 168.343728 
L 559.964943 168.720681 
L 560.514489 169.46 
L 560.599034 169.355384 
L 561.106307 168.914727 
L 561.486761 168.845085 
L 561.909489 168.997227 
L 562.754943 169.392775 
L 563.304489 169.243996 
L 563.93858 169.328484 
L 564.741761 169.46 
L 564.741761 169.46 
" style="fill:none;stroke:#1f77b4;stroke-linecap:square;stroke-width:1.5;"/>
   </g>
   <g id="patch_8">
    <path d="M 353.378125 177.02 
L 353.378125 10.7 
" style="fill:none;stroke:#000000;stroke-linecap:square;stroke-linejoin:miter;stroke-width:0.8;"/>
   </g>
   <g id="patch_9">
    <path d="M 575.309943 177.02 
L 575.309943 10.7 
" style="fill:none;"/>
   </g>
   <g id="patch_10">
    <path d="M 342.809943 169.46 
L 575.309943 169.46 
" style="fill:none;stroke:#000000;stroke-linecap:square;stroke-linejoin:miter;stroke-width:0.8;"/>
   </g>
   <g id="patch_11">
    <path d="M 342.809943 10.7 
L 575.309943 10.7 
" style="fill:none;"/>
   </g>
  </g>
 </g>
 <defs>
  <clipPath id="p66378cb745">
   <rect height="166.32" width="232.5" x="17.309943" y="10.7"/>
  </clipPath>
  <clipPath id="p971741548d">
   <rect height="166.32" width="232.5" x="342.809943" y="10.7"/>
  </clipPath>
 </defs>
</svg>
