<?xml version="1.0" encoding="utf-8" standalone="no"?>
<!DOCTYPE svg PUBLIC "-//W3C//DTD SVG 1.1//EN"
  "http://www.w3.org/Graphics/SVG/1.1/DTD/svg11.dtd">
<!-- Created with matplotlib (https://matplotlib.org/) -->
<svg height="145.458125pt" version="1.1" viewBox="0 0 434.5875 145.458125" width="434.5875pt" xmlns="http://www.w3.org/2000/svg" xmlns:xlink="http://www.w3.org/1999/xlink">
 <defs>
  <style type="text/css">
*{stroke-linecap:butt;stroke-linejoin:round;}
  </style>
 </defs>
 <g id="figure_1">
  <g id="patch_1">
   <path d="M 0 145.458125 
L 434.5875 145.458125 
L 434.5875 0 
L 0 0 
z
" style="fill:#ffffff;"/>
  </g>
  <g id="axes_1">
   <g id="patch_2">
    <path d="M 33.2875 121.58 
L 423.8875 121.58 
L 423.8875 10.7 
L 33.2875 10.7 
z
" style="fill:#ffffff;"/>
   </g>
   <g id="matplotlib.axis_1">
    <g id="xtick_1">
     <g id="line2d_1">
      <defs>
       <path d="M 0 0 
L 0 3.5 
" id="mcfda5155dd" style="stroke:#000000;stroke-width:0.8;"/>
      </defs>
      <g>
       <use style="stroke:#000000;stroke-width:0.8;" x="86.551136" xlink:href="#mcfda5155dd" y="121.58"/>
      </g>
     </g>
     <g id="text_1">
      <!-- −400000 -->
      <defs>
       <path d="M 10.59375 35.5 
L 73.1875 35.5 
L 73.1875 27.203125 
L 10.59375 27.203125 
z
" id="DejaVuSans-8722"/>
       <path d="M 37.796875 64.3125 
L 12.890625 25.390625 
L 37.796875 25.390625 
z
M 35.203125 72.90625 
L 47.609375 72.90625 
L 47.609375 25.390625 
L 58.015625 25.390625 
L 58.015625 17.1875 
L 47.609375 17.1875 
L 47.609375 0 
L 37.796875 0 
L 37.796875 17.1875 
L 4.890625 17.1875 
L 4.890625 26.703125 
z
" id="DejaVuSans-52"/>
       <path d="M 31.78125 66.40625 
Q 24.171875 66.40625 20.328125 58.90625 
Q 16.5 51.421875 16.5 36.375 
Q 16.5 21.390625 20.328125 13.890625 
Q 24.171875 6.390625 31.78125 6.390625 
Q 39.453125 6.390625 43.28125 13.890625 
Q 47.125 21.390625 47.125 36.375 
Q 47.125 51.421875 43.28125 58.90625 
Q 39.453125 66.40625 31.78125 66.40625 
z
M 31.78125 74.21875 
Q 44.046875 74.21875 50.515625 64.515625 
Q 56.984375 54.828125 56.984375 36.375 
Q 56.984375 17.96875 50.515625 8.265625 
Q 44.046875 -1.421875 31.78125 -1.421875 
Q 19.53125 -1.421875 13.0625 8.265625 
Q 6.59375 17.96875 6.59375 36.375 
Q 6.59375 54.828125 13.0625 64.515625 
Q 19.53125 74.21875 31.78125 74.21875 
z
" id="DejaVuSans-48"/>
      </defs>
      <g transform="translate(63.273793 136.178438)scale(0.1 -0.1)">
       <use xlink:href="#DejaVuSans-8722"/>
       <use x="83.789062" xlink:href="#DejaVuSans-52"/>
       <use x="147.412109" xlink:href="#DejaVuSans-48"/>
       <use x="211.035156" xlink:href="#DejaVuSans-48"/>
       <use x="274.658203" xlink:href="#DejaVuSans-48"/>
       <use x="338.28125" xlink:href="#DejaVuSans-48"/>
       <use x="401.904297" xlink:href="#DejaVuSans-48"/>
      </g>
     </g>
    </g>
    <g id="xtick_2">
     <g id="line2d_2">
      <g>
       <use style="stroke:#000000;stroke-width:0.8;" x="157.569318" xlink:href="#mcfda5155dd" y="121.58"/>
      </g>
     </g>
     <g id="text_2">
      <!-- −200000 -->
      <defs>
       <path d="M 19.1875 8.296875 
L 53.609375 8.296875 
L 53.609375 0 
L 7.328125 0 
L 7.328125 8.296875 
Q 12.9375 14.109375 22.625 23.890625 
Q 32.328125 33.6875 34.8125 36.53125 
Q 39.546875 41.84375 41.421875 45.53125 
Q 43.3125 49.21875 43.3125 52.78125 
Q 43.3125 58.59375 39.234375 62.25 
Q 35.15625 65.921875 28.609375 65.921875 
Q 23.96875 65.921875 18.8125 64.3125 
Q 13.671875 62.703125 7.8125 59.421875 
L 7.8125 69.390625 
Q 13.765625 71.78125 18.9375 73 
Q 24.125 74.21875 28.421875 74.21875 
Q 39.75 74.21875 46.484375 68.546875 
Q 53.21875 62.890625 53.21875 53.421875 
Q 53.21875 48.921875 51.53125 44.890625 
Q 49.859375 40.875 45.40625 35.40625 
Q 44.1875 33.984375 37.640625 27.21875 
Q 31.109375 20.453125 19.1875 8.296875 
z
" id="DejaVuSans-50"/>
      </defs>
      <g transform="translate(134.291974 136.178438)scale(0.1 -0.1)">
       <use xlink:href="#DejaVuSans-8722"/>
       <use x="83.789062" xlink:href="#DejaVuSans-50"/>
       <use x="147.412109" xlink:href="#DejaVuSans-48"/>
       <use x="211.035156" xlink:href="#DejaVuSans-48"/>
       <use x="274.658203" xlink:href="#DejaVuSans-48"/>
       <use x="338.28125" xlink:href="#DejaVuSans-48"/>
       <use x="401.904297" xlink:href="#DejaVuSans-48"/>
      </g>
     </g>
    </g>
    <g id="xtick_3">
     <g id="line2d_3">
      <g>
       <use style="stroke:#000000;stroke-width:0.8;" x="228.5875" xlink:href="#mcfda5155dd" y="121.58"/>
      </g>
     </g>
     <g id="text_3">
      <!-- 0 -->
      <g transform="translate(225.40625 136.178438)scale(0.1 -0.1)">
       <use xlink:href="#DejaVuSans-48"/>
      </g>
     </g>
    </g>
    <g id="xtick_4">
     <g id="line2d_4">
      <g>
       <use style="stroke:#000000;stroke-width:0.8;" x="299.605682" xlink:href="#mcfda5155dd" y="121.58"/>
      </g>
     </g>
     <g id="text_4">
      <!-- 200000 -->
      <g transform="translate(280.518182 136.178438)scale(0.1 -0.1)">
       <use xlink:href="#DejaVuSans-50"/>
       <use x="63.623047" xlink:href="#DejaVuSans-48"/>
       <use x="127.246094" xlink:href="#DejaVuSans-48"/>
       <use x="190.869141" xlink:href="#DejaVuSans-48"/>
       <use x="254.492188" xlink:href="#DejaVuSans-48"/>
       <use x="318.115234" xlink:href="#DejaVuSans-48"/>
      </g>
     </g>
    </g>
    <g id="xtick_5">
     <g id="line2d_5">
      <g>
       <use style="stroke:#000000;stroke-width:0.8;" x="370.623864" xlink:href="#mcfda5155dd" y="121.58"/>
      </g>
     </g>
     <g id="text_5">
      <!-- 400000 -->
      <g transform="translate(351.536364 136.178438)scale(0.1 -0.1)">
       <use xlink:href="#DejaVuSans-52"/>
       <use x="63.623047" xlink:href="#DejaVuSans-48"/>
       <use x="127.246094" xlink:href="#DejaVuSans-48"/>
       <use x="190.869141" xlink:href="#DejaVuSans-48"/>
       <use x="254.492188" xlink:href="#DejaVuSans-48"/>
       <use x="318.115234" xlink:href="#DejaVuSans-48"/>
      </g>
     </g>
    </g>
   </g>
   <g id="matplotlib.axis_2">
    <g id="ytick_1">
     <g id="line2d_6">
      <defs>
       <path d="M 0 0 
L -3.5 0 
" id="mcc1a1a811a" style="stroke:#000000;stroke-width:0.8;"/>
      </defs>
      <g>
       <use style="stroke:#000000;stroke-width:0.8;" x="33.2875" xlink:href="#mcc1a1a811a" y="116.54"/>
      </g>
     </g>
     <g id="text_6">
      <!-- 0 -->
      <g transform="translate(19.925 120.339219)scale(0.1 -0.1)">
       <use xlink:href="#DejaVuSans-48"/>
      </g>
     </g>
    </g>
    <g id="ytick_2">
     <g id="line2d_7">
      <g>
       <use style="stroke:#000000;stroke-width:0.8;" x="33.2875" xlink:href="#mcc1a1a811a" y="85.985112"/>
      </g>
     </g>
     <g id="text_7">
      <!-- 200 -->
      <g transform="translate(7.2 89.784331)scale(0.1 -0.1)">
       <use xlink:href="#DejaVuSans-50"/>
       <use x="63.623047" xlink:href="#DejaVuSans-48"/>
       <use x="127.246094" xlink:href="#DejaVuSans-48"/>
      </g>
     </g>
    </g>
    <g id="ytick_3">
     <g id="line2d_8">
      <g>
       <use style="stroke:#000000;stroke-width:0.8;" x="33.2875" xlink:href="#mcc1a1a811a" y="55.430224"/>
      </g>
     </g>
     <g id="text_8">
      <!-- 400 -->
      <g transform="translate(7.2 59.229443)scale(0.1 -0.1)">
       <use xlink:href="#DejaVuSans-52"/>
       <use x="63.623047" xlink:href="#DejaVuSans-48"/>
       <use x="127.246094" xlink:href="#DejaVuSans-48"/>
      </g>
     </g>
    </g>
    <g id="ytick_4">
     <g id="line2d_9">
      <g>
       <use style="stroke:#000000;stroke-width:0.8;" x="33.2875" xlink:href="#mcc1a1a811a" y="24.875336"/>
      </g>
     </g>
     <g id="text_9">
      <!-- 600 -->
      <defs>
       <path d="M 33.015625 40.375 
Q 26.375 40.375 22.484375 35.828125 
Q 18.609375 31.296875 18.609375 23.390625 
Q 18.609375 15.53125 22.484375 10.953125 
Q 26.375 6.390625 33.015625 6.390625 
Q 39.65625 6.390625 43.53125 10.953125 
Q 47.40625 15.53125 47.40625 23.390625 
Q 47.40625 31.296875 43.53125 35.828125 
Q 39.65625 40.375 33.015625 40.375 
z
M 52.59375 71.296875 
L 52.59375 62.3125 
Q 48.875 64.0625 45.09375 64.984375 
Q 41.3125 65.921875 37.59375 65.921875 
Q 27.828125 65.921875 22.671875 59.328125 
Q 17.53125 52.734375 16.796875 39.40625 
Q 19.671875 43.65625 24.015625 45.921875 
Q 28.375 48.1875 33.59375 48.1875 
Q 44.578125 48.1875 50.953125 41.515625 
Q 57.328125 34.859375 57.328125 23.390625 
Q 57.328125 12.15625 50.6875 5.359375 
Q 44.046875 -1.421875 33.015625 -1.421875 
Q 20.359375 -1.421875 13.671875 8.265625 
Q 6.984375 17.96875 6.984375 36.375 
Q 6.984375 53.65625 15.1875 63.9375 
Q 23.390625 74.21875 37.203125 74.21875 
Q 40.921875 74.21875 44.703125 73.484375 
Q 48.484375 72.75 52.59375 71.296875 
z
" id="DejaVuSans-54"/>
      </defs>
      <g transform="translate(7.2 28.674555)scale(0.1 -0.1)">
       <use xlink:href="#DejaVuSans-54"/>
       <use x="63.623047" xlink:href="#DejaVuSans-48"/>
       <use x="127.246094" xlink:href="#DejaVuSans-48"/>
      </g>
     </g>
    </g>
   </g>
   <g id="line2d_10">
    <path clip-path="url(#p5b4346fcf5)" d="M 51.042045 116.538236 
L 55.239648 116.538447 
L 57.119824 116.539894 
L 117.50408 116.539008 
L 117.67898 116.535256 
L 120.477381 116.52943 
L 121.483057 116.535178 
L 124.500084 116.529835 
L 124.981059 116.52694 
L 125.418309 116.530689 
L 126.117909 116.537968 
L 154.845249 116.534331 
L 155.063874 116.537045 
L 156.113275 116.528146 
L 156.725425 116.535279 
L 179.243812 116.514262 
L 179.418712 116.527029 
L 179.812237 116.517719 
L 180.468113 116.530093 
L 181.692413 116.533016 
L 182.829264 116.502368 
L 183.004164 116.508979 
L 183.528864 116.525111 
L 183.791214 116.514759 
L 184.141014 116.530472 
L 197.039896 116.499893 
L 197.258521 116.531014 
L 197.608321 116.527213 
L 198.264197 116.526088 
L 198.832622 116.50519 
L 198.876347 116.539186 
L 198.920072 116.428602 
L 198.963797 116.496343 
L 199.094972 116.506045 
L 199.269872 116.387358 
L 199.444772 116.519338 
L 199.619672 116.499547 
L 200.494173 116.513998 
L 201.193773 116.529803 
L 201.456123 116.479536 
L 201.805924 116.525727 
L 201.849649 116.396959 
L 201.893374 116.459976 
L 202.068274 116.526785 
L 202.111999 116.396238 
L 202.199449 116.445093 
L 202.418074 116.4609 
L 202.461799 116.506713 
L 202.505524 116.364178 
L 202.549249 116.445378 
L 202.724149 116.488155 
L 202.855324 116.411847 
L 202.899049 116.52626 
L 202.986499 116.47353 
L 203.161399 116.524271 
L 203.59865 116.46115 
L 203.729825 116.403209 
L 203.77355 116.463466 
L 203.817275 116.397498 
L 203.861 116.330186 
L 203.904725 116.497158 
L 203.94845 116.426221 
L 204.079625 116.374047 
L 204.12335 116.343041 
L 204.167075 115.815644 
L 204.2108 116.223192 
L 204.254525 116.365969 
L 204.29825 115.495854 
L 204.3857 115.607386 
L 204.516875 115.958353 
L 204.64805 115.672065 
L 204.691775 115.7659 
L 204.7355 115.77022 
L 204.779225 116.484414 
L 204.866675 115.158164 
L 204.9104 115.891091 
L 204.954125 115.852569 
L 205.0853 114.143237 
L 205.129025 116.30394 
L 205.17275 115.36968 
L 205.216475 115.099205 
L 205.2602 113.838678 
L 205.303925 115.803085 
L 205.34765 113.454235 
L 205.478826 115.40885 
L 205.566276 113.086136 
L 205.610001 114.848795 
L 205.653726 114.612197 
L 205.697451 112.433117 
L 205.741176 115.986543 
L 205.784901 112.613385 
L 205.872351 113.981774 
L 205.916076 110.770079 
L 205.959801 113.829078 
L 206.003526 114.961133 
L 206.090976 115.299343 
L 206.134701 111.988336 
L 206.178426 111.13552 
L 206.222151 111.74163 
L 206.265876 112.884793 
L 206.309601 109.041316 
L 206.353326 109.758719 
L 206.397051 115.947721 
L 206.484501 114.315693 
L 206.528226 113.669863 
L 206.571951 109.235442 
L 206.615676 114.955376 
L 206.659401 114.115821 
L 206.703126 110.878831 
L 206.790576 111.391693 
L 206.878026 116.085524 
L 206.965476 109.42554 
L 207.009201 114.557912 
L 207.052926 110.821811 
L 207.096651 106.609867 
L 207.140376 112.861861 
L 207.184101 115.630563 
L 207.227826 115.120956 
L 207.271551 108.724865 
L 207.315276 115.461688 
L 207.359001 115.092817 
L 207.577627 106.885995 
L 207.708802 114.456567 
L 207.752527 113.118613 
L 207.883702 99.541668 
L 207.927427 105.806533 
L 207.971152 104.651817 
L 208.014877 112.245358 
L 208.058602 110.00667 
L 208.189777 102.089105 
L 208.233502 106.656931 
L 208.277227 95.276574 
L 208.320952 113.94019 
L 208.364677 109.130058 
L 208.408402 95.391647 
L 208.452127 106.423155 
L 208.539577 112.418842 
L 208.627027 103.719488 
L 208.714477 116.233253 
L 208.758202 109.088813 
L 208.801927 106.055783 
L 208.845652 111.573069 
L 208.889377 99.403795 
L 208.976827 104.338104 
L 209.064277 111.244406 
L 209.108002 108.727324 
L 209.151727 87.899543 
L 209.195452 108.038678 
L 209.282902 101.725904 
L 209.414078 115.31707 
L 209.588978 97.856578 
L 209.720153 111.364365 
L 209.807603 103.648899 
L 209.895053 104.463015 
L 209.982503 112.436697 
L 210.069953 93.510139 
L 210.113678 100.892764 
L 210.157403 110.150303 
L 210.201128 106.404923 
L 210.288578 99.692097 
L 210.376028 96.834998 
L 210.419753 113.94812 
L 210.463478 97.915046 
L 210.550928 99.479308 
L 210.594653 104.224852 
L 210.638378 79.198795 
L 210.682103 107.153735 
L 210.725828 106.506217 
L 210.769553 90.720595 
L 210.857003 94.570247 
L 210.900728 102.175405 
L 210.944453 96.592307 
L 210.988178 96.584391 
L 211.031903 94.534113 
L 211.075628 95.359586 
L 211.163078 101.704209 
L 211.294254 84.678547 
L 211.337979 108.353723 
L 211.381704 104.697681 
L 211.425429 74.502968 
L 211.469154 100.534556 
L 211.600329 89.976231 
L 211.644054 114.487451 
L 211.731504 111.439601 
L 211.775229 94.462206 
L 211.818954 96.806354 
L 211.906404 110.096659 
L 211.993854 84.140082 
L 212.037579 93.347118 
L 212.081304 110.319718 
L 212.125029 110.066354 
L 212.256204 95.460095 
L 212.343654 105.935243 
L 212.474829 84.790604 
L 212.518554 85.530289 
L 212.649729 111.381987 
L 212.780904 84.700853 
L 212.824629 90.92559 
L 212.868354 92.735041 
L 212.912079 56.511582 
L 212.955804 100.944546 
L 212.999529 102.767822 
L 213.17443 74.828542 
L 213.218155 106.392271 
L 213.305605 99.344902 
L 213.34933 114.87235 
L 213.393055 101.772474 
L 213.43678 77.73592 
L 213.480505 88.594066 
L 213.52423 105.215201 
L 213.567955 100.207307 
L 213.655405 51.639663 
L 213.742855 108.230724 
L 213.78658 43.712618 
L 213.87403 69.812641 
L 213.917755 94.150898 
L 214.005205 88.697174 
L 214.04893 94.722849 
L 214.180105 47.950113 
L 214.22383 69.332255 
L 214.355005 107.13806 
L 214.48618 71.606787 
L 214.529905 78.135268 
L 214.57363 81.572456 
L 214.704805 107.439492 
L 214.74853 110.953482 
L 214.792255 70.452848 
L 214.83598 105.713061 
L 214.879705 110.209629 
L 214.92343 101.386947 
L 214.967155 61.136775 
L 215.01088 79.031242 
L 215.054605 104.638959 
L 215.098331 68.438842 
L 215.185781 110.809782 
L 215.229506 108.926043 
L 215.360681 70.979411 
L 215.448131 94.685584 
L 215.491856 61.797597 
L 215.535581 90.689355 
L 215.666756 110.362805 
L 215.710481 42.422715 
L 215.754206 52.901537 
L 215.797931 80.146498 
L 215.841656 69.358618 
L 215.885381 55.093432 
L 215.929106 60.937325 
L 216.016556 54.940577 
L 216.060281 103.35641 
L 216.147731 44.169211 
L 216.191456 85.430583 
L 216.278906 64.543718 
L 216.322631 106.118782 
L 216.366356 49.427739 
L 216.410081 91.951786 
L 216.453806 91.551325 
L 216.497531 52.290534 
L 216.541256 81.582277 
L 216.584981 94.823722 
L 216.716156 47.961518 
L 216.759881 97.532718 
L 216.847331 79.188983 
L 216.891056 82.561021 
L 216.934781 100.034554 
L 217.065957 48.515163 
L 217.153407 96.198214 
L 217.197132 65.131756 
L 217.240857 66.49832 
L 217.284582 106.592231 
L 217.328307 92.735053 
L 217.415757 80.958038 
L 217.459482 86.904597 
L 217.678107 62.339215 
L 217.721832 66.836498 
L 217.765557 37.324239 
L 217.809282 94.606973 
L 217.853007 84.97805 
L 217.896732 52.36972 
L 217.940457 98.803284 
L 218.027907 102.907276 
L 218.071632 91.345689 
L 218.115357 97.184052 
L 218.159082 104.132848 
L 218.202807 83.787916 
L 218.246532 90.02186 
L 218.290257 98.166616 
L 218.421432 63.96782 
L 218.465157 86.834482 
L 218.508882 44.73767 
L 218.552607 98.000816 
L 218.596332 97.966862 
L 218.640057 53.453692 
L 218.683782 83.754052 
L 218.727507 107.244459 
L 218.814957 95.365114 
L 218.858682 87.13859 
L 218.946133 105.561055 
L 218.989858 99.915951 
L 219.033583 102.345021 
L 219.077308 81.66385 
L 219.121033 91.944802 
L 219.164758 109.488156 
L 219.208483 60.612368 
L 219.295933 67.02864 
L 219.339658 101.563215 
L 219.427108 92.992857 
L 219.470833 98.244005 
L 219.558283 53.171578 
L 219.602008 98.105367 
L 219.689458 95.115432 
L 219.733183 60.494746 
L 219.820633 78.724052 
L 219.864358 79.969754 
L 219.908083 85.59461 
L 219.951808 59.180144 
L 219.995533 107.357682 
L 220.039258 99.247945 
L 220.126708 106.196836 
L 220.214158 50.905016 
L 220.257883 115.756268 
L 220.301608 80.888745 
L 220.345333 76.10413 
L 220.389058 78.051368 
L 220.432783 83.239623 
L 220.476508 69.832202 
L 220.520233 97.048904 
L 220.563958 82.425035 
L 220.607683 68.923417 
L 220.651408 78.971005 
L 220.695133 80.561176 
L 220.738858 90.523647 
L 220.782583 79.966236 
L 220.826308 63.138438 
L 220.913759 106.016876 
L 220.957484 97.227733 
L 221.001209 92.670702 
L 221.088659 103.90761 
L 221.176109 34.757533 
L 221.263559 104.992 
L 221.307284 54.747005 
L 221.394734 63.336456 
L 221.438459 51.2184 
L 221.482184 102.394555 
L 221.569634 93.886656 
L 221.657084 54.148489 
L 221.700809 72.347982 
L 221.744534 64.71345 
L 221.788259 71.583364 
L 221.831984 69.291655 
L 221.875709 77.899038 
L 221.963159 74.76587 
L 222.006884 77.256177 
L 222.094334 96.687214 
L 222.138059 61.614032 
L 222.181784 81.745522 
L 222.356684 105.724589 
L 222.531584 88.321499 
L 222.575309 84.642767 
L 222.619034 100.393221 
L 222.793934 33.271674 
L 222.968835 105.68112 
L 223.056285 106.595084 
L 223.143735 42.403235 
L 223.18746 112.564468 
L 223.27491 91.861891 
L 223.318635 109.307076 
L 223.36236 87.503348 
L 223.44981 60.852688 
L 223.493535 94.441636 
L 223.580985 85.000124 
L 223.62471 89.350041 
L 223.668435 15.74 
L 223.71216 63.685305 
L 223.88706 108.637148 
L 223.930785 79.712122 
L 224.018235 89.210851 
L 224.06196 78.526426 
L 224.14941 81.850776 
L 224.193135 83.649748 
L 224.23686 65.495268 
L 224.280585 82.644244 
L 224.368035 107.040593 
L 224.41176 101.236095 
L 224.542935 81.633195 
L 224.58666 100.93284 
L 224.630385 68.522033 
L 224.67411 88.498089 
L 224.805286 109.167747 
L 224.936461 63.255447 
L 224.980186 103.257806 
L 225.067636 89.459092 
L 225.111361 98.011516 
L 225.155086 85.790255 
L 225.198811 66.659523 
L 225.286261 73.419456 
L 225.329986 70.540042 
L 225.373711 85.955881 
L 225.417436 76.641284 
L 225.461161 54.657087 
L 225.548611 92.295497 
L 225.592336 89.563852 
L 225.679786 61.39446 
L 225.810961 107.424278 
L 225.854686 89.222682 
L 225.942136 90.272173 
L 225.985861 85.592004 
L 226.029586 93.120529 
L 226.160761 51.823159 
L 226.204486 105.929777 
L 226.291936 104.265236 
L 226.335661 105.53937 
L 226.379386 52.264111 
L 226.423111 97.003222 
L 226.466836 105.37364 
L 226.510561 104.092212 
L 226.685462 74.680484 
L 226.816637 99.450404 
L 226.904087 86.795306 
L 226.947812 105.803174 
L 226.991537 85.779387 
L 227.035262 67.601422 
L 227.078987 100.470293 
L 227.122712 40.70193 
L 227.166437 62.346866 
L 227.210162 93.724542 
L 227.253887 74.976501 
L 227.297612 73.066321 
L 227.341337 75.973218 
L 227.385062 78.392126 
L 227.516237 98.346235 
L 227.647412 60.004918 
L 227.691137 65.136524 
L 227.822312 106.032835 
L 227.778587 61.666549 
L 227.866037 103.15021 
L 227.909762 97.710278 
L 227.953487 54.284992 
L 228.040937 56.7452 
L 228.128387 108.077533 
L 228.172112 89.556405 
L 228.259562 67.866364 
L 228.303287 97.482945 
L 228.390737 81.595025 
L 228.434462 103.678813 
L 228.478187 81.684213 
L 228.521912 82.318766 
L 228.609363 80.944272 
L 228.653088 104.862581 
L 228.696813 28.85602 
L 228.740538 88.927297 
L 228.784263 89.981458 
L 228.871713 82.719246 
L 228.915438 95.360665 
L 229.002888 89.326705 
L 229.090338 60.400696 
L 229.221513 95.528647 
L 229.308963 96.665244 
L 229.352688 69.400095 
L 229.396413 85.519634 
L 229.440138 85.049843 
L 229.483863 66.698862 
L 229.527588 88.089722 
L 229.571313 108.367439 
L 229.658763 50.633415 
L 229.702488 52.924787 
L 229.746213 107.992406 
L 229.789938 76.303727 
L 229.833663 61.332158 
L 229.877388 70.683394 
L 229.921113 89.748705 
L 229.964838 86.658395 
L 230.008563 76.892201 
L 230.052288 100.6077 
L 230.096013 71.050927 
L 230.139738 51.769813 
L 230.183463 113.075823 
L 230.270913 91.87086 
L 230.314638 76.510877 
L 230.358363 102.624206 
L 230.402088 61.046392 
L 230.489538 61.190466 
L 230.533264 65.781302 
L 230.620714 38.460361 
L 230.751889 106.941265 
L 230.795614 103.343288 
L 230.883064 53.944708 
L 231.014239 110.807051 
L 231.189139 47.85086 
L 231.276589 113.024745 
L 231.320314 72.32222 
L 231.364039 62.605761 
L 231.407764 74.631168 
L 231.495214 102.83318 
L 231.538939 92.994786 
L 231.582664 83.617553 
L 231.626389 91.446958 
L 231.713839 115.07199 
L 231.757564 111.619657 
L 231.845014 68.68485 
L 231.888739 75.00257 
L 231.932464 92.083694 
L 232.019914 87.3844 
L 232.063639 86.741142 
L 232.107364 98.316824 
L 232.194814 106.037803 
L 232.238539 52.826799 
L 232.282264 101.86607 
L 232.369714 91.723251 
L 232.413439 86.044208 
L 232.457165 110.31584 
L 232.544615 104.280393 
L 232.58834 114.786458 
L 232.67579 32.478962 
L 232.76324 106.997571 
L 232.806965 96.756706 
L 232.93814 50.682409 
L 233.156765 100.441687 
L 233.20049 77.634353 
L 233.244215 82.196227 
L 233.331665 100.871291 
L 233.419115 101.025335 
L 233.506565 39.278756 
L 233.55029 95.321153 
L 233.63774 86.649059 
L 233.681465 107.288143 
L 233.72519 102.136575 
L 233.768915 42.990796 
L 233.81264 71.165996 
L 233.856365 101.375629 
L 233.943815 96.060792 
L 233.98754 108.864439 
L 234.031265 79.610071 
L 234.118715 83.400505 
L 234.16244 93.006435 
L 234.206165 53.197015 
L 234.24989 102.984373 
L 234.293615 72.295758 
L 234.33734 96.444762 
L 234.424791 86.602417 
L 234.599691 65.091461 
L 234.730866 113.82568 
L 234.774591 113.269867 
L 234.818316 86.216813 
L 234.862041 86.791253 
L 234.949491 110.228107 
L 234.993216 103.077341 
L 235.080666 56.093894 
L 235.124391 78.268263 
L 235.168116 96.186281 
L 235.299291 39.582413 
L 235.430466 103.476108 
L 235.605366 55.729849 
L 235.692816 106.298811 
L 235.736541 94.314462 
L 235.823991 45.755579 
L 235.911441 63.874977 
L 235.955166 68.752907 
L 235.998891 62.822069 
L 236.042616 65.502317 
L 236.086341 101.734285 
L 236.130066 76.999556 
L 236.173791 77.340333 
L 236.217516 73.289537 
L 236.261241 112.522099 
L 236.304967 62.180712 
L 236.348692 59.916712 
L 236.392417 97.488954 
L 236.479867 80.250739 
L 236.523592 96.181039 
L 236.611042 61.330239 
L 236.698492 101.685139 
L 236.829667 42.034031 
L 236.873392 112.076479 
L 236.917117 94.518553 
L 236.960842 63.294896 
L 237.004567 81.065653 
L 237.048292 93.036522 
L 237.092017 66.126545 
L 237.135742 105.064806 
L 237.179467 80.357025 
L 237.266917 91.023505 
L 237.310642 87.571894 
L 237.354367 55.271889 
L 237.398092 84.017278 
L 237.441817 74.265458 
L 237.485542 88.495842 
L 237.529267 94.029126 
L 237.572992 80.174399 
L 237.616717 89.110383 
L 237.660442 102.094422 
L 237.747892 32.187225 
L 237.791617 90.814727 
L 237.922792 85.23339 
L 237.966517 97.517067 
L 238.010242 84.831684 
L 238.053967 75.15272 
L 238.141417 91.426594 
L 238.228867 93.197989 
L 238.272593 72.54472 
L 238.316318 98.53946 
L 238.360043 75.623274 
L 238.491218 57.801305 
L 238.622393 106.859748 
L 238.666118 68.019851 
L 238.753568 70.14406 
L 238.797293 72.870121 
L 238.841018 87.649915 
L 238.884743 58.297398 
L 238.928468 88.762717 
L 238.972193 87.377378 
L 239.015918 87.821392 
L 239.059643 71.919654 
L 239.147093 78.792614 
L 239.190818 100.118947 
L 239.234543 69.979151 
L 239.278268 47.999386 
L 239.321993 50.58772 
L 239.365718 87.272835 
L 239.453168 77.942032 
L 239.496893 99.508432 
L 239.540618 88.296504 
L 239.584343 85.837438 
L 239.628068 101.470474 
L 239.671793 80.125481 
L 239.846693 104.743447 
L 239.890418 87.879096 
L 239.934143 112.82303 
L 240.065318 59.729468 
L 240.109043 95.876023 
L 240.196494 84.350237 
L 240.240219 109.033771 
L 240.283944 55.606876 
L 240.327669 77.760779 
L 240.458844 92.808296 
L 240.502569 81.71242 
L 240.633744 107.297163 
L 240.764919 59.684176 
L 240.808644 78.899668 
L 240.939819 101.712712 
L 240.983544 53.844174 
L 241.027269 71.13563 
L 241.070994 91.851798 
L 241.114719 65.346437 
L 241.245894 79.002588 
L 241.289619 80.279219 
L 241.333344 93.300864 
L 241.377069 86.111478 
L 241.420794 79.979077 
L 241.464519 103.936222 
L 241.508244 66.583505 
L 241.551969 105.195467 
L 241.595694 92.176617 
L 241.639419 112.172926 
L 241.770594 87.105054 
L 241.814319 65.945331 
L 241.858044 106.954256 
L 241.945494 98.761721 
L 241.989219 84.16505 
L 242.032944 96.699524 
L 242.076669 111.137815 
L 242.120395 91.481569 
L 242.16412 87.306531 
L 242.207845 66.98071 
L 242.25157 81.043677 
L 242.33902 85.40176 
L 242.382745 72.279271 
L 242.42647 93.8935 
L 242.470195 85.902938 
L 242.51392 80.328246 
L 242.557645 96.448473 
L 242.60137 72.106369 
L 242.645095 92.139056 
L 242.68882 91.236102 
L 242.77627 20.491231 
L 242.819995 79.599495 
L 242.907445 70.372759 
L 242.95117 94.159576 
L 242.994895 59.643677 
L 243.03862 88.306253 
L 243.12607 97.390993 
L 243.169795 91.590617 
L 243.21352 90.621232 
L 243.257245 105.321201 
L 243.30097 56.968158 
L 243.344695 58.848825 
L 243.38842 106.543487 
L 243.47587 103.787425 
L 243.519595 42.646152 
L 243.607045 66.728165 
L 243.65077 51.417693 
L 243.694495 57.726324 
L 243.73822 94.394378 
L 243.82567 91.051375 
L 243.869395 85.359805 
L 243.91312 97.914061 
L 243.956845 83.833361 
L 244.00057 93.98607 
L 244.088021 103.294344 
L 244.131746 95.139408 
L 244.219196 97.707615 
L 244.262921 92.739245 
L 244.306646 57.834679 
L 244.350371 107.49174 
L 244.437821 73.930503 
L 244.525271 76.353938 
L 244.568996 73.573387 
L 244.612721 75.244928 
L 244.656446 82.201485 
L 244.700171 46.965499 
L 244.743896 71.197327 
L 244.787621 66.839387 
L 244.831346 71.15748 
L 244.962521 110.078258 
L 245.049971 49.013508 
L 245.093696 65.010844 
L 245.181146 89.029309 
L 245.224871 107.420331 
L 245.268596 27.271974 
L 245.312321 89.422988 
L 245.356046 104.330536 
L 245.443496 98.309964 
L 245.487221 99.207504 
L 245.530946 108.258883 
L 245.574671 102.498008 
L 245.618396 55.951518 
L 245.662121 86.992759 
L 245.837021 67.533042 
L 245.924471 90.308273 
L 245.968197 67.986589 
L 246.011922 94.410886 
L 246.055647 76.403603 
L 246.143097 67.981659 
L 246.186822 107.662474 
L 246.230547 52.097329 
L 246.274272 89.536305 
L 246.317997 103.53033 
L 246.405447 104.8937 
L 246.492897 54.176051 
L 246.624072 87.259113 
L 246.667797 90.669515 
L 246.711522 47.174341 
L 246.755247 92.112227 
L 246.798972 99.443221 
L 246.886422 54.568368 
L 246.973872 97.541197 
L 247.017597 93.46333 
L 247.061322 77.334518 
L 247.105047 109.091978 
L 247.148772 67.950031 
L 247.192497 72.911518 
L 247.236222 64.68722 
L 247.279947 98.859572 
L 247.367397 85.783086 
L 247.542297 106.98906 
L 247.586022 85.28026 
L 247.673472 89.483014 
L 247.717197 101.594585 
L 247.760922 87.751409 
L 247.804647 53.199323 
L 247.848372 99.897704 
L 247.892098 104.240688 
L 247.935823 43.675398 
L 247.979548 89.356561 
L 248.066998 64.700069 
L 248.110723 77.849738 
L 248.154448 96.306382 
L 248.241898 91.851574 
L 248.285623 91.339562 
L 248.373073 95.247299 
L 248.460523 106.360688 
L 248.504248 99.227987 
L 248.547973 59.767159 
L 248.591698 71.199787 
L 248.635423 81.268824 
L 248.679148 40.468804 
L 248.722873 73.745983 
L 248.766598 75.622569 
L 248.810323 60.776089 
L 248.854048 74.457994 
L 248.941498 91.373582 
L 249.028948 90.457541 
L 249.072673 79.624257 
L 249.116398 110.406278 
L 249.160123 85.607495 
L 249.203848 58.123969 
L 249.247573 64.10638 
L 249.291298 103.09661 
L 249.335023 97.487289 
L 249.378748 54.648156 
L 249.466198 70.277875 
L 249.597373 78.017951 
L 249.684823 82.159902 
L 249.728548 47.724194 
L 249.772273 101.245658 
L 249.859724 94.992015 
L 249.903449 85.387558 
L 249.947174 49.895366 
L 249.990899 103.99653 
L 250.034624 105.363352 
L 250.078349 47.593709 
L 250.122074 98.018157 
L 250.209524 57.211486 
L 250.253249 94.911541 
L 250.296974 53.776639 
L 250.340699 55.859994 
L 250.384424 100.606867 
L 250.428149 44.80508 
L 250.471874 97.752253 
L 250.515599 57.282995 
L 250.559324 57.59187 
L 250.646774 84.659934 
L 250.690499 80.379252 
L 250.734224 25.605652 
L 250.777949 108.107076 
L 250.821674 111.007801 
L 250.996574 74.067393 
L 251.084024 71.021349 
L 251.127749 100.725001 
L 251.171474 82.356809 
L 251.215199 98.487526 
L 251.258924 103.614005 
L 251.346374 68.424358 
L 251.390099 104.710967 
L 251.433824 79.44832 
L 251.477549 76.726008 
L 251.521274 99.032696 
L 251.608724 93.589597 
L 251.652449 66.683032 
L 251.696174 110.619668 
L 251.783625 102.358637 
L 251.82735 102.943024 
L 251.958525 69.891422 
L 252.133425 108.399572 
L 252.17715 97.21751 
L 252.2646 51.021261 
L 252.35205 92.864472 
L 252.395775 79.767967 
L 252.4395 82.606311 
L 252.483225 81.201945 
L 252.570675 77.502265 
L 252.6144 103.322119 
L 252.658125 38.620177 
L 252.70185 101.826399 
L 252.745575 100.443393 
L 252.7893 53.792146 
L 252.833025 81.280144 
L 252.920475 106.363076 
L 252.9642 97.919008 
L 253.007925 71.749909 
L 253.05165 106.266076 
L 253.095375 111.291635 
L 253.1391 104.540628 
L 253.22655 107.343909 
L 253.270275 77.354703 
L 253.314 96.027313 
L 253.40145 92.297625 
L 253.4889 103.574141 
L 253.532625 63.640052 
L 253.57635 79.036303 
L 253.707526 103.341654 
L 253.751251 101.122253 
L 253.794976 103.578254 
L 253.926151 84.515088 
L 253.882426 104.561719 
L 253.969876 90.860384 
L 254.101051 103.927689 
L 254.188501 97.743559 
L 254.232226 110.816987 
L 254.275951 94.919046 
L 254.319676 109.750972 
L 254.363401 108.684826 
L 254.450851 89.532175 
L 254.494576 91.37061 
L 254.538301 115.876538 
L 254.582026 110.462427 
L 254.625751 91.363028 
L 254.669476 97.714873 
L 254.713201 111.376278 
L 254.756926 93.503361 
L 254.800651 104.690343 
L 254.844376 85.826301 
L 254.888101 98.909917 
L 254.931826 106.259282 
L 254.975551 96.676339 
L 255.019276 80.358372 
L 255.063001 96.433046 
L 255.106726 106.015319 
L 255.150451 79.664187 
L 255.194176 90.283581 
L 255.325351 106.472533 
L 255.369076 92.439759 
L 255.456526 97.08418 
L 255.500251 91.507051 
L 255.543976 102.991062 
L 255.631427 99.979934 
L 255.675152 96.947048 
L 255.718877 97.442365 
L 255.762602 104.08406 
L 255.806327 78.347297 
L 255.850052 104.506994 
L 255.893777 96.070484 
L 255.937502 101.825817 
L 256.024952 105.594365 
L 256.068677 96.080446 
L 256.112402 106.580921 
L 256.156127 100.053448 
L 256.199852 109.588924 
L 256.287302 107.435402 
L 256.374752 92.707305 
L 256.418477 104.320661 
L 256.505927 111.243288 
L 256.637102 104.849733 
L 256.724552 114.557479 
L 256.768277 108.963862 
L 256.812002 108.251888 
L 256.855727 96.894026 
L 256.899452 103.641658 
L 256.986902 115.352694 
L 257.030627 112.267049 
L 257.161802 103.881199 
L 257.205527 103.968572 
L 257.249252 111.114597 
L 257.292977 86.963952 
L 257.336702 106.184679 
L 257.380427 112.804231 
L 257.424152 109.647648 
L 257.555328 100.34229 
L 257.730228 116.309546 
L 257.861403 102.152429 
L 257.905128 112.44456 
L 257.992578 107.197115 
L 258.036303 96.683021 
L 258.080028 106.10439 
L 258.123753 112.928895 
L 258.167478 98.662342 
L 258.254928 101.919431 
L 258.386103 112.733585 
L 258.429828 112.685859 
L 258.561003 101.780923 
L 258.692178 111.78519 
L 258.735903 114.14583 
L 258.779628 111.219695 
L 258.823353 110.403877 
L 258.910803 106.768688 
L 259.085703 115.980903 
L 259.129428 115.316424 
L 259.173153 110.475458 
L 259.216878 113.05011 
L 259.260603 113.197418 
L 259.348053 105.973201 
L 259.435503 114.114926 
L 259.479229 110.436039 
L 259.610404 115.464917 
L 259.654129 111.292161 
L 259.741579 111.953019 
L 259.785304 115.021734 
L 259.829029 115.00309 
L 259.872754 108.094702 
L 259.916479 114.357501 
L 259.960204 114.310015 
L 260.047654 116.102132 
L 260.135104 107.053042 
L 260.178829 113.158762 
L 260.222554 111.620707 
L 260.266279 112.268791 
L 260.353729 114.769414 
L 260.484904 114.625162 
L 260.528629 110.180211 
L 260.572354 113.414361 
L 260.616079 114.449192 
L 260.659804 111.915761 
L 260.703529 116.072622 
L 260.747254 112.876427 
L 260.965879 115.392446 
L 261.097054 113.886025 
L 261.184504 113.643988 
L 261.228229 115.40153 
L 261.315679 115.955106 
L 261.359404 113.864693 
L 261.446855 114.350046 
L 261.534305 115.900316 
L 261.57803 115.471675 
L 261.66548 115.903505 
L 261.709205 115.428676 
L 261.796655 115.53578 
L 261.92783 116.096223 
L 262.01528 116.019608 
L 262.059005 115.426585 
L 262.146455 115.616744 
L 262.19018 116.388294 
L 262.233905 116.224744 
L 262.27763 115.770365 
L 262.321355 116.26901 
L 262.53998 116.488402 
L 262.583705 116.294037 
L 262.62743 116.398005 
L 262.758605 116.450283 
L 262.80233 116.330148 
L 262.88978 116.410244 
L 263.108405 116.537931 
L 263.545656 116.511552 
L 263.676831 116.415531 
L 263.851731 116.473732 
L 264.026631 116.439437 
L 264.070356 116.495172 
L 264.114081 116.433258 
L 264.157806 116.332027 
L 264.201531 116.438456 
L 264.376431 116.473422 
L 264.595056 116.414671 
L 264.682506 116.501532 
L 264.726231 116.42538 
L 264.901131 116.510083 
L 265.163481 116.504704 
L 265.644457 116.531466 
L 265.863082 116.516802 
L 266.125432 116.51678 
L 266.256607 116.49453 
L 266.562682 116.454799 
L 266.737582 116.507433 
L 266.956207 116.493454 
L 266.999932 116.530591 
L 267.043657 116.461171 
L 267.393458 116.473434 
L 267.480908 116.521313 
L 267.524633 116.417927 
L 267.568358 116.526994 
L 267.830708 116.493029 
L 268.311683 116.529118 
L 269.273634 116.519278 
L 269.448534 116.514817 
L 272.29066 116.530384 
L 272.509285 116.529709 
L 273.033986 116.529871 
L 273.165161 116.494957 
L 273.689861 116.50895 
L 274.520636 116.506718 
L 274.739261 116.531772 
L 275.963562 116.5214 
L 276.313362 116.53182 
L 276.531987 116.488566 
L 276.663162 116.520408 
L 277.056688 116.469479 
L 277.187863 116.533748 
L 277.362763 116.494121 
L 277.581388 116.516166 
L 278.193538 116.529597 
L 278.936864 116.53384 
L 279.242939 116.531171 
L 279.942539 116.509772 
L 280.161164 116.510967 
L 280.554689 116.505796 
L 281.07939 116.524265 
L 282.172515 116.527527 
L 282.784666 116.522008 
L 283.090741 116.508273 
L 283.484266 116.528266 
L 283.921516 116.527007 
L 284.708567 116.525566 
L 285.276992 116.537877 
L 287.113443 116.503576 
L 287.506968 116.523084 
L 288.512644 116.538735 
L 292.928871 116.522913 
L 293.453571 116.517651 
L 293.847096 116.526484 
L 294.109446 116.511039 
L 294.415522 116.531395 
L 294.721597 116.512628 
L 295.027672 116.53244 
L 295.727272 116.53427 
L 296.995298 116.520328 
L 297.213923 116.511079 
L 297.563723 116.523476 
L 298.350774 116.534098 
L 299.881149 116.519918 
L 300.23095 116.523039 
L 301.586425 116.52775 
L 302.635826 116.533948 
L 305.958928 116.538894 
L 308.101454 116.525975 
L 308.888504 116.537134 
L 361.839507 116.533364 
L 362.320482 116.532727 
L 365.162608 116.53426 
L 382.521442 116.535842 
L 383.046143 116.534855 
L 384.270443 116.53349 
L 385.931994 116.534684 
L 386.456694 116.527126 
L 387.72472 116.538045 
L 393.059173 116.529128 
L 393.889948 116.537942 
L 394.370923 116.531255 
L 395.857574 116.538332 
L 398.481076 116.539607 
L 406.132955 116.538807 
L 406.132955 116.538807 
" style="fill:none;stroke:#1f77b4;stroke-linecap:square;stroke-width:1.5;"/>
   </g>
   <g id="patch_3">
    <path d="M 33.2875 121.58 
L 33.2875 10.7 
" style="fill:none;stroke:#000000;stroke-linecap:square;stroke-linejoin:miter;stroke-width:0.8;"/>
   </g>
   <g id="patch_4">
    <path d="M 423.8875 121.58 
L 423.8875 10.7 
" style="fill:none;stroke:#000000;stroke-linecap:square;stroke-linejoin:miter;stroke-width:0.8;"/>
   </g>
   <g id="patch_5">
    <path d="M 33.2875 121.58 
L 423.8875 121.58 
" style="fill:none;stroke:#000000;stroke-linecap:square;stroke-linejoin:miter;stroke-width:0.8;"/>
   </g>
   <g id="patch_6">
    <path d="M 33.2875 10.7 
L 423.8875 10.7 
" style="fill:none;stroke:#000000;stroke-linecap:square;stroke-linejoin:miter;stroke-width:0.8;"/>
   </g>
  </g>
 </g>
 <defs>
  <clipPath id="p5b4346fcf5">
   <rect height="110.88" width="390.6" x="33.2875" y="10.7"/>
  </clipPath>
 </defs>
</svg>
