<?xml version="1.0" encoding="UTF-8"?>
<!-- Generator: Adobe Illustrator 17.0.0, SVG Export Plug-In . SVG Version: 6.00 Build 0)  -->
<!DOCTYPE svg PUBLIC "-//W3C//DTD SVG 1.1//EN" "http://www.w3.org/Graphics/SVG/1.1/DTD/svg11.dtd">
<svg version="1.1" id="Layer_1" xmlns="http://www.w3.org/2000/svg" xmlns:xlink="http://www.w3.org/1999/xlink" x="0px" y="0px" width="565.5px" height="156.893px" viewBox="0 0 565.5 156.893" enable-background="new 0 0 565.5 156.893" xml:space="preserve">
<g>
	<defs>
		<polygon id="SVGID_1_" points="-13,0 470,0 470,151 -13,164   "/>
	</defs>
	<clipPath id="SVGID_2_">
		<use xlink:href="#SVGID_1_" overflow="visible"/>
	</clipPath>
	<path clip-path="url(#SVGID_2_)" fill="none" stroke="#231F20" stroke-width="0.608" d="M65.108,53.269   c1.182,0.032,2.043-9.423,3.363-9.445c1.172-0.019,1.957,9.22,3.229,9.23c1.134,0.011,1.983-9.178,3.299-9.217   c1.138-0.031,2.065,9.369,3.318,9.287"/>
</g>
<polygon fill="none" points="-13,0 470,0 470,151 -13,164 "/>
<path fill="none" stroke="#231F20" stroke-width="0.613" d="M78.306,43.252c1.182-0.034,2.043,9.55,3.362,9.572  c1.173,0.019,1.957-9.345,3.23-9.356c1.134-0.01,1.983,9.305,3.299,9.341c1.138,0.033,2.065-9.494,3.318-9.411"/>
<g>
	<defs>
		<polygon id="SVGID_3_" points="-13,0 470,0 470,151 -13,164   "/>
	</defs>
	<clipPath id="SVGID_4_">
		<use xlink:href="#SVGID_3_" overflow="visible"/>
	</clipPath>
	<path clip-path="url(#SVGID_4_)" fill="none" stroke="#231F20" stroke-width="0.613" d="M55.418,53.333   c1.174,0.019,1.957-9.346,3.231-9.356c1.133-0.01,1.983,9.304,3.298,9.34c1.138,0.034,2.066-9.493,3.319-9.411"/>
</g>
<g>
	<defs>
		<polygon id="SVGID_5_" points="-13,0 470,0 470,151 -13,164   "/>
	</defs>
	<clipPath id="SVGID_6_">
		<use xlink:href="#SVGID_5_" overflow="visible"/>
	</clipPath>
	<path clip-path="url(#SVGID_6_)" fill="none" stroke="#231F20" stroke-width="0.608" d="M91.897,52.903   c1.181,0.06,2.267-9.371,3.588-9.362c1.172,0.009,1.736,9.264,3.008,9.304c1.133,0.038,2.201-9.128,3.518-9.136   c1.138-0.004,1.841,9.416,3.096,9.364"/>
</g>
<g>
	<defs>
		<polygon id="SVGID_7_" points="-13,0 470,0 470,151 -13,164   "/>
	</defs>
	<clipPath id="SVGID_8_">
		<use xlink:href="#SVGID_7_" overflow="visible"/>
	</clipPath>
	<path clip-path="url(#SVGID_8_)" fill="none" stroke="#231F20" stroke-width="0.613" d="M105.306,44.204   c1.182-0.005,1.814,9.596,3.133,9.65c1.173,0.047,2.18-9.296,3.452-9.276c1.134,0.017,1.76,9.349,3.075,9.417   c1.137,0.06,2.291-9.442,3.542-9.329"/>
</g>
<g>
	<defs>
		<polygon id="SVGID_9_" points="-13,0 470,0 470,151 -13,164   "/>
	</defs>
	<clipPath id="SVGID_10_">
		<use xlink:href="#SVGID_9_" overflow="visible"/>
	</clipPath>
	<path clip-path="url(#SVGID_10_)" fill="none" stroke="#231F20" stroke-width="0.613" d="M118.523,53.488   c1.174,0.019,1.957-9.346,3.231-9.356c1.133-0.01,1.983,9.304,3.298,9.34c1.138,0.034,2.066-9.493,3.319-9.411"/>
</g>
<g>
	<path d="M88.309,68.72v-0.719h6.189v0.719H88.309z M88.309,71.071v-0.72h6.189v0.72H88.309z"/>
</g>
<polygon fill="none" points="-13,0 470,0 470,151 -13,164 "/>
<path fill="none" stroke="#231F20" stroke-width="2" d="M81.268,77.527H69.033v21.038l-12.532-0.012L56.5,77.745 M81.303,77.745  l0.001,20.809l12.532,0.012"/>
<g>
	<defs>
		<polygon id="SVGID_11_" points="-13,0 470,0 470,151 -13,164   "/>
	</defs>
	<clipPath id="SVGID_12_">
		<use xlink:href="#SVGID_11_" overflow="visible"/>
	</clipPath>
	<path clip-path="url(#SVGID_12_)" fill="none" stroke="#231F20" stroke-width="0.613" d="M78.91,129.36   c2.344-0.035,4.052,9.82,6.669,9.844c2.325,0.02,3.881-9.609,6.404-9.621c2.251-0.01,3.934,9.568,6.544,9.606   c2.257,0.034,4.096-9.76,6.58-9.676 M52.737,129.204c2.343-0.035,4.05,9.82,6.668,9.843c2.328,0.018,3.881-9.61,6.403-9.618   c2.251-0.014,3.935,9.564,6.545,9.604c2.257,0.033,4.095-9.764,6.58-9.678 M104.883,129.282c2.344-0.035,4.051,9.82,6.669,9.842   c2.324,0.02,3.881-9.609,6.403-9.62c2.251-0.011,3.934,9.567,6.545,9.604c2.257,0.033,4.095-9.761,6.58-9.678"/>
</g>
<g>
	<defs>
		<polygon id="SVGID_13_" points="-13,0 470,0 470,151 -13,164   "/>
	</defs>
	<clipPath id="SVGID_14_">
		<use xlink:href="#SVGID_13_" overflow="visible"/>
	</clipPath>
	<path clip-path="url(#SVGID_14_)" fill="none" stroke="#000000" stroke-width="1.6" stroke-linecap="square" d="M95.81,107.631   l-8,8 M95.81,115.813l-8-8"/>
</g>
<g>
	<defs>
		<polygon id="SVGID_15_" points="-13,0 470,0 470,151 -13,164   "/>
	</defs>
	<clipPath id="SVGID_16_">
		<use xlink:href="#SVGID_15_" overflow="visible"/>
	</clipPath>
	
		<line clip-path="url(#SVGID_16_)" fill="none" stroke="#000000" stroke-width="2" stroke-linecap="square" x1="135.806" y1="128.665" x2="147.966" y2="128.77"/>
</g>
<polygon fill="none" points="-13,0 470,0 470,151 -13,164 "/>
<path fill="none" stroke="#231F20" stroke-width="2" d="M118.427,98.769h-12.235V77.905L93.66,77.917l-0.001,20.636 M118.463,98.553  l0.001-20.636l12.532-0.012"/>
<g>
	<g>
		<defs>
			<rect id="SVGID_17_" x="146.162" y="125.201" width="8.558" height="7.171"/>
		</defs>
		<clipPath id="SVGID_18_">
			<use xlink:href="#SVGID_17_" overflow="visible"/>
		</clipPath>
		<path clip-path="url(#SVGID_18_)" d="M153.087,128.791l-5.265-2.289c0.476,0.926,0.457,3.586-0.11,4.531L153.087,128.791z"/>
	</g>
	<g>
		<defs>
			<rect id="SVGID_19_" x="146.162" y="125.201" width="8.558" height="7.171"/>
		</defs>
		<clipPath id="SVGID_20_">
			<use xlink:href="#SVGID_19_" overflow="visible"/>
		</clipPath>
		<path clip-path="url(#SVGID_20_)" fill="none" stroke="#000000" stroke-width="1.28" d="M153.087,128.79l-5.265-2.289    c0.476,0.929,0.457,3.586-0.11,4.531L153.087,128.79z"/>
	</g>
</g>
<g>
	<g>
		<defs>
			<polygon id="SVGID_21_" points="-13,0 470,0 470,151 -13,164    "/>
		</defs>
		<clipPath id="SVGID_22_">
			<use xlink:href="#SVGID_21_" overflow="visible"/>
		</clipPath>
		
			<line clip-path="url(#SVGID_22_)" fill="none" stroke="#000000" stroke-width="2" stroke-linecap="square" x1="48.443" y1="35.388" x2="147.966" y2="35.388"/>
	</g>
</g>
<g>
	<g>
		<defs>
			<rect id="SVGID_23_" x="154.009" y="24.791" width="21.199" height="21.199"/>
		</defs>
		<clipPath id="SVGID_24_">
			<use xlink:href="#SVGID_23_" overflow="visible"/>
		</clipPath>
		<path clip-path="url(#SVGID_24_)" fill="none" stroke="#000000" stroke-width="2" stroke-linecap="square" d="M174.208,35.389    c0,5.304-4.301,9.601-9.601,9.601c-5.305,0-9.598-4.297-9.598-9.601c0-5.297,4.293-9.598,9.598-9.598    C169.907,25.791,174.208,30.092,174.208,35.389z M160.785,39.214l7.84-7.839 M168.212,39.214l-7.175-8.589"/>
	</g>
</g>
<polygon fill="none" points="-13,0 470,0 470,151 -13,164 "/>
<g>
	<g>
		<defs>
			<rect id="SVGID_25_" x="161.037" y="44.495" width="7.175" height="8.559"/>
		</defs>
		<clipPath id="SVGID_26_">
			<use xlink:href="#SVGID_25_" overflow="visible"/>
		</clipPath>
		<path clip-path="url(#SVGID_26_)" d="M164.634,46.127l-2.297,5.261c0.93-0.472,3.594-0.453,4.535,0.114L164.634,46.127z"/>
	</g>
	<g>
		<defs>
			<rect id="SVGID_27_" x="161.037" y="44.495" width="7.175" height="8.559"/>
		</defs>
		<clipPath id="SVGID_28_">
			<use xlink:href="#SVGID_27_" overflow="visible"/>
		</clipPath>
		<path clip-path="url(#SVGID_28_)" fill="none" stroke="#000000" stroke-width="1.28" d="M164.634,46.127l-2.297,5.262    c0.93-0.473,3.594-0.453,4.535,0.113L164.634,46.127z"/>
	</g>
</g>
<line fill="none" stroke="#000000" stroke-width="2" stroke-linecap="square" x1="164.607" y1="78.296" x2="164.607" y2="51.389"/>
<polygon fill="none" points="-13,0 470,0 470,151 -13,164 "/>
<g>
	<g>
		<defs>
			<rect id="SVGID_29_" x="160.998" y="113.65" width="7.178" height="8.534"/>
		</defs>
		<clipPath id="SVGID_30_">
			<use xlink:href="#SVGID_29_" overflow="visible"/>
		</clipPath>
		<path clip-path="url(#SVGID_30_)" d="M164.579,120.552l2.289-5.265c-0.925,0.479-3.586,0.457-4.535-0.106L164.579,120.552z"/>
	</g>
	<g>
		<defs>
			<rect id="SVGID_31_" x="160.998" y="113.65" width="7.178" height="8.534"/>
		</defs>
		<clipPath id="SVGID_32_">
			<use xlink:href="#SVGID_31_" overflow="visible"/>
		</clipPath>
		<path clip-path="url(#SVGID_32_)" fill="none" stroke="#000000" stroke-width="1.28" d="M164.579,120.553l2.289-5.267    c-0.925,0.481-3.585,0.457-4.535-0.104L164.579,120.553z"/>
	</g>
</g>
<line fill="none" stroke="#000000" stroke-width="2" stroke-linecap="square" x1="164.607" y1="120.189" x2="164.607" y2="89.296"/>
<line fill="none" stroke="#000000" stroke-width="2" stroke-linecap="square" x1="135.806" y1="128.79" x2="135.806" y2="35.388"/>
<rect x="225.768" y="69.111" fill="none" stroke="#000000" stroke-width="2" stroke-linecap="square" width="34.648" height="30.641"/>
<rect x="322.19" y="72.906" fill="none" stroke="#010101" stroke-width="2" stroke-linecap="square" width="64.94" height="27.387"/>
<line fill="none" stroke="#000000" stroke-width="2" stroke-linecap="square" x1="174.204" y1="129.65" x2="355.775" y2="129.607"/>
<line fill="none" stroke="#000000" stroke-width="2" stroke-linecap="square" x1="174.208" y1="34.575" x2="354.872" y2="34.575"/>
<polygon fill="none" points="-13,0 470,0 470,151 -13,164 "/>
<line fill="none" stroke="#000000" stroke-width="2" stroke-linecap="square" x1="321.189" y1="85.743" x2="267.797" y2="85.752"/>
<line fill="none" stroke="#000000" stroke-width="2" stroke-linecap="square" x1="442.184" y1="86.757" x2="395.375" y2="86.746"/>
<line fill="none" stroke="#000000" stroke-width="2" stroke-linecap="square" x1="452.682" y1="128.764" x2="452.682" y2="101.747"/>
<line fill="none" stroke="#000000" stroke-width="2" stroke-linecap="square" x1="452.709" y1="68.759" x2="452.683" y2="34.544"/>
<rect x="363.23" y="20.854" fill="none" stroke="#000000" stroke-width="2" stroke-linecap="square" width="50.373" height="27.387"/>
<rect x="361.946" y="115.07" fill="none" stroke="#000000" stroke-width="2" stroke-linecap="square" width="49.375" height="27.388"/>
<line fill="none" stroke="#000000" stroke-width="2" stroke-linecap="square" x1="412.321" y1="129.585" x2="452.117" y2="129.541"/>
<line fill="none" stroke="#000000" stroke-width="2" stroke-linecap="square" x1="415.321" y1="34.193" x2="467" y2="34.15"/>
<polygon fill="none" points="-13,0 470,0 470,151 -13,164 "/>
<g>
	<path fill="#010101" d="M385.096,36.723l0.226,0.048l-0.793,2.516h-7.178v-0.253h0.349c0.392,0,0.672-0.127,0.841-0.383   c0.096-0.146,0.144-0.483,0.144-1.012v-5.981c0-0.579-0.064-0.941-0.191-1.087c-0.178-0.201-0.442-0.301-0.793-0.301h-0.349v-0.253   h4.197v0.253c-0.492-0.004-0.837,0.041-1.036,0.137c-0.197,0.096-0.333,0.216-0.406,0.362s-0.109,0.495-0.109,1.046v5.824   c0,0.378,0.036,0.638,0.109,0.779c0.055,0.096,0.139,0.167,0.253,0.212c0.114,0.045,0.47,0.068,1.066,0.068h0.677   c0.711,0,1.21-0.052,1.497-0.157c0.287-0.105,0.549-0.29,0.786-0.557C384.622,37.717,384.858,37.297,385.096,36.723z"/>
	<path fill="#010101" d="M388.493,34.945v2.7c0,0.583,0.063,0.946,0.191,1.087c0.173,0.201,0.435,0.301,0.786,0.301h0.355v0.253   h-3.972v-0.253h0.349c0.392,0,0.672-0.127,0.841-0.383c0.091-0.141,0.137-0.476,0.137-1.005v-5.988   c0-0.583-0.062-0.946-0.185-1.087c-0.178-0.201-0.442-0.301-0.793-0.301h-0.349v-0.253h3.398c0.829,0,1.483,0.086,1.962,0.256   c0.478,0.171,0.882,0.459,1.21,0.865s0.492,0.886,0.492,1.442c0,0.756-0.249,1.372-0.749,1.846   c-0.498,0.474-1.204,0.711-2.115,0.711c-0.224,0-0.465-0.016-0.725-0.048C389.067,35.057,388.789,35.009,388.493,34.945z    M388.493,34.556c0.241,0.045,0.456,0.08,0.642,0.103c0.187,0.023,0.347,0.034,0.479,0.034c0.474,0,0.883-0.184,1.227-0.55   c0.345-0.367,0.517-0.842,0.517-1.425c0-0.401-0.082-0.773-0.246-1.118c-0.164-0.344-0.397-0.602-0.697-0.772   c-0.301-0.171-0.643-0.256-1.025-0.256c-0.232,0-0.531,0.044-0.896,0.13v3.854H388.493z"/>
	<path fill="#010101" d="M396.272,30.523v3.643h1.688c0.388,0,0.671-0.085,0.852-0.256c0.18-0.171,0.299-0.509,0.358-1.015h0.253   v3.138h-0.253c-0.005-0.36-0.052-0.625-0.14-0.793c-0.09-0.168-0.213-0.295-0.369-0.379c-0.158-0.084-0.392-0.126-0.701-0.126   h-1.688v2.912c0,0.469,0.029,0.779,0.089,0.93c0.046,0.114,0.142,0.212,0.287,0.294c0.2,0.109,0.41,0.164,0.629,0.164h0.335v0.253   h-3.979v-0.253h0.328c0.383,0,0.661-0.112,0.834-0.335c0.109-0.146,0.164-0.497,0.164-1.053v-5.988c0-0.469-0.029-0.779-0.089-0.93   c-0.046-0.114-0.139-0.212-0.28-0.294c-0.196-0.109-0.405-0.164-0.629-0.164h-0.328v-0.253h6.897l0.089,2.037h-0.239   c-0.118-0.433-0.256-0.751-0.414-0.954c-0.156-0.203-0.351-0.35-0.58-0.441c-0.23-0.091-0.587-0.137-1.07-0.137H396.272z"/>
</g>
<g>
	<path fill="#010101" d="M381.68,131.984l0.226,0.048l-0.793,2.516h-7.178v-0.253h0.349c0.392,0,0.672-0.128,0.841-0.383   c0.096-0.145,0.144-0.483,0.144-1.012v-5.982c0-0.579-0.063-0.941-0.191-1.087c-0.178-0.2-0.442-0.301-0.793-0.301h-0.349v-0.253   h4.197v0.253c-0.492-0.005-0.837,0.041-1.036,0.137c-0.197,0.096-0.333,0.217-0.406,0.362c-0.073,0.146-0.109,0.494-0.109,1.046   v5.824c0,0.378,0.036,0.638,0.109,0.779c0.055,0.096,0.139,0.166,0.253,0.212c0.114,0.046,0.47,0.068,1.066,0.068h0.677   c0.711,0,1.21-0.053,1.497-0.157c0.287-0.105,0.549-0.29,0.786-0.558C381.206,132.98,381.442,132.559,381.68,131.984z"/>
	<path fill="#010101" d="M385.077,130.207v2.7c0,0.583,0.064,0.945,0.191,1.087c0.173,0.2,0.436,0.301,0.786,0.301h0.355v0.253   h-3.972v-0.253h0.349c0.392,0,0.672-0.128,0.841-0.383c0.091-0.142,0.137-0.477,0.137-1.005v-5.988   c0-0.583-0.061-0.945-0.185-1.087c-0.178-0.2-0.442-0.301-0.793-0.301h-0.349v-0.253h3.397c0.829,0,1.483,0.086,1.962,0.256   c0.479,0.172,0.882,0.46,1.21,0.865s0.492,0.887,0.492,1.442c0,0.757-0.249,1.372-0.749,1.846   c-0.498,0.474-1.204,0.711-2.115,0.711c-0.224,0-0.465-0.016-0.725-0.048C385.651,130.318,385.373,130.27,385.077,130.207z    M385.077,129.817c0.241,0.046,0.456,0.08,0.643,0.103c0.187,0.022,0.347,0.034,0.478,0.034c0.474,0,0.883-0.184,1.227-0.551   c0.345-0.366,0.517-0.842,0.517-1.425c0-0.401-0.082-0.773-0.246-1.118c-0.164-0.344-0.396-0.602-0.697-0.771   c-0.301-0.172-0.642-0.257-1.025-0.257c-0.232,0-0.531,0.043-0.896,0.13v3.855H385.077z"/>
	<path fill="#010101" d="M392.856,125.784v3.644h1.689c0.388,0,0.671-0.085,0.852-0.257c0.18-0.17,0.299-0.509,0.358-1.015h0.253   v3.138h-0.253c-0.005-0.36-0.052-0.624-0.14-0.793c-0.09-0.169-0.213-0.295-0.369-0.379c-0.158-0.085-0.392-0.127-0.701-0.127   h-1.689v2.912c0,0.47,0.029,0.779,0.089,0.93c0.046,0.114,0.142,0.212,0.287,0.294c0.2,0.109,0.41,0.164,0.629,0.164h0.335v0.253   h-3.978v-0.253h0.328c0.383,0,0.661-0.111,0.834-0.335c0.109-0.146,0.164-0.497,0.164-1.053v-5.988c0-0.47-0.029-0.779-0.089-0.93   c-0.046-0.114-0.139-0.212-0.28-0.294c-0.196-0.109-0.405-0.164-0.629-0.164h-0.328v-0.253h6.897l0.089,2.037h-0.239   c-0.118-0.433-0.256-0.751-0.414-0.953c-0.156-0.203-0.351-0.351-0.58-0.441c-0.23-0.091-0.587-0.137-1.07-0.137H392.856z"/>
</g>
<g>
	<path fill="#010101" d="M331.938,89.335l0.226,0.048l-0.793,2.516h-7.178v-0.253h0.349c0.392,0,0.672-0.128,0.841-0.383   c0.096-0.146,0.144-0.483,0.144-1.012V84.27c0-0.579-0.064-0.941-0.191-1.087c-0.178-0.2-0.442-0.301-0.793-0.301h-0.349v-0.253   h4.197v0.253c-0.492-0.005-0.837,0.041-1.036,0.137c-0.197,0.096-0.333,0.217-0.406,0.362c-0.073,0.146-0.109,0.494-0.109,1.046   v5.824c0,0.378,0.036,0.638,0.109,0.779c0.055,0.096,0.139,0.166,0.253,0.212c0.114,0.046,0.47,0.068,1.066,0.068h0.677   c0.711,0,1.21-0.053,1.497-0.157c0.287-0.104,0.549-0.29,0.786-0.558C331.465,90.33,331.701,89.909,331.938,89.335z"/>
	<path fill="#010101" d="M335.965,85.452c0.948,0,1.709,0.36,2.283,1.08c0.487,0.615,0.732,1.321,0.732,2.119   c0,0.561-0.135,1.128-0.403,1.702c-0.269,0.574-0.639,1.007-1.111,1.299c-0.471,0.292-0.996,0.438-1.575,0.438   c-0.943,0-1.693-0.376-2.249-1.128c-0.47-0.634-0.704-1.345-0.704-2.133c0-0.574,0.143-1.146,0.427-1.712   c0.285-0.568,0.66-0.987,1.125-1.258C334.953,85.588,335.445,85.452,335.965,85.452z M335.753,85.896   c-0.241,0-0.484,0.072-0.728,0.215c-0.244,0.145-0.441,0.396-0.592,0.756c-0.15,0.36-0.226,0.822-0.226,1.388   c0,0.911,0.181,1.697,0.544,2.358c0.361,0.661,0.839,0.991,1.432,0.991c0.442,0,0.807-0.183,1.094-0.547s0.431-0.991,0.431-1.88   c0-1.112-0.239-1.987-0.718-2.625C336.667,86.115,336.254,85.896,335.753,85.896z"/>
	<path fill="#010101" d="M342.965,85.452c0.948,0,1.709,0.36,2.283,1.08c0.487,0.615,0.732,1.321,0.732,2.119   c0,0.561-0.135,1.128-0.403,1.702c-0.269,0.574-0.639,1.007-1.111,1.299c-0.471,0.292-0.996,0.438-1.575,0.438   c-0.943,0-1.693-0.376-2.249-1.128c-0.47-0.634-0.704-1.345-0.704-2.133c0-0.574,0.143-1.146,0.427-1.712   c0.285-0.568,0.66-0.987,1.125-1.258C341.953,85.588,342.445,85.452,342.965,85.452z M342.753,85.896   c-0.241,0-0.484,0.072-0.728,0.215c-0.244,0.145-0.441,0.396-0.592,0.756c-0.15,0.36-0.226,0.822-0.226,1.388   c0,0.911,0.181,1.697,0.544,2.358c0.361,0.661,0.839,0.991,1.432,0.991c0.442,0,0.807-0.183,1.094-0.547s0.431-0.991,0.431-1.88   c0-1.112-0.239-1.987-0.718-2.625C343.667,86.115,343.254,85.896,342.753,85.896z"/>
	<path fill="#010101" d="M346.451,86.259l1.928-0.779h0.26v1.463c0.323-0.552,0.648-0.938,0.975-1.159   c0.325-0.221,0.668-0.331,1.028-0.331c0.629,0,1.153,0.246,1.572,0.738c0.515,0.602,0.772,1.386,0.772,2.352   c0,1.08-0.31,1.974-0.93,2.68c-0.511,0.579-1.153,0.868-1.928,0.868c-0.337,0-0.629-0.048-0.875-0.144   c-0.183-0.068-0.388-0.205-0.615-0.41v1.907c0,0.429,0.026,0.701,0.078,0.816c0.053,0.117,0.145,0.209,0.273,0.277   c0.131,0.068,0.366,0.103,0.708,0.103v0.253h-3.281V94.64h0.171c0.251,0.005,0.465-0.043,0.643-0.144   c0.087-0.05,0.154-0.131,0.201-0.242c0.049-0.112,0.072-0.396,0.072-0.852v-5.92c0-0.405-0.018-0.663-0.055-0.772   c-0.036-0.109-0.095-0.191-0.174-0.246c-0.08-0.055-0.189-0.082-0.325-0.082c-0.109,0-0.248,0.032-0.417,0.096L346.451,86.259z    M348.639,87.346v2.338c0,0.506,0.02,0.839,0.061,0.998c0.064,0.265,0.22,0.497,0.468,0.697c0.249,0.2,0.563,0.301,0.94,0.301   c0.456,0,0.825-0.178,1.107-0.533c0.369-0.465,0.554-1.119,0.554-1.962c0-0.957-0.21-1.693-0.629-2.208   c-0.292-0.355-0.638-0.533-1.039-0.533c-0.219,0-0.436,0.055-0.65,0.164C349.288,86.689,349.017,86.936,348.639,87.346z"/>
	<path fill="#010101" d="M359.474,85.637h2.618c0.511,0,0.841-0.014,0.991-0.041h0.301v4.854c0,0.506,0.061,0.83,0.181,0.975   c0.121,0.143,0.394,0.22,0.817,0.229V91.9h-3.117v-0.246c0.446,0,0.733-0.098,0.861-0.294c0.091-0.137,0.137-0.439,0.137-0.909   v-3.315c0-0.424-0.022-0.679-0.068-0.766c-0.036-0.068-0.106-0.122-0.208-0.161c-0.104-0.038-0.433-0.058-0.988-0.058h-1.524v4.074   c0,0.492,0.027,0.812,0.082,0.957c0.041,0.109,0.125,0.203,0.253,0.28c0.2,0.128,0.374,0.191,0.52,0.191h0.287v0.246h-3.418v-0.246   h0.246c0.319,0,0.549-0.088,0.69-0.264c0.142-0.175,0.212-0.563,0.212-1.165V86.15h-1.21v-0.513h1.21   c0-0.834,0.115-1.484,0.346-1.951c0.23-0.468,0.57-0.836,1.022-1.104c0.451-0.269,0.962-0.403,1.531-0.403   c0.392,0,0.747,0.065,1.066,0.195c0.319,0.129,0.555,0.296,0.707,0.498c0.153,0.203,0.23,0.394,0.23,0.571   c0,0.155-0.052,0.285-0.153,0.39c-0.104,0.104-0.225,0.157-0.366,0.157c-0.155,0-0.287-0.04-0.396-0.12   c-0.109-0.079-0.294-0.304-0.554-0.673c-0.15-0.214-0.309-0.369-0.478-0.465c-0.128-0.068-0.287-0.103-0.479-0.103   c-0.232,0-0.464,0.094-0.693,0.28c-0.231,0.187-0.389,0.401-0.476,0.643c-0.118,0.328-0.178,0.902-0.178,1.723v0.362H359.474z"/>
	<path fill="#010101" d="M367.342,82.178v8.306c0,0.392,0.028,0.651,0.085,0.779c0.058,0.128,0.146,0.225,0.264,0.29   c0.118,0.066,0.34,0.1,0.663,0.1v0.246h-3.069v-0.246c0.287,0,0.483-0.029,0.588-0.089c0.104-0.06,0.186-0.157,0.246-0.294   s0.089-0.398,0.089-0.786v-5.688c0-0.706-0.016-1.141-0.048-1.302c-0.032-0.162-0.083-0.272-0.154-0.332   c-0.07-0.06-0.16-0.089-0.27-0.089c-0.118,0-0.269,0.036-0.451,0.109l-0.116-0.239l1.866-0.766L367.342,82.178L367.342,82.178z"/>
	<path fill="#010101" d="M370.896,83.579v2.058h1.463v0.478h-1.463v4.061c0,0.405,0.059,0.679,0.174,0.82   c0.117,0.142,0.266,0.212,0.448,0.212c0.15,0,0.296-0.047,0.438-0.14c0.142-0.094,0.251-0.231,0.328-0.414h0.267   c-0.159,0.446-0.385,0.783-0.677,1.008c-0.292,0.227-0.593,0.339-0.902,0.339c-0.21,0-0.415-0.058-0.615-0.175   c-0.2-0.115-0.349-0.282-0.444-0.498c-0.096-0.217-0.143-0.551-0.143-1.002v-4.211h-0.991V85.89   c0.251-0.101,0.507-0.271,0.77-0.509c0.262-0.24,0.495-0.523,0.7-0.852c0.104-0.173,0.251-0.49,0.438-0.95H370.896z"/>
	<path fill="#010101" d="M374.02,87.995c-0.005,0.93,0.221,1.659,0.677,2.188c0.456,0.528,0.991,0.793,1.606,0.793   c0.41,0,0.767-0.112,1.07-0.339c0.303-0.225,0.557-0.611,0.762-1.158l0.212,0.137c-0.096,0.624-0.374,1.193-0.834,1.705   c-0.46,0.514-1.037,0.77-1.73,0.77c-0.752,0-1.395-0.293-1.932-0.879c-0.535-0.585-0.803-1.372-0.803-2.361   c0-1.071,0.274-1.906,0.824-2.506c0.549-0.599,1.238-0.898,2.067-0.898c0.702,0,1.278,0.232,1.73,0.693   c0.451,0.463,0.677,1.082,0.677,1.856h-4.326V87.995z M374.02,87.599h2.898c-0.022-0.401-0.07-0.684-0.143-0.848   c-0.114-0.255-0.284-0.456-0.509-0.602c-0.227-0.146-0.462-0.219-0.708-0.219c-0.378,0-0.717,0.147-1.015,0.44   C374.245,86.666,374.07,87.074,374.02,87.599z"/>
	<path fill="#010101" d="M381.014,85.452v1.408c0.524-0.938,1.061-1.408,1.613-1.408c0.251,0,0.458,0.076,0.622,0.229   c0.164,0.152,0.246,0.329,0.246,0.529c0,0.178-0.06,0.328-0.178,0.451c-0.118,0.123-0.26,0.185-0.424,0.185   c-0.159,0-0.339-0.079-0.536-0.235c-0.199-0.158-0.346-0.236-0.441-0.236c-0.082,0-0.171,0.046-0.267,0.137   c-0.205,0.186-0.417,0.494-0.636,0.923v3.001c0,0.347,0.043,0.608,0.13,0.786c0.06,0.123,0.164,0.226,0.314,0.308   s0.367,0.123,0.649,0.123v0.246H378.9v-0.246c0.319,0,0.556-0.05,0.711-0.15c0.114-0.073,0.193-0.189,0.239-0.349   c0.022-0.077,0.034-0.299,0.034-0.663v-2.427c0-0.729-0.015-1.163-0.044-1.302c-0.03-0.14-0.085-0.241-0.164-0.305   c-0.08-0.063-0.18-0.096-0.298-0.096c-0.142,0-0.301,0.034-0.478,0.103l-0.068-0.246l1.894-0.766L381.014,85.452L381.014,85.452z"/>
</g>
<g>
	<path fill="#010101" d="M238.232,82.055v0.253c-0.328,0.06-0.576,0.164-0.745,0.314c-0.241,0.224-0.456,0.565-0.643,1.025   l-3.233,7.889h-0.253l-3.473-7.991c-0.178-0.41-0.303-0.661-0.376-0.752c-0.114-0.142-0.254-0.252-0.42-0.332   c-0.167-0.079-0.392-0.131-0.674-0.153v-0.253h3.787v0.253c-0.429,0.041-0.706,0.114-0.834,0.219   c-0.128,0.104-0.191,0.239-0.191,0.403c0,0.228,0.105,0.583,0.314,1.066l2.358,5.435l2.188-5.366   c0.214-0.528,0.321-0.896,0.321-1.101c0-0.132-0.066-0.259-0.198-0.38c-0.132-0.12-0.355-0.206-0.67-0.256   c-0.022-0.004-0.062-0.012-0.116-0.021v-0.253L238.232,82.055L238.232,82.055z"/>
	<path fill="#010101" d="M246.832,81.843l0.212,3.151h-0.212c-0.282-0.943-0.686-1.622-1.21-2.037s-1.153-0.622-1.887-0.622   c-0.615,0-1.171,0.156-1.668,0.468c-0.497,0.313-0.888,0.811-1.172,1.494c-0.285,0.684-0.428,1.533-0.428,2.55   c0,0.839,0.135,1.565,0.403,2.181c0.268,0.615,0.673,1.087,1.214,1.415c0.539,0.328,1.156,0.492,1.849,0.492   c0.602,0,1.133-0.129,1.593-0.386c0.46-0.258,0.966-0.77,1.518-1.535l0.212,0.137c-0.465,0.825-1.007,1.429-1.627,1.812   c-0.62,0.383-1.355,0.574-2.208,0.574c-1.536,0-2.726-0.569-3.568-1.709c-0.629-0.848-0.943-1.846-0.943-2.994   c0-0.925,0.207-1.775,0.622-2.55c0.415-0.774,0.985-1.375,1.712-1.801c0.727-0.427,1.521-0.64,2.383-0.64   c0.67,0,1.331,0.164,1.982,0.492c0.191,0.101,0.328,0.15,0.41,0.15c0.123,0,0.23-0.043,0.321-0.13   c0.118-0.123,0.203-0.294,0.253-0.513h0.239V81.843z"/>
	<path fill="#010101" d="M252.861,81.843c1.203,0,2.245,0.457,3.128,1.37c0.881,0.914,1.322,2.055,1.322,3.422   c0,1.408-0.444,2.577-1.333,3.507c-0.889,0.93-1.964,1.395-3.227,1.395c-1.276,0-2.349-0.453-3.216-1.36   c-0.869-0.907-1.303-2.08-1.303-3.521c0-1.472,0.501-2.673,1.504-3.603C250.607,82.246,251.649,81.843,252.861,81.843z    M252.731,82.342c-0.829,0-1.495,0.308-1.996,0.923c-0.624,0.766-0.937,1.887-0.937,3.363c0,1.513,0.323,2.678,0.971,3.493   c0.497,0.62,1.153,0.93,1.969,0.93c0.87,0,1.589-0.34,2.157-1.019c0.566-0.679,0.851-1.75,0.851-3.213   c0-1.586-0.313-2.769-0.936-3.548C254.309,82.651,253.615,82.342,252.731,82.342z"/>
</g>
<g>
	<g>
		<defs>
			<rect id="SVGID_33_" x="442.184" y="74.527" width="21.199" height="21.2"/>
		</defs>
		<clipPath id="SVGID_34_">
			<use xlink:href="#SVGID_33_" overflow="visible"/>
		</clipPath>
		<path clip-path="url(#SVGID_34_)" fill="none" stroke="#000000" stroke-width="2" stroke-linecap="square" d="M462.382,85.127    c0,5.303-4.301,9.6-9.6,9.6c-5.306,0-9.599-4.297-9.599-9.6c0-5.298,4.293-9.6,9.599-9.6    C458.081,75.527,462.382,79.829,462.382,85.127z M446.382,91.527l12.802-12.801 M459.184,91.527l-12.802-12.801"/>
	</g>
</g>
<g>
	<g>
		<defs>
			<rect id="SVGID_35_" x="145.44" y="32.041" width="8.558" height="7.173"/>
		</defs>
		<clipPath id="SVGID_36_">
			<use xlink:href="#SVGID_35_" overflow="visible"/>
		</clipPath>
		<path clip-path="url(#SVGID_36_)" d="M152.366,35.633l-5.265-2.289c0.476,0.925,0.457,3.586-0.11,4.531L152.366,35.633z"/>
	</g>
	<g>
		<defs>
			<rect id="SVGID_37_" x="145.44" y="32.041" width="8.558" height="7.173"/>
		</defs>
		<clipPath id="SVGID_38_">
			<use xlink:href="#SVGID_37_" overflow="visible"/>
		</clipPath>
		<path clip-path="url(#SVGID_38_)" fill="none" stroke="#000000" stroke-width="1.28" d="M152.366,35.631l-5.265-2.289    c0.476,0.927,0.457,3.586-0.11,4.531L152.366,35.631z"/>
	</g>
</g>
<g>
	<g>
		<defs>
			<rect id="SVGID_39_" x="260.089" y="82.126" width="10.093" height="7.252"/>
		</defs>
		<clipPath id="SVGID_40_">
			<use xlink:href="#SVGID_39_" overflow="visible"/>
		</clipPath>
		<path clip-path="url(#SVGID_40_)" fill="none" stroke="#000000" stroke-width="1.383" d="M262.105,85.759l6.146-2.293    c-0.56,0.93-0.529,3.59,0.128,4.534L262.105,85.759z"/>
	</g>
	<g>
		<defs>
			<rect id="SVGID_41_" x="260.089" y="82.126" width="10.093" height="7.252"/>
		</defs>
		<clipPath id="SVGID_42_">
			<use xlink:href="#SVGID_41_" overflow="visible"/>
		</clipPath>
		<path clip-path="url(#SVGID_42_)" d="M263.102,85.809l5.323-2.155c-0.503,0.918-0.55,3.577-0.014,4.539L263.102,85.809z"/>
	</g>
</g>
<g>
	<g>
		<defs>
			<rect id="SVGID_43_" x="387.131" y="82.974" width="10.092" height="7.251"/>
		</defs>
		<clipPath id="SVGID_44_">
			<use xlink:href="#SVGID_43_" overflow="visible"/>
		</clipPath>
		<path clip-path="url(#SVGID_44_)" fill="none" stroke="#000000" stroke-width="1.383" d="M389.147,86.606l6.146-2.293    c-0.559,0.93-0.529,3.59,0.128,4.534L389.147,86.606z"/>
	</g>
	<g>
		<defs>
			<rect id="SVGID_45_" x="387.131" y="82.974" width="10.092" height="7.251"/>
		</defs>
		<clipPath id="SVGID_46_">
			<use xlink:href="#SVGID_45_" overflow="visible"/>
		</clipPath>
		<path clip-path="url(#SVGID_46_)" d="M390.144,86.656l5.323-2.155c-0.503,0.918-0.55,3.577-0.014,4.539L390.144,86.656z"/>
	</g>
</g>
<g>
	<g>
		<defs>
			<rect id="SVGID_47_" x="448.946" y="95.473" width="7.175" height="8.559"/>
		</defs>
		<clipPath id="SVGID_48_">
			<use xlink:href="#SVGID_47_" overflow="visible"/>
		</clipPath>
		<path clip-path="url(#SVGID_48_)" d="M452.543,97.104l-2.297,5.261c0.931-0.472,3.594-0.451,4.534,0.114L452.543,97.104z"/>
	</g>
	<g>
		<defs>
			<rect id="SVGID_49_" x="448.946" y="95.473" width="7.175" height="8.559"/>
		</defs>
		<clipPath id="SVGID_50_">
			<use xlink:href="#SVGID_49_" overflow="visible"/>
		</clipPath>
		<path clip-path="url(#SVGID_50_)" fill="none" stroke="#000000" stroke-width="1.28" d="M452.543,97.104l-2.297,5.263    c0.931-0.474,3.594-0.453,4.534,0.112L452.543,97.104z"/>
	</g>
</g>
<g>
	<g>
		<defs>
			<rect id="SVGID_51_" x="449.694" y="65.86" width="7.177" height="8.535"/>
		</defs>
		<clipPath id="SVGID_52_">
			<use xlink:href="#SVGID_51_" overflow="visible"/>
		</clipPath>
		<path clip-path="url(#SVGID_52_)" d="M453.275,72.762l2.289-5.265c-0.926,0.48-3.586,0.457-4.535-0.106L453.275,72.762z"/>
	</g>
	<g>
		<defs>
			<rect id="SVGID_53_" x="449.694" y="65.86" width="7.177" height="8.535"/>
		</defs>
		<clipPath id="SVGID_54_">
			<use xlink:href="#SVGID_53_" overflow="visible"/>
		</clipPath>
		<path clip-path="url(#SVGID_54_)" fill="none" stroke="#000000" stroke-width="1.28" d="M453.275,72.763l2.289-5.267    c-0.926,0.482-3.585,0.457-4.535-0.104L453.275,72.763z"/>
	</g>
</g>
<g>
	<g>
		<defs>
			<rect id="SVGID_55_" x="353.216" y="30.942" width="8.558" height="7.173"/>
		</defs>
		<clipPath id="SVGID_56_">
			<use xlink:href="#SVGID_55_" overflow="visible"/>
		</clipPath>
		<path clip-path="url(#SVGID_56_)" d="M360.141,34.534l-5.265-2.289c0.476,0.925,0.457,3.586-0.11,4.531L360.141,34.534z"/>
	</g>
	<g>
		<defs>
			<rect id="SVGID_57_" x="353.216" y="30.942" width="8.558" height="7.173"/>
		</defs>
		<clipPath id="SVGID_58_">
			<use xlink:href="#SVGID_57_" overflow="visible"/>
		</clipPath>
		<path clip-path="url(#SVGID_58_)" fill="none" stroke="#000000" stroke-width="1.28" d="M360.141,34.532l-5.265-2.289    c0.476,0.927,0.457,3.586-0.11,4.531L360.141,34.532z"/>
	</g>
</g>
<g>
	<g>
		<defs>
			<rect id="SVGID_59_" x="354.316" y="126.022" width="8.557" height="7.172"/>
		</defs>
		<clipPath id="SVGID_60_">
			<use xlink:href="#SVGID_59_" overflow="visible"/>
		</clipPath>
		<path clip-path="url(#SVGID_60_)" d="M361.24,129.613l-5.265-2.289c0.476,0.926,0.457,3.586-0.11,4.531L361.24,129.613z"/>
	</g>
	<g>
		<defs>
			<rect id="SVGID_61_" x="354.316" y="126.022" width="8.557" height="7.172"/>
		</defs>
		<clipPath id="SVGID_62_">
			<use xlink:href="#SVGID_61_" overflow="visible"/>
		</clipPath>
		<path clip-path="url(#SVGID_62_)" fill="none" stroke="#000000" stroke-width="1.28" d="M361.24,129.612l-5.265-2.289    c0.476,0.929,0.457,3.586-0.11,4.531L361.24,129.612z"/>
	</g>
</g>
<g>
	<path fill="#010101" d="M12.646,133.42c-0.474,0.569-0.953,0.988-1.436,1.254c-0.483,0.268-0.994,0.4-1.531,0.4   c-0.647,0-1.152-0.183-1.514-0.547c-0.362-0.364-0.543-0.854-0.543-1.47c0-0.697,0.195-1.383,0.585-2.058   c0.39-0.675,0.913-1.223,1.572-1.645c0.659-0.421,1.305-0.632,1.938-0.632c0.497,0,0.868,0.104,1.114,0.312   c0.246,0.207,0.369,0.461,0.369,0.762c0,0.282-0.086,0.524-0.26,0.725c-0.127,0.155-0.285,0.232-0.472,0.232   c-0.141,0-0.259-0.046-0.352-0.137c-0.093-0.091-0.14-0.205-0.14-0.342c0-0.087,0.017-0.166,0.051-0.239   c0.034-0.073,0.105-0.161,0.212-0.263c0.107-0.104,0.172-0.177,0.195-0.223s0.034-0.094,0.034-0.144   c0-0.096-0.043-0.176-0.13-0.239c-0.132-0.091-0.319-0.137-0.561-0.137c-0.447,0-0.889,0.157-1.326,0.472   c-0.438,0.314-0.811,0.761-1.121,1.34c-0.374,0.702-0.561,1.403-0.561,2.105c0,0.465,0.132,0.833,0.396,1.105   c0.264,0.27,0.625,0.406,1.08,0.406c0.351,0,0.698-0.088,1.042-0.264c0.344-0.175,0.73-0.493,1.159-0.953L12.646,133.42z"/>
	<path fill="#010101" d="M20.022,128.724l-1.333,4.635l-0.15,0.622c-0.014,0.059-0.021,0.109-0.021,0.15   c0,0.073,0.023,0.137,0.068,0.191c0.037,0.041,0.082,0.062,0.137,0.062c0.059,0,0.137-0.036,0.233-0.109   c0.178-0.132,0.414-0.405,0.711-0.82l0.232,0.164c-0.314,0.474-0.638,0.835-0.971,1.083c-0.333,0.249-0.64,0.373-0.923,0.373   c-0.196,0-0.343-0.049-0.441-0.146c-0.098-0.099-0.147-0.241-0.147-0.428c0-0.224,0.05-0.518,0.15-0.882l0.143-0.513   c-0.597,0.779-1.146,1.324-1.647,1.634c-0.36,0.224-0.713,0.335-1.06,0.335c-0.333,0-0.62-0.138-0.861-0.414   c-0.242-0.275-0.362-0.654-0.362-1.138c0-0.725,0.218-1.489,0.653-2.294c0.435-0.804,0.988-1.447,1.658-1.931   c0.524-0.383,1.019-0.574,1.483-0.574c0.278,0,0.509,0.073,0.694,0.219c0.184,0.146,0.325,0.388,0.42,0.725l0.246-0.779   L20.022,128.724z M17.588,129.079c-0.292,0-0.602,0.137-0.93,0.41c-0.465,0.388-0.878,0.962-1.241,1.723   c-0.362,0.761-0.543,1.449-0.543,2.064c0,0.31,0.078,0.555,0.232,0.735c0.155,0.18,0.333,0.27,0.533,0.27   c0.497,0,1.037-0.367,1.62-1.101c0.779-0.976,1.169-1.976,1.169-3.001c0-0.388-0.075-0.668-0.226-0.841   C18.053,129.166,17.848,129.079,17.588,129.079z"/>
	<path fill="#010101" d="M21.184,129.106l2.358-0.383l-0.984,3.322c0.797-1.362,1.522-2.315,2.174-2.857   c0.369-0.31,0.67-0.465,0.902-0.465c0.15,0,0.269,0.044,0.355,0.134c0.087,0.088,0.13,0.217,0.13,0.386   c0,0.301-0.078,0.588-0.232,0.861c-0.109,0.205-0.267,0.308-0.472,0.308c-0.105,0-0.195-0.034-0.27-0.102   c-0.075-0.068-0.122-0.173-0.14-0.314c-0.009-0.087-0.03-0.144-0.062-0.171c-0.037-0.036-0.08-0.055-0.13-0.055   c-0.078,0-0.15,0.019-0.219,0.055c-0.119,0.063-0.298,0.241-0.54,0.533c-0.378,0.446-0.789,1.025-1.231,1.736   c-0.191,0.301-0.355,0.641-0.492,1.019c-0.191,0.52-0.301,0.832-0.328,0.936l-0.219,0.861H20.74l1.265-4.245   c0.146-0.492,0.219-0.843,0.219-1.053c0-0.082-0.034-0.15-0.103-0.205c-0.091-0.073-0.212-0.109-0.362-0.109   c-0.096,0-0.271,0.021-0.526,0.062L21.184,129.106z"/>
	<path fill="#010101" d="M26.632,129.106l2.358-0.383l-0.984,3.322c0.797-1.362,1.522-2.315,2.174-2.857   c0.369-0.31,0.67-0.465,0.902-0.465c0.15,0,0.269,0.044,0.355,0.134c0.086,0.088,0.13,0.217,0.13,0.386   c0,0.301-0.078,0.588-0.233,0.861c-0.109,0.205-0.267,0.308-0.472,0.308c-0.105,0-0.195-0.034-0.27-0.102   c-0.075-0.068-0.122-0.173-0.14-0.314c-0.009-0.087-0.03-0.144-0.062-0.171c-0.037-0.036-0.08-0.055-0.13-0.055   c-0.078,0-0.15,0.019-0.219,0.055c-0.119,0.063-0.298,0.241-0.54,0.533c-0.378,0.446-0.789,1.025-1.231,1.736   c-0.191,0.301-0.355,0.641-0.492,1.019c-0.191,0.52-0.301,0.832-0.328,0.936l-0.219,0.861h-1.046l1.265-4.245   c0.146-0.492,0.219-0.843,0.219-1.053c0-0.082-0.034-0.15-0.103-0.205c-0.091-0.073-0.212-0.109-0.362-0.109   c-0.096,0-0.271,0.021-0.526,0.062L26.632,129.106z"/>
	<path fill="#010101" d="M34.569,128.724l-1.354,4.792c-0.091,0.323-0.137,0.518-0.137,0.581c0,0.073,0.021,0.132,0.065,0.178   c0.043,0.046,0.095,0.068,0.154,0.068c0.068,0,0.15-0.036,0.246-0.109c0.26-0.205,0.522-0.497,0.786-0.875l0.239,0.157   c-0.31,0.474-0.674,0.873-1.094,1.196c-0.31,0.241-0.606,0.362-0.889,0.362c-0.187,0-0.339-0.056-0.458-0.168   c-0.119-0.111-0.178-0.251-0.178-0.42c0-0.169,0.057-0.449,0.171-0.841l0.889-3.063c0.146-0.501,0.219-0.815,0.219-0.943   c0-0.101-0.035-0.183-0.106-0.246c-0.071-0.064-0.167-0.096-0.291-0.096c-0.1,0-0.308,0.025-0.622,0.075v-0.267L34.569,128.724z    M34.48,126.01c0.191,0,0.353,0.066,0.485,0.198c0.132,0.132,0.198,0.294,0.198,0.485c0,0.187-0.067,0.348-0.202,0.482   c-0.134,0.134-0.295,0.201-0.482,0.201s-0.348-0.067-0.482-0.201c-0.134-0.135-0.202-0.296-0.202-0.482   c0-0.191,0.066-0.354,0.198-0.485C34.127,126.076,34.289,126.01,34.48,126.01z"/>
	<path fill="#010101" d="M36.907,132.333c-0.032,0.228-0.048,0.417-0.048,0.567c0,0.405,0.144,0.751,0.431,1.035   c0.287,0.285,0.636,0.428,1.046,0.428c0.328,0,0.644-0.067,0.947-0.201c0.303-0.135,0.753-0.433,1.35-0.893l0.144,0.198   c-1.08,1.071-2.11,1.606-3.09,1.606c-0.666,0-1.167-0.21-1.504-0.629c-0.337-0.419-0.506-0.882-0.506-1.388   c0-0.679,0.209-1.374,0.629-2.085c0.419-0.711,0.946-1.264,1.579-1.658s1.285-0.591,1.955-0.591c0.483,0,0.841,0.098,1.073,0.294   c0.232,0.196,0.349,0.429,0.349,0.697c0,0.378-0.15,0.74-0.451,1.087c-0.396,0.451-0.98,0.815-1.75,1.094   C38.55,132.082,37.832,132.229,36.907,132.333z M36.955,131.998c0.674-0.077,1.224-0.21,1.647-0.396   c0.561-0.251,0.981-0.551,1.261-0.898c0.28-0.35,0.42-0.681,0.42-0.995c0-0.191-0.061-0.347-0.181-0.465   c-0.121-0.118-0.293-0.178-0.516-0.178c-0.465,0-0.958,0.247-1.48,0.741C37.584,130.302,37.201,131.032,36.955,131.998z"/>
	<path fill="#010101" d="M42.184,129.106l2.358-0.383l-0.984,3.322c0.797-1.362,1.522-2.315,2.174-2.857   c0.369-0.31,0.67-0.465,0.902-0.465c0.15,0,0.269,0.044,0.355,0.134c0.086,0.088,0.13,0.217,0.13,0.386   c0,0.301-0.078,0.588-0.232,0.861c-0.109,0.205-0.267,0.308-0.472,0.308c-0.105,0-0.195-0.034-0.27-0.102   c-0.075-0.068-0.122-0.173-0.14-0.314c-0.009-0.087-0.03-0.144-0.062-0.171c-0.037-0.036-0.08-0.055-0.13-0.055   c-0.078,0-0.15,0.019-0.219,0.055c-0.119,0.063-0.298,0.241-0.54,0.533c-0.378,0.446-0.789,1.025-1.23,1.736   c-0.191,0.301-0.355,0.641-0.492,1.019c-0.191,0.52-0.301,0.832-0.328,0.936l-0.219,0.861H41.74l1.265-4.245   c0.146-0.492,0.219-0.843,0.219-1.053c0-0.082-0.034-0.15-0.102-0.205c-0.091-0.073-0.212-0.109-0.362-0.109   c-0.096,0-0.271,0.021-0.526,0.062L42.184,129.106z"/>
</g>
<polygon fill="none" points="-13,0 470,0 470,151 -13,164 "/>
<line fill="none" stroke="#000000" stroke-width="2" x1="164.607" y1="78.296" x2="225.242" y2="78.296"/>
<polygon fill="none" points="-13,0 470,0 470,151 -13,164 "/>
<g>
	<text transform="matrix(1 0 0 1 406.127 73.9236)" font-family="'TimesNewRomanPSMT'" font-size="14">φ(t)</text>
</g>
<polygon fill="none" points="-13,0 470,0 470,151 -13,164 "/>
<text transform="matrix(1 0 0 1 14.8094 26.9282)" font-family="'TimesNewRomanPSMT'" font-size="14">u(t) = m(t)sin(ωt)</text>
<text transform="matrix(1 0 0 1 3.5679 92.998)" font-family="'TimesNewRomanPSMT'" font-size="11">data m(t)</text>
<g>
	<g>
		<defs>
			<rect id="SVGID_63_" x="153.808" y="120.313" width="21.199" height="21.199"/>
		</defs>
		<clipPath id="SVGID_64_">
			<use xlink:href="#SVGID_63_" overflow="visible"/>
		</clipPath>
		<path clip-path="url(#SVGID_64_)" fill="none" stroke="#000000" stroke-width="2" stroke-linecap="square" d="M174.007,130.912    c0,5.304-4.301,9.601-9.601,9.601c-5.305,0-9.598-4.297-9.598-9.601c0-5.297,4.293-9.598,9.598-9.598    C169.706,121.313,174.007,125.615,174.007,130.912z M160.584,134.736l7.84-7.839 M168.011,134.736l-7.175-8.589"/>
	</g>
</g>
<line fill="none" stroke="#000000" stroke-width="2" x1="165.607" y1="89.296" x2="225.242" y2="89.296"/>
<text transform="matrix(1 0 0 1 173.2119 103.2427)" enable-background="new    "><tspan x="0" y="0" font-family="'TimesNewRomanPSMT'" font-size="14">cos( </tspan><tspan x="26.824" y="0" fill="#010101" font-family="'TimesNewRomanPSMT'" font-size="14">ωt)</tspan></text>
<text transform="matrix(1 0 0 1 173.2119 72.0337)" enable-background="new    "><tspan x="0" y="0" font-family="'TimesNewRomanPSMT'" font-size="14">sin( </tspan><tspan x="24.5" y="0" fill="#010101" font-family="'TimesNewRomanPSMT'" font-size="14">ωt)</tspan></text>
<text transform="matrix(1 0 0 1 281.3965 73.3358)" font-family="'TimesNewRomanPSMT'" font-size="14">g(t)</text>
<text transform="matrix(1 0 0 1 432.2192 14.3358)" font-family="'TimesNewRomanPSMT'" font-size="14">m</text>
<text transform="matrix(1 0 0 1 447.1899 14.3358)" font-family="'TimesNewRomanPSMT'" font-size="14">(t)</text>
<text transform="matrix(1 0 0 1 443.1836 31.1152)" font-family="'MyriadPro-Regular'" font-size="12">2</text>
<line fill="none" stroke="#000000" stroke-miterlimit="10" x1="432.219" y1="21" x2="461" y2="21"/>
<g>
	<g>
		<defs>
			<rect id="SVGID_65_" x="462.721" y="30.607" width="8.558" height="7.173"/>
		</defs>
		<clipPath id="SVGID_66_">
			<use xlink:href="#SVGID_65_" overflow="visible"/>
		</clipPath>
		<path clip-path="url(#SVGID_66_)" d="M469.647,34.199l-5.265-2.289c0.476,0.925,0.457,3.586-0.11,4.531L469.647,34.199z"/>
	</g>
	<g>
		<defs>
			<rect id="SVGID_67_" x="462.721" y="30.607" width="8.558" height="7.173"/>
		</defs>
		<clipPath id="SVGID_68_">
			<use xlink:href="#SVGID_67_" overflow="visible"/>
		</clipPath>
		<path clip-path="url(#SVGID_68_)" fill="none" stroke="#000000" stroke-width="1.28" d="M469.647,34.197l-5.265-2.289    c0.476,0.927,0.457,3.586-0.11,4.531L469.647,34.197z"/>
	</g>
</g>
<path fill="none" stroke="#231F20" stroke-width="2" d="M503.393,26.216h-12.235v12.326l-12.532-0.007l-0.001-12.191   M503.429,26.344l0.001,12.191l12.532,0.007"/>
<path fill="none" stroke="#231F20" stroke-width="2" d="M540.553,38.661h-12.235V26.437l-12.532,0.007l-0.001,12.09 M540.588,38.534  l0.001-12.09l12.532-0.007"/>
</svg>