<?xml version="1.0" encoding="utf-8" standalone="no"?>
<!DOCTYPE svg PUBLIC "-//W3C//DTD SVG 1.1//EN"
  "http://www.w3.org/Graphics/SVG/1.1/DTD/svg11.dtd">
<!-- Created with matplotlib (https://matplotlib.org/) -->
<svg height="214.57625pt" version="1.1" viewBox="0 0 460.373252 214.57625" width="460.373252pt" xmlns="http://www.w3.org/2000/svg" xmlns:xlink="http://www.w3.org/1999/xlink">
 <defs>
  <style type="text/css">
*{stroke-linecap:butt;stroke-linejoin:round;}
  </style>
 </defs>
 <g id="figure_1">
  <g id="patch_1">
   <path d="M 0 214.57625 
L 460.373252 214.57625 
L 460.373252 0 
L 0 0 
z
" style="fill:#ffffff;"/>
  </g>
  <g id="axes_1">
   <g id="patch_2">
    <path d="M 55.345313 177.02 
L 445.945312 177.02 
L 445.945312 10.7 
L 55.345313 10.7 
z
" style="fill:#ffffff;"/>
   </g>
   <g id="matplotlib.axis_1">
    <g id="xtick_1">
     <g id="line2d_1">
      <defs>
       <path d="M 0 0 
L 0 3.5 
" id="m3bc68b19fe" style="stroke:#000000;stroke-width:0.8;"/>
      </defs>
      <g>
       <use style="stroke:#000000;stroke-width:0.8;" x="73.099858" xlink:href="#m3bc68b19fe" y="177.02"/>
      </g>
     </g>
     <g id="text_1">
      <!-- 0 -->
      <defs>
       <path d="M 31.78125 66.40625 
Q 24.171875 66.40625 20.328125 58.90625 
Q 16.5 51.421875 16.5 36.375 
Q 16.5 21.390625 20.328125 13.890625 
Q 24.171875 6.390625 31.78125 6.390625 
Q 39.453125 6.390625 43.28125 13.890625 
Q 47.125 21.390625 47.125 36.375 
Q 47.125 51.421875 43.28125 58.90625 
Q 39.453125 66.40625 31.78125 66.40625 
z
M 31.78125 74.21875 
Q 44.046875 74.21875 50.515625 64.515625 
Q 56.984375 54.828125 56.984375 36.375 
Q 56.984375 17.96875 50.515625 8.265625 
Q 44.046875 -1.421875 31.78125 -1.421875 
Q 19.53125 -1.421875 13.0625 8.265625 
Q 6.59375 17.96875 6.59375 36.375 
Q 6.59375 54.828125 13.0625 64.515625 
Q 19.53125 74.21875 31.78125 74.21875 
z
" id="DejaVuSans-48"/>
      </defs>
      <g transform="translate(69.918608 191.618438)scale(0.1 -0.1)">
       <use xlink:href="#DejaVuSans-48"/>
      </g>
     </g>
    </g>
    <g id="xtick_2">
     <g id="line2d_2">
      <g>
       <use style="stroke:#000000;stroke-width:0.8;" x="134.854799" xlink:href="#m3bc68b19fe" y="177.02"/>
      </g>
     </g>
     <g id="text_2">
      <!-- 20 -->
      <defs>
       <path d="M 19.1875 8.296875 
L 53.609375 8.296875 
L 53.609375 0 
L 7.328125 0 
L 7.328125 8.296875 
Q 12.9375 14.109375 22.625 23.890625 
Q 32.328125 33.6875 34.8125 36.53125 
Q 39.546875 41.84375 41.421875 45.53125 
Q 43.3125 49.21875 43.3125 52.78125 
Q 43.3125 58.59375 39.234375 62.25 
Q 35.15625 65.921875 28.609375 65.921875 
Q 23.96875 65.921875 18.8125 64.3125 
Q 13.671875 62.703125 7.8125 59.421875 
L 7.8125 69.390625 
Q 13.765625 71.78125 18.9375 73 
Q 24.125 74.21875 28.421875 74.21875 
Q 39.75 74.21875 46.484375 68.546875 
Q 53.21875 62.890625 53.21875 53.421875 
Q 53.21875 48.921875 51.53125 44.890625 
Q 49.859375 40.875 45.40625 35.40625 
Q 44.1875 33.984375 37.640625 27.21875 
Q 31.109375 20.453125 19.1875 8.296875 
z
" id="DejaVuSans-50"/>
      </defs>
      <g transform="translate(128.492299 191.618438)scale(0.1 -0.1)">
       <use xlink:href="#DejaVuSans-50"/>
       <use x="63.623047" xlink:href="#DejaVuSans-48"/>
      </g>
     </g>
    </g>
    <g id="xtick_3">
     <g id="line2d_3">
      <g>
       <use style="stroke:#000000;stroke-width:0.8;" x="196.609739" xlink:href="#m3bc68b19fe" y="177.02"/>
      </g>
     </g>
     <g id="text_3">
      <!-- 40 -->
      <defs>
       <path d="M 37.796875 64.3125 
L 12.890625 25.390625 
L 37.796875 25.390625 
z
M 35.203125 72.90625 
L 47.609375 72.90625 
L 47.609375 25.390625 
L 58.015625 25.390625 
L 58.015625 17.1875 
L 47.609375 17.1875 
L 47.609375 0 
L 37.796875 0 
L 37.796875 17.1875 
L 4.890625 17.1875 
L 4.890625 26.703125 
z
" id="DejaVuSans-52"/>
      </defs>
      <g transform="translate(190.247239 191.618438)scale(0.1 -0.1)">
       <use xlink:href="#DejaVuSans-52"/>
       <use x="63.623047" xlink:href="#DejaVuSans-48"/>
      </g>
     </g>
    </g>
    <g id="xtick_4">
     <g id="line2d_4">
      <g>
       <use style="stroke:#000000;stroke-width:0.8;" x="258.36468" xlink:href="#m3bc68b19fe" y="177.02"/>
      </g>
     </g>
     <g id="text_4">
      <!-- 60 -->
      <defs>
       <path d="M 33.015625 40.375 
Q 26.375 40.375 22.484375 35.828125 
Q 18.609375 31.296875 18.609375 23.390625 
Q 18.609375 15.53125 22.484375 10.953125 
Q 26.375 6.390625 33.015625 6.390625 
Q 39.65625 6.390625 43.53125 10.953125 
Q 47.40625 15.53125 47.40625 23.390625 
Q 47.40625 31.296875 43.53125 35.828125 
Q 39.65625 40.375 33.015625 40.375 
z
M 52.59375 71.296875 
L 52.59375 62.3125 
Q 48.875 64.0625 45.09375 64.984375 
Q 41.3125 65.921875 37.59375 65.921875 
Q 27.828125 65.921875 22.671875 59.328125 
Q 17.53125 52.734375 16.796875 39.40625 
Q 19.671875 43.65625 24.015625 45.921875 
Q 28.375 48.1875 33.59375 48.1875 
Q 44.578125 48.1875 50.953125 41.515625 
Q 57.328125 34.859375 57.328125 23.390625 
Q 57.328125 12.15625 50.6875 5.359375 
Q 44.046875 -1.421875 33.015625 -1.421875 
Q 20.359375 -1.421875 13.671875 8.265625 
Q 6.984375 17.96875 6.984375 36.375 
Q 6.984375 53.65625 15.1875 63.9375 
Q 23.390625 74.21875 37.203125 74.21875 
Q 40.921875 74.21875 44.703125 73.484375 
Q 48.484375 72.75 52.59375 71.296875 
z
" id="DejaVuSans-54"/>
      </defs>
      <g transform="translate(252.00218 191.618438)scale(0.1 -0.1)">
       <use xlink:href="#DejaVuSans-54"/>
       <use x="63.623047" xlink:href="#DejaVuSans-48"/>
      </g>
     </g>
    </g>
    <g id="xtick_5">
     <g id="line2d_5">
      <g>
       <use style="stroke:#000000;stroke-width:0.8;" x="320.119621" xlink:href="#m3bc68b19fe" y="177.02"/>
      </g>
     </g>
     <g id="text_5">
      <!-- 80 -->
      <defs>
       <path d="M 31.78125 34.625 
Q 24.75 34.625 20.71875 30.859375 
Q 16.703125 27.09375 16.703125 20.515625 
Q 16.703125 13.921875 20.71875 10.15625 
Q 24.75 6.390625 31.78125 6.390625 
Q 38.8125 6.390625 42.859375 10.171875 
Q 46.921875 13.96875 46.921875 20.515625 
Q 46.921875 27.09375 42.890625 30.859375 
Q 38.875 34.625 31.78125 34.625 
z
M 21.921875 38.8125 
Q 15.578125 40.375 12.03125 44.71875 
Q 8.5 49.078125 8.5 55.328125 
Q 8.5 64.0625 14.71875 69.140625 
Q 20.953125 74.21875 31.78125 74.21875 
Q 42.671875 74.21875 48.875 69.140625 
Q 55.078125 64.0625 55.078125 55.328125 
Q 55.078125 49.078125 51.53125 44.71875 
Q 48 40.375 41.703125 38.8125 
Q 48.828125 37.15625 52.796875 32.3125 
Q 56.78125 27.484375 56.78125 20.515625 
Q 56.78125 9.90625 50.3125 4.234375 
Q 43.84375 -1.421875 31.78125 -1.421875 
Q 19.734375 -1.421875 13.25 4.234375 
Q 6.78125 9.90625 6.78125 20.515625 
Q 6.78125 27.484375 10.78125 32.3125 
Q 14.796875 37.15625 21.921875 38.8125 
z
M 18.3125 54.390625 
Q 18.3125 48.734375 21.84375 45.5625 
Q 25.390625 42.390625 31.78125 42.390625 
Q 38.140625 42.390625 41.71875 45.5625 
Q 45.3125 48.734375 45.3125 54.390625 
Q 45.3125 60.0625 41.71875 63.234375 
Q 38.140625 66.40625 31.78125 66.40625 
Q 25.390625 66.40625 21.84375 63.234375 
Q 18.3125 60.0625 18.3125 54.390625 
z
" id="DejaVuSans-56"/>
      </defs>
      <g transform="translate(313.757121 191.618438)scale(0.1 -0.1)">
       <use xlink:href="#DejaVuSans-56"/>
       <use x="63.623047" xlink:href="#DejaVuSans-48"/>
      </g>
     </g>
    </g>
    <g id="xtick_6">
     <g id="line2d_6">
      <g>
       <use style="stroke:#000000;stroke-width:0.8;" x="381.874562" xlink:href="#m3bc68b19fe" y="177.02"/>
      </g>
     </g>
     <g id="text_6">
      <!-- 100 -->
      <defs>
       <path d="M 12.40625 8.296875 
L 28.515625 8.296875 
L 28.515625 63.921875 
L 10.984375 60.40625 
L 10.984375 69.390625 
L 28.421875 72.90625 
L 38.28125 72.90625 
L 38.28125 8.296875 
L 54.390625 8.296875 
L 54.390625 0 
L 12.40625 0 
z
" id="DejaVuSans-49"/>
      </defs>
      <g transform="translate(372.330812 191.618438)scale(0.1 -0.1)">
       <use xlink:href="#DejaVuSans-49"/>
       <use x="63.623047" xlink:href="#DejaVuSans-48"/>
       <use x="127.246094" xlink:href="#DejaVuSans-48"/>
      </g>
     </g>
    </g>
    <g id="xtick_7">
     <g id="line2d_7">
      <g>
       <use style="stroke:#000000;stroke-width:0.8;" x="443.629502" xlink:href="#m3bc68b19fe" y="177.02"/>
      </g>
     </g>
     <g id="text_7">
      <!-- 120 -->
      <g transform="translate(434.085752 191.618438)scale(0.1 -0.1)">
       <use xlink:href="#DejaVuSans-49"/>
       <use x="63.623047" xlink:href="#DejaVuSans-50"/>
       <use x="127.246094" xlink:href="#DejaVuSans-48"/>
      </g>
     </g>
    </g>
    <g id="text_8">
     <!-- Sample -->
     <defs>
      <path d="M 53.515625 70.515625 
L 53.515625 60.890625 
Q 47.90625 63.578125 42.921875 64.890625 
Q 37.9375 66.21875 33.296875 66.21875 
Q 25.25 66.21875 20.875 63.09375 
Q 16.5 59.96875 16.5 54.203125 
Q 16.5 49.359375 19.40625 46.890625 
Q 22.3125 44.4375 30.421875 42.921875 
L 36.375 41.703125 
Q 47.40625 39.59375 52.65625 34.296875 
Q 57.90625 29 57.90625 20.125 
Q 57.90625 9.515625 50.796875 4.046875 
Q 43.703125 -1.421875 29.984375 -1.421875 
Q 24.8125 -1.421875 18.96875 -0.25 
Q 13.140625 0.921875 6.890625 3.21875 
L 6.890625 13.375 
Q 12.890625 10.015625 18.65625 8.296875 
Q 24.421875 6.59375 29.984375 6.59375 
Q 38.421875 6.59375 43.015625 9.90625 
Q 47.609375 13.234375 47.609375 19.390625 
Q 47.609375 24.75 44.3125 27.78125 
Q 41.015625 30.8125 33.5 32.328125 
L 27.484375 33.5 
Q 16.453125 35.6875 11.515625 40.375 
Q 6.59375 45.0625 6.59375 53.421875 
Q 6.59375 63.09375 13.40625 68.65625 
Q 20.21875 74.21875 32.171875 74.21875 
Q 37.3125 74.21875 42.625 73.28125 
Q 47.953125 72.359375 53.515625 70.515625 
z
" id="DejaVuSans-83"/>
      <path d="M 34.28125 27.484375 
Q 23.390625 27.484375 19.1875 25 
Q 14.984375 22.515625 14.984375 16.5 
Q 14.984375 11.71875 18.140625 8.90625 
Q 21.296875 6.109375 26.703125 6.109375 
Q 34.1875 6.109375 38.703125 11.40625 
Q 43.21875 16.703125 43.21875 25.484375 
L 43.21875 27.484375 
z
M 52.203125 31.203125 
L 52.203125 0 
L 43.21875 0 
L 43.21875 8.296875 
Q 40.140625 3.328125 35.546875 0.953125 
Q 30.953125 -1.421875 24.3125 -1.421875 
Q 15.921875 -1.421875 10.953125 3.296875 
Q 6 8.015625 6 15.921875 
Q 6 25.140625 12.171875 29.828125 
Q 18.359375 34.515625 30.609375 34.515625 
L 43.21875 34.515625 
L 43.21875 35.40625 
Q 43.21875 41.609375 39.140625 45 
Q 35.0625 48.390625 27.6875 48.390625 
Q 23 48.390625 18.546875 47.265625 
Q 14.109375 46.140625 10.015625 43.890625 
L 10.015625 52.203125 
Q 14.9375 54.109375 19.578125 55.046875 
Q 24.21875 56 28.609375 56 
Q 40.484375 56 46.34375 49.84375 
Q 52.203125 43.703125 52.203125 31.203125 
z
" id="DejaVuSans-97"/>
      <path d="M 52 44.1875 
Q 55.375 50.25 60.0625 53.125 
Q 64.75 56 71.09375 56 
Q 79.640625 56 84.28125 50.015625 
Q 88.921875 44.046875 88.921875 33.015625 
L 88.921875 0 
L 79.890625 0 
L 79.890625 32.71875 
Q 79.890625 40.578125 77.09375 44.375 
Q 74.3125 48.1875 68.609375 48.1875 
Q 61.625 48.1875 57.5625 43.546875 
Q 53.515625 38.921875 53.515625 30.90625 
L 53.515625 0 
L 44.484375 0 
L 44.484375 32.71875 
Q 44.484375 40.625 41.703125 44.40625 
Q 38.921875 48.1875 33.109375 48.1875 
Q 26.21875 48.1875 22.15625 43.53125 
Q 18.109375 38.875 18.109375 30.90625 
L 18.109375 0 
L 9.078125 0 
L 9.078125 54.6875 
L 18.109375 54.6875 
L 18.109375 46.1875 
Q 21.1875 51.21875 25.484375 53.609375 
Q 29.78125 56 35.6875 56 
Q 41.65625 56 45.828125 52.96875 
Q 50 49.953125 52 44.1875 
z
" id="DejaVuSans-109"/>
      <path d="M 18.109375 8.203125 
L 18.109375 -20.796875 
L 9.078125 -20.796875 
L 9.078125 54.6875 
L 18.109375 54.6875 
L 18.109375 46.390625 
Q 20.953125 51.265625 25.265625 53.625 
Q 29.59375 56 35.59375 56 
Q 45.5625 56 51.78125 48.09375 
Q 58.015625 40.1875 58.015625 27.296875 
Q 58.015625 14.40625 51.78125 6.484375 
Q 45.5625 -1.421875 35.59375 -1.421875 
Q 29.59375 -1.421875 25.265625 0.953125 
Q 20.953125 3.328125 18.109375 8.203125 
z
M 48.6875 27.296875 
Q 48.6875 37.203125 44.609375 42.84375 
Q 40.53125 48.484375 33.40625 48.484375 
Q 26.265625 48.484375 22.1875 42.84375 
Q 18.109375 37.203125 18.109375 27.296875 
Q 18.109375 17.390625 22.1875 11.75 
Q 26.265625 6.109375 33.40625 6.109375 
Q 40.53125 6.109375 44.609375 11.75 
Q 48.6875 17.390625 48.6875 27.296875 
z
" id="DejaVuSans-112"/>
      <path d="M 9.421875 75.984375 
L 18.40625 75.984375 
L 18.40625 0 
L 9.421875 0 
z
" id="DejaVuSans-108"/>
      <path d="M 56.203125 29.59375 
L 56.203125 25.203125 
L 14.890625 25.203125 
Q 15.484375 15.921875 20.484375 11.0625 
Q 25.484375 6.203125 34.421875 6.203125 
Q 39.59375 6.203125 44.453125 7.46875 
Q 49.3125 8.734375 54.109375 11.28125 
L 54.109375 2.78125 
Q 49.265625 0.734375 44.1875 -0.34375 
Q 39.109375 -1.421875 33.890625 -1.421875 
Q 20.796875 -1.421875 13.15625 6.1875 
Q 5.515625 13.8125 5.515625 26.8125 
Q 5.515625 40.234375 12.765625 48.109375 
Q 20.015625 56 32.328125 56 
Q 43.359375 56 49.78125 48.890625 
Q 56.203125 41.796875 56.203125 29.59375 
z
M 47.21875 32.234375 
Q 47.125 39.59375 43.09375 43.984375 
Q 39.0625 48.390625 32.421875 48.390625 
Q 24.90625 48.390625 20.390625 44.140625 
Q 15.875 39.890625 15.1875 32.171875 
z
" id="DejaVuSans-101"/>
     </defs>
     <g transform="translate(231.896875 205.296563)scale(0.1 -0.1)">
      <use xlink:href="#DejaVuSans-83"/>
      <use x="63.476562" xlink:href="#DejaVuSans-97"/>
      <use x="124.755859" xlink:href="#DejaVuSans-109"/>
      <use x="222.167969" xlink:href="#DejaVuSans-112"/>
      <use x="285.644531" xlink:href="#DejaVuSans-108"/>
      <use x="313.427734" xlink:href="#DejaVuSans-101"/>
     </g>
    </g>
   </g>
   <g id="matplotlib.axis_2">
    <g id="ytick_1">
     <g id="line2d_8">
      <defs>
       <path d="M 0 0 
L -3.5 0 
" id="m56ad8a71b7" style="stroke:#000000;stroke-width:0.8;"/>
      </defs>
      <g>
       <use style="stroke:#000000;stroke-width:0.8;" x="55.345313" xlink:href="#m56ad8a71b7" y="158.246482"/>
      </g>
     </g>
     <g id="text_9">
      <!-- −300 -->
      <defs>
       <path d="M 10.59375 35.5 
L 73.1875 35.5 
L 73.1875 27.203125 
L 10.59375 27.203125 
z
" id="DejaVuSans-8722"/>
       <path d="M 40.578125 39.3125 
Q 47.65625 37.796875 51.625 33 
Q 55.609375 28.21875 55.609375 21.1875 
Q 55.609375 10.40625 48.1875 4.484375 
Q 40.765625 -1.421875 27.09375 -1.421875 
Q 22.515625 -1.421875 17.65625 -0.515625 
Q 12.796875 0.390625 7.625 2.203125 
L 7.625 11.71875 
Q 11.71875 9.328125 16.59375 8.109375 
Q 21.484375 6.890625 26.8125 6.890625 
Q 36.078125 6.890625 40.9375 10.546875 
Q 45.796875 14.203125 45.796875 21.1875 
Q 45.796875 27.640625 41.28125 31.265625 
Q 36.765625 34.90625 28.71875 34.90625 
L 20.21875 34.90625 
L 20.21875 43.015625 
L 29.109375 43.015625 
Q 36.375 43.015625 40.234375 45.921875 
Q 44.09375 48.828125 44.09375 54.296875 
Q 44.09375 59.90625 40.109375 62.90625 
Q 36.140625 65.921875 28.71875 65.921875 
Q 24.65625 65.921875 20.015625 65.03125 
Q 15.375 64.15625 9.8125 62.3125 
L 9.8125 71.09375 
Q 15.4375 72.65625 20.34375 73.4375 
Q 25.25 74.21875 29.59375 74.21875 
Q 40.828125 74.21875 47.359375 69.109375 
Q 53.90625 64.015625 53.90625 55.328125 
Q 53.90625 49.265625 50.4375 45.09375 
Q 46.96875 40.921875 40.578125 39.3125 
z
" id="DejaVuSans-51"/>
      </defs>
      <g transform="translate(20.878125 162.045701)scale(0.1 -0.1)">
       <use xlink:href="#DejaVuSans-8722"/>
       <use x="83.789062" xlink:href="#DejaVuSans-51"/>
       <use x="147.412109" xlink:href="#DejaVuSans-48"/>
       <use x="211.035156" xlink:href="#DejaVuSans-48"/>
      </g>
     </g>
    </g>
    <g id="ytick_2">
     <g id="line2d_9">
      <g>
       <use style="stroke:#000000;stroke-width:0.8;" x="55.345313" xlink:href="#m56ad8a71b7" y="134.915402"/>
      </g>
     </g>
     <g id="text_10">
      <!-- −250 -->
      <defs>
       <path d="M 10.796875 72.90625 
L 49.515625 72.90625 
L 49.515625 64.59375 
L 19.828125 64.59375 
L 19.828125 46.734375 
Q 21.96875 47.46875 24.109375 47.828125 
Q 26.265625 48.1875 28.421875 48.1875 
Q 40.625 48.1875 47.75 41.5 
Q 54.890625 34.8125 54.890625 23.390625 
Q 54.890625 11.625 47.5625 5.09375 
Q 40.234375 -1.421875 26.90625 -1.421875 
Q 22.3125 -1.421875 17.546875 -0.640625 
Q 12.796875 0.140625 7.71875 1.703125 
L 7.71875 11.625 
Q 12.109375 9.234375 16.796875 8.0625 
Q 21.484375 6.890625 26.703125 6.890625 
Q 35.15625 6.890625 40.078125 11.328125 
Q 45.015625 15.765625 45.015625 23.390625 
Q 45.015625 31 40.078125 35.4375 
Q 35.15625 39.890625 26.703125 39.890625 
Q 22.75 39.890625 18.8125 39.015625 
Q 14.890625 38.140625 10.796875 36.28125 
z
" id="DejaVuSans-53"/>
      </defs>
      <g transform="translate(20.878125 138.71462)scale(0.1 -0.1)">
       <use xlink:href="#DejaVuSans-8722"/>
       <use x="83.789062" xlink:href="#DejaVuSans-50"/>
       <use x="147.412109" xlink:href="#DejaVuSans-53"/>
       <use x="211.035156" xlink:href="#DejaVuSans-48"/>
      </g>
     </g>
    </g>
    <g id="ytick_3">
     <g id="line2d_10">
      <g>
       <use style="stroke:#000000;stroke-width:0.8;" x="55.345313" xlink:href="#m56ad8a71b7" y="111.584321"/>
      </g>
     </g>
     <g id="text_11">
      <!-- −200 -->
      <g transform="translate(20.878125 115.38354)scale(0.1 -0.1)">
       <use xlink:href="#DejaVuSans-8722"/>
       <use x="83.789062" xlink:href="#DejaVuSans-50"/>
       <use x="147.412109" xlink:href="#DejaVuSans-48"/>
       <use x="211.035156" xlink:href="#DejaVuSans-48"/>
      </g>
     </g>
    </g>
    <g id="ytick_4">
     <g id="line2d_11">
      <g>
       <use style="stroke:#000000;stroke-width:0.8;" x="55.345313" xlink:href="#m56ad8a71b7" y="88.253241"/>
      </g>
     </g>
     <g id="text_12">
      <!-- −150 -->
      <g transform="translate(20.878125 92.05246)scale(0.1 -0.1)">
       <use xlink:href="#DejaVuSans-8722"/>
       <use x="83.789062" xlink:href="#DejaVuSans-49"/>
       <use x="147.412109" xlink:href="#DejaVuSans-53"/>
       <use x="211.035156" xlink:href="#DejaVuSans-48"/>
      </g>
     </g>
    </g>
    <g id="ytick_5">
     <g id="line2d_12">
      <g>
       <use style="stroke:#000000;stroke-width:0.8;" x="55.345313" xlink:href="#m56ad8a71b7" y="64.922161"/>
      </g>
     </g>
     <g id="text_13">
      <!-- −100 -->
      <g transform="translate(20.878125 68.721379)scale(0.1 -0.1)">
       <use xlink:href="#DejaVuSans-8722"/>
       <use x="83.789062" xlink:href="#DejaVuSans-49"/>
       <use x="147.412109" xlink:href="#DejaVuSans-48"/>
       <use x="211.035156" xlink:href="#DejaVuSans-48"/>
      </g>
     </g>
    </g>
    <g id="ytick_6">
     <g id="line2d_13">
      <g>
       <use style="stroke:#000000;stroke-width:0.8;" x="55.345313" xlink:href="#m56ad8a71b7" y="41.59108"/>
      </g>
     </g>
     <g id="text_14">
      <!-- −50 -->
      <g transform="translate(27.240625 45.390299)scale(0.1 -0.1)">
       <use xlink:href="#DejaVuSans-8722"/>
       <use x="83.789062" xlink:href="#DejaVuSans-53"/>
       <use x="147.412109" xlink:href="#DejaVuSans-48"/>
      </g>
     </g>
    </g>
    <g id="ytick_7">
     <g id="line2d_14">
      <g>
       <use style="stroke:#000000;stroke-width:0.8;" x="55.345313" xlink:href="#m56ad8a71b7" y="18.26"/>
      </g>
     </g>
     <g id="text_15">
      <!-- 0 -->
      <g transform="translate(41.982813 22.059219)scale(0.1 -0.1)">
       <use xlink:href="#DejaVuSans-48"/>
      </g>
     </g>
    </g>
    <g id="text_16">
     <!-- Freq Offset -->
     <defs>
      <path d="M 9.8125 72.90625 
L 51.703125 72.90625 
L 51.703125 64.59375 
L 19.671875 64.59375 
L 19.671875 43.109375 
L 48.578125 43.109375 
L 48.578125 34.8125 
L 19.671875 34.8125 
L 19.671875 0 
L 9.8125 0 
z
" id="DejaVuSans-70"/>
      <path d="M 41.109375 46.296875 
Q 39.59375 47.171875 37.8125 47.578125 
Q 36.03125 48 33.890625 48 
Q 26.265625 48 22.1875 43.046875 
Q 18.109375 38.09375 18.109375 28.8125 
L 18.109375 0 
L 9.078125 0 
L 9.078125 54.6875 
L 18.109375 54.6875 
L 18.109375 46.1875 
Q 20.953125 51.171875 25.484375 53.578125 
Q 30.03125 56 36.53125 56 
Q 37.453125 56 38.578125 55.875 
Q 39.703125 55.765625 41.0625 55.515625 
z
" id="DejaVuSans-114"/>
      <path d="M 14.796875 27.296875 
Q 14.796875 17.390625 18.875 11.75 
Q 22.953125 6.109375 30.078125 6.109375 
Q 37.203125 6.109375 41.296875 11.75 
Q 45.40625 17.390625 45.40625 27.296875 
Q 45.40625 37.203125 41.296875 42.84375 
Q 37.203125 48.484375 30.078125 48.484375 
Q 22.953125 48.484375 18.875 42.84375 
Q 14.796875 37.203125 14.796875 27.296875 
z
M 45.40625 8.203125 
Q 42.578125 3.328125 38.25 0.953125 
Q 33.9375 -1.421875 27.875 -1.421875 
Q 17.96875 -1.421875 11.734375 6.484375 
Q 5.515625 14.40625 5.515625 27.296875 
Q 5.515625 40.1875 11.734375 48.09375 
Q 17.96875 56 27.875 56 
Q 33.9375 56 38.25 53.625 
Q 42.578125 51.265625 45.40625 46.390625 
L 45.40625 54.6875 
L 54.390625 54.6875 
L 54.390625 -20.796875 
L 45.40625 -20.796875 
z
" id="DejaVuSans-113"/>
      <path id="DejaVuSans-32"/>
      <path d="M 39.40625 66.21875 
Q 28.65625 66.21875 22.328125 58.203125 
Q 16.015625 50.203125 16.015625 36.375 
Q 16.015625 22.609375 22.328125 14.59375 
Q 28.65625 6.59375 39.40625 6.59375 
Q 50.140625 6.59375 56.421875 14.59375 
Q 62.703125 22.609375 62.703125 36.375 
Q 62.703125 50.203125 56.421875 58.203125 
Q 50.140625 66.21875 39.40625 66.21875 
z
M 39.40625 74.21875 
Q 54.734375 74.21875 63.90625 63.9375 
Q 73.09375 53.65625 73.09375 36.375 
Q 73.09375 19.140625 63.90625 8.859375 
Q 54.734375 -1.421875 39.40625 -1.421875 
Q 24.03125 -1.421875 14.8125 8.828125 
Q 5.609375 19.09375 5.609375 36.375 
Q 5.609375 53.65625 14.8125 63.9375 
Q 24.03125 74.21875 39.40625 74.21875 
z
" id="DejaVuSans-79"/>
      <path d="M 37.109375 75.984375 
L 37.109375 68.5 
L 28.515625 68.5 
Q 23.6875 68.5 21.796875 66.546875 
Q 19.921875 64.59375 19.921875 59.515625 
L 19.921875 54.6875 
L 34.71875 54.6875 
L 34.71875 47.703125 
L 19.921875 47.703125 
L 19.921875 0 
L 10.890625 0 
L 10.890625 47.703125 
L 2.296875 47.703125 
L 2.296875 54.6875 
L 10.890625 54.6875 
L 10.890625 58.5 
Q 10.890625 67.625 15.140625 71.796875 
Q 19.390625 75.984375 28.609375 75.984375 
z
" id="DejaVuSans-102"/>
      <path d="M 44.28125 53.078125 
L 44.28125 44.578125 
Q 40.484375 46.53125 36.375 47.5 
Q 32.28125 48.484375 27.875 48.484375 
Q 21.1875 48.484375 17.84375 46.4375 
Q 14.5 44.390625 14.5 40.28125 
Q 14.5 37.15625 16.890625 35.375 
Q 19.28125 33.59375 26.515625 31.984375 
L 29.59375 31.296875 
Q 39.15625 29.25 43.1875 25.515625 
Q 47.21875 21.78125 47.21875 15.09375 
Q 47.21875 7.46875 41.1875 3.015625 
Q 35.15625 -1.421875 24.609375 -1.421875 
Q 20.21875 -1.421875 15.453125 -0.5625 
Q 10.6875 0.296875 5.421875 2 
L 5.421875 11.28125 
Q 10.40625 8.6875 15.234375 7.390625 
Q 20.0625 6.109375 24.8125 6.109375 
Q 31.15625 6.109375 34.5625 8.28125 
Q 37.984375 10.453125 37.984375 14.40625 
Q 37.984375 18.0625 35.515625 20.015625 
Q 33.0625 21.96875 24.703125 23.78125 
L 21.578125 24.515625 
Q 13.234375 26.265625 9.515625 29.90625 
Q 5.8125 33.546875 5.8125 39.890625 
Q 5.8125 47.609375 11.28125 51.796875 
Q 16.75 56 26.8125 56 
Q 31.78125 56 36.171875 55.265625 
Q 40.578125 54.546875 44.28125 53.078125 
z
" id="DejaVuSans-115"/>
      <path d="M 18.3125 70.21875 
L 18.3125 54.6875 
L 36.8125 54.6875 
L 36.8125 47.703125 
L 18.3125 47.703125 
L 18.3125 18.015625 
Q 18.3125 11.328125 20.140625 9.421875 
Q 21.96875 7.515625 27.59375 7.515625 
L 36.8125 7.515625 
L 36.8125 0 
L 27.59375 0 
Q 17.1875 0 13.234375 3.875 
Q 9.28125 7.765625 9.28125 18.015625 
L 9.28125 47.703125 
L 2.6875 47.703125 
L 2.6875 54.6875 
L 9.28125 54.6875 
L 9.28125 70.21875 
z
" id="DejaVuSans-116"/>
     </defs>
     <g transform="translate(14.798438 121.721719)rotate(-90)scale(0.1 -0.1)">
      <use xlink:href="#DejaVuSans-70"/>
      <use x="57.410156" xlink:href="#DejaVuSans-114"/>
      <use x="98.492188" xlink:href="#DejaVuSans-101"/>
      <use x="160.015625" xlink:href="#DejaVuSans-113"/>
      <use x="223.492188" xlink:href="#DejaVuSans-32"/>
      <use x="255.279297" xlink:href="#DejaVuSans-79"/>
      <use x="333.990234" xlink:href="#DejaVuSans-102"/>
      <use x="369.195312" xlink:href="#DejaVuSans-102"/>
      <use x="404.400391" xlink:href="#DejaVuSans-115"/>
      <use x="456.5" xlink:href="#DejaVuSans-101"/>
      <use x="518.023438" xlink:href="#DejaVuSans-116"/>
     </g>
    </g>
   </g>
   <g id="line2d_15">
    <path clip-path="url(#p9e1202494f)" d="M 73.099858 18.26 
L 76.187605 18.26 
L 79.275352 18.260026 
L 82.363099 18.260027 
L 85.450846 18.260114 
L 88.538593 18.261591 
L 91.62634 18.277904 
L 94.714087 18.554955 
L 97.801834 29.864726 
L 100.889581 44.067337 
L 103.977328 44.656692 
L 107.065075 49.009557 
L 110.152822 65.924908 
L 113.240569 73.564475 
L 116.328316 83.109902 
L 119.416063 91.534719 
L 122.503811 99.497979 
L 125.591558 107.22312 
L 128.679305 113.784902 
L 131.767052 121.776307 
L 134.854799 124.29199 
L 137.942546 132.20309 
L 141.030293 137.558458 
L 144.11804 141.257944 
L 147.205787 146.520641 
L 150.293534 147.871425 
L 153.381281 152.955001 
L 156.469028 155.672485 
L 159.556775 158.217449 
L 162.644522 160.655393 
L 165.732269 161.991034 
L 168.820016 163.460488 
L 171.907763 164.817589 
L 174.99551 165.9885 
L 178.083257 166.954737 
L 181.171004 167.729625 
L 184.258751 168.337244 
L 187.346498 168.804446 
L 190.434245 169.155384 
L 193.521992 169.41562 
L 196.609739 169.46 
L 199.697486 169.41506 
L 202.785233 169.299914 
L 205.87298 169.078041 
L 208.960728 168.863523 
L 212.048475 168.45113 
L 215.136222 167.849123 
L 218.223969 167.417686 
L 221.311716 166.759976 
L 224.399463 166.23711 
L 227.48721 165.795304 
L 230.574957 165.479897 
L 233.662704 165.061538 
L 236.750451 164.804504 
L 239.838198 164.233438 
L 242.925945 163.725652 
L 246.013692 163.272668 
L 249.101439 162.896507 
L 252.189186 162.403567 
L 255.276933 162.01121 
L 258.36468 161.827841 
L 261.452427 161.506729 
L 264.540174 161.075645 
L 267.627921 160.787236 
L 270.715668 160.656744 
L 273.803415 160.524931 
L 276.891162 160.39198 
L 279.978909 160.295832 
L 283.066656 160.151514 
L 286.154403 159.843095 
L 289.24215 159.651474 
L 292.329897 159.396657 
L 295.417645 159.386125 
L 298.505392 159.373261 
L 301.593139 159.365407 
L 304.680886 159.356704 
L 307.768633 159.351357 
L 310.85638 159.344125 
L 313.944127 159.173076 
L 317.031874 159.015633 
L 320.119621 158.917396 
L 323.207368 158.789729 
L 326.295115 158.869189 
L 329.382862 158.972659 
L 332.470609 159.015744 
L 335.558356 159.074484 
L 338.646103 158.986397 
L 341.73385 158.888188 
L 344.821597 158.980697 
L 347.909344 159.062264 
L 350.997091 159.132815 
L 354.084838 159.203279 
L 357.172585 159.250375 
L 360.260332 159.319047 
L 363.348079 159.168989 
L 366.435826 159.065274 
L 369.523573 158.988787 
L 372.61132 158.93644 
L 375.699067 158.862046 
L 378.786814 158.966421 
L 381.874562 158.914902 
L 384.962309 158.878868 
L 388.050056 158.842929 
L 391.137803 158.815372 
L 394.22555 158.801432 
L 397.313297 158.789887 
L 400.401044 158.984921 
L 403.488791 159.10112 
L 406.576538 159.101095 
L 409.664285 159.101092 
L 412.752032 159.101091 
L 415.839779 159.101091 
L 418.927526 159.101091 
L 422.015273 159.101091 
L 425.10302 159.101091 
L 428.190767 159.101091 
" style="fill:none;stroke:#1f77b4;stroke-linecap:square;stroke-width:1.5;"/>
    <defs>
     <path d="M 0 1.5 
C 0.397805 1.5 0.77937 1.341951 1.06066 1.06066 
C 1.341951 0.77937 1.5 0.397805 1.5 0 
C 1.5 -0.397805 1.341951 -0.77937 1.06066 -1.06066 
C 0.77937 -1.341951 0.397805 -1.5 0 -1.5 
C -0.397805 -1.5 -0.77937 -1.341951 -1.06066 -1.06066 
C -1.341951 -0.77937 -1.5 -0.397805 -1.5 0 
C -1.5 0.397805 -1.341951 0.77937 -1.06066 1.06066 
C -0.77937 1.341951 -0.397805 1.5 0 1.5 
z
" id="mccd37ae88c" style="stroke:#1f77b4;"/>
    </defs>
    <g clip-path="url(#p9e1202494f)">
     <use style="fill:#1f77b4;stroke:#1f77b4;" x="73.099858" xlink:href="#mccd37ae88c" y="18.26"/>
     <use style="fill:#1f77b4;stroke:#1f77b4;" x="76.187605" xlink:href="#mccd37ae88c" y="18.26"/>
     <use style="fill:#1f77b4;stroke:#1f77b4;" x="79.275352" xlink:href="#mccd37ae88c" y="18.260026"/>
     <use style="fill:#1f77b4;stroke:#1f77b4;" x="82.363099" xlink:href="#mccd37ae88c" y="18.260027"/>
     <use style="fill:#1f77b4;stroke:#1f77b4;" x="85.450846" xlink:href="#mccd37ae88c" y="18.260114"/>
     <use style="fill:#1f77b4;stroke:#1f77b4;" x="88.538593" xlink:href="#mccd37ae88c" y="18.261591"/>
     <use style="fill:#1f77b4;stroke:#1f77b4;" x="91.62634" xlink:href="#mccd37ae88c" y="18.277904"/>
     <use style="fill:#1f77b4;stroke:#1f77b4;" x="94.714087" xlink:href="#mccd37ae88c" y="18.554955"/>
     <use style="fill:#1f77b4;stroke:#1f77b4;" x="97.801834" xlink:href="#mccd37ae88c" y="29.864726"/>
     <use style="fill:#1f77b4;stroke:#1f77b4;" x="100.889581" xlink:href="#mccd37ae88c" y="44.067337"/>
     <use style="fill:#1f77b4;stroke:#1f77b4;" x="103.977328" xlink:href="#mccd37ae88c" y="44.656692"/>
     <use style="fill:#1f77b4;stroke:#1f77b4;" x="107.065075" xlink:href="#mccd37ae88c" y="49.009557"/>
     <use style="fill:#1f77b4;stroke:#1f77b4;" x="110.152822" xlink:href="#mccd37ae88c" y="65.924908"/>
     <use style="fill:#1f77b4;stroke:#1f77b4;" x="113.240569" xlink:href="#mccd37ae88c" y="73.564475"/>
     <use style="fill:#1f77b4;stroke:#1f77b4;" x="116.328316" xlink:href="#mccd37ae88c" y="83.109902"/>
     <use style="fill:#1f77b4;stroke:#1f77b4;" x="119.416063" xlink:href="#mccd37ae88c" y="91.534719"/>
     <use style="fill:#1f77b4;stroke:#1f77b4;" x="122.503811" xlink:href="#mccd37ae88c" y="99.497979"/>
     <use style="fill:#1f77b4;stroke:#1f77b4;" x="125.591558" xlink:href="#mccd37ae88c" y="107.22312"/>
     <use style="fill:#1f77b4;stroke:#1f77b4;" x="128.679305" xlink:href="#mccd37ae88c" y="113.784902"/>
     <use style="fill:#1f77b4;stroke:#1f77b4;" x="131.767052" xlink:href="#mccd37ae88c" y="121.776307"/>
     <use style="fill:#1f77b4;stroke:#1f77b4;" x="134.854799" xlink:href="#mccd37ae88c" y="124.29199"/>
     <use style="fill:#1f77b4;stroke:#1f77b4;" x="137.942546" xlink:href="#mccd37ae88c" y="132.20309"/>
     <use style="fill:#1f77b4;stroke:#1f77b4;" x="141.030293" xlink:href="#mccd37ae88c" y="137.558458"/>
     <use style="fill:#1f77b4;stroke:#1f77b4;" x="144.11804" xlink:href="#mccd37ae88c" y="141.257944"/>
     <use style="fill:#1f77b4;stroke:#1f77b4;" x="147.205787" xlink:href="#mccd37ae88c" y="146.520641"/>
     <use style="fill:#1f77b4;stroke:#1f77b4;" x="150.293534" xlink:href="#mccd37ae88c" y="147.871425"/>
     <use style="fill:#1f77b4;stroke:#1f77b4;" x="153.381281" xlink:href="#mccd37ae88c" y="152.955001"/>
     <use style="fill:#1f77b4;stroke:#1f77b4;" x="156.469028" xlink:href="#mccd37ae88c" y="155.672485"/>
     <use style="fill:#1f77b4;stroke:#1f77b4;" x="159.556775" xlink:href="#mccd37ae88c" y="158.217449"/>
     <use style="fill:#1f77b4;stroke:#1f77b4;" x="162.644522" xlink:href="#mccd37ae88c" y="160.655393"/>
     <use style="fill:#1f77b4;stroke:#1f77b4;" x="165.732269" xlink:href="#mccd37ae88c" y="161.991034"/>
     <use style="fill:#1f77b4;stroke:#1f77b4;" x="168.820016" xlink:href="#mccd37ae88c" y="163.460488"/>
     <use style="fill:#1f77b4;stroke:#1f77b4;" x="171.907763" xlink:href="#mccd37ae88c" y="164.817589"/>
     <use style="fill:#1f77b4;stroke:#1f77b4;" x="174.99551" xlink:href="#mccd37ae88c" y="165.9885"/>
     <use style="fill:#1f77b4;stroke:#1f77b4;" x="178.083257" xlink:href="#mccd37ae88c" y="166.954737"/>
     <use style="fill:#1f77b4;stroke:#1f77b4;" x="181.171004" xlink:href="#mccd37ae88c" y="167.729625"/>
     <use style="fill:#1f77b4;stroke:#1f77b4;" x="184.258751" xlink:href="#mccd37ae88c" y="168.337244"/>
     <use style="fill:#1f77b4;stroke:#1f77b4;" x="187.346498" xlink:href="#mccd37ae88c" y="168.804446"/>
     <use style="fill:#1f77b4;stroke:#1f77b4;" x="190.434245" xlink:href="#mccd37ae88c" y="169.155384"/>
     <use style="fill:#1f77b4;stroke:#1f77b4;" x="193.521992" xlink:href="#mccd37ae88c" y="169.41562"/>
     <use style="fill:#1f77b4;stroke:#1f77b4;" x="196.609739" xlink:href="#mccd37ae88c" y="169.46"/>
     <use style="fill:#1f77b4;stroke:#1f77b4;" x="199.697486" xlink:href="#mccd37ae88c" y="169.41506"/>
     <use style="fill:#1f77b4;stroke:#1f77b4;" x="202.785233" xlink:href="#mccd37ae88c" y="169.299914"/>
     <use style="fill:#1f77b4;stroke:#1f77b4;" x="205.87298" xlink:href="#mccd37ae88c" y="169.078041"/>
     <use style="fill:#1f77b4;stroke:#1f77b4;" x="208.960728" xlink:href="#mccd37ae88c" y="168.863523"/>
     <use style="fill:#1f77b4;stroke:#1f77b4;" x="212.048475" xlink:href="#mccd37ae88c" y="168.45113"/>
     <use style="fill:#1f77b4;stroke:#1f77b4;" x="215.136222" xlink:href="#mccd37ae88c" y="167.849123"/>
     <use style="fill:#1f77b4;stroke:#1f77b4;" x="218.223969" xlink:href="#mccd37ae88c" y="167.417686"/>
     <use style="fill:#1f77b4;stroke:#1f77b4;" x="221.311716" xlink:href="#mccd37ae88c" y="166.759976"/>
     <use style="fill:#1f77b4;stroke:#1f77b4;" x="224.399463" xlink:href="#mccd37ae88c" y="166.23711"/>
     <use style="fill:#1f77b4;stroke:#1f77b4;" x="227.48721" xlink:href="#mccd37ae88c" y="165.795304"/>
     <use style="fill:#1f77b4;stroke:#1f77b4;" x="230.574957" xlink:href="#mccd37ae88c" y="165.479897"/>
     <use style="fill:#1f77b4;stroke:#1f77b4;" x="233.662704" xlink:href="#mccd37ae88c" y="165.061538"/>
     <use style="fill:#1f77b4;stroke:#1f77b4;" x="236.750451" xlink:href="#mccd37ae88c" y="164.804504"/>
     <use style="fill:#1f77b4;stroke:#1f77b4;" x="239.838198" xlink:href="#mccd37ae88c" y="164.233438"/>
     <use style="fill:#1f77b4;stroke:#1f77b4;" x="242.925945" xlink:href="#mccd37ae88c" y="163.725652"/>
     <use style="fill:#1f77b4;stroke:#1f77b4;" x="246.013692" xlink:href="#mccd37ae88c" y="163.272668"/>
     <use style="fill:#1f77b4;stroke:#1f77b4;" x="249.101439" xlink:href="#mccd37ae88c" y="162.896507"/>
     <use style="fill:#1f77b4;stroke:#1f77b4;" x="252.189186" xlink:href="#mccd37ae88c" y="162.403567"/>
     <use style="fill:#1f77b4;stroke:#1f77b4;" x="255.276933" xlink:href="#mccd37ae88c" y="162.01121"/>
     <use style="fill:#1f77b4;stroke:#1f77b4;" x="258.36468" xlink:href="#mccd37ae88c" y="161.827841"/>
     <use style="fill:#1f77b4;stroke:#1f77b4;" x="261.452427" xlink:href="#mccd37ae88c" y="161.506729"/>
     <use style="fill:#1f77b4;stroke:#1f77b4;" x="264.540174" xlink:href="#mccd37ae88c" y="161.075645"/>
     <use style="fill:#1f77b4;stroke:#1f77b4;" x="267.627921" xlink:href="#mccd37ae88c" y="160.787236"/>
     <use style="fill:#1f77b4;stroke:#1f77b4;" x="270.715668" xlink:href="#mccd37ae88c" y="160.656744"/>
     <use style="fill:#1f77b4;stroke:#1f77b4;" x="273.803415" xlink:href="#mccd37ae88c" y="160.524931"/>
     <use style="fill:#1f77b4;stroke:#1f77b4;" x="276.891162" xlink:href="#mccd37ae88c" y="160.39198"/>
     <use style="fill:#1f77b4;stroke:#1f77b4;" x="279.978909" xlink:href="#mccd37ae88c" y="160.295832"/>
     <use style="fill:#1f77b4;stroke:#1f77b4;" x="283.066656" xlink:href="#mccd37ae88c" y="160.151514"/>
     <use style="fill:#1f77b4;stroke:#1f77b4;" x="286.154403" xlink:href="#mccd37ae88c" y="159.843095"/>
     <use style="fill:#1f77b4;stroke:#1f77b4;" x="289.24215" xlink:href="#mccd37ae88c" y="159.651474"/>
     <use style="fill:#1f77b4;stroke:#1f77b4;" x="292.329897" xlink:href="#mccd37ae88c" y="159.396657"/>
     <use style="fill:#1f77b4;stroke:#1f77b4;" x="295.417645" xlink:href="#mccd37ae88c" y="159.386125"/>
     <use style="fill:#1f77b4;stroke:#1f77b4;" x="298.505392" xlink:href="#mccd37ae88c" y="159.373261"/>
     <use style="fill:#1f77b4;stroke:#1f77b4;" x="301.593139" xlink:href="#mccd37ae88c" y="159.365407"/>
     <use style="fill:#1f77b4;stroke:#1f77b4;" x="304.680886" xlink:href="#mccd37ae88c" y="159.356704"/>
     <use style="fill:#1f77b4;stroke:#1f77b4;" x="307.768633" xlink:href="#mccd37ae88c" y="159.351357"/>
     <use style="fill:#1f77b4;stroke:#1f77b4;" x="310.85638" xlink:href="#mccd37ae88c" y="159.344125"/>
     <use style="fill:#1f77b4;stroke:#1f77b4;" x="313.944127" xlink:href="#mccd37ae88c" y="159.173076"/>
     <use style="fill:#1f77b4;stroke:#1f77b4;" x="317.031874" xlink:href="#mccd37ae88c" y="159.015633"/>
     <use style="fill:#1f77b4;stroke:#1f77b4;" x="320.119621" xlink:href="#mccd37ae88c" y="158.917396"/>
     <use style="fill:#1f77b4;stroke:#1f77b4;" x="323.207368" xlink:href="#mccd37ae88c" y="158.789729"/>
     <use style="fill:#1f77b4;stroke:#1f77b4;" x="326.295115" xlink:href="#mccd37ae88c" y="158.869189"/>
     <use style="fill:#1f77b4;stroke:#1f77b4;" x="329.382862" xlink:href="#mccd37ae88c" y="158.972659"/>
     <use style="fill:#1f77b4;stroke:#1f77b4;" x="332.470609" xlink:href="#mccd37ae88c" y="159.015744"/>
     <use style="fill:#1f77b4;stroke:#1f77b4;" x="335.558356" xlink:href="#mccd37ae88c" y="159.074484"/>
     <use style="fill:#1f77b4;stroke:#1f77b4;" x="338.646103" xlink:href="#mccd37ae88c" y="158.986397"/>
     <use style="fill:#1f77b4;stroke:#1f77b4;" x="341.73385" xlink:href="#mccd37ae88c" y="158.888188"/>
     <use style="fill:#1f77b4;stroke:#1f77b4;" x="344.821597" xlink:href="#mccd37ae88c" y="158.980697"/>
     <use style="fill:#1f77b4;stroke:#1f77b4;" x="347.909344" xlink:href="#mccd37ae88c" y="159.062264"/>
     <use style="fill:#1f77b4;stroke:#1f77b4;" x="350.997091" xlink:href="#mccd37ae88c" y="159.132815"/>
     <use style="fill:#1f77b4;stroke:#1f77b4;" x="354.084838" xlink:href="#mccd37ae88c" y="159.203279"/>
     <use style="fill:#1f77b4;stroke:#1f77b4;" x="357.172585" xlink:href="#mccd37ae88c" y="159.250375"/>
     <use style="fill:#1f77b4;stroke:#1f77b4;" x="360.260332" xlink:href="#mccd37ae88c" y="159.319047"/>
     <use style="fill:#1f77b4;stroke:#1f77b4;" x="363.348079" xlink:href="#mccd37ae88c" y="159.168989"/>
     <use style="fill:#1f77b4;stroke:#1f77b4;" x="366.435826" xlink:href="#mccd37ae88c" y="159.065274"/>
     <use style="fill:#1f77b4;stroke:#1f77b4;" x="369.523573" xlink:href="#mccd37ae88c" y="158.988787"/>
     <use style="fill:#1f77b4;stroke:#1f77b4;" x="372.61132" xlink:href="#mccd37ae88c" y="158.93644"/>
     <use style="fill:#1f77b4;stroke:#1f77b4;" x="375.699067" xlink:href="#mccd37ae88c" y="158.862046"/>
     <use style="fill:#1f77b4;stroke:#1f77b4;" x="378.786814" xlink:href="#mccd37ae88c" y="158.966421"/>
     <use style="fill:#1f77b4;stroke:#1f77b4;" x="381.874562" xlink:href="#mccd37ae88c" y="158.914902"/>
     <use style="fill:#1f77b4;stroke:#1f77b4;" x="384.962309" xlink:href="#mccd37ae88c" y="158.878868"/>
     <use style="fill:#1f77b4;stroke:#1f77b4;" x="388.050056" xlink:href="#mccd37ae88c" y="158.842929"/>
     <use style="fill:#1f77b4;stroke:#1f77b4;" x="391.137803" xlink:href="#mccd37ae88c" y="158.815372"/>
     <use style="fill:#1f77b4;stroke:#1f77b4;" x="394.22555" xlink:href="#mccd37ae88c" y="158.801432"/>
     <use style="fill:#1f77b4;stroke:#1f77b4;" x="397.313297" xlink:href="#mccd37ae88c" y="158.789887"/>
     <use style="fill:#1f77b4;stroke:#1f77b4;" x="400.401044" xlink:href="#mccd37ae88c" y="158.984921"/>
     <use style="fill:#1f77b4;stroke:#1f77b4;" x="403.488791" xlink:href="#mccd37ae88c" y="159.10112"/>
     <use style="fill:#1f77b4;stroke:#1f77b4;" x="406.576538" xlink:href="#mccd37ae88c" y="159.101095"/>
     <use style="fill:#1f77b4;stroke:#1f77b4;" x="409.664285" xlink:href="#mccd37ae88c" y="159.101092"/>
     <use style="fill:#1f77b4;stroke:#1f77b4;" x="412.752032" xlink:href="#mccd37ae88c" y="159.101091"/>
     <use style="fill:#1f77b4;stroke:#1f77b4;" x="415.839779" xlink:href="#mccd37ae88c" y="159.101091"/>
     <use style="fill:#1f77b4;stroke:#1f77b4;" x="418.927526" xlink:href="#mccd37ae88c" y="159.101091"/>
     <use style="fill:#1f77b4;stroke:#1f77b4;" x="422.015273" xlink:href="#mccd37ae88c" y="159.101091"/>
     <use style="fill:#1f77b4;stroke:#1f77b4;" x="425.10302" xlink:href="#mccd37ae88c" y="159.101091"/>
     <use style="fill:#1f77b4;stroke:#1f77b4;" x="428.190767" xlink:href="#mccd37ae88c" y="159.101091"/>
    </g>
   </g>
   <g id="patch_3">
    <path d="M 55.345313 177.02 
L 55.345313 10.7 
" style="fill:none;stroke:#000000;stroke-linecap:square;stroke-linejoin:miter;stroke-width:0.8;"/>
   </g>
   <g id="patch_4">
    <path d="M 445.945312 177.02 
L 445.945312 10.7 
" style="fill:none;stroke:#000000;stroke-linecap:square;stroke-linejoin:miter;stroke-width:0.8;"/>
   </g>
   <g id="patch_5">
    <path d="M 55.345313 177.02 
L 445.945312 177.02 
" style="fill:none;stroke:#000000;stroke-linecap:square;stroke-linejoin:miter;stroke-width:0.8;"/>
   </g>
   <g id="patch_6">
    <path d="M 55.345313 10.7 
L 445.945312 10.7 
" style="fill:none;stroke:#000000;stroke-linecap:square;stroke-linejoin:miter;stroke-width:0.8;"/>
   </g>
  </g>
 </g>
 <defs>
  <clipPath id="p9e1202494f">
   <rect height="166.32" width="390.6" x="55.345313" y="10.7"/>
  </clipPath>
 </defs>
</svg>
