<svg width="480" height="96" xmlns="http://www.w3.org/2000/svg" xmlns:xlink="http://www.w3.org/1999/xlink" overflow="hidden"><defs><clipPath id="clip0"><rect x="0" y="0" width="480" height="96"/></clipPath><linearGradient x1="219.5" y1="26.5001" x2="219.5" y2="71.5001" gradientUnits="userSpaceOnUse" spreadMethod="reflect" id="fill1"><stop offset="0" stop-color="#D2D2D2"/><stop offset="0.5" stop-color="#C8C8C8"/><stop offset="1" stop-color="#C0C0C0"/></linearGradient></defs><g clip-path="url(#clip0)"><rect x="0" y="0" width="480" height="96" fill="#FFFFFF"/><path d="M90 46 159.479 46.0001 159.479 52.0001 90 52ZM156.479 40.0001 174.479 49.0001 156.479 58.0001Z"/><path d="M249 47 343.122 47.0001 343.122 53.0001 249 53ZM340.122 41.0001 358.122 50.0001 340.122 59.0001Z"/><text font-family="Times New Roman,Times New Roman_MSFontService,sans-serif" font-weight="400" font-size="27" transform="translate(8.57969 42)">Signal<tspan x="-4" y="32">In time</tspan><tspan x="364.917" y="3">Signal in</tspan><tspan x="359.331" y="35">frequency</tspan></text><path d="M175.5 34.0002C175.5 29.858 178.858 26.5001 183 26.5001L256 26.5001C260.142 26.5001 263.5 29.858 263.5 34.0002L263.5 63.9999C263.5 68.1421 260.142 71.5001 256 71.5001L183 71.5001C178.858 71.5001 175.5 68.1421 175.5 63.9999Z" stroke="#000000" stroke-width="1.33333" stroke-miterlimit="8" fill="url(#fill1)" fill-rule="evenodd"/><text font-family="Times New Roman,Times New Roman_MSFontService,sans-serif" font-weight="400" font-size="37" transform="translate(186.759 62)">FFT</text></g></svg>