<svg width="816" height="144" xmlns="http://www.w3.org/2000/svg" xmlns:xlink="http://www.w3.org/1999/xlink" overflow="hidden"><defs><clipPath id="clip0"><rect x="0" y="0" width="816" height="144"/></clipPath></defs><g clip-path="url(#clip0)"><rect x="0" y="0" width="816" height="144" fill="#FFFFFF"/><path d="M14.9566 40.5724 55.3855 40.5724 55.3855 79.5057 14.9566 79.5057Z" fill="#A5A5A5" fill-rule="evenodd"/><path d="M55.3855 40.5724 94.4472 40.5724 94.4472 79.5057 55.3855 79.5057Z" fill="#B4C7E7" fill-rule="evenodd"/><path d="M94.4472 40.5724 136.243 40.5724 136.243 79.5057 94.4472 79.5057Z" fill="#B4C7E7" fill-rule="evenodd"/><path d="M136.243 40.5724 176.672 40.5724 176.672 79.5057 136.243 79.5057Z" fill="#B4C7E7" fill-rule="evenodd"/><path d="M176.672 40.5724 217.101 40.5724 217.101 79.5057 176.672 79.5057Z" fill="#FFFF00" fill-rule="evenodd"/><path d="M217.101 40.5724 257.53 40.5724 257.53 79.5057 217.101 79.5057Z" fill="#FFC000" fill-rule="evenodd"/><path d="M257.53 40.5724 297.959 40.5724 297.959 79.5057 257.53 79.5057Z" fill="#FFC000" fill-rule="evenodd"/><path d="M297.959 40.5724 338.388 40.5724 338.388 79.5057 297.959 79.5057Z" fill="#FFC000" fill-rule="evenodd"/><path d="M55.3855 39.9057 55.3855 81.5057" stroke="#FFFFFF" stroke-width="1.33333" stroke-linejoin="round" stroke-miterlimit="10" fill="none" fill-rule="evenodd"/><path d="M94.4472 39.9057 94.4472 81.5057" stroke="#FFFFFF" stroke-width="1.33333" stroke-linejoin="round" stroke-miterlimit="10" fill="none" fill-rule="evenodd"/><path d="M136.243 39.9057 136.243 81.5057" stroke="#FFFFFF" stroke-width="1.33333" stroke-linejoin="round" stroke-miterlimit="10" fill="none" fill-rule="evenodd"/><path d="M176.672 39.9057 176.672 81.5057" stroke="#FFFFFF" stroke-width="1.33333" stroke-linejoin="round" stroke-miterlimit="10" fill="none" fill-rule="evenodd"/><path d="M217.101 39.9057 217.101 81.5057" stroke="#FFFFFF" stroke-width="1.33333" stroke-linejoin="round" stroke-miterlimit="10" fill="none" fill-rule="evenodd"/><path d="M257.53 39.9057 257.53 81.5057" stroke="#FFFFFF" stroke-width="1.33333" stroke-linejoin="round" stroke-miterlimit="10" fill="none" fill-rule="evenodd"/><path d="M297.959 39.9057 297.959 81.5057" stroke="#FFFFFF" stroke-width="1.33333" stroke-linejoin="round" stroke-miterlimit="10" fill="none" fill-rule="evenodd"/><path d="M14.9566 39.9057 14.9566 81.5057" stroke="#FFFFFF" stroke-width="1.33333" stroke-linejoin="round" stroke-miterlimit="10" fill="none" fill-rule="evenodd"/><path d="M338.388 39.9057 338.388 81.5057" stroke="#FFFFFF" stroke-width="1.33333" stroke-linejoin="round" stroke-miterlimit="10" fill="none" fill-rule="evenodd"/><path d="M14.29 40.5724 339.054 40.5724" stroke="#FFFFFF" stroke-width="1.33333" stroke-linejoin="round" stroke-miterlimit="10" fill="none" fill-rule="evenodd"/><path d="M14.29 79.5057 339.054 79.5057" stroke="#FFFFFF" stroke-width="4" stroke-linejoin="round" stroke-miterlimit="10" fill="none" fill-rule="evenodd"/><text font-family="Times New Roman,Times New Roman_MSFontService,sans-serif" font-weight="400" font-size="24" transform="translate(29.7154 102)">0<tspan x="-18.6667" y="29">(DC)</tspan><tspan x="271.368" y="4">N</tspan><tspan x="288.702" y="4">-</tspan>1<tspan x="149.246" y="4">N/2</tspan><tspan x="18.2327" y="-71">+ frequencies</tspan><tspan x="173.569" y="-73">-</tspan><tspan x="187.569" y="-73">frequencies</tspan><tspan font-weight="700" x="329.473" y="-77">FFT Shift</tspan></text><path d="M360.5 48.7501 445 48.7501 445 37.5001 467.5 60.0001 445 82.5001 445 71.2501 360.5 71.2501Z" stroke="#2F528F" stroke-width="1.33333" stroke-miterlimit="8" fill="#4472C4" fill-rule="evenodd"/><path d="M480.61 41.5492 521.038 41.5492 521.038 80.4825 480.61 80.4825Z" fill="#FFFF00" fill-rule="evenodd"/><path d="M521.038 41.5492 560.1 41.5492 560.1 80.4825 521.038 80.4825Z" fill="#FFC000" fill-rule="evenodd"/><path d="M560.1 41.5492 601.896 41.5492 601.896 80.4825 560.1 80.4825Z" fill="#FFC000" fill-rule="evenodd"/><path d="M601.896 41.5492 642.325 41.5492 642.325 80.4825 601.896 80.4825Z" fill="#FFC000" fill-rule="evenodd"/><path d="M642.325 41.5492 682.754 41.5492 682.754 80.4825 642.325 80.4825Z" fill="#A5A5A5" fill-rule="evenodd"/><path d="M682.754 41.5492 723.183 41.5492 723.183 80.4825 682.754 80.4825Z" fill="#B4C7E7" fill-rule="evenodd"/><path d="M723.183 41.5492 763.612 41.5492 763.612 80.4825 723.183 80.4825Z" fill="#B4C7E7" fill-rule="evenodd"/><path d="M763.612 41.5492 804.041 41.5492 804.041 80.4825 763.612 80.4825Z" fill="#B4C7E7" fill-rule="evenodd"/><path d="M521.038 40.8825 521.038 82.4825" stroke="#FFFFFF" stroke-width="1.33333" stroke-linejoin="round" stroke-miterlimit="10" fill="none" fill-rule="evenodd"/><path d="M560.1 40.8825 560.1 82.4825" stroke="#FFFFFF" stroke-width="1.33333" stroke-linejoin="round" stroke-miterlimit="10" fill="none" fill-rule="evenodd"/><path d="M601.896 40.8825 601.896 82.4825" stroke="#FFFFFF" stroke-width="1.33333" stroke-linejoin="round" stroke-miterlimit="10" fill="none" fill-rule="evenodd"/><path d="M642.325 40.8825 642.325 82.4825" stroke="#FFFFFF" stroke-width="1.33333" stroke-linejoin="round" stroke-miterlimit="10" fill="none" fill-rule="evenodd"/><path d="M682.754 40.8825 682.754 82.4825" stroke="#FFFFFF" stroke-width="1.33333" stroke-linejoin="round" stroke-miterlimit="10" fill="none" fill-rule="evenodd"/><path d="M723.183 40.8825 723.183 82.4825" stroke="#FFFFFF" stroke-width="1.33333" stroke-linejoin="round" stroke-miterlimit="10" fill="none" fill-rule="evenodd"/><path d="M763.612 40.8825 763.612 82.4825" stroke="#FFFFFF" stroke-width="1.33333" stroke-linejoin="round" stroke-miterlimit="10" fill="none" fill-rule="evenodd"/><path d="M480.61 40.8825 480.61 82.4825" stroke="#FFFFFF" stroke-width="1.33333" stroke-linejoin="round" stroke-miterlimit="10" fill="none" fill-rule="evenodd"/><path d="M804.041 40.8825 804.041 82.4825" stroke="#FFFFFF" stroke-width="1.33333" stroke-linejoin="round" stroke-miterlimit="10" fill="none" fill-rule="evenodd"/><path d="M479.943 41.5492 804.707 41.5492" stroke="#FFFFFF" stroke-width="1.33333" stroke-linejoin="round" stroke-miterlimit="10" fill="none" fill-rule="evenodd"/><path d="M479.943 80.4825 804.707 80.4825" stroke="#FFFFFF" stroke-width="4" stroke-linejoin="round" stroke-miterlimit="10" fill="none" fill-rule="evenodd"/><text font-family="Times New Roman,Times New Roman_MSFontService,sans-serif" font-weight="400" font-size="24" transform="translate(656.491 105)">0<tspan x="-18.6667" y="29">(DC)</tspan><tspan x="20.5961" y="-76">+ frequencies</tspan><tspan x="-156.381" y="-76">-</tspan><tspan x="-142.381" y="-76">frequencies</tspan></text></g></svg>