<svg width="576" height="192" xmlns="http://www.w3.org/2000/svg" xmlns:xlink="http://www.w3.org/1999/xlink" overflow="hidden"><defs><clipPath id="clip0"><rect x="0" y="0" width="576" height="192"/></clipPath></defs><g clip-path="url(#clip0)"><rect x="0" y="0" width="576" height="192" fill="#FFFFFF"/><path d="M109.5 139.5 125.5 17.5001 157.5 17.5001 173.5 139.5Z" stroke="#507E32" stroke-width="1.33333" stroke-miterlimit="8" fill="#70AD47" fill-rule="evenodd"/><path d="M243.5 139.5 259.5 17.5001 291.5 17.5001 307.5 139.5Z" stroke="#507E32" stroke-width="1.33333" stroke-miterlimit="8" fill="#70AD47" fill-rule="evenodd"/><path d="M1.5-1.29556e-06 1.5001 114.054-1.4999 114.054-1.5 1.29556e-06ZM4.5001 112.554 0.000104987 121.554-4.4999 112.554Z" transform="matrix(1 0 0 -1 13.5001 139.054)"/><path d="M13.5001 138 454.23 138 454.23 141 13.5001 141ZM452.73 135 461.73 139.5 452.73 144Z"/><path d="M136 128 136 146.67" stroke="#000000" stroke-width="2" stroke-miterlimit="8" fill="none" fill-rule="evenodd"/><path d="M276 131 276 149.67" stroke="#000000" stroke-width="2" stroke-miterlimit="8" fill="none" fill-rule="evenodd"/><text font-family="Times New Roman,Times New Roman_MSFontService,sans-serif" font-style="italic" font-weight="400" font-size="24" transform="translate(130.26 171)">f<tspan x="338.16" y="-25">frequency</tspan><tspan x="125.282" y="3">f + f</tspan><tspan font-size="16" x="166.782" y="8">0</tspan></text><path d="M187.5 59.25 212 59.25 212 48.5001 233.5 70.0001 212 91.5 212 80.7501 187.5 80.7501Z" stroke="#2F528F" stroke-width="1.33333" stroke-miterlimit="8" fill="#4472C4" fill-rule="evenodd"/></g></svg>