<?xml version="1.0" encoding="utf-8" standalone="no"?>
<!DOCTYPE svg PUBLIC "-//W3C//DTD SVG 1.1//EN"
  "http://www.w3.org/Graphics/SVG/1.1/DTD/svg11.dtd">
<!-- Created with matplotlib (https://matplotlib.org/) -->
<svg height="214.875469pt" version="1.1" viewBox="0 0 393.735938 214.875469" width="393.735938pt" xmlns="http://www.w3.org/2000/svg" xmlns:xlink="http://www.w3.org/1999/xlink">
 <defs>
  <style type="text/css">
*{stroke-linecap:butt;stroke-linejoin:round;}
  </style>
 </defs>
 <g id="figure_1">
  <g id="patch_1">
   <path d="M 0 214.875469 
L 393.735938 214.875469 
L 393.735938 0 
L 0 0 
z
" style="fill:#ffffff;"/>
  </g>
  <g id="axes_1">
   <g id="patch_2">
    <path d="M 40.603125 177.319219 
L 375.403125 177.319219 
L 375.403125 10.999219 
L 40.603125 10.999219 
z
" style="fill:#ffffff;"/>
   </g>
   <g id="matplotlib.axis_1">
    <g id="xtick_1">
     <g id="line2d_1">
      <defs>
       <path d="M 0 0 
L 0 3.5 
" id="mdcaf29e290" style="stroke:#000000;stroke-width:0.8;"/>
      </defs>
      <g>
       <use style="stroke:#000000;stroke-width:0.8;" x="40.603125" xlink:href="#mdcaf29e290" y="177.319219"/>
      </g>
     </g>
     <g id="text_1">
      <!-- −1.00 -->
      <defs>
       <path d="M 10.59375 35.5 
L 73.1875 35.5 
L 73.1875 27.203125 
L 10.59375 27.203125 
z
" id="DejaVuSans-8722"/>
       <path d="M 12.40625 8.296875 
L 28.515625 8.296875 
L 28.515625 63.921875 
L 10.984375 60.40625 
L 10.984375 69.390625 
L 28.421875 72.90625 
L 38.28125 72.90625 
L 38.28125 8.296875 
L 54.390625 8.296875 
L 54.390625 0 
L 12.40625 0 
z
" id="DejaVuSans-49"/>
       <path d="M 10.6875 12.40625 
L 21 12.40625 
L 21 0 
L 10.6875 0 
z
" id="DejaVuSans-46"/>
       <path d="M 31.78125 66.40625 
Q 24.171875 66.40625 20.328125 58.90625 
Q 16.5 51.421875 16.5 36.375 
Q 16.5 21.390625 20.328125 13.890625 
Q 24.171875 6.390625 31.78125 6.390625 
Q 39.453125 6.390625 43.28125 13.890625 
Q 47.125 21.390625 47.125 36.375 
Q 47.125 51.421875 43.28125 58.90625 
Q 39.453125 66.40625 31.78125 66.40625 
z
M 31.78125 74.21875 
Q 44.046875 74.21875 50.515625 64.515625 
Q 56.984375 54.828125 56.984375 36.375 
Q 56.984375 17.96875 50.515625 8.265625 
Q 44.046875 -1.421875 31.78125 -1.421875 
Q 19.53125 -1.421875 13.0625 8.265625 
Q 6.59375 17.96875 6.59375 36.375 
Q 6.59375 54.828125 13.0625 64.515625 
Q 19.53125 74.21875 31.78125 74.21875 
z
" id="DejaVuSans-48"/>
      </defs>
      <g transform="translate(25.280469 191.917656)scale(0.1 -0.1)">
       <use xlink:href="#DejaVuSans-8722"/>
       <use x="83.789062" xlink:href="#DejaVuSans-49"/>
       <use x="147.412109" xlink:href="#DejaVuSans-46"/>
       <use x="179.199219" xlink:href="#DejaVuSans-48"/>
       <use x="242.822266" xlink:href="#DejaVuSans-48"/>
      </g>
     </g>
    </g>
    <g id="xtick_2">
     <g id="line2d_2">
      <g>
       <use style="stroke:#000000;stroke-width:0.8;" x="82.453125" xlink:href="#mdcaf29e290" y="177.319219"/>
      </g>
     </g>
     <g id="text_2">
      <!-- −0.75 -->
      <defs>
       <path d="M 8.203125 72.90625 
L 55.078125 72.90625 
L 55.078125 68.703125 
L 28.609375 0 
L 18.3125 0 
L 43.21875 64.59375 
L 8.203125 64.59375 
z
" id="DejaVuSans-55"/>
       <path d="M 10.796875 72.90625 
L 49.515625 72.90625 
L 49.515625 64.59375 
L 19.828125 64.59375 
L 19.828125 46.734375 
Q 21.96875 47.46875 24.109375 47.828125 
Q 26.265625 48.1875 28.421875 48.1875 
Q 40.625 48.1875 47.75 41.5 
Q 54.890625 34.8125 54.890625 23.390625 
Q 54.890625 11.625 47.5625 5.09375 
Q 40.234375 -1.421875 26.90625 -1.421875 
Q 22.3125 -1.421875 17.546875 -0.640625 
Q 12.796875 0.140625 7.71875 1.703125 
L 7.71875 11.625 
Q 12.109375 9.234375 16.796875 8.0625 
Q 21.484375 6.890625 26.703125 6.890625 
Q 35.15625 6.890625 40.078125 11.328125 
Q 45.015625 15.765625 45.015625 23.390625 
Q 45.015625 31 40.078125 35.4375 
Q 35.15625 39.890625 26.703125 39.890625 
Q 22.75 39.890625 18.8125 39.015625 
Q 14.890625 38.140625 10.796875 36.28125 
z
" id="DejaVuSans-53"/>
      </defs>
      <g transform="translate(67.130469 191.917656)scale(0.1 -0.1)">
       <use xlink:href="#DejaVuSans-8722"/>
       <use x="83.789062" xlink:href="#DejaVuSans-48"/>
       <use x="147.412109" xlink:href="#DejaVuSans-46"/>
       <use x="179.199219" xlink:href="#DejaVuSans-55"/>
       <use x="242.822266" xlink:href="#DejaVuSans-53"/>
      </g>
     </g>
    </g>
    <g id="xtick_3">
     <g id="line2d_3">
      <g>
       <use style="stroke:#000000;stroke-width:0.8;" x="124.303125" xlink:href="#mdcaf29e290" y="177.319219"/>
      </g>
     </g>
     <g id="text_3">
      <!-- −0.50 -->
      <g transform="translate(108.980469 191.917656)scale(0.1 -0.1)">
       <use xlink:href="#DejaVuSans-8722"/>
       <use x="83.789062" xlink:href="#DejaVuSans-48"/>
       <use x="147.412109" xlink:href="#DejaVuSans-46"/>
       <use x="179.199219" xlink:href="#DejaVuSans-53"/>
       <use x="242.822266" xlink:href="#DejaVuSans-48"/>
      </g>
     </g>
    </g>
    <g id="xtick_4">
     <g id="line2d_4">
      <g>
       <use style="stroke:#000000;stroke-width:0.8;" x="166.153125" xlink:href="#mdcaf29e290" y="177.319219"/>
      </g>
     </g>
     <g id="text_4">
      <!-- −0.25 -->
      <defs>
       <path d="M 19.1875 8.296875 
L 53.609375 8.296875 
L 53.609375 0 
L 7.328125 0 
L 7.328125 8.296875 
Q 12.9375 14.109375 22.625 23.890625 
Q 32.328125 33.6875 34.8125 36.53125 
Q 39.546875 41.84375 41.421875 45.53125 
Q 43.3125 49.21875 43.3125 52.78125 
Q 43.3125 58.59375 39.234375 62.25 
Q 35.15625 65.921875 28.609375 65.921875 
Q 23.96875 65.921875 18.8125 64.3125 
Q 13.671875 62.703125 7.8125 59.421875 
L 7.8125 69.390625 
Q 13.765625 71.78125 18.9375 73 
Q 24.125 74.21875 28.421875 74.21875 
Q 39.75 74.21875 46.484375 68.546875 
Q 53.21875 62.890625 53.21875 53.421875 
Q 53.21875 48.921875 51.53125 44.890625 
Q 49.859375 40.875 45.40625 35.40625 
Q 44.1875 33.984375 37.640625 27.21875 
Q 31.109375 20.453125 19.1875 8.296875 
z
" id="DejaVuSans-50"/>
      </defs>
      <g transform="translate(150.830469 191.917656)scale(0.1 -0.1)">
       <use xlink:href="#DejaVuSans-8722"/>
       <use x="83.789062" xlink:href="#DejaVuSans-48"/>
       <use x="147.412109" xlink:href="#DejaVuSans-46"/>
       <use x="179.199219" xlink:href="#DejaVuSans-50"/>
       <use x="242.822266" xlink:href="#DejaVuSans-53"/>
      </g>
     </g>
    </g>
    <g id="xtick_5">
     <g id="line2d_5">
      <g>
       <use style="stroke:#000000;stroke-width:0.8;" x="208.003125" xlink:href="#mdcaf29e290" y="177.319219"/>
      </g>
     </g>
     <g id="text_5">
      <!-- 0.00 -->
      <g transform="translate(196.870313 191.917656)scale(0.1 -0.1)">
       <use xlink:href="#DejaVuSans-48"/>
       <use x="63.623047" xlink:href="#DejaVuSans-46"/>
       <use x="95.410156" xlink:href="#DejaVuSans-48"/>
       <use x="159.033203" xlink:href="#DejaVuSans-48"/>
      </g>
     </g>
    </g>
    <g id="xtick_6">
     <g id="line2d_6">
      <g>
       <use style="stroke:#000000;stroke-width:0.8;" x="249.853125" xlink:href="#mdcaf29e290" y="177.319219"/>
      </g>
     </g>
     <g id="text_6">
      <!-- 0.25 -->
      <g transform="translate(238.720313 191.917656)scale(0.1 -0.1)">
       <use xlink:href="#DejaVuSans-48"/>
       <use x="63.623047" xlink:href="#DejaVuSans-46"/>
       <use x="95.410156" xlink:href="#DejaVuSans-50"/>
       <use x="159.033203" xlink:href="#DejaVuSans-53"/>
      </g>
     </g>
    </g>
    <g id="xtick_7">
     <g id="line2d_7">
      <g>
       <use style="stroke:#000000;stroke-width:0.8;" x="291.703125" xlink:href="#mdcaf29e290" y="177.319219"/>
      </g>
     </g>
     <g id="text_7">
      <!-- 0.50 -->
      <g transform="translate(280.570313 191.917656)scale(0.1 -0.1)">
       <use xlink:href="#DejaVuSans-48"/>
       <use x="63.623047" xlink:href="#DejaVuSans-46"/>
       <use x="95.410156" xlink:href="#DejaVuSans-53"/>
       <use x="159.033203" xlink:href="#DejaVuSans-48"/>
      </g>
     </g>
    </g>
    <g id="xtick_8">
     <g id="line2d_8">
      <g>
       <use style="stroke:#000000;stroke-width:0.8;" x="333.553125" xlink:href="#mdcaf29e290" y="177.319219"/>
      </g>
     </g>
     <g id="text_8">
      <!-- 0.75 -->
      <g transform="translate(322.420313 191.917656)scale(0.1 -0.1)">
       <use xlink:href="#DejaVuSans-48"/>
       <use x="63.623047" xlink:href="#DejaVuSans-46"/>
       <use x="95.410156" xlink:href="#DejaVuSans-55"/>
       <use x="159.033203" xlink:href="#DejaVuSans-53"/>
      </g>
     </g>
    </g>
    <g id="xtick_9">
     <g id="line2d_9">
      <g>
       <use style="stroke:#000000;stroke-width:0.8;" x="375.403125" xlink:href="#mdcaf29e290" y="177.319219"/>
      </g>
     </g>
     <g id="text_9">
      <!-- 1.00 -->
      <g transform="translate(364.270313 191.917656)scale(0.1 -0.1)">
       <use xlink:href="#DejaVuSans-49"/>
       <use x="63.623047" xlink:href="#DejaVuSans-46"/>
       <use x="95.410156" xlink:href="#DejaVuSans-48"/>
       <use x="159.033203" xlink:href="#DejaVuSans-48"/>
      </g>
     </g>
    </g>
    <g id="text_10">
     <!-- Frequency [MHz] -->
     <defs>
      <path d="M 9.8125 72.90625 
L 51.703125 72.90625 
L 51.703125 64.59375 
L 19.671875 64.59375 
L 19.671875 43.109375 
L 48.578125 43.109375 
L 48.578125 34.8125 
L 19.671875 34.8125 
L 19.671875 0 
L 9.8125 0 
z
" id="DejaVuSans-70"/>
      <path d="M 41.109375 46.296875 
Q 39.59375 47.171875 37.8125 47.578125 
Q 36.03125 48 33.890625 48 
Q 26.265625 48 22.1875 43.046875 
Q 18.109375 38.09375 18.109375 28.8125 
L 18.109375 0 
L 9.078125 0 
L 9.078125 54.6875 
L 18.109375 54.6875 
L 18.109375 46.1875 
Q 20.953125 51.171875 25.484375 53.578125 
Q 30.03125 56 36.53125 56 
Q 37.453125 56 38.578125 55.875 
Q 39.703125 55.765625 41.0625 55.515625 
z
" id="DejaVuSans-114"/>
      <path d="M 56.203125 29.59375 
L 56.203125 25.203125 
L 14.890625 25.203125 
Q 15.484375 15.921875 20.484375 11.0625 
Q 25.484375 6.203125 34.421875 6.203125 
Q 39.59375 6.203125 44.453125 7.46875 
Q 49.3125 8.734375 54.109375 11.28125 
L 54.109375 2.78125 
Q 49.265625 0.734375 44.1875 -0.34375 
Q 39.109375 -1.421875 33.890625 -1.421875 
Q 20.796875 -1.421875 13.15625 6.1875 
Q 5.515625 13.8125 5.515625 26.8125 
Q 5.515625 40.234375 12.765625 48.109375 
Q 20.015625 56 32.328125 56 
Q 43.359375 56 49.78125 48.890625 
Q 56.203125 41.796875 56.203125 29.59375 
z
M 47.21875 32.234375 
Q 47.125 39.59375 43.09375 43.984375 
Q 39.0625 48.390625 32.421875 48.390625 
Q 24.90625 48.390625 20.390625 44.140625 
Q 15.875 39.890625 15.1875 32.171875 
z
" id="DejaVuSans-101"/>
      <path d="M 14.796875 27.296875 
Q 14.796875 17.390625 18.875 11.75 
Q 22.953125 6.109375 30.078125 6.109375 
Q 37.203125 6.109375 41.296875 11.75 
Q 45.40625 17.390625 45.40625 27.296875 
Q 45.40625 37.203125 41.296875 42.84375 
Q 37.203125 48.484375 30.078125 48.484375 
Q 22.953125 48.484375 18.875 42.84375 
Q 14.796875 37.203125 14.796875 27.296875 
z
M 45.40625 8.203125 
Q 42.578125 3.328125 38.25 0.953125 
Q 33.9375 -1.421875 27.875 -1.421875 
Q 17.96875 -1.421875 11.734375 6.484375 
Q 5.515625 14.40625 5.515625 27.296875 
Q 5.515625 40.1875 11.734375 48.09375 
Q 17.96875 56 27.875 56 
Q 33.9375 56 38.25 53.625 
Q 42.578125 51.265625 45.40625 46.390625 
L 45.40625 54.6875 
L 54.390625 54.6875 
L 54.390625 -20.796875 
L 45.40625 -20.796875 
z
" id="DejaVuSans-113"/>
      <path d="M 8.5 21.578125 
L 8.5 54.6875 
L 17.484375 54.6875 
L 17.484375 21.921875 
Q 17.484375 14.15625 20.5 10.265625 
Q 23.53125 6.390625 29.59375 6.390625 
Q 36.859375 6.390625 41.078125 11.03125 
Q 45.3125 15.671875 45.3125 23.6875 
L 45.3125 54.6875 
L 54.296875 54.6875 
L 54.296875 0 
L 45.3125 0 
L 45.3125 8.40625 
Q 42.046875 3.421875 37.71875 1 
Q 33.40625 -1.421875 27.6875 -1.421875 
Q 18.265625 -1.421875 13.375 4.4375 
Q 8.5 10.296875 8.5 21.578125 
z
M 31.109375 56 
z
" id="DejaVuSans-117"/>
      <path d="M 54.890625 33.015625 
L 54.890625 0 
L 45.90625 0 
L 45.90625 32.71875 
Q 45.90625 40.484375 42.875 44.328125 
Q 39.84375 48.1875 33.796875 48.1875 
Q 26.515625 48.1875 22.3125 43.546875 
Q 18.109375 38.921875 18.109375 30.90625 
L 18.109375 0 
L 9.078125 0 
L 9.078125 54.6875 
L 18.109375 54.6875 
L 18.109375 46.1875 
Q 21.34375 51.125 25.703125 53.5625 
Q 30.078125 56 35.796875 56 
Q 45.21875 56 50.046875 50.171875 
Q 54.890625 44.34375 54.890625 33.015625 
z
" id="DejaVuSans-110"/>
      <path d="M 48.78125 52.59375 
L 48.78125 44.1875 
Q 44.96875 46.296875 41.140625 47.34375 
Q 37.3125 48.390625 33.40625 48.390625 
Q 24.65625 48.390625 19.8125 42.84375 
Q 14.984375 37.3125 14.984375 27.296875 
Q 14.984375 17.28125 19.8125 11.734375 
Q 24.65625 6.203125 33.40625 6.203125 
Q 37.3125 6.203125 41.140625 7.25 
Q 44.96875 8.296875 48.78125 10.40625 
L 48.78125 2.09375 
Q 45.015625 0.34375 40.984375 -0.53125 
Q 36.96875 -1.421875 32.421875 -1.421875 
Q 20.0625 -1.421875 12.78125 6.34375 
Q 5.515625 14.109375 5.515625 27.296875 
Q 5.515625 40.671875 12.859375 48.328125 
Q 20.21875 56 33.015625 56 
Q 37.15625 56 41.109375 55.140625 
Q 45.0625 54.296875 48.78125 52.59375 
z
" id="DejaVuSans-99"/>
      <path d="M 32.171875 -5.078125 
Q 28.375 -14.84375 24.75 -17.8125 
Q 21.140625 -20.796875 15.09375 -20.796875 
L 7.90625 -20.796875 
L 7.90625 -13.28125 
L 13.1875 -13.28125 
Q 16.890625 -13.28125 18.9375 -11.515625 
Q 21 -9.765625 23.484375 -3.21875 
L 25.09375 0.875 
L 2.984375 54.6875 
L 12.5 54.6875 
L 29.59375 11.921875 
L 46.6875 54.6875 
L 56.203125 54.6875 
z
" id="DejaVuSans-121"/>
      <path id="DejaVuSans-32"/>
      <path d="M 8.59375 75.984375 
L 29.296875 75.984375 
L 29.296875 69 
L 17.578125 69 
L 17.578125 -6.203125 
L 29.296875 -6.203125 
L 29.296875 -13.1875 
L 8.59375 -13.1875 
z
" id="DejaVuSans-91"/>
      <path d="M 9.8125 72.90625 
L 24.515625 72.90625 
L 43.109375 23.296875 
L 61.8125 72.90625 
L 76.515625 72.90625 
L 76.515625 0 
L 66.890625 0 
L 66.890625 64.015625 
L 48.09375 14.015625 
L 38.1875 14.015625 
L 19.390625 64.015625 
L 19.390625 0 
L 9.8125 0 
z
" id="DejaVuSans-77"/>
      <path d="M 9.8125 72.90625 
L 19.671875 72.90625 
L 19.671875 43.015625 
L 55.515625 43.015625 
L 55.515625 72.90625 
L 65.375 72.90625 
L 65.375 0 
L 55.515625 0 
L 55.515625 34.71875 
L 19.671875 34.71875 
L 19.671875 0 
L 9.8125 0 
z
" id="DejaVuSans-72"/>
      <path d="M 5.515625 54.6875 
L 48.1875 54.6875 
L 48.1875 46.484375 
L 14.40625 7.171875 
L 48.1875 7.171875 
L 48.1875 0 
L 4.296875 0 
L 4.296875 8.203125 
L 38.09375 47.515625 
L 5.515625 47.515625 
z
" id="DejaVuSans-122"/>
      <path d="M 30.421875 75.984375 
L 30.421875 -13.1875 
L 9.71875 -13.1875 
L 9.71875 -6.203125 
L 21.390625 -6.203125 
L 21.390625 69 
L 9.71875 69 
L 9.71875 75.984375 
z
" id="DejaVuSans-93"/>
     </defs>
     <g transform="translate(165.516406 205.595781)scale(0.1 -0.1)">
      <use xlink:href="#DejaVuSans-70"/>
      <use x="57.410156" xlink:href="#DejaVuSans-114"/>
      <use x="98.492188" xlink:href="#DejaVuSans-101"/>
      <use x="160.015625" xlink:href="#DejaVuSans-113"/>
      <use x="223.492188" xlink:href="#DejaVuSans-117"/>
      <use x="286.871094" xlink:href="#DejaVuSans-101"/>
      <use x="348.394531" xlink:href="#DejaVuSans-110"/>
      <use x="411.773438" xlink:href="#DejaVuSans-99"/>
      <use x="466.753906" xlink:href="#DejaVuSans-121"/>
      <use x="525.933594" xlink:href="#DejaVuSans-32"/>
      <use x="557.720703" xlink:href="#DejaVuSans-91"/>
      <use x="596.734375" xlink:href="#DejaVuSans-77"/>
      <use x="683.013672" xlink:href="#DejaVuSans-72"/>
      <use x="758.208984" xlink:href="#DejaVuSans-122"/>
      <use x="810.699219" xlink:href="#DejaVuSans-93"/>
     </g>
    </g>
   </g>
   <g id="matplotlib.axis_2">
    <g id="ytick_1">
     <g id="line2d_10">
      <defs>
       <path d="M 0 0 
L -3.5 0 
" id="mc3f342c3ac" style="stroke:#000000;stroke-width:0.8;"/>
      </defs>
      <g>
       <use style="stroke:#000000;stroke-width:0.8;" x="40.603125" xlink:href="#mc3f342c3ac" y="177.319219"/>
      </g>
     </g>
     <g id="text_11">
      <!-- 10 -->
      <g transform="translate(20.878125 181.118437)scale(0.1 -0.1)">
       <use xlink:href="#DejaVuSans-49"/>
       <use x="63.623047" xlink:href="#DejaVuSans-48"/>
      </g>
     </g>
    </g>
    <g id="ytick_2">
     <g id="line2d_11">
      <g>
       <use style="stroke:#000000;stroke-width:0.8;" x="40.603125" xlink:href="#mc3f342c3ac" y="156.529219"/>
      </g>
     </g>
     <g id="text_12">
      <!-- 15 -->
      <g transform="translate(20.878125 160.328438)scale(0.1 -0.1)">
       <use xlink:href="#DejaVuSans-49"/>
       <use x="63.623047" xlink:href="#DejaVuSans-53"/>
      </g>
     </g>
    </g>
    <g id="ytick_3">
     <g id="line2d_12">
      <g>
       <use style="stroke:#000000;stroke-width:0.8;" x="40.603125" xlink:href="#mc3f342c3ac" y="135.739219"/>
      </g>
     </g>
     <g id="text_13">
      <!-- 20 -->
      <g transform="translate(20.878125 139.538437)scale(0.1 -0.1)">
       <use xlink:href="#DejaVuSans-50"/>
       <use x="63.623047" xlink:href="#DejaVuSans-48"/>
      </g>
     </g>
    </g>
    <g id="ytick_4">
     <g id="line2d_13">
      <g>
       <use style="stroke:#000000;stroke-width:0.8;" x="40.603125" xlink:href="#mc3f342c3ac" y="114.949219"/>
      </g>
     </g>
     <g id="text_14">
      <!-- 25 -->
      <g transform="translate(20.878125 118.748437)scale(0.1 -0.1)">
       <use xlink:href="#DejaVuSans-50"/>
       <use x="63.623047" xlink:href="#DejaVuSans-53"/>
      </g>
     </g>
    </g>
    <g id="ytick_5">
     <g id="line2d_14">
      <g>
       <use style="stroke:#000000;stroke-width:0.8;" x="40.603125" xlink:href="#mc3f342c3ac" y="94.159219"/>
      </g>
     </g>
     <g id="text_15">
      <!-- 30 -->
      <defs>
       <path d="M 40.578125 39.3125 
Q 47.65625 37.796875 51.625 33 
Q 55.609375 28.21875 55.609375 21.1875 
Q 55.609375 10.40625 48.1875 4.484375 
Q 40.765625 -1.421875 27.09375 -1.421875 
Q 22.515625 -1.421875 17.65625 -0.515625 
Q 12.796875 0.390625 7.625 2.203125 
L 7.625 11.71875 
Q 11.71875 9.328125 16.59375 8.109375 
Q 21.484375 6.890625 26.8125 6.890625 
Q 36.078125 6.890625 40.9375 10.546875 
Q 45.796875 14.203125 45.796875 21.1875 
Q 45.796875 27.640625 41.28125 31.265625 
Q 36.765625 34.90625 28.71875 34.90625 
L 20.21875 34.90625 
L 20.21875 43.015625 
L 29.109375 43.015625 
Q 36.375 43.015625 40.234375 45.921875 
Q 44.09375 48.828125 44.09375 54.296875 
Q 44.09375 59.90625 40.109375 62.90625 
Q 36.140625 65.921875 28.71875 65.921875 
Q 24.65625 65.921875 20.015625 65.03125 
Q 15.375 64.15625 9.8125 62.3125 
L 9.8125 71.09375 
Q 15.4375 72.65625 20.34375 73.4375 
Q 25.25 74.21875 29.59375 74.21875 
Q 40.828125 74.21875 47.359375 69.109375 
Q 53.90625 64.015625 53.90625 55.328125 
Q 53.90625 49.265625 50.4375 45.09375 
Q 46.96875 40.921875 40.578125 39.3125 
z
" id="DejaVuSans-51"/>
      </defs>
      <g transform="translate(20.878125 97.958438)scale(0.1 -0.1)">
       <use xlink:href="#DejaVuSans-51"/>
       <use x="63.623047" xlink:href="#DejaVuSans-48"/>
      </g>
     </g>
    </g>
    <g id="ytick_6">
     <g id="line2d_15">
      <g>
       <use style="stroke:#000000;stroke-width:0.8;" x="40.603125" xlink:href="#mc3f342c3ac" y="73.369219"/>
      </g>
     </g>
     <g id="text_16">
      <!-- 35 -->
      <g transform="translate(20.878125 77.168438)scale(0.1 -0.1)">
       <use xlink:href="#DejaVuSans-51"/>
       <use x="63.623047" xlink:href="#DejaVuSans-53"/>
      </g>
     </g>
    </g>
    <g id="ytick_7">
     <g id="line2d_16">
      <g>
       <use style="stroke:#000000;stroke-width:0.8;" x="40.603125" xlink:href="#mc3f342c3ac" y="52.579219"/>
      </g>
     </g>
     <g id="text_17">
      <!-- 40 -->
      <defs>
       <path d="M 37.796875 64.3125 
L 12.890625 25.390625 
L 37.796875 25.390625 
z
M 35.203125 72.90625 
L 47.609375 72.90625 
L 47.609375 25.390625 
L 58.015625 25.390625 
L 58.015625 17.1875 
L 47.609375 17.1875 
L 47.609375 0 
L 37.796875 0 
L 37.796875 17.1875 
L 4.890625 17.1875 
L 4.890625 26.703125 
z
" id="DejaVuSans-52"/>
      </defs>
      <g transform="translate(20.878125 56.378437)scale(0.1 -0.1)">
       <use xlink:href="#DejaVuSans-52"/>
       <use x="63.623047" xlink:href="#DejaVuSans-48"/>
      </g>
     </g>
    </g>
    <g id="ytick_8">
     <g id="line2d_17">
      <g>
       <use style="stroke:#000000;stroke-width:0.8;" x="40.603125" xlink:href="#mc3f342c3ac" y="31.789219"/>
      </g>
     </g>
     <g id="text_18">
      <!-- 45 -->
      <g transform="translate(20.878125 35.588437)scale(0.1 -0.1)">
       <use xlink:href="#DejaVuSans-52"/>
       <use x="63.623047" xlink:href="#DejaVuSans-53"/>
      </g>
     </g>
    </g>
    <g id="ytick_9">
     <g id="line2d_18">
      <g>
       <use style="stroke:#000000;stroke-width:0.8;" x="40.603125" xlink:href="#mc3f342c3ac" y="10.999219"/>
      </g>
     </g>
     <g id="text_19">
      <!-- 50 -->
      <g transform="translate(20.878125 14.798438)scale(0.1 -0.1)">
       <use xlink:href="#DejaVuSans-53"/>
       <use x="63.623047" xlink:href="#DejaVuSans-48"/>
      </g>
     </g>
    </g>
    <g id="text_20">
     <!-- Power Spectral Density -->
     <defs>
      <path d="M 19.671875 64.796875 
L 19.671875 37.40625 
L 32.078125 37.40625 
Q 38.96875 37.40625 42.71875 40.96875 
Q 46.484375 44.53125 46.484375 51.125 
Q 46.484375 57.671875 42.71875 61.234375 
Q 38.96875 64.796875 32.078125 64.796875 
z
M 9.8125 72.90625 
L 32.078125 72.90625 
Q 44.34375 72.90625 50.609375 67.359375 
Q 56.890625 61.8125 56.890625 51.125 
Q 56.890625 40.328125 50.609375 34.8125 
Q 44.34375 29.296875 32.078125 29.296875 
L 19.671875 29.296875 
L 19.671875 0 
L 9.8125 0 
z
" id="DejaVuSans-80"/>
      <path d="M 30.609375 48.390625 
Q 23.390625 48.390625 19.1875 42.75 
Q 14.984375 37.109375 14.984375 27.296875 
Q 14.984375 17.484375 19.15625 11.84375 
Q 23.34375 6.203125 30.609375 6.203125 
Q 37.796875 6.203125 41.984375 11.859375 
Q 46.1875 17.53125 46.1875 27.296875 
Q 46.1875 37.015625 41.984375 42.703125 
Q 37.796875 48.390625 30.609375 48.390625 
z
M 30.609375 56 
Q 42.328125 56 49.015625 48.375 
Q 55.71875 40.765625 55.71875 27.296875 
Q 55.71875 13.875 49.015625 6.21875 
Q 42.328125 -1.421875 30.609375 -1.421875 
Q 18.84375 -1.421875 12.171875 6.21875 
Q 5.515625 13.875 5.515625 27.296875 
Q 5.515625 40.765625 12.171875 48.375 
Q 18.84375 56 30.609375 56 
z
" id="DejaVuSans-111"/>
      <path d="M 4.203125 54.6875 
L 13.1875 54.6875 
L 24.421875 12.015625 
L 35.59375 54.6875 
L 46.1875 54.6875 
L 57.421875 12.015625 
L 68.609375 54.6875 
L 77.59375 54.6875 
L 63.28125 0 
L 52.6875 0 
L 40.921875 44.828125 
L 29.109375 0 
L 18.5 0 
z
" id="DejaVuSans-119"/>
      <path d="M 53.515625 70.515625 
L 53.515625 60.890625 
Q 47.90625 63.578125 42.921875 64.890625 
Q 37.9375 66.21875 33.296875 66.21875 
Q 25.25 66.21875 20.875 63.09375 
Q 16.5 59.96875 16.5 54.203125 
Q 16.5 49.359375 19.40625 46.890625 
Q 22.3125 44.4375 30.421875 42.921875 
L 36.375 41.703125 
Q 47.40625 39.59375 52.65625 34.296875 
Q 57.90625 29 57.90625 20.125 
Q 57.90625 9.515625 50.796875 4.046875 
Q 43.703125 -1.421875 29.984375 -1.421875 
Q 24.8125 -1.421875 18.96875 -0.25 
Q 13.140625 0.921875 6.890625 3.21875 
L 6.890625 13.375 
Q 12.890625 10.015625 18.65625 8.296875 
Q 24.421875 6.59375 29.984375 6.59375 
Q 38.421875 6.59375 43.015625 9.90625 
Q 47.609375 13.234375 47.609375 19.390625 
Q 47.609375 24.75 44.3125 27.78125 
Q 41.015625 30.8125 33.5 32.328125 
L 27.484375 33.5 
Q 16.453125 35.6875 11.515625 40.375 
Q 6.59375 45.0625 6.59375 53.421875 
Q 6.59375 63.09375 13.40625 68.65625 
Q 20.21875 74.21875 32.171875 74.21875 
Q 37.3125 74.21875 42.625 73.28125 
Q 47.953125 72.359375 53.515625 70.515625 
z
" id="DejaVuSans-83"/>
      <path d="M 18.109375 8.203125 
L 18.109375 -20.796875 
L 9.078125 -20.796875 
L 9.078125 54.6875 
L 18.109375 54.6875 
L 18.109375 46.390625 
Q 20.953125 51.265625 25.265625 53.625 
Q 29.59375 56 35.59375 56 
Q 45.5625 56 51.78125 48.09375 
Q 58.015625 40.1875 58.015625 27.296875 
Q 58.015625 14.40625 51.78125 6.484375 
Q 45.5625 -1.421875 35.59375 -1.421875 
Q 29.59375 -1.421875 25.265625 0.953125 
Q 20.953125 3.328125 18.109375 8.203125 
z
M 48.6875 27.296875 
Q 48.6875 37.203125 44.609375 42.84375 
Q 40.53125 48.484375 33.40625 48.484375 
Q 26.265625 48.484375 22.1875 42.84375 
Q 18.109375 37.203125 18.109375 27.296875 
Q 18.109375 17.390625 22.1875 11.75 
Q 26.265625 6.109375 33.40625 6.109375 
Q 40.53125 6.109375 44.609375 11.75 
Q 48.6875 17.390625 48.6875 27.296875 
z
" id="DejaVuSans-112"/>
      <path d="M 18.3125 70.21875 
L 18.3125 54.6875 
L 36.8125 54.6875 
L 36.8125 47.703125 
L 18.3125 47.703125 
L 18.3125 18.015625 
Q 18.3125 11.328125 20.140625 9.421875 
Q 21.96875 7.515625 27.59375 7.515625 
L 36.8125 7.515625 
L 36.8125 0 
L 27.59375 0 
Q 17.1875 0 13.234375 3.875 
Q 9.28125 7.765625 9.28125 18.015625 
L 9.28125 47.703125 
L 2.6875 47.703125 
L 2.6875 54.6875 
L 9.28125 54.6875 
L 9.28125 70.21875 
z
" id="DejaVuSans-116"/>
      <path d="M 34.28125 27.484375 
Q 23.390625 27.484375 19.1875 25 
Q 14.984375 22.515625 14.984375 16.5 
Q 14.984375 11.71875 18.140625 8.90625 
Q 21.296875 6.109375 26.703125 6.109375 
Q 34.1875 6.109375 38.703125 11.40625 
Q 43.21875 16.703125 43.21875 25.484375 
L 43.21875 27.484375 
z
M 52.203125 31.203125 
L 52.203125 0 
L 43.21875 0 
L 43.21875 8.296875 
Q 40.140625 3.328125 35.546875 0.953125 
Q 30.953125 -1.421875 24.3125 -1.421875 
Q 15.921875 -1.421875 10.953125 3.296875 
Q 6 8.015625 6 15.921875 
Q 6 25.140625 12.171875 29.828125 
Q 18.359375 34.515625 30.609375 34.515625 
L 43.21875 34.515625 
L 43.21875 35.40625 
Q 43.21875 41.609375 39.140625 45 
Q 35.0625 48.390625 27.6875 48.390625 
Q 23 48.390625 18.546875 47.265625 
Q 14.109375 46.140625 10.015625 43.890625 
L 10.015625 52.203125 
Q 14.9375 54.109375 19.578125 55.046875 
Q 24.21875 56 28.609375 56 
Q 40.484375 56 46.34375 49.84375 
Q 52.203125 43.703125 52.203125 31.203125 
z
" id="DejaVuSans-97"/>
      <path d="M 9.421875 75.984375 
L 18.40625 75.984375 
L 18.40625 0 
L 9.421875 0 
z
" id="DejaVuSans-108"/>
      <path d="M 19.671875 64.796875 
L 19.671875 8.109375 
L 31.59375 8.109375 
Q 46.6875 8.109375 53.6875 14.9375 
Q 60.6875 21.78125 60.6875 36.53125 
Q 60.6875 51.171875 53.6875 57.984375 
Q 46.6875 64.796875 31.59375 64.796875 
z
M 9.8125 72.90625 
L 30.078125 72.90625 
Q 51.265625 72.90625 61.171875 64.09375 
Q 71.09375 55.28125 71.09375 36.53125 
Q 71.09375 17.671875 61.125 8.828125 
Q 51.171875 0 30.078125 0 
L 9.8125 0 
z
" id="DejaVuSans-68"/>
      <path d="M 44.28125 53.078125 
L 44.28125 44.578125 
Q 40.484375 46.53125 36.375 47.5 
Q 32.28125 48.484375 27.875 48.484375 
Q 21.1875 48.484375 17.84375 46.4375 
Q 14.5 44.390625 14.5 40.28125 
Q 14.5 37.15625 16.890625 35.375 
Q 19.28125 33.59375 26.515625 31.984375 
L 29.59375 31.296875 
Q 39.15625 29.25 43.1875 25.515625 
Q 47.21875 21.78125 47.21875 15.09375 
Q 47.21875 7.46875 41.1875 3.015625 
Q 35.15625 -1.421875 24.609375 -1.421875 
Q 20.21875 -1.421875 15.453125 -0.5625 
Q 10.6875 0.296875 5.421875 2 
L 5.421875 11.28125 
Q 10.40625 8.6875 15.234375 7.390625 
Q 20.0625 6.109375 24.8125 6.109375 
Q 31.15625 6.109375 34.5625 8.28125 
Q 37.984375 10.453125 37.984375 14.40625 
Q 37.984375 18.0625 35.515625 20.015625 
Q 33.0625 21.96875 24.703125 23.78125 
L 21.578125 24.515625 
Q 13.234375 26.265625 9.515625 29.90625 
Q 5.8125 33.546875 5.8125 39.890625 
Q 5.8125 47.609375 11.28125 51.796875 
Q 16.75 56 26.8125 56 
Q 31.78125 56 36.171875 55.265625 
Q 40.578125 54.546875 44.28125 53.078125 
z
" id="DejaVuSans-115"/>
      <path d="M 9.421875 54.6875 
L 18.40625 54.6875 
L 18.40625 0 
L 9.421875 0 
z
M 9.421875 75.984375 
L 18.40625 75.984375 
L 18.40625 64.59375 
L 9.421875 64.59375 
z
" id="DejaVuSans-105"/>
     </defs>
     <g transform="translate(14.798438 152.281875)rotate(-90)scale(0.1 -0.1)">
      <use xlink:href="#DejaVuSans-80"/>
      <use x="60.255859" xlink:href="#DejaVuSans-111"/>
      <use x="121.4375" xlink:href="#DejaVuSans-119"/>
      <use x="203.224609" xlink:href="#DejaVuSans-101"/>
      <use x="264.748047" xlink:href="#DejaVuSans-114"/>
      <use x="305.861328" xlink:href="#DejaVuSans-32"/>
      <use x="337.648438" xlink:href="#DejaVuSans-83"/>
      <use x="401.125" xlink:href="#DejaVuSans-112"/>
      <use x="464.601562" xlink:href="#DejaVuSans-101"/>
      <use x="526.125" xlink:href="#DejaVuSans-99"/>
      <use x="581.105469" xlink:href="#DejaVuSans-116"/>
      <use x="620.314453" xlink:href="#DejaVuSans-114"/>
      <use x="661.427734" xlink:href="#DejaVuSans-97"/>
      <use x="722.707031" xlink:href="#DejaVuSans-108"/>
      <use x="750.490234" xlink:href="#DejaVuSans-32"/>
      <use x="782.277344" xlink:href="#DejaVuSans-68"/>
      <use x="859.279297" xlink:href="#DejaVuSans-101"/>
      <use x="920.802734" xlink:href="#DejaVuSans-110"/>
      <use x="984.181641" xlink:href="#DejaVuSans-115"/>
      <use x="1036.28125" xlink:href="#DejaVuSans-105"/>
      <use x="1064.064453" xlink:href="#DejaVuSans-116"/>
      <use x="1103.273438" xlink:href="#DejaVuSans-121"/>
     </g>
    </g>
   </g>
   <g id="line2d_19">
    <path clip-path="url(#pb32a7d965b)" d="M 40.603125 164.228169 
L 40.766681 153.224571 
L 40.930238 159.657418 
L 41.093794 160.443679 
L 41.549052 215.875469 
M 41.832417 215.875469 
L 41.911576 189.761251 
L 42.238689 170.929664 
L 42.565802 165.349653 
L 42.892915 133.208585 
L 43.056471 142.247324 
L 43.220028 131.887634 
L 43.383584 147.658498 
L 43.547141 149.480427 
L 43.874253 161.787159 
L 44.03781 156.030064 
L 44.201366 158.359419 
L 44.364923 191.496362 
L 44.528479 190.196782 
L 45.019148 146.403125 
L 45.182705 132.34009 
L 45.346261 138.516289 
L 45.509818 123.721711 
L 45.673374 129.470676 
L 45.836931 115.736897 
L 46.000487 129.030828 
L 46.164043 116.987496 
L 46.491156 129.641189 
L 46.654713 120.583246 
L 46.981826 138.035339 
L 47.145382 130.367884 
L 47.308938 136.284551 
L 47.472495 130.759744 
L 48.126721 213.007093 
L 48.453833 171.035794 
L 49.108059 147.647664 
L 49.271615 166.426755 
L 49.435172 151.470234 
L 49.762285 180.835962 
L 49.925841 206.325608 
L 50.089398 187.110294 
L 50.252954 187.992113 
L 50.580067 143.914139 
L 50.743623 148.604494 
L 51.070736 126.182496 
L 51.397849 108.255815 
L 51.561405 113.185454 
L 51.724962 108.162062 
L 52.052075 125.837486 
L 52.215631 112.885263 
L 52.379188 119.348882 
L 52.542744 97.976339 
L 52.869857 125.770095 
L 53.033413 125.191667 
L 53.687639 155.331827 
L 53.851195 154.144694 
L 54.014752 151.040675 
L 54.178308 160.147259 
L 54.341865 152.499792 
L 54.505421 154.997854 
L 54.668977 159.869984 
L 54.832534 152.530812 
L 54.99609 138.65882 
L 55.323203 151.753565 
L 55.48676 151.476437 
L 55.650316 152.627526 
L 55.813872 177.188834 
L 56.140985 187.480774 
L 56.304542 182.44793 
L 56.958767 148.481213 
L 57.122324 149.696831 
L 57.28588 134.732768 
L 57.449437 134.668226 
L 57.612993 133.365606 
L 57.77655 135.196984 
L 57.940106 134.26526 
L 58.103662 150.316198 
L 58.267219 144.504878 
L 58.430775 173.992941 
L 58.594332 166.075445 
L 58.757888 171.189429 
L 59.085001 196.693326 
L 59.248557 177.087854 
L 59.412114 174.857544 
L 59.739227 163.161536 
L 59.902783 131.525882 
L 60.066339 150.60381 
L 60.393452 122.070539 
L 60.557009 143.442912 
L 60.720565 136.9558 
L 60.884122 159.606098 
L 61.047678 134.950586 
L 61.211234 145.610824 
L 61.374791 133.414181 
L 61.538347 157.232514 
L 61.701904 159.084112 
L 61.86546 173.647189 
L 62.029017 167.911459 
L 62.192573 155.791039 
L 62.356129 155.859669 
L 62.519686 148.34192 
L 62.683242 153.227161 
L 62.846799 154.360412 
L 63.010355 157.51515 
L 63.173912 157.599285 
L 63.337468 126.906292 
L 63.664581 158.275499 
L 63.828137 164.279134 
L 63.991694 164.03648 
L 64.15525 175.540192 
L 64.318806 170.716936 
L 64.645919 207.780738 
L 64.809476 203.904858 
L 64.973032 174.980094 
L 65.136589 173.158079 
L 65.300145 139.526685 
L 65.463701 159.929645 
L 65.790814 131.476695 
L 65.954371 128.434289 
L 66.117927 131.166956 
L 66.281484 143.273806 
L 66.44504 126.564026 
L 66.608596 135.619375 
L 66.772153 121.770516 
L 66.935709 145.91414 
L 67.262822 118.023125 
L 67.589935 127.213413 
L 67.917048 117.317628 
L 68.571274 137.057346 
L 68.73483 133.746743 
L 68.898386 147.548293 
L 69.061943 143.60786 
L 69.225499 161.171549 
L 69.389056 163.222091 
L 69.552612 155.027931 
L 70.043281 170.125089 
L 70.206838 162.077972 
L 70.370394 144.051309 
L 70.697507 146.931262 
L 70.861063 162.065885 
L 71.02462 165.215478 
L 71.188176 162.25243 
L 71.351733 164.9668 
L 71.515289 181.857922 
L 71.678846 171.875718 
L 71.842402 200.042126 
L 72.005958 208.556392 
L 72.169515 207.426887 
L 72.496628 168.177588 
L 72.660184 140.319667 
L 72.823741 141.975206 
L 72.987297 156.590415 
L 73.150853 155.263926 
L 73.641523 128.961751 
L 73.805079 140.405748 
L 73.968636 130.762438 
L 74.295748 155.174445 
L 74.459305 143.960079 
L 74.622861 164.195335 
L 74.786418 169.486333 
L 74.949974 157.117059 
L 75.11353 194.835431 
L 75.361384 215.875469 
M 75.496569 215.875469 
L 75.6042 196.261476 
L 75.767756 200.140592 
L 76.094869 147.71974 
L 76.421982 142.184523 
L 76.585538 156.202063 
L 76.749095 144.009471 
L 76.912651 140.907882 
L 77.076208 142.151358 
L 77.239764 135.025645 
L 77.40332 153.975019 
L 77.566877 144.139708 
L 77.730433 155.387524 
L 78.221103 130.20919 
L 78.384659 137.728502 
L 78.548215 134.805692 
L 78.711772 145.637008 
L 78.875328 135.866501 
L 79.038885 140.864253 
L 79.202441 140.364407 
L 79.529554 136.277937 
L 79.69311 131.821533 
L 79.856667 138.36968 
L 80.020223 132.510394 
L 80.18378 145.308021 
L 80.347336 142.054785 
L 80.510892 143.190432 
L 80.674449 138.081037 
L 80.838005 137.70477 
L 81.001562 142.46353 
L 81.165118 136.644972 
L 81.328675 144.963877 
L 81.492231 141.143141 
L 81.655787 140.104621 
L 81.9829 157.883679 
L 82.146457 160.961668 
L 82.310013 160.834185 
L 82.47357 154.752976 
L 82.637126 176.122674 
L 82.800682 163.225582 
L 82.964239 175.836247 
L 83.127795 173.342317 
L 83.454908 193.226447 
L 83.782021 165.578639 
L 83.945577 169.941919 
L 84.109134 148.43193 
L 84.27269 162.31362 
L 84.599803 138.125226 
L 84.763359 141.399341 
L 84.926916 139.602141 
L 85.090472 148.09818 
L 85.254029 135.652885 
L 85.417585 137.797644 
L 85.581142 161.112813 
L 85.908254 138.058167 
L 86.071811 143.745179 
L 86.235367 144.356138 
L 86.398924 161.617038 
L 86.56248 141.969761 
L 86.726037 141.99384 
L 86.889593 145.364453 
L 87.053149 130.751421 
L 87.216706 127.219157 
L 87.380262 132.032284 
L 87.543819 121.869267 
L 87.870932 119.884724 
L 88.034488 116.464384 
L 88.198044 125.977724 
L 88.361601 125.984774 
L 88.525157 135.151593 
L 88.688714 118.985202 
L 89.015827 147.974949 
L 89.179383 138.349025 
L 89.342939 147.814892 
L 89.506496 132.217074 
L 89.670052 152.684724 
L 89.833609 152.224031 
L 89.997165 150.397353 
L 90.160721 135.389878 
L 90.324278 150.676798 
L 90.487834 146.978587 
L 90.651391 152.57425 
L 90.814947 146.0777 
L 90.978504 147.157707 
L 91.14206 131.063643 
L 91.469173 150.065275 
L 91.632729 139.764149 
L 91.959842 147.530563 
L 92.123399 150.828462 
L 92.450511 135.649345 
L 92.614068 155.223895 
L 92.941181 126.580659 
L 93.104737 136.041754 
L 93.43185 112.701671 
L 93.595406 122.934076 
L 93.758963 150.44116 
L 93.922519 137.836953 
L 94.086076 138.835206 
L 94.249632 131.574062 
L 94.576745 153.504788 
L 94.740301 145.322593 
L 94.903858 163.248946 
L 95.067414 151.684378 
L 95.230971 153.798959 
L 95.394527 167.6499 
L 95.558083 164.905917 
L 95.72164 144.774768 
L 95.885196 143.703249 
L 96.048753 140.013989 
L 96.212309 126.673433 
L 96.375866 136.601145 
L 96.539422 131.091009 
L 96.866535 116.035699 
L 97.030091 124.324146 
L 97.193648 122.44806 
L 97.357204 126.607847 
L 97.520761 113.118862 
L 97.847873 137.77779 
L 98.174986 148.181169 
L 98.338543 132.08037 
L 98.502099 156.59968 
L 98.665656 146.34278 
L 98.829212 156.791808 
L 98.992768 156.806882 
L 99.156325 150.389056 
L 99.319881 181.580538 
L 99.646994 158.670484 
L 99.810551 175.114553 
L 99.974107 157.802556 
L 100.137663 162.303411 
L 100.30122 162.236025 
L 100.464776 142.224377 
L 100.628333 174.372407 
L 101.119002 142.228998 
L 101.282558 142.363039 
L 101.446115 135.527067 
L 101.609671 145.373734 
L 101.936784 133.264645 
L 102.263897 153.855838 
L 102.427453 141.161845 
L 102.59101 144.141364 
L 102.754566 150.912912 
L 103.081679 142.770842 
L 103.245235 133.113132 
L 103.408792 155.49945 
L 103.735905 132.65414 
L 103.899461 130.69789 
L 104.063018 126.836691 
L 104.226574 125.880238 
L 104.39013 143.565857 
L 104.553687 143.303186 
L 104.717243 143.919786 
L 104.8808 135.791739 
L 105.535025 172.651433 
L 105.698582 175.885302 
L 105.832053 215.875469 
M 106.031616 215.875469 
L 106.189251 186.822111 
L 106.352807 189.700793 
L 106.516364 181.101054 
L 106.67992 159.417729 
L 106.843477 164.243112 
L 107.007033 139.15529 
L 107.17059 149.532315 
L 107.334146 125.873798 
L 107.497702 157.489018 
L 107.661259 154.517126 
L 107.824815 157.661759 
L 107.988372 184.946982 
L 108.151928 177.312479 
L 108.479041 205.729308 
L 108.642597 170.48692 
L 108.806154 182.39923 
L 108.96971 152.361716 
L 109.133267 151.916911 
L 109.46038 135.775617 
L 109.623936 138.543839 
L 109.787492 120.885906 
L 110.114605 141.909975 
L 110.441718 133.519539 
L 110.605274 134.316588 
L 111.095944 162.826467 
L 111.2595 177.227023 
L 111.423057 170.075335 
L 111.561268 215.875469 
M 111.756597 215.875469 
L 112.240839 158.743041 
L 112.404395 161.254153 
L 112.567952 126.713762 
L 112.731508 147.279291 
L 112.895064 112.498323 
L 113.058621 135.97197 
L 113.222177 120.698023 
L 113.385734 143.234719 
L 113.54929 126.784139 
L 113.712847 143.846321 
L 113.876403 131.533436 
L 114.039959 146.739035 
L 114.203516 132.72139 
L 114.367072 138.628587 
L 114.530629 139.695561 
L 114.694185 125.793891 
L 114.857742 139.205891 
L 115.021298 129.101124 
L 115.184854 149.748633 
L 115.348411 122.880547 
L 115.511967 141.625407 
L 115.675524 138.226732 
L 115.83908 139.627468 
L 116.002636 123.715417 
L 116.166193 123.980986 
L 116.493306 137.270329 
L 116.656862 124.023668 
L 116.820419 134.582328 
L 116.983975 119.129307 
L 117.147531 129.88894 
L 117.311088 131.664466 
L 117.474644 142.038671 
L 117.638201 124.495033 
L 117.965314 150.498926 
L 118.12887 150.134556 
L 118.292426 146.865868 
L 118.619539 159.09426 
L 118.783096 157.156382 
L 118.946652 137.638647 
L 119.110209 153.576504 
L 119.273765 145.128578 
L 119.437321 151.09658 
L 119.600878 128.376272 
L 119.764434 127.763272 
L 119.927991 139.608901 
L 120.091547 134.334832 
L 120.255104 153.163003 
L 120.582216 147.289523 
L 121.072886 191.513806 
L 121.166433 215.875469 
M 121.319518 215.875469 
L 121.727111 148.107896 
L 122.054224 135.031482 
L 122.217781 127.094597 
L 122.381337 134.402843 
L 122.872006 112.573052 
L 123.035563 125.826408 
L 123.199119 120.637243 
L 123.362676 110.722951 
L 123.526232 128.635747 
L 123.689788 126.46778 
L 123.853345 126.628279 
L 124.016901 134.765201 
L 124.180458 134.887392 
L 124.507571 143.061789 
L 124.834683 172.079857 
L 124.99824 178.247928 
L 125.161796 167.20158 
L 125.325353 180.34175 
L 125.488909 177.452869 
L 125.652465 167.081634 
L 125.816022 171.120568 
L 125.979578 164.346607 
L 126.143135 162.898869 
L 126.306691 171.030998 
L 126.470248 169.365785 
L 126.633804 191.076617 
L 126.79736 188.482395 
L 126.946561 215.875469 
M 126.981003 215.875469 
L 127.28803 180.829811 
L 127.451586 173.743757 
L 127.615143 154.632965 
L 127.778699 153.218414 
L 128.105812 144.700845 
L 128.269368 121.917153 
L 128.432925 142.669474 
L 128.596481 129.191682 
L 128.760038 145.927961 
L 128.923594 142.442997 
L 129.08715 132.347195 
L 129.414263 141.974341 
L 129.57782 138.329419 
L 129.741376 139.661688 
L 129.904933 138.238746 
L 130.068489 161.403839 
L 130.395602 156.135079 
L 130.559158 159.354484 
L 130.886271 184.862445 
L 131.049827 184.325785 
L 131.213384 181.95286 
L 131.540497 153.806747 
L 131.704053 165.202149 
L 131.86761 151.550122 
L 132.031166 158.719639 
L 132.194722 148.62006 
L 132.358279 168.012958 
L 132.521835 138.243625 
L 132.685392 147.482267 
L 132.848948 133.357971 
L 133.012505 133.667422 
L 133.176061 151.472028 
L 133.339617 129.478138 
L 133.503174 140.730802 
L 133.66673 124.998416 
L 133.830287 141.587815 
L 133.993843 140.965086 
L 134.1574 157.119385 
L 134.320956 145.293444 
L 134.648069 185.182283 
L 134.811625 172.322969 
L 135.138738 202.570741 
L 135.302295 198.93656 
L 135.465851 182.475121 
L 135.629407 180.212633 
L 135.792964 169.990013 
L 135.95652 148.922434 
L 136.120077 156.586491 
L 136.283633 182.114722 
L 136.447189 154.792002 
L 136.610746 159.073374 
L 136.937859 148.63458 
L 137.264972 163.335714 
L 137.428528 143.602946 
L 137.592084 162.392325 
L 137.755641 165.734193 
L 137.919197 174.029439 
L 138.082754 172.23112 
L 138.24631 178.559964 
L 138.409867 165.201071 
L 138.573423 194.53981 
L 138.736979 183.538386 
L 138.900536 184.293546 
L 139.064092 181.173857 
L 139.223622 215.875469 
M 139.441404 215.875469 
L 139.718318 193.301568 
L 139.881874 194.577748 
L 140.208987 152.252195 
L 140.372544 158.444665 
L 140.5361 160.311659 
L 140.699657 160.168232 
L 140.863213 149.971195 
L 141.026769 150.086371 
L 141.190326 150.524715 
L 141.353882 164.465055 
L 141.517439 160.992438 
L 142.171664 200.187466 
L 142.498777 192.084962 
L 142.82589 159.496841 
L 142.989446 160.48326 
L 143.153003 167.135556 
L 143.316559 150.33146 
L 143.480116 171.718725 
L 143.643672 167.655625 
L 143.807229 177.368596 
L 143.970785 199.322752 
L 144.134341 203.121167 
L 144.297898 210.674378 
L 144.625011 157.263646 
L 144.788567 152.852062 
L 144.952124 133.437399 
L 145.11568 140.458758 
L 145.442793 112.242171 
L 145.606349 123.433847 
L 145.769906 108.136511 
L 145.933462 106.31372 
L 146.097019 112.33973 
L 146.260575 94.83624 
L 146.424131 97.973093 
L 146.751244 115.039168 
L 146.914801 112.257256 
L 147.241913 117.779055 
L 147.40547 120.853799 
L 147.732583 150.525339 
L 147.896139 150.308902 
L 148.059696 146.25394 
L 148.223252 158.570571 
L 148.386808 158.960713 
L 148.550365 159.917967 
L 149.041034 127.41926 
L 149.204591 155.51901 
L 149.368147 151.774782 
L 149.69526 138.004566 
L 149.858816 144.564271 
L 150.022373 142.618308 
L 150.185929 138.790851 
L 150.349486 140.27241 
L 150.513042 124.032079 
L 150.676598 120.108486 
L 150.840155 109.655741 
L 151.003711 124.870428 
L 151.330824 119.124818 
L 151.49438 127.66601 
L 151.657937 95.733906 
L 151.821493 110.949752 
L 151.98505 115.100318 
L 152.148606 127.283047 
L 152.312163 125.783665 
L 152.639275 146.530455 
L 152.802832 133.566114 
L 152.966388 147.075847 
L 153.129945 109.539688 
L 153.293501 108.372177 
L 153.457058 104.906229 
L 153.620614 120.784003 
L 153.947727 100.570161 
L 154.111283 111.215991 
L 154.27484 92.099591 
L 154.438396 120.455843 
L 154.601953 103.012853 
L 154.929065 126.356358 
L 155.256178 179.660473 
L 155.583291 123.081683 
L 155.746848 110.443714 
L 155.910404 79.418445 
L 156.07396 81.999768 
L 156.401073 60.824715 
L 156.56463 58.757342 
L 156.728186 60.167843 
L 156.891742 60.2148 
L 157.055299 45.866646 
L 157.218855 52.443659 
L 157.382412 41.635789 
L 157.545968 49.648799 
L 157.709525 32.227902 
L 158.036637 52.29024 
L 158.200194 33.156309 
L 158.36375 46.276959 
L 158.527307 43.047517 
L 158.690863 60.257917 
L 158.85442 55.493436 
L 159.181532 63.081462 
L 159.345089 61.128944 
L 159.508645 76.055056 
L 159.672202 78.498583 
L 159.835758 86.259959 
L 159.999315 76.303487 
L 160.162871 122.394109 
L 160.326427 119.552408 
L 160.489984 124.63643 
L 160.65354 108.253809 
L 160.817097 121.305583 
L 161.14421 104.774272 
L 161.307766 104.613033 
L 161.471322 94.432827 
L 161.634879 105.312201 
L 161.798435 92.401023 
L 162.125548 102.289989 
L 162.289104 118.005312 
L 162.452661 121.831887 
L 162.616217 133.895932 
L 162.779774 133.197146 
L 163.106887 177.60012 
L 163.270443 168.663704 
L 163.597556 131.189611 
L 163.761112 132.308035 
L 163.924669 121.140415 
L 164.088225 131.07853 
L 164.251782 102.02326 
L 164.415338 139.344321 
L 164.578894 101.285435 
L 164.906007 126.9351 
L 165.396677 168.875107 
L 165.560233 158.684422 
L 165.723789 182.07707 
L 165.887346 181.571557 
L 166.050902 163.313876 
L 166.214459 163.364878 
L 166.378015 163.607379 
L 166.541572 146.03521 
L 166.705128 148.21286 
L 166.868684 161.82618 
L 167.032241 165.495271 
L 167.195797 144.046623 
L 167.52291 177.309961 
L 167.686466 194.253933 
L 167.850023 168.704263 
L 168.013579 167.098735 
L 168.504249 109.777162 
L 168.667805 125.266707 
L 168.831361 121.39637 
L 168.994918 114.385406 
L 169.158474 113.307148 
L 169.322031 117.141763 
L 169.485587 112.262414 
L 169.649144 129.849589 
L 169.976256 117.526569 
L 170.466926 143.399108 
L 170.630482 144.303011 
L 171.121151 186.141596 
L 171.284708 182.261557 
L 171.448264 172.394299 
L 171.611821 174.869024 
L 171.775377 150.032138 
L 171.938934 154.942488 
L 172.266046 153.74951 
L 172.429603 140.875145 
L 172.593159 146.753207 
L 172.756716 147.796323 
L 172.920272 150.692383 
L 173.083828 156.369553 
L 173.247385 149.184912 
L 173.410941 149.613094 
L 173.574498 165.216016 
L 173.738054 161.162868 
L 173.901611 165.049568 
L 174.065167 164.273882 
L 174.228723 170.649321 
L 174.39228 162.02071 
L 174.555836 142.138333 
L 174.719393 146.079613 
L 175.046506 104.912044 
L 175.210062 108.809472 
L 175.537175 130.926524 
L 175.700731 115.284314 
L 175.864288 131.764116 
L 176.027844 121.641722 
L 176.191401 136.952885 
L 176.354957 114.92235 
L 176.518513 122.877862 
L 176.68207 122.009841 
L 176.845626 124.482151 
L 177.336295 138.675749 
L 177.499852 140.363911 
L 177.990521 160.351262 
L 178.154078 153.219719 
L 178.317634 151.805399 
L 178.644747 131.190289 
L 178.808303 136.017399 
L 178.97186 114.40683 
L 179.135416 123.377964 
L 179.462529 117.375454 
L 179.626085 134.633434 
L 179.789642 114.746658 
L 179.953198 120.593544 
L 180.116755 111.774058 
L 180.280311 125.228296 
L 180.443868 125.213018 
L 180.934537 138.473196 
L 181.098093 131.6811 
L 181.425206 143.570935 
L 181.588763 131.098256 
L 181.752319 136.495033 
L 181.915875 133.28153 
L 182.079432 142.656572 
L 182.242988 117.509379 
L 182.406545 141.720473 
L 182.570101 128.516122 
L 182.897214 163.612027 
L 183.06077 163.769051 
L 183.224327 198.218988 
L 183.387883 192.339555 
L 183.55144 163.916139 
L 184.042109 146.663683 
L 184.205665 135.210315 
L 184.369222 137.384098 
L 184.532778 117.086952 
L 184.696335 112.945539 
L 184.859891 126.313676 
L 185.023447 125.543921 
L 185.187004 125.599533 
L 185.35056 130.611186 
L 185.677673 205.311362 
L 185.84123 182.231779 
L 186.004786 132.360617 
L 186.168342 137.705935 
L 186.659012 101.120283 
L 186.822568 105.817508 
L 186.986125 106.615193 
L 187.149681 90.042409 
L 187.313237 106.890887 
L 187.476794 83.157865 
L 187.803907 98.553476 
L 187.967463 92.993077 
L 188.294576 112.000663 
L 188.458132 127.186079 
L 188.621689 129.446062 
L 188.785245 142.279938 
L 189.275914 85.040752 
L 189.439471 95.016783 
L 189.766584 71.490929 
L 189.93014 54.832021 
L 190.093697 51.554084 
L 190.420809 58.741522 
L 190.584366 34.813553 
L 190.747922 38.287122 
L 190.911479 35.687131 
L 191.075035 47.491083 
L 191.238592 45.973127 
L 191.402148 34.376023 
L 191.565704 48.570024 
L 191.729261 31.12985 
L 191.892817 37.505432 
L 192.056374 69.956101 
L 192.21993 49.364615 
L 192.547043 72.278904 
L 192.710599 53.440582 
L 192.874156 76.151642 
L 193.037712 74.407356 
L 193.201269 80.162492 
L 193.364825 74.936046 
L 193.691938 95.466546 
L 194.182607 150.338848 
L 194.50972 128.536794 
L 194.673276 132.640347 
L 194.836833 112.392481 
L 195.000389 132.40471 
L 195.163946 111.932021 
L 195.327502 139.965229 
L 195.654615 125.341183 
L 195.818171 151.689222 
L 195.981728 150.116371 
L 196.145284 172.91946 
L 196.231438 215.875469 
M 196.395161 215.875469 
L 196.472397 181.343708 
L 196.79951 132.292239 
L 196.963066 137.738641 
L 197.126623 133.845634 
L 197.453736 112.434124 
L 197.617292 107.766583 
L 197.780848 107.23544 
L 197.944405 96.779442 
L 198.271518 122.103021 
L 198.435074 114.40913 
L 198.598631 140.890591 
L 198.762187 134.129938 
L 198.925743 143.934917 
L 199.0893 167.059194 
L 199.252856 145.686056 
L 199.416413 145.117339 
L 199.579969 148.092096 
L 199.743526 142.79074 
L 199.907082 143.687059 
L 200.070638 139.181423 
L 200.234195 141.73702 
L 200.397751 130.440935 
L 200.888421 141.333888 
L 201.051977 147.630978 
L 201.37909 179.895194 
L 201.706203 153.725505 
L 201.869759 159.821659 
L 202.033316 149.3847 
L 202.196872 149.405612 
L 202.360428 151.272004 
L 202.523985 129.237796 
L 202.851098 166.743836 
L 203.014654 152.347936 
L 203.17821 159.785041 
L 203.341767 158.960452 
L 203.505323 176.364912 
L 203.66888 156.617944 
L 203.832436 175.33853 
L 204.323105 121.835344 
L 204.486662 139.860095 
L 204.650218 118.509731 
L 204.813775 140.139622 
L 204.977331 126.842584 
L 205.140888 135.663528 
L 205.468 107.123467 
L 205.631557 119.970357 
L 205.795113 102.954801 
L 206.285783 134.895834 
L 206.449339 126.145914 
L 206.612895 157.475481 
L 206.940008 173.429306 
L 207.103565 171.074447 
L 207.267121 185.62202 
L 207.430678 174.958995 
L 207.594234 134.961436 
L 207.75779 151.112483 
L 207.921347 143.345449 
L 208.084903 156.528521 
L 208.24846 139.175182 
L 208.575572 145.836823 
L 208.902685 167.658833 
L 209.066242 171.99457 
L 209.229798 194.815755 
L 209.393355 201.199804 
L 209.556911 174.832988 
L 209.720467 168.148527 
L 209.884024 139.573457 
L 210.04758 142.996728 
L 210.211137 126.218526 
L 210.374693 127.367955 
L 210.53825 123.544221 
L 210.701806 122.733105 
L 210.865362 126.242127 
L 211.028919 135.591592 
L 211.356032 113.423422 
L 211.683145 127.20086 
L 211.846701 145.723596 
L 212.010257 142.301715 
L 212.173814 153.541669 
L 212.33737 142.501741 
L 212.500927 156.636345 
L 212.664483 153.052507 
L 212.82804 156.112185 
L 213.155152 174.187753 
L 213.318709 155.035322 
L 213.482265 155.131994 
L 213.645822 155.956088 
L 213.809378 168.850501 
L 213.972934 154.328634 
L 214.300047 162.631386 
L 214.463604 141.779427 
L 214.62716 139.386358 
L 214.790717 152.806649 
L 214.954273 119.824486 
L 215.117829 128.721413 
L 215.281386 118.717391 
L 215.444942 122.589023 
L 215.608499 131.695626 
L 215.772055 121.428186 
L 215.935612 128.596046 
L 216.099168 119.610269 
L 216.262724 127.361097 
L 216.426281 129.308841 
L 216.589837 125.634257 
L 216.753394 155.859587 
L 216.91695 160.049531 
L 217.080507 189.732635 
L 217.244063 178.662545 
L 217.407619 177.695414 
L 217.571176 144.590688 
L 217.898289 123.453869 
L 218.061845 120.251328 
L 218.225402 142.828124 
L 218.388958 110.640675 
L 218.552514 125.109601 
L 218.716071 112.879857 
L 218.879627 127.170787 
L 219.043184 129.232327 
L 219.20674 113.407906 
L 219.370296 128.887981 
L 219.533853 113.904533 
L 219.697409 109.958083 
L 219.860966 119.492999 
L 220.024522 95.17413 
L 220.188079 101.972698 
L 220.351635 85.338919 
L 220.678748 96.119663 
L 221.005861 80.991347 
L 221.169417 81.476749 
L 221.332974 86.600582 
L 221.49653 106.320194 
L 221.660086 106.1842 
L 221.823643 113.729692 
L 222.150756 155.581111 
L 222.314312 201.370846 
L 222.477869 119.23403 
L 222.968538 81.726467 
L 223.132094 65.513713 
L 223.295651 74.652744 
L 223.459207 66.832597 
L 223.622763 51.071401 
L 223.78632 54.898738 
L 223.949876 40.068824 
L 224.113433 52.470018 
L 224.276989 45.541752 
L 224.440546 44.718902 
L 224.604102 35.394181 
L 224.767658 56.259261 
L 224.931215 49.226652 
L 225.094771 60.951801 
L 225.421884 31.49867 
L 225.912553 54.70268 
L 226.239666 62.984305 
L 226.403223 77.400331 
L 226.566779 79.439836 
L 226.730336 76.819873 
L 226.893892 90.7503 
L 227.057448 86.822245 
L 227.221005 112.552101 
L 227.384561 112.9029 
L 227.548118 123.573176 
L 227.875231 85.318016 
L 228.038787 106.670777 
L 228.202343 89.004429 
L 228.3659 87.861198 
L 228.529456 78.383653 
L 228.693013 98.173865 
L 228.856569 81.261986 
L 229.020125 89.591606 
L 229.183682 104.050374 
L 229.347238 95.322322 
L 229.510795 116.218754 
L 229.674351 103.924683 
L 229.837908 124.674212 
L 230.001464 125.78991 
L 230.328577 132.353285 
L 230.492133 109.955585 
L 230.65569 115.831057 
L 230.982803 110.416123 
L 231.309915 125.42918 
L 231.637028 97.400478 
L 232.127698 123.878514 
L 232.45481 142.340798 
L 232.618367 158.264989 
L 232.781923 159.896597 
L 233.109036 129.310505 
L 233.272593 125.885394 
L 233.436149 117.646416 
L 233.599705 101.906866 
L 233.763262 113.278704 
L 234.090375 102.641646 
L 234.417487 113.735995 
L 234.7446 99.295881 
L 234.908157 108.188125 
L 235.071713 110.314388 
L 235.23527 109.35342 
L 235.398826 131.45277 
L 235.562382 133.026516 
L 235.725939 122.864712 
L 236.053052 150.250283 
L 236.216608 139.55453 
L 236.380165 139.131864 
L 236.543721 124.322969 
L 236.707277 137.243919 
L 236.870834 139.223412 
L 237.03439 147.32159 
L 237.197947 133.83967 
L 237.361503 145.470142 
L 237.52506 141.563842 
L 237.688616 143.14497 
L 237.852172 148.190243 
L 238.015729 167.170771 
L 238.179285 149.809636 
L 238.342842 163.303849 
L 238.506398 151.459137 
L 238.669955 161.124664 
L 238.833511 161.569302 
L 238.997067 155.9182 
L 239.160624 132.153147 
L 239.32418 148.049862 
L 239.487737 126.232156 
L 239.814849 160.170006 
L 239.978406 140.959093 
L 240.141962 157.499 
L 240.469075 142.430577 
L 240.632632 143.291253 
L 240.796188 150.255187 
L 240.959744 141.504125 
L 241.123301 148.908156 
L 241.286857 133.607785 
L 241.450414 145.094169 
L 241.61397 132.056293 
L 241.777527 135.047595 
L 242.104639 149.252905 
L 242.268196 142.97229 
L 242.431752 142.511544 
L 242.595309 159.933828 
L 242.758865 145.993853 
L 242.922422 148.255587 
L 243.249534 128.558069 
L 243.413091 159.581896 
L 243.576647 145.039166 
L 243.90376 153.315713 
L 244.067316 148.416597 
L 244.230873 162.379989 
L 244.394429 151.30044 
L 244.885099 184.100051 
L 245.048655 194.419421 
L 245.212211 191.533966 
L 245.539324 166.035025 
L 245.702881 150.532698 
L 245.866437 159.906812 
L 246.19355 143.85884 
L 246.357106 143.522291 
L 246.520663 145.931793 
L 246.684219 133.260342 
L 247.011332 138.945744 
L 247.174889 154.187453 
L 247.338445 150.8174 
L 247.502001 157.459184 
L 247.665558 152.758262 
L 247.829114 144.551525 
L 247.992671 144.404392 
L 248.156227 136.22886 
L 248.319784 142.930927 
L 248.48334 139.257649 
L 248.646896 125.563386 
L 248.810453 125.96905 
L 248.974009 105.833278 
L 249.137566 129.443368 
L 249.301122 116.459061 
L 249.464678 119.375271 
L 249.791791 132.868271 
L 250.118904 110.730689 
L 250.282461 138.94705 
L 250.446017 136.461213 
L 250.609573 144.864847 
L 250.77313 144.140797 
L 250.936686 143.999201 
L 251.263799 131.862852 
L 251.427356 104.010911 
L 251.590912 133.323503 
L 251.754468 116.351111 
L 251.918025 111.638362 
L 252.081581 110.388594 
L 252.245138 110.063509 
L 252.408694 112.917311 
L 252.572251 111.964826 
L 252.899363 119.729663 
L 253.390033 192.993054 
L 254.044258 119.600049 
L 254.207815 134.436026 
L 254.371371 119.937907 
L 254.698484 112.955231 
L 254.86204 99.001152 
L 255.025597 115.679386 
L 255.35271 125.225165 
L 255.516266 149.555754 
L 255.679823 141.779665 
L 255.843379 121.298129 
L 256.006935 116.964341 
L 256.661161 49.688673 
L 256.824718 64.737922 
L 256.988274 69.225677 
L 257.15183 52.185496 
L 257.315387 47.858517 
L 257.478943 57.168654 
L 257.6425 49.085305 
L 257.806056 25.789448 
L 258.133169 50.650958 
L 258.296725 42.028869 
L 258.460282 56.471574 
L 258.623838 55.051383 
L 258.787395 48.802799 
L 258.950951 34.565849 
L 259.114508 48.049022 
L 259.278064 50.193821 
L 259.44162 64.814958 
L 259.605177 67.954836 
L 259.768733 63.681231 
L 259.93229 79.558939 
L 260.095846 76.702019 
L 260.259402 86.511618 
L 260.422959 81.072101 
L 260.586515 88.574712 
L 260.750072 114.17826 
L 260.913628 169.369918 
L 261.077185 173.74519 
L 261.404297 123.057123 
L 261.567854 100.108787 
L 261.894967 109.989897 
L 262.058523 86.093359 
L 262.22208 100.646478 
L 262.385636 86.145062 
L 262.549192 111.751035 
L 262.712749 112.085439 
L 262.876305 100.868484 
L 263.039862 108.299181 
L 263.203418 129.978896 
L 263.366975 134.389055 
L 263.530531 155.74723 
L 263.694087 206.585874 
L 263.857644 172.032809 
L 264.0212 161.556727 
L 264.184757 131.964304 
L 264.51187 116.684808 
L 264.675426 123.436197 
L 264.838982 122.837284 
L 265.002539 113.05912 
L 265.329652 130.455227 
L 265.493208 100.157617 
L 265.656764 137.748993 
L 265.820321 123.933166 
L 265.983877 140.732668 
L 266.147434 124.80243 
L 266.31099 152.514861 
L 266.474547 155.268403 
L 266.638103 180.867979 
L 266.965216 154.657988 
L 267.128772 152.78042 
L 267.292329 157.686082 
L 267.455885 131.000344 
L 267.782998 132.797196 
L 267.946554 145.057191 
L 268.110111 126.904651 
L 268.273667 126.732588 
L 268.437224 127.739093 
L 268.60078 143.043847 
L 268.764337 122.522022 
L 268.927893 120.600078 
L 269.091449 126.292479 
L 269.255006 124.215916 
L 269.418562 148.096039 
L 269.582119 121.188624 
L 269.909231 141.140239 
L 270.072788 142.853492 
L 270.236344 140.394526 
L 270.399901 151.495391 
L 270.563457 143.56787 
L 270.727014 153.375947 
L 270.89057 134.385856 
L 271.217683 128.965723 
L 271.381239 112.426324 
L 271.544796 118.072089 
L 271.708352 96.408986 
L 272.035465 114.33753 
L 272.199021 102.210898 
L 272.526134 97.770835 
L 272.689691 98.659139 
L 272.853247 122.785451 
L 273.016804 116.304555 
L 273.18036 128.5673 
L 273.343916 128.140928 
L 273.507473 124.020731 
L 273.671029 108.765287 
L 273.834586 139.836396 
L 273.998142 146.352851 
L 274.325255 175.439672 
L 274.652368 133.289447 
L 274.815924 140.190056 
L 274.979481 157.990683 
L 275.143037 152.157826 
L 275.47015 125.868039 
L 275.633706 142.456206 
L 275.797263 147.035063 
L 275.960819 132.96667 
L 276.124376 174.849003 
L 276.451488 157.322562 
L 276.615045 162.245211 
L 276.778601 157.37362 
L 276.942158 160.343999 
L 277.105714 142.490024 
L 277.269271 139.215382 
L 277.432827 155.526018 
L 277.596383 144.676115 
L 277.75994 143.371725 
L 277.923496 143.326766 
L 278.250609 130.634687 
L 278.414166 149.307572 
L 278.577722 138.726364 
L 279.068391 188.45606 
L 279.231948 182.464656 
L 279.395504 202.433493 
L 279.559061 155.486077 
L 279.886173 161.305944 
L 280.04973 152.980347 
L 280.213286 125.508697 
L 280.376843 147.228873 
L 280.540399 135.859174 
L 280.703955 136.900347 
L 280.867512 139.181265 
L 281.031068 129.642174 
L 281.194625 141.054543 
L 281.521738 145.179465 
L 281.685294 129.991128 
L 282.012407 168.864581 
L 282.175963 164.965997 
L 282.33952 167.106453 
L 282.503076 160.212888 
L 282.666633 164.006867 
L 282.830189 142.243499 
L 282.993745 155.297889 
L 283.157302 139.632042 
L 283.320858 155.41997 
L 283.484415 141.615783 
L 283.647971 163.900818 
L 283.975084 145.598613 
L 284.13864 151.902317 
L 284.302197 149.179488 
L 284.465753 150.970939 
L 284.792866 140.250588 
L 284.956423 147.706917 
L 285.119979 144.610705 
L 285.283535 152.799152 
L 285.447092 130.981184 
L 285.774205 164.686416 
L 285.937761 138.249329 
L 286.101317 164.940964 
L 286.264874 142.249713 
L 286.591987 180.836468 
L 286.755543 177.901266 
L 286.9191 209.302087 
L 287.409769 176.789435 
L 287.736882 165.743646 
L 287.900438 153.14023 
L 288.391107 181.647589 
L 288.71822 167.462966 
L 289.045333 186.148515 
L 289.372446 155.174461 
L 289.536002 161.459085 
L 289.699559 133.5693 
L 290.026672 122.782674 
L 290.190228 109.740458 
L 290.353785 105.879482 
L 290.517341 123.141386 
L 290.844454 118.38545 
L 291.00801 109.78178 
L 291.171567 118.742671 
L 291.335123 109.323381 
L 291.498679 111.015401 
L 291.662236 123.068816 
L 291.825792 119.782738 
L 291.989349 142.670843 
L 292.152905 145.706235 
L 292.480018 177.8076 
L 292.643574 210.444504 
L 292.807131 168.375039 
L 292.970687 166.337999 
L 293.2978 134.872453 
L 293.461357 153.019681 
L 293.624913 118.049281 
L 293.788469 118.202145 
L 293.952026 118.861394 
L 294.115582 120.413918 
L 294.279139 120.103482 
L 294.442695 115.458066 
L 294.606252 120.361204 
L 294.933364 137.78294 
L 295.096921 125.788909 
L 295.735087 215.875469 
M 295.816097 215.875469 
L 295.914703 210.919782 
L 296.241816 153.992701 
L 296.405372 154.395208 
L 296.568929 141.965294 
L 296.732485 143.997711 
L 296.896041 143.125483 
L 297.059598 138.84537 
L 297.386711 124.453685 
L 297.550267 124.124411 
L 297.87738 113.795907 
L 298.040936 112.24406 
L 298.204493 124.475259 
L 298.368049 107.866128 
L 298.531606 111.711274 
L 298.858719 138.508977 
L 299.022275 139.385149 
L 299.349388 136.299094 
L 299.512944 139.07019 
L 299.676501 153.652777 
L 300.003614 155.904572 
L 300.16717 155.346182 
L 300.330726 178.256628 
L 300.494283 145.698176 
L 300.657839 162.677916 
L 300.821396 156.288457 
L 301.148508 158.292518 
L 301.475621 144.676949 
L 301.639178 157.144376 
L 301.802734 136.173415 
L 302.129847 155.543387 
L 302.293403 154.595229 
L 302.45696 155.333104 
L 303.117676 215.875469 
M 303.394098 215.875469 
L 303.438298 199.112984 
L 303.928968 154.643111 
L 304.092524 148.568719 
L 304.256081 159.153845 
L 304.419637 144.11157 
L 304.583193 162.892552 
L 304.74675 134.894201 
L 305.073863 156.79386 
L 305.237419 157.664238 
L 305.400976 150.51189 
L 305.564532 168.009987 
L 305.728088 163.116114 
L 305.891645 182.807835 
L 306.055201 181.789254 
L 306.26631 215.875469 
M 306.512365 215.875469 
L 306.709427 209.488306 
L 306.872983 198.497171 
L 307.03654 162.854681 
L 307.200096 158.705879 
L 307.363653 167.608808 
L 307.527209 158.443742 
L 307.690765 164.780065 
L 307.854322 128.790477 
L 308.017878 143.580475 
L 308.181435 146.541043 
L 308.508548 138.671956 
L 308.83566 151.660387 
L 308.999217 140.582799 
L 309.32633 161.024475 
L 309.489886 152.574762 
L 309.653443 170.679235 
L 309.816999 169.800984 
L 309.980555 159.752158 
L 310.254759 215.875469 
M 310.530481 215.875469 
L 310.634781 188.837157 
L 310.798338 179.341022 
L 310.961894 155.12305 
L 311.12545 157.620857 
L 311.452563 136.619085 
L 311.61612 144.548807 
L 311.779676 106.030672 
L 311.943232 129.3596 
L 312.106789 123.565052 
L 312.270345 112.124445 
L 312.433902 136.459136 
L 312.597458 130.371016 
L 312.761015 119.520527 
L 312.924571 135.413851 
L 313.088127 127.408729 
L 313.251684 152.859715 
L 313.41524 133.854023 
L 313.742353 162.420282 
L 313.90591 179.167695 
L 314.081889 215.875469 
M 314.466282 215.875469 
L 314.560135 190.36323 
L 314.723692 183.024034 
L 314.887248 181.244824 
L 315.050805 145.350993 
L 315.214361 174.837925 
L 315.377917 150.627975 
L 315.541474 172.251894 
L 315.70503 167.311076 
L 316.032143 187.210083 
L 316.195699 197.408703 
L 316.29565 215.875469 
M 316.691372 215.875469 
L 316.849925 206.357819 
L 317.177038 164.49433 
L 317.340594 164.796509 
L 317.504151 160.453933 
L 317.667707 161.038951 
L 317.831264 149.297213 
L 317.99482 154.361418 
L 318.158377 141.439632 
L 318.485489 157.393821 
L 318.812602 127.537409 
L 318.976159 148.326143 
L 319.466828 109.006364 
L 319.630384 129.746225 
L 319.793941 114.170395 
L 319.957497 111.359889 
L 320.121054 97.44473 
L 320.28461 118.323601 
L 320.448167 110.632339 
L 320.775279 134.845888 
L 320.938836 124.048719 
L 321.102392 121.491857 
L 321.429505 149.949245 
L 321.593061 144.288231 
L 322.083731 161.105455 
L 322.410844 147.006016 
L 322.5744 151.926962 
L 322.737956 139.201237 
L 322.901513 139.913773 
L 323.228626 134.422895 
L 323.392182 140.980585 
L 323.555739 134.571683 
L 323.719295 138.614873 
L 323.882851 147.441414 
L 324.209964 142.970729 
L 324.537077 164.416819 
L 324.700634 165.76997 
L 324.86419 175.296077 
L 325.027746 171.287005 
L 325.354859 141.850605 
L 325.518416 152.78862 
L 325.681972 131.189969 
L 325.845529 143.676386 
L 326.172641 118.328239 
L 326.336198 124.114022 
L 326.499754 140.226905 
L 326.663311 130.385362 
L 326.826867 144.431535 
L 326.990423 145.333529 
L 327.15398 140.386415 
L 327.317536 146.230295 
L 327.481093 168.017223 
L 327.644649 144.788696 
L 327.971762 148.836629 
L 328.135318 158.159611 
L 328.298875 130.892351 
L 328.462431 149.280268 
L 328.625988 135.296568 
L 328.789544 134.969812 
L 328.953101 123.802155 
L 329.116657 129.370221 
L 329.280213 118.626717 
L 329.607326 140.237524 
L 330.097996 110.957427 
L 330.261552 135.104259 
L 330.425108 121.524617 
L 330.588665 117.266796 
L 330.752221 127.307556 
L 330.915778 130.342844 
L 331.079334 129.907789 
L 331.570003 153.494852 
L 331.73356 129.826364 
L 331.897116 137.574271 
L 332.060673 153.788182 
L 332.224229 144.687556 
L 332.387785 161.711076 
L 332.551342 147.777205 
L 332.714898 163.037204 
L 332.878455 160.066669 
L 333.042011 154.983098 
L 333.205568 163.584076 
L 333.369124 156.319087 
L 333.53268 143.570552 
L 333.696237 151.415991 
L 333.859793 153.353028 
L 334.02335 132.151349 
L 334.186906 152.53691 
L 334.350463 129.155806 
L 334.514019 131.73753 
L 334.841132 146.005778 
L 335.004688 144.106741 
L 335.168245 138.022925 
L 335.331801 153.076822 
L 335.495358 134.417224 
L 335.82247 155.332608 
L 335.986027 141.322056 
L 336.149583 138.669396 
L 336.476696 168.876523 
L 336.655173 215.875469 
M 336.962068 215.875469 
L 337.130922 169.050209 
L 337.294478 152.752917 
L 337.458035 158.079065 
L 337.621591 138.283631 
L 337.785147 142.028258 
L 338.11226 132.790376 
L 338.275817 133.741072 
L 338.439373 123.762375 
L 338.60293 136.438124 
L 338.766486 134.886657 
L 338.930042 121.83215 
L 339.093599 124.119555 
L 339.257155 128.612757 
L 339.420712 141.198936 
L 339.747825 124.5427 
L 340.074937 132.273557 
L 340.238494 151.683373 
L 340.40205 145.430537 
L 340.565607 168.660758 
L 340.729163 148.601383 
L 340.89272 148.803256 
L 341.056276 174.227029 
L 341.219832 163.173123 
L 341.383389 160.033642 
L 341.546945 141.011484 
L 341.710502 158.781942 
L 341.874058 153.661119 
L 342.364727 209.177653 
L 342.528284 206.517908 
L 342.69184 197.516826 
L 342.855397 179.063768 
L 343.182509 166.97793 
L 343.346066 140.762089 
L 343.509622 144.333977 
L 343.673179 157.752386 
L 343.836735 140.339299 
L 344.000292 142.219637 
L 344.163848 145.809828 
L 344.327404 154.523866 
L 344.490961 149.635049 
L 344.654517 140.651756 
L 344.818074 166.091984 
L 344.98163 154.691604 
L 345.308743 188.521411 
L 345.472299 186.826673 
L 345.635856 197.226826 
L 345.799412 154.848518 
L 346.126525 133.279752 
L 346.290082 133.650208 
L 346.780751 118.781943 
L 346.944307 110.271424 
L 347.107864 108.973754 
L 347.27142 118.008583 
L 347.434976 134.519435 
L 347.598533 113.066866 
L 347.762089 111.843187 
L 347.925646 113.952342 
L 348.089202 128.403437 
L 348.252759 122.18276 
L 348.579871 140.947457 
L 348.743428 142.458039 
L 348.906984 149.322339 
L 349.070541 150.720969 
L 349.234097 158.892953 
L 349.397654 193.56126 
L 349.56121 198.524437 
L 349.724766 199.546401 
L 350.051879 180.39677 
L 350.215436 177.840248 
L 350.378992 183.432496 
L 350.542549 182.302039 
L 350.706105 189.755515 
L 350.869661 211.699289 
L 351.033218 209.705252 
L 351.523887 169.886113 
L 351.687444 161.016767 
L 352.014556 166.068297 
L 352.341669 128.499698 
L 352.505226 143.12846 
L 352.668782 106.100638 
L 352.832338 123.040037 
L 352.995895 125.656522 
L 353.159451 118.922557 
L 353.323008 141.812621 
L 353.486564 142.522311 
L 353.650121 118.737881 
L 353.813677 137.426832 
L 353.977233 132.03641 
L 354.14079 120.52007 
L 354.467903 147.75449 
L 354.631459 143.727663 
L 354.795016 156.110231 
L 354.958572 152.904929 
L 355.122128 153.858116 
L 355.285685 151.672133 
L 355.449241 169.789358 
L 355.612798 156.375037 
L 355.776354 161.023925 
L 356.103467 140.075739 
L 356.267023 147.954254 
L 356.594136 137.961347 
L 356.757693 143.159277 
L 356.921249 120.930561 
L 357.084806 142.145982 
L 357.411918 126.104229 
L 357.575475 123.543249 
L 357.739031 134.560468 
L 357.902588 116.61046 
L 358.393257 141.86655 
L 358.556813 136.843392 
L 358.883926 150.119165 
L 359.047483 132.872862 
L 359.211039 151.411916 
L 359.374595 146.464073 
L 359.538152 149.149345 
L 359.701708 156.26519 
L 359.865265 135.358362 
L 360.192378 149.265463 
L 360.355934 136.392451 
L 360.51949 149.383868 
L 360.683047 122.571594 
L 361.01016 145.795347 
L 361.173716 156.06091 
L 361.337273 134.918975 
L 361.500829 142.369217 
L 361.664385 158.040479 
L 361.827942 144.039429 
L 361.991498 150.090233 
L 362.318611 171.214941 
L 362.482168 172.750268 
L 362.645724 166.27272 
L 362.972837 185.2918 
L 363.29995 204.49688 
L 363.463506 183.286689 
L 363.627062 190.479981 
L 363.790619 192.249143 
L 363.990794 215.875469 
M 364.69776 215.875469 
L 364.771957 198.336647 
L 364.935514 205.312843 
L 365.262627 190.207738 
L 365.426183 192.221469 
L 365.58974 188.123913 
L 365.753296 194.913452 
L 365.916852 174.532902 
L 366.080409 174.964758 
L 366.407522 178.710142 
L 366.734635 176.58765 
L 366.898191 194.663464 
L 367.061747 175.92927 
L 367.225304 192.198656 
L 367.38886 190.335919 
L 367.552417 185.934512 
L 367.715973 194.770224 
L 367.879529 194.672168 
L 368.043086 190.099138 
L 368.206642 181.076136 
L 368.370199 187.878174 
L 368.533755 175.54396 
L 368.697312 181.640464 
L 369.024424 168.158137 
L 369.187981 170.918069 
L 369.515094 160.576504 
L 369.67865 174.920673 
L 369.842207 161.098065 
L 370.005763 162.269741 
L 370.169319 142.85797 
L 370.332876 166.375522 
L 370.496432 146.700671 
L 370.659989 160.381116 
L 370.823545 156.943104 
L 371.150658 175.931425 
L 371.314214 174.771004 
L 371.477771 181.530531 
L 371.641327 199.124861 
L 371.804884 195.054491 
L 371.96844 183.742623 
L 372.131997 184.517164 
L 372.459109 169.563687 
L 372.622666 154.448341 
L 372.786222 176.402703 
L 372.949779 157.757265 
L 373.113335 159.568903 
L 373.276891 174.458515 
L 373.604004 155.305364 
L 373.931117 167.019339 
L 374.094674 165.493444 
L 374.421786 152.664556 
L 374.585343 154.744454 
L 374.748899 166.894885 
L 374.912456 147.811523 
L 375.076012 156.040083 
L 375.239569 172.872423 
L 375.403125 149.374887 
L 375.403125 149.374887 
" style="fill:none;stroke:#1f77b4;stroke-linecap:square;stroke-width:1.5;"/>
   </g>
   <g id="patch_3">
    <path d="M 40.603125 177.319219 
L 40.603125 10.999219 
" style="fill:none;stroke:#000000;stroke-linecap:square;stroke-linejoin:miter;stroke-width:0.8;"/>
   </g>
   <g id="patch_4">
    <path d="M 375.403125 177.319219 
L 375.403125 10.999219 
" style="fill:none;stroke:#000000;stroke-linecap:square;stroke-linejoin:miter;stroke-width:0.8;"/>
   </g>
   <g id="patch_5">
    <path d="M 40.603125 177.319219 
L 375.403125 177.319219 
" style="fill:none;stroke:#000000;stroke-linecap:square;stroke-linejoin:miter;stroke-width:0.8;"/>
   </g>
   <g id="patch_6">
    <path d="M 40.603125 10.999219 
L 375.403125 10.999219 
" style="fill:none;stroke:#000000;stroke-linecap:square;stroke-linejoin:miter;stroke-width:0.8;"/>
   </g>
  </g>
 </g>
 <defs>
  <clipPath id="pb32a7d965b">
   <rect height="166.32" width="334.8" x="40.603125" y="10.999219"/>
  </clipPath>
 </defs>
</svg>
