<svg width="1008" height="365" xmlns="http://www.w3.org/2000/svg" xmlns:xlink="http://www.w3.org/1999/xlink" overflow="hidden"><defs><clipPath id="clip0"><rect x="0" y="0" width="1008" height="365"/></clipPath><clipPath id="clip1"><rect x="506" y="-61" width="40" height="181"/></clipPath><clipPath id="clip2"><rect x="545" y="-61" width="39" height="181"/></clipPath><clipPath id="clip3"><rect x="583" y="-61" width="40" height="181"/></clipPath><clipPath id="clip4"><rect x="622" y="-61" width="40" height="181"/></clipPath><clipPath id="clip5"><rect x="661" y="-61" width="40" height="181"/></clipPath><clipPath id="clip6"><rect x="700" y="-61" width="40" height="181"/></clipPath><clipPath id="clip7"><rect x="739" y="-61" width="39" height="181"/></clipPath><clipPath id="clip8"><rect x="777" y="-61" width="40" height="181"/></clipPath><clipPath id="clip9"><rect x="816" y="-61" width="40" height="181"/></clipPath><clipPath id="clip10"><rect x="855" y="-61" width="40" height="181"/></clipPath><clipPath id="clip11"><rect x="894" y="-61" width="39" height="181"/></clipPath><clipPath id="clip12"><rect x="157" y="-22" width="40" height="181"/></clipPath><clipPath id="clip13"><rect x="196" y="-22" width="39" height="181"/></clipPath><clipPath id="clip14"><rect x="234" y="-22" width="40" height="181"/></clipPath><clipPath id="clip15"><rect x="273" y="-22" width="40" height="181"/></clipPath><clipPath id="clip16"><rect x="312" y="-22" width="40" height="181"/></clipPath><clipPath id="clip17"><rect x="351" y="-22" width="39" height="181"/></clipPath><clipPath id="clip18"><rect x="389" y="-22" width="40" height="181"/></clipPath><clipPath id="clip19"><rect x="428" y="-22" width="40" height="181"/></clipPath><clipPath id="clip20"><rect x="467" y="-22" width="40" height="181"/></clipPath><clipPath id="clip21"><rect x="506" y="-22" width="40" height="181"/></clipPath><clipPath id="clip22"><rect x="545" y="-22" width="39" height="181"/></clipPath><clipPath id="clip23"><rect x="583" y="-22" width="40" height="181"/></clipPath><clipPath id="clip24"><rect x="622" y="-22" width="40" height="181"/></clipPath><clipPath id="clip25"><rect x="661" y="-22" width="40" height="181"/></clipPath><clipPath id="clip26"><rect x="700" y="-22" width="40" height="181"/></clipPath><clipPath id="clip27"><rect x="739" y="-22" width="39" height="181"/></clipPath><clipPath id="clip28"><rect x="777" y="-22" width="40" height="181"/></clipPath><clipPath id="clip29"><rect x="816" y="-22" width="40" height="181"/></clipPath><clipPath id="clip30"><rect x="855" y="-22" width="40" height="181"/></clipPath><clipPath id="clip31"><rect x="894" y="-22" width="39" height="181"/></clipPath><clipPath id="clip32"><rect x="118" y="19" width="40" height="181"/></clipPath><clipPath id="clip33"><rect x="157" y="-28" width="40" height="270"/></clipPath><clipPath id="clip34"><rect x="234" y="-28" width="40" height="270"/></clipPath><clipPath id="clip35"><rect x="312" y="-28" width="40" height="270"/></clipPath><clipPath id="clip36"><rect x="389" y="-28" width="40" height="270"/></clipPath><clipPath id="clip37"><rect x="467" y="-28" width="40" height="270"/></clipPath><clipPath id="clip38"><rect x="545" y="-28" width="39" height="270"/></clipPath><clipPath id="clip39"><rect x="622" y="-28" width="40" height="270"/></clipPath><clipPath id="clip40"><rect x="700" y="-28" width="40" height="270"/></clipPath><clipPath id="clip41"><rect x="777" y="-28" width="40" height="270"/></clipPath><clipPath id="clip42"><rect x="855" y="-28" width="40" height="270"/></clipPath><clipPath id="clip43"><rect x="118" y="63" width="40" height="180"/></clipPath><clipPath id="clip44"><rect x="196" y="15" width="39" height="271"/></clipPath><clipPath id="clip45"><rect x="234" y="15" width="40" height="271"/></clipPath><clipPath id="clip46"><rect x="351" y="15" width="39" height="271"/></clipPath><clipPath id="clip47"><rect x="389" y="15" width="40" height="271"/></clipPath><clipPath id="clip48"><rect x="506" y="15" width="40" height="271"/></clipPath><clipPath id="clip49"><rect x="545" y="15" width="39" height="271"/></clipPath><clipPath id="clip50"><rect x="661" y="15" width="40" height="271"/></clipPath><clipPath id="clip51"><rect x="700" y="15" width="40" height="271"/></clipPath><clipPath id="clip52"><rect x="816" y="15" width="40" height="271"/></clipPath><clipPath id="clip53"><rect x="855" y="15" width="40" height="271"/></clipPath><clipPath id="clip54"><rect x="118" y="106" width="40" height="180"/></clipPath><clipPath id="clip55"><rect x="273" y="59" width="40" height="270"/></clipPath><clipPath id="clip56"><rect x="312" y="59" width="40" height="270"/></clipPath><clipPath id="clip57"><rect x="351" y="59" width="39" height="270"/></clipPath><clipPath id="clip58"><rect x="389" y="59" width="40" height="270"/></clipPath><clipPath id="clip59"><rect x="583" y="59" width="40" height="270"/></clipPath><clipPath id="clip60"><rect x="622" y="59" width="40" height="270"/></clipPath><clipPath id="clip61"><rect x="661" y="59" width="40" height="270"/></clipPath><clipPath id="clip62"><rect x="700" y="59" width="40" height="270"/></clipPath><clipPath id="clip63"><rect x="894" y="59" width="39" height="270"/></clipPath><clipPath id="clip64"><rect x="118" y="149" width="40" height="181"/></clipPath><clipPath id="clip65"><rect x="428" y="102" width="40" height="270"/></clipPath><clipPath id="clip66"><rect x="467" y="102" width="40" height="270"/></clipPath><clipPath id="clip67"><rect x="506" y="102" width="40" height="270"/></clipPath><clipPath id="clip68"><rect x="545" y="102" width="39" height="270"/></clipPath><clipPath id="clip69"><rect x="583" y="102" width="40" height="270"/></clipPath><clipPath id="clip70"><rect x="622" y="102" width="40" height="270"/></clipPath><clipPath id="clip71"><rect x="661" y="102" width="40" height="270"/></clipPath><clipPath id="clip72"><rect x="700" y="102" width="40" height="270"/></clipPath><clipPath id="clip73"><rect x="118" y="192" width="40" height="181"/></clipPath><clipPath id="clip74"><rect x="739" y="145" width="39" height="270"/></clipPath><clipPath id="clip75"><rect x="777" y="145" width="40" height="270"/></clipPath><clipPath id="clip76"><rect x="816" y="145" width="40" height="270"/></clipPath><clipPath id="clip77"><rect x="855" y="145" width="40" height="270"/></clipPath><clipPath id="clip78"><rect x="894" y="145" width="39" height="270"/></clipPath></defs><g clip-path="url(#clip0)"><rect x="0" y="0" width="1008" height="365.167" fill="#FFFFFF"/><path d="M157.227 49.0548 196.015 49.0548 196.015 88.006 157.227 88.006Z" fill="#C5E0B4" fill-rule="evenodd"/><path d="M196.015 49.0548 234.803 49.0548 234.803 88.006 196.015 88.006Z" fill="#C5E0B4" fill-rule="evenodd"/><path d="M273.591 49.0548 312.379 49.0548 312.379 88.006 273.591 88.006Z" fill="#C5E0B4" fill-rule="evenodd"/><path d="M428.743 49.0548 467.53 49.0548 467.53 88.006 428.743 88.006Z" fill="#C5E0B4" fill-rule="evenodd"/><path d="M739.046 49.0548 777.834 49.0548 777.834 88.006 739.046 88.006Z" fill="#C5E0B4" fill-rule="evenodd"/><path d="M118.439 88.006 157.227 88.006 157.227 131.226 118.439 131.226Z" fill="#C5E0B4" fill-rule="evenodd"/><path d="M157.227 88.006 196.015 88.006 196.015 131.226 157.227 131.226Z" fill="#FF8F8F" fill-rule="evenodd"/><path d="M234.803 88.006 273.591 88.006 273.591 131.226 234.803 131.226Z" fill="#FF8F8F" fill-rule="evenodd"/><path d="M312.379 88.006 351.167 88.006 351.167 131.226 312.379 131.226Z" fill="#FF8F8F" fill-rule="evenodd"/><path d="M389.955 88.006 428.743 88.006 428.743 131.226 389.955 131.226Z" fill="#FF8F8F" fill-rule="evenodd"/><path d="M467.53 88.006 506.318 88.006 506.318 131.226 467.53 131.226Z" fill="#FF8F8F" fill-rule="evenodd"/><path d="M545.106 88.006 583.894 88.006 583.894 131.226 545.106 131.226Z" fill="#FF8F8F" fill-rule="evenodd"/><path d="M622.682 88.006 661.47 88.006 661.47 131.226 622.682 131.226Z" fill="#FF8F8F" fill-rule="evenodd"/><path d="M700.258 88.006 739.046 88.006 739.046 131.226 700.258 131.226Z" fill="#FF8F8F" fill-rule="evenodd"/><path d="M777.834 88.006 816.622 88.006 816.622 131.226 777.834 131.226Z" fill="#FF8F8F" fill-rule="evenodd"/><path d="M855.41 88.006 894.198 88.006 894.198 131.226 855.41 131.226Z" fill="#FF8F8F" fill-rule="evenodd"/><path d="M118.439 131.226 157.227 131.226 157.227 174.445 118.439 174.445Z" fill="#C5E0B4" fill-rule="evenodd"/><path d="M196.015 131.226 234.803 131.226 234.803 174.445 196.015 174.445Z" fill="#FF8F8F" fill-rule="evenodd"/><path d="M234.803 131.226 273.591 131.226 273.591 174.445 234.803 174.445Z" fill="#FF8F8F" fill-rule="evenodd"/><path d="M351.167 131.226 389.955 131.226 389.955 174.445 351.167 174.445Z" fill="#FF8F8F" fill-rule="evenodd"/><path d="M389.955 131.226 428.743 131.226 428.743 174.445 389.955 174.445Z" fill="#FF8F8F" fill-rule="evenodd"/><path d="M506.318 131.226 545.106 131.226 545.106 174.445 506.318 174.445Z" fill="#FF8F8F" fill-rule="evenodd"/><path d="M545.106 131.226 583.894 131.226 583.894 174.445 545.106 174.445Z" fill="#FF8F8F" fill-rule="evenodd"/><path d="M661.47 131.226 700.258 131.226 700.258 174.445 661.47 174.445Z" fill="#FF8F8F" fill-rule="evenodd"/><path d="M700.258 131.226 739.046 131.226 739.046 174.445 700.258 174.445Z" fill="#FF8F8F" fill-rule="evenodd"/><path d="M816.622 131.226 855.41 131.226 855.41 174.445 816.622 174.445Z" fill="#FF8F8F" fill-rule="evenodd"/><path d="M855.41 131.226 894.198 131.226 894.198 174.445 855.41 174.445Z" fill="#FF8F8F" fill-rule="evenodd"/><path d="M118.439 174.445 157.227 174.445 157.227 217.665 118.439 217.665Z" fill="#C5E0B4" fill-rule="evenodd"/><path d="M273.591 174.445 312.379 174.445 312.379 217.665 273.591 217.665Z" fill="#FF8F8F" fill-rule="evenodd"/><path d="M312.379 174.445 351.167 174.445 351.167 217.665 312.379 217.665Z" fill="#FF8F8F" fill-rule="evenodd"/><path d="M351.167 174.445 389.955 174.445 389.955 217.665 351.167 217.665Z" fill="#FF8F8F" fill-rule="evenodd"/><path d="M389.955 174.445 428.743 174.445 428.743 217.665 389.955 217.665Z" fill="#FF8F8F" fill-rule="evenodd"/><path d="M583.894 174.445 622.682 174.445 622.682 217.665 583.894 217.665Z" fill="#FF8F8F" fill-rule="evenodd"/><path d="M622.682 174.445 661.47 174.445 661.47 217.665 622.682 217.665Z" fill="#FF8F8F" fill-rule="evenodd"/><path d="M661.47 174.445 700.258 174.445 700.258 217.665 661.47 217.665Z" fill="#FF8F8F" fill-rule="evenodd"/><path d="M700.258 174.445 739.046 174.445 739.046 217.665 700.258 217.665Z" fill="#FF8F8F" fill-rule="evenodd"/><path d="M894.198 174.445 932.986 174.445 932.986 217.665 894.198 217.665Z" fill="#FF8F8F" fill-rule="evenodd"/><path d="M118.439 217.665 157.227 217.665 157.227 260.885 118.439 260.885Z" fill="#C5E0B4" fill-rule="evenodd"/><path d="M428.743 217.665 467.53 217.665 467.53 260.885 428.743 260.885Z" fill="#FF8F8F" fill-rule="evenodd"/><path d="M467.53 217.665 506.318 217.665 506.318 260.885 467.53 260.885Z" fill="#FF8F8F" fill-rule="evenodd"/><path d="M506.318 217.665 545.106 217.665 545.106 260.885 506.318 260.885Z" fill="#FF8F8F" fill-rule="evenodd"/><path d="M545.106 217.665 583.894 217.665 583.894 260.885 545.106 260.885Z" fill="#FF8F8F" fill-rule="evenodd"/><path d="M583.894 217.665 622.682 217.665 622.682 260.885 583.894 260.885Z" fill="#FF8F8F" fill-rule="evenodd"/><path d="M622.682 217.665 661.47 217.665 661.47 260.885 622.682 260.885Z" fill="#FF8F8F" fill-rule="evenodd"/><path d="M661.47 217.665 700.258 217.665 700.258 260.885 661.47 260.885Z" fill="#FF8F8F" fill-rule="evenodd"/><path d="M700.258 217.665 739.046 217.665 739.046 260.885 700.258 260.885Z" fill="#FF8F8F" fill-rule="evenodd"/><path d="M118.439 260.885 157.227 260.885 157.227 304.105 118.439 304.105Z" fill="#C5E0B4" fill-rule="evenodd"/><path d="M739.046 260.885 777.834 260.885 777.834 304.105 739.046 304.105Z" fill="#FF8F8F" fill-rule="evenodd"/><path d="M777.834 260.885 816.622 260.885 816.622 304.105 777.834 304.105Z" fill="#FF8F8F" fill-rule="evenodd"/><path d="M816.622 260.885 855.41 260.885 855.41 304.105 816.622 304.105Z" fill="#FF8F8F" fill-rule="evenodd"/><path d="M855.41 260.885 894.198 260.885 894.198 304.105 855.41 304.105Z" fill="#FF8F8F" fill-rule="evenodd"/><path d="M894.198 260.885 932.986 260.885 932.986 304.105 894.198 304.105Z" fill="#FF8F8F" fill-rule="evenodd"/><path d="M118.439 87.339 118.439 304.772" stroke="#000000" stroke-width="1.33333" stroke-linejoin="round" stroke-miterlimit="10" fill="none" fill-rule="evenodd"/><path d="M157.227 9.43675 157.227 304.772" stroke="#000000" stroke-width="1.33333" stroke-linejoin="round" stroke-miterlimit="10" fill="none" fill-rule="evenodd"/><path d="M196.015 9.43675 196.015 304.772" stroke="#000000" stroke-width="1.33333" stroke-linejoin="round" stroke-miterlimit="10" fill="none" fill-rule="evenodd"/><path d="M234.803 9.43675 234.803 304.772" stroke="#000000" stroke-width="1.33333" stroke-linejoin="round" stroke-miterlimit="10" fill="none" fill-rule="evenodd"/><path d="M273.591 9.43675 273.591 304.772" stroke="#000000" stroke-width="1.33333" stroke-linejoin="round" stroke-miterlimit="10" fill="none" fill-rule="evenodd"/><path d="M312.379 9.43675 312.379 304.772" stroke="#000000" stroke-width="1.33333" stroke-linejoin="round" stroke-miterlimit="10" fill="none" fill-rule="evenodd"/><path d="M351.167 9.43675 351.167 304.772" stroke="#000000" stroke-width="1.33333" stroke-linejoin="round" stroke-miterlimit="10" fill="none" fill-rule="evenodd"/><path d="M389.955 9.43675 389.955 304.772" stroke="#000000" stroke-width="1.33333" stroke-linejoin="round" stroke-miterlimit="10" fill="none" fill-rule="evenodd"/><path d="M428.743 9.43675 428.743 304.772" stroke="#000000" stroke-width="1.33333" stroke-linejoin="round" stroke-miterlimit="10" fill="none" fill-rule="evenodd"/><path d="M467.53 9.43675 467.53 304.772" stroke="#000000" stroke-width="1.33333" stroke-linejoin="round" stroke-miterlimit="10" fill="none" fill-rule="evenodd"/><path d="M506.318 9.43675 506.318 304.772" stroke="#000000" stroke-width="1.33333" stroke-linejoin="round" stroke-miterlimit="10" fill="none" fill-rule="evenodd"/><path d="M545.106 9.43675 545.106 304.772" stroke="#000000" stroke-width="1.33333" stroke-linejoin="round" stroke-miterlimit="10" fill="none" fill-rule="evenodd"/><path d="M583.894 9.43675 583.894 304.772" stroke="#000000" stroke-width="1.33333" stroke-linejoin="round" stroke-miterlimit="10" fill="none" fill-rule="evenodd"/><path d="M622.682 9.43675 622.682 304.772" stroke="#000000" stroke-width="1.33333" stroke-linejoin="round" stroke-miterlimit="10" fill="none" fill-rule="evenodd"/><path d="M661.47 9.43675 661.47 304.772" stroke="#000000" stroke-width="1.33333" stroke-linejoin="round" stroke-miterlimit="10" fill="none" fill-rule="evenodd"/><path d="M700.258 9.43675 700.258 304.772" stroke="#000000" stroke-width="1.33333" stroke-linejoin="round" stroke-miterlimit="10" fill="none" fill-rule="evenodd"/><path d="M739.046 9.43675 739.046 304.772" stroke="#000000" stroke-width="1.33333" stroke-linejoin="round" stroke-miterlimit="10" fill="none" fill-rule="evenodd"/><path d="M777.834 9.43675 777.834 304.772" stroke="#000000" stroke-width="1.33333" stroke-linejoin="round" stroke-miterlimit="10" fill="none" fill-rule="evenodd"/><path d="M816.622 9.43675 816.622 304.772" stroke="#000000" stroke-width="1.33333" stroke-linejoin="round" stroke-miterlimit="10" fill="none" fill-rule="evenodd"/><path d="M855.41 9.43675 855.41 304.772" stroke="#000000" stroke-width="1.33333" stroke-linejoin="round" stroke-miterlimit="10" fill="none" fill-rule="evenodd"/><path d="M894.198 9.43675 894.198 304.772" stroke="#000000" stroke-width="1.33333" stroke-linejoin="round" stroke-miterlimit="10" fill="none" fill-rule="evenodd"/><path d="M9.24105 49.0548 933.652 49.0548" stroke="#000000" stroke-width="1.33333" stroke-linejoin="round" stroke-miterlimit="10" fill="none" fill-rule="evenodd"/><path d="M9.24105 88.006 933.652 88.006" stroke="#000000" stroke-width="1.33333" stroke-linejoin="round" stroke-miterlimit="10" fill="none" fill-rule="evenodd"/><path d="M117.772 131.226 933.652 131.226" stroke="#000000" stroke-width="1.33333" stroke-linejoin="round" stroke-miterlimit="10" fill="none" fill-rule="evenodd"/><path d="M117.772 174.445 933.652 174.445" stroke="#000000" stroke-width="1.33333" stroke-linejoin="round" stroke-miterlimit="10" fill="none" fill-rule="evenodd"/><path d="M117.772 217.665 933.652 217.665" stroke="#000000" stroke-width="1.33333" stroke-linejoin="round" stroke-miterlimit="10" fill="none" fill-rule="evenodd"/><path d="M117.772 260.885 933.652 260.885" stroke="#000000" stroke-width="1.33333" stroke-linejoin="round" stroke-miterlimit="10" fill="none" fill-rule="evenodd"/><path d="M9.90772 9.43675 9.90772 304.772" stroke="#000000" stroke-width="1.33333" stroke-linejoin="round" stroke-miterlimit="10" fill="none" fill-rule="evenodd"/><path d="M932.986 9.43675 932.986 304.772" stroke="#000000" stroke-width="1.33333" stroke-linejoin="round" stroke-miterlimit="10" fill="none" fill-rule="evenodd"/><path d="M9.24105 10.1037 933.652 10.1037" stroke="#000000" stroke-width="1.33333" stroke-linejoin="round" stroke-miterlimit="10" fill="none" fill-rule="evenodd"/><path d="M9.24105 304.105 933.652 304.105" stroke="#000000" stroke-width="1.33333" stroke-linejoin="round" stroke-miterlimit="10" fill="none" fill-rule="evenodd"/><text font-family="Times New Roman,Times New Roman_MSFontService,sans-serif" font-weight="400" font-size="21" transform="matrix(1 0 0 1.00046 32.7341 38)">Bit Position<tspan x="138.554" y="0">1</tspan><tspan x="177.342" y="0">2</tspan><tspan x="216.13" y="0">3</tspan><tspan x="254.917" y="0">4</tspan><tspan x="293.705" y="0">5</tspan><tspan x="332.493" y="0">6</tspan><tspan x="371.281" y="0">7</tspan><tspan x="410.069" y="0">8</tspan><tspan x="448.857" y="0">9</tspan></text><g clip-path="url(#clip1)"><text font-family="Times New Roman,Times New Roman_MSFontService,sans-serif" font-weight="400" font-size="21" transform="matrix(1 0 0 1.00046 515.046 38)">10</text></g><g clip-path="url(#clip2)"><text font-family="Times New Roman,Times New Roman_MSFontService,sans-serif" font-weight="400" font-size="21" transform="matrix(1 0 0 1.00046 554.23 38)">11</text></g><g clip-path="url(#clip3)"><text font-family="Times New Roman,Times New Roman_MSFontService,sans-serif" font-weight="400" font-size="21" transform="matrix(1 0 0 1.00046 592.622 38)">12</text></g><g clip-path="url(#clip4)"><text font-family="Times New Roman,Times New Roman_MSFontService,sans-serif" font-weight="400" font-size="21" transform="matrix(1 0 0 1.00046 631.409 38)">13</text></g><g clip-path="url(#clip5)"><text font-family="Times New Roman,Times New Roman_MSFontService,sans-serif" font-weight="400" font-size="21" transform="matrix(1 0 0 1.00046 670.197 38)">14</text></g><g clip-path="url(#clip6)"><text font-family="Times New Roman,Times New Roman_MSFontService,sans-serif" font-weight="400" font-size="21" transform="matrix(1 0 0 1.00046 708.985 38)">15</text></g><g clip-path="url(#clip7)"><text font-family="Times New Roman,Times New Roman_MSFontService,sans-serif" font-weight="400" font-size="21" transform="matrix(1 0 0 1.00046 747.773 38)">16</text></g><g clip-path="url(#clip8)"><text font-family="Times New Roman,Times New Roman_MSFontService,sans-serif" font-weight="400" font-size="21" transform="matrix(1 0 0 1.00046 786.561 38)">17</text></g><g clip-path="url(#clip9)"><text font-family="Times New Roman,Times New Roman_MSFontService,sans-serif" font-weight="400" font-size="21" transform="matrix(1 0 0 1.00046 825.349 38)">18</text></g><g clip-path="url(#clip10)"><text font-family="Times New Roman,Times New Roman_MSFontService,sans-serif" font-weight="400" font-size="21" transform="matrix(1 0 0 1.00046 864.137 38)">19</text></g><g clip-path="url(#clip11)"><text font-family="Times New Roman,Times New Roman_MSFontService,sans-serif" font-weight="400" font-size="21" transform="matrix(1 0 0 1.00046 902.925 38)">20</text></g><text font-family="Times New Roman,Times New Roman_MSFontService,sans-serif" font-weight="400" font-size="21" transform="matrix(1 0 0 1.00046 26.3174 77)">Encoded Bits</text><g clip-path="url(#clip12)"><text font-family="Times New Roman,Times New Roman_MSFontService,sans-serif" font-weight="400" font-size="21" transform="matrix(1 0 0 1.00046 165.954 77)">p1</text></g><g clip-path="url(#clip13)"><text font-family="Times New Roman,Times New Roman_MSFontService,sans-serif" font-weight="400" font-size="21" transform="matrix(1 0 0 1.00046 204.742 77)">p2</text></g><g clip-path="url(#clip14)"><text font-family="Times New Roman,Times New Roman_MSFontService,sans-serif" font-weight="400" font-size="21" transform="matrix(1 0 0 1.00046 243.53 77)">d1</text></g><g clip-path="url(#clip15)"><text font-family="Times New Roman,Times New Roman_MSFontService,sans-serif" font-weight="400" font-size="21" transform="matrix(1 0 0 1.00046 282.318 77)">p4</text></g><g clip-path="url(#clip16)"><text font-family="Times New Roman,Times New Roman_MSFontService,sans-serif" font-weight="400" font-size="21" transform="matrix(1 0 0 1.00046 321.106 77)">d2</text></g><g clip-path="url(#clip17)"><text font-family="Times New Roman,Times New Roman_MSFontService,sans-serif" font-weight="400" font-size="21" transform="matrix(1 0 0 1.00046 359.894 77)">d3</text></g><g clip-path="url(#clip18)"><text font-family="Times New Roman,Times New Roman_MSFontService,sans-serif" font-weight="400" font-size="21" transform="matrix(1 0 0 1.00046 398.682 77)">d4</text></g><g clip-path="url(#clip19)"><text font-family="Times New Roman,Times New Roman_MSFontService,sans-serif" font-weight="400" font-size="21" transform="matrix(1 0 0 1.00046 437.47 77)">p8</text></g><g clip-path="url(#clip20)"><text font-family="Times New Roman,Times New Roman_MSFontService,sans-serif" font-weight="400" font-size="21" transform="matrix(1 0 0 1.00046 476.258 77)">d5</text></g><g clip-path="url(#clip21)"><text font-family="Times New Roman,Times New Roman_MSFontService,sans-serif" font-weight="400" font-size="21" transform="matrix(1 0 0 1.00046 515.046 77)">d6</text></g><g clip-path="url(#clip22)"><text font-family="Times New Roman,Times New Roman_MSFontService,sans-serif" font-weight="400" font-size="21" transform="matrix(1 0 0 1.00046 553.834 77)">d7</text></g><g clip-path="url(#clip23)"><text font-family="Times New Roman,Times New Roman_MSFontService,sans-serif" font-weight="400" font-size="21" transform="matrix(1 0 0 1.00046 592.622 77)">d8</text></g><g clip-path="url(#clip24)"><text font-family="Times New Roman,Times New Roman_MSFontService,sans-serif" font-weight="400" font-size="21" transform="matrix(1 0 0 1.00046 631.409 77)">d9</text></g><g clip-path="url(#clip25)"><text font-family="Times New Roman,Times New Roman_MSFontService,sans-serif" font-weight="400" font-size="21" transform="matrix(1 0 0 1.00046 664.864 77)">d10</text></g><g clip-path="url(#clip26)"><text font-family="Times New Roman,Times New Roman_MSFontService,sans-serif" font-weight="400" font-size="21" transform="matrix(1 0 0 1.00046 704.049 77)">d11</text></g><g clip-path="url(#clip27)"><text font-family="Times New Roman,Times New Roman_MSFontService,sans-serif" font-weight="400" font-size="21" transform="matrix(1 0 0 1.00046 742.44 77)">p16</text></g><g clip-path="url(#clip28)"><text font-family="Times New Roman,Times New Roman_MSFontService,sans-serif" font-weight="400" font-size="21" transform="matrix(1 0 0 1.00046 781.228 77)">d12</text></g><g clip-path="url(#clip29)"><text font-family="Times New Roman,Times New Roman_MSFontService,sans-serif" font-weight="400" font-size="21" transform="matrix(1 0 0 1.00046 820.016 77)">d13</text></g><g clip-path="url(#clip30)"><text font-family="Times New Roman,Times New Roman_MSFontService,sans-serif" font-weight="400" font-size="21" transform="matrix(1 0 0 1.00046 858.804 77)">d14</text></g><g clip-path="url(#clip31)"><text font-family="Times New Roman,Times New Roman_MSFontService,sans-serif" font-weight="400" font-size="21" transform="matrix(1 0 0 1.00046 897.592 77)">d15</text></g><text font-family="Times New Roman,Times New Roman_MSFontService,sans-serif" font-weight="400" font-size="21" transform="matrix(1 0 0 1.00046 38.5901 179)">Parity<tspan x="12.5" y="24.9886">Bit </tspan><tspan x="-15.3333" y="50.9767">Coverage</tspan></text><g clip-path="url(#clip32)"><text font-family="Times New Roman,Times New Roman_MSFontService,sans-serif" font-weight="400" font-size="21" transform="matrix(1 0 0 1.00046 127.166 118)">p1</text></g><g clip-path="url(#clip33)"><text fill="#FF0000" font-family="Arial,Arial_MSFontService,sans-serif" font-weight="400" font-size="32" transform="matrix(1 0 0 1.00046 168.621 119)">x</text></g><g clip-path="url(#clip34)"><text fill="#FF0000" font-family="Arial,Arial_MSFontService,sans-serif" font-weight="400" font-size="32" transform="matrix(1 0 0 1.00046 246.197 119)">x</text></g><g clip-path="url(#clip35)"><text fill="#FF0000" font-family="Arial,Arial_MSFontService,sans-serif" font-weight="400" font-size="32" transform="matrix(1 0 0 1.00046 323.773 119)">x</text></g><g clip-path="url(#clip36)"><text fill="#FF0000" font-family="Arial,Arial_MSFontService,sans-serif" font-weight="400" font-size="32" transform="matrix(1 0 0 1.00046 401.349 119)">x</text></g><g clip-path="url(#clip37)"><text fill="#FF0000" font-family="Arial,Arial_MSFontService,sans-serif" font-weight="400" font-size="32" transform="matrix(1 0 0 1.00046 478.924 119)">x</text></g><g clip-path="url(#clip38)"><text fill="#FF0000" font-family="Arial,Arial_MSFontService,sans-serif" font-weight="400" font-size="32" transform="matrix(1 0 0 1.00046 556.5 119)">x</text></g><g clip-path="url(#clip39)"><text fill="#FF0000" font-family="Arial,Arial_MSFontService,sans-serif" font-weight="400" font-size="32" transform="matrix(1 0 0 1.00046 634.076 119)">x</text></g><g clip-path="url(#clip40)"><text fill="#FF0000" font-family="Arial,Arial_MSFontService,sans-serif" font-weight="400" font-size="32" transform="matrix(1 0 0 1.00046 711.652 119)">x</text></g><g clip-path="url(#clip41)"><text fill="#FF0000" font-family="Arial,Arial_MSFontService,sans-serif" font-weight="400" font-size="32" transform="matrix(1 0 0 1.00046 789.228 119)">x</text></g><g clip-path="url(#clip42)"><text fill="#FF0000" font-family="Arial,Arial_MSFontService,sans-serif" font-weight="400" font-size="32" transform="matrix(1 0 0 1.00046 866.804 119)">x</text></g><g clip-path="url(#clip43)"><text font-family="Times New Roman,Times New Roman_MSFontService,sans-serif" font-weight="400" font-size="21" transform="matrix(1 0 0 1.00046 127.166 161)">p2</text></g><g clip-path="url(#clip44)"><text fill="#FF0000" font-family="Arial,Arial_MSFontService,sans-serif" font-weight="400" font-size="32" transform="matrix(1 0 0 1.00046 207.409 162)">x</text></g><g clip-path="url(#clip45)"><text fill="#FF0000" font-family="Arial,Arial_MSFontService,sans-serif" font-weight="400" font-size="32" transform="matrix(1 0 0 1.00046 246.197 162)">x</text></g><g clip-path="url(#clip46)"><text fill="#FF0000" font-family="Arial,Arial_MSFontService,sans-serif" font-weight="400" font-size="32" transform="matrix(1 0 0 1.00046 362.561 162)">x</text></g><g clip-path="url(#clip47)"><text fill="#FF0000" font-family="Arial,Arial_MSFontService,sans-serif" font-weight="400" font-size="32" transform="matrix(1 0 0 1.00046 401.349 162)">x</text></g><g clip-path="url(#clip48)"><text fill="#FF0000" font-family="Arial,Arial_MSFontService,sans-serif" font-weight="400" font-size="32" transform="matrix(1 0 0 1.00046 517.712 162)">x</text></g><g clip-path="url(#clip49)"><text fill="#FF0000" font-family="Arial,Arial_MSFontService,sans-serif" font-weight="400" font-size="32" transform="matrix(1 0 0 1.00046 556.5 162)">x</text></g><g clip-path="url(#clip50)"><text fill="#FF0000" font-family="Arial,Arial_MSFontService,sans-serif" font-weight="400" font-size="32" transform="matrix(1 0 0 1.00046 672.864 162)">x</text></g><g clip-path="url(#clip51)"><text fill="#FF0000" font-family="Arial,Arial_MSFontService,sans-serif" font-weight="400" font-size="32" transform="matrix(1 0 0 1.00046 711.652 162)">x</text></g><g clip-path="url(#clip52)"><text fill="#FF0000" font-family="Arial,Arial_MSFontService,sans-serif" font-weight="400" font-size="32" transform="matrix(1 0 0 1.00046 828.016 162)">x</text></g><g clip-path="url(#clip53)"><text fill="#FF0000" font-family="Arial,Arial_MSFontService,sans-serif" font-weight="400" font-size="32" transform="matrix(1 0 0 1.00046 866.804 162)">x</text></g><g clip-path="url(#clip54)"><text font-family="Times New Roman,Times New Roman_MSFontService,sans-serif" font-weight="400" font-size="21" transform="matrix(1 0 0 1.00046 127.166 204)">p4</text></g><g clip-path="url(#clip55)"><text fill="#FF0000" font-family="Arial,Arial_MSFontService,sans-serif" font-weight="400" font-size="32" transform="matrix(1 0 0 1.00046 284.985 206)">x</text></g><g clip-path="url(#clip56)"><text fill="#FF0000" font-family="Arial,Arial_MSFontService,sans-serif" font-weight="400" font-size="32" transform="matrix(1 0 0 1.00046 323.773 206)">x</text></g><g clip-path="url(#clip57)"><text fill="#FF0000" font-family="Arial,Arial_MSFontService,sans-serif" font-weight="400" font-size="32" transform="matrix(1 0 0 1.00046 362.561 206)">x</text></g><g clip-path="url(#clip58)"><text fill="#FF0000" font-family="Arial,Arial_MSFontService,sans-serif" font-weight="400" font-size="32" transform="matrix(1 0 0 1.00046 401.349 206)">x</text></g><g clip-path="url(#clip59)"><text fill="#FF0000" font-family="Arial,Arial_MSFontService,sans-serif" font-weight="400" font-size="32" transform="matrix(1 0 0 1.00046 595.288 206)">x</text></g><g clip-path="url(#clip60)"><text fill="#FF0000" font-family="Arial,Arial_MSFontService,sans-serif" font-weight="400" font-size="32" transform="matrix(1 0 0 1.00046 634.076 206)">x</text></g><g clip-path="url(#clip61)"><text fill="#FF0000" font-family="Arial,Arial_MSFontService,sans-serif" font-weight="400" font-size="32" transform="matrix(1 0 0 1.00046 672.864 206)">x</text></g><g clip-path="url(#clip62)"><text fill="#FF0000" font-family="Arial,Arial_MSFontService,sans-serif" font-weight="400" font-size="32" transform="matrix(1 0 0 1.00046 711.652 206)">x</text></g><g clip-path="url(#clip63)"><text fill="#FF0000" font-family="Arial,Arial_MSFontService,sans-serif" font-weight="400" font-size="32" transform="matrix(1 0 0 1.00046 905.592 206)">x</text></g><g clip-path="url(#clip64)"><text font-family="Times New Roman,Times New Roman_MSFontService,sans-serif" font-weight="400" font-size="21" transform="matrix(1 0 0 1.00046 127.166 248)">p8</text></g><g clip-path="url(#clip65)"><text fill="#FF0000" font-family="Arial,Arial_MSFontService,sans-serif" font-weight="400" font-size="32" transform="matrix(1 0 0 1.00046 440.137 249)">x</text></g><g clip-path="url(#clip66)"><text fill="#FF0000" font-family="Arial,Arial_MSFontService,sans-serif" font-weight="400" font-size="32" transform="matrix(1 0 0 1.00046 478.924 249)">x</text></g><g clip-path="url(#clip67)"><text fill="#FF0000" font-family="Arial,Arial_MSFontService,sans-serif" font-weight="400" font-size="32" transform="matrix(1 0 0 1.00046 517.712 249)">x</text></g><g clip-path="url(#clip68)"><text fill="#FF0000" font-family="Arial,Arial_MSFontService,sans-serif" font-weight="400" font-size="32" transform="matrix(1 0 0 1.00046 556.5 249)">x</text></g><g clip-path="url(#clip69)"><text fill="#FF0000" font-family="Arial,Arial_MSFontService,sans-serif" font-weight="400" font-size="32" transform="matrix(1 0 0 1.00046 595.288 249)">x</text></g><g clip-path="url(#clip70)"><text fill="#FF0000" font-family="Arial,Arial_MSFontService,sans-serif" font-weight="400" font-size="32" transform="matrix(1 0 0 1.00046 634.076 249)">x</text></g><g clip-path="url(#clip71)"><text fill="#FF0000" font-family="Arial,Arial_MSFontService,sans-serif" font-weight="400" font-size="32" transform="matrix(1 0 0 1.00046 672.864 249)">x</text></g><g clip-path="url(#clip72)"><text fill="#FF0000" font-family="Arial,Arial_MSFontService,sans-serif" font-weight="400" font-size="32" transform="matrix(1 0 0 1.00046 711.652 249)">x</text></g><g clip-path="url(#clip73)"><text font-family="Times New Roman,Times New Roman_MSFontService,sans-serif" font-weight="400" font-size="21" transform="matrix(1 0 0 1.00046 121.833 291)">p16</text></g><g clip-path="url(#clip74)"><text fill="#FF0000" font-family="Arial,Arial_MSFontService,sans-serif" font-weight="400" font-size="32" transform="matrix(1 0 0 1.00046 750.44 292)">x</text></g><g clip-path="url(#clip75)"><text fill="#FF0000" font-family="Arial,Arial_MSFontService,sans-serif" font-weight="400" font-size="32" transform="matrix(1 0 0 1.00046 789.228 292)">x</text></g><g clip-path="url(#clip76)"><text fill="#FF0000" font-family="Arial,Arial_MSFontService,sans-serif" font-weight="400" font-size="32" transform="matrix(1 0 0 1.00046 828.016 292)">x</text></g><g clip-path="url(#clip77)"><text fill="#FF0000" font-family="Arial,Arial_MSFontService,sans-serif" font-weight="400" font-size="32" transform="matrix(1 0 0 1.00046 866.804 292)">x</text></g><g clip-path="url(#clip78)"><text fill="#FF0000" font-family="Arial,Arial_MSFontService,sans-serif" font-weight="400" font-size="32" transform="matrix(1 0 0 1.00046 905.592 292)">x</text></g><text font-family="Times New Roman,Times New Roman_MSFontService,sans-serif" font-weight="400" font-size="43" transform="matrix(1 0 0 1.00046 942.586 152)">…</text><text font-family="Times New Roman,Times New Roman_MSFontService,sans-serif" font-weight="400" font-size="43" transform="matrix(6.12323e-17 1.00091 -0.999543 6.12603e-17 514.287 314)">…</text><text font-family="Times New Roman,Times New Roman_MSFontService,sans-serif" font-weight="400" font-size="43" transform="matrix(0.69784 0.716908 -0.715926 0.698159 938.305 310)">…</text></g></svg>