<?xml version="1.0" encoding="UTF-8" standalone="no"?>
<!-- Created with Inkscape (http://www.inkscape.org/) -->

<svg
   xmlns:dc="http://purl.org/dc/elements/1.1/"
   xmlns:cc="http://creativecommons.org/ns#"
   xmlns:rdf="http://www.w3.org/1999/02/22-rdf-syntax-ns#"
   xmlns:svg="http://www.w3.org/2000/svg"
   xmlns="http://www.w3.org/2000/svg"
   xmlns:xlink="http://www.w3.org/1999/xlink"
   xmlns:sodipodi="http://sodipodi.sourceforge.net/DTD/sodipodi-0.dtd"
   xmlns:inkscape="http://www.inkscape.org/namespaces/inkscape"
   version="1.0"
   id="svg2"
   sodipodi:version="0.32"
   inkscape:version="0.92.3 (2405546, 2018-03-11)"
   sodipodi:docname="logo.svg"
   width="125.05653pt"
   height="127.50229pt">
  <metadata
     id="metadata371">
    <rdf:RDF>
      <cc:Work
         rdf:about="">
        <dc:format>image/svg+xml</dc:format>
        <dc:type
           rdf:resource="http://purl.org/dc/dcmitype/StillImage" />
      </cc:Work>
    </rdf:RDF>
  </metadata>
  <sodipodi:namedview
     inkscape:window-height="1192"
     inkscape:window-width="1983"
     inkscape:pageshadow="2"
     inkscape:pageopacity="0.0"
     guidetolerance="10.0"
     gridtolerance="10.0"
     objecttolerance="10.0"
     borderopacity="1.0"
     bordercolor="#666666"
     pagecolor="#ffffff"
     id="base"
     inkscape:zoom="3.0351345"
     inkscape:cx="20.1319"
     inkscape:cy="104.48187"
     inkscape:window-x="67"
     inkscape:window-y="27"
     inkscape:current-layer="svg2"
     width="210mm"
     height="40mm"
     units="mm"
     showgrid="false"
     inkscape:window-maximized="0" />
  <defs
     id="defs4">
    <linearGradient
       id="linearGradient2795">
      <stop
         style="stop-color:#b8b8b8;stop-opacity:0.49803922;"
         offset="0"
         id="stop2797" />
      <stop
         style="stop-color:#7f7f7f;stop-opacity:0;"
         offset="1"
         id="stop2799" />
    </linearGradient>
    <linearGradient
       id="linearGradient2787">
      <stop
         style="stop-color:#7f7f7f;stop-opacity:0.5;"
         offset="0"
         id="stop2789" />
      <stop
         style="stop-color:#7f7f7f;stop-opacity:0;"
         offset="1"
         id="stop2791" />
    </linearGradient>
    <linearGradient
       id="linearGradient3676">
      <stop
         style="stop-color:#b2b2b2;stop-opacity:0.5;"
         offset="0"
         id="stop3678" />
      <stop
         style="stop-color:#b3b3b3;stop-opacity:0;"
         offset="1"
         id="stop3680" />
    </linearGradient>
    <linearGradient
       id="linearGradient3236">
      <stop
         style="stop-color:#f4f4f4;stop-opacity:1"
         offset="0"
         id="stop3244" />
      <stop
         style="stop-color:white;stop-opacity:1"
         offset="1"
         id="stop3240" />
    </linearGradient>
    <linearGradient
       id="linearGradient4671">
      <stop
         style="stop-color:#ffd43b;stop-opacity:1;"
         offset="0"
         id="stop4673" />
      <stop
         style="stop-color:#ffe873;stop-opacity:1"
         offset="1"
         id="stop4675" />
    </linearGradient>
    <linearGradient
       id="linearGradient4689">
      <stop
         style="stop-color:#5a9fd4;stop-opacity:1;"
         offset="0"
         id="stop4691" />
      <stop
         style="stop-color:#306998;stop-opacity:1;"
         offset="1"
         id="stop4693" />
    </linearGradient>
    <linearGradient
       x1="224.23996"
       y1="144.75717"
       x2="-65.308502"
       y2="144.75717"
       id="linearGradient2987"
       xlink:href="#linearGradient4671"
       gradientUnits="userSpaceOnUse"
       gradientTransform="translate(100.2702,99.61116)" />
    <linearGradient
       x1="172.94208"
       y1="77.475983"
       x2="26.670298"
       y2="76.313133"
       id="linearGradient2990"
       xlink:href="#linearGradient4689"
       gradientUnits="userSpaceOnUse"
       gradientTransform="translate(100.2702,99.61116)" />
    <linearGradient
       inkscape:collect="always"
       xlink:href="#linearGradient4689"
       id="linearGradient2587"
       gradientUnits="userSpaceOnUse"
       gradientTransform="translate(100.2702,99.61116)"
       x1="172.94208"
       y1="77.475983"
       x2="26.670298"
       y2="76.313133" />
    <linearGradient
       inkscape:collect="always"
       xlink:href="#linearGradient4671"
       id="linearGradient2589"
       gradientUnits="userSpaceOnUse"
       gradientTransform="translate(100.2702,99.61116)"
       x1="224.23996"
       y1="144.75717"
       x2="-65.308502"
       y2="144.75717" />
    <linearGradient
       inkscape:collect="always"
       xlink:href="#linearGradient4689"
       id="linearGradient2248"
       gradientUnits="userSpaceOnUse"
       gradientTransform="translate(100.2702,99.61116)"
       x1="172.94208"
       y1="77.475983"
       x2="26.670298"
       y2="76.313133" />
    <linearGradient
       inkscape:collect="always"
       xlink:href="#linearGradient4671"
       id="linearGradient2250"
       gradientUnits="userSpaceOnUse"
       gradientTransform="translate(100.2702,99.61116)"
       x1="224.23996"
       y1="144.75717"
       x2="-65.308502"
       y2="144.75717" />
    <linearGradient
       inkscape:collect="always"
       xlink:href="#linearGradient4671"
       id="linearGradient2255"
       gradientUnits="userSpaceOnUse"
       gradientTransform="matrix(0.562541,0,0,0.567972,-11.5974,-7.60954)"
       x1="224.23996"
       y1="144.75717"
       x2="-65.308502"
       y2="144.75717" />
    <linearGradient
       inkscape:collect="always"
       xlink:href="#linearGradient4689"
       id="linearGradient2258"
       gradientUnits="userSpaceOnUse"
       gradientTransform="matrix(0.562541,0,0,0.567972,-11.5974,-7.60954)"
       x1="172.94208"
       y1="76.176224"
       x2="26.670298"
       y2="76.313133" />
    <radialGradient
       inkscape:collect="always"
       xlink:href="#linearGradient2795"
       id="radialGradient2801"
       cx="61.518883"
       cy="132.28575"
       fx="61.518883"
       fy="132.28575"
       r="29.036913"
       gradientTransform="matrix(1,0,0,0.177966,0,108.7434)"
       gradientUnits="userSpaceOnUse" />
    <linearGradient
       inkscape:collect="always"
       xlink:href="#linearGradient4671"
       id="linearGradient1475"
       gradientUnits="userSpaceOnUse"
       gradientTransform="matrix(0.562541,0,0,0.567972,-14.99112,-10.83032)"
       x1="150.96111"
       y1="192.35176"
       x2="112.03144"
       y2="137.27299" />
    <linearGradient
       inkscape:collect="always"
       xlink:href="#linearGradient4689"
       id="linearGradient1478"
       gradientUnits="userSpaceOnUse"
       gradientTransform="matrix(0.562541,0,0,0.567972,-14.99112,-10.83032)"
       x1="26.648937"
       y1="20.603781"
       x2="135.66525"
       y2="114.39767" />
    <circle
       r="1"
       id="gpDot"
       cx="0"
       cy="0" />
    <path
       d="M -1,0 H 1 M 0,-1 v 2"
       style="stroke-width:0.133"
       id="gpPt0"
       inkscape:connector-curvature="0" />
    <path
       d="M -1,-1 1,1 M 1,-1 -1,1"
       style="stroke-width:0.133"
       id="gpPt1"
       inkscape:connector-curvature="0" />
    <path
       d="M -1,0 H 1 M 0,-1 v 2 m -1,-2 2,2 m -2,0 2,-2"
       style="stroke-width:0.133"
       id="gpPt2"
       inkscape:connector-curvature="0" />
    <rect
       height="2"
       width="2"
       y="-1"
       x="-1"
       style="stroke-width:0.133"
       id="gpPt3" />
    <use
       style="fill:currentColor;stroke:none"
       id="gpPt4"
       xlink:href="#gpPt3"
       x="0"
       y="0"
       width="100%"
       height="100%" />
    <circle
       r="1"
       cy="0"
       cx="0"
       style="stroke-width:0.133"
       id="gpPt5" />
    <use
       style="fill:currentColor;stroke:none"
       id="gpPt6"
       xlink:href="#gpPt5"
       x="0"
       y="0"
       width="100%"
       height="100%" />
    <path
       d="m 0,-1.33 -1.33,2 h 2.66 z"
       style="stroke-width:0.133"
       id="gpPt7"
       inkscape:connector-curvature="0" />
    <use
       style="fill:currentColor;stroke:none"
       id="gpPt8"
       xlink:href="#gpPt7"
       x="0"
       y="0"
       width="100%"
       height="100%" />
    <use
       transform="scale(-1)"
       id="gpPt9"
       xlink:href="#gpPt7"
       x="0"
       y="0"
       width="100%"
       height="100%" />
    <use
       style="fill:currentColor;stroke:none"
       id="gpPt10"
       xlink:href="#gpPt9"
       x="0"
       y="0"
       width="100%"
       height="100%" />
    <use
       transform="rotate(45)"
       id="gpPt11"
       xlink:href="#gpPt3"
       x="0"
       y="0"
       width="100%"
       height="100%" />
    <use
       style="fill:currentColor;stroke:none"
       id="gpPt12"
       xlink:href="#gpPt11"
       x="0"
       y="0"
       width="100%"
       height="100%" />
    <clipPath
       clipPathUnits="userSpaceOnUse"
       id="clipPath1431">
      <path
         id="path1433"
         d="m 1720.8919,10.642998 -38.2981,-16.5687143 29.8755,-47.3453047 c 5.8954,-9.342906 1.5312,-20.8731 -9.7568,-25.756175 l -111.8627,-48.393874 c -11.2848,-4.88136 -25.2112,-1.26436 -31.1066,8.07838 l -29.8751,47.345362 -220.6027,-95.436682 5.4555,-8.64659 c 19.4335,-30.7979 11.0956,-65.48782 -16.2537,-88.15635 l 254.4469,-403.24182 c 12.4151,-19.67395 3.2201,-43.95699 -20.5443,-54.23783 -23.7605,-10.27925 -53.0897,-2.66265 -65.5046,17.01157 l -254.4473,403.24176 c -38.0963,-5.64415 -77.2453,8.50169 -96.6792,39.29966 l -5.4562,8.64665 -38.7303,-16.75542 c -44.5487,-19.27246 -99.53718,-4.99169 -122.81484,31.898 L 394.32827,640.23818 c -23.27755,36.88978 -6.03053,82.42083 38.51811,101.69337 l 649.35152,280.92015 c 44.5519,19.2742 99.5378,4.9918 122.8148,-31.89796 L 1759.4231,112.33801 C 1782.7022,75.448237 1765.445,29.917 1720.8919,10.642998 Z"
         inkscape:connector-curvature="0"
         sodipodi:nodetypes="scssssccscssscscsssssscs"
         style="fill:#ffffff;fill-opacity:1;stroke:#060606;stroke-width:3.8537662;stroke-opacity:1" />
    </clipPath>
  </defs>
  <g
     id="g900"
     transform="scale(1.5)">
    <path
       inkscape:connector-curvature="0"
       id="path1948"
       d="M 54.918785,0.87297016 C 50.335132,0.89426816 45.957846,1.2851879 42.106285,1.9667202 30.760069,3.971224 28.700036,8.1668223 28.700035,15.90422 v 10.21875 h 26.8125 v 3.40625 h -26.8125 -10.0625 c -7.792459,0 -14.6157588,4.683717 -16.7499998,13.59375 -2.46181998,10.212966 -2.57101508,16.586023 0,27.25 1.9059283,7.937852 6.4575432,13.593748 14.2499998,13.59375 h 9.21875 v -12.25 c 0,-8.849902 7.657144,-16.656248 16.75,-16.65625 h 26.78125 c 7.454951,0 13.406253,-6.138164 13.40625,-13.625 V 15.90422 c 0,-7.2663387 -6.12998,-12.7247772 -13.40625,-13.9374998 C 64.281548,1.1999949 59.502438,0.85167186 54.918785,0.87297016 Z m -14.5,8.21875014 c 2.769547,0 5.03125,2.2986457 5.03125,5.1249997 -2e-6,2.816336 -2.261703,5.09375 -5.03125,5.09375 -2.779476,-10e-7 -5.03125,-2.277415 -5.03125,-5.09375 -10e-7,-2.826353 2.251774,-5.1249997 5.03125,-5.1249997 z"
       style="fill:url(#linearGradient1478);fill-opacity:1" />
    <path
       inkscape:connector-curvature="0"
       id="path1950"
       d="m 85.637535,29.52922 v 11.90625 c 0,9.230755 -7.825895,16.999999 -16.75,17 h -26.78125 c -7.335833,0 -13.406249,6.278483 -13.40625,13.625 v 25.531247 c 0,7.266343 6.318588,11.540323 13.40625,13.625003 8.487331,2.49561 16.626237,2.94663 26.78125,0 6.750155,-1.95439 13.406253,-5.88761 13.40625,-13.625003 V 87.37297 h -26.78125 v -3.40625 h 26.78125 13.406254 c 7.792461,0 10.696251,-5.435408 13.406241,-13.59375 2.79933,-8.398886 2.68022,-16.475776 0,-27.25 -1.92578,-7.757441 -5.60387,-13.59375 -13.406241,-13.59375 z m -15.0625,64.65625 c 2.779478,3e-6 5.03125,2.277417 5.03125,5.093747 -2e-6,2.826353 -2.251775,5.125003 -5.03125,5.125003 -2.76955,0 -5.03125,-2.29865 -5.03125,-5.125003 2e-6,-2.81633 2.261697,-5.093747 5.03125,-5.093747 z"
       style="fill:url(#linearGradient1475);fill-opacity:1" />
    <g
       style="fill:#4b8cbf;fill-opacity:1;stroke:none;stroke-width:0.99949539;stroke-miterlimit:4;stroke-dasharray:none;stroke-opacity:1"
       transform="matrix(0,0.88744784,0.88744784,0,-132.9382,-122.59535)"
       id="layer1-3">
      <path
         sodipodi:nodetypes="ccccccsccccccccccccccccccscccccccccsccscccccccsscccccccccccccccc"
         d="m 149.43832,179.74802 c -0.17784,-0.0883 -1.74372,-1.65415 -1.82858,-1.82863 -0.0562,-0.11564 -0.0632,-0.18498 -0.0538,-0.5336 0.009,-0.33066 0.0227,-0.42362 0.079,-0.53195 0.0792,-0.15237 0.69929,-0.76002 1.14201,-1.11915 0.9735,-0.78966 2.25303,-1.41157 3.47485,-1.68895 0.67425,-0.15306 1.07468,-0.19417 1.89184,-0.19417 0.81716,0 1.21759,0.0411 1.89183,0.19417 1.22172,0.27735 2.50042,0.89883 3.47502,1.68895 0.50002,0.40537 1.08674,0.9899 1.14847,1.14419 0.0686,0.17147 0.0989,0.82861 0.0457,0.99366 -0.0512,0.15892 -1.66192,1.78306 -1.86136,1.8768 -0.18063,0.0849 -0.49354,0.087 -0.67517,0.005 -0.0773,-0.0351 -0.21654,-0.1559 -0.33957,-0.29459 -0.28553,-0.32189 -0.73229,-0.6877 -1.13852,-0.93221 -1.80815,-1.08833 -4.09953,-0.908 -5.72767,0.45076 -0.16236,0.13551 -0.38905,0.35215 -0.50374,0.48145 -0.12303,0.13869 -0.26224,0.25947 -0.33955,0.29459 -0.18055,0.082 -0.50945,0.0792 -0.68081,-0.006 z m -4.70534,-4.68238 c -0.16939,-0.0859 -1.83229,-1.76511 -1.87444,-1.89284 -0.0194,-0.0587 -0.0298,-0.2731 -0.0238,-0.49057 0.008,-0.31468 0.0231,-0.41034 0.078,-0.5161 0.13045,-0.25095 1.32042,-1.35477 2.09803,-1.94614 1.24043,-0.94334 2.918,-1.81752 4.41926,-2.30287 3.37763,-1.09197 7.06123,-0.97537 10.32445,0.32681 1.21103,0.48326 2.53835,1.22795 3.52206,1.97606 0.77762,0.59137 1.96759,1.69519 2.09804,1.94614 0.0549,0.10576 0.0694,0.20142 0.078,0.5161 0.006,0.21799 -0.005,0.43183 -0.0239,0.49082 -0.0455,0.13807 -1.74216,1.83997 -1.89996,1.90592 -0.14703,0.0614 -0.45859,0.0594 -0.61704,-0.004 -0.085,-0.034 -0.23409,-0.16608 -0.45427,-0.40243 -1.15824,-1.24327 -2.83773,-2.30732 -4.57085,-2.89591 -1.2604,-0.42805 -2.37255,-0.609 -3.7429,-0.609 -1.37035,0 -2.4825,0.18095 -3.7429,0.609 -1.73313,0.58859 -3.41262,1.65264 -4.57086,2.89591 -0.22018,0.23635 -0.36926,0.36843 -0.45427,0.40243 -0.17077,0.0683 -0.49886,0.0635 -0.64264,-0.009 z m -4.73767,-4.75731 c -0.18768,-0.0854 -1.77335,-1.69111 -1.82334,-1.84634 -0.0222,-0.069 -0.0328,-0.26949 -0.0264,-0.50126 0.008,-0.31441 0.0231,-0.41035 0.0779,-0.51564 0.0995,-0.19126 1.1228,-1.1758 1.8851,-1.81373 3.13541,-2.62389 6.89193,-4.30511 10.89826,-4.8775 1.22705,-0.17531 1.5632,-0.19636 3.13689,-0.19636 1.5737,0 1.90984,0.0211 3.13689,0.19636 4.00632,0.57239 7.76285,2.25361 10.89825,4.8775 0.7623,0.63793 1.78558,1.62247 1.8851,1.81373 0.0548,0.10529 0.0693,0.20123 0.0779,0.51564 0.006,0.23177 -0.005,0.43227 -0.0264,0.50126 -0.0533,0.16554 -1.63816,1.76286 -1.8341,1.84853 -0.18774,0.0821 -0.49382,0.0803 -0.67935,-0.004 -0.0898,-0.0407 -0.32897,-0.2481 -0.66296,-0.57467 -1.42009,-1.38851 -2.81971,-2.39492 -4.5488,-3.27087 -2.13917,-1.08368 -4.25777,-1.68111 -6.7912,-1.91509 -0.94584,-0.0873 -2.64408,-0.0471 -3.73516,0.0885 -2.08405,0.25911 -4.07655,0.86908 -5.96655,1.82653 -1.72909,0.87594 -3.12871,1.88235 -4.54881,3.27087 -0.33399,0.32656 -0.57325,0.53396 -0.66295,0.57466 -0.18229,0.0827 -0.51031,0.0835 -0.69012,0.002 z"
         id="path26127-6"
         style="fill:#4b8cbf;fill-opacity:1;stroke:none;stroke-width:0.99949539;stroke-miterlimit:4;stroke-dasharray:none;stroke-opacity:1"
         inkscape:connector-curvature="0" />
      <path
         sodipodi:nodetypes="ccccccsccccccccccccccccccscccccccccsccscccccccsscccccccccccccccc"
         d="m 245.14789,244.83795 c -0.17784,0.0883 -1.74372,1.65415 -1.82858,1.82863 -0.0562,0.11565 -0.0632,0.18498 -0.0538,0.5336 0.009,0.33067 0.0227,0.42362 0.079,0.53195 0.0792,0.15238 0.69929,0.76002 1.14201,1.11916 0.9735,0.78966 2.25303,1.41156 3.47485,1.68895 0.67425,0.15305 1.07468,0.19416 1.89184,0.19416 0.81716,0 1.21759,-0.0411 1.89183,-0.19416 1.22172,-0.27735 2.50042,-0.89883 3.47502,-1.68895 0.50002,-0.40537 1.08674,-0.9899 1.14847,-1.14419 0.0686,-0.17147 0.0989,-0.82862 0.0457,-0.99367 -0.0512,-0.15891 -1.66192,-1.78306 -1.86136,-1.8768 -0.18063,-0.0849 -0.49354,-0.087 -0.67517,-0.005 -0.0773,0.0351 -0.21654,0.1559 -0.33957,0.29459 -0.28553,0.32189 -0.73229,0.6877 -1.13852,0.93221 -1.80815,1.08833 -4.09953,0.908 -5.72767,-0.45076 -0.16236,-0.13551 -0.38905,-0.35215 -0.50374,-0.48145 -0.12303,-0.13869 -0.26224,-0.25947 -0.33955,-0.29459 -0.18055,-0.082 -0.50945,-0.0792 -0.68081,0.006 z m -4.70534,4.68238 c -0.16939,0.0859 -1.83229,1.76512 -1.87444,1.89284 -0.0194,0.0587 -0.0298,0.2731 -0.0238,0.49058 0.008,0.31468 0.0231,0.41034 0.078,0.51609 0.13045,0.25095 1.32042,1.35477 2.09803,1.94614 1.24043,0.94334 2.918,1.81752 4.41926,2.30287 3.37763,1.09197 7.06123,0.97537 10.32445,-0.32681 1.21103,-0.48325 2.53835,-1.22795 3.52206,-1.97606 0.77762,-0.59137 1.96759,-1.69519 2.09804,-1.94614 0.0549,-0.10576 0.0694,-0.20141 0.078,-0.51609 0.006,-0.21799 -0.005,-0.43183 -0.0239,-0.49083 -0.0455,-0.13807 -1.74216,-1.83997 -1.89996,-1.90591 -0.14703,-0.0614 -0.45859,-0.0594 -0.61704,0.004 -0.085,0.034 -0.23409,0.16608 -0.45427,0.40243 -1.15824,1.24322 -2.83773,2.30726 -4.57085,2.89585 -1.2604,0.42805 -2.37255,0.609 -3.7429,0.609 -1.37035,0 -2.4825,-0.18095 -3.7429,-0.609 -1.73313,-0.58859 -3.41262,-1.65263 -4.57086,-2.89591 -0.22018,-0.23634 -0.36926,-0.36842 -0.45427,-0.40242 -0.17077,-0.0683 -0.49886,-0.0635 -0.64264,0.009 z m -4.73767,4.75731 c -0.18768,0.0854 -1.77335,1.69111 -1.82334,1.84634 -0.0222,0.069 -0.0328,0.26949 -0.0264,0.50126 0.008,0.31441 0.0231,0.41035 0.0779,0.51564 0.0995,0.19126 1.1228,1.1758 1.8851,1.81373 3.13541,2.62389 6.89193,4.30511 10.89826,4.8775 1.22705,0.17531 1.5632,0.19636 3.13689,0.19636 1.5737,0 1.90984,-0.0211 3.13689,-0.19636 4.00632,-0.57239 7.76285,-2.25361 10.89825,-4.8775 0.7623,-0.63793 1.78558,-1.62247 1.8851,-1.81373 0.0548,-0.10528 0.0693,-0.20123 0.0779,-0.51564 0.006,-0.23177 -0.005,-0.43227 -0.0264,-0.50126 -0.0533,-0.16554 -1.63816,-1.76286 -1.8341,-1.84853 -0.18774,-0.0821 -0.49382,-0.0803 -0.67935,0.004 -0.0898,0.0407 -0.32897,0.24809 -0.66296,0.57466 -1.42009,1.38851 -2.81971,2.39492 -4.5488,3.27087 -2.13917,1.08368 -4.25777,1.68111 -6.7912,1.91509 -0.94584,0.0873 -2.64408,0.0471 -3.73516,-0.0885 -2.08405,-0.25911 -4.07655,-0.86908 -5.96655,-1.82653 -1.72909,-0.87594 -3.12871,-1.88235 -4.54881,-3.27086 -0.33399,-0.32657 -0.57325,-0.53397 -0.66295,-0.57467 -0.18229,-0.0827 -0.51031,-0.0835 -0.69012,-0.002 z"
         id="path26127-6-5"
         style="fill:#ffd43b;fill-opacity:1;stroke:none;stroke-width:0.99949539;stroke-miterlimit:4;stroke-dasharray:none;stroke-opacity:1"
         inkscape:connector-curvature="0" />
    </g>
    <path
       style="fill:#ffffff;fill-opacity:1;stroke-width:0.1324912"
       sodipodi:nodetypes="scssssccscssscscsssssscs"
       inkscape:connector-curvature="0"
       d="m 75.385108,42.762569 -1.198105,-0.625998 0.934618,-1.788797 c 0.184434,-0.352993 0.04788,-0.788626 -0.305233,-0.973118 l -3.499484,-1.828414 c -0.35303,-0.184427 -0.788702,-0.04777 -0.973137,0.305217 l -0.934606,1.788799 -6.901285,-3.605782 0.170669,-0.326685 c 0.607954,-1.163604 0.347111,-2.474256 -0.508478,-3.330717 l 7.96006,-15.235249 c 0.388397,-0.743328 0.100738,-1.660783 -0.642702,-2.049215 -0.743318,-0.388374 -1.660847,-0.100596 -2.049231,0.64273 l -7.960073,15.235252 c -1.191798,-0.213247 -2.416525,0.32121 -3.024492,1.484817 l -0.170691,0.326687 -1.211631,-0.633052 c -1.393652,-0.728151 -3.113898,-0.188596 -3.842111,1.205168 L 33.885184,66.54989 c -0.72821,1.393767 -0.188658,3.114018 1.204992,3.842172 l 20.314169,10.613706 c 1.393752,0.728214 3.113919,0.188598 3.842113,-1.205167 L 76.590514,46.604803 c 0.728255,-1.393767 0.188388,-3.114025 -1.205406,-3.842234 z"
       id="path895" />
    <g
       transform="matrix(0.18204195,0,0,0.18204195,0.58178729,-104.25246)"
       id="g2355"
       style="color:#000000;fill:none;stroke:currentColor;stroke-width:1" />
    <g
       transform="matrix(0.12128286,0,0,0.12128286,-64.98138,15.748932)"
       id="g899" />
    <g
       transform="matrix(0.12128286,0,0,0.12128286,-64.98138,15.748932)"
       id="g901" />
    <g
       transform="matrix(0.12128286,0,0,0.12128286,-64.98138,15.748932)"
       id="g903" />
    <g
       transform="matrix(0.12128286,0,0,0.12128286,-64.98138,15.748932)"
       id="g905" />
    <g
       transform="matrix(0.12128286,0,0,0.12128286,-64.98138,15.748932)"
       id="g907" />
    <g
       transform="matrix(0.12128286,0,0,0.12128286,-64.98138,15.748932)"
       id="g909" />
    <g
       transform="matrix(0.12128286,0,0,0.12128286,-64.98138,15.748932)"
       id="g911" />
    <g
       transform="matrix(0.12128286,0,0,0.12128286,-64.98138,15.748932)"
       id="g913" />
    <g
       transform="matrix(0.12128286,0,0,0.12128286,-64.98138,15.748932)"
       id="g915" />
    <g
       transform="matrix(0.12128286,0,0,0.12128286,-64.98138,15.748932)"
       id="g917" />
    <g
       transform="matrix(0.12128286,0,0,0.12128286,-64.98138,15.748932)"
       id="g919" />
    <g
       transform="matrix(0.12128286,0,0,0.12128286,-64.98138,15.748932)"
       id="g921" />
    <g
       transform="matrix(0.12128286,0,0,0.12128286,-64.98138,15.748932)"
       id="g923" />
    <g
       transform="matrix(0.12128286,0,0,0.12128286,-64.98138,15.748932)"
       id="g925" />
    <g
       transform="matrix(0.12128286,0,0,0.12128286,-64.98138,15.748932)"
       id="g927" />
  </g>
</svg>
