<svg width="576" height="173" xmlns="http://www.w3.org/2000/svg" xmlns:xlink="http://www.w3.org/1999/xlink" overflow="hidden"><defs><clipPath id="clip0"><rect x="0" y="0" width="576" height="173"/></clipPath></defs><g clip-path="url(#clip0)"><rect x="0" y="0" width="576" height="173" fill="#FFFFFF" transform="scale(1 1.00096)"/><path d="M1.5-1.29556e-06 1.5001 114.054-1.4999 114.054-1.5 1.29556e-06ZM4.5001 112.554 0.000104987 121.554-4.4999 112.554Z" transform="matrix(1 0 0 -1.00096 35.5001 149.198)"/><path d="M0.00432426-1.49999 416.225-0.300092 416.216 2.6999-0.00432426 1.49999ZM414.733-3.3044 423.72 1.22152 414.707 5.69556Z" transform="matrix(1 0 -0 1.00096 35.5001 148.643)"/><text font-family="Times New Roman,Times New Roman_MSFontService,sans-serif" font-style="italic" font-weight="400" font-size="24" transform="matrix(1 0 0 1.00096 465.2 156)">frequency</text><path d="M0 0 58.2456 0.000104987" stroke="#C55A11" stroke-width="6" stroke-miterlimit="8" stroke-dasharray="6 6" fill="none" fill-rule="evenodd" transform="matrix(1 0 -0 1.00096 38 145.14)"/><path d="M0 0 0.000104987 104.605" stroke="#C55A11" stroke-width="6" stroke-miterlimit="8" stroke-dasharray="6 6" fill="none" fill-rule="evenodd" transform="matrix(1 0 0 -1.00096 96 146.746)"/><path d="M0 0 121.676 0.000104987" stroke="#C55A11" stroke-width="6" stroke-miterlimit="8" stroke-dasharray="6 6" fill="none" fill-rule="evenodd" transform="matrix(1 0 -0 1.00096 96 42.0405)"/><path d="M0 0 0.000104987 104.605" stroke="#C55A11" stroke-width="6" stroke-miterlimit="8" stroke-dasharray="6 6" fill="none" fill-rule="evenodd" transform="matrix(1 0 -0 1.00096 218 42.0405)"/><path d="M0 0 222.165 0.000104987" stroke="#C55A11" stroke-width="6" stroke-miterlimit="8" stroke-dasharray="6 6" fill="none" fill-rule="evenodd" transform="matrix(1 0 -0 1.00096 218 145.14)"/><path d="M0 0-0.000104987-18.67" stroke="#000000" stroke-width="2" stroke-miterlimit="8" fill="none" fill-rule="evenodd" transform="matrix(4.37535e-08 -1.00096 -1 -4.37114e-08 25 42.0405)"/><path d="M0 0-0.000104987-18.67" stroke="#000000" stroke-width="2" stroke-miterlimit="8" fill="none" fill-rule="evenodd" transform="matrix(4.37535e-08 -1.00096 -1 -4.37114e-08 25 146.141)"/><text font-family="Times New Roman,Times New Roman_MSFontService,sans-serif" font-weight="400" font-size="24" transform="matrix(1 0 0 1.00096 7.939 51)">1<tspan x="-0.739003" y="100.903">0</tspan></text></g></svg>