<svg width="624" height="192" xmlns="http://www.w3.org/2000/svg" xmlns:xlink="http://www.w3.org/1999/xlink" overflow="hidden"><defs><clipPath id="clip0"><rect x="0" y="0" width="624" height="192"/></clipPath></defs><g clip-path="url(#clip0)"><rect x="0" y="0" width="624" height="192" fill="#FFFFFF"/><path d="M1.5-1.29556e-06 1.5001 114.054-1.4999 114.054-1.5 1.29556e-06ZM4.5001 112.554 0.000104987 121.554-4.4999 112.554Z" transform="matrix(1 0 0 -1 291.5 124.054)"/><path d="M70.9999 123 504.23 123 504.23 126 70.9999 126ZM72.5001 129 63.5001 124.5 72.5001 120ZM502.73 120 511.73 124.5 502.73 129Z"/><text font-family="Times New Roman,Times New Roman_MSFontService,sans-serif" font-style="italic" font-weight="400" font-size="24" transform="translate(521.8 129)">frequency</text><path d="M83.5001 114.5 83.5002 135.031" stroke="#000000" stroke-width="0.666667" stroke-miterlimit="8" fill="none" fill-rule="evenodd"/><path d="M487.5 114.5 487.5 135.031" stroke="#000000" stroke-width="0.666667" stroke-miterlimit="8" fill="none" fill-rule="evenodd"/><text font-family="Times New Roman,Times New Roman_MSFontService,sans-serif" font-weight="400" font-size="24" transform="translate(51.671 158)">-0.5 MHz<tspan x="400.391" y="4">0.5 MHz</tspan></text><path d="M83.222 34.1728 123.651 34.1728 123.651 73.1061 83.222 73.1061Z" fill="#A5A5A5" fill-rule="evenodd"/><path d="M123.651 34.1728 164.08 34.1728 164.08 73.1061 123.651 73.1061Z" fill="#A5A5A5" fill-rule="evenodd"/><path d="M164.08 34.1728 204.509 34.1728 204.509 73.1061 164.08 73.1061Z" fill="#A5A5A5" fill-rule="evenodd"/><path d="M204.509 34.1728 244.938 34.1728 244.938 73.1061 204.509 73.1061Z" fill="#A5A5A5" fill-rule="evenodd"/><path d="M244.938 34.1728 285.366 34.1728 285.366 73.1061 244.938 73.1061Z" fill="#A5A5A5" fill-rule="evenodd"/><path d="M285.366 34.1728 325.795 34.1728 325.795 73.1061 285.366 73.1061Z" fill="#A5A5A5" fill-rule="evenodd"/><path d="M325.795 34.1728 366.224 34.1728 366.224 73.1061 325.795 73.1061Z" fill="#A5A5A5" fill-rule="evenodd"/><path d="M366.224 34.1728 406.653 34.1728 406.653 73.1061 366.224 73.1061Z" fill="#A5A5A5" fill-rule="evenodd"/><path d="M406.653 34.1728 447.082 34.1728 447.082 73.1061 406.653 73.1061Z" fill="#A5A5A5" fill-rule="evenodd"/><path d="M447.082 34.1728 487.511 34.1728 487.511 73.1061 447.082 73.1061Z" fill="#A5A5A5" fill-rule="evenodd"/><path d="M123.651 33.5061 123.651 75.1061" stroke="#FFFFFF" stroke-width="1.33333" stroke-linejoin="round" stroke-miterlimit="10" fill="none" fill-rule="evenodd"/><path d="M164.08 33.5061 164.08 75.1061" stroke="#FFFFFF" stroke-width="1.33333" stroke-linejoin="round" stroke-miterlimit="10" fill="none" fill-rule="evenodd"/><path d="M204.509 33.5061 204.509 75.1061" stroke="#FFFFFF" stroke-width="1.33333" stroke-linejoin="round" stroke-miterlimit="10" fill="none" fill-rule="evenodd"/><path d="M244.938 33.5061 244.938 75.1061" stroke="#FFFFFF" stroke-width="1.33333" stroke-linejoin="round" stroke-miterlimit="10" fill="none" fill-rule="evenodd"/><path d="M285.366 33.5061 285.366 75.1061" stroke="#FFFFFF" stroke-width="1.33333" stroke-linejoin="round" stroke-miterlimit="10" fill="none" fill-rule="evenodd"/><path d="M325.795 33.5061 325.795 75.1061" stroke="#FFFFFF" stroke-width="1.33333" stroke-linejoin="round" stroke-miterlimit="10" fill="none" fill-rule="evenodd"/><path d="M366.224 33.5061 366.224 75.1061" stroke="#FFFFFF" stroke-width="1.33333" stroke-linejoin="round" stroke-miterlimit="10" fill="none" fill-rule="evenodd"/><path d="M406.653 33.5061 406.653 75.1061" stroke="#FFFFFF" stroke-width="1.33333" stroke-linejoin="round" stroke-miterlimit="10" fill="none" fill-rule="evenodd"/><path d="M447.082 33.5061 447.082 75.1061" stroke="#FFFFFF" stroke-width="1.33333" stroke-linejoin="round" stroke-miterlimit="10" fill="none" fill-rule="evenodd"/><path d="M83.222 33.5061 83.222 75.1061" stroke="#FFFFFF" stroke-width="1.33333" stroke-linejoin="round" stroke-miterlimit="10" fill="none" fill-rule="evenodd"/><path d="M487.511 33.5061 487.511 75.1061" stroke="#FFFFFF" stroke-width="1.33333" stroke-linejoin="round" stroke-miterlimit="10" fill="none" fill-rule="evenodd"/><path d="M82.5554 34.1728 488.177 34.1728" stroke="#FFFFFF" stroke-width="1.33333" stroke-linejoin="round" stroke-miterlimit="10" fill="none" fill-rule="evenodd"/><path d="M82.5554 73.1061 488.177 73.1061" stroke="#FFFFFF" stroke-width="4" stroke-linejoin="round" stroke-miterlimit="10" fill="none" fill-rule="evenodd"/><text font-family="Times New Roman,Times New Roman_MSFontService,sans-serif" font-weight="400" font-size="24" transform="translate(9.6 99)">index:<tspan x="440.385" y="-2">N</tspan><tspan x="457.719" y="-2">-</tspan>1<tspan x="88.1117" y="0">0</tspan><tspan x="124.674" y="1">1</tspan><tspan x="167.876" y="2">2</tspan><tspan x="231.416" y="-5">…</tspan><tspan x="207.723" y="2">3</tspan><tspan x="275.038" y="50">0</tspan></text></g></svg>