<?xml version="1.0" encoding="utf-8" standalone="no"?>
<!DOCTYPE svg PUBLIC "-//W3C//DTD SVG 1.1//EN"
  "http://www.w3.org/Graphics/SVG/1.1/DTD/svg11.dtd">
<!-- Created with matplotlib (https://matplotlib.org/) -->
<svg height="199.722975pt" version="1.1" viewBox="0 0 615.657727 199.722975" width="615.657727pt" xmlns="http://www.w3.org/2000/svg" xmlns:xlink="http://www.w3.org/1999/xlink">
 <defs>
  <style type="text/css">
*{stroke-linecap:butt;stroke-linejoin:round;}
  </style>
 </defs>
 <g id="figure_1">
  <g id="patch_1">
   <path d="M 0 199.722975 
L 615.657727 199.722975 
L 615.657727 0 
L 0 0 
z
" style="fill:#ffffff;"/>
  </g>
  <g id="axes_1">
   <g id="patch_2">
    <path d="M 10.7 189.022975 
L 568.7 189.022975 
L 568.7 22.702975 
L 10.7 22.702975 
z
" style="fill:#ffffff;"/>
   </g>
   <g id="matplotlib.axis_1">
    <g id="xtick_1">
     <g id="line2d_1">
      <defs>
       <path d="M 0 0 
L 0 3.5 
" id="mc6594e8d96" style="stroke:#000000;stroke-width:0.8;"/>
      </defs>
      <g>
       <use style="stroke:#000000;stroke-width:0.8;" x="36.063636" xlink:href="#mc6594e8d96" y="154.478561"/>
      </g>
     </g>
    </g>
    <g id="xtick_2">
     <g id="line2d_2">
      <g>
       <use style="stroke:#000000;stroke-width:0.8;" x="99.472727" xlink:href="#mc6594e8d96" y="154.478561"/>
      </g>
     </g>
    </g>
    <g id="xtick_3">
     <g id="line2d_3">
      <g>
       <use style="stroke:#000000;stroke-width:0.8;" x="162.881818" xlink:href="#mc6594e8d96" y="154.478561"/>
      </g>
     </g>
    </g>
    <g id="xtick_4">
     <g id="line2d_4">
      <g>
       <use style="stroke:#000000;stroke-width:0.8;" x="226.290909" xlink:href="#mc6594e8d96" y="154.478561"/>
      </g>
     </g>
    </g>
    <g id="xtick_5">
     <g id="line2d_5">
      <g>
       <use style="stroke:#000000;stroke-width:0.8;" x="289.7" xlink:href="#mc6594e8d96" y="154.478561"/>
      </g>
     </g>
    </g>
    <g id="xtick_6">
     <g id="line2d_6">
      <g>
       <use style="stroke:#000000;stroke-width:0.8;" x="353.109091" xlink:href="#mc6594e8d96" y="154.478561"/>
      </g>
     </g>
    </g>
    <g id="xtick_7">
     <g id="line2d_7">
      <g>
       <use style="stroke:#000000;stroke-width:0.8;" x="416.518182" xlink:href="#mc6594e8d96" y="154.478561"/>
      </g>
     </g>
    </g>
    <g id="xtick_8">
     <g id="line2d_8">
      <g>
       <use style="stroke:#000000;stroke-width:0.8;" x="479.927273" xlink:href="#mc6594e8d96" y="154.478561"/>
      </g>
     </g>
    </g>
    <g id="xtick_9">
     <g id="line2d_9">
      <g>
       <use style="stroke:#000000;stroke-width:0.8;" x="543.336364" xlink:href="#mc6594e8d96" y="154.478561"/>
      </g>
     </g>
    </g>
   </g>
   <g id="matplotlib.axis_2">
    <g id="ytick_1">
     <g id="line2d_10">
      <defs>
       <path d="M 0 0 
L -3.5 0 
" id="m2fe6b44ab3" style="stroke:#000000;stroke-width:0.8;"/>
      </defs>
      <g>
       <use style="stroke:#000000;stroke-width:0.8;" x="289.7" xlink:href="#m2fe6b44ab3" y="179.322333"/>
      </g>
     </g>
    </g>
    <g id="ytick_2">
     <g id="line2d_11">
      <g>
       <use style="stroke:#000000;stroke-width:0.8;" x="289.7" xlink:href="#m2fe6b44ab3" y="154.478561"/>
      </g>
     </g>
    </g>
    <g id="ytick_3">
     <g id="line2d_12">
      <g>
       <use style="stroke:#000000;stroke-width:0.8;" x="289.7" xlink:href="#m2fe6b44ab3" y="129.634788"/>
      </g>
     </g>
    </g>
    <g id="ytick_4">
     <g id="line2d_13">
      <g>
       <use style="stroke:#000000;stroke-width:0.8;" x="289.7" xlink:href="#m2fe6b44ab3" y="104.791016"/>
      </g>
     </g>
    </g>
    <g id="ytick_5">
     <g id="line2d_14">
      <g>
       <use style="stroke:#000000;stroke-width:0.8;" x="289.7" xlink:href="#m2fe6b44ab3" y="79.947243"/>
      </g>
     </g>
    </g>
    <g id="ytick_6">
     <g id="line2d_15">
      <g>
       <use style="stroke:#000000;stroke-width:0.8;" x="289.7" xlink:href="#m2fe6b44ab3" y="55.103471"/>
      </g>
     </g>
    </g>
    <g id="ytick_7">
     <g id="line2d_16">
      <g>
       <use style="stroke:#000000;stroke-width:0.8;" x="289.7" xlink:href="#m2fe6b44ab3" y="30.259699"/>
      </g>
     </g>
    </g>
   </g>
   <g id="line2d_17">
    <path clip-path="url(#pd2ec0b9752)" d="M 36.063636 154.478561 
L 48.758149 160.600251 
L 52.820393 162.290541 
L 56.374857 163.557097 
L 59.92932 164.577669 
L 62.976003 165.226716 
L 66.022686 165.645682 
L 69.069369 165.81875 
L 72.116052 165.735156 
L 75.162735 165.389557 
L 78.209419 164.782289 
L 81.256102 163.919518 
L 84.302785 162.813261 
L 87.349468 161.481292 
L 90.903931 159.673429 
L 94.966175 157.329422 
L 100.04398 154.104457 
L 113.246274 145.517568 
L 117.308518 143.235261 
L 120.355201 141.750921 
L 123.401884 140.506946 
L 125.940786 139.68065 
L 128.479689 139.065851 
L 131.018591 138.678828 
L 133.557494 138.532949 
L 136.096396 138.638387 
L 138.635299 139.001885 
L 141.174201 139.626556 
L 143.713104 140.511729 
L 146.252007 141.652848 
L 148.790909 143.041414 
L 151.329812 144.664984 
L 154.376495 146.900205 
L 157.423178 149.414707 
L 160.977641 152.643728 
L 165.547666 157.138089 
L 179.25774 170.941937 
L 182.812203 174.055793 
L 185.858886 176.400934 
L 188.397789 178.073994 
L 190.936691 179.45063 
L 192.967813 180.314266 
L 194.998935 180.94793 
L 197.030057 181.335681 
L 199.061179 181.462975 
L 201.092301 181.316812 
L 203.123423 180.885868 
L 205.154545 180.160604 
L 207.185667 179.133383 
L 209.21679 177.798557 
L 211.247912 176.15255 
L 213.279034 174.193917 
L 215.310156 171.923398 
L 217.341278 169.343947 
L 219.88018 165.693308 
L 222.419083 161.583243 
L 224.957985 157.034149 
L 227.496888 152.071668 
L 230.543571 145.614589 
L 234.098034 137.468556 
L 238.160278 127.492053 
L 243.238084 114.308548 
L 257.963718 75.477555 
L 261.518182 66.864935 
L 264.564865 59.966783 
L 267.611548 53.611533 
L 270.15045 48.791288 
L 272.689353 44.451515 
L 274.720475 41.353002 
L 276.751597 38.60658 
L 278.782719 36.22877 
L 280.813841 34.233912 
L 282.337183 32.996423 
L 283.860524 31.985389 
L 285.383866 31.204259 
L 286.907207 30.655698 
L 288.430549 30.341579 
L 289.95389 30.262975 
L 291.477232 30.420154 
L 293.000573 30.812579 
L 294.523915 31.43891 
L 296.047256 32.29701 
L 297.570598 33.38395 
L 299.093939 34.696025 
L 301.125061 36.787842 
L 303.156183 39.259237 
L 305.187305 42.095313 
L 307.218428 45.279023 
L 309.75733 49.718273 
L 312.296233 54.629371 
L 315.342916 61.081153 
L 318.389599 68.061117 
L 321.944062 76.749346 
L 326.514087 88.544788 
L 343.270844 132.558537 
L 346.825307 141.034152 
L 350.379771 148.908323 
L 353.426454 155.097155 
L 355.965356 159.814969 
L 358.504259 164.10339 
L 361.043161 167.939905 
L 363.582064 171.307334 
L 365.613186 173.655449 
L 367.644308 175.692209 
L 369.67543 177.416322 
L 371.706552 178.82869 
L 373.737674 179.932362 
L 375.768796 180.732475 
L 377.799918 181.236179 
L 379.83104 181.452543 
L 381.862162 181.392457 
L 383.893284 181.068516 
L 385.924406 180.494887 
L 387.955528 179.687178 
L 389.98665 178.662287 
L 392.525553 177.103331 
L 395.064455 175.270601 
L 398.111138 172.765226 
L 401.665602 169.509175 
L 406.235627 164.971055 
L 418.422359 152.643728 
L 421.976822 149.414707 
L 425.023505 146.900205 
L 428.070188 144.664984 
L 430.609091 143.041414 
L 433.147993 141.652848 
L 435.686896 140.511729 
L 438.225799 139.626556 
L 440.764701 139.001885 
L 443.303604 138.638387 
L 445.842506 138.532949 
L 448.381409 138.678828 
L 450.920311 139.065851 
L 453.459214 139.68065 
L 455.998116 140.506946 
L 459.044799 141.750921 
L 462.091482 143.235261 
L 465.645946 145.216366 
L 470.215971 148.050772 
L 478.848239 153.770267 
L 484.433825 157.329422 
L 488.496069 159.673429 
L 492.050532 161.481292 
L 495.097215 162.813261 
L 498.143898 163.919518 
L 501.190581 164.782289 
L 504.237265 165.389557 
L 507.283948 165.735156 
L 510.330631 165.81875 
L 513.377314 165.645682 
L 516.423997 165.226716 
L 519.47068 164.577669 
L 522.517363 163.718942 
L 526.071826 162.484876 
L 530.13407 160.823358 
L 535.211876 158.479105 
L 543.336364 154.478561 
L 543.336364 154.478561 
" style="fill:none;stroke:#1f77b4;stroke-linecap:square;stroke-width:1.5;"/>
   </g>
   <g id="line2d_18">
    <path clip-path="url(#pd2ec0b9752)" d="M 36.063636 154.478561 
L 44.188124 155.927078 
L 57.898198 158.409186 
L 63.483784 159.160548 
L 68.053808 159.556987 
L 72.116052 159.702047 
L 76.178296 159.623063 
L 80.240541 159.300348 
L 84.302785 158.723759 
L 88.365029 157.89407 
L 92.427273 156.82395 
L 96.997297 155.364374 
L 102.075102 153.490105 
L 110.19959 150.194926 
L 117.308518 147.384323 
L 121.878542 145.814919 
L 125.433006 144.809092 
L 128.987469 144.046687 
L 132.034152 143.622191 
L 135.080835 143.436371 
L 137.619738 143.479595 
L 140.15864 143.713654 
L 142.697543 144.145886 
L 145.236446 144.780728 
L 147.775348 145.619491 
L 150.314251 146.660172 
L 153.360934 148.167586 
L 156.407617 149.941514 
L 159.4543 151.958306 
L 163.008763 154.576366 
L 167.071007 157.841582 
L 173.672154 163.482843 
L 179.76552 168.619316 
L 183.827764 171.744342 
L 186.874447 173.816921 
L 189.41335 175.311618 
L 191.952252 176.553807 
L 193.983374 177.340658 
L 196.014496 177.923795 
L 198.045618 178.285944 
L 200.07674 178.410964 
L 202.107862 178.284023 
L 204.138984 177.89176 
L 206.170106 177.222445 
L 208.201229 176.266124 
L 210.232351 175.014749 
L 212.263473 173.462303 
L 214.294595 171.604898 
L 216.325717 169.440869 
L 218.356839 166.970838 
L 220.387961 164.197772 
L 222.926863 160.313658 
L 225.465766 155.980241 
L 228.004668 151.218985 
L 231.051351 144.979336 
L 234.098034 138.220267 
L 237.652498 129.769451 
L 241.714742 119.520116 
L 247.300328 104.775439 
L 256.948157 79.21498 
L 261.010401 69.090194 
L 264.564865 60.831527 
L 267.611548 54.324798 
L 270.15045 49.377036 
L 272.689353 44.913438 
L 274.720475 41.721416 
L 276.751597 38.888626 
L 278.782719 36.433438 
L 280.813841 34.371826 
L 282.337183 33.092092 
L 283.860524 32.046074 
L 285.383866 31.237626 
L 286.907207 30.669731 
L 288.430549 30.344486 
L 289.95389 30.263091 
L 291.477232 30.425847 
L 293.000573 30.832154 
L 294.523915 31.48051 
L 296.047256 32.368522 
L 297.570598 33.492916 
L 299.093939 34.849551 
L 301.125061 37.010919 
L 303.156183 39.562101 
L 305.187305 42.486511 
L 307.218428 45.765206 
L 309.75733 50.329371 
L 312.296233 55.368185 
L 315.342916 61.970455 
L 318.389599 69.090194 
L 322.451843 79.21498 
L 327.529648 92.536161 
L 339.2086 123.425603 
L 343.270844 133.458813 
L 346.825307 141.660721 
L 349.87199 148.167929 
L 352.918673 154.125685 
L 355.457576 158.633135 
L 357.996478 162.699176 
L 360.535381 166.305814 
L 362.566503 168.851974 
L 364.597625 171.092652 
L 366.628747 173.026645 
L 368.659869 174.655052 
L 370.690991 175.981212 
L 372.722113 177.01062 
L 374.753235 177.750825 
L 376.784357 178.211318 
L 378.815479 178.403398 
L 380.846601 178.340033 
L 382.877723 178.035701 
L 384.908845 177.506233 
L 386.939967 176.768635 
L 389.47887 175.581471 
L 392.017772 174.134224 
L 395.064455 172.108287 
L 398.618919 169.431725 
L 403.188943 165.661597 
L 415.883456 154.970457 
L 419.9457 151.958306 
L 423.500164 149.628263 
L 426.546847 147.897312 
L 429.59353 146.436094 
L 432.640213 145.259567 
L 435.179115 144.502321 
L 437.718018 143.948861 
L 440.256921 143.596598 
L 442.795823 143.439908 
L 445.842506 143.497989 
L 448.889189 143.806126 
L 451.935872 144.340538 
L 455.490336 145.213221 
L 459.55258 146.47967 
L 464.122604 148.154899 
L 471.739312 151.239967 
L 479.35602 154.266146 
L 484.433825 156.043651 
L 488.496069 157.252102 
L 492.558313 158.234327 
L 496.620557 158.969933 
L 500.682801 159.450798 
L 504.745045 159.680379 
L 508.807289 159.672577 
L 512.869533 159.450242 
L 517.439558 158.98128 
L 523.025143 158.165232 
L 530.641851 156.795439 
L 543.336364 154.478561 
L 543.336364 154.478561 
" style="fill:none;stroke:#ff7f0e;stroke-linecap:square;stroke-width:1.5;"/>
   </g>
   <g id="line2d_19">
    <path clip-path="url(#pd2ec0b9752)" d="M 36.063636 154.478561 
L 60.437101 153.781531 
L 70.08493 153.792262 
L 80.748321 154.042826 
L 98.012858 154.474361 
L 105.121785 154.408527 
L 111.722932 154.129484 
L 118.831859 153.593321 
L 130.00303 152.465512 
L 137.619738 151.808933 
L 142.697543 151.599455 
L 146.759787 151.641869 
L 150.314251 151.872675 
L 153.868714 152.312509 
L 157.423178 152.981546 
L 160.977641 153.89132 
L 164.532105 155.042877 
L 168.086568 156.425199 
L 172.148812 158.255773 
L 176.718837 160.562962 
L 190.428911 167.701091 
L 193.475594 168.981656 
L 196.522277 170.012815 
L 199.061179 170.632528 
L 201.600082 170.992661 
L 203.631204 171.068184 
L 205.662326 170.934378 
L 207.693448 170.573462 
L 209.72457 169.968883 
L 211.755692 169.105555 
L 213.786814 167.970103 
L 215.817936 166.551091 
L 217.849058 164.839229 
L 219.88018 162.827578 
L 221.911302 160.511717 
L 223.942424 157.889901 
L 226.481327 154.184265 
L 229.020229 150.010887 
L 231.559132 145.385487 
L 234.098034 140.331124 
L 237.144717 133.742898 
L 240.1914 126.646943 
L 243.745864 117.833797 
L 248.315889 105.888665 
L 262.025962 69.570304 
L 265.580426 61.013205 
L 268.627109 54.258286 
L 271.166011 49.125774 
L 273.704914 44.510212 
L 275.736036 41.227542 
L 277.767158 38.33696 
L 279.79828 35.861084 
L 281.321622 34.288166 
L 282.844963 32.96653 
L 284.368305 31.902065 
L 285.891646 31.099521 
L 287.414988 30.562487 
L 288.938329 30.293367 
L 290.461671 30.293367 
L 291.985012 30.562487 
L 293.508354 31.099521 
L 295.031695 31.902065 
L 296.555037 32.96653 
L 298.078378 34.288166 
L 299.60172 35.861084 
L 301.632842 38.33696 
L 303.663964 41.227542 
L 305.695086 44.510212 
L 308.233989 49.125774 
L 310.772891 54.258286 
L 313.819574 61.013205 
L 316.866257 68.309939 
L 320.928501 78.671574 
L 327.021867 94.962836 
L 334.638575 115.229097 
L 338.700819 125.420331 
L 342.255283 133.742898 
L 345.301966 140.331124 
L 348.348649 146.345727 
L 350.887551 150.882333 
L 353.426454 154.963186 
L 355.965356 158.574029 
L 357.996478 161.119344 
L 360.0276 163.358882 
L 362.058722 165.295071 
L 364.089844 166.932974 
L 366.120966 168.280138 
L 368.152088 169.346407 
L 370.18321 170.143723 
L 372.214333 170.685911 
L 374.245455 170.988445 
L 376.276577 171.06821 
L 378.307699 170.943252 
L 380.846601 170.528109 
L 383.385504 169.861158 
L 386.432187 168.78372 
L 389.47887 167.468141 
L 393.541114 165.458064 
L 409.79009 157.082737 
L 413.852334 155.415084 
L 417.406798 154.195908 
L 420.961261 153.216659 
L 424.515725 152.479591 
L 428.070188 151.975988 
L 431.624652 151.687944 
L 435.686896 151.590234 
L 440.256921 151.720637 
L 445.842506 152.124541 
L 455.998116 153.15067 
L 464.630385 153.927245 
L 471.231532 154.307227 
L 477.832678 154.469384 
L 485.449386 154.423235 
L 497.636118 154.074735 
L 510.330631 153.780236 
L 519.97846 153.793753 
L 530.641851 154.045366 
L 543.336364 154.478561 
L 543.336364 154.478561 
" style="fill:none;stroke:#2ca02c;stroke-linecap:square;stroke-width:1.5;"/>
   </g>
   <g id="line2d_20">
    <path clip-path="url(#pd2ec0b9752)" d="M 36.063636 154.478561 
L 59.42154 154.40115 
L 96.489517 154.530864 
L 120.355201 154.242383 
L 130.00303 154.441168 
L 149.29869 154.946238 
L 155.899836 154.834126 
L 163.008763 154.470245 
L 179.76552 153.449502 
L 184.335545 153.471876 
L 188.397789 153.70523 
L 192.460033 154.157845 
L 197.030057 154.908564 
L 204.138984 156.37073 
L 209.21679 157.318642 
L 212.263473 157.685636 
L 214.802375 157.796143 
L 217.341278 157.668968 
L 219.3724 157.357058 
L 221.403522 156.826075 
L 223.434644 156.046944 
L 225.465766 154.991936 
L 227.496888 153.635335 
L 229.52801 151.954113 
L 231.559132 149.928587 
L 233.590254 147.543045 
L 235.621376 144.786334 
L 237.652498 141.652379 
L 239.68362 138.140631 
L 242.222523 133.228402 
L 244.761425 127.758672 
L 247.300328 121.770863 
L 250.347011 113.979864 
L 253.901474 104.213757 
L 258.979279 89.472973 
L 266.088206 68.802067 
L 269.64267 59.187627 
L 272.181572 52.87013 
L 274.720475 47.143201 
L 276.751597 43.05945 
L 278.782719 39.472517 
L 280.813841 36.426696 
L 282.337183 34.520532 
L 283.860524 32.953706 
L 285.383866 31.737338 
L 286.907207 30.88009 
L 287.922768 30.511232 
L 288.938329 30.305929 
L 289.95389 30.264836 
L 290.969451 30.388083 
L 291.985012 30.675278 
L 293.000573 31.125506 
L 294.523915 32.103268 
L 296.047256 33.437541 
L 297.570598 35.118833 
L 299.093939 37.135231 
L 300.617281 39.472517 
L 302.648403 43.05945 
L 304.679525 47.143201 
L 307.218428 52.87013 
L 309.75733 59.187627 
L 312.804013 67.384262 
L 316.866257 79.010507 
L 327.021867 108.475169 
L 330.576331 117.951673 
L 333.623014 125.42299 
L 336.161916 131.10555 
L 338.700819 136.244518 
L 341.239722 140.809754 
L 343.270844 144.038331 
L 345.301966 146.888993 
L 347.333088 149.366471 
L 349.36421 151.480697 
L 351.395332 153.246294 
L 353.426454 154.682011 
L 355.457576 155.8101 
L 357.488698 156.655667 
L 359.51982 157.246003 
L 361.550942 157.609907 
L 363.582064 157.777031 
L 366.120966 157.754689 
L 369.167649 157.464166 
L 372.722113 156.879594 
L 380.338821 155.305774 
L 385.416626 154.38218 
L 389.47887 153.849299 
L 393.541114 153.534157 
L 397.603358 153.430957 
L 402.173382 153.527197 
L 408.774529 153.920902 
L 421.976822 154.775981 
L 428.577969 154.94023 
L 435.686896 154.880867 
L 447.365848 154.506975 
L 458.029238 154.252348 
L 467.169287 154.256548 
L 504.237265 154.565826 
L 530.13407 154.389459 
L 543.336364 154.478561 
L 543.336364 154.478561 
" style="fill:none;stroke:#d62728;stroke-linecap:square;stroke-width:1.5;"/>
   </g>
   <g id="patch_3">
    <path d="M 289.7 189.022975 
L 289.7 22.702975 
" style="fill:none;stroke:#000000;stroke-linecap:square;stroke-linejoin:miter;stroke-width:0.8;"/>
   </g>
   <g id="patch_4">
    <path d="M 568.7 189.022975 
L 568.7 22.702975 
" style="fill:none;"/>
   </g>
   <g id="patch_5">
    <path d="M 10.7 154.478561 
L 568.7 154.478561 
" style="fill:none;stroke:#000000;stroke-linecap:square;stroke-linejoin:miter;stroke-width:0.8;"/>
   </g>
   <g id="patch_6">
    <path d="M 10.7 22.702975 
L 568.7 22.702975 
" style="fill:none;"/>
   </g>
   <g id="text_1">
    <!-- Time -->
    <defs>
     <path d="M -0.296875 72.90625 
L 61.375 72.90625 
L 61.375 64.59375 
L 35.5 64.59375 
L 35.5 0 
L 25.59375 0 
L 25.59375 64.59375 
L -0.296875 64.59375 
z
" id="DejaVuSans-84"/>
     <path d="M 9.421875 54.6875 
L 18.40625 54.6875 
L 18.40625 0 
L 9.421875 0 
z
M 9.421875 75.984375 
L 18.40625 75.984375 
L 18.40625 64.59375 
L 9.421875 64.59375 
z
" id="DejaVuSans-105"/>
     <path d="M 52 44.1875 
Q 55.375 50.25 60.0625 53.125 
Q 64.75 56 71.09375 56 
Q 79.640625 56 84.28125 50.015625 
Q 88.921875 44.046875 88.921875 33.015625 
L 88.921875 0 
L 79.890625 0 
L 79.890625 32.71875 
Q 79.890625 40.578125 77.09375 44.375 
Q 74.3125 48.1875 68.609375 48.1875 
Q 61.625 48.1875 57.5625 43.546875 
Q 53.515625 38.921875 53.515625 30.90625 
L 53.515625 0 
L 44.484375 0 
L 44.484375 32.71875 
Q 44.484375 40.625 41.703125 44.40625 
Q 38.921875 48.1875 33.109375 48.1875 
Q 26.21875 48.1875 22.15625 43.53125 
Q 18.109375 38.875 18.109375 30.90625 
L 18.109375 0 
L 9.078125 0 
L 9.078125 54.6875 
L 18.109375 54.6875 
L 18.109375 46.1875 
Q 21.1875 51.21875 25.484375 53.609375 
Q 29.78125 56 35.6875 56 
Q 41.65625 56 45.828125 52.96875 
Q 50 49.953125 52 44.1875 
z
" id="DejaVuSans-109"/>
     <path d="M 56.203125 29.59375 
L 56.203125 25.203125 
L 14.890625 25.203125 
Q 15.484375 15.921875 20.484375 11.0625 
Q 25.484375 6.203125 34.421875 6.203125 
Q 39.59375 6.203125 44.453125 7.46875 
Q 49.3125 8.734375 54.109375 11.28125 
L 54.109375 2.78125 
Q 49.265625 0.734375 44.1875 -0.34375 
Q 39.109375 -1.421875 33.890625 -1.421875 
Q 20.796875 -1.421875 13.15625 6.1875 
Q 5.515625 13.8125 5.515625 26.8125 
Q 5.515625 40.234375 12.765625 48.109375 
Q 20.015625 56 32.328125 56 
Q 43.359375 56 49.78125 48.890625 
Q 56.203125 41.796875 56.203125 29.59375 
z
M 47.21875 32.234375 
Q 47.125 39.59375 43.09375 43.984375 
Q 39.0625 48.390625 32.421875 48.390625 
Q 24.90625 48.390625 20.390625 44.140625 
Q 15.875 39.890625 15.1875 32.171875 
z
" id="DejaVuSans-101"/>
    </defs>
    <g transform="translate(573.772727 160.689504)scale(0.14 -0.14)">
     <use xlink:href="#DejaVuSans-84"/>
     <use x="61.037109" xlink:href="#DejaVuSans-105"/>
     <use x="88.820312" xlink:href="#DejaVuSans-109"/>
     <use x="186.232422" xlink:href="#DejaVuSans-101"/>
    </g>
   </g>
   <g id="text_2">
    <!-- -4T -->
    <defs>
     <path d="M 4.890625 31.390625 
L 31.203125 31.390625 
L 31.203125 23.390625 
L 4.890625 23.390625 
z
" id="DejaVuSans-45"/>
     <path d="M 37.796875 64.3125 
L 12.890625 25.390625 
L 37.796875 25.390625 
z
M 35.203125 72.90625 
L 47.609375 72.90625 
L 47.609375 25.390625 
L 58.015625 25.390625 
L 58.015625 17.1875 
L 47.609375 17.1875 
L 47.609375 0 
L 37.796875 0 
L 37.796875 17.1875 
L 4.890625 17.1875 
L 4.890625 26.703125 
z
" id="DejaVuSans-52"/>
    </defs>
    <g transform="translate(26.552273 166.900447)scale(0.14 -0.14)">
     <use xlink:href="#DejaVuSans-45"/>
     <use x="36.083984" xlink:href="#DejaVuSans-52"/>
     <use x="99.707031" xlink:href="#DejaVuSans-84"/>
    </g>
   </g>
   <g id="text_3">
    <!-- -3T -->
    <defs>
     <path d="M 40.578125 39.3125 
Q 47.65625 37.796875 51.625 33 
Q 55.609375 28.21875 55.609375 21.1875 
Q 55.609375 10.40625 48.1875 4.484375 
Q 40.765625 -1.421875 27.09375 -1.421875 
Q 22.515625 -1.421875 17.65625 -0.515625 
Q 12.796875 0.390625 7.625 2.203125 
L 7.625 11.71875 
Q 11.71875 9.328125 16.59375 8.109375 
Q 21.484375 6.890625 26.8125 6.890625 
Q 36.078125 6.890625 40.9375 10.546875 
Q 45.796875 14.203125 45.796875 21.1875 
Q 45.796875 27.640625 41.28125 31.265625 
Q 36.765625 34.90625 28.71875 34.90625 
L 20.21875 34.90625 
L 20.21875 43.015625 
L 29.109375 43.015625 
Q 36.375 43.015625 40.234375 45.921875 
Q 44.09375 48.828125 44.09375 54.296875 
Q 44.09375 59.90625 40.109375 62.90625 
Q 36.140625 65.921875 28.71875 65.921875 
Q 24.65625 65.921875 20.015625 65.03125 
Q 15.375 64.15625 9.8125 62.3125 
L 9.8125 71.09375 
Q 15.4375 72.65625 20.34375 73.4375 
Q 25.25 74.21875 29.59375 74.21875 
Q 40.828125 74.21875 47.359375 69.109375 
Q 53.90625 64.015625 53.90625 55.328125 
Q 53.90625 49.265625 50.4375 45.09375 
Q 46.96875 40.921875 40.578125 39.3125 
z
" id="DejaVuSans-51"/>
    </defs>
    <g transform="translate(89.961364 166.900447)scale(0.14 -0.14)">
     <use xlink:href="#DejaVuSans-45"/>
     <use x="36.083984" xlink:href="#DejaVuSans-51"/>
     <use x="99.707031" xlink:href="#DejaVuSans-84"/>
    </g>
   </g>
   <g id="text_4">
    <!-- -2T -->
    <defs>
     <path d="M 19.1875 8.296875 
L 53.609375 8.296875 
L 53.609375 0 
L 7.328125 0 
L 7.328125 8.296875 
Q 12.9375 14.109375 22.625 23.890625 
Q 32.328125 33.6875 34.8125 36.53125 
Q 39.546875 41.84375 41.421875 45.53125 
Q 43.3125 49.21875 43.3125 52.78125 
Q 43.3125 58.59375 39.234375 62.25 
Q 35.15625 65.921875 28.609375 65.921875 
Q 23.96875 65.921875 18.8125 64.3125 
Q 13.671875 62.703125 7.8125 59.421875 
L 7.8125 69.390625 
Q 13.765625 71.78125 18.9375 73 
Q 24.125 74.21875 28.421875 74.21875 
Q 39.75 74.21875 46.484375 68.546875 
Q 53.21875 62.890625 53.21875 53.421875 
Q 53.21875 48.921875 51.53125 44.890625 
Q 49.859375 40.875 45.40625 35.40625 
Q 44.1875 33.984375 37.640625 27.21875 
Q 31.109375 20.453125 19.1875 8.296875 
z
" id="DejaVuSans-50"/>
    </defs>
    <g transform="translate(153.370455 166.900447)scale(0.14 -0.14)">
     <use xlink:href="#DejaVuSans-45"/>
     <use x="36.083984" xlink:href="#DejaVuSans-50"/>
     <use x="99.707031" xlink:href="#DejaVuSans-84"/>
    </g>
   </g>
   <g id="text_5">
    <!-- -T -->
    <g transform="translate(216.779545 166.900447)scale(0.14 -0.14)">
     <use xlink:href="#DejaVuSans-45"/>
     <use x="35.943359" xlink:href="#DejaVuSans-84"/>
    </g>
   </g>
   <g id="text_6">
    <!-- 0 -->
    <defs>
     <path d="M 31.78125 66.40625 
Q 24.171875 66.40625 20.328125 58.90625 
Q 16.5 51.421875 16.5 36.375 
Q 16.5 21.390625 20.328125 13.890625 
Q 24.171875 6.390625 31.78125 6.390625 
Q 39.453125 6.390625 43.28125 13.890625 
Q 47.125 21.390625 47.125 36.375 
Q 47.125 51.421875 43.28125 58.90625 
Q 39.453125 66.40625 31.78125 66.40625 
z
M 31.78125 74.21875 
Q 44.046875 74.21875 50.515625 64.515625 
Q 56.984375 54.828125 56.984375 36.375 
Q 56.984375 17.96875 50.515625 8.265625 
Q 44.046875 -1.421875 31.78125 -1.421875 
Q 19.53125 -1.421875 13.0625 8.265625 
Q 6.59375 17.96875 6.59375 36.375 
Q 6.59375 54.828125 13.0625 64.515625 
Q 19.53125 74.21875 31.78125 74.21875 
z
" id="DejaVuSans-48"/>
    </defs>
    <g transform="translate(280.188636 166.900447)scale(0.14 -0.14)">
     <use xlink:href="#DejaVuSans-48"/>
    </g>
   </g>
   <g id="text_7">
    <!-- 1T -->
    <defs>
     <path d="M 12.40625 8.296875 
L 28.515625 8.296875 
L 28.515625 63.921875 
L 10.984375 60.40625 
L 10.984375 69.390625 
L 28.421875 72.90625 
L 38.28125 72.90625 
L 38.28125 8.296875 
L 54.390625 8.296875 
L 54.390625 0 
L 12.40625 0 
z
" id="DejaVuSans-49"/>
    </defs>
    <g transform="translate(343.597727 166.900447)scale(0.14 -0.14)">
     <use xlink:href="#DejaVuSans-49"/>
     <use x="63.623047" xlink:href="#DejaVuSans-84"/>
    </g>
   </g>
   <g id="text_8">
    <!-- 2T -->
    <g transform="translate(407.006818 166.900447)scale(0.14 -0.14)">
     <use xlink:href="#DejaVuSans-50"/>
     <use x="63.623047" xlink:href="#DejaVuSans-84"/>
    </g>
   </g>
   <g id="text_9">
    <!-- 3T -->
    <g transform="translate(470.415909 166.900447)scale(0.14 -0.14)">
     <use xlink:href="#DejaVuSans-51"/>
     <use x="63.623047" xlink:href="#DejaVuSans-84"/>
    </g>
   </g>
   <g id="text_10">
    <!-- 4T -->
    <g transform="translate(533.825 166.900447)scale(0.14 -0.14)">
     <use xlink:href="#DejaVuSans-52"/>
     <use x="63.623047" xlink:href="#DejaVuSans-84"/>
    </g>
   </g>
   <g id="text_11">
    <!-- h(t) -->
    <defs>
     <path d="M 54.890625 33.015625 
L 54.890625 0 
L 45.90625 0 
L 45.90625 32.71875 
Q 45.90625 40.484375 42.875 44.328125 
Q 39.84375 48.1875 33.796875 48.1875 
Q 26.515625 48.1875 22.3125 43.546875 
Q 18.109375 38.921875 18.109375 30.90625 
L 18.109375 0 
L 9.078125 0 
L 9.078125 75.984375 
L 18.109375 75.984375 
L 18.109375 46.1875 
Q 21.34375 51.125 25.703125 53.5625 
Q 30.078125 56 35.796875 56 
Q 45.21875 56 50.046875 50.171875 
Q 54.890625 44.34375 54.890625 33.015625 
z
" id="DejaVuSans-104"/>
     <path d="M 31 75.875 
Q 24.46875 64.65625 21.28125 53.65625 
Q 18.109375 42.671875 18.109375 31.390625 
Q 18.109375 20.125 21.3125 9.0625 
Q 24.515625 -2 31 -13.1875 
L 23.1875 -13.1875 
Q 15.875 -1.703125 12.234375 9.375 
Q 8.59375 20.453125 8.59375 31.390625 
Q 8.59375 42.28125 12.203125 53.3125 
Q 15.828125 64.359375 23.1875 75.875 
z
" id="DejaVuSans-40"/>
     <path d="M 18.3125 70.21875 
L 18.3125 54.6875 
L 36.8125 54.6875 
L 36.8125 47.703125 
L 18.3125 47.703125 
L 18.3125 18.015625 
Q 18.3125 11.328125 20.140625 9.421875 
Q 21.96875 7.515625 27.59375 7.515625 
L 36.8125 7.515625 
L 36.8125 0 
L 27.59375 0 
Q 17.1875 0 13.234375 3.875 
Q 9.28125 7.765625 9.28125 18.015625 
L 9.28125 47.703125 
L 2.6875 47.703125 
L 2.6875 54.6875 
L 9.28125 54.6875 
L 9.28125 70.21875 
z
" id="DejaVuSans-116"/>
     <path d="M 8.015625 75.875 
L 15.828125 75.875 
Q 23.140625 64.359375 26.78125 53.3125 
Q 30.421875 42.28125 30.421875 31.390625 
Q 30.421875 20.453125 26.78125 9.375 
Q 23.140625 -1.703125 15.828125 -13.1875 
L 8.015625 -13.1875 
Q 14.5 -2 17.703125 9.0625 
Q 20.90625 20.125 20.90625 31.390625 
Q 20.90625 42.671875 17.703125 53.65625 
Q 14.5 64.65625 8.015625 75.875 
z
" id="DejaVuSans-41"/>
    </defs>
    <g transform="translate(280.188636 17.837812)scale(0.14 -0.14)">
     <use xlink:href="#DejaVuSans-104"/>
     <use x="63.378906" xlink:href="#DejaVuSans-40"/>
     <use x="102.392578" xlink:href="#DejaVuSans-116"/>
     <use x="141.601562" xlink:href="#DejaVuSans-41"/>
    </g>
   </g>
   <g id="legend_1">
    <g id="patch_7">
     <path d="M 453.364062 116.450475 
L 558.9 116.450475 
Q 561.7 116.450475 561.7 113.650475 
L 561.7 32.502975 
Q 561.7 29.702975 558.9 29.702975 
L 453.364062 29.702975 
Q 450.564062 29.702975 450.564062 32.502975 
L 450.564062 113.650475 
Q 450.564062 116.450475 453.364062 116.450475 
z
" style="fill:#ffffff;opacity:0.8;stroke:#cccccc;stroke-linejoin:miter;"/>
    </g>
    <g id="line2d_21">
     <path d="M 456.164062 41.128287 
L 484.164062 41.128287 
" style="fill:none;stroke:#1f77b4;stroke-linecap:square;stroke-width:1.5;"/>
    </g>
    <g id="line2d_22"/>
    <g id="text_12">
     <!-- β = 0 -->
     <defs>
      <path d="M 18.40625 3.375 
L 18.40625 -20.796875 
L 9.375 -20.796875 
L 9.375 54.34375 
Q 9.375 76.609375 30.171875 76.609375 
Q 51.375 76.609375 51.375 57.8125 
Q 51.375 44.4375 42.96875 39.546875 
Q 56.640625 35.15625 56.640625 22.125 
Q 56.640625 -1.03125 33.109375 -1.03125 
Q 22.75 -1.03125 18.40625 3.375 
z
M 18.40625 15.09375 
Q 23.828125 6.640625 33.453125 6.640625 
Q 47.515625 6.640625 47.515625 21.96875 
Q 47.515625 35.75 24.859375 34.671875 
L 24.859375 42.96875 
Q 42.578125 42.96875 42.578125 58.59375 
Q 42.578125 69.28125 31.15625 69.28125 
Q 18.40625 69.28125 18.40625 54.046875 
z
" id="DejaVuSans-946"/>
      <path id="DejaVuSans-32"/>
      <path d="M 10.59375 45.40625 
L 73.1875 45.40625 
L 73.1875 37.203125 
L 10.59375 37.203125 
z
M 10.59375 25.484375 
L 73.1875 25.484375 
L 73.1875 17.1875 
L 10.59375 17.1875 
z
" id="DejaVuSans-61"/>
     </defs>
     <g transform="translate(495.364062 46.028287)scale(0.14 -0.14)">
      <use xlink:href="#DejaVuSans-946"/>
      <use x="63.818359" xlink:href="#DejaVuSans-32"/>
      <use x="95.605469" xlink:href="#DejaVuSans-61"/>
      <use x="179.394531" xlink:href="#DejaVuSans-32"/>
      <use x="211.181641" xlink:href="#DejaVuSans-48"/>
     </g>
    </g>
    <g id="line2d_23">
     <path d="M 456.164062 61.765162 
L 484.164062 61.765162 
" style="fill:none;stroke:#ff7f0e;stroke-linecap:square;stroke-width:1.5;"/>
    </g>
    <g id="line2d_24"/>
    <g id="text_13">
     <!-- β = 0.25 -->
     <defs>
      <path d="M 10.6875 12.40625 
L 21 12.40625 
L 21 0 
L 10.6875 0 
z
" id="DejaVuSans-46"/>
      <path d="M 10.796875 72.90625 
L 49.515625 72.90625 
L 49.515625 64.59375 
L 19.828125 64.59375 
L 19.828125 46.734375 
Q 21.96875 47.46875 24.109375 47.828125 
Q 26.265625 48.1875 28.421875 48.1875 
Q 40.625 48.1875 47.75 41.5 
Q 54.890625 34.8125 54.890625 23.390625 
Q 54.890625 11.625 47.5625 5.09375 
Q 40.234375 -1.421875 26.90625 -1.421875 
Q 22.3125 -1.421875 17.546875 -0.640625 
Q 12.796875 0.140625 7.71875 1.703125 
L 7.71875 11.625 
Q 12.109375 9.234375 16.796875 8.0625 
Q 21.484375 6.890625 26.703125 6.890625 
Q 35.15625 6.890625 40.078125 11.328125 
Q 45.015625 15.765625 45.015625 23.390625 
Q 45.015625 31 40.078125 35.4375 
Q 35.15625 39.890625 26.703125 39.890625 
Q 22.75 39.890625 18.8125 39.015625 
Q 14.890625 38.140625 10.796875 36.28125 
z
" id="DejaVuSans-53"/>
     </defs>
     <g transform="translate(495.364062 66.665162)scale(0.14 -0.14)">
      <use xlink:href="#DejaVuSans-946"/>
      <use x="63.818359" xlink:href="#DejaVuSans-32"/>
      <use x="95.605469" xlink:href="#DejaVuSans-61"/>
      <use x="179.394531" xlink:href="#DejaVuSans-32"/>
      <use x="211.181641" xlink:href="#DejaVuSans-48"/>
      <use x="274.804688" xlink:href="#DejaVuSans-46"/>
      <use x="306.591797" xlink:href="#DejaVuSans-50"/>
      <use x="370.214844" xlink:href="#DejaVuSans-53"/>
     </g>
    </g>
    <g id="line2d_25">
     <path d="M 456.164062 82.402037 
L 484.164062 82.402037 
" style="fill:none;stroke:#2ca02c;stroke-linecap:square;stroke-width:1.5;"/>
    </g>
    <g id="line2d_26"/>
    <g id="text_14">
     <!-- β = 0.5 -->
     <g transform="translate(495.364062 87.302037)scale(0.14 -0.14)">
      <use xlink:href="#DejaVuSans-946"/>
      <use x="63.818359" xlink:href="#DejaVuSans-32"/>
      <use x="95.605469" xlink:href="#DejaVuSans-61"/>
      <use x="179.394531" xlink:href="#DejaVuSans-32"/>
      <use x="211.181641" xlink:href="#DejaVuSans-48"/>
      <use x="274.804688" xlink:href="#DejaVuSans-46"/>
      <use x="306.591797" xlink:href="#DejaVuSans-53"/>
     </g>
    </g>
    <g id="line2d_27">
     <path d="M 456.164062 103.038912 
L 484.164062 103.038912 
" style="fill:none;stroke:#d62728;stroke-linecap:square;stroke-width:1.5;"/>
    </g>
    <g id="line2d_28"/>
    <g id="text_15">
     <!-- β = 1 -->
     <g transform="translate(495.364062 107.938912)scale(0.14 -0.14)">
      <use xlink:href="#DejaVuSans-946"/>
      <use x="63.818359" xlink:href="#DejaVuSans-32"/>
      <use x="95.605469" xlink:href="#DejaVuSans-61"/>
      <use x="179.394531" xlink:href="#DejaVuSans-32"/>
      <use x="211.181641" xlink:href="#DejaVuSans-49"/>
     </g>
    </g>
   </g>
  </g>
 </g>
 <defs>
  <clipPath id="pd2ec0b9752">
   <rect height="166.32" width="558" x="10.7" y="22.702975"/>
  </clipPath>
 </defs>
</svg>
