<?xml version="1.0" encoding="utf-8" standalone="no"?>
<!DOCTYPE svg PUBLIC "-//W3C//DTD SVG 1.1//EN"
  "http://www.w3.org/Graphics/SVG/1.1/DTD/svg11.dtd">
<!-- Created with matplotlib (https://matplotlib.org/) -->
<svg height="199.741593pt" version="1.1" viewBox="0 0 615.657727 199.741593" width="615.657727pt" xmlns="http://www.w3.org/2000/svg" xmlns:xlink="http://www.w3.org/1999/xlink">
 <defs>
  <style type="text/css">
*{stroke-linecap:butt;stroke-linejoin:round;}
  </style>
 </defs>
 <g id="figure_1">
  <g id="patch_1">
   <path d="M 0 199.741593 
L 615.657727 199.741593 
L 615.657727 0 
L 0 0 
z
" style="fill:#ffffff;"/>
  </g>
  <g id="axes_1">
   <g id="patch_2">
    <path d="M 10.7 189.041593 
L 568.7 189.041593 
L 568.7 22.721593 
L 10.7 22.721593 
z
" style="fill:#ffffff;"/>
   </g>
   <g id="matplotlib.axis_1">
    <g id="xtick_1">
     <g id="line2d_1">
      <defs>
       <path d="M 0 0 
L 0 3.5 
" id="me9cb7644ed" style="stroke:#000000;stroke-width:0.8;"/>
      </defs>
      <g>
       <use style="stroke:#000000;stroke-width:0.8;" x="36.063636" xlink:href="#me9cb7644ed" y="154.494168"/>
      </g>
     </g>
    </g>
    <g id="xtick_2">
     <g id="line2d_2">
      <g>
       <use style="stroke:#000000;stroke-width:0.8;" x="99.472727" xlink:href="#me9cb7644ed" y="154.494168"/>
      </g>
     </g>
    </g>
    <g id="xtick_3">
     <g id="line2d_3">
      <g>
       <use style="stroke:#000000;stroke-width:0.8;" x="162.881818" xlink:href="#me9cb7644ed" y="154.494168"/>
      </g>
     </g>
    </g>
    <g id="xtick_4">
     <g id="line2d_4">
      <g>
       <use style="stroke:#000000;stroke-width:0.8;" x="226.290909" xlink:href="#me9cb7644ed" y="154.494168"/>
      </g>
     </g>
    </g>
    <g id="xtick_5">
     <g id="line2d_5">
      <g>
       <use style="stroke:#000000;stroke-width:0.8;" x="289.7" xlink:href="#me9cb7644ed" y="154.494168"/>
      </g>
     </g>
    </g>
    <g id="xtick_6">
     <g id="line2d_6">
      <g>
       <use style="stroke:#000000;stroke-width:0.8;" x="353.109091" xlink:href="#me9cb7644ed" y="154.494168"/>
      </g>
     </g>
    </g>
    <g id="xtick_7">
     <g id="line2d_7">
      <g>
       <use style="stroke:#000000;stroke-width:0.8;" x="416.518182" xlink:href="#me9cb7644ed" y="154.494168"/>
      </g>
     </g>
    </g>
    <g id="xtick_8">
     <g id="line2d_8">
      <g>
       <use style="stroke:#000000;stroke-width:0.8;" x="479.927273" xlink:href="#me9cb7644ed" y="154.494168"/>
      </g>
     </g>
    </g>
    <g id="xtick_9">
     <g id="line2d_9">
      <g>
       <use style="stroke:#000000;stroke-width:0.8;" x="543.336364" xlink:href="#me9cb7644ed" y="154.494168"/>
      </g>
     </g>
    </g>
   </g>
   <g id="matplotlib.axis_2">
    <g id="ytick_1">
     <g id="line2d_10">
      <defs>
       <path d="M 0 0 
L -3.5 0 
" id="mf4e5bded71" style="stroke:#000000;stroke-width:0.8;"/>
      </defs>
      <g>
       <use style="stroke:#000000;stroke-width:0.8;" x="289.7" xlink:href="#mf4e5bded71" y="179.340778"/>
      </g>
     </g>
    </g>
    <g id="ytick_2">
     <g id="line2d_11">
      <g>
       <use style="stroke:#000000;stroke-width:0.8;" x="289.7" xlink:href="#mf4e5bded71" y="154.494168"/>
      </g>
     </g>
    </g>
    <g id="ytick_3">
     <g id="line2d_12">
      <g>
       <use style="stroke:#000000;stroke-width:0.8;" x="289.7" xlink:href="#mf4e5bded71" y="129.647558"/>
      </g>
     </g>
    </g>
    <g id="ytick_4">
     <g id="line2d_13">
      <g>
       <use style="stroke:#000000;stroke-width:0.8;" x="289.7" xlink:href="#mf4e5bded71" y="104.800948"/>
      </g>
     </g>
    </g>
    <g id="ytick_5">
     <g id="line2d_14">
      <g>
       <use style="stroke:#000000;stroke-width:0.8;" x="289.7" xlink:href="#mf4e5bded71" y="79.954338"/>
      </g>
     </g>
    </g>
    <g id="ytick_6">
     <g id="line2d_15">
      <g>
       <use style="stroke:#000000;stroke-width:0.8;" x="289.7" xlink:href="#mf4e5bded71" y="55.107728"/>
      </g>
     </g>
    </g>
    <g id="ytick_7">
     <g id="line2d_16">
      <g>
       <use style="stroke:#000000;stroke-width:0.8;" x="289.7" xlink:href="#mf4e5bded71" y="30.261118"/>
      </g>
     </g>
    </g>
   </g>
   <g id="line2d_17">
    <path clip-path="url(#pa85ebc4b80)" d="M 36.063636 154.494168 
L 41.141441 156.868079 
L 43.680344 157.794701 
L 45.711466 158.318126 
L 47.742588 158.607565 
L 49.77371 158.640738 
L 51.804832 158.411186 
L 53.835954 157.928945 
L 55.867076 157.220198 
L 58.405979 156.079358 
L 62.468223 153.926631 
L 66.530467 151.838771 
L 69.069369 150.805454 
L 71.100491 150.220806 
L 73.131613 149.896762 
L 75.162735 149.85877 
L 77.193857 150.11468 
L 79.22498 150.653918 
L 81.256102 151.447799 
L 83.795004 152.727784 
L 87.349468 154.836821 
L 91.411712 157.233738 
L 93.950614 158.465496 
L 95.981736 159.19523 
L 98.012858 159.641317 
L 99.5362 159.768379 
L 101.059541 159.708767 
L 102.582883 159.461578 
L 104.106224 159.03256 
L 106.137346 158.199854 
L 108.168468 157.112598 
L 110.707371 155.493235 
L 117.816298 150.729263 
L 119.84742 149.681086 
L 121.878542 148.914232 
L 123.401884 148.557813 
L 124.925225 148.40747 
L 126.448567 148.472392 
L 127.971908 148.754302 
L 129.49525 149.247253 
L 131.018591 149.937703 
L 133.049713 151.128583 
L 135.588616 152.953463 
L 144.220885 159.582762 
L 146.252007 160.666746 
L 147.775348 161.244949 
L 149.29869 161.59347 
L 150.822031 161.694875 
L 152.345373 161.540097 
L 153.868714 161.128938 
L 155.392056 160.470271 
L 156.915397 159.581929 
L 158.946519 158.086908 
L 161.485422 155.840465 
L 169.102129 148.701762 
L 171.133251 147.276891 
L 172.656593 146.474286 
L 174.179934 145.938943 
L 175.703276 145.697029 
L 177.226618 145.765056 
L 178.749959 146.149057 
L 180.273301 146.844093 
L 181.796642 147.834136 
L 183.319984 149.092324 
L 185.351106 151.121627 
L 187.890008 154.060577 
L 193.983374 161.330247 
L 196.014496 163.278452 
L 197.537838 164.432046 
L 199.061179 165.26573 
L 200.07674 165.62336 
L 201.092301 165.811306 
L 202.107862 165.822702 
L 203.123423 165.65325 
L 204.138984 165.301345 
L 205.154545 164.768159 
L 206.677887 163.637981 
L 208.201229 162.134915 
L 209.72457 160.298206 
L 211.755692 157.422365 
L 214.294595 153.366133 
L 218.864619 145.914194 
L 220.895741 143.052233 
L 222.419083 141.268286 
L 223.942424 139.88203 
L 224.957985 139.212647 
L 225.973546 138.767257 
L 226.989107 138.559986 
L 228.004668 138.60183 
L 229.020229 138.90041 
L 230.03579 139.459764 
L 231.051351 140.28018 
L 232.066912 141.358078 
L 233.082473 142.685947 
L 234.605815 145.120303 
L 236.129156 148.035305 
L 238.160278 152.539118 
L 240.699181 158.838007 
L 245.269206 170.368537 
L 247.300328 174.792126 
L 248.823669 177.53847 
L 249.83923 179.023236 
L 250.854791 180.187891 
L 251.870352 180.998162 
L 252.885913 181.422764 
L 253.901474 181.433856 
L 254.917035 181.007462 
L 255.932596 180.123852 
L 256.948157 178.767883 
L 257.963718 176.92928 
L 258.979279 174.602874 
L 259.99484 171.788773 
L 261.518182 166.666715 
L 263.041523 160.502509 
L 264.564865 153.364927 
L 266.595987 142.501912 
L 268.627109 130.372613 
L 271.673792 110.605458 
L 277.259378 73.907565 
L 279.2905 61.931626 
L 281.321622 51.389564 
L 282.844963 44.659512 
L 284.368305 39.096353 
L 285.383866 36.09482 
L 286.399427 33.692835 
L 287.414988 31.91308 
L 288.430549 30.772396 
L 288.938329 30.445324 
L 289.44611 30.281593 
L 289.95389 30.281593 
L 290.461671 30.445324 
L 290.969451 30.772396 
L 291.477232 31.262035 
L 292.492793 32.723986 
L 293.508354 34.817332 
L 294.523915 37.522283 
L 295.539476 40.813325 
L 297.062817 46.779711 
L 298.586159 53.868487 
L 300.1095 61.931626 
L 302.140622 73.907565 
L 305.187305 93.602667 
L 310.772891 130.372613 
L 313.311794 145.349037 
L 315.342916 155.846931 
L 316.866257 162.669347 
L 318.389599 168.492479 
L 319.91294 173.256569 
L 320.928501 175.827171 
L 321.944062 177.909355 
L 322.959623 179.505672 
L 323.975184 180.623866 
L 324.990745 181.276682 
L 326.006306 181.481593 
L 327.021867 181.260498 
L 328.037428 180.639355 
L 329.052989 179.647784 
L 330.06855 178.318621 
L 331.084111 176.687454 
L 332.607453 173.757717 
L 334.638575 169.160733 
L 337.685258 161.457506 
L 341.239722 152.539118 
L 343.270844 148.035305 
L 344.794185 145.120303 
L 346.317527 142.685947 
L 347.840868 140.78732 
L 348.856429 139.837472 
L 349.87199 139.147383 
L 350.887551 138.71869 
L 351.903112 138.54921 
L 352.918673 138.633093 
L 353.934234 138.961 
L 354.949795 139.520337 
L 355.965356 140.295521 
L 357.488698 141.8224 
L 359.012039 143.722077 
L 361.043161 146.695041 
L 364.089844 151.674316 
L 367.644308 157.422365 
L 369.67543 160.298206 
L 371.198771 162.134915 
L 372.722113 163.637981 
L 374.245455 164.768159 
L 375.261016 165.301345 
L 376.276577 165.65325 
L 377.292138 165.822702 
L 378.307699 165.811306 
L 379.32326 165.62336 
L 380.338821 165.26573 
L 381.862162 164.432046 
L 383.385504 163.278452 
L 384.908845 161.854952 
L 386.939967 159.637435 
L 390.494431 155.306879 
L 393.541114 151.680336 
L 395.572236 149.56518 
L 397.095577 148.225366 
L 398.618919 147.142437 
L 400.14226 146.34674 
L 401.665602 145.857964 
L 403.188943 145.684747 
L 404.712285 145.824678 
L 406.235627 146.264663 
L 407.758968 146.981641 
L 409.28231 147.943621 
L 411.313432 149.538009 
L 413.852334 151.874798 
L 419.9457 157.666134 
L 421.976822 159.239099 
L 423.500164 160.198544 
L 425.023505 160.936184 
L 426.546847 161.431279 
L 428.070188 161.671943 
L 429.59353 161.655355 
L 431.116871 161.387668 
L 432.640213 160.883601 
L 434.163554 160.165755 
L 436.194676 158.927998 
L 438.733579 157.052507 
L 446.350287 151.128583 
L 448.381409 149.937703 
L 449.90475 149.247253 
L 451.428092 148.754302 
L 452.951433 148.472392 
L 454.474775 148.40747 
L 455.998116 148.557813 
L 457.521458 148.914232 
L 459.044799 149.460523 
L 461.075921 150.444525 
L 463.614824 151.987222 
L 472.754873 157.949703 
L 474.785995 158.85109 
L 476.817117 159.461578 
L 478.340459 159.708767 
L 479.8638 159.768379 
L 481.387142 159.641317 
L 482.910483 159.334995 
L 484.941605 158.671981 
L 486.972727 157.762297 
L 489.51163 156.373118 
L 497.636118 151.681078 
L 499.66724 150.830018 
L 501.698362 150.223746 
L 503.729484 149.89529 
L 505.760606 149.859829 
L 507.791728 150.114083 
L 509.82285 150.636866 
L 511.853972 151.39072 
L 514.392875 152.579086 
L 524.040704 157.416614 
L 526.071826 158.072029 
L 528.102948 158.492938 
L 530.13407 158.657104 
L 532.165192 158.558621 
L 534.196314 158.208007 
L 536.227437 157.631278 
L 538.766339 156.653877 
L 542.320803 154.992281 
L 543.336364 154.494168 
L 543.336364 154.494168 
" style="fill:none;stroke:#1f77b4;stroke-linecap:square;stroke-width:1.5;"/>
   </g>
   <g id="line2d_18">
    <path clip-path="url(#pa85ebc4b80)" d="M 36.063636 154.494168 
L 65.514906 154.586745 
L 76.686077 154.749901 
L 83.795004 154.607815 
L 100.551761 154.1233 
L 107.152907 154.278529 
L 121.878542 154.755398 
L 128.987469 154.651162 
L 138.635299 154.498193 
L 144.728665 154.660677 
L 154.884275 155.019813 
L 158.946519 154.886237 
L 162.500983 154.543301 
L 166.563227 153.920158 
L 174.687715 152.582167 
L 177.226618 152.393609 
L 179.76552 152.426269 
L 182.304423 152.724296 
L 184.335545 153.166704 
L 186.874447 153.964386 
L 189.92113 155.215204 
L 198.045618 158.815116 
L 200.07674 159.392021 
L 201.600082 159.646746 
L 203.123423 159.719693 
L 204.646765 159.589995 
L 206.170106 159.243255 
L 207.693448 158.672706 
L 209.21679 157.880163 
L 210.740131 156.876693 
L 212.771253 155.247714 
L 215.310156 152.85475 
L 221.911302 146.365355 
L 223.434644 145.192474 
L 224.957985 144.27671 
L 226.481327 143.677064 
L 227.496888 143.478904 
L 228.512449 143.457564 
L 229.52801 143.623874 
L 230.543571 143.986129 
L 231.559132 144.549808 
L 232.574693 145.31734 
L 233.590254 146.287903 
L 235.113595 148.114197 
L 236.636937 150.357709 
L 238.160278 152.971035 
L 240.1914 156.915356 
L 243.745864 164.483838 
L 246.284767 169.748943 
L 248.315889 173.426061 
L 249.83923 175.665346 
L 250.854791 176.838656 
L 251.870352 177.713129 
L 252.885913 178.253955 
L 253.901474 178.428899 
L 254.917035 178.208843 
L 255.932596 177.568284 
L 256.948157 176.485812 
L 257.963718 174.944536 
L 258.979279 172.93246 
L 259.99484 170.442804 
L 261.010401 167.474264 
L 262.533743 162.134663 
L 264.057084 155.76789 
L 265.580426 148.442452 
L 267.611548 137.355787 
L 270.15045 121.81828 
L 274.212695 94.918578 
L 277.767158 71.879469 
L 279.79828 59.991856 
L 281.321622 52.045351 
L 282.844963 45.127525 
L 284.368305 39.393996 
L 285.383866 36.295012 
L 286.399427 33.812308 
L 287.414988 31.971197 
L 288.430549 30.790503 
L 288.938329 30.451859 
L 289.44611 30.28232 
L 289.95389 30.28232 
L 290.461671 30.451859 
L 290.969451 30.790503 
L 291.477232 31.297382 
L 292.492793 32.810221 
L 293.508354 34.974894 
L 294.523915 37.769297 
L 295.539476 41.164983 
L 297.062817 47.309078 
L 298.586159 54.588226 
L 300.617281 65.774464 
L 303.156183 81.511699 
L 311.788452 137.355787 
L 313.819574 148.442452 
L 315.342916 155.76789 
L 316.866257 162.134663 
L 318.389599 167.474264 
L 319.40516 170.442804 
L 320.420721 172.93246 
L 321.436282 174.944536 
L 322.451843 176.485812 
L 323.467404 177.568284 
L 324.482965 178.208843 
L 325.498526 178.428899 
L 326.514087 178.253955 
L 327.529648 177.713129 
L 328.545209 176.838656 
L 329.56077 175.665346 
L 331.084111 173.426061 
L 332.607453 170.727526 
L 334.638575 166.644963 
L 340.731941 153.913537 
L 342.763063 150.357709 
L 344.286405 148.114197 
L 345.809746 146.287903 
L 347.333088 144.908065 
L 348.348649 144.242564 
L 349.36421 143.780097 
L 350.379771 143.516681 
L 351.395332 143.445398 
L 352.410893 143.55665 
L 353.426454 143.838445 
L 354.949795 144.549632 
L 356.473137 145.557934 
L 358.504259 147.258865 
L 361.043161 149.742048 
L 366.120966 154.795967 
L 368.152088 156.498623 
L 370.18321 157.880163 
L 371.706552 158.672706 
L 373.229894 159.243255 
L 374.753235 159.589995 
L 376.276577 159.719693 
L 377.799918 159.646746 
L 379.32326 159.392021 
L 381.354382 158.815116 
L 383.893284 157.814216 
L 393.541114 153.614607 
L 396.080016 152.922825 
L 398.111138 152.571426 
L 400.650041 152.38333 
L 403.188943 152.44565 
L 406.235627 152.776293 
L 410.805651 153.554324 
L 416.391237 154.477297 
L 419.9457 154.850489 
L 423.500164 155.010257 
L 427.562408 154.972916 
L 444.826945 154.519321 
L 461.583702 154.699969 
L 469.70819 154.384611 
L 477.832678 154.131721 
L 483.926044 154.173505 
L 493.066093 154.512679 
L 501.190581 154.738245 
L 508.299509 154.709238 
L 530.641851 154.42021 
L 543.336364 154.494168 
L 543.336364 154.494168 
" style="fill:none;stroke:#ff7f0e;stroke-linecap:square;stroke-width:1.5;"/>
   </g>
   <g id="line2d_19">
    <path clip-path="url(#pa85ebc4b80)" d="M 36.063636 154.494168 
L 58.913759 154.496691 
L 136.096396 154.462226 
L 150.314251 154.667165 
L 169.60991 154.610989 
L 180.781081 154.871446 
L 185.351106 154.702539 
L 191.444472 154.218396 
L 197.030057 153.829952 
L 201.092301 153.787289 
L 205.154545 153.986114 
L 213.279034 154.492811 
L 216.325717 154.391606 
L 218.864619 154.090684 
L 221.911302 153.479698 
L 229.52801 151.729464 
L 231.559132 151.606159 
L 233.082473 151.724494 
L 234.605815 152.064816 
L 236.129156 152.656857 
L 237.652498 153.520375 
L 239.175839 154.662407 
L 240.699181 156.074865 
L 242.730303 158.332786 
L 245.269206 161.591926 
L 249.33145 166.944079 
L 250.854791 168.648136 
L 252.378133 169.993093 
L 253.393694 170.624835 
L 254.409255 170.998907 
L 255.424816 171.077093 
L 256.440377 170.822902 
L 257.455938 170.202333 
L 258.471499 169.184641 
L 259.48706 167.743069 
L 260.502621 165.855556 
L 261.518182 163.505378 
L 262.533743 160.681732 
L 264.057084 155.550756 
L 265.580426 149.360434 
L 267.103767 142.161398 
L 269.134889 131.150362 
L 271.166011 118.813134 
L 274.212695 98.742158 
L 278.782719 68.629757 
L 280.813841 56.724893 
L 282.337183 48.885778 
L 283.860524 42.215186 
L 284.876085 38.508052 
L 285.891646 35.446671 
L 286.907207 33.068658 
L 287.922768 31.403376 
L 288.430549 30.84481 
L 288.938329 30.471465 
L 289.44611 30.284502 
L 289.95389 30.284502 
L 290.461671 30.471465 
L 290.969451 30.84481 
L 291.477232 31.403376 
L 292.492793 33.068658 
L 293.508354 35.446671 
L 294.523915 38.508052 
L 295.539476 42.215186 
L 297.062817 48.885778 
L 298.586159 56.724893 
L 300.617281 68.629757 
L 303.156183 85.063416 
L 308.741769 122.000949 
L 310.772891 134.041321 
L 312.804013 144.668504 
L 314.327355 151.539216 
L 315.850696 157.380225 
L 317.374038 162.153168 
L 318.389599 164.73912 
L 319.40516 166.856232 
L 320.420721 168.518336 
L 321.436282 169.744902 
L 322.451843 170.560421 
L 323.467404 170.993737 
L 324.482965 171.077316 
L 325.498526 170.846499 
L 326.514087 170.338738 
L 327.529648 169.592822 
L 329.052989 168.113545 
L 331.084111 165.672267 
L 337.685258 157.155083 
L 339.71638 155.104053 
L 341.239722 153.870173 
L 342.763063 152.913898 
L 344.286405 152.232985 
L 345.809746 151.811627 
L 347.333088 151.623097 
L 348.856429 151.632631 
L 350.887551 151.884185 
L 353.426454 152.442507 
L 360.0276 154.006352 
L 362.566503 154.347789 
L 365.105405 154.48806 
L 368.152088 154.431478 
L 373.737674 154.023421 
L 378.307699 153.787289 
L 381.862162 153.810979 
L 386.432187 154.089459 
L 396.587797 154.823588 
L 401.157821 154.872471 
L 407.758968 154.681838 
L 415.883456 154.495201 
L 423.500164 154.583268 
L 433.147993 154.664934 
L 443.303604 154.462226 
L 452.443653 154.376587 
L 509.31507 154.521871 
L 529.62629 154.52513 
L 543.336364 154.494168 
L 543.336364 154.494168 
" style="fill:none;stroke:#2ca02c;stroke-linecap:square;stroke-width:1.5;"/>
   </g>
   <g id="line2d_20">
    <path clip-path="url(#pa85ebc4b80)" d="M 36.063636 154.494168 
L 124.925225 154.494567 
L 143.205324 154.468658 
L 178.749959 154.536644 
L 186.874447 154.519265 
L 198.045618 154.424241 
L 211.247912 154.588871 
L 222.926863 154.286138 
L 226.989107 154.552852 
L 232.574693 154.949211 
L 235.113595 154.922361 
L 237.652498 154.689539 
L 241.206962 154.095094 
L 244.761425 153.537548 
L 246.792547 153.449663 
L 248.315889 153.569885 
L 249.83923 153.878247 
L 251.362572 154.378016 
L 253.393694 155.295813 
L 257.455938 157.314995 
L 258.979279 157.748391 
L 259.99484 157.804873 
L 261.010401 157.609201 
L 262.025962 157.103128 
L 263.041523 156.229039 
L 264.057084 154.931896 
L 265.072645 153.161278 
L 266.088206 150.87342 
L 267.103767 148.033207 
L 268.119328 144.616028 
L 269.134889 140.609431 
L 270.658231 133.500725 
L 272.181572 125.1376 
L 274.212695 112.294504 
L 276.751597 94.333048 
L 281.321622 61.521974 
L 282.844963 51.974603 
L 284.368305 43.791706 
L 285.383866 39.26832 
L 286.399427 35.594061 
L 287.414988 32.840534 
L 287.922768 31.826686 
L 288.430549 31.061866 
L 288.938329 30.549865 
L 289.44611 30.293227 
L 289.95389 30.293227 
L 290.461671 30.549865 
L 290.969451 31.061866 
L 291.477232 31.826686 
L 292.492793 34.098394 
L 293.508354 37.320186 
L 294.523915 41.42898 
L 295.539476 46.345135 
L 297.062817 55.024114 
L 299.093939 68.45222 
L 302.648403 94.333048 
L 305.187305 112.294504 
L 307.218428 125.1376 
L 308.741769 133.500725 
L 310.265111 140.609431 
L 311.788452 146.397819 
L 312.804013 149.524163 
L 313.819574 152.084424 
L 314.835135 154.108686 
L 315.850696 155.636632 
L 316.866257 156.715609 
L 317.881818 157.398603 
L 318.897379 157.742189 
L 319.91294 157.804537 
L 320.928501 157.643518 
L 322.451843 157.10445 
L 324.990745 155.823079 
L 327.529648 154.583856 
L 329.56077 153.878247 
L 331.084111 153.569885 
L 332.607453 153.449663 
L 334.638575 153.537548 
L 337.177477 153.909147 
L 342.255283 154.752298 
L 344.794185 154.943761 
L 347.333088 154.932602 
L 351.395332 154.641881 
L 356.473137 154.286138 
L 360.0276 154.256949 
L 365.613186 154.485821 
L 371.198771 154.642802 
L 376.784357 154.544846 
L 384.908845 154.399052 
L 427.562408 154.506419 
L 442.795823 154.499249 
L 459.55258 154.478536 
L 543.336364 154.494168 
L 543.336364 154.494168 
" style="fill:none;stroke:#d62728;stroke-linecap:square;stroke-width:1.5;"/>
   </g>
   <g id="patch_3">
    <path d="M 289.7 189.041593 
L 289.7 22.721593 
" style="fill:none;stroke:#000000;stroke-linecap:square;stroke-linejoin:miter;stroke-width:0.8;"/>
   </g>
   <g id="patch_4">
    <path d="M 568.7 189.041593 
L 568.7 22.721593 
" style="fill:none;"/>
   </g>
   <g id="patch_5">
    <path d="M 10.7 154.494168 
L 568.7 154.494168 
" style="fill:none;stroke:#000000;stroke-linecap:square;stroke-linejoin:miter;stroke-width:0.8;"/>
   </g>
   <g id="patch_6">
    <path d="M 10.7 22.721593 
L 568.7 22.721593 
" style="fill:none;"/>
   </g>
   <g id="text_1">
    <!-- h(t) -->
    <defs>
     <path d="M 54.890625 33.015625 
L 54.890625 0 
L 45.90625 0 
L 45.90625 32.71875 
Q 45.90625 40.484375 42.875 44.328125 
Q 39.84375 48.1875 33.796875 48.1875 
Q 26.515625 48.1875 22.3125 43.546875 
Q 18.109375 38.921875 18.109375 30.90625 
L 18.109375 0 
L 9.078125 0 
L 9.078125 75.984375 
L 18.109375 75.984375 
L 18.109375 46.1875 
Q 21.34375 51.125 25.703125 53.5625 
Q 30.078125 56 35.796875 56 
Q 45.21875 56 50.046875 50.171875 
Q 54.890625 44.34375 54.890625 33.015625 
z
" id="DejaVuSans-104"/>
     <path d="M 31 75.875 
Q 24.46875 64.65625 21.28125 53.65625 
Q 18.109375 42.671875 18.109375 31.390625 
Q 18.109375 20.125 21.3125 9.0625 
Q 24.515625 -2 31 -13.1875 
L 23.1875 -13.1875 
Q 15.875 -1.703125 12.234375 9.375 
Q 8.59375 20.453125 8.59375 31.390625 
Q 8.59375 42.28125 12.203125 53.3125 
Q 15.828125 64.359375 23.1875 75.875 
z
" id="DejaVuSans-40"/>
     <path d="M 18.3125 70.21875 
L 18.3125 54.6875 
L 36.8125 54.6875 
L 36.8125 47.703125 
L 18.3125 47.703125 
L 18.3125 18.015625 
Q 18.3125 11.328125 20.140625 9.421875 
Q 21.96875 7.515625 27.59375 7.515625 
L 36.8125 7.515625 
L 36.8125 0 
L 27.59375 0 
Q 17.1875 0 13.234375 3.875 
Q 9.28125 7.765625 9.28125 18.015625 
L 9.28125 47.703125 
L 2.6875 47.703125 
L 2.6875 54.6875 
L 9.28125 54.6875 
L 9.28125 70.21875 
z
" id="DejaVuSans-116"/>
     <path d="M 8.015625 75.875 
L 15.828125 75.875 
Q 23.140625 64.359375 26.78125 53.3125 
Q 30.421875 42.28125 30.421875 31.390625 
Q 30.421875 20.453125 26.78125 9.375 
Q 23.140625 -1.703125 15.828125 -13.1875 
L 8.015625 -13.1875 
Q 14.5 -2 17.703125 9.0625 
Q 20.90625 20.125 20.90625 31.390625 
Q 20.90625 42.671875 17.703125 53.65625 
Q 14.5 64.65625 8.015625 75.875 
z
" id="DejaVuSans-41"/>
    </defs>
    <g transform="translate(285.895455 17.837812)scale(0.14 -0.14)">
     <use xlink:href="#DejaVuSans-104"/>
     <use x="63.378906" xlink:href="#DejaVuSans-40"/>
     <use x="102.392578" xlink:href="#DejaVuSans-116"/>
     <use x="141.601562" xlink:href="#DejaVuSans-41"/>
    </g>
   </g>
   <g id="text_2">
    <!-- Time -->
    <defs>
     <path d="M -0.296875 72.90625 
L 61.375 72.90625 
L 61.375 64.59375 
L 35.5 64.59375 
L 35.5 0 
L 25.59375 0 
L 25.59375 64.59375 
L -0.296875 64.59375 
z
" id="DejaVuSans-84"/>
     <path d="M 9.421875 54.6875 
L 18.40625 54.6875 
L 18.40625 0 
L 9.421875 0 
z
M 9.421875 75.984375 
L 18.40625 75.984375 
L 18.40625 64.59375 
L 9.421875 64.59375 
z
" id="DejaVuSans-105"/>
     <path d="M 52 44.1875 
Q 55.375 50.25 60.0625 53.125 
Q 64.75 56 71.09375 56 
Q 79.640625 56 84.28125 50.015625 
Q 88.921875 44.046875 88.921875 33.015625 
L 88.921875 0 
L 79.890625 0 
L 79.890625 32.71875 
Q 79.890625 40.578125 77.09375 44.375 
Q 74.3125 48.1875 68.609375 48.1875 
Q 61.625 48.1875 57.5625 43.546875 
Q 53.515625 38.921875 53.515625 30.90625 
L 53.515625 0 
L 44.484375 0 
L 44.484375 32.71875 
Q 44.484375 40.625 41.703125 44.40625 
Q 38.921875 48.1875 33.109375 48.1875 
Q 26.21875 48.1875 22.15625 43.53125 
Q 18.109375 38.875 18.109375 30.90625 
L 18.109375 0 
L 9.078125 0 
L 9.078125 54.6875 
L 18.109375 54.6875 
L 18.109375 46.1875 
Q 21.1875 51.21875 25.484375 53.609375 
Q 29.78125 56 35.6875 56 
Q 41.65625 56 45.828125 52.96875 
Q 50 49.953125 52 44.1875 
z
" id="DejaVuSans-109"/>
     <path d="M 56.203125 29.59375 
L 56.203125 25.203125 
L 14.890625 25.203125 
Q 15.484375 15.921875 20.484375 11.0625 
Q 25.484375 6.203125 34.421875 6.203125 
Q 39.59375 6.203125 44.453125 7.46875 
Q 49.3125 8.734375 54.109375 11.28125 
L 54.109375 2.78125 
Q 49.265625 0.734375 44.1875 -0.34375 
Q 39.109375 -1.421875 33.890625 -1.421875 
Q 20.796875 -1.421875 13.15625 6.1875 
Q 5.515625 13.8125 5.515625 26.8125 
Q 5.515625 40.234375 12.765625 48.109375 
Q 20.015625 56 32.328125 56 
Q 43.359375 56 49.78125 48.890625 
Q 56.203125 41.796875 56.203125 29.59375 
z
M 47.21875 32.234375 
Q 47.125 39.59375 43.09375 43.984375 
Q 39.0625 48.390625 32.421875 48.390625 
Q 24.90625 48.390625 20.390625 44.140625 
Q 15.875 39.890625 15.1875 32.171875 
z
" id="DejaVuSans-101"/>
    </defs>
    <g transform="translate(573.772727 160.705821)scale(0.14 -0.14)">
     <use xlink:href="#DejaVuSans-84"/>
     <use x="61.037109" xlink:href="#DejaVuSans-105"/>
     <use x="88.820312" xlink:href="#DejaVuSans-109"/>
     <use x="186.232422" xlink:href="#DejaVuSans-101"/>
    </g>
   </g>
   <g id="legend_1">
    <g id="patch_7">
     <path d="M 453.364062 116.469093 
L 558.9 116.469093 
Q 561.7 116.469093 561.7 113.669093 
L 561.7 32.521593 
Q 561.7 29.721593 558.9 29.721593 
L 453.364062 29.721593 
Q 450.564062 29.721593 450.564062 32.521593 
L 450.564062 113.669093 
Q 450.564062 116.469093 453.364062 116.469093 
z
" style="fill:#ffffff;opacity:0.8;stroke:#cccccc;stroke-linejoin:miter;"/>
    </g>
    <g id="line2d_21">
     <path d="M 456.164062 41.146905 
L 484.164062 41.146905 
" style="fill:none;stroke:#1f77b4;stroke-linecap:square;stroke-width:1.5;"/>
    </g>
    <g id="line2d_22"/>
    <g id="text_3">
     <!-- β = 0 -->
     <defs>
      <path d="M 18.40625 3.375 
L 18.40625 -20.796875 
L 9.375 -20.796875 
L 9.375 54.34375 
Q 9.375 76.609375 30.171875 76.609375 
Q 51.375 76.609375 51.375 57.8125 
Q 51.375 44.4375 42.96875 39.546875 
Q 56.640625 35.15625 56.640625 22.125 
Q 56.640625 -1.03125 33.109375 -1.03125 
Q 22.75 -1.03125 18.40625 3.375 
z
M 18.40625 15.09375 
Q 23.828125 6.640625 33.453125 6.640625 
Q 47.515625 6.640625 47.515625 21.96875 
Q 47.515625 35.75 24.859375 34.671875 
L 24.859375 42.96875 
Q 42.578125 42.96875 42.578125 58.59375 
Q 42.578125 69.28125 31.15625 69.28125 
Q 18.40625 69.28125 18.40625 54.046875 
z
" id="DejaVuSans-946"/>
      <path id="DejaVuSans-32"/>
      <path d="M 10.59375 45.40625 
L 73.1875 45.40625 
L 73.1875 37.203125 
L 10.59375 37.203125 
z
M 10.59375 25.484375 
L 73.1875 25.484375 
L 73.1875 17.1875 
L 10.59375 17.1875 
z
" id="DejaVuSans-61"/>
      <path d="M 31.78125 66.40625 
Q 24.171875 66.40625 20.328125 58.90625 
Q 16.5 51.421875 16.5 36.375 
Q 16.5 21.390625 20.328125 13.890625 
Q 24.171875 6.390625 31.78125 6.390625 
Q 39.453125 6.390625 43.28125 13.890625 
Q 47.125 21.390625 47.125 36.375 
Q 47.125 51.421875 43.28125 58.90625 
Q 39.453125 66.40625 31.78125 66.40625 
z
M 31.78125 74.21875 
Q 44.046875 74.21875 50.515625 64.515625 
Q 56.984375 54.828125 56.984375 36.375 
Q 56.984375 17.96875 50.515625 8.265625 
Q 44.046875 -1.421875 31.78125 -1.421875 
Q 19.53125 -1.421875 13.0625 8.265625 
Q 6.59375 17.96875 6.59375 36.375 
Q 6.59375 54.828125 13.0625 64.515625 
Q 19.53125 74.21875 31.78125 74.21875 
z
" id="DejaVuSans-48"/>
     </defs>
     <g transform="translate(495.364062 46.046905)scale(0.14 -0.14)">
      <use xlink:href="#DejaVuSans-946"/>
      <use x="63.818359" xlink:href="#DejaVuSans-32"/>
      <use x="95.605469" xlink:href="#DejaVuSans-61"/>
      <use x="179.394531" xlink:href="#DejaVuSans-32"/>
      <use x="211.181641" xlink:href="#DejaVuSans-48"/>
     </g>
    </g>
    <g id="line2d_23">
     <path d="M 456.164062 61.78378 
L 484.164062 61.78378 
" style="fill:none;stroke:#ff7f0e;stroke-linecap:square;stroke-width:1.5;"/>
    </g>
    <g id="line2d_24"/>
    <g id="text_4">
     <!-- β = 0.25 -->
     <defs>
      <path d="M 10.6875 12.40625 
L 21 12.40625 
L 21 0 
L 10.6875 0 
z
" id="DejaVuSans-46"/>
      <path d="M 19.1875 8.296875 
L 53.609375 8.296875 
L 53.609375 0 
L 7.328125 0 
L 7.328125 8.296875 
Q 12.9375 14.109375 22.625 23.890625 
Q 32.328125 33.6875 34.8125 36.53125 
Q 39.546875 41.84375 41.421875 45.53125 
Q 43.3125 49.21875 43.3125 52.78125 
Q 43.3125 58.59375 39.234375 62.25 
Q 35.15625 65.921875 28.609375 65.921875 
Q 23.96875 65.921875 18.8125 64.3125 
Q 13.671875 62.703125 7.8125 59.421875 
L 7.8125 69.390625 
Q 13.765625 71.78125 18.9375 73 
Q 24.125 74.21875 28.421875 74.21875 
Q 39.75 74.21875 46.484375 68.546875 
Q 53.21875 62.890625 53.21875 53.421875 
Q 53.21875 48.921875 51.53125 44.890625 
Q 49.859375 40.875 45.40625 35.40625 
Q 44.1875 33.984375 37.640625 27.21875 
Q 31.109375 20.453125 19.1875 8.296875 
z
" id="DejaVuSans-50"/>
      <path d="M 10.796875 72.90625 
L 49.515625 72.90625 
L 49.515625 64.59375 
L 19.828125 64.59375 
L 19.828125 46.734375 
Q 21.96875 47.46875 24.109375 47.828125 
Q 26.265625 48.1875 28.421875 48.1875 
Q 40.625 48.1875 47.75 41.5 
Q 54.890625 34.8125 54.890625 23.390625 
Q 54.890625 11.625 47.5625 5.09375 
Q 40.234375 -1.421875 26.90625 -1.421875 
Q 22.3125 -1.421875 17.546875 -0.640625 
Q 12.796875 0.140625 7.71875 1.703125 
L 7.71875 11.625 
Q 12.109375 9.234375 16.796875 8.0625 
Q 21.484375 6.890625 26.703125 6.890625 
Q 35.15625 6.890625 40.078125 11.328125 
Q 45.015625 15.765625 45.015625 23.390625 
Q 45.015625 31 40.078125 35.4375 
Q 35.15625 39.890625 26.703125 39.890625 
Q 22.75 39.890625 18.8125 39.015625 
Q 14.890625 38.140625 10.796875 36.28125 
z
" id="DejaVuSans-53"/>
     </defs>
     <g transform="translate(495.364062 66.68378)scale(0.14 -0.14)">
      <use xlink:href="#DejaVuSans-946"/>
      <use x="63.818359" xlink:href="#DejaVuSans-32"/>
      <use x="95.605469" xlink:href="#DejaVuSans-61"/>
      <use x="179.394531" xlink:href="#DejaVuSans-32"/>
      <use x="211.181641" xlink:href="#DejaVuSans-48"/>
      <use x="274.804688" xlink:href="#DejaVuSans-46"/>
      <use x="306.591797" xlink:href="#DejaVuSans-50"/>
      <use x="370.214844" xlink:href="#DejaVuSans-53"/>
     </g>
    </g>
    <g id="line2d_25">
     <path d="M 456.164062 82.420655 
L 484.164062 82.420655 
" style="fill:none;stroke:#2ca02c;stroke-linecap:square;stroke-width:1.5;"/>
    </g>
    <g id="line2d_26"/>
    <g id="text_5">
     <!-- β = 0.5 -->
     <g transform="translate(495.364062 87.320655)scale(0.14 -0.14)">
      <use xlink:href="#DejaVuSans-946"/>
      <use x="63.818359" xlink:href="#DejaVuSans-32"/>
      <use x="95.605469" xlink:href="#DejaVuSans-61"/>
      <use x="179.394531" xlink:href="#DejaVuSans-32"/>
      <use x="211.181641" xlink:href="#DejaVuSans-48"/>
      <use x="274.804688" xlink:href="#DejaVuSans-46"/>
      <use x="306.591797" xlink:href="#DejaVuSans-53"/>
     </g>
    </g>
    <g id="line2d_27">
     <path d="M 456.164062 103.05753 
L 484.164062 103.05753 
" style="fill:none;stroke:#d62728;stroke-linecap:square;stroke-width:1.5;"/>
    </g>
    <g id="line2d_28"/>
    <g id="text_6">
     <!-- β = 1 -->
     <defs>
      <path d="M 12.40625 8.296875 
L 28.515625 8.296875 
L 28.515625 63.921875 
L 10.984375 60.40625 
L 10.984375 69.390625 
L 28.421875 72.90625 
L 38.28125 72.90625 
L 38.28125 8.296875 
L 54.390625 8.296875 
L 54.390625 0 
L 12.40625 0 
z
" id="DejaVuSans-49"/>
     </defs>
     <g transform="translate(495.364062 107.95753)scale(0.14 -0.14)">
      <use xlink:href="#DejaVuSans-946"/>
      <use x="63.818359" xlink:href="#DejaVuSans-32"/>
      <use x="95.605469" xlink:href="#DejaVuSans-61"/>
      <use x="179.394531" xlink:href="#DejaVuSans-32"/>
      <use x="211.181641" xlink:href="#DejaVuSans-49"/>
     </g>
    </g>
   </g>
  </g>
 </g>
 <defs>
  <clipPath id="pa85ebc4b80">
   <rect height="166.32" width="558" x="10.7" y="22.721593"/>
  </clipPath>
 </defs>
</svg>
