<?xml version="1.0" encoding="UTF-8" standalone="no"?>
<!-- Created with matplotlib (https://matplotlib.org/) -->
<svg xmlns:dc="http://purl.org/dc/elements/1.1/" xmlns:cc="http://creativecommons.org/ns#" xmlns:rdf="http://www.w3.org/1999/02/22-rdf-syntax-ns#" xmlns:svg="http://www.w3.org/2000/svg" xmlns="http://www.w3.org/2000/svg" xmlns:xlink="http://www.w3.org/1999/xlink" xmlns:sodipodi="http://sodipodi.sourceforge.net/DTD/sodipodi-0.dtd" xmlns:inkscape="http://www.inkscape.org/namespaces/inkscape" height="187.72pt" version="1.1" viewBox="0 0 579.4 187.72" width="579.4pt" id="svg172" sodipodi:docname="sampling_Fs_0.6.svg" inkscape:version="0.92.3 (2405546, 2018-03-11)">
  <metadata id="metadata176">
    <rdf:RDF>
      <cc:Work rdf:about="">
        <dc:format>image/svg+xml</dc:format>
        <dc:type rdf:resource="http://purl.org/dc/dcmitype/StillImage"/>
      </cc:Work>
    </rdf:RDF>
  </metadata>
  <sodipodi:namedview pagecolor="#ffffff" bordercolor="#666666" borderopacity="1" objecttolerance="10" gridtolerance="10" guidetolerance="10" inkscape:pageopacity="0" inkscape:pageshadow="2" inkscape:window-width="2922" inkscape:window-height="1423" id="namedview174" showgrid="false" inkscape:zoom="1.9105971" inkscape:cx="199.0944" inkscape:cy="35.758782" inkscape:window-x="0" inkscape:window-y="15" inkscape:window-maximized="0" inkscape:current-layer="axes_1"/>
  <defs id="defs4">
    <style type="text/css" id="style2">
*{stroke-linecap:butt;stroke-linejoin:round;}
  </style>
    <clipPath id="p2610fe3b52-7">
      <rect height="166.32001" width="558" x="10.7" y="10.7" id="rect167-6"/>
    </clipPath>
  </defs>
  <g id="figure_1">
    <g id="patch_1">
      <path d="M 0 187.72  L 579.4 187.72  L 579.4 0  L 0 0  z " style="fill:#ffffff;" id="path6"/>
    </g>
    <g id="axes_1">
      <g id="patch_2">
        <path d="M 10.7 177.02  L 568.7 177.02  L 568.7 10.7  L 10.7 10.7  z " style="fill:#ffffff;" id="path9"/>
      </g>
      <g id="matplotlib.axis_1">
        <g id="xtick_1">
          <g id="line2d_1">
            <defs id="defs13">
              <path d="M 0 0  L 0 3.5  " id="m9c3d6184b0" style="stroke:#000000;stroke-width:0.8;"/>
            </defs>
            <g id="g17">
              <use style="stroke:#000000;stroke-width:0.8;" x="10.7" xlink:href="#m9c3d6184b0" y="93.86" id="use15"/>
            </g>
          </g>
        </g>
        <g id="xtick_2">
          <g id="line2d_2">
            <g id="g23">
              <use style="stroke:#000000;stroke-width:0.8;" x="75.966975" xlink:href="#m9c3d6184b0" y="93.86" id="use21"/>
            </g>
          </g>
        </g>
        <g id="xtick_3">
          <g id="line2d_3">
            <g id="g29">
              <use style="stroke:#000000;stroke-width:0.8;" x="141.233949" xlink:href="#m9c3d6184b0" y="93.86" id="use27"/>
            </g>
          </g>
        </g>
        <g id="xtick_4">
          <g id="line2d_4">
            <g id="g35">
              <use style="stroke:#000000;stroke-width:0.8;" x="206.500924" xlink:href="#m9c3d6184b0" y="93.86" id="use33"/>
            </g>
          </g>
        </g>
        <g id="xtick_5">
          <g id="line2d_5">
            <g id="g41">
              <use style="stroke:#000000;stroke-width:0.8;" x="271.767899" xlink:href="#m9c3d6184b0" y="93.86" id="use39"/>
            </g>
          </g>
        </g>
        <g id="xtick_6">
          <g id="line2d_6">
            <g id="g47">
              <use style="stroke:#000000;stroke-width:0.8;" x="337.034873" xlink:href="#m9c3d6184b0" y="93.86" id="use45"/>
            </g>
          </g>
        </g>
        <g id="xtick_7">
          <g id="line2d_7">
            <g id="g53">
              <use style="stroke:#000000;stroke-width:0.8;" x="402.301848" xlink:href="#m9c3d6184b0" y="93.86" id="use51"/>
            </g>
          </g>
        </g>
        <g id="xtick_8">
          <g id="line2d_8">
            <g id="g59">
              <use style="stroke:#000000;stroke-width:0.8;" x="467.568823" xlink:href="#m9c3d6184b0" y="93.86" id="use57"/>
            </g>
          </g>
        </g>
        <g id="xtick_9">
          <g id="line2d_9">
            <g id="g65">
              <use style="stroke:#000000;stroke-width:0.8;" x="532.835797" xlink:href="#m9c3d6184b0" y="93.86" id="use63"/>
            </g>
          </g>
        </g>
      </g>
      <g id="matplotlib.axis_2">
        <g id="ytick_1">
          <g id="line2d_10">
            <defs id="defs71">
              <path d="M 0 0  L -3.5 0  " id="mff4d183742" style="stroke:#000000;stroke-width:0.8;"/>
            </defs>
            <g id="g75">
              <use style="stroke:#000000;stroke-width:0.8;" x="10.7" xlink:href="#mff4d183742" y="163.16" id="use73"/>
            </g>
          </g>
        </g>
        <g id="ytick_2">
          <g id="line2d_11">
            <g id="g81">
              <use style="stroke:#000000;stroke-width:0.8;" x="10.7" xlink:href="#mff4d183742" y="128.51" id="use79"/>
            </g>
          </g>
        </g>
        <g id="ytick_3">
          <g id="line2d_12">
            <g id="g87">
              <use style="stroke:#000000;stroke-width:0.8;" x="10.7" xlink:href="#mff4d183742" y="93.86" id="use85"/>
            </g>
          </g>
        </g>
        <g id="ytick_4">
          <g id="line2d_13">
            <g id="g93">
              <use style="stroke:#000000;stroke-width:0.8;" x="10.7" xlink:href="#mff4d183742" y="59.21" id="use91"/>
            </g>
          </g>
        </g>
        <g id="ytick_5">
          <g id="line2d_14">
            <g id="g99">
              <use style="stroke:#000000;stroke-width:0.8;" x="10.7" xlink:href="#mff4d183742" y="24.56" id="use97"/>
            </g>
          </g>
        </g>
      </g>
      <g id="line2d_15">
        <path clip-path="url(#p2610fe3b52)" d="M 10.7 80.092215  L 14.485485 65.687343  L 17.324598 55.728695  L 19.706843 48.151736  L 21.795386 42.215321  L 23.688128 37.481748  L 25.385069 33.808697  L 26.951477 30.929144  L 28.38735 28.741306  L 29.69269 27.140504  L 30.900129 25.997124  L 32.009667 25.237261  L 33.053939 24.779442  L 34.065577 24.575526  L 35.044582 24.60337  L 36.023586 24.85262  L 37.035224 25.341926  L 38.112129 26.119755  L 39.254301 27.230965  L 40.494374 28.765467  L 41.832347 30.795249  L 43.26822 33.391982  L 44.834628 36.698198  L 46.564203 40.890822  L 48.456945 46.082642  L 50.578122 52.575761  L 52.993 60.715496  L 55.864746 71.219412  L 59.715498 86.225545  L 68.232838 119.6667  L 71.169852 130.154869  L 73.617364 138.110933  L 75.771174 144.386762  L 77.69655 149.338478  L 79.426124 153.203779  L 81.025165 156.251647  L 82.493672 158.58273  L 83.831645 160.301794  L 85.071718 161.541091  L 86.21389 162.375592  L 87.290795 162.889413  L 88.302433 163.128891  L 89.281438 163.135514  L 90.260442 162.92067  L 91.27208 162.466737  L 92.316352 161.752542  L 93.42589 160.72321  L 94.633329 159.291286  L 95.938669 157.385632  L 97.341909 154.934812  L 98.875683 151.797942  L 100.572624 147.798967  L 102.432733 142.822153  L 104.488643 136.667061  L 106.838254 128.899806  L 109.579467 119.034261  L 113.103883 105.461011  L 123.6445 64.301898  L 126.418346 54.68069  L 128.767957 47.306936  L 130.823867 41.552948  L 132.683976 36.979805  L 134.380917 33.378804  L 135.914691 30.622759  L 137.317931 28.535285  L 138.62327 26.978286  L 139.830709 25.87625  L 140.940248 25.154901  L 141.98452 24.733641  L 142.996158 24.565303  L 143.975162 24.627612  L 144.954167 24.91125  L 145.965805 25.435891  L 147.04271 26.25098  L 148.184882 27.401149  L 149.424955 28.977108  L 150.762928 31.050394  L 152.231435 33.757036  L 153.830475 37.19504  L 155.56005 41.456519  L 157.485426 46.81303  L 159.639236 53.490516  L 162.086748 61.82988  L 165.023762 72.665131  L 169.102948 88.653307  L 176.60865 118.164665  L 179.643564 129.110702  L 182.156342 137.369514  L 184.342786 143.816962  L 186.300795 148.91819  L 188.063004 152.909479  L 189.662045 156.003197  L 191.130551 158.378264  L 192.468524 160.13869  L 193.708597 161.417198  L 194.850769 162.28838  L 195.927674 162.837138  L 196.939312 163.109621  L 197.918317 163.148249  L 198.897321 162.965369  L 199.90896 162.544314  L 200.953231 161.863778  L 202.06277 160.869764  L 203.270209 159.475585  L 204.575548 157.609723  L 205.978788 155.200252  L 207.512562 152.106577  L 209.17687 148.233639  L 211.004345 143.404126  L 213.060255 137.314596  L 215.377233 129.722894  L 218.085812 120.045312  L 221.512328 106.917806  L 232.901415 62.580555  L 235.577361 53.433211  L 237.861705 46.379324  L 239.884982 40.81734  L 241.712457 36.413679  L 243.376765 32.958461  L 244.910539 30.271544  L 246.313779 28.249743  L 247.586485 26.788266  L 248.76129 25.760635  L 249.870829 25.077856  L 250.9151 24.69319  L 251.894105 24.561033  L 252.87311 24.650418  L 253.852114 24.961059  L 254.896386 25.535151  L 255.973291 26.387436  L 257.148096 27.614715  L 258.388169 29.240848  L 259.758775 31.423314  L 261.227282 34.195287  L 262.826323 37.70083  L 264.588531 42.117295  L 266.546541 47.650509  L 268.732984 54.523519  L 271.245763 63.188954  L 274.280677 74.497062  L 278.686198 91.870813  L 285.114995 117.14229  L 288.215176 128.395927  L 290.760588 136.825071  L 292.947032 143.331604  L 294.905041 148.492337  L 296.66725 152.541856  L 298.298924 155.750601  L 299.767431 158.169494  L 301.138037 160.010216  L 302.37811 161.318828  L 303.520282 162.218188  L 304.597187 162.793794  L 305.608825 163.091655  L 306.58783 163.154899  L 307.566834 162.996615  L 308.578472 162.600871  L 309.622744 161.946258  L 310.732283 160.979456  L 311.907088 159.655506  L 313.179794 157.879687  L 314.583034 155.521329  L 316.084175 152.550661  L 317.748482 148.742672  L 319.575958 143.979038  L 321.599234 138.056632  L 323.883578 130.649894  L 326.52689 121.290014  L 329.822873 108.751606  L 336.545371 82.017816  L 340.526657 66.76546  L 343.398403 56.605598  L 345.813281 48.842991  L 347.934458 42.74123  L 349.8272 37.941111  L 351.556775 34.137343  L 353.123183 31.205448  L 354.559056 28.967632  L 355.897029 27.283657  L 357.104468 26.104911  L 358.24664 25.293012  L 359.290912 24.811708  L 360.30255 24.584928  L 361.281554 24.590615  L 362.260559 24.817749  L 363.272197 25.284319  L 364.349102 26.038164  L 365.491274 27.124282  L 366.698713 28.588069  L 368.004053 30.527294  L 369.439926 33.075604  L 371.006334 36.331485  L 372.703275 40.388844  L 374.596017 45.517987  L 376.684561 51.844952  L 379.066805 59.801553  L 381.873285 69.988912  L 385.560869 84.281371  L 395.02458 121.354768  L 397.896327 131.480819  L 400.311205 139.207163  L 402.432382 145.271754  L 404.325124 150.034978  L 406.054699 153.802346  L 407.621106 156.699374  L 409.05698 158.903894  L 410.362319 160.520309  L 411.569758 161.678433  L 412.679297 162.452037  L 413.723569 162.922905  L 414.735207 163.139524  L 415.714211 163.12399  L 416.693216 162.887025  L 417.704854 162.410348  L 418.781759 161.645841  L 419.923931 160.548567  L 421.13137 159.07321  L 422.43671 157.121801  L 423.872583 154.560555  L 425.438991 151.291223  L 427.135932 147.220194  L 429.028674 142.077066  L 431.117217 135.736407  L 433.499462 127.766656  L 436.305942 117.567502  L 439.993526 103.266101  L 449.359337 66.565211  L 452.231084 56.422205  L 454.645962 48.677691  L 456.767138 42.594485  L 458.659881 37.81279  L 460.389456 34.027203  L 461.955863 31.112727  L 463.391736 28.891549  L 464.697076 27.259535  L 465.904515 26.086679  L 467.046687 25.280433  L 468.090959 24.804347  L 469.102597 24.582647  L 470.081601 24.593258  L 471.060606 24.825308  L 472.072244 25.296932  L 473.149149 26.056108  L 474.291321 27.147805  L 475.49876 28.617378  L 476.8041 30.562697  L 478.239973 33.117476  L 479.80638 36.380086  L 481.503322 40.444283  L 483.396064 45.580422  L 485.484607 51.91424  L 487.866852 59.877422  L 490.673332 70.070687  L 494.360916 84.367628  L 503.791994 121.314794  L 506.663741 131.444244  L 509.078619 139.174228  L 511.199795 145.242546  L 513.092538 150.009468  L 514.822112 153.780483  L 516.38852 156.681004  L 517.824393 158.888857  L 519.129733 160.508393  L 520.337172 161.669464  L 521.44671 162.445816  L 522.490982 162.919293  L 523.50262 163.138452  L 524.481625 163.125379  L 525.460629 162.890872  L 526.472267 162.416722  L 527.549172 161.65488  L 528.691345 160.560394  L 529.898784 159.087929  L 531.204123 157.139565  L 532.639996 154.581551  L 534.206404 151.31558  L 535.903345 147.247966  L 537.796087 142.108331  L 539.884631 135.771092  L 542.266875 127.804624  L 545.073355 117.608412  L 548.760939 103.309238  L 558.159384 66.485187  L 561.03113 56.348951  L 563.446009 48.611696  L 565.436651 42.888479  L 565.436651 42.888479  " style="fill:none;stroke:#008000;stroke-linecap:square;stroke-width:1.5;" id="path104"/>
      </g>
      <g id="line2d_15-3" style="stroke:#ff0006;stroke-width:1.49999985;stroke-linecap:butt;stroke-linejoin:round;stroke-miterlimit:4;stroke-dasharray:1.49999985,5.99999942;stroke-dashoffset:14.99999711;stroke-opacity:1">
        <path inkscape:connector-curvature="0" clip-path="url(#p2610fe3b52-7)" d="m 10.7,80.092215 3.785485,-14.404872 2.839113,-9.958648 2.382245,-7.576959 2.088543,-5.936415 1.892742,-4.733573 1.696941,-3.673051 1.566408,-2.879553 1.435873,-2.187838 1.30534,-1.600802 1.207439,-1.14338 1.109538,-0.759863 1.044272,-0.457819 1.011638,-0.203916 0.979005,0.02784 0.979004,0.24925 1.011638,0.489306 1.076905,0.777829 1.142172,1.11121 1.240073,1.534502 1.337973,2.029782 1.435873,2.596733 1.566408,3.306216 1.729575,4.192624 1.892742,5.19182 2.121177,6.493119 2.414878,8.139735 2.871746,10.503916 3.850752,15.006133 8.51734,33.441159 2.937014,10.48817 2.447512,7.95606 2.15381,6.27583 1.925376,4.95172 1.729574,3.8653 1.599041,3.04787 1.468507,2.33108 1.337973,1.71906 1.240073,1.2393 1.142172,0.8345 1.076905,0.51382 1.011638,0.23948 0.979005,0.007 0.979004,-0.21484 1.011638,-0.45393 1.044272,-0.7142 1.109538,-1.02933 1.207439,-1.43192 1.30534,-1.90566 1.40324,-2.45082 1.533774,-3.13687 1.696937,-3.99897 1.86011,-4.97682 2.05591,-6.15509 2.34961,-7.76725 2.74122,-9.86555 3.52441,-13.57325 10.54062,-41.159116 2.77385,-9.621208 2.34961,-7.373754 2.05591,-5.753988 1.86011,-4.573143 1.69694,-3.601001 1.53377,-2.756045 1.40324,-2.087474 1.30534,-1.556999 1.20744,-1.102036 1.10954,-0.721349 1.04427,-0.42126 1.01164,-0.168338 0.979,0.06231 0.97901,0.283638 1.01163,0.524641 1.07691,0.815089 1.14217,1.150169 1.24007,1.575959 1.33798,2.073286 1.4685,2.706642 1.59904,3.438004 1.72958,4.261479 1.92538,5.356511 2.15381,6.677486 2.44751,8.339364 2.93701,10.835251 4.07919,15.988176 7.5057,29.511366 3.03491,10.94603 2.51278,8.25881 2.18645,6.44745 1.958,5.10123 1.76221,3.99129 1.59904,3.09372 1.46851,2.37506 1.33797,1.76043 1.24008,1.27851 1.14217,0.87118 1.0769,0.54876 1.01164,0.27248 0.97901,0.0386 0.979,-0.18288 1.01164,-0.42106 1.04427,-0.68053 1.10954,-0.99402 1.20744,-1.39418 1.30534,-1.86586 1.40324,-2.40947 1.53377,-3.09367 1.66431,-3.87294 1.82747,-4.82951 2.05591,-6.08953 2.31698,-7.59171 2.70858,-9.67758 3.42652,-13.1275 11.38908,-44.337258 2.67595,-9.147344 2.28434,-7.053887 2.02328,-5.561984 1.82748,-4.403661 1.6643,-3.455218 1.53378,-2.686917 1.40324,-2.021801 1.2727,-1.461477 1.17481,-1.027631 1.10954,-0.682779 1.04427,-0.384666 0.979,-0.132157 0.97901,0.08939 0.979,0.310641 1.04428,0.574092 1.0769,0.852285 1.17481,1.227279 1.24007,1.626133 1.37061,2.182466 1.4685,2.771973 1.59904,3.505543 1.76221,4.416465 1.95801,5.533214 2.18644,6.87301 2.51278,8.665435 3.03492,11.308108 4.40552,17.373751 6.4288,25.271475 3.10018,11.25364 2.54541,8.42914 2.18644,6.50653 1.95801,5.16074 1.76221,4.04952 1.63167,3.20874 1.46851,2.41889 1.37061,1.84073 1.24007,1.30861 1.14217,0.89936 1.07691,0.5756 1.01164,0.29786 0.979,0.0633 0.979,-0.15829 1.01164,-0.39574 1.04427,-0.65461 1.10954,-0.9668 1.17481,-1.32395 1.2727,-1.77582 1.40324,-2.35836 1.50115,-2.97067 1.6643,-3.80799 1.82748,-4.76363 2.02327,-5.92241 2.28435,-7.40674 2.64331,-9.35988 3.29598,-12.5384 6.7225,-26.733792 3.98129,-15.252356 2.87174,-10.159862 2.41488,-7.762607 2.12118,-6.101761 1.89274,-4.800119 1.72958,-3.803768 1.5664,-2.931895 1.43588,-2.237816 1.33797,-1.683975 1.20744,-1.178746 1.14217,-0.811899 1.04427,-0.481304 1.01164,-0.22678 0.979,0.0057 0.97901,0.227134 1.01164,0.46657 1.0769,0.753845 1.14217,1.086118 1.20744,1.463787 1.30534,1.939225 1.43588,2.54831 1.5664,3.255881 1.69695,4.057359 1.89274,5.129143 2.08854,6.326965 2.38224,7.956601 2.80648,10.187359 3.68759,14.292459 9.46371,37.073394 2.87175,10.12605 2.41487,7.72634 2.12118,6.06459 1.89274,4.76323 1.72958,3.76737 1.56641,2.89702 1.43587,2.20452 1.30534,1.61642 1.20744,1.15812 1.10954,0.77361 1.04427,0.47086 1.01164,0.21662 0.979,-0.0155 0.97901,-0.23697 1.01163,-0.47667 1.07691,-0.76451 1.14217,-1.09727 1.20744,-1.47536 1.30534,-1.95141 1.43587,-2.56125 1.56641,-3.26933 1.69694,-4.07103 1.89274,-5.14312 2.08855,-6.34066 2.38224,-7.96975 2.80648,-10.19916 3.68759,-14.3014 9.36581,-36.700884 2.87174,-10.143006 2.41488,-7.744514 2.12118,-6.083206 1.89274,-4.781695 1.72958,-3.785587 1.5664,-2.914476 1.43588,-2.221178 1.30534,-1.632014 1.20743,-1.172856 1.14218,-0.806246 1.04427,-0.476086 1.01164,-0.2217 0.979,0.01061 0.97901,0.23205 1.01163,0.471624 1.07691,0.759176 1.14217,1.091697 1.20744,1.469573 1.30534,1.945319 1.43587,2.554779 1.56641,3.26261 1.69694,4.064197 1.89274,5.136139 2.08855,6.333818 2.38224,7.963182 2.80648,10.193265 3.68759,14.296941 9.43107,36.947158 2.87175,10.12945 2.41488,7.72999 2.12117,6.06832 1.89275,4.76692 1.72957,3.77101 1.56641,2.90052 1.43587,2.20786 1.30534,1.61953 1.20744,1.16107 1.10954,0.77636 1.04427,0.47347 1.01164,0.21916 0.979,-0.0131 0.97901,-0.23451 1.01164,-0.47415 1.0769,-0.76184 1.14217,-1.09449 1.20744,-1.47246 1.30534,-1.94837 1.43588,-2.55801 1.5664,-3.26597 1.69694,-4.06761 1.89275,-5.13964 2.08854,-6.33724 2.38225,-7.96647 2.80647,-10.19621 3.68759,-14.29917 9.39844,-36.824049 2.87175,-10.136236 2.41488,-7.737255 1.99064,-5.723217 v 0" style="fill:none;stroke:#ff0006;stroke-width:1.49999985;stroke-linecap:square;stroke-linejoin:round;stroke-miterlimit:4;stroke-dasharray:1.49999985,5.99999942;stroke-dashoffset:14.99999711;stroke-opacity:1" id="path104-1"/>
      </g>
      <g id="line2d_16">
        <defs id="defs108">
          <path d="M 0 3.75  C 0.994512 3.75 1.948425 3.354876 2.65165 2.65165  C 3.354876 1.948425 3.75 0.994512 3.75 0  C 3.75 -0.994512 3.354876 -1.948425 2.65165 -2.65165  C 1.948425 -3.354876 0.994512 -3.75 0 -3.75  C -0.994512 -3.75 -1.948425 -3.354876 -2.65165 -2.65165  C -3.354876 -1.948425 -3.75 -0.994512 -3.75 0  C -3.75 0.994512 -3.354876 1.948425 -2.65165 2.65165  C -1.948425 3.354876 -0.994512 3.75 0 3.75  z " id="mfe55756d05" style="stroke:#0000ff;"/>
        </defs>
        <g clip-path="url(#p2610fe3b52)" id="g150">
          <use style="fill:#0000ff;stroke:#0000ff;" x="10.7" xlink:href="#mfe55756d05" y="80.092215" id="use110"/>
          <use style="fill:#0000ff;stroke:#0000ff;" x="65.089146" xlink:href="#mfe55756d05" y="107.627785" id="use112"/>
          <use style="fill:#0000ff;stroke:#0000ff;" x="119.478291" xlink:href="#mfe55756d05" y="80.092215" id="use114"/>
          <use style="fill:#0000ff;stroke:#0000ff;" x="173.867437" xlink:href="#mfe55756d05" y="107.627785" id="use116"/>
          <use style="fill:#0000ff;stroke:#0000ff;" x="228.256582" xlink:href="#mfe55756d05" y="80.092215" id="use118"/>
          <use style="fill:#0000ff;stroke:#0000ff;" x="282.645728" xlink:href="#mfe55756d05" y="107.627785" id="use120"/>
          <use style="fill:#0000ff;stroke:#0000ff;" x="337.034873" xlink:href="#mfe55756d05" y="80.092215" id="use122"/>
          <use style="fill:#0000ff;stroke:#0000ff;" x="391.424019" xlink:href="#mfe55756d05" y="107.627785" id="use124"/>
          <use style="fill:#0000ff;stroke:#0000ff;" x="445.813165" xlink:href="#mfe55756d05" y="80.092215" id="use126"/>
          <use style="fill:#0000ff;stroke:#0000ff;" x="500.20231" xlink:href="#mfe55756d05" y="107.627785" id="use128"/>
          <use style="fill:#0000ff;stroke:#0000ff;" x="554.591456" xlink:href="#mfe55756d05" y="80.092215" id="use130"/>
          <use style="fill:#0000ff;stroke:#0000ff;" x="608.980601" xlink:href="#mfe55756d05" y="107.627785" id="use132"/>
          <use style="fill:#0000ff;stroke:#0000ff;" x="663.369747" xlink:href="#mfe55756d05" y="80.092215" id="use134"/>
          <use style="fill:#0000ff;stroke:#0000ff;" x="717.758892" xlink:href="#mfe55756d05" y="107.627785" id="use136"/>
          <use style="fill:#0000ff;stroke:#0000ff;" x="772.148038" xlink:href="#mfe55756d05" y="80.092215" id="use138"/>
          <use style="fill:#0000ff;stroke:#0000ff;" x="826.537183" xlink:href="#mfe55756d05" y="107.627785" id="use140"/>
          <use style="fill:#0000ff;stroke:#0000ff;" x="880.926329" xlink:href="#mfe55756d05" y="80.092215" id="use142"/>
          <use style="fill:#0000ff;stroke:#0000ff;" x="935.315475" xlink:href="#mfe55756d05" y="107.627785" id="use144"/>
          <use style="fill:#0000ff;stroke:#0000ff;" x="989.70462" xlink:href="#mfe55756d05" y="80.092215" id="use146"/>
          <use style="fill:#0000ff;stroke:#0000ff;" x="1044.093766" xlink:href="#mfe55756d05" y="107.627785" id="use148"/>
        </g>
      </g>
      <g id="patch_3">
        <path d="M 10.7 177.02  L 10.7 10.7  " style="fill:none;stroke:#000000;stroke-linecap:square;stroke-linejoin:miter;stroke-width:0.8;" id="path153"/>
      </g>
      <g id="patch_4">
        <path d="M 568.7 177.02  L 568.7 10.7  " style="fill:none;" id="path156"/>
      </g>
      <g id="patch_5">
        <path d="M 10.7 93.86  L 568.7 93.86  " style="fill:none;stroke:#000000;stroke-linecap:square;stroke-linejoin:miter;stroke-width:0.8;" id="path159"/>
      </g>
      <g id="patch_6">
        <path d="M 10.7 10.7  L 568.7 10.7  " style="fill:none;" id="path162"/>
      </g>
    </g>
  </g>
  <defs id="defs170">
    <clipPath id="p2610fe3b52">
      <rect height="166.32" width="558" x="10.7" y="10.7" id="rect167"/>
    </clipPath>
  </defs>
</svg>