<svg width="816" height="336" xmlns="http://www.w3.org/2000/svg" xmlns:xlink="http://www.w3.org/1999/xlink" overflow="hidden"><defs><clipPath id="clip0"><rect x="0" y="0" width="816" height="336"/></clipPath></defs><g clip-path="url(#clip0)"><rect x="0" y="0" width="816" height="336" fill="#FFFFFF"/><path d="M223.482 95.6852C233.993 109.455 234.598 129.744 224.833 141.002 222.772 143.378 220.339 145.228 217.644 146.468L215.501 140.967C225.226 136.244 228.768 121.27 223.411 107.52 222.391 104.901 221.084 102.44 219.541 100.229Z" fill="#4472C4" fill-rule="evenodd"/><path d="M232.804 78.2572C249.177 89.0902 255.137 118.687 246.116 144.364 242.898 153.523 238.026 161.337 232.113 166.824L230.203 161.687C244.142 147.168 249.294 118.86 241.709 98.4593 239.223 91.7726 235.544 86.5031 231.063 83.2128Z" fill="#4472C4" fill-rule="evenodd"/><path d="M160 84 142 166 124 84Z" stroke="#000000" stroke-width="4" stroke-miterlimit="8" fill="#4472C4" fill-rule="evenodd"/><path d="M142 166 142 227.038" stroke="#000000" stroke-width="4" stroke-miterlimit="8" fill="none" fill-rule="evenodd"/><rect x="48.5001" y="191.5" width="124" height="83" stroke="#000000" stroke-width="3" stroke-miterlimit="8" fill="#4472C4"/><path d="M0 82 18 0 36 82Z" stroke="#000000" stroke-width="4" stroke-miterlimit="8" fill="#4472C4" fill-rule="evenodd" transform="matrix(1 -1.22465e-16 -1.22465e-16 -1 667 166)"/><path d="M0 0 0.000104987 61.0376" stroke="#000000" stroke-width="4" stroke-miterlimit="8" fill="none" fill-rule="evenodd" transform="matrix(-1 0 0 1 685 166)"/><rect x="0" y="0" width="124" height="83" stroke="#000000" stroke-width="3" stroke-miterlimit="8" fill="#4472C4" transform="matrix(-1 0 0 1 780.5 191.5)"/><text font-family="Times New Roman,Times New Roman_MSFontService,sans-serif" font-weight="400" font-size="24" transform="translate(81.3341 42)">TX Antenna <tspan font-size="24" x="19.34" y="29">Gain </tspan><tspan font-weight="700" font-size="24" x="72.0067" y="29">Gt</tspan><tspan font-size="24" x="-28.4196" y="200">Transmitter</tspan><tspan font-size="24" x="592.465" y="197">Receiver</tspan><tspan font-size="24" x="541.813" y="-4">RX Antenna </tspan><tspan font-size="24" x="560.486" y="25">Gain </tspan><tspan font-weight="700" font-size="24" x="613.153" y="25">Gr</tspan><tspan font-size="24" x="169.258" y="4">Transmit </tspan><tspan font-size="24" x="167.171" y="33">Power </tspan><tspan font-weight="700" font-size="24" x="234.505" y="33">Pt</tspan><tspan font-size="24" x="280.21" y="109">Path Loss</tspan><tspan font-weight="700" font-size="24" x="312.543" y="138">L</tspan><tspan font-weight="700" font-size="24" x="328.543" y="138">p</tspan></text><path d="M268 114.5 547 114.5 547 108 560 121 547 134 547 127.5 268 127.5Z" fill="#D9D9D9" fill-rule="evenodd"/><text font-family="Times New Roman,Times New Roman_MSFontService,sans-serif" font-weight="400" font-size="24" transform="translate(568.712 114)">Received <tspan font-size="24" x="-1.66663" y="29">Power </tspan><tspan font-weight="700" font-size="24" x="65.6667" y="29">Pr</tspan></text></g></svg>